<?xml version='1.0' encoding='utf-8'?>
<COLLADA xmlns="http://www.collada.org/2005/11/COLLADASchema" version="1.4.1"><asset><unit name="meter" meter="1" /><up_axis>Z_UP</up_axis></asset><library_effects><effect id="graphite-fx"><profile_COMMON><technique sid="common"><phong><emission><color>0 0 0 1</color></emission><ambient><color>0.065 0.075 0.085 1</color></ambient><diffuse><color>0.065 0.075 0.085 1</color></diffuse><specular><color>0.12 0.12 0.12 1</color></specular><shininess><float>25</float></shininess></phong></technique></profile_COMMON></effect><effect id="titanium-fx"><profile_COMMON><technique sid="common"><phong><emission><color>0 0 0 1</color></emission><ambient><color>0.36 0.4 0.43 1</color></ambient><diffuse><color>0.36 0.4 0.43 1</color></diffuse><specular><color>0.12 0.12 0.12 1</color></specular><shininess><float>25</float></shininess></phong></technique></profile_COMMON></effect><effect id="ivory-fx"><profile_COMMON><technique sid="common"><phong><emission><color>0 0 0 1</color></emission><ambient><color>0.72 0.72 0.65 1</color></ambient><diffuse><color>0.72 0.72 0.65 1</color></diffuse><specular><color>0.12 0.12 0.12 1</color></specular><shininess><float>25</float></shininess></phong></technique></profile_COMMON></effect><effect id="copper-fx"><profile_COMMON><technique sid="common"><phong><emission><color>0 0 0 1</color></emission><ambient><color>0.66 0.29 0.08 1</color></ambient><diffuse><color>0.66 0.29 0.08 1</color></diffuse><specular><color>0.12 0.12 0.12 1</color></specular><shininess><float>25</float></shininess></phong></technique></profile_COMMON></effect><effect id="rubber-fx"><profile_COMMON><technique sid="common"><phong><emission><color>0 0 0 1</color></emission><ambient><color>0.025 0.028 0.032 1</color></ambient><diffuse><color>0.025 0.028 0.032 1</color></diffuse><specular><color>0.12 0.12 0.12 1</color></specular><shininess><float>25</float></shininess></phong></technique></profile_COMMON></effect><effect id="lens-fx"><profile_COMMON><technique sid="common"><phong><emission><color>0 0 0 1</color></emission><ambient><color>0.05 0.26 0.33 1</color></ambient><diffuse><color>0.05 0.26 0.33 1</color></diffuse><specular><color>0.12 0.12 0.12 1</color></specular><shininess><float>25</float></shininess></phong></technique></profile_COMMON></effect></library_effects><library_materials><material id="graphite"><instance_effect url="#graphite-fx" /></material><material id="titanium"><instance_effect url="#titanium-fx" /></material><material id="ivory"><instance_effect url="#ivory-fx" /></material><material id="copper"><instance_effect url="#copper-fx" /></material><material id="rubber"><instance_effect url="#rubber-fx" /></material><material id="lens"><instance_effect url="#lens-fx" /></material></library_materials><library_geometries><geometry id="mesh0"><mesh><source id="mesh0-positions"><float_array id="mesh0-array" count="192">0.38999998569488525 -0.054999999701976776 0.07400000095367432 0.4099999666213989 -0.054999999701976776 0.07400000095367432 0.38999998569488525 -0.049342378973960876 0.07344277203083038 0.4099999666213989 -0.049342378973960876 0.07344277203083038 0.38999998569488525 -0.04390218108892441 0.07179250568151474 0.4099999666213989 -0.04390218108892441 0.07179250568151474 0.38999998569488525 -0.038888465613126755 0.0691126212477684 0.4099999666213989 -0.038888465613126755 0.0691126212477684 0.38999998569488525 -0.03449390456080437 0.06550610065460205 0.4099999666213989 -0.03449390456080437 0.06550610065460205 0.38999998569488525 -0.030887382104992867 0.06111153960227966 0.4099999666213989 -0.030887382104992867 0.06111153960227966 0.38999998569488525 -0.02820749394595623 0.05609782040119171 0.4099999666213989 -0.02820749394595623 0.05609782040119171 0.38999998569488525 -0.026557227596640587 0.05065762251615524 0.4099999666213989 -0.026557227596640587 0.05065762251615524 0.38999998569488525 -0.026000000536441803 0.04500000178813934 0.4099999666213989 -0.026000000536441803 0.04500000178813934 0.38999998569488525 -0.026557227596640587 0.039342381060123444 0.4099999666213989 -0.026557227596640587 0.039342381060123444 0.38999998569488525 -0.02820749394595623 0.033902183175086975 0.4099999666213989 -0.02820749394595623 0.033902183175086975 0.38999998569488525 -0.030887382104992867 0.028888465836644173 0.4099999666213989 -0.030887382104992867 0.028888465836644173 0.38999998569488525 -0.03449390456080437 0.024493906646966934 0.4099999666213989 -0.03449390456080437 0.024493906646966934 0.38999998569488525 -0.038888461887836456 0.020887384191155434 0.4099999666213989 -0.038888461887836456 0.020887384191155434 0.38999998569488525 -0.04390218108892441 0.018207496032118797 0.4099999666213989 -0.04390218108892441 0.018207496032118797 0.38999998569488525 -0.049342378973960876 0.016557229682803154 0.4099999666213989 -0.049342378973960876 0.016557229682803154 0.38999998569488525 -0.054999999701976776 0.01600000262260437 0.4099999666213989 -0.054999999701976776 0.01600000262260437 0.38999998569488525 -0.060657620429992676 0.016557229682803154 0.4099999666213989 -0.060657620429992676 0.016557229682803154 0.38999998569488525 -0.06609781831502914 0.018207496032118797 0.4099999666213989 -0.06609781831502914 0.018207496032118797 0.38999998569488525 -0.0711115375161171 0.020887384191155434 0.4099999666213989 -0.0711115375161171 0.020887384191155434 0.38999998569488525 -0.07550609111785889 0.024493906646966934 0.4099999666213989 -0.07550609111785889 0.024493906646966934 0.38999998569488525 -0.07911261916160583 0.028888465836644173 0.4099999666213989 -0.07911261916160583 0.028888465836644173 0.38999998569488525 -0.08179250359535217 0.033902183175086975 0.4099999666213989 -0.08179250359535217 0.033902183175086975 0.38999998569488525 -0.08344276994466782 0.039342381060123444 0.4099999666213989 -0.08344276994466782 0.039342381060123444 0.38999998569488525 -0.08399999886751175 0.04500000178813934 0.4099999666213989 -0.08399999886751175 0.04500000178813934 0.38999998569488525 -0.08344276994466782 0.05065762251615524 0.4099999666213989 -0.08344276994466782 0.05065762251615524 0.38999998569488525 -0.08179250359535217 0.05609782040119171 0.4099999666213989 -0.08179250359535217 0.05609782040119171 0.38999998569488525 -0.07911261916160583 0.06111153960227966 0.4099999666213989 -0.07911261916160583 0.06111153960227966 0.38999998569488525 -0.07550609111785889 0.06550610065460205 0.4099999666213989 -0.07550609111785889 0.06550610065460205 0.38999998569488525 -0.0711115375161171 0.0691126212477684 0.4099999666213989 -0.0711115375161171 0.0691126212477684 0.38999998569488525 -0.06609781831502914 0.07179250568151474 0.4099999666213989 -0.06609781831502914 0.07179250568151474 0.38999998569488525 -0.060657620429992676 0.07344277203083038 0.4099999666213989 -0.060657620429992676 0.07344277203083038</float_array><technique_common><accessor source="#mesh0-array" count="64" stride="3"><param name="X" type="float" /><param name="Y" type="float" /><param name="Z" type="float" /></accessor></technique_common></source><source id="mesh0-normals"><float_array id="mesh0-normals-array" count="372">2.2097539788269016e-16 0.09801717102527618 0.9951847195625305 2.2097539788269016e-16 0.09801717102527618 0.9951847195625305 2.1248344260021258e-16 0.2902846038341522 0.9569403529167175 2.1248344260021258e-16 0.2902846038341522 0.9569403529167175 1.9582585147818711e-16 0.47139686346054077 0.8819212317466736 1.9582585147818711e-16 0.47139686346054077 0.8819212317466736 1.7164279613628082e-16 0.6343933939933777 0.7730104327201843 1.7164279613628082e-16 0.6343933939933777 0.7730104327201843 1.4086363053630928e-16 0.7730104327201843 0.6343933939933777 1.4086363053630928e-16 0.7730104327201843 0.6343933939933777 1.046711303099947e-16 0.8819212317466736 0.47139686346054077 1.046711303099947e-16 0.8819212317466736 0.47139686346054077 6.445613017417356e-17 0.9569403529167175 0.2902846038341522 6.445613017417356e-17 0.9569403529167175 0.2902846038341522 2.1764184016176676e-17 0.9951847195625305 0.09801717102527618 2.1764184016176676e-17 0.9951847195625305 0.09801717102527618 -2.1764184016176676e-17 0.9951847195625305 -0.09801717102527618 -2.1764184016176676e-17 0.9951847195625305 -0.09801717102527618 -6.445613017417356e-17 0.9569403529167175 -0.2902846038341522 -6.445613017417356e-17 0.9569403529167175 -0.2902846038341522 -1.046711303099947e-16 0.8819212317466736 -0.47139686346054077 -1.046711303099947e-16 0.8819212317466736 -0.47139686346054077 -1.4086363053630928e-16 0.7730104327201843 -0.6343933939933777 -1.4086363053630928e-16 0.7730104327201843 -0.6343933939933777 -1.7164279613628082e-16 0.6343933939933777 -0.7730104327201843 -1.7164279613628082e-16 0.6343933939933777 -0.7730104327201843 -1.9582585147818711e-16 0.47139686346054077 -0.8819212317466736 -1.9582585147818711e-16 0.47139686346054077 -0.8819212317466736 -2.1248344260021258e-16 0.2902846038341522 -0.9569403529167175 -2.1248344260021258e-16 0.2902846038341522 -0.9569403529167175 -2.2097539788269016e-16 0.09801717102527618 -0.9951847195625305 -2.2097539788269016e-16 0.09801717102527618 -0.9951847195625305 -2.2097539788269016e-16 -0.09801717102527618 -0.9951847195625305 -2.2097539788269016e-16 -0.09801717102527618 -0.9951847195625305 -2.1248344260021258e-16 -0.2902846038341522 -0.9569403529167175 -2.1248344260021258e-16 -0.2902846038341522 -0.9569403529167175 -1.9582585147818711e-16 -0.47139686346054077 -0.8819212317466736 -1.9582585147818711e-16 -0.47139686346054077 -0.8819212317466736 -1.7164279613628082e-16 -0.6343933939933777 -0.7730104327201843 -1.7164279613628082e-16 -0.6343933939933777 -0.7730104327201843 -1.4086363053630928e-16 -0.7730104327201843 -0.6343933939933777 -1.4086363053630928e-16 -0.7730104327201843 -0.6343933939933777 -1.046711303099947e-16 -0.8819212317466736 -0.47139686346054077 -1.046711303099947e-16 -0.8819212317466736 -0.47139686346054077 -6.445613017417356e-17 -0.9569403529167175 -0.2902846038341522 -6.445613017417356e-17 -0.9569403529167175 -0.2902846038341522 -2.1764184016176676e-17 -0.9951847195625305 -0.09801717102527618 -2.1764184016176676e-17 -0.9951847195625305 -0.09801717102527618 2.1764184016176676e-17 -0.9951847195625305 0.09801717102527618 2.1764184016176676e-17 -0.9951847195625305 0.09801717102527618 6.445613017417356e-17 -0.9569403529167175 0.2902846038341522 6.445613017417356e-17 -0.9569403529167175 0.2902846038341522 1.046711303099947e-16 -0.8819212317466736 0.47139686346054077 1.046711303099947e-16 -0.8819212317466736 0.47139686346054077 1.4086363053630928e-16 -0.7730104327201843 0.6343933939933777 1.4086363053630928e-16 -0.7730104327201843 0.6343933939933777 1.7164279613628082e-16 -0.6343933939933777 0.7730104327201843 1.7164279613628082e-16 -0.6343933939933777 0.7730104327201843 1.9582585147818711e-16 -0.47139686346054077 0.8819212317466736 1.9582585147818711e-16 -0.47139686346054077 0.8819212317466736 1.0 2.220446049250313e-16 4.930380657631324e-32 1.0 2.220446049250313e-16 4.930380657631324e-32 1.0 2.220446049250313e-16 4.930380657631324e-32 1.0 2.220446049250313e-16 4.930380657631324e-32 1.0 2.220446049250313e-16 4.930380657631324e-32 1.0 2.220446049250313e-16 4.930380657631324e-32 1.0 2.220446049250313e-16 4.930380657631324e-32 1.0 2.220446049250313e-16 4.930380657631324e-32 1.0 2.220446049250313e-16 4.930380657631324e-32 1.0 2.220446049250313e-16 4.930380657631324e-32 1.0 2.220446049250313e-16 4.930380657631324e-32 1.0 2.220446049250313e-16 4.930380657631324e-32 1.0 2.220446049250313e-16 4.930380657631324e-32 1.0 2.220446049250313e-16 4.930380657631324e-32 1.0 2.220446049250313e-16 4.930380657631324e-32 1.0 2.220446049250313e-16 4.930380657631324e-32 1.0 2.220446049250313e-16 4.930380657631324e-32 1.0 2.220446049250313e-16 4.930380657631324e-32 1.0 2.220446049250313e-16 4.930380657631324e-32 1.0 2.220446049250313e-16 4.930380657631324e-32 1.0 2.220446049250313e-16 4.930380657631324e-32 1.0 2.220446049250313e-16 4.930380657631324e-32 1.0 2.220446049250313e-16 4.930380657631324e-32 1.0 2.220446049250313e-16 4.930380657631324e-32 1.0 2.220446049250313e-16 4.930380657631324e-32 1.0 2.220446049250313e-16 4.930380657631324e-32 1.0 2.220446049250313e-16 4.930380657631324e-32 1.0 2.220446049250313e-16 4.930380657631324e-32 1.0 2.220446049250313e-16 4.930380657631324e-32 1.0 2.220446049250313e-16 4.930380657631324e-32 2.1248344260021258e-16 -0.2902846038341522 0.9569403529167175 2.1248344260021258e-16 -0.2902846038341522 0.9569403529167175 2.2097539788269016e-16 -0.09801717102527618 0.9951847195625305 2.2097539788269016e-16 -0.09801717102527618 0.9951847195625305 -1.0 -2.220446049250313e-16 -4.930380657631324e-32 -1.0 -2.220446049250313e-16 -4.930380657631324e-32 -1.0 -2.220446049250313e-16 -4.930380657631324e-32 -1.0 -2.220446049250313e-16 -4.930380657631324e-32 -1.0 -2.220446049250313e-16 -4.930380657631324e-32 -1.0 -2.220446049250313e-16 -4.930380657631324e-32 -1.0 -2.220446049250313e-16 -4.930380657631324e-32 -1.0 -2.220446049250313e-16 -4.930380657631324e-32 -1.0 -2.220446049250313e-16 -4.930380657631324e-32 -1.0 -2.220446049250313e-16 -4.930380657631324e-32 -1.0 -2.220446049250313e-16 -4.930380657631324e-32 -1.0 -2.220446049250313e-16 -4.930380657631324e-32 -1.0 -2.220446049250313e-16 -4.930380657631324e-32 -1.0 -2.220446049250313e-16 -4.930380657631324e-32 -1.0 -2.220446049250313e-16 -4.930380657631324e-32 -1.0 -2.220446049250313e-16 -4.930380657631324e-32 -1.0 -2.220446049250313e-16 -4.930380657631324e-32 -1.0 -2.220446049250313e-16 -4.930380657631324e-32 -1.0 -2.220446049250313e-16 -4.930380657631324e-32 -1.0 -2.220446049250313e-16 -4.930380657631324e-32 -1.0 -2.220446049250313e-16 -4.930380657631324e-32 -1.0 -2.220446049250313e-16 -4.930380657631324e-32 -1.0 -2.220446049250313e-16 -4.930380657631324e-32 -1.0 -2.220446049250313e-16 -4.930380657631324e-32 -1.0 -2.220446049250313e-16 -4.930380657631324e-32 -1.0 -2.220446049250313e-16 -4.930380657631324e-32 -1.0 -2.220446049250313e-16 -4.930380657631324e-32 -1.0 -2.220446049250313e-16 -4.930380657631324e-32 -1.0 -2.220446049250313e-16 -4.930380657631324e-32 -1.0 -2.220446049250313e-16 -4.930380657631324e-32</float_array><technique_common><accessor source="#mesh0-normals-array" count="124" stride="3"><param name="X" type="float" /><param name="Y" type="float" /><param name="Z" type="float" /></accessor></technique_common></source><vertices id="mesh0-vertices"><input semantic="POSITION" source="#mesh0-positions" /></vertices><triangles count="124" material="rubber"><input semantic="VERTEX" source="#mesh0-vertices" offset="0" /><input semantic="NORMAL" source="#mesh0-normals" offset="1" /><p>0 0 1 0 3 0 0 1 3 1 2 1 2 2 3 2 5 2 2 3 5 3 4 3 4 4 5 4 7 4 4 5 7 5 6 5 6 6 7 6 9 6 6 7 9 7 8 7 8 8 9 8 11 8 8 9 11 9 10 9 10 10 11 10 13 10 10 11 13 11 12 11 12 12 13 12 15 12 12 13 15 13 14 13 14 14 15 14 17 14 14 15 17 15 16 15 16 16 17 16 19 16 16 17 19 17 18 17 18 18 19 18 21 18 18 19 21 19 20 19 20 20 21 20 23 20 20 21 23 21 22 21 22 22 23 22 25 22 22 23 25 23 24 23 24 24 25 24 27 24 24 25 27 25 26 25 26 26 27 26 29 26 26 27 29 27 28 27 28 28 29 28 31 28 28 29 31 29 30 29 30 30 31 30 33 30 30 31 33 31 32 31 32 32 33 32 35 32 32 33 35 33 34 33 34 34 35 34 37 34 34 35 37 35 36 35 36 36 37 36 39 36 36 37 39 37 38 37 38 38 39 38 41 38 38 39 41 39 40 39 40 40 41 40 43 40 40 41 43 41 42 41 42 42 43 42 45 42 42 43 45 43 44 43 44 44 45 44 47 44 44 45 47 45 46 45 46 46 47 46 49 46 46 47 49 47 48 47 48 48 49 48 51 48 48 49 51 49 50 49 50 50 51 50 53 50 50 51 53 51 52 51 52 52 53 52 55 52 52 53 55 53 54 53 54 54 55 54 57 54 54 55 57 55 56 55 56 56 57 56 59 56 56 57 59 57 58 57 58 58 59 58 61 58 58 59 61 59 60 59 5 60 3 60 1 60 1 61 63 61 61 61 61 62 59 62 57 62 57 63 55 63 53 63 53 64 51 64 49 64 49 65 47 65 45 65 45 66 43 66 41 66 41 67 39 67 37 67 37 68 35 68 33 68 33 69 31 69 29 69 29 70 27 70 25 70 25 71 23 71 21 71 21 72 19 72 17 72 17 73 15 73 13 73 13 74 11 74 9 74 9 75 7 75 5 75 5 76 1 76 61 76 61 77 57 77 53 77 53 78 49 78 45 78 45 79 41 79 37 79 37 80 33 80 29 80 29 81 25 81 21 81 21 82 17 82 13 82 13 83 9 83 5 83 5 84 61 84 53 84 53 85 45 85 37 85 37 86 29 86 21 86 21 87 13 87 5 87 5 88 53 88 37 88 37 89 21 89 5 89 60 90 61 90 63 90 60 91 63 91 62 91 62 92 63 92 1 92 62 93 1 93 0 93 62 94 0 94 2 94 2 95 4 95 6 95 6 96 8 96 10 96 10 97 12 97 14 97 14 98 16 98 18 98 18 99 20 99 22 99 22 100 24 100 26 100 26 101 28 101 30 101 30 102 32 102 34 102 34 103 36 103 38 103 38 104 40 104 42 104 42 105 44 105 46 105 46 106 48 106 50 106 50 107 52 107 54 107 54 108 56 108 58 108 58 109 60 109 62 109 62 110 2 110 6 110 6 111 10 111 14 111 14 112 18 112 22 112 22 113 26 113 30 113 30 114 34 114 38 114 38 115 42 115 46 115 46 116 50 116 54 116 54 117 58 117 62 117 62 118 6 118 14 118 14 119 22 119 30 119 30 120 38 120 46 120 46 121 54 121 62 121 62 122 14 122 30 122 30 123 46 123 62 123</p></triangles></mesh></geometry><geometry id="mesh1"><mesh><source id="mesh1-positions"><float_array id="mesh1-array" count="192">0.38999998569488525 0.054999999701976776 0.07400000095367432 0.4099999666213989 0.054999999701976776 0.07400000095367432 0.38999998569488525 0.060657620429992676 0.07344277203083038 0.4099999666213989 0.060657620429992676 0.07344277203083038 0.38999998569488525 0.06609781831502914 0.07179250568151474 0.4099999666213989 0.06609781831502914 0.07179250568151474 0.38999998569488525 0.0711115375161171 0.0691126212477684 0.4099999666213989 0.0711115375161171 0.0691126212477684 0.38999998569488525 0.07550609111785889 0.06550610065460205 0.4099999666213989 0.07550609111785889 0.06550610065460205 0.38999998569488525 0.07911261916160583 0.06111153960227966 0.4099999666213989 0.07911261916160583 0.06111153960227966 0.38999998569488525 0.08179250359535217 0.05609782040119171 0.4099999666213989 0.08179250359535217 0.05609782040119171 0.38999998569488525 0.08344276994466782 0.05065762251615524 0.4099999666213989 0.08344276994466782 0.05065762251615524 0.38999998569488525 0.08399999886751175 0.04500000178813934 0.4099999666213989 0.08399999886751175 0.04500000178813934 0.38999998569488525 0.08344276994466782 0.039342381060123444 0.4099999666213989 0.08344276994466782 0.039342381060123444 0.38999998569488525 0.08179250359535217 0.033902183175086975 0.4099999666213989 0.08179250359535217 0.033902183175086975 0.38999998569488525 0.07911261916160583 0.028888465836644173 0.4099999666213989 0.07911261916160583 0.028888465836644173 0.38999998569488525 0.07550609111785889 0.024493906646966934 0.4099999666213989 0.07550609111785889 0.024493906646966934 0.38999998569488525 0.0711115375161171 0.020887384191155434 0.4099999666213989 0.0711115375161171 0.020887384191155434 0.38999998569488525 0.06609781831502914 0.018207496032118797 0.4099999666213989 0.06609781831502914 0.018207496032118797 0.38999998569488525 0.060657620429992676 0.016557229682803154 0.4099999666213989 0.060657620429992676 0.016557229682803154 0.38999998569488525 0.054999999701976776 0.01600000262260437 0.4099999666213989 0.054999999701976776 0.01600000262260437 0.38999998569488525 0.049342378973960876 0.016557229682803154 0.4099999666213989 0.049342378973960876 0.016557229682803154 0.38999998569488525 0.04390218108892441 0.018207496032118797 0.4099999666213989 0.04390218108892441 0.018207496032118797 0.38999998569488525 0.038888465613126755 0.020887384191155434 0.4099999666213989 0.038888465613126755 0.020887384191155434 0.38999998569488525 0.03449390456080437 0.024493906646966934 0.4099999666213989 0.03449390456080437 0.024493906646966934 0.38999998569488525 0.030887382104992867 0.028888465836644173 0.4099999666213989 0.030887382104992867 0.028888465836644173 0.38999998569488525 0.02820749394595623 0.033902183175086975 0.4099999666213989 0.02820749394595623 0.033902183175086975 0.38999998569488525 0.026557227596640587 0.039342381060123444 0.4099999666213989 0.026557227596640587 0.039342381060123444 0.38999998569488525 0.026000000536441803 0.04500000178813934 0.4099999666213989 0.026000000536441803 0.04500000178813934 0.38999998569488525 0.026557227596640587 0.05065762251615524 0.4099999666213989 0.026557227596640587 0.05065762251615524 0.38999998569488525 0.02820749394595623 0.05609782040119171 0.4099999666213989 0.02820749394595623 0.05609782040119171 0.38999998569488525 0.030887382104992867 0.06111153960227966 0.4099999666213989 0.030887382104992867 0.06111153960227966 0.38999998569488525 0.03449390456080437 0.06550610065460205 0.4099999666213989 0.03449390456080437 0.06550610065460205 0.38999998569488525 0.038888461887836456 0.0691126212477684 0.4099999666213989 0.038888461887836456 0.0691126212477684 0.38999998569488525 0.04390218108892441 0.07179250568151474 0.4099999666213989 0.04390218108892441 0.07179250568151474 0.38999998569488525 0.049342378973960876 0.07344277203083038 0.4099999666213989 0.049342378973960876 0.07344277203083038</float_array><technique_common><accessor source="#mesh1-array" count="64" stride="3"><param name="X" type="float" /><param name="Y" type="float" /><param name="Z" type="float" /></accessor></technique_common></source><source id="mesh1-normals"><float_array id="mesh1-normals-array" count="372">2.2097539788269016e-16 0.09801717102527618 0.9951847195625305 2.2097539788269016e-16 0.09801717102527618 0.9951847195625305 2.1248344260021258e-16 0.2902846038341522 0.9569403529167175 2.1248344260021258e-16 0.2902846038341522 0.9569403529167175 1.9582585147818711e-16 0.47139686346054077 0.8819212317466736 1.9582585147818711e-16 0.47139686346054077 0.8819212317466736 1.7164279613628082e-16 0.6343933939933777 0.7730104327201843 1.7164279613628082e-16 0.6343933939933777 0.7730104327201843 1.4086363053630928e-16 0.7730104327201843 0.6343933939933777 1.4086363053630928e-16 0.7730104327201843 0.6343933939933777 1.046711303099947e-16 0.8819212317466736 0.47139686346054077 1.046711303099947e-16 0.8819212317466736 0.47139686346054077 6.445613017417356e-17 0.9569403529167175 0.2902846038341522 6.445613017417356e-17 0.9569403529167175 0.2902846038341522 2.1764184016176676e-17 0.9951847195625305 0.09801717102527618 2.1764184016176676e-17 0.9951847195625305 0.09801717102527618 -2.1764184016176676e-17 0.9951847195625305 -0.09801717102527618 -2.1764184016176676e-17 0.9951847195625305 -0.09801717102527618 -6.445613017417356e-17 0.9569403529167175 -0.2902846038341522 -6.445613017417356e-17 0.9569403529167175 -0.2902846038341522 -1.046711303099947e-16 0.8819212317466736 -0.47139686346054077 -1.046711303099947e-16 0.8819212317466736 -0.47139686346054077 -1.4086363053630928e-16 0.7730104327201843 -0.6343933939933777 -1.4086363053630928e-16 0.7730104327201843 -0.6343933939933777 -1.7164279613628082e-16 0.6343933939933777 -0.7730104327201843 -1.7164279613628082e-16 0.6343933939933777 -0.7730104327201843 -1.9582585147818711e-16 0.47139686346054077 -0.8819212317466736 -1.9582585147818711e-16 0.47139686346054077 -0.8819212317466736 -2.1248344260021258e-16 0.2902846038341522 -0.9569403529167175 -2.1248344260021258e-16 0.2902846038341522 -0.9569403529167175 -2.2097539788269016e-16 0.09801717102527618 -0.9951847195625305 -2.2097539788269016e-16 0.09801717102527618 -0.9951847195625305 -2.2097539788269016e-16 -0.09801717102527618 -0.9951847195625305 -2.2097539788269016e-16 -0.09801717102527618 -0.9951847195625305 -2.1248344260021258e-16 -0.2902846038341522 -0.9569403529167175 -2.1248344260021258e-16 -0.2902846038341522 -0.9569403529167175 -1.9582585147818711e-16 -0.47139686346054077 -0.8819212317466736 -1.9582585147818711e-16 -0.47139686346054077 -0.8819212317466736 -1.7164279613628082e-16 -0.6343933939933777 -0.7730104327201843 -1.7164279613628082e-16 -0.6343933939933777 -0.7730104327201843 -1.4086363053630928e-16 -0.7730104327201843 -0.6343933939933777 -1.4086363053630928e-16 -0.7730104327201843 -0.6343933939933777 -1.046711303099947e-16 -0.8819212317466736 -0.47139686346054077 -1.046711303099947e-16 -0.8819212317466736 -0.47139686346054077 -6.445613017417356e-17 -0.9569403529167175 -0.2902846038341522 -6.445613017417356e-17 -0.9569403529167175 -0.2902846038341522 -2.1764184016176676e-17 -0.9951847195625305 -0.09801717102527618 -2.1764184016176676e-17 -0.9951847195625305 -0.09801717102527618 2.1764184016176676e-17 -0.9951847195625305 0.09801717102527618 2.1764184016176676e-17 -0.9951847195625305 0.09801717102527618 6.445613017417356e-17 -0.9569403529167175 0.2902846038341522 6.445613017417356e-17 -0.9569403529167175 0.2902846038341522 1.046711303099947e-16 -0.8819212317466736 0.47139686346054077 1.046711303099947e-16 -0.8819212317466736 0.47139686346054077 1.4086363053630928e-16 -0.7730104327201843 0.6343933939933777 1.4086363053630928e-16 -0.7730104327201843 0.6343933939933777 1.7164279613628082e-16 -0.6343933939933777 0.7730104327201843 1.7164279613628082e-16 -0.6343933939933777 0.7730104327201843 1.9582585147818711e-16 -0.47139686346054077 0.8819212317466736 1.9582585147818711e-16 -0.47139686346054077 0.8819212317466736 1.0 2.220446049250313e-16 4.930380657631324e-32 1.0 2.220446049250313e-16 4.930380657631324e-32 1.0 2.220446049250313e-16 4.930380657631324e-32 1.0 2.220446049250313e-16 4.930380657631324e-32 1.0 2.220446049250313e-16 4.930380657631324e-32 1.0 2.220446049250313e-16 4.930380657631324e-32 1.0 2.220446049250313e-16 4.930380657631324e-32 1.0 2.220446049250313e-16 4.930380657631324e-32 1.0 2.220446049250313e-16 4.930380657631324e-32 1.0 2.220446049250313e-16 4.930380657631324e-32 1.0 2.220446049250313e-16 4.930380657631324e-32 1.0 2.220446049250313e-16 4.930380657631324e-32 1.0 2.220446049250313e-16 4.930380657631324e-32 1.0 2.220446049250313e-16 4.930380657631324e-32 1.0 2.220446049250313e-16 4.930380657631324e-32 1.0 2.220446049250313e-16 4.930380657631324e-32 1.0 2.220446049250313e-16 4.930380657631324e-32 1.0 2.220446049250313e-16 4.930380657631324e-32 1.0 2.220446049250313e-16 4.930380657631324e-32 1.0 2.220446049250313e-16 4.930380657631324e-32 1.0 2.220446049250313e-16 4.930380657631324e-32 1.0 2.220446049250313e-16 4.930380657631324e-32 1.0 2.220446049250313e-16 4.930380657631324e-32 1.0 2.220446049250313e-16 4.930380657631324e-32 1.0 2.220446049250313e-16 4.930380657631324e-32 1.0 2.220446049250313e-16 4.930380657631324e-32 1.0 2.220446049250313e-16 4.930380657631324e-32 1.0 2.220446049250313e-16 4.930380657631324e-32 1.0 2.220446049250313e-16 4.930380657631324e-32 1.0 2.220446049250313e-16 4.930380657631324e-32 2.1248344260021258e-16 -0.2902846038341522 0.9569403529167175 2.1248344260021258e-16 -0.2902846038341522 0.9569403529167175 2.2097539788269016e-16 -0.09801717102527618 0.9951847195625305 2.2097539788269016e-16 -0.09801717102527618 0.9951847195625305 -1.0 -2.220446049250313e-16 -4.930380657631324e-32 -1.0 -2.220446049250313e-16 -4.930380657631324e-32 -1.0 -2.220446049250313e-16 -4.930380657631324e-32 -1.0 -2.220446049250313e-16 -4.930380657631324e-32 -1.0 -2.220446049250313e-16 -4.930380657631324e-32 -1.0 -2.220446049250313e-16 -4.930380657631324e-32 -1.0 -2.220446049250313e-16 -4.930380657631324e-32 -1.0 -2.220446049250313e-16 -4.930380657631324e-32 -1.0 -2.220446049250313e-16 -4.930380657631324e-32 -1.0 -2.220446049250313e-16 -4.930380657631324e-32 -1.0 -2.220446049250313e-16 -4.930380657631324e-32 -1.0 -2.220446049250313e-16 -4.930380657631324e-32 -1.0 -2.220446049250313e-16 -4.930380657631324e-32 -1.0 -2.220446049250313e-16 -4.930380657631324e-32 -1.0 -2.220446049250313e-16 -4.930380657631324e-32 -1.0 -2.220446049250313e-16 -4.930380657631324e-32 -1.0 -2.220446049250313e-16 -4.930380657631324e-32 -1.0 -2.220446049250313e-16 -4.930380657631324e-32 -1.0 -2.220446049250313e-16 -4.930380657631324e-32 -1.0 -2.220446049250313e-16 -4.930380657631324e-32 -1.0 -2.220446049250313e-16 -4.930380657631324e-32 -1.0 -2.220446049250313e-16 -4.930380657631324e-32 -1.0 -2.220446049250313e-16 -4.930380657631324e-32 -1.0 -2.220446049250313e-16 -4.930380657631324e-32 -1.0 -2.220446049250313e-16 -4.930380657631324e-32 -1.0 -2.220446049250313e-16 -4.930380657631324e-32 -1.0 -2.220446049250313e-16 -4.930380657631324e-32 -1.0 -2.220446049250313e-16 -4.930380657631324e-32 -1.0 -2.220446049250313e-16 -4.930380657631324e-32 -1.0 -2.220446049250313e-16 -4.930380657631324e-32</float_array><technique_common><accessor source="#mesh1-normals-array" count="124" stride="3"><param name="X" type="float" /><param name="Y" type="float" /><param name="Z" type="float" /></accessor></technique_common></source><vertices id="mesh1-vertices"><input semantic="POSITION" source="#mesh1-positions" /></vertices><triangles count="124" material="rubber"><input semantic="VERTEX" source="#mesh1-vertices" offset="0" /><input semantic="NORMAL" source="#mesh1-normals" offset="1" /><p>0 0 1 0 3 0 0 1 3 1 2 1 2 2 3 2 5 2 2 3 5 3 4 3 4 4 5 4 7 4 4 5 7 5 6 5 6 6 7 6 9 6 6 7 9 7 8 7 8 8 9 8 11 8 8 9 11 9 10 9 10 10 11 10 13 10 10 11 13 11 12 11 12 12 13 12 15 12 12 13 15 13 14 13 14 14 15 14 17 14 14 15 17 15 16 15 16 16 17 16 19 16 16 17 19 17 18 17 18 18 19 18 21 18 18 19 21 19 20 19 20 20 21 20 23 20 20 21 23 21 22 21 22 22 23 22 25 22 22 23 25 23 24 23 24 24 25 24 27 24 24 25 27 25 26 25 26 26 27 26 29 26 26 27 29 27 28 27 28 28 29 28 31 28 28 29 31 29 30 29 30 30 31 30 33 30 30 31 33 31 32 31 32 32 33 32 35 32 32 33 35 33 34 33 34 34 35 34 37 34 34 35 37 35 36 35 36 36 37 36 39 36 36 37 39 37 38 37 38 38 39 38 41 38 38 39 41 39 40 39 40 40 41 40 43 40 40 41 43 41 42 41 42 42 43 42 45 42 42 43 45 43 44 43 44 44 45 44 47 44 44 45 47 45 46 45 46 46 47 46 49 46 46 47 49 47 48 47 48 48 49 48 51 48 48 49 51 49 50 49 50 50 51 50 53 50 50 51 53 51 52 51 52 52 53 52 55 52 52 53 55 53 54 53 54 54 55 54 57 54 54 55 57 55 56 55 56 56 57 56 59 56 56 57 59 57 58 57 58 58 59 58 61 58 58 59 61 59 60 59 5 60 3 60 1 60 1 61 63 61 61 61 61 62 59 62 57 62 57 63 55 63 53 63 53 64 51 64 49 64 49 65 47 65 45 65 45 66 43 66 41 66 41 67 39 67 37 67 37 68 35 68 33 68 33 69 31 69 29 69 29 70 27 70 25 70 25 71 23 71 21 71 21 72 19 72 17 72 17 73 15 73 13 73 13 74 11 74 9 74 9 75 7 75 5 75 5 76 1 76 61 76 61 77 57 77 53 77 53 78 49 78 45 78 45 79 41 79 37 79 37 80 33 80 29 80 29 81 25 81 21 81 21 82 17 82 13 82 13 83 9 83 5 83 5 84 61 84 53 84 53 85 45 85 37 85 37 86 29 86 21 86 21 87 13 87 5 87 5 88 53 88 37 88 37 89 21 89 5 89 60 90 61 90 63 90 60 91 63 91 62 91 62 92 63 92 1 92 62 93 1 93 0 93 62 94 0 94 2 94 2 95 4 95 6 95 6 96 8 96 10 96 10 97 12 97 14 97 14 98 16 98 18 98 18 99 20 99 22 99 22 100 24 100 26 100 26 101 28 101 30 101 30 102 32 102 34 102 34 103 36 103 38 103 38 104 40 104 42 104 42 105 44 105 46 105 46 106 48 106 50 106 50 107 52 107 54 107 54 108 56 108 58 108 58 109 60 109 62 109 62 110 2 110 6 110 6 111 10 111 14 111 14 112 18 112 22 112 22 113 26 113 30 113 30 114 34 114 38 114 38 115 42 115 46 115 46 116 50 116 54 116 54 117 58 117 62 117 62 118 6 118 14 118 14 119 22 119 30 119 30 120 38 120 46 120 46 121 54 121 62 121 62 122 14 122 30 122 30 123 46 123 62 123</p></triangles></mesh></geometry><geometry id="mesh2"><mesh><source id="mesh2-positions"><float_array id="mesh2-array" count="72">-0.2370011806488037 -0.1546674370765686 0.03319352865219116 -0.2670011818408966 -0.17466746270656586 -0.06180649250745773 -0.2335670441389084 -0.15778633952140808 0.03276567906141281 -0.2635670304298401 -0.17778636515140533 -0.062234342098236084 -0.22917713224887848 -0.15881890058517456 0.031596772372722626 -0.2591771185398102 -0.17881892621517181 -0.06340324878692627 -0.22500771284103394 -0.15748843550682068 0.03000001236796379 -0.25500768423080444 -0.17748846113681793 -0.0650000050663948 -0.2221759706735611 -0.15415145456790924 0.028403254225850105 -0.2521759569644928 -0.1741514652967453 -0.06659676879644394 -0.22144067287445068 -0.14970208704471588 0.02723434567451477 -0.2514406442642212 -0.16970209777355194 -0.06776567548513412 -0.22299884259700775 -0.14533253014087677 0.02680649608373642 -0.25299882888793945 -0.16533255577087402 -0.06819352507591248 -0.22643297910690308 -0.1422136276960373 0.02723434567451477 -0.2564329504966736 -0.16221365332603455 -0.06776567548513412 -0.23082289099693298 -0.1411810666322708 0.028403254225850105 -0.2608228623867035 -0.16118109226226807 -0.06659676879644394 -0.23499231040477753 -0.1425115317106247 0.03000001236796379 -0.26499229669570923 -0.16251155734062195 -0.0650000125169754 -0.23782405257225037 -0.14584852755069733 0.03159676864743233 -0.26782405376434326 -0.1658485382795334 -0.06340324878692627 -0.23855935037136078 -0.15029789507389069 0.03276567906141281 -0.2685593366622925 -0.17029790580272675 -0.062234342098236084</float_array><technique_common><accessor source="#mesh2-array" count="24" stride="3"><param name="X" type="float" /><param name="Y" type="float" /><param name="Z" type="float" /></accessor></technique_common></source><source id="mesh2-normals"><float_array id="mesh2-normals-array" count="132">-0.6078341007232666 -0.7162848114967346 0.342744380235672 -0.6078341007232666 -0.7162848114967346 0.342744380235672 -0.15783120691776276 -0.9550578594207764 0.2509063482284546 -0.15783120691776276 -0.9550578594207764 0.2509063482284546 0.334462434053421 -0.9379236698150635 0.09183811396360397 0.334462434053421 -0.9379236698150635 0.09183811396360397 0.7371369004249573 -0.6694736480712891 -0.09183800220489502 0.7371369004249573 -0.6694736480712891 -0.09183800220489502 0.9422963261604309 -0.22163879871368408 -0.25090619921684265 0.9422963261604309 -0.22163879871368408 -0.25090619921684265 0.8949682712554932 0.2855840027332306 -0.3427443206310272 0.8949682712554932 0.2855840027332306 -0.3427443206310272 0.6078341007232666 0.7162848114967346 -0.342744380235672 0.6078341007232666 0.7162848114967346 -0.342744380235672 0.15783120691776276 0.9550578594207764 -0.2509063482284546 0.15783120691776276 0.9550578594207764 -0.2509063482284546 -0.334462434053421 0.9379236698150635 -0.09183811396360397 -0.334462434053421 0.9379236698150635 -0.09183811396360397 -0.7371369004249573 0.6694736480712891 0.09183800220489502 -0.7371369004249573 0.6694736480712891 0.09183800220489502 -0.2952405512332916 -0.196827232837677 -0.9349289536476135 -0.2952405512332916 -0.196827232837677 -0.9349289536476135 -0.2952405512332916 -0.196827232837677 -0.9349289536476135 -0.2952405512332916 -0.196827232837677 -0.9349289536476135 -0.2952405512332916 -0.196827232837677 -0.9349289536476135 -0.2952405512332916 -0.196827232837677 -0.9349289536476135 -0.2952405512332916 -0.196827232837677 -0.9349289536476135 -0.2952405512332916 -0.196827232837677 -0.9349289536476135 -0.2952405512332916 -0.196827232837677 -0.9349289536476135 -0.2952405512332916 -0.196827232837677 -0.9349289536476135 -0.9422963261604309 0.22163879871368408 0.25090619921684265 -0.9422963261604309 0.22163879871368408 0.25090619921684265 -0.8949682712554932 -0.2855840027332306 0.3427443206310272 -0.8949682712554932 -0.2855840027332306 0.3427443206310272 0.2952405512332916 0.196827232837677 0.9349289536476135 0.2952405512332916 0.196827232837677 0.9349289536476135 0.2952405512332916 0.196827232837677 0.9349289536476135 0.2952405512332916 0.196827232837677 0.9349289536476135 0.2952405512332916 0.196827232837677 0.9349289536476135 0.2952405512332916 0.196827232837677 0.9349289536476135 0.2952405512332916 0.196827232837677 0.9349289536476135 0.2952405512332916 0.196827232837677 0.9349289536476135 0.2952405512332916 0.196827232837677 0.9349289536476135 0.2952405512332916 0.196827232837677 0.9349289536476135</float_array><technique_common><accessor source="#mesh2-normals-array" count="44" stride="3"><param name="X" type="float" /><param name="Y" type="float" /><param name="Z" type="float" /></accessor></technique_common></source><vertices id="mesh2-vertices"><input semantic="POSITION" source="#mesh2-positions" /></vertices><triangles count="44" material="rubber"><input semantic="VERTEX" source="#mesh2-vertices" offset="0" /><input semantic="NORMAL" source="#mesh2-normals" offset="1" /><p>0 0 1 0 3 0 0 1 3 1 2 1 2 2 3 2 5 2 2 3 5 3 4 3 4 4 5 4 7 4 4 5 7 5 6 5 6 6 7 6 9 6 6 7 9 7 8 7 8 8 9 8 11 8 8 9 11 9 10 9 10 10 11 10 13 10 10 11 13 11 12 11 12 12 13 12 15 12 12 13 15 13 14 13 14 14 15 14 17 14 14 15 17 15 16 15 16 16 17 16 19 16 16 17 19 17 18 17 18 18 19 18 21 18 18 19 21 19 20 19 5 20 3 20 1 20 1 21 23 21 21 21 21 22 19 22 17 22 17 23 15 23 13 23 13 24 11 24 9 24 9 25 7 25 5 25 5 26 1 26 21 26 21 27 17 27 13 27 13 28 9 28 5 28 21 29 13 29 5 29 20 30 21 30 23 30 20 31 23 31 22 31 22 32 23 32 1 32 22 33 1 33 0 33 22 34 0 34 2 34 2 35 4 35 6 35 6 36 8 36 10 36 10 37 12 37 14 37 14 38 16 38 18 38 18 39 20 39 22 39 22 40 2 40 6 40 6 41 10 41 14 41 14 42 18 42 22 42 6 43 14 43 22 43</p></triangles></mesh></geometry><geometry id="mesh3"><mesh><source id="mesh3-positions"><float_array id="mesh3-array" count="72">-0.2547839283943176 -0.17057956755161285 -0.057688578963279724 -0.16478393971920013 -0.18057958781719208 -0.12268859148025513 -0.2549858093261719 -0.1660294383764267 -0.058668121695518494 -0.16498582065105438 -0.17602945864200592 -0.1236681342124939 -0.2565312385559082 -0.16254322230815887 -0.06134428456425667 -0.16653123497962952 -0.1725432425737381 -0.12634429335594177 -0.2590061128139496 -0.1610550433397293 -0.06499999016523361 -0.1690061241388321 -0.17105506360530853 -0.1300000101327896 -0.2617473006248474 -0.16196367144584656 -0.06865569949150085 -0.17174731194972992 -0.1719636768102646 -0.13365571200847626 -0.26402029395103455 -0.16502560675144196 -0.07133185863494873 -0.17402030527591705 -0.17502562701702118 -0.13633187115192413 -0.26521608233451843 -0.16942043602466583 -0.0723114013671875 -0.17521607875823975 -0.17942045629024506 -0.1373114138841629 -0.2650142014026642 -0.173970565199852 -0.07133185863494873 -0.1750141978263855 -0.1839705854654312 -0.13633187115192413 -0.26346877217292786 -0.1774567812681198 -0.06865569204092026 -0.17346876859664917 -0.18745680153369904 -0.13365571200847626 -0.2609938979148865 -0.17894496023654938 -0.06499999016523361 -0.1709938943386078 -0.1889449805021286 -0.12999999523162842 -0.25825271010398865 -0.17803634703159332 -0.06134428456425667 -0.16825270652770996 -0.18803635239601135 -0.12634429335594177 -0.2559796869754791 -0.17497439682483673 -0.058668121695518494 -0.16597969830036163 -0.18497441709041595 -0.1236681342124939</float_array><technique_common><accessor source="#mesh3-array" count="24" stride="3"><param name="X" type="float" /><param name="Y" type="float" /><param name="Z" type="float" /></accessor></technique_common></source><source id="mesh3-normals"><float_array id="mesh3-normals-array" count="132">0.5883969664573669 0.19503426551818848 0.7846978902816772 0.5883969664573669 0.19503426551818848 0.7846978902816772 0.4879000782966614 0.657247006893158 0.5744386911392212 0.4879000782966614 0.657247006893158 0.5744386911392212 0.25667086243629456 0.9433510899543762 0.21025918424129486 0.25667086243629456 0.9433510899543762 0.21025918424129486 -0.04333310201764107 0.9766848683357239 -0.2102590948343277 -0.04333310201764107 0.9766848683357239 -0.2102590948343277 -0.3317261040210724 0.7483168244361877 -0.5744386911392212 -0.3317261040210724 0.7483168244361877 -0.5744386911392212 -0.5312332510948181 0.31943774223327637 -0.7846978902816772 -0.5312332510948181 0.31943774223327637 -0.7846978902816772 -0.5883969664573669 -0.19503426551818848 -0.7846978902816772 -0.5883969664573669 -0.19503426551818848 -0.7846978902816772 -0.4879000782966614 -0.657247006893158 -0.5744386911392212 -0.4879000782966614 -0.657247006893158 -0.5744386911392212 -0.25667086243629456 -0.9433510899543762 -0.21025918424129486 -0.25667086243629456 -0.9433510899543762 -0.21025918424129486 0.04333310201764107 -0.9766848683357239 0.2102590948343277 0.04333310201764107 -0.9766848683357239 0.2102590948343277 0.8074102997779846 -0.08971235156059265 -0.5831297636032104 0.8074102997779846 -0.08971235156059265 -0.5831297636032104 0.8074102997779846 -0.08971235156059265 -0.5831297636032104 0.8074102997779846 -0.08971235156059265 -0.5831297636032104 0.8074102997779846 -0.08971235156059265 -0.5831297636032104 0.8074102997779846 -0.08971235156059265 -0.5831297636032104 0.8074102997779846 -0.08971235156059265 -0.5831297636032104 0.8074102997779846 -0.08971235156059265 -0.5831297636032104 0.8074102997779846 -0.08971235156059265 -0.5831297636032104 0.8074102997779846 -0.08971235156059265 -0.5831297636032104 0.3317261040210724 -0.7483168244361877 0.5744386911392212 0.3317261040210724 -0.7483168244361877 0.5744386911392212 0.5312332510948181 -0.31943774223327637 0.7846978902816772 0.5312332510948181 -0.31943774223327637 0.7846978902816772 -0.8074102997779846 0.08971235156059265 0.5831297636032104 -0.8074102997779846 0.08971235156059265 0.5831297636032104 -0.8074102997779846 0.08971235156059265 0.5831297636032104 -0.8074102997779846 0.08971235156059265 0.5831297636032104 -0.8074102997779846 0.08971235156059265 0.5831297636032104 -0.8074102997779846 0.08971235156059265 0.5831297636032104 -0.8074102997779846 0.08971235156059265 0.5831297636032104 -0.8074102997779846 0.08971235156059265 0.5831297636032104 -0.8074102997779846 0.08971235156059265 0.5831297636032104 -0.8074102997779846 0.08971235156059265 0.5831297636032104</float_array><technique_common><accessor source="#mesh3-normals-array" count="44" stride="3"><param name="X" type="float" /><param name="Y" type="float" /><param name="Z" type="float" /></accessor></technique_common></source><vertices id="mesh3-vertices"><input semantic="POSITION" source="#mesh3-positions" /></vertices><triangles count="44" material="rubber"><input semantic="VERTEX" source="#mesh3-vertices" offset="0" /><input semantic="NORMAL" source="#mesh3-normals" offset="1" /><p>0 0 1 0 3 0 0 1 3 1 2 1 2 2 3 2 5 2 2 3 5 3 4 3 4 4 5 4 7 4 4 5 7 5 6 5 6 6 7 6 9 6 6 7 9 7 8 7 8 8 9 8 11 8 8 9 11 9 10 9 10 10 11 10 13 10 10 11 13 11 12 11 12 12 13 12 15 12 12 13 15 13 14 13 14 14 15 14 17 14 14 15 17 15 16 15 16 16 17 16 19 16 16 17 19 17 18 17 18 18 19 18 21 18 18 19 21 19 20 19 5 20 3 20 1 20 1 21 23 21 21 21 21 22 19 22 17 22 17 23 15 23 13 23 13 24 11 24 9 24 9 25 7 25 5 25 5 26 1 26 21 26 21 27 17 27 13 27 13 28 9 28 5 28 21 29 13 29 5 29 20 30 21 30 23 30 20 31 23 31 22 31 22 32 23 32 1 32 22 33 1 33 0 33 22 34 0 34 2 34 2 35 4 35 6 35 6 36 8 36 10 36 10 37 12 37 14 37 14 38 16 38 18 38 18 39 20 39 22 39 22 40 2 40 6 40 6 41 10 41 14 41 14 42 18 42 22 42 6 43 14 43 22 43</p></triangles></mesh></geometry><geometry id="mesh4"><mesh><source id="mesh4-positions"><float_array id="mesh4-array" count="72">-0.17035745084285736 -0.18002860248088837 -0.12100714445114136 0.07964258641004562 -0.1600285768508911 -0.11100714653730392 -0.17066840827465057 -0.17553910613059998 -0.12221195548772812 0.07933162152767181 -0.15553908050060272 -0.11221196502447128 -0.17080028355121613 -0.17224490642547607 -0.1255035698413849 0.07919974625110626 -0.15224488079547882 -0.11550357937812805 -0.1707177311182022 -0.17102867364883423 -0.12999999523162842 0.07928230613470078 -0.15102864801883698 -0.12000000476837158 -0.1704428493976593 -0.17221631109714508 -0.13449642062187195 0.07955717295408249 -0.15221628546714783 -0.12449643015861511 -0.17004932463169098 -0.17548958957195282 -0.13778804242610931 0.07995069772005081 -0.15548956394195557 -0.12778803706169128 -0.1696425825357437 -0.17997142672538757 -0.13899284601211548 0.08035743981599808 -0.15997140109539032 -0.12899285554885864 -0.1693316251039505 -0.18446092307567596 -0.13778804242610931 0.08066840469837189 -0.1644608974456787 -0.12778803706169128 -0.16919974982738495 -0.18775512278079987 -0.13449642062187195 0.08080027997493744 -0.1677550971508026 -0.12449643015861511 -0.16928230226039886 -0.1889713555574417 -0.12999999523162842 0.08071772009134293 -0.16897132992744446 -0.11999999731779099 -0.16955718398094177 -0.18778371810913086 -0.1255035698413849 0.08044285327196121 -0.1677836924791336 -0.11550357192754745 -0.1699507087469101 -0.18451043963432312 -0.12221195548772812 0.08004932850599289 -0.16451041400432587 -0.11221196502447128</float_array><technique_common><accessor source="#mesh4-array" count="24" stride="3"><param name="X" type="float" /><param name="Y" type="float" /><param name="Z" type="float" /></accessor></technique_common></source><source id="mesh4-normals"><float_array id="mesh4-normals-array" count="132">-0.059000443667173386 0.25492608547210693 0.9651588797569275 -0.059000443667173386 0.25492608547210693 0.9651588797569275 -0.08447052538394928 0.7026084065437317 0.7065452337265015 -0.08447052538394928 0.7026084065437317 0.7065452337265015 -0.08730679750442505 0.9620273113250732 0.25861337780952454 -0.08730679750442505 0.9620273113250732 0.25861337780952454 -0.06674929708242416 0.9636719226837158 -0.2586137056350708 -0.06674929708242416 0.9636719226837158 -0.2586137056350708 -0.02830635756254196 0.7071012854576111 -0.7065454721450806 -0.02830635756254196 0.7071012854576111 -0.7065454721450806 0.01772123947739601 0.26106345653533936 -0.965158998966217 0.01772123947739601 0.26106345653533936 -0.965158998966217 0.059000443667173386 -0.25492608547210693 -0.9651588797569275 0.059000443667173386 -0.25492608547210693 -0.9651588797569275 0.08447052538394928 -0.7026084065437317 -0.7065452337265015 0.08447052538394928 -0.7026084065437317 -0.7065452337265015 0.08730679750442505 -0.9620273113250732 -0.25861337780952454 0.08730679750442505 -0.9620273113250732 -0.25861337780952454 0.06674929708242416 -0.9636719226837158 0.2586137056350708 0.06674929708242416 -0.9636719226837158 0.2586137056350708 0.9960238933563232 0.07968204468488693 0.03984098136425018 0.9960238933563232 0.07968204468488693 0.03984098136425018 0.9960238933563232 0.07968204468488693 0.03984098136425018 0.9960238933563232 0.07968204468488693 0.03984098136425018 0.9960238933563232 0.07968204468488693 0.03984098136425018 0.9960238933563232 0.07968204468488693 0.03984098136425018 0.9960238933563232 0.07968204468488693 0.03984098136425018 0.9960238933563232 0.07968204468488693 0.03984098136425018 0.9960238933563232 0.07968204468488693 0.03984098136425018 0.9960238933563232 0.07968204468488693 0.03984098136425018 0.02830635756254196 -0.7071012854576111 0.7065454721450806 0.02830635756254196 -0.7071012854576111 0.7065454721450806 -0.01772123947739601 -0.26106345653533936 0.965158998966217 -0.01772123947739601 -0.26106345653533936 0.965158998966217 -0.9960238933563232 -0.07968204468488693 -0.03984098136425018 -0.9960238933563232 -0.07968204468488693 -0.03984098136425018 -0.9960238933563232 -0.07968204468488693 -0.03984098136425018 -0.9960238933563232 -0.07968204468488693 -0.03984098136425018 -0.9960238933563232 -0.07968204468488693 -0.03984098136425018 -0.9960238933563232 -0.07968204468488693 -0.03984098136425018 -0.9960238933563232 -0.07968204468488693 -0.03984098136425018 -0.9960238933563232 -0.07968204468488693 -0.03984098136425018 -0.9960238933563232 -0.07968204468488693 -0.03984098136425018 -0.9960238933563232 -0.07968204468488693 -0.03984098136425018</float_array><technique_common><accessor source="#mesh4-normals-array" count="44" stride="3"><param name="X" type="float" /><param name="Y" type="float" /><param name="Z" type="float" /></accessor></technique_common></source><vertices id="mesh4-vertices"><input semantic="POSITION" source="#mesh4-positions" /></vertices><triangles count="44" material="rubber"><input semantic="VERTEX" source="#mesh4-vertices" offset="0" /><input semantic="NORMAL" source="#mesh4-normals" offset="1" /><p>0 0 1 0 3 0 0 1 3 1 2 1 2 2 3 2 5 2 2 3 5 3 4 3 4 4 5 4 7 4 4 5 7 5 6 5 6 6 7 6 9 6 6 7 9 7 8 7 8 8 9 8 11 8 8 9 11 9 10 9 10 10 11 10 13 10 10 11 13 11 12 11 12 12 13 12 15 12 12 13 15 13 14 13 14 14 15 14 17 14 14 15 17 15 16 15 16 16 17 16 19 16 16 17 19 17 18 17 18 18 19 18 21 18 18 19 21 19 20 19 5 20 3 20 1 20 1 21 23 21 21 21 21 22 19 22 17 22 17 23 15 23 13 23 13 24 11 24 9 24 9 25 7 25 5 25 5 26 1 26 21 26 21 27 17 27 13 27 13 28 9 28 5 28 21 29 13 29 5 29 20 30 21 30 23 30 20 31 23 31 22 31 22 32 23 32 1 32 22 33 1 33 0 33 22 34 0 34 2 34 2 35 4 35 6 35 6 36 8 36 10 36 10 37 12 37 14 37 14 38 16 38 18 38 18 39 20 39 22 39 22 40 2 40 6 40 6 41 10 41 14 41 14 42 18 42 22 42 6 43 14 43 22 43</p></triangles></mesh></geometry><geometry id="mesh5"><mesh><source id="mesh5-positions"><float_array id="mesh5-array" count="72">0.07545412331819534 -0.1604132503271103 -0.11224342882633209 0.18545414507389069 -0.15041327476501465 -0.04724343121051788 0.0756557434797287 -0.15587636828422546 -0.11328261345624924 0.18565575778484344 -0.14587639272212982 -0.04828261211514473 0.07702139765024185 -0.15244439244270325 -0.11612170934677124 0.1870214194059372 -0.1424444317817688 -0.05112171545624733 0.07918516546487808 -0.15103694796562195 -0.11999999731779099 0.18918517231941223 -0.1410369724035263 -0.054999999701976776 0.08156725764274597 -0.15203113853931427 -0.12387828528881073 0.19156727194786072 -0.14203116297721863 -0.05887828394770622 0.08352940529584885 -0.1551605761051178 -0.12671738862991333 0.193529412150383 -0.14516060054302216 -0.06171738728880882 0.08454584330320358 -0.15958672761917114 -0.12775656580924988 0.19454585015773773 -0.1495867520570755 -0.06275656819343567 0.08434422314167023 -0.16412360966205597 -0.12671738862991333 0.19434423744678497 -0.15412363409996033 -0.06171738728880882 0.08297856897115707 -0.167555570602417 -0.12387828528881073 0.19297857582569122 -0.15755560994148254 -0.05887828394770622 0.08081480115652084 -0.16896302998065948 -0.11999999731779099 0.1908148229122162 -0.15896305441856384 -0.054999999701976776 0.07843270897865295 -0.16796883940696716 -0.11612170934677124 0.1884327232837677 -0.15796886384487152 -0.05112171545624733 0.07647056132555008 -0.16483940184116364 -0.11328261345624924 0.18647058308124542 -0.154839426279068 -0.04828261211514473</float_array><technique_common><accessor source="#mesh5-array" count="24" stride="3"><param name="X" type="float" /><param name="Y" type="float" /><param name="Z" type="float" /></accessor></technique_common></source><source id="mesh5-normals"><float_array id="mesh5-normals-array" count="132">-0.5113169550895691 0.21340309083461761 0.8324747085571289 -0.5113169550895691 0.21340309083461761 0.8324747085571289 -0.4211746156215668 0.6717341542243958 0.609413743019104 -0.4211746156215668 0.6717341542243958 0.609413743019104 -0.2181789129972458 0.9500746726989746 0.2230609506368637 -0.2181789129972458 0.9500746726989746 0.2230609506368637 0.04327769577503204 0.9738433361053467 -0.22306086122989655 0.04327769577503204 0.9738433361053467 -0.22306086122989655 0.2931380867958069 0.7366715669631958 -0.6094138026237488 0.2931380867958069 0.7366715669631958 -0.6094138026237488 0.4644523561000824 0.3021092116832733 -0.8324747085571289 0.4644523561000824 0.3021092116832733 -0.8324747085571289 0.5113169550895691 -0.21340309083461761 -0.8324747085571289 0.5113169550895691 -0.21340309083461761 -0.8324747085571289 0.4211746156215668 -0.6717341542243958 -0.609413743019104 0.4211746156215668 -0.6717341542243958 -0.609413743019104 0.2181789129972458 -0.9500746726989746 -0.2230609506368637 0.2181789129972458 -0.9500746726989746 -0.2230609506368637 -0.04327769577503204 -0.9738433361053467 0.22306086122989655 -0.04327769577503204 -0.9738433361053467 0.22306086122989655 0.8583018183708191 0.07802724838256836 0.5071783065795898 0.8583018183708191 0.07802724838256836 0.5071783065795898 0.8583018183708191 0.07802724838256836 0.5071783065795898 0.8583018183708191 0.07802724838256836 0.5071783065795898 0.8583018183708191 0.07802724838256836 0.5071783065795898 0.8583018183708191 0.07802724838256836 0.5071783065795898 0.8583018183708191 0.07802724838256836 0.5071783065795898 0.8583018183708191 0.07802724838256836 0.5071783065795898 0.8583018183708191 0.07802724838256836 0.5071783065795898 0.8583018183708191 0.07802724838256836 0.5071783065795898 -0.2931380867958069 -0.7366715669631958 0.6094138026237488 -0.2931380867958069 -0.7366715669631958 0.6094138026237488 -0.4644523561000824 -0.3021092116832733 0.8324747085571289 -0.4644523561000824 -0.3021092116832733 0.8324747085571289 -0.8583018183708191 -0.07802724838256836 -0.5071783065795898 -0.8583018183708191 -0.07802724838256836 -0.5071783065795898 -0.8583018183708191 -0.07802724838256836 -0.5071783065795898 -0.8583018183708191 -0.07802724838256836 -0.5071783065795898 -0.8583018183708191 -0.07802724838256836 -0.5071783065795898 -0.8583018183708191 -0.07802724838256836 -0.5071783065795898 -0.8583018183708191 -0.07802724838256836 -0.5071783065795898 -0.8583018183708191 -0.07802724838256836 -0.5071783065795898 -0.8583018183708191 -0.07802724838256836 -0.5071783065795898 -0.8583018183708191 -0.07802724838256836 -0.5071783065795898</float_array><technique_common><accessor source="#mesh5-normals-array" count="44" stride="3"><param name="X" type="float" /><param name="Y" type="float" /><param name="Z" type="float" /></accessor></technique_common></source><vertices id="mesh5-vertices"><input semantic="POSITION" source="#mesh5-positions" /></vertices><triangles count="44" material="rubber"><input semantic="VERTEX" source="#mesh5-vertices" offset="0" /><input semantic="NORMAL" source="#mesh5-normals" offset="1" /><p>0 0 1 0 3 0 0 1 3 1 2 1 2 2 3 2 5 2 2 3 5 3 4 3 4 4 5 4 7 4 4 5 7 5 6 5 6 6 7 6 9 6 6 7 9 7 8 7 8 8 9 8 11 8 8 9 11 9 10 9 10 10 11 10 13 10 10 11 13 11 12 11 12 12 13 12 15 12 12 13 15 13 14 13 14 14 15 14 17 14 14 15 17 15 16 15 16 16 17 16 19 16 16 17 19 17 18 17 18 18 19 18 21 18 18 19 21 19 20 19 5 20 3 20 1 20 1 21 23 21 21 21 21 22 19 22 17 22 17 23 15 23 13 23 13 24 11 24 9 24 9 25 7 25 5 25 5 26 1 26 21 26 21 27 17 27 13 27 13 28 9 28 5 28 21 29 13 29 5 29 20 30 21 30 23 30 20 31 23 31 22 31 22 32 23 32 1 32 22 33 1 33 0 33 22 34 0 34 2 34 2 35 4 35 6 35 6 36 8 36 10 36 10 37 12 37 14 37 14 38 16 38 18 38 18 39 20 39 22 39 22 40 2 40 6 40 6 41 10 41 14 41 14 42 18 42 22 42 6 43 14 43 22 43</p></triangles></mesh></geometry><geometry id="mesh6"><mesh><source id="mesh6-positions"><float_array id="mesh6-array" count="72">-0.2370011806488037 0.1546674519777298 0.033193524926900864 -0.2670011818408966 0.17466743290424347 -0.061806488782167435 -0.23855935037136078 0.15029790997505188 0.03276567533612251 -0.2685593366622925 0.17029789090156555 -0.062234338372945786 -0.23782405257225037 0.14584854245185852 0.03159676864743233 -0.26782405376434326 0.1658485233783722 -0.06340324878692627 -0.23499231040477753 0.1425115466117859 0.03000001050531864 -0.26499229669570923 0.16251154243946075 -0.0650000050663948 -0.23082289099693298 0.1411810964345932 0.028403252363204956 -0.2608228921890259 0.16118107736110687 -0.06659676134586334 -0.22643296420574188 0.1422136425971985 0.02723434381186962 -0.2564329504966736 0.16221363842487335 -0.06776566803455353 -0.22299884259700775 0.14533255994319916 0.02680649422109127 -0.25299882888793945 0.16533254086971283 -0.06819351762533188 -0.22144067287445068 0.14970210194587708 0.027234341949224472 -0.2514406442642212 0.16970208287239075 -0.06776566803455353 -0.2221759557723999 0.15415146946907043 0.028403248637914658 -0.2521759569644928 0.1741514503955841 -0.06659676134586334 -0.22500769793987274 0.15748845040798187 0.030000006780028343 -0.25500768423080444 0.17748844623565674 -0.0650000050663948 -0.22917713224887848 0.15881891548633575 0.03159676492214203 -0.2591771185398102 0.17881889641284943 -0.06340324878692627 -0.2335670441389084 0.15778635442256927 0.032765671610832214 -0.2635670304298401 0.17778635025024414 -0.062234342098236084</float_array><technique_common><accessor source="#mesh6-array" count="24" stride="3"><param name="X" type="float" /><param name="Y" type="float" /><param name="Z" type="float" /></accessor></technique_common></source><source id="mesh6-normals"><float_array id="mesh6-normals-array" count="132">-0.8949682116508484 0.2855842411518097 0.3427443504333496 -0.8949682116508484 0.2855842411518097 0.3427443504333496 -0.9422962665557861 -0.2216387391090393 0.25090640783309937 -0.9422962665557861 -0.2216387391090393 0.25090640783309937 -0.7371367812156677 -0.6694737076759338 0.09183824807405472 -0.7371367812156677 -0.6694737076759338 0.09183824807405472 -0.3344621956348419 -0.937923789024353 -0.09183784574270248 -0.3344621956348419 -0.937923789024353 -0.09183784574270248 0.15783129632472992 -0.9550578594207764 -0.2509060800075531 0.15783129632472992 -0.9550578594207764 -0.2509060800075531 0.6078340411186218 -0.716284990310669 -0.34274420142173767 0.6078340411186218 -0.716284990310669 -0.34274420142173767 0.8949682116508484 -0.2855842411518097 -0.3427443504333496 0.8949682116508484 -0.2855842411518097 -0.3427443504333496 0.9422962665557861 0.2216387391090393 -0.25090640783309937 0.9422962665557861 0.2216387391090393 -0.25090640783309937 0.7371367812156677 0.6694737076759338 -0.09183824807405472 0.7371367812156677 0.6694737076759338 -0.09183824807405472 0.3344621956348419 0.937923789024353 0.09183784574270248 0.3344621956348419 0.937923789024353 0.09183784574270248 -0.2952406406402588 0.1968270093202591 -0.9349289536476135 -0.2952406406402588 0.1968270093202591 -0.9349289536476135 -0.2952406406402588 0.1968270093202591 -0.9349289536476135 -0.2952406406402588 0.1968270093202591 -0.9349289536476135 -0.2952406406402588 0.1968270093202591 -0.9349289536476135 -0.2952406406402588 0.1968270093202591 -0.9349289536476135 -0.2952406406402588 0.1968270093202591 -0.9349289536476135 -0.2952406406402588 0.1968270093202591 -0.9349289536476135 -0.2952406406402588 0.1968270093202591 -0.9349289536476135 -0.2952406406402588 0.1968270093202591 -0.9349289536476135 -0.15783129632472992 0.9550578594207764 0.2509060800075531 -0.15783129632472992 0.9550578594207764 0.2509060800075531 -0.6078340411186218 0.716284990310669 0.34274420142173767 -0.6078340411186218 0.716284990310669 0.34274420142173767 0.2952406406402588 -0.1968270093202591 0.9349289536476135 0.2952406406402588 -0.1968270093202591 0.9349289536476135 0.2952406406402588 -0.1968270093202591 0.9349289536476135 0.2952406406402588 -0.1968270093202591 0.9349289536476135 0.2952406406402588 -0.1968270093202591 0.9349289536476135 0.2952406406402588 -0.1968270093202591 0.9349289536476135 0.2952406406402588 -0.1968270093202591 0.9349289536476135 0.2952406406402588 -0.1968270093202591 0.9349289536476135 0.2952406406402588 -0.1968270093202591 0.9349289536476135 0.2952406406402588 -0.1968270093202591 0.9349289536476135</float_array><technique_common><accessor source="#mesh6-normals-array" count="44" stride="3"><param name="X" type="float" /><param name="Y" type="float" /><param name="Z" type="float" /></accessor></technique_common></source><vertices id="mesh6-vertices"><input semantic="POSITION" source="#mesh6-positions" /></vertices><triangles count="44" material="rubber"><input semantic="VERTEX" source="#mesh6-vertices" offset="0" /><input semantic="NORMAL" source="#mesh6-normals" offset="1" /><p>0 0 1 0 3 0 0 1 3 1 2 1 2 2 3 2 5 2 2 3 5 3 4 3 4 4 5 4 7 4 4 5 7 5 6 5 6 6 7 6 9 6 6 7 9 7 8 7 8 8 9 8 11 8 8 9 11 9 10 9 10 10 11 10 13 10 10 11 13 11 12 11 12 12 13 12 15 12 12 13 15 13 14 13 14 14 15 14 17 14 14 15 17 15 16 15 16 16 17 16 19 16 16 17 19 17 18 17 18 18 19 18 21 18 18 19 21 19 20 19 5 20 3 20 1 20 1 21 23 21 21 21 21 22 19 22 17 22 17 23 15 23 13 23 13 24 11 24 9 24 9 25 7 25 5 25 5 26 1 26 21 26 21 27 17 27 13 27 13 28 9 28 5 28 21 29 13 29 5 29 20 30 21 30 23 30 20 31 23 31 22 31 22 32 23 32 1 32 22 33 1 33 0 33 22 34 0 34 2 34 2 35 4 35 6 35 6 36 8 36 10 36 10 37 12 37 14 37 14 38 16 38 18 38 18 39 20 39 22 39 22 40 2 40 6 40 6 41 10 41 14 41 14 42 18 42 22 42 6 43 14 43 22 43</p></triangles></mesh></geometry><geometry id="mesh7"><mesh><source id="mesh7-positions"><float_array id="mesh7-array" count="72">-0.2547839283943176 0.17057956755161285 -0.05768857151269913 -0.16478393971920013 0.18057957291603088 -0.12268859893083572 -0.2559796869754791 0.17497441172599792 -0.0586681142449379 -0.16597969830036163 0.18497440218925476 -0.1236681416630745 -0.25825271010398865 0.17803634703159332 -0.06134427711367607 -0.16825270652770996 0.18803635239601135 -0.12634430825710297 -0.2609938979148865 0.17894496023654938 -0.06499998271465302 -0.1709938943386078 0.1889449656009674 -0.1300000101327896 -0.26346877217292786 0.177456796169281 -0.06865569204092026 -0.17346876859664917 0.18745678663253784 -0.13365571200847626 -0.2650142014026642 0.17397058010101318 -0.07133185118436813 -0.1750141978263855 0.18397057056427002 -0.13633188605308533 -0.26521608233451843 0.16942045092582703 -0.0723113939166069 -0.17521607875823975 0.17942045629024506 -0.1373114287853241 -0.26402029395103455 0.16502562165260315 -0.07133185118436813 -0.17402030527591705 0.17502561211585999 -0.13633188605308533 -0.2617473006248474 0.16196367144584656 -0.06865568459033966 -0.17174731194972992 0.1719636768102646 -0.13365571200847626 -0.2590061128139496 0.1610550582408905 -0.06499998271465302 -0.1690061241388321 0.17105506360530853 -0.1300000101327896 -0.2565312385559082 0.16254323720932007 -0.06134427711367607 -0.16653123497962952 0.1725432276725769 -0.12634430825710297 -0.2549858093261719 0.1660294532775879 -0.0586681142449379 -0.16498582065105438 0.17602944374084473 -0.1236681416630745</float_array><technique_common><accessor source="#mesh7-array" count="24" stride="3"><param name="X" type="float" /><param name="Y" type="float" /><param name="Z" type="float" /></accessor></technique_common></source><source id="mesh7-normals"><float_array id="mesh7-normals-array" count="132">0.5312333703041077 0.3194378912448883 0.7846978306770325 0.5312333703041077 0.3194378912448883 0.7846978306770325 0.33172619342803955 0.748316764831543 0.5744386911392212 0.33172619342803955 0.748316764831543 0.5744386911392212 0.04333336278796196 0.9766848683357239 0.21025916934013367 0.04333336278796196 0.9766848683357239 0.21025916934013367 -0.25667065382003784 0.9433512091636658 -0.2102590948343277 -0.25667065382003784 0.9433512091636658 -0.2102590948343277 -0.4879000186920166 0.6572471261024475 -0.5744386911392212 -0.4879000186920166 0.6572471261024475 -0.5744386911392212 -0.5883969664573669 0.1950342208147049 -0.784697949886322 -0.5883969664573669 0.1950342208147049 -0.784697949886322 -0.5312333703041077 -0.3194378912448883 -0.7846978306770325 -0.5312333703041077 -0.3194378912448883 -0.7846978306770325 -0.33172619342803955 -0.748316764831543 -0.5744386911392212 -0.33172619342803955 -0.748316764831543 -0.5744386911392212 -0.04333336278796196 -0.9766848683357239 -0.21025916934013367 -0.04333336278796196 -0.9766848683357239 -0.21025916934013367 0.25667065382003784 -0.9433512091636658 0.2102590948343277 0.25667065382003784 -0.9433512091636658 0.2102590948343277 0.8074102997779846 0.08971238136291504 -0.5831297039985657 0.8074102997779846 0.08971238136291504 -0.5831297039985657 0.8074102997779846 0.08971238136291504 -0.5831297039985657 0.8074102997779846 0.08971238136291504 -0.5831297039985657 0.8074102997779846 0.08971238136291504 -0.5831297039985657 0.8074102997779846 0.08971238136291504 -0.5831297039985657 0.8074102997779846 0.08971238136291504 -0.5831297039985657 0.8074102997779846 0.08971238136291504 -0.5831297039985657 0.8074102997779846 0.08971238136291504 -0.5831297039985657 0.8074102997779846 0.08971238136291504 -0.5831297039985657 0.4879000186920166 -0.6572471261024475 0.5744386911392212 0.4879000186920166 -0.6572471261024475 0.5744386911392212 0.5883969664573669 -0.1950342208147049 0.784697949886322 0.5883969664573669 -0.1950342208147049 0.784697949886322 -0.8074102997779846 -0.08971238136291504 0.5831297039985657 -0.8074102997779846 -0.08971238136291504 0.5831297039985657 -0.8074102997779846 -0.08971238136291504 0.5831297039985657 -0.8074102997779846 -0.08971238136291504 0.5831297039985657 -0.8074102997779846 -0.08971238136291504 0.5831297039985657 -0.8074102997779846 -0.08971238136291504 0.5831297039985657 -0.8074102997779846 -0.08971238136291504 0.5831297039985657 -0.8074102997779846 -0.08971238136291504 0.5831297039985657 -0.8074102997779846 -0.08971238136291504 0.5831297039985657 -0.8074102997779846 -0.08971238136291504 0.5831297039985657</float_array><technique_common><accessor source="#mesh7-normals-array" count="44" stride="3"><param name="X" type="float" /><param name="Y" type="float" /><param name="Z" type="float" /></accessor></technique_common></source><vertices id="mesh7-vertices"><input semantic="POSITION" source="#mesh7-positions" /></vertices><triangles count="44" material="rubber"><input semantic="VERTEX" source="#mesh7-vertices" offset="0" /><input semantic="NORMAL" source="#mesh7-normals" offset="1" /><p>0 0 1 0 3 0 0 1 3 1 2 1 2 2 3 2 5 2 2 3 5 3 4 3 4 4 5 4 7 4 4 5 7 5 6 5 6 6 7 6 9 6 6 7 9 7 8 7 8 8 9 8 11 8 8 9 11 9 10 9 10 10 11 10 13 10 10 11 13 11 12 11 12 12 13 12 15 12 12 13 15 13 14 13 14 14 15 14 17 14 14 15 17 15 16 15 16 16 17 16 19 16 16 17 19 17 18 17 18 18 19 18 21 18 18 19 21 19 20 19 5 20 3 20 1 20 1 21 23 21 21 21 21 22 19 22 17 22 17 23 15 23 13 23 13 24 11 24 9 24 9 25 7 25 5 25 5 26 1 26 21 26 21 27 17 27 13 27 13 28 9 28 5 28 21 29 13 29 5 29 20 30 21 30 23 30 20 31 23 31 22 31 22 32 23 32 1 32 22 33 1 33 0 33 22 34 0 34 2 34 2 35 4 35 6 35 6 36 8 36 10 36 10 37 12 37 14 37 14 38 16 38 18 38 18 39 20 39 22 39 22 40 2 40 6 40 6 41 10 41 14 41 14 42 18 42 22 42 6 43 14 43 22 43</p></triangles></mesh></geometry><geometry id="mesh8"><mesh><source id="mesh8-positions"><float_array id="mesh8-array" count="72">-0.17035745084285736 0.18002860248088837 -0.12100712209939957 0.07964260131120682 0.1600285768508911 -0.11100716888904572 -0.1699507236480713 0.18451043963432312 -0.12221193313598633 0.08004934340715408 0.16451041400432587 -0.11221197992563248 -0.16955719888210297 0.18778371810913086 -0.1255035549402237 0.0804428681731224 0.1677836924791336 -0.11550359427928925 -0.16928233206272125 0.1889713555574417 -0.12999998033046722 0.08071773499250412 0.16897132992744446 -0.12000001966953278 -0.16919976472854614 0.18775512278079987 -0.13449640572071075 0.08080029487609863 0.1677550971508026 -0.1244964525103569 -0.1693316400051117 0.18446092307567596 -0.13778801262378693 0.08066841959953308 0.1644608974456787 -0.12778806686401367 -0.1696426123380661 0.17997142672538757 -0.13899283111095428 0.08035745471715927 0.15997140109539032 -0.12899288535118103 -0.17004933953285217 0.17548958957195282 -0.13778801262378693 0.079950712621212 0.15548956394195557 -0.12778806686401367 -0.1704428642988205 0.17221631109714508 -0.13449640572071075 0.07955718785524368 0.15221628546714783 -0.1244964525103569 -0.1707177311182022 0.17102867364883423 -0.12999998033046722 0.07928232103586197 0.15102864801883698 -0.12000002712011337 -0.17080029845237732 0.17224490642547607 -0.1255035549402237 0.07919976115226746 0.15224488079547882 -0.11550359427928925 -0.17066842317581177 0.17553910613059998 -0.12221193313598633 0.07933163642883301 0.15553908050060272 -0.11221197992563248</float_array><technique_common><accessor source="#mesh8-array" count="24" stride="3"><param name="X" type="float" /><param name="Y" type="float" /><param name="Z" type="float" /></accessor></technique_common></source><source id="mesh8-normals"><float_array id="mesh8-normals-array" count="132">-0.017721060663461685 0.2610636055469513 0.965158998966217 -0.017721060663461685 0.2610636055469513 0.965158998966217 0.02830648422241211 0.7071013450622559 0.7065454125404358 0.02830648422241211 0.7071013450622559 0.7065454125404358 0.06674931943416595 0.963671863079071 0.2586137056350708 0.06674931943416595 0.963671863079071 0.2586137056350708 0.08730674535036087 0.962027370929718 -0.25861337780952454 0.08730674535036087 0.962027370929718 -0.25861337780952454 0.08447039872407913 0.7026083469390869 -0.7065452933311462 0.08447039872407913 0.7026083469390869 -0.7065452933311462 0.05900026857852936 0.2549259662628174 -0.965158998966217 0.05900026857852936 0.2549259662628174 -0.965158998966217 0.017721060663461685 -0.2610636055469513 -0.965158998966217 0.017721060663461685 -0.2610636055469513 -0.965158998966217 -0.02830648422241211 -0.7071013450622559 -0.7065454125404358 -0.02830648422241211 -0.7071013450622559 -0.7065454125404358 -0.06674931943416595 -0.963671863079071 -0.2586137056350708 -0.06674931943416595 -0.963671863079071 -0.2586137056350708 -0.08730674535036087 -0.962027370929718 0.25861337780952454 -0.08730674535036087 -0.962027370929718 0.25861337780952454 0.9960238933563232 -0.07968184351921082 0.03984091430902481 0.9960238933563232 -0.07968184351921082 0.03984091430902481 0.9960238933563232 -0.07968184351921082 0.03984091430902481 0.9960238933563232 -0.07968184351921082 0.03984091430902481 0.9960238933563232 -0.07968184351921082 0.03984091430902481 0.9960238933563232 -0.07968184351921082 0.03984091430902481 0.9960238933563232 -0.07968184351921082 0.03984091430902481 0.9960238933563232 -0.07968184351921082 0.03984091430902481 0.9960238933563232 -0.07968184351921082 0.03984091430902481 0.9960238933563232 -0.07968184351921082 0.03984091430902481 -0.08447039872407913 -0.7026083469390869 0.7065452933311462 -0.08447039872407913 -0.7026083469390869 0.7065452933311462 -0.05900026857852936 -0.2549259662628174 0.965158998966217 -0.05900026857852936 -0.2549259662628174 0.965158998966217 -0.9960238933563232 0.07968184351921082 -0.03984091430902481 -0.9960238933563232 0.07968184351921082 -0.03984091430902481 -0.9960238933563232 0.07968184351921082 -0.03984091430902481 -0.9960238933563232 0.07968184351921082 -0.03984091430902481 -0.9960238933563232 0.07968184351921082 -0.03984091430902481 -0.9960238933563232 0.07968184351921082 -0.03984091430902481 -0.9960238933563232 0.07968184351921082 -0.03984091430902481 -0.9960238933563232 0.07968184351921082 -0.03984091430902481 -0.9960238933563232 0.07968184351921082 -0.03984091430902481 -0.9960238933563232 0.07968184351921082 -0.03984091430902481</float_array><technique_common><accessor source="#mesh8-normals-array" count="44" stride="3"><param name="X" type="float" /><param name="Y" type="float" /><param name="Z" type="float" /></accessor></technique_common></source><vertices id="mesh8-vertices"><input semantic="POSITION" source="#mesh8-positions" /></vertices><triangles count="44" material="rubber"><input semantic="VERTEX" source="#mesh8-vertices" offset="0" /><input semantic="NORMAL" source="#mesh8-normals" offset="1" /><p>0 0 1 0 3 0 0 1 3 1 2 1 2 2 3 2 5 2 2 3 5 3 4 3 4 4 5 4 7 4 4 5 7 5 6 5 6 6 7 6 9 6 6 7 9 7 8 7 8 8 9 8 11 8 8 9 11 9 10 9 10 10 11 10 13 10 10 11 13 11 12 11 12 12 13 12 15 12 12 13 15 13 14 13 14 14 15 14 17 14 14 15 17 15 16 15 16 16 17 16 19 16 16 17 19 17 18 17 18 18 19 18 21 18 18 19 21 19 20 19 5 20 3 20 1 20 1 21 23 21 21 21 21 22 19 22 17 22 17 23 15 23 13 23 13 24 11 24 9 24 9 25 7 25 5 25 5 26 1 26 21 26 21 27 17 27 13 27 13 28 9 28 5 28 21 29 13 29 5 29 20 30 21 30 23 30 20 31 23 31 22 31 22 32 23 32 1 32 22 33 1 33 0 33 22 34 0 34 2 34 2 35 4 35 6 35 6 36 8 36 10 36 10 37 12 37 14 37 14 38 16 38 18 38 18 39 20 39 22 39 22 40 2 40 6 40 6 41 10 41 14 41 14 42 18 42 22 42 6 43 14 43 22 43</p></triangles></mesh></geometry><geometry id="mesh9"><mesh><source id="mesh9-positions"><float_array id="mesh9-array" count="72">0.07545413076877594 0.16041326522827148 -0.11224342882633209 0.1854541301727295 0.15041325986385345 -0.047243427485227585 0.07647056877613068 0.16483941674232483 -0.11328261345624924 0.18647058308124542 0.1548394113779068 -0.04828260838985443 0.07843271642923355 0.16796885430812836 -0.11612171679735184 0.1884327232837677 0.15796884894371033 -0.05112171173095703 0.08081480860710144 0.16896304488182068 -0.11999999731779099 0.1908148229122162 0.15896303951740265 -0.05499999597668648 0.08297857642173767 0.16755560040473938 -0.12387828528881073 0.19297857582569122 0.15755558013916016 -0.058878280222415924 0.08434423059225082 0.16412363946437836 -0.12671738862991333 0.19434423744678497 0.15412361919879913 -0.061717383563518524 0.08454584330320358 0.15958674252033234 -0.12775656580924988 0.19454585015773773 0.1495867371559143 -0.06275656819343567 0.08352940529584885 0.155160591006279 -0.12671738862991333 0.193529412150383 0.14516058564186096 -0.061717383563518524 0.08156725764274597 0.15203115344047546 -0.12387828528881073 0.19156727194786072 0.14203114807605743 -0.058878280222415924 0.07918516546487808 0.15103696286678314 -0.12000000476837158 0.18918517231941223 0.1410369575023651 -0.05499999597668648 0.07702139765024185 0.15244442224502563 -0.11612171679735184 0.187021404504776 0.1424444019794464 -0.05112171173095703 0.0756557434797287 0.15587638318538666 -0.11328261345624924 0.18565575778484344 0.14587636291980743 -0.04828260838985443</float_array><technique_common><accessor source="#mesh9-array" count="24" stride="3"><param name="X" type="float" /><param name="Y" type="float" /><param name="Z" type="float" /></accessor></technique_common></source><source id="mesh9-normals"><float_array id="mesh9-normals-array" count="132">-0.4644523561000824 0.3021091818809509 0.8324746489524841 -0.4644523561000824 0.3021091818809509 0.8324746489524841 -0.29313796758651733 0.736671507358551 0.6094138026237488 -0.29313796758651733 0.736671507358551 0.6094138026237488 -0.04327746480703354 0.9738433361053467 0.22306101024150848 -0.04327746480703354 0.9738433361053467 0.22306101024150848 0.21817919611930847 0.9500746726989746 -0.22306080162525177 0.21817919611930847 0.9500746726989746 -0.22306080162525177 0.42117488384246826 0.6717341542243958 -0.6094136834144592 0.42117488384246826 0.6717341542243958 -0.6094136834144592 0.5113171935081482 0.21340307593345642 -0.8324746489524841 0.5113171935081482 0.21340307593345642 -0.8324746489524841 0.4644523561000824 -0.3021091818809509 -0.8324746489524841 0.4644523561000824 -0.3021091818809509 -0.8324746489524841 0.29313796758651733 -0.736671507358551 -0.6094138026237488 0.29313796758651733 -0.736671507358551 -0.6094138026237488 0.04327746480703354 -0.9738433361053467 -0.22306101024150848 0.04327746480703354 -0.9738433361053467 -0.22306101024150848 -0.21817919611930847 -0.9500746726989746 0.22306080162525177 -0.21817919611930847 -0.9500746726989746 0.22306080162525177 0.8583017587661743 -0.07802754640579224 0.5071783065795898 0.8583017587661743 -0.07802754640579224 0.5071783065795898 0.8583017587661743 -0.07802754640579224 0.5071783065795898 0.8583017587661743 -0.07802754640579224 0.5071783065795898 0.8583017587661743 -0.07802754640579224 0.5071783065795898 0.8583017587661743 -0.07802754640579224 0.5071783065795898 0.8583017587661743 -0.07802754640579224 0.5071783065795898 0.8583017587661743 -0.07802754640579224 0.5071783065795898 0.8583017587661743 -0.07802754640579224 0.5071783065795898 0.8583017587661743 -0.07802754640579224 0.5071783065795898 -0.42117488384246826 -0.6717341542243958 0.6094136834144592 -0.42117488384246826 -0.6717341542243958 0.6094136834144592 -0.5113171935081482 -0.21340307593345642 0.8324746489524841 -0.5113171935081482 -0.21340307593345642 0.8324746489524841 -0.8583017587661743 0.07802754640579224 -0.5071783065795898 -0.8583017587661743 0.07802754640579224 -0.5071783065795898 -0.8583017587661743 0.07802754640579224 -0.5071783065795898 -0.8583017587661743 0.07802754640579224 -0.5071783065795898 -0.8583017587661743 0.07802754640579224 -0.5071783065795898 -0.8583017587661743 0.07802754640579224 -0.5071783065795898 -0.8583017587661743 0.07802754640579224 -0.5071783065795898 -0.8583017587661743 0.07802754640579224 -0.5071783065795898 -0.8583017587661743 0.07802754640579224 -0.5071783065795898 -0.8583017587661743 0.07802754640579224 -0.5071783065795898</float_array><technique_common><accessor source="#mesh9-normals-array" count="44" stride="3"><param name="X" type="float" /><param name="Y" type="float" /><param name="Z" type="float" /></accessor></technique_common></source><vertices id="mesh9-vertices"><input semantic="POSITION" source="#mesh9-positions" /></vertices><triangles count="44" material="rubber"><input semantic="VERTEX" source="#mesh9-vertices" offset="0" /><input semantic="NORMAL" source="#mesh9-normals" offset="1" /><p>0 0 1 0 3 0 0 1 3 1 2 1 2 2 3 2 5 2 2 3 5 3 4 3 4 4 5 4 7 4 4 5 7 5 6 5 6 6 7 6 9 6 6 7 9 7 8 7 8 8 9 8 11 8 8 9 11 9 10 9 10 10 11 10 13 10 10 11 13 11 12 11 12 12 13 12 15 12 12 13 15 13 14 13 14 14 15 14 17 14 14 15 17 15 16 15 16 16 17 16 19 16 16 17 19 17 18 17 18 18 19 18 21 18 18 19 21 19 20 19 5 20 3 20 1 20 1 21 23 21 21 21 21 22 19 22 17 22 17 23 15 23 13 23 13 24 11 24 9 24 9 25 7 25 5 25 5 26 1 26 21 26 21 27 17 27 13 27 13 28 9 28 5 28 21 29 13 29 5 29 20 30 21 30 23 30 20 31 23 31 22 31 22 32 23 32 1 32 22 33 1 33 0 33 22 34 0 34 2 34 2 35 4 35 6 35 6 36 8 36 10 36 10 37 12 37 14 37 14 38 16 38 18 38 18 39 20 39 22 39 22 40 2 40 6 40 6 41 10 41 14 41 14 42 18 42 22 42 6 43 14 43 22 43</p></triangles></mesh></geometry></library_geometries><library_visual_scenes><visual_scene id="Scene"><node id="mesh0-node"><instance_geometry url="#mesh0"><bind_material><technique_common><instance_material symbol="rubber" target="#rubber" /></technique_common></bind_material></instance_geometry></node><node id="mesh1-node"><instance_geometry url="#mesh1"><bind_material><technique_common><instance_material symbol="rubber" target="#rubber" /></technique_common></bind_material></instance_geometry></node><node id="mesh2-node"><instance_geometry url="#mesh2"><bind_material><technique_common><instance_material symbol="rubber" target="#rubber" /></technique_common></bind_material></instance_geometry></node><node id="mesh3-node"><instance_geometry url="#mesh3"><bind_material><technique_common><instance_material symbol="rubber" target="#rubber" /></technique_common></bind_material></instance_geometry></node><node id="mesh4-node"><instance_geometry url="#mesh4"><bind_material><technique_common><instance_material symbol="rubber" target="#rubber" /></technique_common></bind_material></instance_geometry></node><node id="mesh5-node"><instance_geometry url="#mesh5"><bind_material><technique_common><instance_material symbol="rubber" target="#rubber" /></technique_common></bind_material></instance_geometry></node><node id="mesh6-node"><instance_geometry url="#mesh6"><bind_material><technique_common><instance_material symbol="rubber" target="#rubber" /></technique_common></bind_material></instance_geometry></node><node id="mesh7-node"><instance_geometry url="#mesh7"><bind_material><technique_common><instance_material symbol="rubber" target="#rubber" /></technique_common></bind_material></instance_geometry></node><node id="mesh8-node"><instance_geometry url="#mesh8"><bind_material><technique_common><instance_material symbol="rubber" target="#rubber" /></technique_common></bind_material></instance_geometry></node><node id="mesh9-node"><instance_geometry url="#mesh9"><bind_material><technique_common><instance_material symbol="rubber" target="#rubber" /></technique_common></bind_material></instance_geometry></node></visual_scene></library_visual_scenes><scene><instance_visual_scene url="#Scene" /></scene></COLLADA>