<?xml version='1.0' encoding='utf-8'?>
<COLLADA xmlns="http://www.collada.org/2005/11/COLLADASchema" version="1.4.1"><asset><unit name="meter" meter="1" /><up_axis>Z_UP</up_axis></asset><library_effects><effect id="graphite-fx"><profile_COMMON><technique sid="common"><phong><emission><color>0 0 0 1</color></emission><ambient><color>0.065 0.075 0.085 1</color></ambient><diffuse><color>0.065 0.075 0.085 1</color></diffuse><specular><color>0.12 0.12 0.12 1</color></specular><shininess><float>25</float></shininess></phong></technique></profile_COMMON></effect><effect id="titanium-fx"><profile_COMMON><technique sid="common"><phong><emission><color>0 0 0 1</color></emission><ambient><color>0.36 0.4 0.43 1</color></ambient><diffuse><color>0.36 0.4 0.43 1</color></diffuse><specular><color>0.12 0.12 0.12 1</color></specular><shininess><float>25</float></shininess></phong></technique></profile_COMMON></effect><effect id="ivory-fx"><profile_COMMON><technique sid="common"><phong><emission><color>0 0 0 1</color></emission><ambient><color>0.72 0.72 0.65 1</color></ambient><diffuse><color>0.72 0.72 0.65 1</color></diffuse><specular><color>0.12 0.12 0.12 1</color></specular><shininess><float>25</float></shininess></phong></technique></profile_COMMON></effect><effect id="copper-fx"><profile_COMMON><technique sid="common"><phong><emission><color>0 0 0 1</color></emission><ambient><color>0.66 0.29 0.08 1</color></ambient><diffuse><color>0.66 0.29 0.08 1</color></diffuse><specular><color>0.12 0.12 0.12 1</color></specular><shininess><float>25</float></shininess></phong></technique></profile_COMMON></effect><effect id="rubber-fx"><profile_COMMON><technique sid="common"><phong><emission><color>0 0 0 1</color></emission><ambient><color>0.025 0.028 0.032 1</color></ambient><diffuse><color>0.025 0.028 0.032 1</color></diffuse><specular><color>0.12 0.12 0.12 1</color></specular><shininess><float>25</float></shininess></phong></technique></profile_COMMON></effect><effect id="lens-fx"><profile_COMMON><technique sid="common"><phong><emission><color>0 0 0 1</color></emission><ambient><color>0.05 0.26 0.33 1</color></ambient><diffuse><color>0.05 0.26 0.33 1</color></diffuse><specular><color>0.12 0.12 0.12 1</color></specular><shininess><float>25</float></shininess></phong></technique></profile_COMMON></effect></library_effects><library_materials><material id="graphite"><instance_effect url="#graphite-fx" /></material><material id="titanium"><instance_effect url="#titanium-fx" /></material><material id="ivory"><instance_effect url="#ivory-fx" /></material><material id="copper"><instance_effect url="#copper-fx" /></material><material id="rubber"><instance_effect url="#rubber-fx" /></material><material id="lens"><instance_effect url="#lens-fx" /></material></library_materials><library_geometries><geometry id="mesh0"><mesh><source id="mesh0-positions"><float_array id="mesh0-array" count="144">-0.21924152970314026 -0.1600000113248825 -0.022036049515008926 0.20075848698616028 -0.15999998152256012 -0.062036026269197464 -0.21926738321781158 -0.1579294502735138 -0.022307414561510086 0.20073263347148895 -0.1579294353723526 -0.062307391315698624 -0.2193431556224823 -0.15600000321865082 -0.023103017359972 0.20065686106681824 -0.15599998831748962 -0.06310299783945084 -0.21946369111537933 -0.1543431580066681 -0.024368640035390854 0.2005363255739212 -0.1543431282043457 -0.06436861306428909 -0.21962076425552368 -0.1530718058347702 -0.02601803094148636 0.20037925243377686 -0.15307177603244781 -0.0660180076956749 -0.21980370581150055 -0.15227259695529938 -0.027938786894083023 0.2001963108778 -0.15227258205413818 -0.06793876737356186 -0.2200000137090683 -0.15200001001358032 -0.03000001236796379 0.20000000298023224 -0.15199998021125793 -0.06999999284744263 -0.22019630670547485 -0.15227259695529938 -0.03206123784184456 0.19980370998382568 -0.15227258205413818 -0.0720612183213234 -0.22037924826145172 -0.1530718058347702 -0.03398199379444122 0.19962076842784882 -0.15307177603244781 -0.07398197054862976 -0.22053632140159607 -0.1543431580066681 -0.03563138470053673 0.19946369528770447 -0.1543431282043457 -0.07563136518001556 -0.2206568568944931 -0.15600000321865082 -0.03689700737595558 0.19934315979480743 -0.15599998831748962 -0.07689698785543442 -0.22073262929916382 -0.1579294502735138 -0.037692610174417496 0.19926738739013672 -0.1579294353723526 -0.07769259065389633 -0.22075848281383514 -0.1600000113248825 -0.037963975220918655 0.1992415338754654 -0.15999998152256012 -0.07796395570039749 -0.22073262929916382 -0.16207055747509003 -0.037692610174417496 0.19926738739013672 -0.16207054257392883 -0.07769259065389633 -0.2206568568944931 -0.164000004529953 -0.03689700737595558 0.19934315979480743 -0.1639999896287918 -0.07689698040485382 -0.22053632140159607 -0.16565686464309692 -0.03563138470053673 0.19946369528770447 -0.16565683484077454 -0.07563136518001556 -0.22037924826145172 -0.1669282168149948 -0.03398199379444122 0.19962076842784882 -0.16692818701267242 -0.07398197054862976 -0.22019630670547485 -0.16772741079330444 -0.03206123784184456 0.19980370998382568 -0.16772739589214325 -0.0720612108707428 -0.2199999988079071 -0.1680000126361847 -0.03000001236796379 0.20000001788139343 -0.1679999828338623 -0.06999998539686203 -0.21980370581150055 -0.16772741079330444 -0.027938786894083023 0.2001963108778 -0.16772739589214325 -0.06793875992298126 -0.21962076425552368 -0.1669282168149948 -0.02601803094148636 0.20037925243377686 -0.16692818701267242 -0.0660180076956749 -0.21946369111537933 -0.16565686464309692 -0.024368640035390854 0.2005363255739212 -0.16565683484077454 -0.06436861306428909 -0.2193431556224823 -0.164000004529953 -0.023103017359972 0.20065686106681824 -0.1639999896287918 -0.06310299038887024 -0.21926738321781158 -0.16207055747509003 -0.022307414561510086 0.20073263347148895 -0.16207054257392883 -0.062307391315698624</float_array><technique_common><accessor source="#mesh0-array" count="48" stride="3"><param name="X" type="float" /><param name="Y" type="float" /><param name="Z" type="float" /></accessor></technique_common></source><source id="mesh0-normals"><float_array id="mesh0-normals-array" count="276">0.09399791806936264 0.13052628934383392 0.9869788885116577 0.09399791806936264 0.13052628934383392 0.9869788885116577 0.08759210258722305 0.3826834559440613 0.9197178483009338 0.08759210258722305 0.3826834559440613 0.9197178483009338 0.07521700114011765 0.6087616682052612 0.7897794246673584 0.07521700114011765 0.6087616682052612 0.7897794246673584 0.057716045528650284 0.793353259563446 0.6060193181037903 0.057716045528650284 0.793353259563446 0.6060193181037903 0.036281779408454895 0.9238795638084412 0.3809594511985779 0.036281779408454895 0.9238795638084412 0.3809594511985779 0.012374998070299625 0.9914448857307434 0.12993814051151276 0.012374998070299625 0.9914448857307434 0.12993814051151276 -0.01237513218075037 0.9914448857307434 -0.12993837893009186 -0.01237513218075037 0.9914448857307434 -0.12993837893009186 -0.036281902343034744 0.9238794445991516 -0.3809596598148346 -0.036281902343034744 0.9238794445991516 -0.3809596598148346 -0.05771614983677864 0.7933531403541565 -0.6060195565223694 -0.05771614983677864 0.7933531403541565 -0.6060195565223694 -0.07521709054708481 0.6087615489959717 -0.789779543876648 -0.07521709054708481 0.6087615489959717 -0.789779543876648 -0.08759214729070663 0.38268333673477173 -0.9197179675102234 -0.08759214729070663 0.38268333673477173 -0.9197179675102234 -0.09399793297052383 0.13052617013454437 -0.9869788885116577 -0.09399793297052383 0.13052617013454437 -0.9869788885116577 -0.09399791806936264 -0.13052628934383392 -0.9869788885116577 -0.09399791806936264 -0.13052628934383392 -0.9869788885116577 -0.08759210258722305 -0.3826834559440613 -0.9197178483009338 -0.08759210258722305 -0.3826834559440613 -0.9197178483009338 -0.07521700114011765 -0.6087616682052612 -0.7897794246673584 -0.07521700114011765 -0.6087616682052612 -0.7897794246673584 -0.057716045528650284 -0.793353259563446 -0.6060193181037903 -0.057716045528650284 -0.793353259563446 -0.6060193181037903 -0.036281779408454895 -0.9238795638084412 -0.3809594511985779 -0.036281779408454895 -0.9238795638084412 -0.3809594511985779 -0.012374998070299625 -0.9914448857307434 -0.12993814051151276 -0.012374998070299625 -0.9914448857307434 -0.12993814051151276 0.01237513218075037 -0.9914448857307434 0.12993837893009186 0.01237513218075037 -0.9914448857307434 0.12993837893009186 0.036281902343034744 -0.9238794445991516 0.3809596598148346 0.036281902343034744 -0.9238794445991516 0.3809596598148346 0.05771614983677864 -0.7933531403541565 0.6060195565223694 0.05771614983677864 -0.7933531403541565 0.6060195565223694 0.07521709054708481 -0.6087615489959717 0.789779543876648 0.07521709054708481 -0.6087615489959717 0.789779543876648 0.9954954385757446 -1.4419727634162882e-09 -0.09480908513069153 0.9954954385757446 -1.4419727634162882e-09 -0.09480908513069153 0.9954954385757446 -1.4419727634162882e-09 -0.09480908513069153 0.9954954385757446 -1.4419727634162882e-09 -0.09480908513069153 0.9954954385757446 -1.4419727634162882e-09 -0.09480908513069153 0.9954954385757446 -1.4419727634162882e-09 -0.09480908513069153 0.9954954385757446 -1.4419727634162882e-09 -0.09480908513069153 0.9954954385757446 -1.4419727634162882e-09 -0.09480908513069153 0.9954954385757446 -1.4419727634162882e-09 -0.09480908513069153 0.9954954385757446 -1.4419727634162882e-09 -0.09480908513069153 0.9954954385757446 -1.4419727634162882e-09 -0.09480908513069153 0.9954954385757446 -1.4419727634162882e-09 -0.09480908513069153 0.9954954385757446 -1.4419727634162882e-09 -0.09480908513069153 0.9954954385757446 -1.4419727634162882e-09 -0.09480908513069153 0.9954954385757446 -1.4419727634162882e-09 -0.09480908513069153 0.9954954385757446 -1.4419727634162882e-09 -0.09480908513069153 0.9954954385757446 -1.4419727634162882e-09 -0.09480908513069153 0.9954954385757446 -1.4419727634162882e-09 -0.09480908513069153 0.9954954385757446 -1.4419727634162882e-09 -0.09480908513069153 0.9954954385757446 -1.4419727634162882e-09 -0.09480908513069153 0.9954954385757446 -1.4419727634162882e-09 -0.09480908513069153 0.9954954385757446 -1.4419727634162882e-09 -0.09480908513069153 0.08759214729070663 -0.38268333673477173 0.9197179675102234 0.08759214729070663 -0.38268333673477173 0.9197179675102234 0.09399793297052383 -0.13052617013454437 0.9869788885116577 0.09399793297052383 -0.13052617013454437 0.9869788885116577 -0.9954954385757446 1.4419727634162882e-09 0.09480908513069153 -0.9954954385757446 1.4419727634162882e-09 0.09480908513069153 -0.9954954385757446 1.4419727634162882e-09 0.09480908513069153 -0.9954954385757446 1.4419727634162882e-09 0.09480908513069153 -0.9954954385757446 1.4419727634162882e-09 0.09480908513069153 -0.9954954385757446 1.4419727634162882e-09 0.09480908513069153 -0.9954954385757446 1.4419727634162882e-09 0.09480908513069153 -0.9954954385757446 1.4419727634162882e-09 0.09480908513069153 -0.9954954385757446 1.4419727634162882e-09 0.09480908513069153 -0.9954954385757446 1.4419727634162882e-09 0.09480908513069153 -0.9954954385757446 1.4419727634162882e-09 0.09480908513069153 -0.9954954385757446 1.4419727634162882e-09 0.09480908513069153 -0.9954954385757446 1.4419727634162882e-09 0.09480908513069153 -0.9954954385757446 1.4419727634162882e-09 0.09480908513069153 -0.9954954385757446 1.4419727634162882e-09 0.09480908513069153 -0.9954954385757446 1.4419727634162882e-09 0.09480908513069153 -0.9954954385757446 1.4419727634162882e-09 0.09480908513069153 -0.9954954385757446 1.4419727634162882e-09 0.09480908513069153 -0.9954954385757446 1.4419727634162882e-09 0.09480908513069153 -0.9954954385757446 1.4419727634162882e-09 0.09480908513069153 -0.9954954385757446 1.4419727634162882e-09 0.09480908513069153 -0.9954954385757446 1.4419727634162882e-09 0.09480908513069153</float_array><technique_common><accessor source="#mesh0-normals-array" count="92" stride="3"><param name="X" type="float" /><param name="Y" type="float" /><param name="Z" type="float" /></accessor></technique_common></source><vertices id="mesh0-vertices"><input semantic="POSITION" source="#mesh0-positions" /></vertices><triangles count="92" material="copper"><input semantic="VERTEX" source="#mesh0-vertices" offset="0" /><input semantic="NORMAL" source="#mesh0-normals" offset="1" /><p>0 0 1 0 3 0 0 1 3 1 2 1 2 2 3 2 5 2 2 3 5 3 4 3 4 4 5 4 7 4 4 5 7 5 6 5 6 6 7 6 9 6 6 7 9 7 8 7 8 8 9 8 11 8 8 9 11 9 10 9 10 10 11 10 13 10 10 11 13 11 12 11 12 12 13 12 15 12 12 13 15 13 14 13 14 14 15 14 17 14 14 15 17 15 16 15 16 16 17 16 19 16 16 17 19 17 18 17 18 18 19 18 21 18 18 19 21 19 20 19 20 20 21 20 23 20 20 21 23 21 22 21 22 22 23 22 25 22 22 23 25 23 24 23 24 24 25 24 27 24 24 25 27 25 26 25 26 26 27 26 29 26 26 27 29 27 28 27 28 28 29 28 31 28 28 29 31 29 30 29 30 30 31 30 33 30 30 31 33 31 32 31 32 32 33 32 35 32 32 33 35 33 34 33 34 34 35 34 37 34 34 35 37 35 36 35 36 36 37 36 39 36 36 37 39 37 38 37 38 38 39 38 41 38 38 39 41 39 40 39 40 40 41 40 43 40 40 41 43 41 42 41 42 42 43 42 45 42 42 43 45 43 44 43 5 44 3 44 1 44 1 45 47 45 45 45 45 46 43 46 41 46 41 47 39 47 37 47 37 48 35 48 33 48 33 49 31 49 29 49 29 50 27 50 25 50 25 51 23 51 21 51 21 52 19 52 17 52 17 53 15 53 13 53 13 54 11 54 9 54 9 55 7 55 5 55 5 56 1 56 45 56 45 57 41 57 37 57 37 58 33 58 29 58 29 59 25 59 21 59 21 60 17 60 13 60 13 61 9 61 5 61 5 62 45 62 37 62 37 63 29 63 21 63 21 64 13 64 5 64 37 65 21 65 5 65 44 66 45 66 47 66 44 67 47 67 46 67 46 68 47 68 1 68 46 69 1 69 0 69 46 70 0 70 2 70 2 71 4 71 6 71 6 72 8 72 10 72 10 73 12 73 14 73 14 74 16 74 18 74 18 75 20 75 22 75 22 76 24 76 26 76 26 77 28 77 30 77 30 78 32 78 34 78 34 79 36 79 38 79 38 80 40 80 42 80 42 81 44 81 46 81 46 82 2 82 6 82 6 83 10 83 14 83 14 84 18 84 22 84 22 85 26 85 30 85 30 86 34 86 38 86 38 87 42 87 46 87 46 88 6 88 14 88 14 89 22 89 30 89 30 90 38 90 46 90 14 91 30 91 46 91</p></triangles></mesh></geometry><geometry id="mesh1"><mesh><source id="mesh1-positions"><float_array id="mesh1-array" count="144">-0.21924152970314026 0.15999998152256012 -0.022036049515008926 0.20075848698616028 0.1600000113248825 -0.062036026269197464 -0.21926738321781158 0.16207054257392883 -0.022307414561510086 0.20073263347148895 0.16207055747509003 -0.062307391315698624 -0.2193431556224823 0.1639999896287918 -0.023103017359972 0.20065686106681824 0.164000004529953 -0.06310299783945084 -0.21946369111537933 0.16565683484077454 -0.024368640035390854 0.2005363255739212 0.16565686464309692 -0.06436861306428909 -0.21962076425552368 0.16692818701267242 -0.02601803094148636 0.20037925243377686 0.1669282168149948 -0.0660180076956749 -0.21980370581150055 0.16772739589214325 -0.027938786894083023 0.2001963108778 0.16772741079330444 -0.06793876737356186 -0.2200000137090683 0.1679999828338623 -0.03000001236796379 0.20000000298023224 0.1680000126361847 -0.06999999284744263 -0.22019630670547485 0.16772739589214325 -0.03206123784184456 0.19980370998382568 0.16772741079330444 -0.0720612183213234 -0.22037924826145172 0.16692818701267242 -0.03398199379444122 0.19962076842784882 0.1669282168149948 -0.07398197054862976 -0.22053632140159607 0.16565683484077454 -0.03563138470053673 0.19946369528770447 0.16565686464309692 -0.07563136518001556 -0.2206568568944931 0.1639999896287918 -0.03689700737595558 0.19934315979480743 0.164000004529953 -0.07689698785543442 -0.22073262929916382 0.16207054257392883 -0.037692610174417496 0.19926738739013672 0.16207055747509003 -0.07769259065389633 -0.22075848281383514 0.15999998152256012 -0.037963975220918655 0.1992415338754654 0.1600000113248825 -0.07796395570039749 -0.22073262929916382 0.1579294353723526 -0.037692610174417496 0.19926738739013672 0.1579294502735138 -0.07769259065389633 -0.2206568568944931 0.15599998831748962 -0.03689700737595558 0.19934315979480743 0.15600000321865082 -0.07689698040485382 -0.22053632140159607 0.1543431282043457 -0.03563138470053673 0.19946369528770447 0.1543431580066681 -0.07563136518001556 -0.22037924826145172 0.15307177603244781 -0.03398199379444122 0.19962076842784882 0.1530718058347702 -0.07398197054862976 -0.22019630670547485 0.15227258205413818 -0.03206123784184456 0.19980370998382568 0.15227259695529938 -0.0720612108707428 -0.2199999988079071 0.15199998021125793 -0.03000001236796379 0.20000001788139343 0.15200001001358032 -0.06999998539686203 -0.21980370581150055 0.15227258205413818 -0.027938786894083023 0.2001963108778 0.15227259695529938 -0.06793875992298126 -0.21962076425552368 0.15307177603244781 -0.02601803094148636 0.20037925243377686 0.1530718058347702 -0.0660180076956749 -0.21946369111537933 0.1543431282043457 -0.024368640035390854 0.2005363255739212 0.1543431580066681 -0.06436861306428909 -0.2193431556224823 0.15599998831748962 -0.023103017359972 0.20065686106681824 0.15600000321865082 -0.06310299038887024 -0.21926738321781158 0.1579294353723526 -0.022307414561510086 0.20073263347148895 0.1579294502735138 -0.062307391315698624</float_array><technique_common><accessor source="#mesh1-array" count="48" stride="3"><param name="X" type="float" /><param name="Y" type="float" /><param name="Z" type="float" /></accessor></technique_common></source><source id="mesh1-normals"><float_array id="mesh1-normals-array" count="276">0.09399791806936264 0.13052628934383392 0.9869788885116577 0.09399791806936264 0.13052628934383392 0.9869788885116577 0.08759210258722305 0.3826834559440613 0.9197178483009338 0.08759210258722305 0.3826834559440613 0.9197178483009338 0.07521700114011765 0.6087616682052612 0.7897794246673584 0.07521700114011765 0.6087616682052612 0.7897794246673584 0.057716045528650284 0.793353259563446 0.6060193181037903 0.057716045528650284 0.793353259563446 0.6060193181037903 0.036281779408454895 0.9238795638084412 0.3809594511985779 0.036281779408454895 0.9238795638084412 0.3809594511985779 0.012374998070299625 0.9914448857307434 0.12993814051151276 0.012374998070299625 0.9914448857307434 0.12993814051151276 -0.01237513218075037 0.9914448857307434 -0.12993837893009186 -0.01237513218075037 0.9914448857307434 -0.12993837893009186 -0.036281902343034744 0.9238794445991516 -0.3809596598148346 -0.036281902343034744 0.9238794445991516 -0.3809596598148346 -0.05771614983677864 0.7933531403541565 -0.6060195565223694 -0.05771614983677864 0.7933531403541565 -0.6060195565223694 -0.07521709054708481 0.6087615489959717 -0.789779543876648 -0.07521709054708481 0.6087615489959717 -0.789779543876648 -0.08759214729070663 0.38268333673477173 -0.9197179675102234 -0.08759214729070663 0.38268333673477173 -0.9197179675102234 -0.09399793297052383 0.13052617013454437 -0.9869788885116577 -0.09399793297052383 0.13052617013454437 -0.9869788885116577 -0.09399791806936264 -0.13052628934383392 -0.9869788885116577 -0.09399791806936264 -0.13052628934383392 -0.9869788885116577 -0.08759210258722305 -0.3826834559440613 -0.9197178483009338 -0.08759210258722305 -0.3826834559440613 -0.9197178483009338 -0.07521700114011765 -0.6087616682052612 -0.7897794246673584 -0.07521700114011765 -0.6087616682052612 -0.7897794246673584 -0.057716045528650284 -0.793353259563446 -0.6060193181037903 -0.057716045528650284 -0.793353259563446 -0.6060193181037903 -0.036281779408454895 -0.9238795638084412 -0.3809594511985779 -0.036281779408454895 -0.9238795638084412 -0.3809594511985779 -0.012374998070299625 -0.9914448857307434 -0.12993814051151276 -0.012374998070299625 -0.9914448857307434 -0.12993814051151276 0.01237513218075037 -0.9914448857307434 0.12993837893009186 0.01237513218075037 -0.9914448857307434 0.12993837893009186 0.036281902343034744 -0.9238794445991516 0.3809596598148346 0.036281902343034744 -0.9238794445991516 0.3809596598148346 0.05771614983677864 -0.7933531403541565 0.6060195565223694 0.05771614983677864 -0.7933531403541565 0.6060195565223694 0.07521709054708481 -0.6087615489959717 0.789779543876648 0.07521709054708481 -0.6087615489959717 0.789779543876648 0.9954954385757446 -1.4419727634162882e-09 -0.09480908513069153 0.9954954385757446 -1.4419727634162882e-09 -0.09480908513069153 0.9954954385757446 -1.4419727634162882e-09 -0.09480908513069153 0.9954954385757446 -1.4419727634162882e-09 -0.09480908513069153 0.9954954385757446 -1.4419727634162882e-09 -0.09480908513069153 0.9954954385757446 -1.4419727634162882e-09 -0.09480908513069153 0.9954954385757446 -1.4419727634162882e-09 -0.09480908513069153 0.9954954385757446 -1.4419727634162882e-09 -0.09480908513069153 0.9954954385757446 -1.4419727634162882e-09 -0.09480908513069153 0.9954954385757446 -1.4419727634162882e-09 -0.09480908513069153 0.9954954385757446 -1.4419727634162882e-09 -0.09480908513069153 0.9954954385757446 -1.4419727634162882e-09 -0.09480908513069153 0.9954954385757446 -1.4419727634162882e-09 -0.09480908513069153 0.9954954385757446 -1.4419727634162882e-09 -0.09480908513069153 0.9954954385757446 -1.4419727634162882e-09 -0.09480908513069153 0.9954954385757446 -1.4419727634162882e-09 -0.09480908513069153 0.9954954385757446 -1.4419727634162882e-09 -0.09480908513069153 0.9954954385757446 -1.4419727634162882e-09 -0.09480908513069153 0.9954954385757446 -1.4419727634162882e-09 -0.09480908513069153 0.9954954385757446 -1.4419727634162882e-09 -0.09480908513069153 0.9954954385757446 -1.4419727634162882e-09 -0.09480908513069153 0.9954954385757446 -1.4419727634162882e-09 -0.09480908513069153 0.08759214729070663 -0.38268333673477173 0.9197179675102234 0.08759214729070663 -0.38268333673477173 0.9197179675102234 0.09399793297052383 -0.13052617013454437 0.9869788885116577 0.09399793297052383 -0.13052617013454437 0.9869788885116577 -0.9954954385757446 1.4419727634162882e-09 0.09480908513069153 -0.9954954385757446 1.4419727634162882e-09 0.09480908513069153 -0.9954954385757446 1.4419727634162882e-09 0.09480908513069153 -0.9954954385757446 1.4419727634162882e-09 0.09480908513069153 -0.9954954385757446 1.4419727634162882e-09 0.09480908513069153 -0.9954954385757446 1.4419727634162882e-09 0.09480908513069153 -0.9954954385757446 1.4419727634162882e-09 0.09480908513069153 -0.9954954385757446 1.4419727634162882e-09 0.09480908513069153 -0.9954954385757446 1.4419727634162882e-09 0.09480908513069153 -0.9954954385757446 1.4419727634162882e-09 0.09480908513069153 -0.9954954385757446 1.4419727634162882e-09 0.09480908513069153 -0.9954954385757446 1.4419727634162882e-09 0.09480908513069153 -0.9954954385757446 1.4419727634162882e-09 0.09480908513069153 -0.9954954385757446 1.4419727634162882e-09 0.09480908513069153 -0.9954954385757446 1.4419727634162882e-09 0.09480908513069153 -0.9954954385757446 1.4419727634162882e-09 0.09480908513069153 -0.9954954385757446 1.4419727634162882e-09 0.09480908513069153 -0.9954954385757446 1.4419727634162882e-09 0.09480908513069153 -0.9954954385757446 1.4419727634162882e-09 0.09480908513069153 -0.9954954385757446 1.4419727634162882e-09 0.09480908513069153 -0.9954954385757446 1.4419727634162882e-09 0.09480908513069153 -0.9954954385757446 1.4419727634162882e-09 0.09480908513069153</float_array><technique_common><accessor source="#mesh1-normals-array" count="92" stride="3"><param name="X" type="float" /><param name="Y" type="float" /><param name="Z" type="float" /></accessor></technique_common></source><vertices id="mesh1-vertices"><input semantic="POSITION" source="#mesh1-positions" /></vertices><triangles count="92" material="copper"><input semantic="VERTEX" source="#mesh1-vertices" offset="0" /><input semantic="NORMAL" source="#mesh1-normals" offset="1" /><p>0 0 1 0 3 0 0 1 3 1 2 1 2 2 3 2 5 2 2 3 5 3 4 3 4 4 5 4 7 4 4 5 7 5 6 5 6 6 7 6 9 6 6 7 9 7 8 7 8 8 9 8 11 8 8 9 11 9 10 9 10 10 11 10 13 10 10 11 13 11 12 11 12 12 13 12 15 12 12 13 15 13 14 13 14 14 15 14 17 14 14 15 17 15 16 15 16 16 17 16 19 16 16 17 19 17 18 17 18 18 19 18 21 18 18 19 21 19 20 19 20 20 21 20 23 20 20 21 23 21 22 21 22 22 23 22 25 22 22 23 25 23 24 23 24 24 25 24 27 24 24 25 27 25 26 25 26 26 27 26 29 26 26 27 29 27 28 27 28 28 29 28 31 28 28 29 31 29 30 29 30 30 31 30 33 30 30 31 33 31 32 31 32 32 33 32 35 32 32 33 35 33 34 33 34 34 35 34 37 34 34 35 37 35 36 35 36 36 37 36 39 36 36 37 39 37 38 37 38 38 39 38 41 38 38 39 41 39 40 39 40 40 41 40 43 40 40 41 43 41 42 41 42 42 43 42 45 42 42 43 45 43 44 43 5 44 3 44 1 44 1 45 47 45 45 45 45 46 43 46 41 46 41 47 39 47 37 47 37 48 35 48 33 48 33 49 31 49 29 49 29 50 27 50 25 50 25 51 23 51 21 51 21 52 19 52 17 52 17 53 15 53 13 53 13 54 11 54 9 54 9 55 7 55 5 55 5 56 1 56 45 56 45 57 41 57 37 57 37 58 33 58 29 58 29 59 25 59 21 59 21 60 17 60 13 60 13 61 9 61 5 61 5 62 45 62 37 62 37 63 29 63 21 63 21 64 13 64 5 64 37 65 21 65 5 65 44 66 45 66 47 66 44 67 47 67 46 67 46 68 47 68 1 68 46 69 1 69 0 69 46 70 0 70 2 70 2 71 4 71 6 71 6 72 8 72 10 72 10 73 12 73 14 73 14 74 16 74 18 74 18 75 20 75 22 75 22 76 24 76 26 76 26 77 28 77 30 77 30 78 32 78 34 78 34 79 36 79 38 79 38 80 40 80 42 80 42 81 44 81 46 81 46 82 2 82 6 82 6 83 10 83 14 83 14 84 18 84 22 84 22 85 26 85 30 85 30 86 34 86 38 86 38 87 42 87 46 87 46 88 6 88 14 88 14 89 22 89 30 89 30 90 38 90 46 90 14 91 30 91 46 91</p></triangles></mesh></geometry></library_geometries><library_visual_scenes><visual_scene id="Scene"><node id="mesh0-node"><instance_geometry url="#mesh0"><bind_material><technique_common><instance_material symbol="copper" target="#copper" /></technique_common></bind_material></instance_geometry></node><node id="mesh1-node"><instance_geometry url="#mesh1"><bind_material><technique_common><instance_material symbol="copper" target="#copper" /></technique_common></bind_material></instance_geometry></node></visual_scene></library_visual_scenes><scene><instance_visual_scene url="#Scene" /></scene></COLLADA>