<?xml version='1.0' encoding='utf-8'?>
<COLLADA xmlns="http://www.collada.org/2005/11/COLLADASchema" version="1.4.1"><asset><unit name="meter" meter="1" /><up_axis>Z_UP</up_axis></asset><library_effects><effect id="graphite-fx"><profile_COMMON><technique sid="common"><phong><emission><color>0 0 0 1</color></emission><ambient><color>0.065 0.075 0.085 1</color></ambient><diffuse><color>0.065 0.075 0.085 1</color></diffuse><specular><color>0.12 0.12 0.12 1</color></specular><shininess><float>25</float></shininess></phong></technique></profile_COMMON></effect><effect id="titanium-fx"><profile_COMMON><technique sid="common"><phong><emission><color>0 0 0 1</color></emission><ambient><color>0.36 0.4 0.43 1</color></ambient><diffuse><color>0.36 0.4 0.43 1</color></diffuse><specular><color>0.12 0.12 0.12 1</color></specular><shininess><float>25</float></shininess></phong></technique></profile_COMMON></effect><effect id="ivory-fx"><profile_COMMON><technique sid="common"><phong><emission><color>0 0 0 1</color></emission><ambient><color>0.72 0.72 0.65 1</color></ambient><diffuse><color>0.72 0.72 0.65 1</color></diffuse><specular><color>0.12 0.12 0.12 1</color></specular><shininess><float>25</float></shininess></phong></technique></profile_COMMON></effect><effect id="copper-fx"><profile_COMMON><technique sid="common"><phong><emission><color>0 0 0 1</color></emission><ambient><color>0.66 0.29 0.08 1</color></ambient><diffuse><color>0.66 0.29 0.08 1</color></diffuse><specular><color>0.12 0.12 0.12 1</color></specular><shininess><float>25</float></shininess></phong></technique></profile_COMMON></effect><effect id="rubber-fx"><profile_COMMON><technique sid="common"><phong><emission><color>0 0 0 1</color></emission><ambient><color>0.025 0.028 0.032 1</color></ambient><diffuse><color>0.025 0.028 0.032 1</color></diffuse><specular><color>0.12 0.12 0.12 1</color></specular><shininess><float>25</float></shininess></phong></technique></profile_COMMON></effect><effect id="lens-fx"><profile_COMMON><technique sid="common"><phong><emission><color>0 0 0 1</color></emission><ambient><color>0.05 0.26 0.33 1</color></ambient><diffuse><color>0.05 0.26 0.33 1</color></diffuse><specular><color>0.12 0.12 0.12 1</color></specular><shininess><float>25</float></shininess></phong></technique></profile_COMMON></effect></library_effects><library_materials><material id="graphite"><instance_effect url="#graphite-fx" /></material><material id="titanium"><instance_effect url="#titanium-fx" /></material><material id="ivory"><instance_effect url="#ivory-fx" /></material><material id="copper"><instance_effect url="#copper-fx" /></material><material id="rubber"><instance_effect url="#rubber-fx" /></material><material id="lens"><instance_effect url="#lens-fx" /></material></library_materials><library_geometries><geometry id="mesh0"><mesh><source id="mesh0-positions"><float_array id="mesh0-array" count="456">-0.23000000417232513 -0.1445000022649765 0.039000000804662704 -0.2240000069141388 -0.15049999952316284 0.041999999433755875 -0.22519999742507935 -0.1445000022649765 0.048600006848573685 -0.2289789617061615 -0.1474960744380951 0.03929106146097183 -0.2295781672000885 -0.1445000171661377 0.042586736381053925 -0.22857780754566193 -0.14736928045749664 0.042738381773233414 -0.2243797481060028 -0.1496984362602234 0.04518594592809677 -0.2267766147851944 -0.1496984362602234 0.04039224237203598 -0.2270272821187973 -0.14891980588436127 0.043513644486665726 -0.22781628370285034 -0.1445000171661377 0.04611051082611084 -0.22482022643089294 -0.1474960744380951 0.04760854318737984 -0.22733737528324127 -0.14736928045749664 0.04521922394633293 -0.14400924742221832 -0.1445000022649765 0.10466717928647995 -0.15480001270771027 -0.1445000022649765 0.1013999953866005 -0.14814943075180054 -0.15049999952316284 0.09888792783021927 -0.14763645827770233 -0.1445000022649765 0.10430209338665009 -0.14527353644371033 -0.147441565990448 0.10384805500507355 -0.1482069492340088 -0.1473509818315506 0.10368067771196365 -0.1532936692237854 -0.147441565990448 0.10141973197460175 -0.15157948434352875 -0.1445000022649765 0.103108249604702 -0.15076012909412384 -0.1473509669303894 0.10290762782096863 -0.14677122235298157 -0.14961200952529907 0.10175745189189911 -0.1508878767490387 -0.14961200952529907 0.10051101446151733 -0.14923512935638428 -0.14894571900367737 0.10247378051280975 0.11999999731779099 -0.1445000022649765 0.09000000357627869 0.11820680648088455 -0.15049999952316284 0.08409037441015244 0.11975975334644318 -0.14750000834465027 0.08920826762914658 0.11910340189933777 -0.14969617128372192 0.08704520016908646 0.22653990983963013 -0.1445000022649765 0.02009819634258747 0.22483444213867188 -0.1445000022649765 0.028052376583218575 0.22134600579738617 -0.15049999952316284 0.023144496604800224 0.22758276760578156 -0.1445000022649765 0.022954780608415604 0.22584083676338196 -0.1474960595369339 0.0205040592700243 0.226830393075943 -0.14736926555633545 0.023245392367243767 0.22436322271823883 -0.1474960595369339 0.027395591139793396 0.22695675492286682 -0.1445000022649765 0.025874439626932144 0.22638966143131256 -0.14736926555633545 0.025300920009613037 0.2239343672990799 -0.1496984213590622 0.02162223309278488 0.2230827510356903 -0.1496984213590622 0.025594105944037437 0.22548818588256836 -0.14891979098320007 0.02403262071311474 0.16403670608997345 -0.1445000022649765 -0.060662586241960526 0.17346009612083435 -0.1445000022649765 -0.055098190903663635 0.16665475070476532 -0.15049999952316284 -0.054334767162799835 0.16763068735599518 -0.1445000022649765 -0.05993763729929924 0.16423249244689941 -0.1474960595369339 -0.059556424617767334 0.16768881678581238 -0.14736926555633545 -0.0588669627904892 0.1723969429731369 -0.1474960595369339 -0.05473541095852852 0.17108963429927826 -0.1445000022649765 -0.057895172387361526 0.17012402415275574 -0.14736926555633545 -0.057429008185863495 0.16519346833229065 -0.1496984213590622 -0.05723373591899872 0.16989897191524506 -0.1496984213590622 -0.054455190896987915 0.16836537420749664 -0.14891979098320007 -0.05723172053694725 -0.10536656528711319 -0.1445000022649765 -0.08731672167778015 -0.09403669834136963 -0.1445000022649765 -0.08933741599321365 -0.09890154004096985 -0.15049999952316284 -0.08384102582931519 -0.10187474638223648 -0.1445000022649765 -0.08852893859148026 -0.10376308113336563 -0.14744095504283905 -0.08712611347436905 -0.10104422271251678 -0.1473505198955536 -0.08820923417806625 -0.09547543525695801 -0.14744094014167786 -0.08860421925783157 -0.09773228317499161 -0.1445000022649765 -0.08926775306463242 -0.09840108454227448 -0.1473505198955536 -0.08868064731359482 -0.10142329335212708 -0.1496124267578125 -0.08586820960044861 -0.09723608940839767 -0.1496124267578125 -0.08661500364542007 -0.09957073628902435 -0.14894616603851318 -0.08759312331676483 -0.23000000417232513 -0.1445000022649765 -0.01900000125169754 -0.22463344037532806 -0.1445000022649765 -0.027683282271027565 -0.2240000069141388 -0.15049999952316284 -0.02129179611802101 -0.22939887642860413 -0.1445000022649765 -0.02242613211274147 -0.22908258438110352 -0.1474960595369339 -0.019234582781791687 -0.22850321233272552 -0.14736926555633545 -0.022524405270814896 -0.22443297505378723 -0.1474960595369339 -0.02675781026482582 -0.22742903232574463 -0.1445000022649765 -0.025613415986299515 -0.22711637616157532 -0.14736926555633545 -0.024768346920609474 -0.22688022255897522 -0.1496984213590622 -0.020075807347893715 -0.22420045733451843 -0.1496984213590622 -0.024411750957369804 -0.2269526869058609 -0.14891979098320007 -0.02311665192246437 -0.23000000417232513 -0.1314999908208847 0.039000000804662704 -0.22519999742507935 -0.1314999908208847 0.048600003123283386 -0.2240000069141388 -0.12549999356269836 0.041999999433755875 -0.2295781970024109 -0.1314999908208847 0.042586736381053925 -0.2289789915084839 -0.1285039335489273 0.03929106518626213 -0.22857783734798431 -0.12863072752952576 0.042738381773233414 -0.22482025623321533 -0.1285039335489273 0.04760854318737984 -0.22781631350517273 -0.1314999908208847 0.04611051082611084 -0.22733740508556366 -0.12863072752952576 0.04521922394633293 -0.22677664458751678 -0.126301571726799 0.04039224237203598 -0.2243797779083252 -0.126301571726799 0.04518594592809677 -0.2270273119211197 -0.12708020210266113 0.043513644486665726 -0.15480001270771027 -0.1314999908208847 0.1013999953866005 -0.14400924742221832 -0.1314999908208847 0.10466717928647995 -0.14814943075180054 -0.12549999356269836 0.09888792783021927 -0.15157948434352875 -0.1314999908208847 0.103108249604702 -0.1532936692237854 -0.1285584270954132 0.10141973197460175 -0.15076011419296265 -0.128649041056633 0.10290762782096863 -0.14527353644371033 -0.1285584270954132 0.10384804755449295 -0.14763645827770233 -0.1314999908208847 0.10430210828781128 -0.1482069194316864 -0.128649041056633 0.10368067026138306 -0.1508878767490387 -0.12638798356056213 0.10051102191209793 -0.14677122235298157 -0.12638798356056213 0.10175745189189911 -0.14923512935638428 -0.12705428898334503 0.10247377306222916 0.11999999731779099 -0.1314999908208847 0.09000000357627869 0.11820680648088455 -0.12549999356269836 0.08409037441015244 0.11975975334644318 -0.12849998474121094 0.08920826762914658 0.11910340189933777 -0.12630382180213928 0.08704520016908646 0.22483444213867188 -0.1314999908208847 0.028052378445863724 0.22653990983963013 -0.1314999908208847 0.020098192617297173 0.22134600579738617 -0.12549999356269836 0.023144496604800224 0.22695675492286682 -0.1314999908208847 0.025874441489577293 0.22436322271823883 -0.1285039335489273 0.027395594865083694 0.22638966143131256 -0.12863072752952576 0.025300920009613037 0.22584083676338196 -0.1285039335489273 0.02050405740737915 0.22758276760578156 -0.1314999908208847 0.022954778745770454 0.226830393075943 -0.12863072752952576 0.023245392367243767 0.2230827510356903 -0.126301571726799 0.025594107806682587 0.2239343672990799 -0.126301571726799 0.02162223309278488 0.22548818588256836 -0.12708020210266113 0.02403262071311474 0.17346009612083435 -0.1314999908208847 -0.055098194628953934 0.16403670608997345 -0.1314999908208847 -0.060662586241960526 0.16665475070476532 -0.12549999356269836 -0.054334767162799835 0.17108963429927826 -0.1314999908208847 -0.05789517983794212 0.1723969429731369 -0.1285039335489273 -0.054735422134399414 0.17012402415275574 -0.12863072752952576 -0.05742901191115379 0.16423249244689941 -0.1285039335489273 -0.05955643206834793 0.16763068735599518 -0.1314999908208847 -0.05993764474987984 0.16768881678581238 -0.12863072752952576 -0.058866970241069794 0.16989897191524506 -0.126301571726799 -0.05445519834756851 0.16519346833229065 -0.126301571726799 -0.057233743369579315 0.16836537420749664 -0.12708020210266113 -0.05723172798752785 -0.09403669834136963 -0.1314999908208847 -0.08933741599321365 -0.10536656528711319 -0.1314999908208847 -0.08731672167778015 -0.09890154004096985 -0.12549999356269836 -0.08384102582931519 -0.09773228317499161 -0.1314999908208847 -0.08926775306463242 -0.09547542035579681 -0.12855905294418335 -0.08860421925783157 -0.09840109199285507 -0.1286494880914688 -0.08868065476417542 -0.10376308858394623 -0.12855905294418335 -0.08712611347436905 -0.10187475383281708 -0.1314999908208847 -0.08852893859148026 -0.10104423016309738 -0.1286494880914688 -0.08820924907922745 -0.09723606705665588 -0.1263875663280487 -0.08661501109600067 -0.10142329335212708 -0.1263875663280487 -0.08586820960044861 -0.09957072138786316 -0.12705382704734802 -0.08759312331676483 -0.23000000417232513 -0.1314999908208847 -0.01900000125169754 -0.2240000069141388 -0.12549999356269836 -0.02129179611802101 -0.22463344037532806 -0.1314999908208847 -0.027683282271027565 -0.22908258438110352 -0.1285039335489273 -0.019234586507081985 -0.22939887642860413 -0.1314999908208847 -0.02242613583803177 -0.22850321233272552 -0.12863072752952576 -0.022524408996105194 -0.22420045733451843 -0.126301571726799 -0.024411754682660103 -0.22688022255897522 -0.126301571726799 -0.020075811073184013 -0.2269526869058609 -0.12708020210266113 -0.02311665564775467 -0.22742903232574463 -0.1314999908208847 -0.025613419711589813 -0.22443297505378723 -0.1285039335489273 -0.02675781399011612 -0.22711637616157532 -0.12863072752952576 -0.024768350645899773</float_array><technique_common><accessor source="#mesh0-array" count="152" stride="3"><param name="X" type="float" /><param name="Y" type="float" /><param name="Z" type="float" /></accessor></technique_common></source><source id="mesh0-normals"><float_array id="mesh0-normals-array" count="900">-0.9431071877479553 -0.30963701009750366 0.12113510072231293 -0.9402671456336975 -0.3219766616821289 0.11058374494314194 -0.7297379970550537 -0.6748624444007874 0.10974133759737015 -0.729735255241394 -0.6748657822608948 0.10973890125751495 -0.3817296326160431 -0.906084418296814 0.1824655383825302 -0.3750092387199402 -0.9060843586921692 0.19590625166893005 -0.5256344676017761 -0.6748654842376709 0.5179430842399597 -0.5256332159042358 -0.6748640537261963 0.5179462432861328 -0.6526241302490234 -0.3219812512397766 0.685864269733429 -0.6627755761146545 -0.3096340000629425 0.6818030476570129 -0.8594461679458618 -0.27693167328834534 0.4297221601009369 -0.8594430685043335 -0.27693626284599304 0.42972540855407715 -0.7427811026573181 -0.5570842027664185 0.37139391899108887 -0.09826063364744186 -0.19312486052513123 0.9762415885925293 -0.0627303272485733 -0.24261857569217682 0.9680914878845215 -0.28654956817626953 -0.14895221590995789 0.9464156627655029 -0.2865556478500366 -0.1489451676607132 0.9464148879051208 -0.484809935092926 -0.24262802302837372 0.84029221534729 -0.45976588129997253 -0.193130224943161 0.866784930229187 -0.41109538078308105 -0.700106680393219 0.5838246941566467 -0.39873024821281433 -0.5755289196968079 0.7139891982078552 -0.1461576521396637 -0.9230469465255737 0.355840265750885 -0.07577645778656006 -0.9230470657348633 0.3771498203277588 -0.0629059225320816 -0.6695052981376648 0.7401388883590698 0.05702811852097511 -0.6256008744239807 0.7780561447143555 -0.25525549054145813 -0.47343525290489197 0.8430324196815491 0.9043223261833191 -0.27056851983070374 -0.3301423490047455 0.9129577279090881 -0.25606051087379456 -0.3177126348018646 0.951813817024231 -0.2289131134748459 0.204081192612648 0.9518138766288757 -0.22891317307949066 0.20408117771148682 0.7024542093276978 -0.25605762004852295 0.6640726923942566 0.6894799470901489 -0.27056795358657837 0.671870768070221 0.5345362424850464 -0.6991645097732544 0.4748052954673767 0.534538984298706 -0.6991623640060425 0.4748053550720215 0.3394405245780945 -0.9368847608566284 0.08382800221443176 0.34396985173225403 -0.9368847608566284 0.0627032220363617 0.6822077631950378 -0.699163556098938 -0.2139226794242859 0.6822078824043274 -0.6991633772850037 -0.21392305195331573 0.785990297794342 -0.5948261022567749 0.16852645576000214 0.18593546748161316 -0.340200811624527 -0.9217870831489563 0.1963498443365097 -0.3282938599586487 -0.923942506313324 0.48551997542381287 -0.29698213934898376 -0.8222358822822571 0.48551860451698303 -0.2969837188720703 -0.8222362995147705 0.7142321467399597 -0.32829368114471436 -0.6181389689445496 0.7173738479614258 -0.34019944071769714 -0.6079794764518738 0.5443387031555176 -0.6799171566963196 -0.4913330078125 0.5443378686904907 -0.6799198389053345 -0.4913301169872284 0.2224128693342209 -0.9051051735877991 -0.3623772859573364 0.20990686118602753 -0.9051051139831543 -0.36976197361946106 0.1673572063446045 -0.6799173355102539 -0.7139356136322021 0.16735786199569702 -0.6799176931381226 -0.713935136795044 0.4192315936088562 -0.5658413767814636 -0.7099778056144714 -0.32149627804756165 -0.19753652811050415 -0.9260774850845337 -0.3511550724506378 -0.24994118511676788 -0.9023411870002747 -0.17333297431468964 -0.15950094163417816 -0.9718616604804993 -0.17333488166332245 -0.15950331091880798 -0.9718610048294067 0.017565233632922173 -0.24994735419750214 -0.9681001305580139 -0.018475601449608803 -0.19753552973270416 -0.9801215529441833 0.0892132818698883 -0.7111534476280212 -0.6973534226417542 0.0040810308419167995 -0.5652257800102234 -0.8249260783195496 -0.02058262564241886 -0.9250054359436035 -0.3793959617614746 -0.11184606701135635 -0.9250055551528931 -0.3631189167499542 -0.25364941358566284 -0.6747872233390808 -0.69305419921875 -0.3983885645866394 -0.6265409588813782 -0.6698753237724304 -0.15435005724430084 -0.4766877591609955 -0.8654161095619202 -0.9430140256881714 -0.28870266675949097 -0.1654554009437561 -0.9448713660240173 -0.2754681408405304 -0.17701859772205353 -0.82573002576828 -0.2402818202972412 -0.5103277564048767 -0.8257293701171875 -0.24027924239635468 -0.5103302597999573 -0.5808907151222229 -0.27546748518943787 -0.7659527659416199 -0.569713830947876 -0.2887064218521118 -0.7694639563560486 -0.4629656970500946 -0.6686775088310242 -0.5818360447883606 -0.4629671573638916 -0.6686761379241943 -0.5818365216255188 -0.34816592931747437 -0.9100949168205261 -0.22473952174186707 -0.3567172884941101 -0.9100949168205261 -0.2109030783176422 -0.7274551391601562 -0.6686768531799316 -0.15388409793376923 -0.727455198764801 -0.6686768531799316 -0.15388406813144684 -0.7132747173309326 -0.5448933243751526 -0.44082924723625183 -0.9402677416801453 0.3219771683216095 0.11057733744382858 -0.9431095719337463 0.3096298277378082 0.12113524973392487 -0.8594452142715454 0.27693548798561096 0.4297216832637787 -0.8594444394111633 0.27693089842796326 0.42972609400749207 -0.6627766489982605 0.3096287250518799 0.6818044185638428 -0.6526205539703369 0.32198163866996765 0.6858674883842468 -0.5256325602531433 0.674866259098053 0.5179440975189209 -0.5256359577178955 0.6748629212379456 0.5179448127746582 -0.3750099241733551 0.9060840606689453 0.1959061473608017 -0.3817299008369446 0.9060841202735901 0.18246611952781677 -0.7297375798225403 0.6748632192611694 0.10973922908306122 -0.729735791683197 0.6748647689819336 0.10974210500717163 -0.7427811026573181 0.5570842027664185 0.37139391899108887 -0.4597655236721039 0.19313353300094604 0.8667843341827393 -0.48480695486068726 0.24262645840644836 0.8402943015098572 -0.28655263781547546 0.1489575356245041 0.9464139342308044 -0.2865504026412964 0.14895470440387726 0.9464150667190552 -0.06273343414068222 0.2426195740699768 0.9680911302566528 -0.09825645387172699 0.19313600659370422 0.9762398600578308 0.01819586753845215 0.7001043558120728 0.7138086557388306 -0.06429623067378998 0.5755236148834229 0.8152537941932678 -0.07577172666788101 0.9230453372001648 0.3771551251411438 -0.146163210272789 0.9230452179908752 0.3558424115180969 -0.35821378231048584 0.669501006603241 0.6507313847541809 -0.4790380895137787 0.625597357749939 0.6157519221305847 -0.25524982810020447 0.4734323024749756 0.8430358171463013 0.6894798874855042 0.2705683708190918 0.6718707084655762 0.7024549245834351 0.2560572028160095 0.6640721559524536 0.9518139958381653 0.2289130687713623 0.2040809690952301 0.9518139362335205 0.22891327738761902 0.204081192612648 0.9129577279090881 0.2560606896877289 -0.3177124261856079 0.9043222665786743 0.27056869864463806 -0.33014214038848877 0.6822076439857483 0.6991636753082275 -0.21392281353473663 0.6822080612182617 0.6991633176803589 -0.2139226198196411 0.3439698815345764 0.9368848204612732 0.06270314007997513 0.3394404649734497 0.9368847608566284 0.08382799476385117 0.5345380902290344 0.6991643905639648 0.47480344772338867 0.5345371961593628 0.6991626024246216 0.4748069941997528 0.7859904170036316 0.5948261022567749 0.16852647066116333 0.7173740267753601 0.34020018577575684 -0.607978880405426 0.7142317295074463 0.3282921314239502 -0.6181402206420898 0.48551979660987854 0.29698342084884644 -0.8222355246543884 0.4855195879936218 0.2969830632209778 -0.8222358822822571 0.19634993374347687 0.32829180359840393 -0.9239433407783508 0.18593361973762512 0.3402009606361389 -0.921787440776825 0.16735774278640747 0.6799171566963196 -0.7139356732368469 0.16735710203647614 0.6799179315567017 -0.7139350175857544 0.20990613102912903 0.9051054120063782 -0.3697616159915924 0.22241295874118805 0.905105471611023 -0.36237648129463196 0.544338583946228 0.6799178123474121 -0.491332083940506 0.5443373918533325 0.6799184679985046 -0.49133265018463135 0.4192326068878174 0.5658407807350159 -0.7099776864051819 -0.01847560703754425 0.19753406941890717 -0.9801219701766968 0.017566274851560593 0.2499477118253708 -0.9680999517440796 -0.17333275079727173 0.15949855744838715 -0.9718621373176575 -0.1733323484659195 0.15949903428554535 -0.9718621969223022 -0.3511590361595154 0.2499435842037201 -0.9023389220237732 -0.3214971423149109 0.1975329965353012 -0.9260779023170471 -0.32478928565979004 0.7111545205116272 -0.6235151886940002 -0.28900834918022156 0.5652255415916443 -0.7726540565490723 -0.11184670776128769 0.9250052571296692 -0.3631191849708557 -0.020582549273967743 0.9250054955482483 -0.37939608097076416 -0.0015770104946568608 0.6747844219207764 -0.7380132079124451 0.14224271476268768 0.6265401244163513 -0.766299307346344 -0.15434740483760834 0.4766906499862671 -0.8654149174690247 -0.9448714256286621 0.2754679322242737 -0.17701858282089233 -0.9430139064788818 0.28870266675949097 -0.16545522212982178 -0.7274551391601562 0.6686768531799316 -0.15388406813144684 -0.7274551391601562 0.6686767935752869 -0.15388409793376923 -0.35671719908714294 0.9100949764251709 -0.2109028398990631 -0.3481656014919281 0.9100949168205261 -0.22473952174186707 -0.46296659111976624 0.6686771512031555 -0.5818357467651367 -0.46296584606170654 0.668676495552063 -0.5818370580673218 -0.5697132349014282 0.2887064814567566 -0.7694644331932068 -0.5808907747268677 0.27546659111976624 -0.7659530639648438 -0.825730562210083 0.2402796894311905 -0.5103280544281006 -0.8257286548614502 0.24028229713439941 -0.5103298425674438 -0.7132747173309326 0.5448932647705078 -0.44082924723625183 -0.9561768174171448 -0.2927899956703186 0.0 -0.9465919137001038 -0.32242971658706665 0.0016759076388552785 -0.7068672180175781 -0.707345187664032 0.0012513647088781 -0.7074115872383118 -0.7068008184432983 0.0012119259918108582 -0.26793548464775085 -0.9634367823600769 0.00045885128201916814 -0.2773582935333252 -0.960766613483429 0.0 -0.1199047639966011 -0.9633868336677551 -0.2398095279932022 -0.12887945771217346 -0.957290768623352 -0.258813738822937 -0.31609997153282166 -0.7071320414543152 -0.6324911713600159 -0.3161289691925049 -0.7070629000663757 -0.6325540542602539 -0.4276983439922333 -0.29278290271759033 -0.8551914095878601 -0.42813998460769653 -0.288930743932724 -0.8562799692153931 0.031906817108392715 -0.9573506712913513 -0.28716132044792175 0.031137697398662567 -0.9592244625091553 -0.2809252440929413 0.07843223959207535 -0.7072331309318542 -0.702616274356842 0.07846134155988693 -0.7070059180259705 -0.7028417587280273 0.10634437948465347 -0.2892013490200043 -0.9513429999351501 0.10391257703304291 -0.3384951055049896 -0.9352129101753235 0.23094934225082397 -0.9592111110687256 -0.16302308440208435 0.21099644899368286 -0.9659303426742554 -0.14986412227153778 0.5769546627998352 -0.7065361738204956 -0.4097926914691925 0.5765500068664551 -0.7070165872573853 -0.40953341126441956 0.767211377620697 -0.3382328748703003 -0.5449634790420532 0.7889734506607056 -0.2595343291759491 -0.5569226145744324 0.13163036108016968 -0.9659460783004761 0.22275912761688232 0.13166359066963196 -0.9659277200698853 0.22281895577907562 0.3597520589828491 -0.7071078419685364 0.6087504029273987 0.35975560545921326 -0.7071004509925842 0.6087568998336792 0.49131348729133606 -0.25953397154808044 0.8314163684844971 0.49139490723609924 -0.25881826877593994 0.8315913081169128 0.014356312341988087 -0.9659276008605957 0.2584138810634613 0.015672853216528893 -0.9572882056236267 0.28871047496795654 0.038847774267196655 -0.7070576548576355 0.7060880064964294 0.038850463926792145 -0.7069888710975647 0.7061567902565002 0.05321761593222618 -0.2587951421737671 0.9644651412963867 0.05310310423374176 -0.2889971137046814 0.9558560848236084 -0.173398956656456 -0.9573296308517456 0.23119862377643585 -0.16596053540706635 -0.9608289003372192 0.22195711731910706 -0.4246308505535126 -0.7072992324829102 0.5651695132255554 -0.42485329508781433 -0.706951916217804 0.5654367804527283 -0.5753076076507568 -0.28947609663009644 0.7649998664855957 -0.567926824092865 -0.3225729465484619 0.7572357654571533 -0.2681153118610382 0.9633868932723999 0.0 -0.27761444449424744 0.9606924653053284 0.00047553604235872626 -0.7068750262260437 0.707337498664856 0.001210832386277616 -0.707421600818634 0.7067907452583313 0.0012521661119535565 -0.9561383128166199 0.29291072487831116 0.0016924053197726607 -0.9465459585189819 0.3225690424442291 0.0 -0.5743967890739441 0.2890039086341858 0.7658622860908508 -0.568916916847229 0.3224630653858185 0.7565389275550842 -0.42464157938957214 0.7073035836219788 0.5651558637619019 -0.42483705282211304 0.706956684589386 0.5654429197311401 -0.17318058013916016 0.9572861194610596 0.23154222965240479 -0.166417196393013 0.960765540599823 0.22188960015773773 0.05357993394136429 0.25881725549697876 0.9644390940666199 0.052738819271326065 0.2888599932193756 0.9559176564216614 0.03884664177894592 0.707057535648346 0.7060881853103638 0.038851648569107056 0.7069879174232483 0.7061576843261719 0.013999316841363907 0.965905487537384 0.25851622223854065 0.016030635684728622 0.9573301076889038 0.2885517179965973 0.49129727482795715 0.2595330476760864 0.8314261436462402 0.49141111969947815 0.25881868600845337 0.831581711769104 0.35975170135498047 0.7071080803871155 0.6087503433227539 0.35975590348243713 0.7071002125740051 0.6087568998336792 0.13162879645824432 0.9659460186958313 0.22276006639003754 0.1316653937101364 0.9659276604652405 0.22281841933727264 0.768741250038147 0.3384931683540344 -0.5426410436630249 0.7873389720916748 0.25947123765945435 -0.559260368347168 0.5769462585449219 0.7065301537513733 -0.40981486439704895 0.5765631794929504 0.7070167660713196 -0.4095146358013153 0.230877086520195 0.9590645432472229 -0.16398470103740692 0.2113848775625229 0.9659460783004761 -0.14921286702156067 0.10572156310081482 0.2889336943626404 -0.9514937400817871 0.10452456772327423 0.33843567967414856 -0.9351662993431091 0.07843601703643799 0.7072331309318542 -0.7026158571243286 0.07845750451087952 0.7070069909095764 -0.7028411030769348 0.031840529292821884 0.9573420882225037 -0.2871973216533661 0.031217938289046288 0.9592112898826599 -0.28096136450767517 -0.4276154339313507 0.29278847575187683 -0.8552308678627014 -0.42821842432022095 0.28896960616111755 -0.8562275171279907 -0.3160977363586426 0.7071325182914734 -0.6324917674064636 -0.31613147258758545 0.7070618271827698 -0.6325539946556091 -0.11938586831092834 0.9634397029876709 -0.23985613882541656 -0.1292126178741455 0.9573507308959961 -0.258425235748291 -0.6893302202224731 2.0759800634095882e-07 0.7244473099708557 -0.6893349289894104 -1.5802878579052049e-06 0.7244428396224976 -0.8944275379180908 -2.0504587610048475e-06 0.4472128450870514 -0.8944275379180908 -2.0504587610048475e-06 0.4472128450870514 -0.993155837059021 -2.2767915197619004e-06 0.1167970821261406 -0.9931548237800598 0.0 0.11680521816015244 -0.10014191269874573 0.0 0.9949731826782227 -0.10014597326517105 -1.1404797533032252e-06 0.994972825050354 -0.28978556394577026 -1.0970587709380197e-06 0.9570915699005127 -0.2897822856903076 0.0 0.9570925831794739 -0.4685879051685333 0.0 0.8834168910980225 -0.4685879051685333 0.0 0.8834168910980225 0.9393597841262817 -9.827116542737713e-08 -0.3429333567619324 0.9393596649169922 -4.9135607582684315e-08 -0.3429335057735443 0.9777770042419434 3.003838955351057e-08 0.2096477895975113 0.9777769446372986 -3.0038428633361036e-08 0.2096480429172516 0.7161933779716492 -9.999558159279331e-08 0.6979019045829773 0.7161933779716492 -9.999558159279331e-08 0.6979019045829773 0.19772754609584808 0.0 -0.9802570939064026 0.1977294534444809 -5.618057343781402e-07 -0.9802566170692444 0.5084602236747742 -4.935062634103815e-07 -0.8610854744911194 0.5084602236747742 -4.935062634103815e-07 -0.8610854744911194 0.762877345085144 -3.7054746826470364e-07 -0.6465431451797485 0.7628769874572754 -1.8527391887346312e-07 -0.6465437412261963 -0.3279591202735901 0.0 -0.9446919560432434 -0.32795849442481995 -1.8795992673403816e-07 -0.9446921348571777 -0.1755804866552353 -1.0062888122774893e-07 -0.9844650626182556 -0.17558081448078156 0.0 -0.9844650626182556 -0.018846964463591576 0.0 -0.9998223781585693 -0.018846964463591576 0.0 -0.9998223781585693 -0.9849544763565063 0.0 -0.17281383275985718 -0.9849544763565063 -4.952167742544589e-08 -0.1728140264749527 -0.8506515622138977 -1.5065349145970686e-07 -0.5257300734519958 -0.8506515622138977 -1.5065349145970686e-07 -0.5257300734519958 -0.5950518846511841 -2.303050621321745e-07 -0.8036872744560242 -0.5950525403022766 0.0 -0.803686797618866 -1.0 0.0 0.0 -1.0 0.0 0.0 0.0 -1.0 0.0 0.0 -1.0 0.0 0.0 -1.0 0.0 0.0 -1.0 0.0 0.0 -1.0 0.0 -0.6000000238418579 0.0 0.8000000715255737 -0.6000000238418579 2.0352314322735765e-07 0.7999999523162842 0.05547000840306282 0.0 0.9984604120254517 0.05547000840306282 0.0 0.9984604120254517 0.5087293386459351 -1.233537858524869e-07 0.8609265685081482 0.5087292790412903 0.0 0.8609265685081482 0.8169678449630737 -1.6525467572137131e-07 -0.5766832828521729 0.8169678449630737 -3.8916556377444067e-07 -0.5766832828521729 0.11043155938386917 0.0 -0.9938837289810181 0.11043155938386917 0.0 -0.9938837289810181 -0.4472135901451111 0.0 -0.8944271206855774 -0.4472135901451111 0.0 -0.8944271206855774 0.0 1.0 0.0 0.0 1.0 0.0 0.0 1.0 0.0 0.0 1.0 0.0 0.0 1.0 0.0</float_array><technique_common><accessor source="#mesh0-normals-array" count="300" stride="3"><param name="X" type="float" /><param name="Y" type="float" /><param name="Z" type="float" /></accessor></technique_common></source><vertices id="mesh0-vertices"><input semantic="POSITION" source="#mesh0-positions" /></vertices><triangles count="300" material="ivory"><input semantic="VERTEX" source="#mesh0-vertices" offset="0" /><input semantic="NORMAL" source="#mesh0-normals" offset="1" /><p>0 0 3 0 5 0 0 1 5 1 4 1 3 2 7 2 8 2 3 3 8 3 5 3 1 4 6 4 8 4 1 5 8 5 7 5 6 6 10 6 11 6 6 7 11 7 8 7 2 8 9 8 11 8 2 9 11 9 10 9 9 10 4 10 5 10 9 11 5 11 11 11 5 12 8 12 11 12 12 13 15 13 17 13 12 14 17 14 16 14 15 15 19 15 20 15 15 16 20 16 17 16 13 17 18 17 20 17 13 18 20 18 19 18 18 19 22 19 23 19 18 20 23 20 20 20 14 21 21 21 23 21 14 22 23 22 22 22 21 23 16 23 17 23 21 24 17 24 23 24 17 25 20 25 23 25 28 26 31 26 33 26 28 27 33 27 32 27 31 28 35 28 36 28 31 29 36 29 33 29 29 30 34 30 36 30 29 31 36 31 35 31 34 32 38 32 39 32 34 33 39 33 36 33 30 34 37 34 39 34 30 35 39 35 38 35 37 36 32 36 33 36 37 37 33 37 39 37 33 38 36 38 39 38 40 39 43 39 45 39 40 40 45 40 44 40 43 41 47 41 48 41 43 42 48 42 45 42 41 43 46 43 48 43 41 44 48 44 47 44 46 45 50 45 51 45 46 46 51 46 48 46 42 47 49 47 51 47 42 48 51 48 50 48 49 49 44 49 45 49 49 50 45 50 51 50 45 51 48 51 51 51 52 52 55 52 57 52 52 53 57 53 56 53 55 54 59 54 60 54 55 55 60 55 57 55 53 56 58 56 60 56 53 57 60 57 59 57 58 58 62 58 63 58 58 59 63 59 60 59 54 60 61 60 63 60 54 61 63 61 62 61 61 62 56 62 57 62 61 63 57 63 63 63 57 64 60 64 63 64 64 65 67 65 69 65 64 66 69 66 68 66 67 67 71 67 72 67 67 68 72 68 69 68 65 69 70 69 72 69 65 70 72 70 71 70 70 71 74 71 75 71 70 72 75 72 72 72 66 73 73 73 75 73 66 74 75 74 74 74 73 75 68 75 69 75 73 76 69 76 75 76 69 77 72 77 75 77 76 78 79 78 81 78 76 79 81 79 80 79 79 80 83 80 84 80 79 81 84 81 81 81 77 82 82 82 84 82 77 83 84 83 83 83 82 84 86 84 87 84 82 85 87 85 84 85 78 86 85 86 87 86 78 87 87 87 86 87 85 88 80 88 81 88 85 89 81 89 87 89 81 90 84 90 87 90 88 91 91 91 93 91 88 92 93 92 92 92 91 93 95 93 96 93 91 94 96 94 93 94 89 95 94 95 96 95 89 96 96 96 95 96 94 97 98 97 99 97 94 98 99 98 96 98 90 99 97 99 99 99 90 100 99 100 98 100 97 101 92 101 93 101 97 102 93 102 99 102 93 103 96 103 99 103 104 104 107 104 109 104 104 105 109 105 108 105 107 106 111 106 112 106 107 107 112 107 109 107 105 108 110 108 112 108 105 109 112 109 111 109 110 110 114 110 115 110 110 111 115 111 112 111 106 112 113 112 115 112 106 113 115 113 114 113 113 114 108 114 109 114 113 115 109 115 115 115 109 116 112 116 115 116 116 117 119 117 121 117 116 118 121 118 120 118 119 119 123 119 124 119 119 120 124 120 121 120 117 121 122 121 124 121 117 122 124 122 123 122 122 123 126 123 127 123 122 124 127 124 124 124 118 125 125 125 127 125 118 126 127 126 126 126 125 127 120 127 121 127 125 128 121 128 127 128 121 129 124 129 127 129 128 130 131 130 133 130 128 131 133 131 132 131 131 132 135 132 136 132 131 133 136 133 133 133 129 134 134 134 136 134 129 135 136 135 135 135 134 136 138 136 139 136 134 137 139 137 136 137 130 138 137 138 139 138 130 139 139 139 138 139 137 140 132 140 133 140 137 141 133 141 139 141 133 142 136 142 139 142 140 143 143 143 145 143 140 144 145 144 144 144 143 145 147 145 148 145 143 146 148 146 145 146 141 147 146 147 148 147 141 148 148 148 147 148 146 149 150 149 151 149 146 150 151 150 148 150 142 151 149 151 151 151 142 152 151 152 150 152 149 153 144 153 145 153 149 154 145 154 151 154 145 155 148 155 151 155 0 156 64 156 68 156 0 157 68 157 3 157 3 158 68 158 73 158 3 159 73 159 7 159 7 160 73 160 66 160 7 161 66 161 1 161 54 162 66 162 74 162 54 163 74 163 61 163 61 164 74 164 70 164 61 165 70 165 56 165 56 166 70 166 65 166 56 167 65 167 52 167 42 168 54 168 62 168 42 169 62 169 49 169 49 170 62 170 58 170 49 171 58 171 44 171 44 172 58 172 53 172 44 173 53 173 40 173 30 174 42 174 50 174 30 175 50 175 37 175 37 176 50 176 46 176 37 177 46 177 32 177 32 178 46 178 41 178 32 179 41 179 28 179 25 180 30 180 38 180 25 181 38 181 27 181 27 182 38 182 34 182 27 183 34 183 26 183 26 184 34 184 29 184 26 185 29 185 24 185 14 186 25 186 27 186 14 187 27 187 21 187 21 188 27 188 26 188 21 189 26 189 16 189 16 190 26 190 24 190 16 191 24 191 12 191 1 192 14 192 22 192 1 193 22 193 6 193 6 194 22 194 18 194 6 195 18 195 10 195 10 196 18 196 13 196 10 197 13 197 2 197 78 198 141 198 147 198 78 199 147 199 85 199 85 200 147 200 143 200 85 201 143 201 80 201 80 202 143 202 140 202 80 203 140 203 76 203 77 204 88 204 92 204 77 205 92 205 82 205 82 206 92 206 97 206 82 207 97 207 86 207 86 208 97 208 90 208 86 209 90 209 78 209 89 210 100 210 102 210 89 211 102 211 94 211 94 212 102 212 103 212 94 213 103 213 98 213 98 214 103 214 101 214 98 215 101 215 90 215 100 216 104 216 108 216 100 217 108 217 102 217 102 218 108 218 113 218 102 219 113 219 103 219 103 220 113 220 106 220 103 221 106 221 101 221 105 222 116 222 120 222 105 223 120 223 110 223 110 224 120 224 125 224 110 225 125 225 114 225 114 226 125 226 118 226 114 227 118 227 106 227 117 228 128 228 132 228 117 229 132 229 122 229 122 230 132 230 137 230 122 231 137 231 126 231 126 232 137 232 130 232 126 233 130 233 118 233 129 234 142 234 150 234 129 235 150 235 134 235 134 236 150 236 146 236 134 237 146 237 138 237 138 238 146 238 141 238 138 239 141 239 130 239 2 240 77 240 83 240 2 241 83 241 9 241 9 242 83 242 79 242 9 243 79 243 4 243 4 244 79 244 76 244 4 245 76 245 0 245 12 246 89 246 95 246 12 247 95 247 15 247 15 248 95 248 91 248 15 249 91 249 19 249 19 250 91 250 88 250 19 251 88 251 13 251 28 252 105 252 111 252 28 253 111 253 31 253 31 254 111 254 107 254 31 255 107 255 35 255 35 256 107 256 104 256 35 257 104 257 29 257 40 258 117 258 123 258 40 259 123 259 43 259 43 260 123 260 119 260 43 261 119 261 47 261 47 262 119 262 116 262 47 263 116 263 41 263 52 264 129 264 135 264 52 265 135 265 55 265 55 266 135 266 131 266 55 267 131 267 59 267 59 268 131 268 128 268 59 269 128 269 53 269 64 270 140 270 144 270 64 271 144 271 67 271 67 272 144 272 149 272 67 273 149 273 71 273 71 274 149 274 142 274 71 275 142 275 65 275 64 276 0 276 76 276 64 277 76 277 140 277 1 278 66 278 54 278 54 279 42 279 30 279 30 280 25 280 14 280 14 281 1 281 54 281 54 282 30 282 14 282 2 283 13 283 88 283 2 284 88 284 77 284 12 285 24 285 100 285 12 286 100 286 89 286 24 287 29 287 104 287 24 288 104 288 100 288 28 289 41 289 116 289 28 290 116 290 105 290 40 291 53 291 128 291 40 292 128 292 117 292 52 293 65 293 142 293 52 294 142 294 129 294 141 295 78 295 90 295 90 296 101 296 106 296 106 297 118 297 130 297 130 298 141 298 90 298 90 299 106 299 130 299</p></triangles></mesh></geometry><geometry id="mesh1"><mesh><source id="mesh1-positions"><float_array id="mesh1-array" count="456">-0.23000000417232513 0.1314999908208847 0.039000000804662704 -0.2240000069141388 0.12549999356269836 0.041999999433755875 -0.22519999742507935 0.1314999908208847 0.048600006848573685 -0.2289789617061615 0.1285039335489273 0.03929106146097183 -0.2295781672000885 0.1314999908208847 0.042586736381053925 -0.22857780754566193 0.12863072752952576 0.042738381773233414 -0.2243797481060028 0.126301571726799 0.04518594592809677 -0.2267766147851944 0.126301571726799 0.04039224237203598 -0.2270272821187973 0.12708020210266113 0.043513644486665726 -0.22781628370285034 0.1314999908208847 0.04611051082611084 -0.22482022643089294 0.1285039335489273 0.04760854318737984 -0.22733737528324127 0.12863072752952576 0.04521922394633293 -0.14400924742221832 0.1314999908208847 0.10466717928647995 -0.15480001270771027 0.1314999908208847 0.1013999953866005 -0.14814943075180054 0.12549999356269836 0.09888792783021927 -0.14763645827770233 0.1314999908208847 0.10430209338665009 -0.14527353644371033 0.1285584270954132 0.10384805500507355 -0.1482069492340088 0.128649041056633 0.10368067771196365 -0.1532936692237854 0.1285584270954132 0.10141973197460175 -0.15157948434352875 0.1314999908208847 0.103108249604702 -0.15076012909412384 0.128649041056633 0.10290762782096863 -0.14677122235298157 0.12638798356056213 0.10175745189189911 -0.1508878767490387 0.12638798356056213 0.10051101446151733 -0.14923512935638428 0.12705428898334503 0.10247378051280975 0.11999999731779099 0.1314999908208847 0.09000000357627869 0.11820680648088455 0.12549999356269836 0.08409037441015244 0.11975975334644318 0.12849998474121094 0.08920826762914658 0.11910340189933777 0.12630382180213928 0.08704520016908646 0.22653990983963013 0.1314999908208847 0.02009819634258747 0.22483444213867188 0.1314999908208847 0.028052376583218575 0.22134600579738617 0.12549999356269836 0.023144496604800224 0.22758276760578156 0.1314999908208847 0.022954780608415604 0.22584083676338196 0.1285039335489273 0.0205040592700243 0.226830393075943 0.12863072752952576 0.023245392367243767 0.22436322271823883 0.1285039335489273 0.027395591139793396 0.22695675492286682 0.1314999908208847 0.025874439626932144 0.22638966143131256 0.12863072752952576 0.025300920009613037 0.2239343672990799 0.126301571726799 0.02162223309278488 0.2230827510356903 0.126301571726799 0.025594105944037437 0.22548818588256836 0.12708020210266113 0.02403262071311474 0.16403670608997345 0.1314999908208847 -0.060662586241960526 0.17346009612083435 0.1314999908208847 -0.055098190903663635 0.16665475070476532 0.12549999356269836 -0.054334767162799835 0.16763068735599518 0.1314999908208847 -0.05993763729929924 0.16423249244689941 0.1285039335489273 -0.059556424617767334 0.16768881678581238 0.12863072752952576 -0.0588669627904892 0.1723969429731369 0.1285039335489273 -0.05473541095852852 0.17108963429927826 0.1314999908208847 -0.057895172387361526 0.17012402415275574 0.12863072752952576 -0.057429008185863495 0.16519346833229065 0.126301571726799 -0.05723373591899872 0.16989897191524506 0.126301571726799 -0.054455190896987915 0.16836537420749664 0.12708020210266113 -0.05723172053694725 -0.10536656528711319 0.1314999908208847 -0.08731672167778015 -0.09403669834136963 0.1314999908208847 -0.08933741599321365 -0.09890154004096985 0.12549999356269836 -0.08384102582931519 -0.10187474638223648 0.1314999908208847 -0.08852893859148026 -0.10376308113336563 0.12855905294418335 -0.08712611347436905 -0.10104422271251678 0.12864950299263 -0.08820923417806625 -0.09547542035579681 0.12855903804302216 -0.08860422670841217 -0.09773228317499161 0.1314999908208847 -0.08926775306463242 -0.09840109199285507 0.12864950299263 -0.08868065476417542 -0.10142329335212708 0.1263875663280487 -0.08586820960044861 -0.09723608195781708 0.1263875663280487 -0.08661500364542007 -0.09957072883844376 0.12705382704734802 -0.08759312331676483 -0.23000000417232513 0.1314999908208847 -0.01900000125169754 -0.22463344037532806 0.1314999908208847 -0.027683282271027565 -0.2240000069141388 0.12549999356269836 -0.02129179611802101 -0.22939887642860413 0.1314999908208847 -0.02242613211274147 -0.22908258438110352 0.1285039335489273 -0.019234582781791687 -0.22850321233272552 0.12863072752952576 -0.022524405270814896 -0.22443297505378723 0.1285039335489273 -0.02675781026482582 -0.22742903232574463 0.1314999908208847 -0.025613415986299515 -0.22711637616157532 0.12863072752952576 -0.024768346920609474 -0.22688022255897522 0.126301571726799 -0.020075807347893715 -0.22420045733451843 0.126301571726799 -0.024411750957369804 -0.2269526869058609 0.12708020210266113 -0.02311665192246437 -0.23000000417232513 0.1445000022649765 0.039000000804662704 -0.22519999742507935 0.1445000022649765 0.048600003123283386 -0.2240000069141388 0.15049999952316284 0.041999999433755875 -0.2295781970024109 0.1445000022649765 0.042586736381053925 -0.2289789915084839 0.1474960595369339 0.03929106518626213 -0.22857783734798431 0.14736926555633545 0.042738381773233414 -0.22482025623321533 0.1474960595369339 0.04760854318737984 -0.22781631350517273 0.1445000022649765 0.04611051082611084 -0.22733740508556366 0.14736926555633545 0.04521922394633293 -0.22677664458751678 0.1496984213590622 0.04039224237203598 -0.2243797779083252 0.1496984213590622 0.04518594592809677 -0.2270273119211197 0.14891979098320007 0.043513644486665726 -0.15480001270771027 0.1445000022649765 0.1013999953866005 -0.14400924742221832 0.1445000022649765 0.10466717928647995 -0.14814943075180054 0.15049999952316284 0.09888792783021927 -0.15157948434352875 0.1445000022649765 0.103108249604702 -0.1532936692237854 0.147441565990448 0.10141973197460175 -0.15076011419296265 0.1473509669303894 0.10290762782096863 -0.14527353644371033 0.147441565990448 0.10384804755449295 -0.14763645827770233 0.1445000022649765 0.10430210828781128 -0.1482069194316864 0.1473509669303894 0.10368067026138306 -0.1508878767490387 0.14961200952529907 0.10051102191209793 -0.14677122235298157 0.14961200952529907 0.10175745189189911 -0.14923512935638428 0.14894571900367737 0.10247377306222916 0.11999999731779099 0.1445000022649765 0.09000000357627869 0.11820680648088455 0.15049999952316284 0.08409037441015244 0.11975975334644318 0.14750000834465027 0.08920826762914658 0.11910340189933777 0.14969617128372192 0.08704520016908646 0.22483444213867188 0.1445000022649765 0.028052378445863724 0.22653990983963013 0.1445000022649765 0.020098192617297173 0.22134600579738617 0.15049999952316284 0.023144496604800224 0.22695675492286682 0.1445000022649765 0.025874441489577293 0.22436322271823883 0.1474960595369339 0.027395594865083694 0.22638966143131256 0.14736926555633545 0.025300920009613037 0.22584083676338196 0.1474960595369339 0.02050405740737915 0.22758276760578156 0.1445000022649765 0.022954778745770454 0.226830393075943 0.14736926555633545 0.023245392367243767 0.2230827510356903 0.1496984213590622 0.025594107806682587 0.2239343672990799 0.1496984213590622 0.02162223309278488 0.22548818588256836 0.14891979098320007 0.02403262071311474 0.17346009612083435 0.1445000022649765 -0.055098194628953934 0.16403670608997345 0.1445000022649765 -0.060662586241960526 0.16665475070476532 0.15049999952316284 -0.054334767162799835 0.17108963429927826 0.1445000022649765 -0.05789517983794212 0.1723969429731369 0.1474960595369339 -0.054735422134399414 0.17012402415275574 0.14736926555633545 -0.05742901191115379 0.16423249244689941 0.1474960595369339 -0.05955643206834793 0.16763068735599518 0.1445000022649765 -0.05993764474987984 0.16768881678581238 0.14736926555633545 -0.058866970241069794 0.16989897191524506 0.1496984213590622 -0.05445519834756851 0.16519346833229065 0.1496984213590622 -0.057233743369579315 0.16836537420749664 0.14891979098320007 -0.05723172798752785 -0.09403669834136963 0.1445000022649765 -0.08933741599321365 -0.10536656528711319 0.1445000022649765 -0.08731672167778015 -0.09890154004096985 0.15049999952316284 -0.08384102582931519 -0.09773228317499161 0.1445000022649765 -0.08926775306463242 -0.09547543525695801 0.14744095504283905 -0.08860421925783157 -0.09840109199285507 0.1473505198955536 -0.08868064731359482 -0.10376308858394623 0.14744095504283905 -0.08712611347436905 -0.10187475383281708 0.1445000022649765 -0.08852893859148026 -0.10104423016309738 0.1473505198955536 -0.08820924907922745 -0.09723608940839767 0.1496124267578125 -0.08661500364542007 -0.10142329335212708 0.1496124267578125 -0.08586820960044861 -0.09957073628902435 0.14894616603851318 -0.08759313076734543 -0.23000000417232513 0.1445000022649765 -0.01900000125169754 -0.2240000069141388 0.15049999952316284 -0.02129179611802101 -0.22463344037532806 0.1445000022649765 -0.027683282271027565 -0.22908258438110352 0.1474960744380951 -0.019234586507081985 -0.22939887642860413 0.1445000171661377 -0.02242613583803177 -0.22850321233272552 0.14736928045749664 -0.022524408996105194 -0.22420045733451843 0.1496984362602234 -0.024411754682660103 -0.22688022255897522 0.1496984362602234 -0.020075811073184013 -0.2269526869058609 0.14891980588436127 -0.02311665564775467 -0.22742903232574463 0.1445000171661377 -0.025613419711589813 -0.22443297505378723 0.1474960744380951 -0.02675781399011612 -0.22711637616157532 0.14736928045749664 -0.024768350645899773</float_array><technique_common><accessor source="#mesh1-array" count="152" stride="3"><param name="X" type="float" /><param name="Y" type="float" /><param name="Z" type="float" /></accessor></technique_common></source><source id="mesh1-normals"><float_array id="mesh1-normals-array" count="900">-0.9431067705154419 -0.3096384108066559 0.12113510817289352 -0.940267026424408 -0.32197654247283936 0.11058507114648819 -0.7297379970550537 -0.6748624444007874 0.10974133759737015 -0.729735255241394 -0.6748657822608948 0.10973890125751495 -0.38173145055770874 -0.906082808971405 0.18246914446353912 -0.3750132620334625 -0.9060828685760498 0.19590555131435394 -0.5256344676017761 -0.6748654842376709 0.5179430842399597 -0.5256332159042358 -0.6748640537261963 0.5179462432861328 -0.6526251435279846 -0.32198119163513184 0.6858634352684021 -0.6627752780914307 -0.30963534116744995 0.6818026304244995 -0.8594461679458618 -0.27693167328834534 0.4297221601009369 -0.8594430685043335 -0.27693626284599304 0.42972540855407715 -0.7427811026573181 -0.5570842027664185 0.37139391899108887 -0.09826059639453888 -0.19312681257724762 0.9762412309646606 -0.0627327635884285 -0.24261757731437683 0.9680916666984558 -0.28654953837394714 -0.14895297586917877 0.9464154839515686 -0.28655481338500977 -0.14894689619541168 0.9464149475097656 -0.48480895161628723 -0.24262751638889313 0.8402929306030273 -0.459765762090683 -0.1931312084197998 0.8667847514152527 -0.41109317541122437 -0.7001054286956787 0.5838277339935303 -0.39872831106185913 -0.5755276083946228 0.7139914631843567 -0.14616236090660095 -0.9230455756187439 0.35584208369255066 -0.07577357441186905 -0.9230456352233887 0.3771539032459259 -0.06291274726390839 -0.6695024967193604 0.7401408553123474 0.057026468217372894 -0.6255966424942017 0.7780596613883972 -0.2552531957626343 -0.47343355417251587 0.8430340886116028 0.9043223261833191 -0.27056851983070374 -0.3301423490047455 0.9129577279090881 -0.25606051087379456 -0.3177126348018646 0.951813817024231 -0.2289131134748459 0.204081192612648 0.9518138766288757 -0.22891317307949066 0.20408117771148682 0.7024542093276978 -0.25605762004852295 0.6640726923942566 0.6894799470901489 -0.27056795358657837 0.671870768070221 0.5345362424850464 -0.6991645097732544 0.4748052954673767 0.534538984298706 -0.6991623640060425 0.4748053550720215 0.3394405245780945 -0.9368847608566284 0.08382800221443176 0.34396985173225403 -0.9368847608566284 0.0627032220363617 0.6822077631950378 -0.699163556098938 -0.2139226794242859 0.6822078824043274 -0.6991633772850037 -0.21392305195331573 0.785990297794342 -0.5948261022567749 0.16852645576000214 0.18593546748161316 -0.340200811624527 -0.9217870831489563 0.1963498443365097 -0.3282938599586487 -0.923942506313324 0.48551997542381287 -0.29698213934898376 -0.8222358822822571 0.48551860451698303 -0.2969837188720703 -0.8222362995147705 0.7142321467399597 -0.32829368114471436 -0.6181389689445496 0.7173738479614258 -0.34019944071769714 -0.6079794764518738 0.5443387031555176 -0.6799171566963196 -0.4913330078125 0.5443378686904907 -0.6799198389053345 -0.4913301169872284 0.2224128693342209 -0.9051051735877991 -0.3623772859573364 0.20990686118602753 -0.9051051139831543 -0.36976197361946106 0.1673572063446045 -0.6799173355102539 -0.7139356136322021 0.16735786199569702 -0.6799176931381226 -0.713935136795044 0.4192315936088562 -0.5658413767814636 -0.7099778056144714 -0.3214961290359497 -0.19753850996494293 -0.9260770678520203 -0.35115382075309753 -0.24994176626205444 -0.9023414850234985 -0.17333301901817322 -0.15949967503547668 -0.9718618988990784 -0.17333795130252838 -0.15950575470924377 -0.9718600511550903 0.017561478540301323 -0.24994204938411713 -0.9681015014648438 -0.01847560703754425 -0.19753502309322357 -0.9801217317581177 0.08921115845441818 -0.7111565470695496 -0.6973505616188049 0.004072780255228281 -0.565217137336731 -0.8249321579933167 -0.020582588389515877 -0.9250054359436035 -0.3793960213661194 -0.111845962703228 -0.9250054955482483 -0.36311909556388855 -0.25364765524864197 -0.6747833490371704 -0.6930587291717529 -0.3983919322490692 -0.6265354156494141 -0.6698785424232483 -0.15435324609279633 -0.47668319940567017 -0.8654179573059082 -0.9430140256881714 -0.28870266675949097 -0.1654554009437561 -0.9448713660240173 -0.2754681408405304 -0.17701859772205353 -0.82573002576828 -0.2402818202972412 -0.5103277564048767 -0.8257293701171875 -0.24027924239635468 -0.5103302597999573 -0.5808907151222229 -0.27546748518943787 -0.7659527659416199 -0.569713830947876 -0.2887064218521118 -0.7694639563560486 -0.4629656970500946 -0.6686775088310242 -0.5818360447883606 -0.4629671573638916 -0.6686761379241943 -0.5818365216255188 -0.34816592931747437 -0.9100949168205261 -0.22473952174186707 -0.3567172884941101 -0.9100949168205261 -0.2109030783176422 -0.7274551391601562 -0.6686768531799316 -0.15388409793376923 -0.727455198764801 -0.6686768531799316 -0.15388406813144684 -0.7132747173309326 -0.5448933243751526 -0.44082924723625183 -0.9402677416801453 0.3219771683216095 0.11057733744382858 -0.9431095719337463 0.3096298277378082 0.12113524973392487 -0.8594452142715454 0.27693548798561096 0.4297216832637787 -0.8594444394111633 0.27693089842796326 0.42972609400749207 -0.6627766489982605 0.3096287250518799 0.6818044185638428 -0.6526205539703369 0.32198163866996765 0.6858674883842468 -0.5256325602531433 0.674866259098053 0.5179440975189209 -0.5256359577178955 0.6748629212379456 0.5179448127746582 -0.3750099241733551 0.9060840606689453 0.1959061473608017 -0.3817299008369446 0.9060841202735901 0.18246611952781677 -0.7297375798225403 0.6748632192611694 0.10973922908306122 -0.729735791683197 0.6748647689819336 0.10974210500717163 -0.7427811026573181 0.5570842027664185 0.37139391899108887 -0.45976561307907104 0.19313256442546844 0.8667845129966736 -0.48480796813964844 0.24262699484825134 0.8402937054634094 -0.28655263781547546 0.148956760764122 0.946414053440094 -0.2865504324436188 0.14895392954349518 0.9464151263237 -0.06273220479488373 0.2426200658082962 0.9680909514427185 -0.09825646132230759 0.19313503801822662 0.9762399792671204 0.01819940283894539 0.7001055479049683 0.7138074040412903 -0.06429330259561539 0.5755248665809631 0.8152530193328857 -0.07577461004257202 0.9230467677116394 0.3771510124206543 -0.14615854620933533 0.9230466485023499 0.3558405935764313 -0.3582160770893097 0.6695024371147156 0.6507286429405212 -0.4790400266647339 0.6255984902381897 0.6157492399215698 -0.25524982810020447 0.4734323024749756 0.8430358171463013 0.6894798874855042 0.2705683708190918 0.6718707084655762 0.7024549245834351 0.2560572028160095 0.6640721559524536 0.9518139958381653 0.2289130687713623 0.2040809690952301 0.9518139362335205 0.22891327738761902 0.204081192612648 0.9129577279090881 0.2560606896877289 -0.3177124261856079 0.9043222665786743 0.27056869864463806 -0.33014214038848877 0.6822076439857483 0.6991636753082275 -0.21392281353473663 0.6822080612182617 0.6991633176803589 -0.2139226198196411 0.3439698815345764 0.9368848204612732 0.06270314007997513 0.3394404649734497 0.9368847608566284 0.08382799476385117 0.5345380902290344 0.6991643905639648 0.47480344772338867 0.5345371961593628 0.6991626024246216 0.4748069941997528 0.7859904170036316 0.5948261022567749 0.16852647066116333 0.7173740267753601 0.34020018577575684 -0.607978880405426 0.7142317295074463 0.3282921314239502 -0.6181402206420898 0.48551979660987854 0.29698342084884644 -0.8222355246543884 0.4855195879936218 0.2969830632209778 -0.8222358822822571 0.19634993374347687 0.32829180359840393 -0.9239433407783508 0.18593361973762512 0.3402009606361389 -0.921787440776825 0.16735774278640747 0.6799171566963196 -0.7139356732368469 0.16735710203647614 0.6799179315567017 -0.7139350175857544 0.20990613102912903 0.9051054120063782 -0.3697616159915924 0.22241295874118805 0.905105471611023 -0.36237648129463196 0.544338583946228 0.6799178123474121 -0.491332083940506 0.5443373918533325 0.6799184679985046 -0.49133265018463135 0.4192326068878174 0.5658407807350159 -0.7099776864051819 -0.018475597724318504 0.19753548502922058 -0.9801215529441833 0.01756398193538189 0.24994558095932007 -0.9681005477905273 -0.17333276569843292 0.15949775278568268 -0.971862256526947 -0.17332962155342102 0.15950140357017517 -0.971862256526947 -0.3511591851711273 0.24994240701198578 -0.9023392796516418 -0.3214971721172333 0.1975320279598236 -0.9260781407356262 -0.32478973269462585 0.7111576795578003 -0.6235113739967346 -0.28900855779647827 0.5652248859405518 -0.7726545333862305 -0.11184518039226532 0.9250057339668274 -0.3631184697151184 -0.02058333531022072 0.9250056743621826 -0.37939515709877014 -0.0015790618490427732 0.6747874021530151 -0.7380105257034302 0.14224672317504883 0.626541793346405 -0.7662972211837769 -0.15434525907039642 0.4766882658004761 -0.8654165863990784 -0.9448717832565308 0.2754666805267334 -0.17701859772205353 -0.9430141448974609 0.2887027859687805 -0.16545401513576508 -0.7274551391601562 0.6686768531799316 -0.15388406813144684 -0.7274551391601562 0.6686767935752869 -0.15388409793376923 -0.35671576857566833 0.9100964069366455 -0.21089895069599152 -0.3481615483760834 0.9100963473320007 -0.22473999857902527 -0.46296659111976624 0.6686771512031555 -0.5818357467651367 -0.46296584606170654 0.668676495552063 -0.5818370580673218 -0.5697121620178223 0.28870657086372375 -0.7694651484489441 -0.580890953540802 0.27546533942222595 -0.7659534215927124 -0.825730562210083 0.2402796894311905 -0.5103280544281006 -0.8257286548614502 0.24028229713439941 -0.5103298425674438 -0.7132747173309326 0.5448932647705078 -0.44082924723625183 -0.9561768174171448 -0.2927899956703186 0.0 -0.9465914964675903 -0.32243117690086365 0.0016759891295805573 -0.7068671584129333 -0.707345187664032 0.0012515446869656444 -0.7074116468429565 -0.7068008184432983 0.001212100381962955 -0.2679353654384613 -0.9634367823600769 0.000459088507341221 -0.2773630619049072 -0.9607652425765991 0.0 -0.1199047639966011 -0.9633868336677551 -0.2398095279932022 -0.12887945771217346 -0.957290768623352 -0.258813738822937 -0.31609997153282166 -0.7071320414543152 -0.6324911713600159 -0.31613001227378845 -0.7070604562759399 -0.6325562596321106 -0.4276983439922333 -0.29278290271759033 -0.8551914095878601 -0.4281397759914398 -0.28893205523490906 -0.8562795519828796 0.03190681338310242 -0.9573506712913513 -0.287161260843277 0.031137732788920403 -0.9592243432998657 -0.28092554211616516 0.07843182981014252 -0.7072369456291199 -0.7026125192642212 0.07846134155988693 -0.7070065140724182 -0.7028411626815796 0.1063445433974266 -0.28919729590415955 -0.9513441920280457 0.10391257703304291 -0.3384951055049896 -0.9352129101753235 0.23094934225082397 -0.9592111110687256 -0.16302308440208435 0.21099644899368286 -0.9659303426742554 -0.14986412227153778 0.5769546627998352 -0.7065361738204956 -0.4097926914691925 0.5765500068664551 -0.7070165872573853 -0.40953341126441956 0.767211377620697 -0.3382328748703003 -0.5449634790420532 0.7889734506607056 -0.2595343291759491 -0.5569226145744324 0.13163036108016968 -0.9659460783004761 0.22275912761688232 0.13166359066963196 -0.9659277200698853 0.22281895577907562 0.3597520589828491 -0.7071078419685364 0.6087504029273987 0.35975560545921326 -0.7071004509925842 0.6087568998336792 0.49131348729133606 -0.25953397154808044 0.8314163684844971 0.49139490723609924 -0.25881826877593994 0.8315913081169128 0.014356312341988087 -0.9659276008605957 0.2584138810634613 0.015672853216528893 -0.9572882056236267 0.28871047496795654 0.038847774267196655 -0.7070576548576355 0.7060880064964294 0.038850463926792145 -0.7069888710975647 0.7061567902565002 0.05321761593222618 -0.2587951421737671 0.9644651412963867 0.05310310423374176 -0.2889971137046814 0.9558560848236084 -0.173398956656456 -0.9573296308517456 0.23119862377643585 -0.1659635752439499 -0.9608275294303894 0.2219609022140503 -0.42463091015815735 -0.7072992324829102 0.5651694536209106 -0.4248533844947815 -0.7069518566131592 0.5654367804527283 -0.5753076076507568 -0.28947609663009644 0.7649998068809509 -0.5679264664649963 -0.3225743770599365 0.7572352886199951 -0.2681106626987457 0.9633881449699402 0.0 -0.277614563703537 0.9606924653053284 0.00047577303485013545 -0.7068749070167542 0.7073375582695007 0.0012110065435990691 -0.7074216604232788 0.7067906856536865 0.001252346090041101 -0.9561386704444885 0.2929093837738037 0.001692480407655239 -0.9465459585189819 0.3225690424442291 0.0 -0.5743967890739441 0.2890039086341858 0.7658622860908508 -0.568916916847229 0.3224630653858185 0.7565389275550842 -0.42464157938957214 0.7073035836219788 0.5651558637619019 -0.42483705282211304 0.706956684589386 0.5654429197311401 -0.17318058013916016 0.9572861194610596 0.23154222965240479 -0.166417196393013 0.960765540599823 0.22188960015773773 0.05357993394136429 0.25881725549697876 0.9644390940666199 0.052738819271326065 0.2888599932193756 0.9559176564216614 0.03884664177894592 0.707057535648346 0.7060881853103638 0.038851648569107056 0.7069879174232483 0.7061576843261719 0.013999316841363907 0.965905487537384 0.25851622223854065 0.016030635684728622 0.9573301076889038 0.2885517179965973 0.49129727482795715 0.2595330476760864 0.8314261436462402 0.49141111969947815 0.25881868600845337 0.831581711769104 0.35975170135498047 0.7071080803871155 0.6087503433227539 0.35975590348243713 0.7071002125740051 0.6087568998336792 0.13162879645824432 0.9659460186958313 0.22276006639003754 0.1316653937101364 0.9659276604652405 0.22281841933727264 0.768741250038147 0.3384931683540344 -0.5426410436630249 0.7873389720916748 0.25947123765945435 -0.559260368347168 0.5769462585449219 0.7065301537513733 -0.40981486439704895 0.5765631794929504 0.7070167660713196 -0.4095146358013153 0.230877086520195 0.9590645432472229 -0.16398470103740692 0.2113848775625229 0.9659460783004761 -0.14921286702156067 0.10572158545255661 0.2889328598976135 -0.9514939785003662 0.10452456772327423 0.33843564987182617 -0.9351662397384644 0.07843563705682755 0.7072369456291199 -0.7026121616363525 0.07845743745565414 0.7070072293281555 -0.7028408646583557 0.03184061869978905 0.9573418498039246 -0.2871982455253601 0.031217938289046288 0.9592112898826599 -0.28096136450767517 -0.4276156425476074 0.2927871644496918 -0.8552312850952148 -0.4282185435295105 0.2889682650566101 -0.8562278151512146 -0.3160977363586426 0.7071325182914734 -0.6324917674064636 -0.3161303400993347 0.7070642113685608 -0.632551908493042 -0.11938367784023285 0.9634409546852112 -0.23985201120376587 -0.1292126178741455 0.9573507308959961 -0.258425235748291 -0.6893302202224731 2.0759800634095882e-07 0.7244473099708557 -0.6893349289894104 -1.5802895632077707e-06 0.7244428396224976 -0.8944275975227356 -2.0504612621152773e-06 0.4472128450870514 -0.8944275975227356 -2.0504612621152773e-06 0.4472128450870514 -0.993155837059021 -2.2767942482460057e-06 0.11679708957672119 -0.9931548237800598 0.0 0.11680521816015244 -0.10014191269874573 0.0 0.9949731826782227 -0.10014597326517105 -1.1404797533032252e-06 0.994972825050354 -0.28978556394577026 -1.0970587709380197e-06 0.9570915699005127 -0.2897822856903076 0.0 0.9570925831794739 -0.4685879051685333 0.0 0.8834168910980225 -0.4685879051685333 0.0 0.8834168910980225 0.9393597841262817 -9.827116542737713e-08 -0.3429333567619324 0.9393596649169922 -4.9135607582684315e-08 -0.3429335057735443 0.9777770042419434 3.003838955351057e-08 0.2096477895975113 0.9777769446372986 -3.0038428633361036e-08 0.2096480429172516 0.7161933779716492 -9.999558159279331e-08 0.6979019045829773 0.7161933779716492 -9.999558159279331e-08 0.6979019045829773 0.19772754609584808 0.0 -0.9802570939064026 0.1977294534444809 -5.618057343781402e-07 -0.9802566170692444 0.5084602236747742 -4.935062634103815e-07 -0.8610854744911194 0.5084602236747742 -4.935062634103815e-07 -0.8610854744911194 0.762877345085144 -3.7054746826470364e-07 -0.6465431451797485 0.7628769874572754 -1.8527391887346312e-07 -0.6465437412261963 -0.3279591202735901 0.0 -0.9446919560432434 -0.32795849442481995 -1.8795992673403816e-07 -0.9446921348571777 -0.1755804866552353 -1.0062888122774893e-07 -0.9844650626182556 -0.17558081448078156 0.0 -0.9844650626182556 -0.018846964463591576 0.0 -0.9998223781585693 -0.018846964463591576 0.0 -0.9998223781585693 -0.9849544763565063 0.0 -0.17281383275985718 -0.9849544763565063 -4.9521620582027026e-08 -0.1728140264749527 -0.8506514430046082 -1.5065330671859556e-07 -0.5257300138473511 -0.8506514430046082 -1.5065330671859556e-07 -0.5257300138473511 -0.5950518846511841 -2.303047779150802e-07 -0.8036872148513794 -0.5950525403022766 0.0 -0.803686797618866 -1.0 0.0 0.0 -1.0 0.0 0.0 0.0 -1.0 0.0 0.0 -1.0 0.0 0.0 -1.0 0.0 0.0 -1.0 0.0 0.0 -1.0 0.0 -0.6000000238418579 0.0 0.8000000715255737 -0.6000000238418579 2.0352314322735765e-07 0.7999999523162842 0.05547000840306282 0.0 0.9984604120254517 0.05547000840306282 0.0 0.9984604120254517 0.5087293386459351 -1.233537858524869e-07 0.8609265685081482 0.5087292790412903 0.0 0.8609265685081482 0.8169678449630737 -1.6525467572137131e-07 -0.5766832828521729 0.8169678449630737 -3.8916556377444067e-07 -0.5766832828521729 0.11043155938386917 0.0 -0.9938837289810181 0.11043155938386917 0.0 -0.9938837289810181 -0.4472135901451111 0.0 -0.8944271206855774 -0.4472135901451111 0.0 -0.8944271206855774 0.0 1.0 0.0 0.0 1.0 0.0 0.0 1.0 0.0 0.0 1.0 0.0 0.0 1.0 0.0</float_array><technique_common><accessor source="#mesh1-normals-array" count="300" stride="3"><param name="X" type="float" /><param name="Y" type="float" /><param name="Z" type="float" /></accessor></technique_common></source><vertices id="mesh1-vertices"><input semantic="POSITION" source="#mesh1-positions" /></vertices><triangles count="300" material="ivory"><input semantic="VERTEX" source="#mesh1-vertices" offset="0" /><input semantic="NORMAL" source="#mesh1-normals" offset="1" /><p>0 0 3 0 5 0 0 1 5 1 4 1 3 2 7 2 8 2 3 3 8 3 5 3 1 4 6 4 8 4 1 5 8 5 7 5 6 6 10 6 11 6 6 7 11 7 8 7 2 8 9 8 11 8 2 9 11 9 10 9 9 10 4 10 5 10 9 11 5 11 11 11 5 12 8 12 11 12 12 13 15 13 17 13 12 14 17 14 16 14 15 15 19 15 20 15 15 16 20 16 17 16 13 17 18 17 20 17 13 18 20 18 19 18 18 19 22 19 23 19 18 20 23 20 20 20 14 21 21 21 23 21 14 22 23 22 22 22 21 23 16 23 17 23 21 24 17 24 23 24 17 25 20 25 23 25 28 26 31 26 33 26 28 27 33 27 32 27 31 28 35 28 36 28 31 29 36 29 33 29 29 30 34 30 36 30 29 31 36 31 35 31 34 32 38 32 39 32 34 33 39 33 36 33 30 34 37 34 39 34 30 35 39 35 38 35 37 36 32 36 33 36 37 37 33 37 39 37 33 38 36 38 39 38 40 39 43 39 45 39 40 40 45 40 44 40 43 41 47 41 48 41 43 42 48 42 45 42 41 43 46 43 48 43 41 44 48 44 47 44 46 45 50 45 51 45 46 46 51 46 48 46 42 47 49 47 51 47 42 48 51 48 50 48 49 49 44 49 45 49 49 50 45 50 51 50 45 51 48 51 51 51 52 52 55 52 57 52 52 53 57 53 56 53 55 54 59 54 60 54 55 55 60 55 57 55 53 56 58 56 60 56 53 57 60 57 59 57 58 58 62 58 63 58 58 59 63 59 60 59 54 60 61 60 63 60 54 61 63 61 62 61 61 62 56 62 57 62 61 63 57 63 63 63 57 64 60 64 63 64 64 65 67 65 69 65 64 66 69 66 68 66 67 67 71 67 72 67 67 68 72 68 69 68 65 69 70 69 72 69 65 70 72 70 71 70 70 71 74 71 75 71 70 72 75 72 72 72 66 73 73 73 75 73 66 74 75 74 74 74 73 75 68 75 69 75 73 76 69 76 75 76 69 77 72 77 75 77 76 78 79 78 81 78 76 79 81 79 80 79 79 80 83 80 84 80 79 81 84 81 81 81 77 82 82 82 84 82 77 83 84 83 83 83 82 84 86 84 87 84 82 85 87 85 84 85 78 86 85 86 87 86 78 87 87 87 86 87 85 88 80 88 81 88 85 89 81 89 87 89 81 90 84 90 87 90 88 91 91 91 93 91 88 92 93 92 92 92 91 93 95 93 96 93 91 94 96 94 93 94 89 95 94 95 96 95 89 96 96 96 95 96 94 97 98 97 99 97 94 98 99 98 96 98 90 99 97 99 99 99 90 100 99 100 98 100 97 101 92 101 93 101 97 102 93 102 99 102 93 103 96 103 99 103 104 104 107 104 109 104 104 105 109 105 108 105 107 106 111 106 112 106 107 107 112 107 109 107 105 108 110 108 112 108 105 109 112 109 111 109 110 110 114 110 115 110 110 111 115 111 112 111 106 112 113 112 115 112 106 113 115 113 114 113 113 114 108 114 109 114 113 115 109 115 115 115 109 116 112 116 115 116 116 117 119 117 121 117 116 118 121 118 120 118 119 119 123 119 124 119 119 120 124 120 121 120 117 121 122 121 124 121 117 122 124 122 123 122 122 123 126 123 127 123 122 124 127 124 124 124 118 125 125 125 127 125 118 126 127 126 126 126 125 127 120 127 121 127 125 128 121 128 127 128 121 129 124 129 127 129 128 130 131 130 133 130 128 131 133 131 132 131 131 132 135 132 136 132 131 133 136 133 133 133 129 134 134 134 136 134 129 135 136 135 135 135 134 136 138 136 139 136 134 137 139 137 136 137 130 138 137 138 139 138 130 139 139 139 138 139 137 140 132 140 133 140 137 141 133 141 139 141 133 142 136 142 139 142 140 143 143 143 145 143 140 144 145 144 144 144 143 145 147 145 148 145 143 146 148 146 145 146 141 147 146 147 148 147 141 148 148 148 147 148 146 149 150 149 151 149 146 150 151 150 148 150 142 151 149 151 151 151 142 152 151 152 150 152 149 153 144 153 145 153 149 154 145 154 151 154 145 155 148 155 151 155 0 156 64 156 68 156 0 157 68 157 3 157 3 158 68 158 73 158 3 159 73 159 7 159 7 160 73 160 66 160 7 161 66 161 1 161 54 162 66 162 74 162 54 163 74 163 61 163 61 164 74 164 70 164 61 165 70 165 56 165 56 166 70 166 65 166 56 167 65 167 52 167 42 168 54 168 62 168 42 169 62 169 49 169 49 170 62 170 58 170 49 171 58 171 44 171 44 172 58 172 53 172 44 173 53 173 40 173 30 174 42 174 50 174 30 175 50 175 37 175 37 176 50 176 46 176 37 177 46 177 32 177 32 178 46 178 41 178 32 179 41 179 28 179 25 180 30 180 38 180 25 181 38 181 27 181 27 182 38 182 34 182 27 183 34 183 26 183 26 184 34 184 29 184 26 185 29 185 24 185 14 186 25 186 27 186 14 187 27 187 21 187 21 188 27 188 26 188 21 189 26 189 16 189 16 190 26 190 24 190 16 191 24 191 12 191 1 192 14 192 22 192 1 193 22 193 6 193 6 194 22 194 18 194 6 195 18 195 10 195 10 196 18 196 13 196 10 197 13 197 2 197 78 198 141 198 147 198 78 199 147 199 85 199 85 200 147 200 143 200 85 201 143 201 80 201 80 202 143 202 140 202 80 203 140 203 76 203 77 204 88 204 92 204 77 205 92 205 82 205 82 206 92 206 97 206 82 207 97 207 86 207 86 208 97 208 90 208 86 209 90 209 78 209 89 210 100 210 102 210 89 211 102 211 94 211 94 212 102 212 103 212 94 213 103 213 98 213 98 214 103 214 101 214 98 215 101 215 90 215 100 216 104 216 108 216 100 217 108 217 102 217 102 218 108 218 113 218 102 219 113 219 103 219 103 220 113 220 106 220 103 221 106 221 101 221 105 222 116 222 120 222 105 223 120 223 110 223 110 224 120 224 125 224 110 225 125 225 114 225 114 226 125 226 118 226 114 227 118 227 106 227 117 228 128 228 132 228 117 229 132 229 122 229 122 230 132 230 137 230 122 231 137 231 126 231 126 232 137 232 130 232 126 233 130 233 118 233 129 234 142 234 150 234 129 235 150 235 134 235 134 236 150 236 146 236 134 237 146 237 138 237 138 238 146 238 141 238 138 239 141 239 130 239 2 240 77 240 83 240 2 241 83 241 9 241 9 242 83 242 79 242 9 243 79 243 4 243 4 244 79 244 76 244 4 245 76 245 0 245 12 246 89 246 95 246 12 247 95 247 15 247 15 248 95 248 91 248 15 249 91 249 19 249 19 250 91 250 88 250 19 251 88 251 13 251 28 252 105 252 111 252 28 253 111 253 31 253 31 254 111 254 107 254 31 255 107 255 35 255 35 256 107 256 104 256 35 257 104 257 29 257 40 258 117 258 123 258 40 259 123 259 43 259 43 260 123 260 119 260 43 261 119 261 47 261 47 262 119 262 116 262 47 263 116 263 41 263 52 264 129 264 135 264 52 265 135 265 55 265 55 266 135 266 131 266 55 267 131 267 59 267 59 268 131 268 128 268 59 269 128 269 53 269 64 270 140 270 144 270 64 271 144 271 67 271 67 272 144 272 149 272 67 273 149 273 71 273 71 274 149 274 142 274 71 275 142 275 65 275 64 276 0 276 76 276 64 277 76 277 140 277 1 278 66 278 54 278 54 279 42 279 30 279 30 280 25 280 14 280 14 281 1 281 54 281 54 282 30 282 14 282 2 283 13 283 88 283 2 284 88 284 77 284 12 285 24 285 100 285 12 286 100 286 89 286 24 287 29 287 104 287 24 288 104 288 100 288 28 289 41 289 116 289 28 290 116 290 105 290 40 291 53 291 128 291 40 292 128 292 117 292 52 293 65 293 142 293 52 294 142 294 129 294 141 295 78 295 90 295 90 296 101 296 106 296 106 297 118 297 130 297 130 298 141 298 90 298 90 299 106 299 130 299</p></triangles></mesh></geometry></library_geometries><library_visual_scenes><visual_scene id="Scene"><node id="mesh0-node"><instance_geometry url="#mesh0"><bind_material><technique_common><instance_material symbol="ivory" target="#ivory" /></technique_common></bind_material></instance_geometry></node><node id="mesh1-node"><instance_geometry url="#mesh1"><bind_material><technique_common><instance_material symbol="ivory" target="#ivory" /></technique_common></bind_material></instance_geometry></node></visual_scene></library_visual_scenes><scene><instance_visual_scene url="#Scene" /></scene></COLLADA>