<?xml version='1.0' encoding='utf-8'?>
<COLLADA xmlns="http://www.collada.org/2005/11/COLLADASchema" version="1.4.1"><asset><unit name="meter" meter="1" /><up_axis>Z_UP</up_axis></asset><library_effects><effect id="graphite-fx"><profile_COMMON><technique sid="common"><phong><emission><color>0 0 0 1</color></emission><ambient><color>0.065 0.075 0.085 1</color></ambient><diffuse><color>0.065 0.075 0.085 1</color></diffuse><specular><color>0.12 0.12 0.12 1</color></specular><shininess><float>25</float></shininess></phong></technique></profile_COMMON></effect><effect id="titanium-fx"><profile_COMMON><technique sid="common"><phong><emission><color>0 0 0 1</color></emission><ambient><color>0.36 0.4 0.43 1</color></ambient><diffuse><color>0.36 0.4 0.43 1</color></diffuse><specular><color>0.12 0.12 0.12 1</color></specular><shininess><float>25</float></shininess></phong></technique></profile_COMMON></effect><effect id="ivory-fx"><profile_COMMON><technique sid="common"><phong><emission><color>0 0 0 1</color></emission><ambient><color>0.72 0.72 0.65 1</color></ambient><diffuse><color>0.72 0.72 0.65 1</color></diffuse><specular><color>0.12 0.12 0.12 1</color></specular><shininess><float>25</float></shininess></phong></technique></profile_COMMON></effect><effect id="copper-fx"><profile_COMMON><technique sid="common"><phong><emission><color>0 0 0 1</color></emission><ambient><color>0.66 0.29 0.08 1</color></ambient><diffuse><color>0.66 0.29 0.08 1</color></diffuse><specular><color>0.12 0.12 0.12 1</color></specular><shininess><float>25</float></shininess></phong></technique></profile_COMMON></effect><effect id="rubber-fx"><profile_COMMON><technique sid="common"><phong><emission><color>0 0 0 1</color></emission><ambient><color>0.025 0.028 0.032 1</color></ambient><diffuse><color>0.025 0.028 0.032 1</color></diffuse><specular><color>0.12 0.12 0.12 1</color></specular><shininess><float>25</float></shininess></phong></technique></profile_COMMON></effect><effect id="lens-fx"><profile_COMMON><technique sid="common"><phong><emission><color>0 0 0 1</color></emission><ambient><color>0.05 0.26 0.33 1</color></ambient><diffuse><color>0.05 0.26 0.33 1</color></diffuse><specular><color>0.12 0.12 0.12 1</color></specular><shininess><float>25</float></shininess></phong></technique></profile_COMMON></effect></library_effects><library_materials><material id="graphite"><instance_effect url="#graphite-fx" /></material><material id="titanium"><instance_effect url="#titanium-fx" /></material><material id="ivory"><instance_effect url="#ivory-fx" /></material><material id="copper"><instance_effect url="#copper-fx" /></material><material id="rubber"><instance_effect url="#rubber-fx" /></material><material id="lens"><instance_effect url="#lens-fx" /></material></library_materials><library_geometries><geometry id="mesh0"><mesh><source id="mesh0-positions"><float_array id="mesh0-array" count="144">-4.451357060730743e-09 -0.07300000637769699 0.02948000468313694 -4.451357060730743e-09 -0.05500000715255737 0.02948000095784664 -0.007629991043359041 -0.07300000637769699 0.02847549505531788 -0.007629991043359041 -0.05500000715255737 0.02847549319267273 -0.014740006998181343 -0.07300000637769699 0.025530429556965828 -0.014740006998181343 -0.05500000715255737 0.02553042769432068 -0.02084551565349102 -0.07300000637769699 0.020845506340265274 -0.02084551565349102 -0.05500000715255737 0.020845504477620125 -0.025530435144901276 -0.07300000637769699 0.014739998616278172 -0.025530435144901276 -0.05500000715255737 0.014739996753633022 -0.028475500643253326 -0.07300000637769699 0.00762998266145587 -0.028475500643253326 -0.05500000715255737 0.007629980333149433 -0.02948000654578209 -0.0729999989271164 -3.2421276774385888e-09 -0.02948000654578209 -0.055000003427267075 -5.660586666067502e-09 -0.028475496917963028 -0.0729999989271164 -0.007629989180713892 -0.028475496917963028 -0.055000003427267075 -0.0076299915090203285 -0.025530431419610977 -0.0729999989271164 -0.01474000420421362 -0.025530431419610977 -0.055000003427267075 -0.014740006066858768 -0.020845508202910423 -0.0729999989271164 -0.020845510065555573 -0.020845508202910423 -0.054999999701976776 -0.020845511928200722 -0.014739999547600746 -0.0729999989271164 -0.025530433282256126 -0.014739999547600746 -0.054999999701976776 -0.025530435144901276 -0.00762998266145587 -0.0729999989271164 -0.02847549505531788 -0.00762998266145587 -0.054999999701976776 -0.028475496917963028 4.451357060730743e-09 -0.0729999989271164 -0.02948000095784664 4.451357060730743e-09 -0.054999999701976776 -0.02948000468313694 0.007629991043359041 -0.0729999989271164 -0.02847549319267273 0.007629991043359041 -0.054999999701976776 -0.02847549505531788 0.014740006998181343 -0.0729999989271164 -0.02553042769432068 0.014740006998181343 -0.054999999701976776 -0.025530429556965828 0.02084551565349102 -0.0729999989271164 -0.020845504477620125 0.02084551565349102 -0.054999999701976776 -0.020845506340265274 0.025530435144901276 -0.0729999989271164 -0.014739996753633022 0.025530435144901276 -0.055000003427267075 -0.014739998616278172 0.028475500643253326 -0.0729999989271164 -0.007629980333149433 0.028475500643253326 -0.055000003427267075 -0.00762998266145587 0.02948000654578209 -0.0729999989271164 5.660586666067502e-09 0.02948000654578209 -0.055000003427267075 3.2421276774385888e-09 0.028475496917963028 -0.07300000637769699 0.0076299915090203285 0.028475496917963028 -0.05500000715255737 0.007629989180713892 0.025530431419610977 -0.07300000637769699 0.014740006066858768 0.025530431419610977 -0.05500000715255737 0.01474000420421362 0.020845508202910423 -0.07300000637769699 0.020845511928200722 0.020845508202910423 -0.05500000715255737 0.020845510065555573 0.014739999547600746 -0.07300000637769699 0.025530435144901276 0.014739999547600746 -0.05500000715255737 0.025530433282256126 0.00762998266145587 -0.07300000637769699 0.028475496917963028 0.00762998266145587 -0.05500000715255737 0.02847549505531788</float_array><technique_common><accessor source="#mesh0-array" count="48" stride="3"><param name="X" type="float" /><param name="Y" type="float" /><param name="Z" type="float" /></accessor></technique_common></source><source id="mesh0-normals"><float_array id="mesh0-normals-array" count="276">-0.13052646815776825 1.3320936886884738e-07 0.9914448261260986 -0.13052646815776825 1.3320936886884738e-07 0.9914448261260986 -0.38268348574638367 1.2413137540079333e-07 0.9238795638084412 -0.38268348574638367 1.2413137540079333e-07 0.9238795638084412 -0.6087616086006165 1.0659400828672005e-07 0.7933531999588013 -0.6087616086006165 1.0659400828672005e-07 0.7933531999588013 -0.7933533787727356 8.179247146244961e-08 0.6087614297866821 -0.7933533787727356 8.179247146244961e-08 0.6087614297866821 -0.9238796830177307 5.141687609011569e-08 0.38268324732780457 -0.9238796830177307 5.141687609011569e-08 0.38268324732780457 -0.9914449453353882 1.7537351126861722e-08 0.13052621483802795 -0.9914449453353882 1.7537351126861722e-08 0.13052621483802795 -0.9914448261260986 -1.753738665399851e-08 -0.13052649796009064 -0.9914448261260986 -1.753738665399851e-08 -0.13052649796009064 -0.9238795638084412 -5.141691161725248e-08 -0.38268354535102844 -0.9238795638084412 -5.141691161725248e-08 -0.38268354535102844 -0.7933531403541565 -8.179249988415904e-08 -0.6087616682052612 -0.7933531403541565 -8.179249988415904e-08 -0.6087616682052612 -0.6087613701820374 -1.0659403670842948e-07 -0.7933534383773804 -0.6087613701820374 -1.0659403670842948e-07 -0.7933534383773804 -0.3826831877231598 -1.2413140382250276e-07 -0.9238796830177307 -0.3826831877231598 -1.2413140382250276e-07 -0.9238796830177307 -0.13052618503570557 -1.332093830797021e-07 -0.9914449453353882 -0.13052618503570557 -1.332093830797021e-07 -0.9914449453353882 0.13052646815776825 -1.3320936886884738e-07 -0.9914448261260986 0.13052646815776825 -1.3320936886884738e-07 -0.9914448261260986 0.38268348574638367 -1.2413137540079333e-07 -0.9238795638084412 0.38268348574638367 -1.2413137540079333e-07 -0.9238795638084412 0.6087616086006165 -1.0659400828672005e-07 -0.7933531999588013 0.6087616086006165 -1.0659400828672005e-07 -0.7933531999588013 0.7933533787727356 -8.179247146244961e-08 -0.6087614297866821 0.7933533787727356 -8.179247146244961e-08 -0.6087614297866821 0.9238796830177307 -5.141687609011569e-08 -0.38268324732780457 0.9238796830177307 -5.141687609011569e-08 -0.38268324732780457 0.9914449453353882 -1.7537351126861722e-08 -0.13052621483802795 0.9914449453353882 -1.7537351126861722e-08 -0.13052621483802795 0.9914448261260986 1.753738665399851e-08 0.13052649796009064 0.9914448261260986 1.753738665399851e-08 0.13052649796009064 0.9238795638084412 5.141691161725248e-08 0.38268354535102844 0.9238795638084412 5.141691161725248e-08 0.38268354535102844 0.7933531403541565 8.179249988415904e-08 0.6087616682052612 0.7933531403541565 8.179249988415904e-08 0.6087616682052612 0.6087613701820374 1.0659403670842948e-07 0.7933534383773804 0.6087613701820374 1.0659403670842948e-07 0.7933534383773804 -2.028761815660307e-14 1.0 1.343588280633412e-07 -2.028761815660307e-14 1.0 1.343588280633412e-07 -2.028761815660307e-14 1.0 1.343588280633412e-07 -2.028761815660307e-14 1.0 1.343588280633412e-07 -2.028761815660307e-14 1.0 1.343588280633412e-07 -2.028761815660307e-14 1.0 1.343588280633412e-07 -2.028761815660307e-14 1.0 1.343588280633412e-07 -2.028761815660307e-14 1.0 1.343588280633412e-07 -2.028761815660307e-14 1.0 1.343588280633412e-07 -2.028761815660307e-14 1.0 1.343588280633412e-07 -2.028761815660307e-14 1.0 1.343588280633412e-07 -2.028761815660307e-14 1.0 1.343588280633412e-07 -2.0287619850668966e-14 1.0 1.343588280633412e-07 -2.028761815660307e-14 1.0 1.343588280633412e-07 -2.028761815660307e-14 1.0 1.343588280633412e-07 -2.0287619850668966e-14 1.0 1.343588280633412e-07 -2.028761815660307e-14 1.0 1.343588280633412e-07 -2.028761815660307e-14 1.0 1.343588280633412e-07 -2.028761815660307e-14 1.0 1.343588280633412e-07 -2.028761815660307e-14 1.0 1.343588280633412e-07 -2.028761815660307e-14 1.0 1.343588280633412e-07 -2.028761815660307e-14 1.0 1.343588280633412e-07 0.3826831877231598 1.2413140382250276e-07 0.9238796830177307 0.3826831877231598 1.2413140382250276e-07 0.9238796830177307 0.13052618503570557 1.332093830797021e-07 0.9914449453353882 0.13052618503570557 1.332093830797021e-07 0.9914449453353882 2.028761815660307e-14 -1.0 -1.343588280633412e-07 2.028761815660307e-14 -1.0 -1.343588280633412e-07 2.028761815660307e-14 -1.0 -1.343588280633412e-07 2.028761815660307e-14 -1.0 -1.343588280633412e-07 2.028761815660307e-14 -1.0 -1.343588280633412e-07 2.028761815660307e-14 -1.0 -1.343588280633412e-07 2.028761815660307e-14 -1.0 -1.343588280633412e-07 2.028761815660307e-14 -1.0 -1.343588280633412e-07 2.028761815660307e-14 -1.0 -1.343588280633412e-07 2.028761815660307e-14 -1.0 -1.343588280633412e-07 2.028761815660307e-14 -1.0 -1.343588280633412e-07 2.028761815660307e-14 -1.0 -1.343588280633412e-07 2.0287619850668966e-14 -1.0 -1.343588280633412e-07 2.0287619850668966e-14 -1.0 -1.343588280633412e-07 2.028761815660307e-14 -1.0 -1.343588280633412e-07 2.0287619850668966e-14 -1.0 -1.343588280633412e-07 2.0287619850668966e-14 -1.0 -1.343588280633412e-07 2.028761815660307e-14 -1.0 -1.343588280633412e-07 2.028761815660307e-14 -1.0 -1.343588280633412e-07 2.028761815660307e-14 -1.0 -1.343588280633412e-07 2.028761815660307e-14 -1.0 -1.343588280633412e-07 2.028761815660307e-14 -1.0 -1.343588280633412e-07</float_array><technique_common><accessor source="#mesh0-normals-array" count="92" stride="3"><param name="X" type="float" /><param name="Y" type="float" /><param name="Z" type="float" /></accessor></technique_common></source><vertices id="mesh0-vertices"><input semantic="POSITION" source="#mesh0-positions" /></vertices><triangles count="92" material="titanium"><input semantic="VERTEX" source="#mesh0-vertices" offset="0" /><input semantic="NORMAL" source="#mesh0-normals" offset="1" /><p>0 0 1 0 3 0 0 1 3 1 2 1 2 2 3 2 5 2 2 3 5 3 4 3 4 4 5 4 7 4 4 5 7 5 6 5 6 6 7 6 9 6 6 7 9 7 8 7 8 8 9 8 11 8 8 9 11 9 10 9 10 10 11 10 13 10 10 11 13 11 12 11 12 12 13 12 15 12 12 13 15 13 14 13 14 14 15 14 17 14 14 15 17 15 16 15 16 16 17 16 19 16 16 17 19 17 18 17 18 18 19 18 21 18 18 19 21 19 20 19 20 20 21 20 23 20 20 21 23 21 22 21 22 22 23 22 25 22 22 23 25 23 24 23 24 24 25 24 27 24 24 25 27 25 26 25 26 26 27 26 29 26 26 27 29 27 28 27 28 28 29 28 31 28 28 29 31 29 30 29 30 30 31 30 33 30 30 31 33 31 32 31 32 32 33 32 35 32 32 33 35 33 34 33 34 34 35 34 37 34 34 35 37 35 36 35 36 36 37 36 39 36 36 37 39 37 38 37 38 38 39 38 41 38 38 39 41 39 40 39 40 40 41 40 43 40 40 41 43 41 42 41 42 42 43 42 45 42 42 43 45 43 44 43 5 44 3 44 1 44 1 45 47 45 45 45 45 46 43 46 41 46 41 47 39 47 37 47 37 48 35 48 33 48 33 49 31 49 29 49 29 50 27 50 25 50 25 51 23 51 21 51 21 52 19 52 17 52 17 53 15 53 13 53 13 54 11 54 9 54 9 55 7 55 5 55 5 56 1 56 45 56 45 57 41 57 37 57 37 58 33 58 29 58 29 59 25 59 21 59 21 60 17 60 13 60 13 61 9 61 5 61 5 62 45 62 37 62 37 63 29 63 21 63 21 64 13 64 5 64 37 65 21 65 5 65 44 66 45 66 47 66 44 67 47 67 46 67 46 68 47 68 1 68 46 69 1 69 0 69 46 70 0 70 2 70 2 71 4 71 6 71 6 72 8 72 10 72 10 73 12 73 14 73 14 74 16 74 18 74 18 75 20 75 22 75 22 76 24 76 26 76 26 77 28 77 30 77 30 78 32 78 34 78 34 79 36 79 38 79 38 80 40 80 42 80 42 81 44 81 46 81 46 82 2 82 6 82 6 83 10 83 14 83 14 84 18 84 22 84 22 85 26 85 30 85 30 86 34 86 38 86 38 87 42 87 46 87 46 88 6 88 14 88 14 89 22 89 30 89 30 90 38 90 46 90 14 91 30 91 46 91</p></triangles></mesh></geometry><geometry id="mesh1"><mesh><source id="mesh1-positions"><float_array id="mesh1-array" count="144">-4.451357060730743e-09 0.054999999701976776 0.02948000468313694 -4.451357060730743e-09 0.0729999989271164 0.02948000095784664 -0.007629991043359041 0.054999999701976776 0.02847549505531788 -0.007629991043359041 0.0729999989271164 0.02847549319267273 -0.014740006998181343 0.054999999701976776 0.025530429556965828 -0.014740006998181343 0.0729999989271164 0.02553042769432068 -0.02084551565349102 0.054999999701976776 0.020845506340265274 -0.02084551565349102 0.0729999989271164 0.020845504477620125 -0.025530435144901276 0.055000003427267075 0.014739998616278172 -0.025530435144901276 0.0729999989271164 0.014739996753633022 -0.028475500643253326 0.055000003427267075 0.00762998266145587 -0.028475500643253326 0.0729999989271164 0.007629980333149433 -0.02948000654578209 0.055000003427267075 -3.2421276774385888e-09 -0.02948000654578209 0.0729999989271164 -5.660586666067502e-09 -0.028475496917963028 0.05500000715255737 -0.007629989180713892 -0.028475496917963028 0.07300000637769699 -0.0076299915090203285 -0.025530431419610977 0.05500000715255737 -0.01474000420421362 -0.025530431419610977 0.07300000637769699 -0.014740006066858768 -0.020845508202910423 0.05500000715255737 -0.020845510065555573 -0.020845508202910423 0.07300000637769699 -0.020845511928200722 -0.014739999547600746 0.05500000715255737 -0.025530433282256126 -0.014739999547600746 0.07300000637769699 -0.025530435144901276 -0.00762998266145587 0.05500000715255737 -0.02847549505531788 -0.00762998266145587 0.07300000637769699 -0.028475496917963028 4.451357060730743e-09 0.05500000715255737 -0.02948000095784664 4.451357060730743e-09 0.07300000637769699 -0.02948000468313694 0.007629991043359041 0.05500000715255737 -0.02847549319267273 0.007629991043359041 0.07300000637769699 -0.02847549505531788 0.014740006998181343 0.05500000715255737 -0.02553042769432068 0.014740006998181343 0.07300000637769699 -0.025530429556965828 0.02084551565349102 0.05500000715255737 -0.020845504477620125 0.02084551565349102 0.07300000637769699 -0.020845506340265274 0.025530435144901276 0.05500000715255737 -0.014739996753633022 0.025530435144901276 0.07300000637769699 -0.014739998616278172 0.028475500643253326 0.05500000715255737 -0.007629980333149433 0.028475500643253326 0.07300000637769699 -0.00762998266145587 0.02948000654578209 0.055000003427267075 5.660586666067502e-09 0.02948000654578209 0.0729999989271164 3.2421276774385888e-09 0.028475496917963028 0.055000003427267075 0.0076299915090203285 0.028475496917963028 0.0729999989271164 0.007629989180713892 0.025530431419610977 0.055000003427267075 0.014740006066858768 0.025530431419610977 0.0729999989271164 0.01474000420421362 0.020845508202910423 0.054999999701976776 0.020845511928200722 0.020845508202910423 0.0729999989271164 0.020845510065555573 0.014739999547600746 0.054999999701976776 0.025530435144901276 0.014739999547600746 0.0729999989271164 0.025530433282256126 0.00762998266145587 0.054999999701976776 0.028475496917963028 0.00762998266145587 0.0729999989271164 0.02847549505531788</float_array><technique_common><accessor source="#mesh1-array" count="48" stride="3"><param name="X" type="float" /><param name="Y" type="float" /><param name="Z" type="float" /></accessor></technique_common></source><source id="mesh1-normals"><float_array id="mesh1-normals-array" count="276">-0.13052646815776825 1.3320936886884738e-07 0.9914448261260986 -0.13052646815776825 1.3320936886884738e-07 0.9914448261260986 -0.38268348574638367 1.2413137540079333e-07 0.9238795638084412 -0.38268348574638367 1.2413137540079333e-07 0.9238795638084412 -0.6087616086006165 1.0659400828672005e-07 0.7933531999588013 -0.6087616086006165 1.0659400828672005e-07 0.7933531999588013 -0.7933533787727356 8.179247146244961e-08 0.6087614297866821 -0.7933533787727356 8.179247146244961e-08 0.6087614297866821 -0.9238796830177307 5.141687609011569e-08 0.38268324732780457 -0.9238796830177307 5.141687609011569e-08 0.38268324732780457 -0.9914449453353882 1.7537351126861722e-08 0.13052621483802795 -0.9914449453353882 1.7537351126861722e-08 0.13052621483802795 -0.9914448261260986 -1.753738665399851e-08 -0.13052649796009064 -0.9914448261260986 -1.753738665399851e-08 -0.13052649796009064 -0.9238795638084412 -5.141691161725248e-08 -0.38268354535102844 -0.9238795638084412 -5.141691161725248e-08 -0.38268354535102844 -0.7933531403541565 -8.179249988415904e-08 -0.6087616682052612 -0.7933531403541565 -8.179249988415904e-08 -0.6087616682052612 -0.6087613701820374 -1.0659403670842948e-07 -0.7933534383773804 -0.6087613701820374 -1.0659403670842948e-07 -0.7933534383773804 -0.3826831877231598 -1.2413140382250276e-07 -0.9238796830177307 -0.3826831877231598 -1.2413140382250276e-07 -0.9238796830177307 -0.13052618503570557 -1.332093830797021e-07 -0.9914449453353882 -0.13052618503570557 -1.332093830797021e-07 -0.9914449453353882 0.13052646815776825 -1.3320936886884738e-07 -0.9914448261260986 0.13052646815776825 -1.3320936886884738e-07 -0.9914448261260986 0.38268348574638367 -1.2413137540079333e-07 -0.9238795638084412 0.38268348574638367 -1.2413137540079333e-07 -0.9238795638084412 0.6087616086006165 -1.0659400828672005e-07 -0.7933531999588013 0.6087616086006165 -1.0659400828672005e-07 -0.7933531999588013 0.7933533787727356 -8.179247146244961e-08 -0.6087614297866821 0.7933533787727356 -8.179247146244961e-08 -0.6087614297866821 0.9238796830177307 -5.141687609011569e-08 -0.38268324732780457 0.9238796830177307 -5.141687609011569e-08 -0.38268324732780457 0.9914449453353882 -1.7537351126861722e-08 -0.13052621483802795 0.9914449453353882 -1.7537351126861722e-08 -0.13052621483802795 0.9914448261260986 1.753738665399851e-08 0.13052649796009064 0.9914448261260986 1.753738665399851e-08 0.13052649796009064 0.9238795638084412 5.141691161725248e-08 0.38268354535102844 0.9238795638084412 5.141691161725248e-08 0.38268354535102844 0.7933531403541565 8.179249988415904e-08 0.6087616682052612 0.7933531403541565 8.179249988415904e-08 0.6087616682052612 0.6087613701820374 1.0659403670842948e-07 0.7933534383773804 0.6087613701820374 1.0659403670842948e-07 0.7933534383773804 -2.028761815660307e-14 1.0 1.343588280633412e-07 -2.028761815660307e-14 1.0 1.343588280633412e-07 -2.028761815660307e-14 1.0 1.343588280633412e-07 -2.028761815660307e-14 1.0 1.343588280633412e-07 -2.028761815660307e-14 1.0 1.343588280633412e-07 -2.028761815660307e-14 1.0 1.343588280633412e-07 -2.028761815660307e-14 1.0 1.343588280633412e-07 -2.028761815660307e-14 1.0 1.343588280633412e-07 -2.028761815660307e-14 1.0 1.343588280633412e-07 -2.028761815660307e-14 1.0 1.343588280633412e-07 -2.028761815660307e-14 1.0 1.343588280633412e-07 -2.028761815660307e-14 1.0 1.343588280633412e-07 -2.0287619850668966e-14 1.0 1.343588280633412e-07 -2.028761815660307e-14 1.0 1.343588280633412e-07 -2.028761815660307e-14 1.0 1.343588280633412e-07 -2.0287619850668966e-14 1.0 1.343588280633412e-07 -2.028761815660307e-14 1.0 1.343588280633412e-07 -2.028761815660307e-14 1.0 1.343588280633412e-07 -2.028761815660307e-14 1.0 1.343588280633412e-07 -2.028761815660307e-14 1.0 1.343588280633412e-07 -2.028761815660307e-14 1.0 1.343588280633412e-07 -2.028761815660307e-14 1.0 1.343588280633412e-07 0.3826831877231598 1.2413140382250276e-07 0.9238796830177307 0.3826831877231598 1.2413140382250276e-07 0.9238796830177307 0.13052618503570557 1.332093830797021e-07 0.9914449453353882 0.13052618503570557 1.332093830797021e-07 0.9914449453353882 2.028761815660307e-14 -1.0 -1.343588280633412e-07 2.028761815660307e-14 -1.0 -1.343588280633412e-07 2.028761815660307e-14 -1.0 -1.343588280633412e-07 2.028761815660307e-14 -1.0 -1.343588280633412e-07 2.028761815660307e-14 -1.0 -1.343588280633412e-07 2.028761815660307e-14 -1.0 -1.343588280633412e-07 2.028761815660307e-14 -1.0 -1.343588280633412e-07 2.028761815660307e-14 -1.0 -1.343588280633412e-07 2.028761815660307e-14 -1.0 -1.343588280633412e-07 2.028761815660307e-14 -1.0 -1.343588280633412e-07 2.028761815660307e-14 -1.0 -1.343588280633412e-07 2.028761815660307e-14 -1.0 -1.343588280633412e-07 2.0287619850668966e-14 -1.0 -1.343588280633412e-07 2.0287619850668966e-14 -1.0 -1.343588280633412e-07 2.028761815660307e-14 -1.0 -1.343588280633412e-07 2.0287619850668966e-14 -1.0 -1.343588280633412e-07 2.0287619850668966e-14 -1.0 -1.343588280633412e-07 2.028761815660307e-14 -1.0 -1.343588280633412e-07 2.028761815660307e-14 -1.0 -1.343588280633412e-07 2.028761815660307e-14 -1.0 -1.343588280633412e-07 2.028761815660307e-14 -1.0 -1.343588280633412e-07 2.028761815660307e-14 -1.0 -1.343588280633412e-07</float_array><technique_common><accessor source="#mesh1-normals-array" count="92" stride="3"><param name="X" type="float" /><param name="Y" type="float" /><param name="Z" type="float" /></accessor></technique_common></source><vertices id="mesh1-vertices"><input semantic="POSITION" source="#mesh1-positions" /></vertices><triangles count="92" material="titanium"><input semantic="VERTEX" source="#mesh1-vertices" offset="0" /><input semantic="NORMAL" source="#mesh1-normals" offset="1" /><p>0 0 1 0 3 0 0 1 3 1 2 1 2 2 3 2 5 2 2 3 5 3 4 3 4 4 5 4 7 4 4 5 7 5 6 5 6 6 7 6 9 6 6 7 9 7 8 7 8 8 9 8 11 8 8 9 11 9 10 9 10 10 11 10 13 10 10 11 13 11 12 11 12 12 13 12 15 12 12 13 15 13 14 13 14 14 15 14 17 14 14 15 17 15 16 15 16 16 17 16 19 16 16 17 19 17 18 17 18 18 19 18 21 18 18 19 21 19 20 19 20 20 21 20 23 20 20 21 23 21 22 21 22 22 23 22 25 22 22 23 25 23 24 23 24 24 25 24 27 24 24 25 27 25 26 25 26 26 27 26 29 26 26 27 29 27 28 27 28 28 29 28 31 28 28 29 31 29 30 29 30 30 31 30 33 30 30 31 33 31 32 31 32 32 33 32 35 32 32 33 35 33 34 33 34 34 35 34 37 34 34 35 37 35 36 35 36 36 37 36 39 36 36 37 39 37 38 37 38 38 39 38 41 38 38 39 41 39 40 39 40 40 41 40 43 40 40 41 43 41 42 41 42 42 43 42 45 42 42 43 45 43 44 43 5 44 3 44 1 44 1 45 47 45 45 45 45 46 43 46 41 46 41 47 39 47 37 47 37 48 35 48 33 48 33 49 31 49 29 49 29 50 27 50 25 50 25 51 23 51 21 51 21 52 19 52 17 52 17 53 15 53 13 53 13 54 11 54 9 54 9 55 7 55 5 55 5 56 1 56 45 56 45 57 41 57 37 57 37 58 33 58 29 58 29 59 25 59 21 59 21 60 17 60 13 60 13 61 9 61 5 61 5 62 45 62 37 62 37 63 29 63 21 63 21 64 13 64 5 64 37 65 21 65 5 65 44 66 45 66 47 66 44 67 47 67 46 67 46 68 47 68 1 68 46 69 1 69 0 69 46 70 0 70 2 70 2 71 4 71 6 71 6 72 8 72 10 72 10 73 12 73 14 73 14 74 16 74 18 74 18 75 20 75 22 75 22 76 24 76 26 76 26 77 28 77 30 77 30 78 32 78 34 78 34 79 36 79 38 79 38 80 40 80 42 80 42 81 44 81 46 81 46 82 2 82 6 82 6 83 10 83 14 83 14 84 18 84 22 84 22 85 26 85 30 85 30 86 34 86 38 86 38 87 42 87 46 87 46 88 6 88 14 88 14 89 22 89 30 89 30 90 38 90 46 90 14 91 30 91 46 91</p></triangles></mesh></geometry><geometry id="mesh2"><mesh><source id="mesh2-positions"><float_array id="mesh2-array" count="168">-0.02500000037252903 -0.041999999433755875 -0.3050000071525574 -0.02499999850988388 -0.05299999937415123 -0.2939999997615814 -0.035999998450279236 -0.041999999433755875 -0.2939999997615814 -0.02499999850988388 -0.04977817460894585 -0.3017781674861908 -0.03135085105895996 -0.048350851982831955 -0.3003508448600769 -0.03277817368507385 -0.04977817460894585 -0.2939999997615814 -0.03277817368507385 -0.041999999433755875 -0.3017781674861908 -0.02499999850988388 -0.05299999937415123 -0.025999993085861206 -0.02500000037252903 -0.041999999433755875 -0.015000000596046448 -0.035999998450279236 -0.041999999433755875 -0.025999993085861206 -0.02499999850988388 -0.04977817460894585 -0.01822182536125183 -0.03135085105895996 -0.048350851982831955 -0.019649147987365723 -0.03277817368507385 -0.041999999433755875 -0.01822182536125183 -0.03277817368507385 -0.04977817460894585 -0.025999993085861206 -0.02500000037252903 -0.041999999433755875 -0.3050000071525574 -0.035999998450279236 -0.041999999433755875 -0.2939999997615814 -0.02499999850988388 -0.03099999949336052 -0.2939999997615814 -0.03277817368507385 -0.041999999433755875 -0.3017781674861908 -0.03135085105895996 -0.035649146884679794 -0.3003508448600769 -0.03277817368507385 -0.0342218242585659 -0.2939999997615814 -0.02499999850988388 -0.0342218242585659 -0.3017781674861908 -0.02500000037252903 -0.041999999433755875 -0.015000000596046448 -0.02499999850988388 -0.03099999949336052 -0.025999993085861206 -0.035999998450279236 -0.041999999433755875 -0.025999993085861206 -0.02499999850988388 -0.0342218242585659 -0.01822182536125183 -0.03135085105895996 -0.035649146884679794 -0.019649147987365723 -0.03277817368507385 -0.0342218242585659 -0.025999993085861206 -0.03277817368507385 -0.041999999433755875 -0.01822182536125183 0.02500000037252903 -0.041999999433755875 -0.3050000071525574 0.035999998450279236 -0.041999999433755875 -0.2939999997615814 0.02499999850988388 -0.05299999937415123 -0.2939999997615814 0.03277817368507385 -0.041999999433755875 -0.3017781674861908 0.03135085105895996 -0.048350851982831955 -0.3003508448600769 0.03277817368507385 -0.04977817460894585 -0.2939999997615814 0.02499999850988388 -0.04977817460894585 -0.3017781674861908 0.02500000037252903 -0.041999999433755875 -0.015000000596046448 0.02499999850988388 -0.05299999937415123 -0.025999993085861206 0.035999998450279236 -0.041999999433755875 -0.025999993085861206 0.02499999850988388 -0.04977817460894585 -0.01822182536125183 0.03135085105895996 -0.048350851982831955 -0.019649147987365723 0.03277817368507385 -0.04977817460894585 -0.025999993085861206 0.03277817368507385 -0.041999999433755875 -0.01822182536125183 0.02500000037252903 -0.041999999433755875 -0.3050000071525574 0.02499999850988388 -0.03099999949336052 -0.2939999997615814 0.035999998450279236 -0.041999999433755875 -0.2939999997615814 0.02499999850988388 -0.0342218242585659 -0.3017781674861908 0.03135085105895996 -0.035649146884679794 -0.3003508448600769 0.03277817368507385 -0.0342218242585659 -0.2939999997615814 0.03277817368507385 -0.041999999433755875 -0.3017781674861908 0.02500000037252903 -0.041999999433755875 -0.015000000596046448 0.035999998450279236 -0.041999999433755875 -0.025999993085861206 0.02499999850988388 -0.03099999949336052 -0.025999993085861206 0.03277817368507385 -0.041999999433755875 -0.01822182536125183 0.03135085105895996 -0.035649146884679794 -0.019649147987365723 0.03277817368507385 -0.0342218242585659 -0.025999993085861206 0.02499999850988388 -0.0342218242585659 -0.01822182536125183</float_array><technique_common><accessor source="#mesh2-array" count="56" stride="3"><param name="X" type="float" /><param name="Y" type="float" /><param name="Z" type="float" /></accessor></technique_common></source><source id="mesh2-normals"><float_array id="mesh2-normals-array" count="324">-0.28174757957458496 -0.36718034744262695 -0.8864519000053406 -0.36718037724494934 -0.28174757957458496 -0.8864519000053406 -0.367180198431015 -0.8864519000053406 -0.28174784779548645 -0.2817474603652954 -0.886451780796051 -0.36718061566352844 -0.8864517211914062 -0.28174760937690735 -0.36718058586120605 -0.886451780796051 -0.3671802282333374 -0.28174787759780884 -0.2817474603652954 -0.886451780796051 0.36718058586120605 -0.3671802580356598 -0.886451780796051 0.2817477285861969 -0.36718034744262695 -0.28174757957458496 0.8864518404006958 -0.28174757957458496 -0.36718037724494934 0.8864519000053406 -0.8864518404006958 -0.36718031764030457 0.28174787759780884 -0.886451780796051 -0.28174763917922974 0.36718058586120605 -0.36718034744262695 0.28174757957458496 -0.8864518404006958 -0.28174757957458496 0.36718037724494934 -0.8864519000053406 -0.8864518404006958 0.36718031764030457 -0.28174787759780884 -0.886451780796051 0.28174763917922974 -0.36718058586120605 -0.2817474603652954 0.886451780796051 -0.36718058586120605 -0.3671802580356598 0.886451780796051 -0.2817477285861969 -0.28174757957458496 0.36718034744262695 0.8864519000053406 -0.36718037724494934 0.28174757957458496 0.8864519000053406 -0.367180198431015 0.8864519000053406 0.28174784779548645 -0.2817474603652954 0.886451780796051 0.36718061566352844 -0.8864517211914062 0.28174760937690735 0.36718058586120605 -0.886451780796051 0.3671802282333374 0.28174787759780884 0.36718034744262695 -0.28174757957458496 -0.8864518404006958 0.28174757957458496 -0.36718037724494934 -0.8864519000053406 0.8864518404006958 -0.36718031764030457 -0.28174787759780884 0.886451780796051 -0.28174763917922974 -0.36718058586120605 0.2817474603652954 -0.886451780796051 -0.36718058586120605 0.3671802580356598 -0.886451780796051 -0.2817477285861969 0.28174757957458496 -0.36718034744262695 0.8864519000053406 0.36718037724494934 -0.28174757957458496 0.8864519000053406 0.367180198431015 -0.8864519000053406 0.28174784779548645 0.2817474603652954 -0.886451780796051 0.36718061566352844 0.8864517211914062 -0.28174760937690735 0.36718058586120605 0.886451780796051 -0.3671802282333374 0.28174787759780884 0.28174757957458496 0.36718034744262695 -0.8864519000053406 0.36718037724494934 0.28174757957458496 -0.8864519000053406 0.367180198431015 0.8864519000053406 -0.28174784779548645 0.2817474603652954 0.886451780796051 -0.36718061566352844 0.8864517211914062 0.28174760937690735 -0.36718058586120605 0.886451780796051 0.3671802282333374 -0.28174787759780884 0.36718034744262695 0.28174757957458496 0.8864518404006958 0.28174757957458496 0.36718037724494934 0.8864519000053406 0.8864518404006958 0.36718031764030457 0.28174787759780884 0.886451780796051 0.28174763917922974 0.36718058586120605 0.2817474603652954 0.886451780796051 0.36718058586120605 0.3671802580356598 0.886451780796051 0.2817477285861969 -0.3826834261417389 0.0 -0.9238795638084412 -0.3826834261417389 0.0 -0.9238795042037964 -0.9238793849945068 0.0 -0.3826836049556732 -0.9238795042037964 0.0 -0.3826836943626404 -0.3826833665370941 -0.9238796234130859 0.0 -0.38268327713012695 -0.9238796234130859 3.210559595956397e-09 -0.9238795042037964 -0.3826833665370941 1.3298570022968192e-09 -0.9238796234130859 -0.3826833665370941 0.0 -0.3826834261417389 0.0 0.9238795638084412 -0.3826834261417389 0.0 0.9238795042037964 -0.9238793849945068 0.0 0.3826836049556732 -0.9238795042037964 0.0 0.3826836943626404 -0.3826833665370941 0.9238796234130859 0.0 -0.38268327713012695 0.9238796234130859 -3.210559595956397e-09 -0.9238795042037964 0.3826833665370941 -1.3298570022968192e-09 -0.9238796234130859 0.3826833665370941 0.0 7.1280332747392094e-09 0.3826833665370941 -0.9238795638084412 0.0 0.38268333673477173 -0.9238795638084412 0.0 0.9238794445991516 -0.382683664560318 0.0 0.9238794445991516 -0.382683664560318 -7.1280332747392094e-09 0.3826833665370941 0.9238795638084412 0.0 0.38268333673477173 0.9238795638084412 0.0 0.9238794445991516 0.382683664560318 0.0 0.9238794445991516 0.382683664560318 0.9238796234130859 0.3826833665370941 0.0 0.9238795042037964 0.3826833665370941 1.3298570022968192e-09 0.38268327713012695 0.9238796234130859 3.210559595956397e-09 0.3826833665370941 0.9238796234130859 0.0 0.3826834261417389 0.0 -0.9238795638084412 0.3826834261417389 0.0 -0.9238795042037964 0.9238793849945068 0.0 -0.3826836049556732 0.9238795042037964 0.0 -0.3826836943626404 0.3826834261417389 0.0 0.9238795638084412 0.3826834261417389 0.0 0.9238795042037964 0.9238793849945068 0.0 0.3826836049556732 0.9238795042037964 0.0 0.3826836943626404 0.3826833665370941 -0.9238796234130859 0.0 0.38268327713012695 -0.9238796234130859 -3.210559595956397e-09 0.9238795042037964 -0.3826833665370941 -1.3298570022968192e-09 0.9238796234130859 -0.3826833665370941 0.0 -7.1280332747392094e-09 -0.3826833665370941 -0.9238795638084412 0.0 -0.38268333673477173 -0.9238795638084412 0.0 -0.9238794445991516 -0.382683664560318 0.0 -0.9238794445991516 -0.382683664560318 7.1280332747392094e-09 -0.3826833665370941 0.9238795638084412 0.0 -0.38268333673477173 0.9238795638084412 0.0 -0.9238794445991516 0.382683664560318 0.0 -0.9238794445991516 0.382683664560318 0.0 0.0 -1.0 0.0 0.0 -1.0 -1.0 0.0 0.0 -1.0 0.0 0.0 0.0 -1.0 0.0 0.0 -1.0 0.0 0.0 0.0 1.0 0.0 0.0 1.0 0.0 1.0 0.0 0.0 1.0 0.0 1.0 0.0 0.0 1.0 0.0 0.0</float_array><technique_common><accessor source="#mesh2-normals-array" count="108" stride="3"><param name="X" type="float" /><param name="Y" type="float" /><param name="Z" type="float" /></accessor></technique_common></source><vertices id="mesh2-vertices"><input semantic="POSITION" source="#mesh2-positions" /></vertices><triangles count="108" material="titanium"><input semantic="VERTEX" source="#mesh2-vertices" offset="0" /><input semantic="NORMAL" source="#mesh2-normals" offset="1" /><p>0 0 3 0 4 0 0 1 4 1 6 1 1 2 5 2 4 2 1 3 4 3 3 3 2 4 6 4 4 4 2 5 4 5 5 5 7 6 10 6 11 6 7 7 11 7 13 7 8 8 12 8 11 8 8 9 11 9 10 9 9 10 13 10 11 10 9 11 11 11 12 11 14 12 17 12 18 12 14 13 18 13 20 13 15 14 19 14 18 14 15 15 18 15 17 15 16 16 20 16 18 16 16 17 18 17 19 17 21 18 24 18 25 18 21 19 25 19 27 19 22 20 26 20 25 20 22 21 25 21 24 21 23 22 27 22 25 22 23 23 25 23 26 23 28 24 31 24 32 24 28 25 32 25 34 25 29 26 33 26 32 26 29 27 32 27 31 27 30 28 34 28 32 28 30 29 32 29 33 29 35 30 38 30 39 30 35 31 39 31 41 31 36 32 40 32 39 32 36 33 39 33 38 33 37 34 41 34 39 34 37 35 39 35 40 35 42 36 45 36 46 36 42 37 46 37 48 37 43 38 47 38 46 38 43 39 46 39 45 39 44 40 48 40 46 40 44 41 46 41 47 41 49 42 52 42 53 42 49 43 53 43 55 43 50 44 54 44 53 44 50 45 53 45 52 45 51 46 55 46 53 46 51 47 53 47 54 47 14 48 0 48 6 48 14 49 6 49 17 49 17 50 6 50 2 50 17 51 2 51 15 51 1 52 7 52 13 52 1 53 13 53 5 53 5 54 13 54 9 54 5 55 9 55 2 55 8 56 21 56 27 56 8 57 27 57 12 57 12 58 27 58 23 58 12 59 23 59 9 59 22 60 16 60 19 60 22 61 19 61 26 61 26 62 19 62 15 62 26 63 15 63 23 63 42 64 14 64 20 64 42 65 20 65 45 65 45 66 20 66 16 66 45 67 16 67 43 67 21 68 49 68 55 68 21 69 55 69 24 69 24 70 55 70 51 70 24 71 51 71 22 71 50 72 44 72 47 72 50 73 47 73 54 73 54 74 47 74 43 74 54 75 43 75 51 75 28 76 42 76 48 76 28 77 48 77 31 77 31 78 48 78 44 78 31 79 44 79 29 79 49 80 35 80 41 80 49 81 41 81 52 81 52 82 41 82 37 82 52 83 37 83 50 83 36 84 30 84 33 84 36 85 33 85 40 85 40 86 33 86 29 86 40 87 29 87 37 87 0 88 28 88 34 88 0 89 34 89 3 89 3 90 34 90 30 90 3 91 30 91 1 91 35 92 8 92 10 92 35 93 10 93 38 93 38 94 10 94 7 94 38 95 7 95 36 95 14 96 42 96 28 96 14 97 28 97 0 97 2 98 9 98 23 98 2 99 23 99 15 99 30 100 36 100 7 100 30 101 7 101 1 101 49 102 21 102 8 102 49 103 8 103 35 103 16 104 22 104 51 104 16 105 51 105 43 105 44 106 50 106 37 106 44 107 37 107 29 107</p></triangles></mesh></geometry><geometry id="mesh3"><mesh><source id="mesh3-positions"><float_array id="mesh3-array" count="168">-0.02500000037252903 0.041999999433755875 -0.3050000071525574 -0.02499999850988388 0.03099999949336052 -0.2939999997615814 -0.035999998450279236 0.041999999433755875 -0.2939999997615814 -0.02499999850988388 0.0342218242585659 -0.3017781674861908 -0.03135085105895996 0.035649146884679794 -0.3003508448600769 -0.03277817368507385 0.0342218242585659 -0.2939999997615814 -0.03277817368507385 0.041999999433755875 -0.3017781674861908 -0.02499999850988388 0.03099999949336052 -0.025999993085861206 -0.02500000037252903 0.041999999433755875 -0.015000000596046448 -0.035999998450279236 0.041999999433755875 -0.025999993085861206 -0.02499999850988388 0.0342218242585659 -0.01822182536125183 -0.03135085105895996 0.035649146884679794 -0.019649147987365723 -0.03277817368507385 0.041999999433755875 -0.01822182536125183 -0.03277817368507385 0.0342218242585659 -0.025999993085861206 -0.02500000037252903 0.041999999433755875 -0.3050000071525574 -0.035999998450279236 0.041999999433755875 -0.2939999997615814 -0.02499999850988388 0.05299999937415123 -0.2939999997615814 -0.03277817368507385 0.041999999433755875 -0.3017781674861908 -0.03135085105895996 0.048350851982831955 -0.3003508448600769 -0.03277817368507385 0.04977817460894585 -0.2939999997615814 -0.02499999850988388 0.04977817460894585 -0.3017781674861908 -0.02500000037252903 0.041999999433755875 -0.015000000596046448 -0.02499999850988388 0.05299999937415123 -0.025999993085861206 -0.035999998450279236 0.041999999433755875 -0.025999993085861206 -0.02499999850988388 0.04977817460894585 -0.01822182536125183 -0.03135085105895996 0.048350851982831955 -0.019649147987365723 -0.03277817368507385 0.04977817460894585 -0.025999993085861206 -0.03277817368507385 0.041999999433755875 -0.01822182536125183 0.02500000037252903 0.041999999433755875 -0.3050000071525574 0.035999998450279236 0.041999999433755875 -0.2939999997615814 0.02499999850988388 0.03099999949336052 -0.2939999997615814 0.03277817368507385 0.041999999433755875 -0.3017781674861908 0.03135085105895996 0.035649146884679794 -0.3003508448600769 0.03277817368507385 0.0342218242585659 -0.2939999997615814 0.02499999850988388 0.0342218242585659 -0.3017781674861908 0.02500000037252903 0.041999999433755875 -0.015000000596046448 0.02499999850988388 0.03099999949336052 -0.025999993085861206 0.035999998450279236 0.041999999433755875 -0.025999993085861206 0.02499999850988388 0.0342218242585659 -0.01822182536125183 0.03135085105895996 0.035649146884679794 -0.019649147987365723 0.03277817368507385 0.0342218242585659 -0.025999993085861206 0.03277817368507385 0.041999999433755875 -0.01822182536125183 0.02500000037252903 0.041999999433755875 -0.3050000071525574 0.02499999850988388 0.05299999937415123 -0.2939999997615814 0.035999998450279236 0.041999999433755875 -0.2939999997615814 0.02499999850988388 0.04977817460894585 -0.3017781674861908 0.03135085105895996 0.048350851982831955 -0.3003508448600769 0.03277817368507385 0.04977817460894585 -0.2939999997615814 0.03277817368507385 0.041999999433755875 -0.3017781674861908 0.02500000037252903 0.041999999433755875 -0.015000000596046448 0.035999998450279236 0.041999999433755875 -0.025999993085861206 0.02499999850988388 0.05299999937415123 -0.025999993085861206 0.03277817368507385 0.041999999433755875 -0.01822182536125183 0.03135085105895996 0.048350851982831955 -0.019649147987365723 0.03277817368507385 0.04977817460894585 -0.025999993085861206 0.02499999850988388 0.04977817460894585 -0.01822182536125183</float_array><technique_common><accessor source="#mesh3-array" count="56" stride="3"><param name="X" type="float" /><param name="Y" type="float" /><param name="Z" type="float" /></accessor></technique_common></source><source id="mesh3-normals"><float_array id="mesh3-normals-array" count="324">-0.28174757957458496 -0.36718034744262695 -0.8864519000053406 -0.36718037724494934 -0.28174757957458496 -0.8864519000053406 -0.367180198431015 -0.8864519000053406 -0.28174784779548645 -0.2817474603652954 -0.886451780796051 -0.36718061566352844 -0.8864517211914062 -0.28174760937690735 -0.36718058586120605 -0.886451780796051 -0.3671802282333374 -0.28174787759780884 -0.2817474603652954 -0.886451780796051 0.36718058586120605 -0.3671802580356598 -0.886451780796051 0.2817477285861969 -0.36718034744262695 -0.28174757957458496 0.8864518404006958 -0.28174757957458496 -0.36718037724494934 0.8864519000053406 -0.8864518404006958 -0.36718031764030457 0.28174787759780884 -0.886451780796051 -0.28174763917922974 0.36718058586120605 -0.36718034744262695 0.28174757957458496 -0.8864518404006958 -0.28174757957458496 0.36718037724494934 -0.8864519000053406 -0.8864518404006958 0.36718031764030457 -0.28174787759780884 -0.886451780796051 0.28174763917922974 -0.36718058586120605 -0.2817474603652954 0.886451780796051 -0.36718058586120605 -0.3671802580356598 0.886451780796051 -0.2817477285861969 -0.28174757957458496 0.36718034744262695 0.8864519000053406 -0.36718037724494934 0.28174757957458496 0.8864519000053406 -0.367180198431015 0.8864519000053406 0.28174784779548645 -0.2817474603652954 0.886451780796051 0.36718061566352844 -0.8864517211914062 0.28174760937690735 0.36718058586120605 -0.886451780796051 0.3671802282333374 0.28174787759780884 0.36718034744262695 -0.28174757957458496 -0.8864518404006958 0.28174757957458496 -0.36718037724494934 -0.8864519000053406 0.8864518404006958 -0.36718031764030457 -0.28174787759780884 0.886451780796051 -0.28174763917922974 -0.36718058586120605 0.2817474603652954 -0.886451780796051 -0.36718058586120605 0.3671802580356598 -0.886451780796051 -0.2817477285861969 0.28174757957458496 -0.36718034744262695 0.8864519000053406 0.36718037724494934 -0.28174757957458496 0.8864519000053406 0.367180198431015 -0.8864519000053406 0.28174784779548645 0.2817474603652954 -0.886451780796051 0.36718061566352844 0.8864517211914062 -0.28174760937690735 0.36718058586120605 0.886451780796051 -0.3671802282333374 0.28174787759780884 0.28174757957458496 0.36718034744262695 -0.8864519000053406 0.36718037724494934 0.28174757957458496 -0.8864519000053406 0.367180198431015 0.8864519000053406 -0.28174784779548645 0.2817474603652954 0.886451780796051 -0.36718061566352844 0.8864517211914062 0.28174760937690735 -0.36718058586120605 0.886451780796051 0.3671802282333374 -0.28174787759780884 0.36718034744262695 0.28174757957458496 0.8864518404006958 0.28174757957458496 0.36718037724494934 0.8864519000053406 0.8864518404006958 0.36718031764030457 0.28174787759780884 0.886451780796051 0.28174763917922974 0.36718058586120605 0.2817474603652954 0.886451780796051 0.36718058586120605 0.3671802580356598 0.886451780796051 0.2817477285861969 -0.3826834261417389 0.0 -0.9238795638084412 -0.3826834261417389 0.0 -0.9238795042037964 -0.9238793849945068 0.0 -0.3826836049556732 -0.9238795042037964 0.0 -0.3826836943626404 -0.3826833665370941 -0.9238796234130859 0.0 -0.38268327713012695 -0.9238796234130859 3.210559595956397e-09 -0.9238795042037964 -0.3826833665370941 1.3298570022968192e-09 -0.9238796234130859 -0.3826833665370941 0.0 -0.3826834261417389 0.0 0.9238795638084412 -0.3826834261417389 0.0 0.9238795042037964 -0.9238793849945068 0.0 0.3826836049556732 -0.9238795042037964 0.0 0.3826836943626404 -0.3826833665370941 0.9238796234130859 0.0 -0.38268327713012695 0.9238796234130859 -3.210559595956397e-09 -0.9238795042037964 0.3826833665370941 -1.3298570022968192e-09 -0.9238796234130859 0.3826833665370941 0.0 7.1280332747392094e-09 0.3826833665370941 -0.9238795638084412 0.0 0.38268333673477173 -0.9238795638084412 0.0 0.9238794445991516 -0.382683664560318 0.0 0.9238794445991516 -0.382683664560318 -7.1280332747392094e-09 0.3826833665370941 0.9238795638084412 0.0 0.38268333673477173 0.9238795638084412 0.0 0.9238794445991516 0.382683664560318 0.0 0.9238794445991516 0.382683664560318 0.9238796234130859 0.3826833665370941 0.0 0.9238795042037964 0.3826833665370941 1.3298570022968192e-09 0.38268327713012695 0.9238796234130859 3.210559595956397e-09 0.3826833665370941 0.9238796234130859 0.0 0.3826834261417389 0.0 -0.9238795638084412 0.3826834261417389 0.0 -0.9238795042037964 0.9238793849945068 0.0 -0.3826836049556732 0.9238795042037964 0.0 -0.3826836943626404 0.3826834261417389 0.0 0.9238795638084412 0.3826834261417389 0.0 0.9238795042037964 0.9238793849945068 0.0 0.3826836049556732 0.9238795042037964 0.0 0.3826836943626404 0.3826833665370941 -0.9238796234130859 0.0 0.38268327713012695 -0.9238796234130859 -3.210559595956397e-09 0.9238795042037964 -0.3826833665370941 -1.3298570022968192e-09 0.9238796234130859 -0.3826833665370941 0.0 -7.1280332747392094e-09 -0.3826833665370941 -0.9238795638084412 0.0 -0.38268333673477173 -0.9238795638084412 0.0 -0.9238794445991516 -0.382683664560318 0.0 -0.9238794445991516 -0.382683664560318 7.1280332747392094e-09 -0.3826833665370941 0.9238795638084412 0.0 -0.38268333673477173 0.9238795638084412 0.0 -0.9238794445991516 0.382683664560318 0.0 -0.9238794445991516 0.382683664560318 0.0 0.0 -1.0 0.0 0.0 -1.0 -1.0 0.0 0.0 -1.0 0.0 0.0 0.0 -1.0 0.0 0.0 -1.0 0.0 0.0 0.0 1.0 0.0 0.0 1.0 0.0 1.0 0.0 0.0 1.0 0.0 1.0 0.0 0.0 1.0 0.0 0.0</float_array><technique_common><accessor source="#mesh3-normals-array" count="108" stride="3"><param name="X" type="float" /><param name="Y" type="float" /><param name="Z" type="float" /></accessor></technique_common></source><vertices id="mesh3-vertices"><input semantic="POSITION" source="#mesh3-positions" /></vertices><triangles count="108" material="titanium"><input semantic="VERTEX" source="#mesh3-vertices" offset="0" /><input semantic="NORMAL" source="#mesh3-normals" offset="1" /><p>0 0 3 0 4 0 0 1 4 1 6 1 1 2 5 2 4 2 1 3 4 3 3 3 2 4 6 4 4 4 2 5 4 5 5 5 7 6 10 6 11 6 7 7 11 7 13 7 8 8 12 8 11 8 8 9 11 9 10 9 9 10 13 10 11 10 9 11 11 11 12 11 14 12 17 12 18 12 14 13 18 13 20 13 15 14 19 14 18 14 15 15 18 15 17 15 16 16 20 16 18 16 16 17 18 17 19 17 21 18 24 18 25 18 21 19 25 19 27 19 22 20 26 20 25 20 22 21 25 21 24 21 23 22 27 22 25 22 23 23 25 23 26 23 28 24 31 24 32 24 28 25 32 25 34 25 29 26 33 26 32 26 29 27 32 27 31 27 30 28 34 28 32 28 30 29 32 29 33 29 35 30 38 30 39 30 35 31 39 31 41 31 36 32 40 32 39 32 36 33 39 33 38 33 37 34 41 34 39 34 37 35 39 35 40 35 42 36 45 36 46 36 42 37 46 37 48 37 43 38 47 38 46 38 43 39 46 39 45 39 44 40 48 40 46 40 44 41 46 41 47 41 49 42 52 42 53 42 49 43 53 43 55 43 50 44 54 44 53 44 50 45 53 45 52 45 51 46 55 46 53 46 51 47 53 47 54 47 14 48 0 48 6 48 14 49 6 49 17 49 17 50 6 50 2 50 17 51 2 51 15 51 1 52 7 52 13 52 1 53 13 53 5 53 5 54 13 54 9 54 5 55 9 55 2 55 8 56 21 56 27 56 8 57 27 57 12 57 12 58 27 58 23 58 12 59 23 59 9 59 22 60 16 60 19 60 22 61 19 61 26 61 26 62 19 62 15 62 26 63 15 63 23 63 42 64 14 64 20 64 42 65 20 65 45 65 45 66 20 66 16 66 45 67 16 67 43 67 21 68 49 68 55 68 21 69 55 69 24 69 24 70 55 70 51 70 24 71 51 71 22 71 50 72 44 72 47 72 50 73 47 73 54 73 54 74 47 74 43 74 54 75 43 75 51 75 28 76 42 76 48 76 28 77 48 77 31 77 31 78 48 78 44 78 31 79 44 79 29 79 49 80 35 80 41 80 49 81 41 81 52 81 52 82 41 82 37 82 52 83 37 83 50 83 36 84 30 84 33 84 36 85 33 85 40 85 40 86 33 86 29 86 40 87 29 87 37 87 0 88 28 88 34 88 0 89 34 89 3 89 3 90 34 90 30 90 3 91 30 91 1 91 35 92 8 92 10 92 35 93 10 93 38 93 38 94 10 94 7 94 38 95 7 95 36 95 14 96 42 96 28 96 14 97 28 97 0 97 2 98 9 98 23 98 2 99 23 99 15 99 30 100 36 100 7 100 30 101 7 101 1 101 49 102 21 102 8 102 49 103 8 103 35 103 16 104 22 104 51 104 16 105 51 105 43 105 44 106 50 106 37 106 44 107 37 107 29 107</p></triangles></mesh></geometry><geometry id="mesh4"><mesh><source id="mesh4-positions"><float_array id="mesh4-array" count="144">-0.03500000014901161 -0.06399999558925629 -0.1899999976158142 -0.03500000014901161 -0.06400000303983688 -0.2800000011920929 -0.032670628279447556 -0.0636933222413063 -0.1899999976158142 -0.032670628279447556 -0.0636933371424675 -0.2800000011920929 -0.030500000342726707 -0.06279422342777252 -0.1899999976158142 -0.030500000342726707 -0.06279423832893372 -0.2800000011920929 -0.028636040166020393 -0.06136395409703255 -0.1899999976158142 -0.028636040166020393 -0.06136396527290344 -0.2800000011920929 -0.027205772697925568 -0.05949999392032623 -0.1899999976158142 -0.027205772697925568 -0.05950000509619713 -0.2800000011920929 -0.026306668296456337 -0.057329364120960236 -0.1899999976158142 -0.026306668296456337 -0.05732937902212143 -0.2800000011920929 -0.026000000536441803 -0.05499999225139618 -0.1899999976158142 -0.026000000536441803 -0.05500000715255737 -0.2800000011920929 -0.026306668296456337 -0.05267062038183212 -0.1899999976158142 -0.026306668296456337 -0.05267063528299332 -0.2800000011920929 -0.027205772697925568 -0.050499994307756424 -0.1899999976158142 -0.027205772697925568 -0.05050000548362732 -0.2800000011920929 -0.028636040166020393 -0.04863603413105011 -0.1899999976158142 -0.028636040166020393 -0.048636045306921005 -0.2800000011920929 -0.030500000342726707 -0.047205764800310135 -0.1899999976158142 -0.030500000342726707 -0.04720577970147133 -0.2800000011920929 -0.032670628279447556 -0.04630666226148605 -0.1899999976158142 -0.032670628279447556 -0.04630667343735695 -0.2800000011920929 -0.03500000014901161 -0.04599999263882637 -0.1899999976158142 -0.03500000014901161 -0.046000007539987564 -0.2800000011920929 -0.03732937201857567 -0.04630666226148605 -0.1899999976158142 -0.03732937201857567 -0.04630667343735695 -0.2800000011920929 -0.03949999809265137 -0.047205764800310135 -0.1899999976158142 -0.03949999809265137 -0.04720577970147133 -0.2800000011920929 -0.04136396199464798 -0.04863603413105011 -0.1899999976158142 -0.04136396199464798 -0.048636045306921005 -0.2800000011920929 -0.042794227600097656 -0.050499994307756424 -0.1899999976158142 -0.042794227600097656 -0.05050000548362732 -0.2800000011920929 -0.043693333864212036 -0.05267062038183212 -0.1899999976158142 -0.043693333864212036 -0.05267063528299332 -0.2800000011920929 -0.04399999976158142 -0.05499999225139618 -0.1899999976158142 -0.04399999976158142 -0.05500000715255737 -0.2800000011920929 -0.043693333864212036 -0.057329364120960236 -0.1899999976158142 -0.043693333864212036 -0.05732937902212143 -0.2800000011920929 -0.042794227600097656 -0.05949999392032623 -0.1899999976158142 -0.042794227600097656 -0.05950000509619713 -0.2800000011920929 -0.04136396199464798 -0.06136395409703255 -0.1899999976158142 -0.04136396199464798 -0.06136396527290344 -0.2800000011920929 -0.03949999809265137 -0.06279422342777252 -0.1899999976158142 -0.03949999809265137 -0.06279423832893372 -0.2800000011920929 -0.03732937201857567 -0.0636933222413063 -0.1899999976158142 -0.03732937201857567 -0.0636933371424675 -0.2800000011920929</float_array><technique_common><accessor source="#mesh4-array" count="48" stride="3"><param name="X" type="float" /><param name="Y" type="float" /><param name="Z" type="float" /></accessor></technique_common></source><source id="mesh4-normals"><float_array id="mesh4-normals-array" count="276">0.13052627444267273 -0.9914448261260986 1.4970400741276535e-07 0.13052627444267273 -0.9914448261260986 1.4970400741276535e-07 0.38268333673477173 -0.9238795638084412 1.3950193533673882e-07 0.38268333673477173 -0.9238795638084412 1.3950193533673882e-07 0.6087616086006165 -0.7933531999588013 1.1979300040820817e-07 0.6087616086006165 -0.7933531999588013 1.1979300040820817e-07 0.7933531999588013 -0.6087616086006165 9.192044814199107e-08 0.7933531999588013 -0.6087616086006165 9.192044814199107e-08 0.9238795638084412 -0.38268333673477173 5.778357703434267e-08 0.9238795638084412 -0.38268333673477173 5.778357703434267e-08 0.9914448261260986 -0.13052627444267273 1.9708918941319098e-08 0.9914448261260986 -0.13052627444267273 1.9708918941319098e-08 0.9914448261260986 0.13052627444267273 -1.9708918941319098e-08 0.9914448261260986 0.13052627444267273 -1.9708918941319098e-08 0.9238795638084412 0.38268333673477173 -5.778357703434267e-08 0.9238795638084412 0.38268333673477173 -5.778357703434267e-08 0.7933531999588013 0.6087616086006165 -9.192044814199107e-08 0.7933531999588013 0.6087616086006165 -9.192044814199107e-08 0.6087616086006165 0.7933531999588013 -1.1979300040820817e-07 0.6087616086006165 0.7933531999588013 -1.1979300040820817e-07 0.38268333673477173 0.9238795638084412 -1.3950193533673882e-07 0.38268333673477173 0.9238795638084412 -1.3950193533673882e-07 0.13052627444267273 0.9914448261260986 -1.4970400741276535e-07 0.13052627444267273 0.9914448261260986 -1.4970400741276535e-07 -0.13052627444267273 0.9914448261260986 -1.4970400741276535e-07 -0.13052627444267273 0.9914448261260986 -1.4970400741276535e-07 -0.38268333673477173 0.9238795638084412 -1.3950193533673882e-07 -0.38268333673477173 0.9238795638084412 -1.3950193533673882e-07 -0.6087616086006165 0.7933531999588013 -1.1979300040820817e-07 -0.6087616086006165 0.7933531999588013 -1.1979300040820817e-07 -0.7933531999588013 0.6087616086006165 -9.192044814199107e-08 -0.7933531999588013 0.6087616086006165 -9.192044814199107e-08 -0.9238795638084412 0.38268333673477173 -5.778357703434267e-08 -0.9238795638084412 0.38268333673477173 -5.778357703434267e-08 -0.9914448261260986 0.13052627444267273 -1.9708918941319098e-08 -0.9914448261260986 0.13052627444267273 -1.9708918941319098e-08 -0.9914448261260986 -0.13052627444267273 1.9708918941319098e-08 -0.9914448261260986 -0.13052627444267273 1.9708918941319098e-08 -0.9238795638084412 -0.38268333673477173 5.778357703434267e-08 -0.9238795638084412 -0.38268333673477173 5.778357703434267e-08 -0.7933531999588013 -0.6087616086006165 9.192044814199107e-08 -0.7933531999588013 -0.6087616086006165 9.192044814199107e-08 -0.6087616086006165 -0.7933531999588013 1.1979300040820817e-07 -0.6087616086006165 -0.7933531999588013 1.1979300040820817e-07 0.0 -1.5099580252808664e-07 -1.0 0.0 -1.5099580252808664e-07 -1.0 0.0 -1.5099580252808664e-07 -1.0 0.0 -1.5099580252808664e-07 -1.0 0.0 -1.5099580252808664e-07 -1.0 0.0 -1.5099580252808664e-07 -1.0 0.0 -1.5099580252808664e-07 -1.0 0.0 -1.5099580252808664e-07 -1.0 0.0 -1.5099580252808664e-07 -1.0 0.0 -1.5099580252808664e-07 -1.0 0.0 -1.5099580252808664e-07 -1.0 0.0 -1.5099580252808664e-07 -1.0 0.0 -1.5099580252808664e-07 -1.0 0.0 -1.5099580252808664e-07 -1.0 0.0 -1.5099580252808664e-07 -1.0 0.0 -1.5099580252808664e-07 -1.0 0.0 -1.5099580252808664e-07 -1.0 0.0 -1.5099580252808664e-07 -1.0 0.0 -1.5099580252808664e-07 -1.0 0.0 -1.5099580252808664e-07 -1.0 0.0 -1.5099580252808664e-07 -1.0 0.0 -1.5099580252808664e-07 -1.0 -0.38268333673477173 -0.9238795638084412 1.3950193533673882e-07 -0.38268333673477173 -0.9238795638084412 1.3950193533673882e-07 -0.13052627444267273 -0.9914448261260986 1.4970400741276535e-07 -0.13052627444267273 -0.9914448261260986 1.4970400741276535e-07 0.0 1.5099580252808664e-07 1.0 0.0 1.5099580252808664e-07 1.0 0.0 1.5099580252808664e-07 1.0 0.0 1.5099580252808664e-07 1.0 0.0 1.5099580252808664e-07 1.0 0.0 1.5099580252808664e-07 1.0 0.0 1.5099580252808664e-07 1.0 0.0 1.5099580252808664e-07 1.0 0.0 1.5099580252808664e-07 1.0 0.0 1.5099580252808664e-07 1.0 0.0 1.5099580252808664e-07 1.0 0.0 1.5099580252808664e-07 1.0 0.0 1.5099580252808664e-07 1.0 0.0 1.5099580252808664e-07 1.0 0.0 1.5099580252808664e-07 1.0 0.0 1.5099580252808664e-07 1.0 0.0 1.5099580252808664e-07 1.0 0.0 1.5099580252808664e-07 1.0 0.0 1.5099580252808664e-07 1.0 0.0 1.5099580252808664e-07 1.0 0.0 1.5099580252808664e-07 1.0 0.0 1.5099580252808664e-07 1.0</float_array><technique_common><accessor source="#mesh4-normals-array" count="92" stride="3"><param name="X" type="float" /><param name="Y" type="float" /><param name="Z" type="float" /></accessor></technique_common></source><vertices id="mesh4-vertices"><input semantic="POSITION" source="#mesh4-positions" /></vertices><triangles count="92" material="titanium"><input semantic="VERTEX" source="#mesh4-vertices" offset="0" /><input semantic="NORMAL" source="#mesh4-normals" offset="1" /><p>0 0 1 0 3 0 0 1 3 1 2 1 2 2 3 2 5 2 2 3 5 3 4 3 4 4 5 4 7 4 4 5 7 5 6 5 6 6 7 6 9 6 6 7 9 7 8 7 8 8 9 8 11 8 8 9 11 9 10 9 10 10 11 10 13 10 10 11 13 11 12 11 12 12 13 12 15 12 12 13 15 13 14 13 14 14 15 14 17 14 14 15 17 15 16 15 16 16 17 16 19 16 16 17 19 17 18 17 18 18 19 18 21 18 18 19 21 19 20 19 20 20 21 20 23 20 20 21 23 21 22 21 22 22 23 22 25 22 22 23 25 23 24 23 24 24 25 24 27 24 24 25 27 25 26 25 26 26 27 26 29 26 26 27 29 27 28 27 28 28 29 28 31 28 28 29 31 29 30 29 30 30 31 30 33 30 30 31 33 31 32 31 32 32 33 32 35 32 32 33 35 33 34 33 34 34 35 34 37 34 34 35 37 35 36 35 36 36 37 36 39 36 36 37 39 37 38 37 38 38 39 38 41 38 38 39 41 39 40 39 40 40 41 40 43 40 40 41 43 41 42 41 42 42 43 42 45 42 42 43 45 43 44 43 5 44 3 44 1 44 1 45 47 45 45 45 45 46 43 46 41 46 41 47 39 47 37 47 37 48 35 48 33 48 33 49 31 49 29 49 29 50 27 50 25 50 25 51 23 51 21 51 21 52 19 52 17 52 17 53 15 53 13 53 13 54 11 54 9 54 9 55 7 55 5 55 5 56 1 56 45 56 45 57 41 57 37 57 37 58 33 58 29 58 29 59 25 59 21 59 21 60 17 60 13 60 13 61 9 61 5 61 5 62 45 62 37 62 37 63 29 63 21 63 21 64 13 64 5 64 37 65 21 65 5 65 44 66 45 66 47 66 44 67 47 67 46 67 46 68 47 68 1 68 46 69 1 69 0 69 46 70 0 70 2 70 2 71 4 71 6 71 6 72 8 72 10 72 10 73 12 73 14 73 14 74 16 74 18 74 18 75 20 75 22 75 22 76 24 76 26 76 26 77 28 77 30 77 30 78 32 78 34 78 34 79 36 79 38 79 38 80 40 80 42 80 42 81 44 81 46 81 46 82 2 82 6 82 6 83 10 83 14 83 14 84 18 84 22 84 22 85 26 85 30 85 30 86 34 86 38 86 38 87 42 87 46 87 46 88 6 88 14 88 14 89 22 89 30 89 30 90 38 90 46 90 14 91 30 91 46 91</p></triangles></mesh></geometry><geometry id="mesh5"><mesh><source id="mesh5-positions"><float_array id="mesh5-array" count="144">-0.03500000014901161 0.046000007539987564 -0.1899999976158142 -0.03500000014901161 0.04599999263882637 -0.2800000011920929 -0.032670628279447556 0.04630667343735695 -0.1899999976158142 -0.032670628279447556 0.04630666226148605 -0.2800000011920929 -0.030500000342726707 0.04720577970147133 -0.1899999976158142 -0.030500000342726707 0.047205764800310135 -0.2800000011920929 -0.028636040166020393 0.048636045306921005 -0.1899999976158142 -0.028636040166020393 0.04863603413105011 -0.2800000011920929 -0.027205772697925568 0.05050000548362732 -0.1899999976158142 -0.027205772697925568 0.050499994307756424 -0.2800000011920929 -0.026306668296456337 0.05267063528299332 -0.1899999976158142 -0.026306668296456337 0.05267062038183212 -0.2800000011920929 -0.026000000536441803 0.05500000715255737 -0.1899999976158142 -0.026000000536441803 0.05499999225139618 -0.2800000011920929 -0.026306668296456337 0.05732937902212143 -0.1899999976158142 -0.026306668296456337 0.057329364120960236 -0.2800000011920929 -0.027205772697925568 0.05950000509619713 -0.1899999976158142 -0.027205772697925568 0.05949999392032623 -0.2800000011920929 -0.028636040166020393 0.06136396527290344 -0.1899999976158142 -0.028636040166020393 0.06136395409703255 -0.2800000011920929 -0.030500000342726707 0.06279423832893372 -0.1899999976158142 -0.030500000342726707 0.06279422342777252 -0.2800000011920929 -0.032670628279447556 0.0636933371424675 -0.1899999976158142 -0.032670628279447556 0.0636933222413063 -0.2800000011920929 -0.03500000014901161 0.06400000303983688 -0.1899999976158142 -0.03500000014901161 0.06399999558925629 -0.2800000011920929 -0.03732937201857567 0.0636933371424675 -0.1899999976158142 -0.03732937201857567 0.0636933222413063 -0.2800000011920929 -0.03949999809265137 0.06279423832893372 -0.1899999976158142 -0.03949999809265137 0.06279422342777252 -0.2800000011920929 -0.04136396199464798 0.06136396527290344 -0.1899999976158142 -0.04136396199464798 0.06136395409703255 -0.2800000011920929 -0.042794227600097656 0.05950000509619713 -0.1899999976158142 -0.042794227600097656 0.05949999392032623 -0.2800000011920929 -0.043693333864212036 0.05732937902212143 -0.1899999976158142 -0.043693333864212036 0.057329364120960236 -0.2800000011920929 -0.04399999976158142 0.05500000715255737 -0.1899999976158142 -0.04399999976158142 0.05499999225139618 -0.2800000011920929 -0.043693333864212036 0.05267063528299332 -0.1899999976158142 -0.043693333864212036 0.05267062038183212 -0.2800000011920929 -0.042794227600097656 0.05050000548362732 -0.1899999976158142 -0.042794227600097656 0.050499994307756424 -0.2800000011920929 -0.04136396199464798 0.048636045306921005 -0.1899999976158142 -0.04136396199464798 0.04863603413105011 -0.2800000011920929 -0.03949999809265137 0.04720577970147133 -0.1899999976158142 -0.03949999809265137 0.047205764800310135 -0.2800000011920929 -0.03732937201857567 0.04630667343735695 -0.1899999976158142 -0.03732937201857567 0.04630666226148605 -0.2800000011920929</float_array><technique_common><accessor source="#mesh5-array" count="48" stride="3"><param name="X" type="float" /><param name="Y" type="float" /><param name="Z" type="float" /></accessor></technique_common></source><source id="mesh5-normals"><float_array id="mesh5-normals-array" count="276">0.13052627444267273 -0.9914448261260986 1.4970400741276535e-07 0.13052627444267273 -0.9914448261260986 1.4970400741276535e-07 0.38268333673477173 -0.9238795638084412 1.3950193533673882e-07 0.38268333673477173 -0.9238795638084412 1.3950193533673882e-07 0.6087616086006165 -0.7933531999588013 1.1979300040820817e-07 0.6087616086006165 -0.7933531999588013 1.1979300040820817e-07 0.7933531999588013 -0.6087616086006165 9.192044814199107e-08 0.7933531999588013 -0.6087616086006165 9.192044814199107e-08 0.9238795638084412 -0.38268333673477173 5.778357703434267e-08 0.9238795638084412 -0.38268333673477173 5.778357703434267e-08 0.9914448261260986 -0.13052627444267273 1.9708918941319098e-08 0.9914448261260986 -0.13052627444267273 1.9708918941319098e-08 0.9914448261260986 0.13052627444267273 -1.9708918941319098e-08 0.9914448261260986 0.13052627444267273 -1.9708918941319098e-08 0.9238795638084412 0.38268333673477173 -5.778357703434267e-08 0.9238795638084412 0.38268333673477173 -5.778357703434267e-08 0.7933531999588013 0.6087616086006165 -9.192044814199107e-08 0.7933531999588013 0.6087616086006165 -9.192044814199107e-08 0.6087616086006165 0.7933531999588013 -1.1979300040820817e-07 0.6087616086006165 0.7933531999588013 -1.1979300040820817e-07 0.38268333673477173 0.9238795638084412 -1.3950193533673882e-07 0.38268333673477173 0.9238795638084412 -1.3950193533673882e-07 0.13052627444267273 0.9914448261260986 -1.4970400741276535e-07 0.13052627444267273 0.9914448261260986 -1.4970400741276535e-07 -0.13052627444267273 0.9914448261260986 -1.4970400741276535e-07 -0.13052627444267273 0.9914448261260986 -1.4970400741276535e-07 -0.38268333673477173 0.9238795638084412 -1.3950193533673882e-07 -0.38268333673477173 0.9238795638084412 -1.3950193533673882e-07 -0.6087616086006165 0.7933531999588013 -1.1979300040820817e-07 -0.6087616086006165 0.7933531999588013 -1.1979300040820817e-07 -0.7933531999588013 0.6087616086006165 -9.192044814199107e-08 -0.7933531999588013 0.6087616086006165 -9.192044814199107e-08 -0.9238795638084412 0.38268333673477173 -5.778357703434267e-08 -0.9238795638084412 0.38268333673477173 -5.778357703434267e-08 -0.9914448261260986 0.13052627444267273 -1.9708918941319098e-08 -0.9914448261260986 0.13052627444267273 -1.9708918941319098e-08 -0.9914448261260986 -0.13052627444267273 1.9708918941319098e-08 -0.9914448261260986 -0.13052627444267273 1.9708918941319098e-08 -0.9238795638084412 -0.38268333673477173 5.778357703434267e-08 -0.9238795638084412 -0.38268333673477173 5.778357703434267e-08 -0.7933531999588013 -0.6087616086006165 9.192044814199107e-08 -0.7933531999588013 -0.6087616086006165 9.192044814199107e-08 -0.6087616086006165 -0.7933531999588013 1.1979300040820817e-07 -0.6087616086006165 -0.7933531999588013 1.1979300040820817e-07 0.0 -1.5099580252808664e-07 -1.0 0.0 -1.5099580252808664e-07 -1.0 0.0 -1.5099580252808664e-07 -1.0 0.0 -1.5099580252808664e-07 -1.0 0.0 -1.5099580252808664e-07 -1.0 0.0 -1.5099580252808664e-07 -1.0 0.0 -1.5099580252808664e-07 -1.0 0.0 -1.5099580252808664e-07 -1.0 0.0 -1.5099580252808664e-07 -1.0 0.0 -1.5099580252808664e-07 -1.0 0.0 -1.5099580252808664e-07 -1.0 0.0 -1.5099580252808664e-07 -1.0 0.0 -1.5099580252808664e-07 -1.0 0.0 -1.5099580252808664e-07 -1.0 0.0 -1.5099580252808664e-07 -1.0 0.0 -1.5099580252808664e-07 -1.0 0.0 -1.5099580252808664e-07 -1.0 0.0 -1.5099580252808664e-07 -1.0 0.0 -1.5099580252808664e-07 -1.0 0.0 -1.5099580252808664e-07 -1.0 0.0 -1.5099580252808664e-07 -1.0 0.0 -1.5099580252808664e-07 -1.0 -0.38268333673477173 -0.9238795638084412 1.3950193533673882e-07 -0.38268333673477173 -0.9238795638084412 1.3950193533673882e-07 -0.13052627444267273 -0.9914448261260986 1.4970400741276535e-07 -0.13052627444267273 -0.9914448261260986 1.4970400741276535e-07 0.0 1.5099580252808664e-07 1.0 0.0 1.5099580252808664e-07 1.0 0.0 1.5099580252808664e-07 1.0 0.0 1.5099580252808664e-07 1.0 0.0 1.5099580252808664e-07 1.0 0.0 1.5099580252808664e-07 1.0 0.0 1.5099580252808664e-07 1.0 0.0 1.5099580252808664e-07 1.0 0.0 1.5099580252808664e-07 1.0 0.0 1.5099580252808664e-07 1.0 0.0 1.5099580252808664e-07 1.0 0.0 1.5099580252808664e-07 1.0 0.0 1.5099580252808664e-07 1.0 0.0 1.5099580252808664e-07 1.0 0.0 1.5099580252808664e-07 1.0 0.0 1.5099580252808664e-07 1.0 0.0 1.5099580252808664e-07 1.0 0.0 1.5099580252808664e-07 1.0 0.0 1.5099580252808664e-07 1.0 0.0 1.5099580252808664e-07 1.0 0.0 1.5099580252808664e-07 1.0 0.0 1.5099580252808664e-07 1.0</float_array><technique_common><accessor source="#mesh5-normals-array" count="92" stride="3"><param name="X" type="float" /><param name="Y" type="float" /><param name="Z" type="float" /></accessor></technique_common></source><vertices id="mesh5-vertices"><input semantic="POSITION" source="#mesh5-positions" /></vertices><triangles count="92" material="titanium"><input semantic="VERTEX" source="#mesh5-vertices" offset="0" /><input semantic="NORMAL" source="#mesh5-normals" offset="1" /><p>0 0 1 0 3 0 0 1 3 1 2 1 2 2 3 2 5 2 2 3 5 3 4 3 4 4 5 4 7 4 4 5 7 5 6 5 6 6 7 6 9 6 6 7 9 7 8 7 8 8 9 8 11 8 8 9 11 9 10 9 10 10 11 10 13 10 10 11 13 11 12 11 12 12 13 12 15 12 12 13 15 13 14 13 14 14 15 14 17 14 14 15 17 15 16 15 16 16 17 16 19 16 16 17 19 17 18 17 18 18 19 18 21 18 18 19 21 19 20 19 20 20 21 20 23 20 20 21 23 21 22 21 22 22 23 22 25 22 22 23 25 23 24 23 24 24 25 24 27 24 24 25 27 25 26 25 26 26 27 26 29 26 26 27 29 27 28 27 28 28 29 28 31 28 28 29 31 29 30 29 30 30 31 30 33 30 30 31 33 31 32 31 32 32 33 32 35 32 32 33 35 33 34 33 34 34 35 34 37 34 34 35 37 35 36 35 36 36 37 36 39 36 36 37 39 37 38 37 38 38 39 38 41 38 38 39 41 39 40 39 40 40 41 40 43 40 40 41 43 41 42 41 42 42 43 42 45 42 42 43 45 43 44 43 5 44 3 44 1 44 1 45 47 45 45 45 45 46 43 46 41 46 41 47 39 47 37 47 37 48 35 48 33 48 33 49 31 49 29 49 29 50 27 50 25 50 25 51 23 51 21 51 21 52 19 52 17 52 17 53 15 53 13 53 13 54 11 54 9 54 9 55 7 55 5 55 5 56 1 56 45 56 45 57 41 57 37 57 37 58 33 58 29 58 29 59 25 59 21 59 21 60 17 60 13 60 13 61 9 61 5 61 5 62 45 62 37 62 37 63 29 63 21 63 21 64 13 64 5 64 37 65 21 65 5 65 44 66 45 66 47 66 44 67 47 67 46 67 46 68 47 68 1 68 46 69 1 69 0 69 46 70 0 70 2 70 2 71 4 71 6 71 6 72 8 72 10 72 10 73 12 73 14 73 14 74 16 74 18 74 18 75 20 75 22 75 22 76 24 76 26 76 26 77 28 77 30 77 30 78 32 78 34 78 34 79 36 79 38 79 38 80 40 80 42 80 42 81 44 81 46 81 46 82 2 82 6 82 6 83 10 83 14 83 14 84 18 84 22 84 22 85 26 85 30 85 30 86 34 86 38 86 38 87 42 87 46 87 46 88 6 88 14 88 14 89 22 89 30 89 30 90 38 90 46 90 14 91 30 91 46 91</p></triangles></mesh></geometry></library_geometries><library_visual_scenes><visual_scene id="Scene"><node id="mesh0-node"><instance_geometry url="#mesh0"><bind_material><technique_common><instance_material symbol="titanium" target="#titanium" /></technique_common></bind_material></instance_geometry></node><node id="mesh1-node"><instance_geometry url="#mesh1"><bind_material><technique_common><instance_material symbol="titanium" target="#titanium" /></technique_common></bind_material></instance_geometry></node><node id="mesh2-node"><instance_geometry url="#mesh2"><bind_material><technique_common><instance_material symbol="titanium" target="#titanium" /></technique_common></bind_material></instance_geometry></node><node id="mesh3-node"><instance_geometry url="#mesh3"><bind_material><technique_common><instance_material symbol="titanium" target="#titanium" /></technique_common></bind_material></instance_geometry></node><node id="mesh4-node"><instance_geometry url="#mesh4"><bind_material><technique_common><instance_material symbol="titanium" target="#titanium" /></technique_common></bind_material></instance_geometry></node><node id="mesh5-node"><instance_geometry url="#mesh5"><bind_material><technique_common><instance_material symbol="titanium" target="#titanium" /></technique_common></bind_material></instance_geometry></node></visual_scene></library_visual_scenes><scene><instance_visual_scene url="#Scene" /></scene></COLLADA>