<?xml version='1.0' encoding='utf-8'?>
<COLLADA xmlns="http://www.collada.org/2005/11/COLLADASchema" version="1.4.1"><asset><unit name="meter" meter="1" /><up_axis>Z_UP</up_axis></asset><library_effects><effect id="graphite-fx"><profile_COMMON><technique sid="common"><phong><emission><color>0 0 0 1</color></emission><ambient><color>0.065 0.075 0.085 1</color></ambient><diffuse><color>0.065 0.075 0.085 1</color></diffuse><specular><color>0.12 0.12 0.12 1</color></specular><shininess><float>25</float></shininess></phong></technique></profile_COMMON></effect><effect id="titanium-fx"><profile_COMMON><technique sid="common"><phong><emission><color>0 0 0 1</color></emission><ambient><color>0.36 0.4 0.43 1</color></ambient><diffuse><color>0.36 0.4 0.43 1</color></diffuse><specular><color>0.12 0.12 0.12 1</color></specular><shininess><float>25</float></shininess></phong></technique></profile_COMMON></effect><effect id="ivory-fx"><profile_COMMON><technique sid="common"><phong><emission><color>0 0 0 1</color></emission><ambient><color>0.72 0.72 0.65 1</color></ambient><diffuse><color>0.72 0.72 0.65 1</color></diffuse><specular><color>0.12 0.12 0.12 1</color></specular><shininess><float>25</float></shininess></phong></technique></profile_COMMON></effect><effect id="copper-fx"><profile_COMMON><technique sid="common"><phong><emission><color>0 0 0 1</color></emission><ambient><color>0.66 0.29 0.08 1</color></ambient><diffuse><color>0.66 0.29 0.08 1</color></diffuse><specular><color>0.12 0.12 0.12 1</color></specular><shininess><float>25</float></shininess></phong></technique></profile_COMMON></effect><effect id="rubber-fx"><profile_COMMON><technique sid="common"><phong><emission><color>0 0 0 1</color></emission><ambient><color>0.025 0.028 0.032 1</color></ambient><diffuse><color>0.025 0.028 0.032 1</color></diffuse><specular><color>0.12 0.12 0.12 1</color></specular><shininess><float>25</float></shininess></phong></technique></profile_COMMON></effect><effect id="lens-fx"><profile_COMMON><technique sid="common"><phong><emission><color>0 0 0 1</color></emission><ambient><color>0.05 0.26 0.33 1</color></ambient><diffuse><color>0.05 0.26 0.33 1</color></diffuse><specular><color>0.12 0.12 0.12 1</color></specular><shininess><float>25</float></shininess></phong></technique></profile_COMMON></effect></library_effects><library_materials><material id="graphite"><instance_effect url="#graphite-fx" /></material><material id="titanium"><instance_effect url="#titanium-fx" /></material><material id="ivory"><instance_effect url="#ivory-fx" /></material><material id="copper"><instance_effect url="#copper-fx" /></material><material id="rubber"><instance_effect url="#rubber-fx" /></material><material id="lens"><instance_effect url="#lens-fx" /></material></library_materials><library_geometries><geometry id="mesh0"><mesh><source id="mesh0-positions"><float_array id="mesh0-array" count="144">-5.28485388784361e-09 -0.050000011920928955 0.03500001132488251 -5.28485388784361e-09 0.05000000447034836 0.034999996423721313 -0.009058672934770584 -0.050000011920928955 0.033807411789894104 -0.009058672934770584 0.05000000447034836 0.03380740061402321 -0.017500007525086403 -0.050000011920928955 0.030310895293951035 -0.017500007525086403 0.05000000447034836 0.03031088225543499 -0.024748746305704117 -0.050000011920928955 0.024748744443058968 -0.024748746305704117 0.05000000447034836 0.024748729541897774 -0.030310897156596184 -0.050000011920928955 0.017500003799796104 -0.030310897156596184 0.05000000447034836 0.01749999076128006 -0.033807411789894104 -0.05000000819563866 0.009058669209480286 -0.033807411789894104 0.05000000819563866 0.009058655239641666 -0.03500000759959221 -0.05000000819563866 1.4330892028624476e-09 -0.03500000759959221 0.05000000819563866 -1.2002796978549668e-08 -0.033807411789894104 -0.05000000819563866 -0.009058665484189987 -0.033807411789894104 0.05000000819563866 -0.009058679454028606 -0.030310893431305885 -0.05000000447034836 -0.017500000074505806 -0.030310893431305885 0.050000011920928955 -0.01750001311302185 -0.02474873885512352 -0.05000000447034836 -0.02474873699247837 -0.02474873885512352 0.050000011920928955 -0.024748751893639565 -0.017500000074505806 -0.05000000447034836 -0.030310887843370438 -0.017500000074505806 0.050000011920928955 -0.030310900881886482 -0.009058663621544838 -0.05000000447034836 -0.03380740433931351 -0.009058663621544838 0.050000011920928955 -0.0338074155151844 5.28485388784361e-09 -0.05000000447034836 -0.034999996423721313 5.28485388784361e-09 0.050000011920928955 -0.03500001132488251 0.009058672934770584 -0.05000000447034836 -0.03380740061402321 0.009058672934770584 0.050000011920928955 -0.033807411789894104 0.017500007525086403 -0.05000000447034836 -0.03031088225543499 0.017500007525086403 0.050000011920928955 -0.030310895293951035 0.024748746305704117 -0.05000000447034836 -0.024748729541897774 0.024748746305704117 0.050000011920928955 -0.024748744443058968 0.030310897156596184 -0.05000000447034836 -0.01749999076128006 0.030310897156596184 0.050000011920928955 -0.017500003799796104 0.033807411789894104 -0.05000000819563866 -0.009058655239641666 0.033807411789894104 0.05000000819563866 -0.009058669209480286 0.03500000759959221 -0.05000000819563866 1.2002796978549668e-08 0.03500000759959221 0.05000000819563866 -1.4330892028624476e-09 0.033807411789894104 -0.05000000819563866 0.009058679454028606 0.033807411789894104 0.05000000819563866 0.009058665484189987 0.030310893431305885 -0.050000011920928955 0.01750001311302185 0.030310893431305885 0.05000000447034836 0.017500000074505806 0.02474873885512352 -0.050000011920928955 0.024748751893639565 0.02474873885512352 0.05000000447034836 0.02474873699247837 0.017500000074505806 -0.050000011920928955 0.030310900881886482 0.017500000074505806 0.05000000447034836 0.030310887843370438 0.009058663621544838 -0.050000011920928955 0.0338074155151844 0.009058663621544838 0.05000000447034836 0.03380740433931351</float_array><technique_common><accessor source="#mesh0-array" count="48" stride="3"><param name="X" type="float" /><param name="Y" type="float" /><param name="Z" type="float" /></accessor></technique_common></source><source id="mesh0-normals"><float_array id="mesh0-normals-array" count="276">-0.13052628934383392 1.3320936886884738e-07 0.9914448857307434 -0.13052628934383392 1.3320936886884738e-07 0.9914448857307434 -0.38268372416496277 1.2413136118993862e-07 0.9238795042037964 -0.38268372416496277 1.2413136118993862e-07 0.9238795042037964 -0.6087615489959717 1.0659402960300213e-07 0.7933533191680908 -0.6087615489959717 1.0659402960300213e-07 0.7933533191680908 -0.7933534383773804 8.17924572515949e-08 0.6087613105773926 -0.7933534383773804 8.17924572515949e-08 0.6087613105773926 -0.9238796234130859 5.141691161725248e-08 0.38268351554870605 -0.9238796234130859 5.141691161725248e-08 0.38268351554870605 -0.9914448857307434 1.7537322705152292e-08 0.13052602112293243 -0.9914448857307434 1.7537322705152292e-08 0.13052602112293243 -0.9914448857307434 -1.753736178500276e-08 -0.1305263191461563 -0.9914448857307434 -1.753736178500276e-08 -0.1305263191461563 -0.9238793849945068 -5.141694003896191e-08 -0.38268375396728516 -0.9238793849945068 -5.141694003896191e-08 -0.38268375396728516 -0.793353259563446 -8.179249988415904e-08 -0.6087616086006165 -0.793353259563446 -8.179249988415904e-08 -0.6087616086006165 -0.6087612509727478 -1.0659404381385684e-07 -0.7933534979820251 -0.6087612509727478 -1.0659404381385684e-07 -0.7933534979820251 -0.3826834261417389 -1.2413138961164805e-07 -0.9238796234130859 -0.3826834261417389 -1.2413138961164805e-07 -0.9238796234130859 -0.13052599132061005 -1.3320936886884738e-07 -0.9914448857307434 -0.13052599132061005 -1.3320936886884738e-07 -0.9914448857307434 0.13052628934383392 -1.3320936886884738e-07 -0.9914448857307434 0.13052628934383392 -1.3320936886884738e-07 -0.9914448857307434 0.38268372416496277 -1.2413136118993862e-07 -0.9238795042037964 0.38268372416496277 -1.2413136118993862e-07 -0.9238795042037964 0.6087615489959717 -1.0659402960300213e-07 -0.7933533191680908 0.6087615489959717 -1.0659402960300213e-07 -0.7933533191680908 0.7933534383773804 -8.17924572515949e-08 -0.6087613105773926 0.7933534383773804 -8.17924572515949e-08 -0.6087613105773926 0.9238796234130859 -5.141691161725248e-08 -0.38268351554870605 0.9238796234130859 -5.141691161725248e-08 -0.38268351554870605 0.9914448857307434 -1.7537322705152292e-08 -0.13052602112293243 0.9914448857307434 -1.7537322705152292e-08 -0.13052602112293243 0.9914448857307434 1.753736178500276e-08 0.1305263191461563 0.9914448857307434 1.753736178500276e-08 0.1305263191461563 0.9238793849945068 5.141694003896191e-08 0.38268375396728516 0.9238793849945068 5.141694003896191e-08 0.38268375396728516 0.793353259563446 8.179249988415904e-08 0.6087616086006165 0.793353259563446 8.179249988415904e-08 0.6087616086006165 0.6087612509727478 1.0659404381385684e-07 0.7933534979820251 0.6087612509727478 1.0659404381385684e-07 0.7933534979820251 -2.028761815660307e-14 1.0 1.343588280633412e-07 -2.028761815660307e-14 1.0 1.343588280633412e-07 -2.028761815660307e-14 1.0 1.343588280633412e-07 -2.028761815660307e-14 1.0 1.343588280633412e-07 -2.028761815660307e-14 1.0 1.343588280633412e-07 -2.028761815660307e-14 1.0 1.343588280633412e-07 -2.028761815660307e-14 1.0 1.343588280633412e-07 -2.028761815660307e-14 1.0 1.343588280633412e-07 -2.028761815660307e-14 1.0 1.343588280633412e-07 -2.028761815660307e-14 1.0 1.343588280633412e-07 -2.028761815660307e-14 1.0 1.343588280633412e-07 -2.028761815660307e-14 1.0 1.343588280633412e-07 -2.0287619850668966e-14 1.0 1.343588280633412e-07 -2.028761815660307e-14 1.0 1.343588280633412e-07 -2.028761815660307e-14 1.0 1.343588280633412e-07 -2.0287619850668966e-14 1.0 1.343588280633412e-07 -2.028761815660307e-14 1.0 1.343588280633412e-07 -2.028761815660307e-14 1.0 1.343588280633412e-07 -2.028761815660307e-14 1.0 1.343588280633412e-07 -2.028761815660307e-14 1.0 1.343588280633412e-07 -2.028761815660307e-14 1.0 1.343588280633412e-07 -2.028761815660307e-14 1.0 1.343588280633412e-07 0.3826834261417389 1.2413138961164805e-07 0.9238796234130859 0.3826834261417389 1.2413138961164805e-07 0.9238796234130859 0.13052599132061005 1.3320936886884738e-07 0.9914448857307434 0.13052599132061005 1.3320936886884738e-07 0.9914448857307434 2.028761815660307e-14 -1.0 -1.343588280633412e-07 2.028761815660307e-14 -1.0 -1.343588280633412e-07 2.028761815660307e-14 -1.0 -1.343588280633412e-07 2.028761815660307e-14 -1.0 -1.343588280633412e-07 2.028761815660307e-14 -1.0 -1.343588280633412e-07 2.028761815660307e-14 -1.0 -1.343588280633412e-07 2.028761815660307e-14 -1.0 -1.343588280633412e-07 2.028761815660307e-14 -1.0 -1.343588280633412e-07 2.028761815660307e-14 -1.0 -1.343588280633412e-07 2.028761815660307e-14 -1.0 -1.343588280633412e-07 2.028761815660307e-14 -1.0 -1.343588280633412e-07 2.028761815660307e-14 -1.0 -1.343588280633412e-07 2.028761815660307e-14 -1.0 -1.343588280633412e-07 2.028761815660307e-14 -1.0 -1.343588280633412e-07 2.028761815660307e-14 -1.0 -1.343588280633412e-07 2.028761815660307e-14 -1.0 -1.343588280633412e-07 2.028761815660307e-14 -1.0 -1.343588280633412e-07 2.028761815660307e-14 -1.0 -1.343588280633412e-07 2.028761815660307e-14 -1.0 -1.343588280633412e-07 2.028761815660307e-14 -1.0 -1.343588280633412e-07 2.028761815660307e-14 -1.0 -1.343588280633412e-07 2.028761815660307e-14 -1.0 -1.343588280633412e-07</float_array><technique_common><accessor source="#mesh0-normals-array" count="92" stride="3"><param name="X" type="float" /><param name="Y" type="float" /><param name="Z" type="float" /></accessor></technique_common></source><vertices id="mesh0-vertices"><input semantic="POSITION" source="#mesh0-positions" /></vertices><triangles count="92" material="graphite"><input semantic="VERTEX" source="#mesh0-vertices" offset="0" /><input semantic="NORMAL" source="#mesh0-normals" offset="1" /><p>0 0 1 0 3 0 0 1 3 1 2 1 2 2 3 2 5 2 2 3 5 3 4 3 4 4 5 4 7 4 4 5 7 5 6 5 6 6 7 6 9 6 6 7 9 7 8 7 8 8 9 8 11 8 8 9 11 9 10 9 10 10 11 10 13 10 10 11 13 11 12 11 12 12 13 12 15 12 12 13 15 13 14 13 14 14 15 14 17 14 14 15 17 15 16 15 16 16 17 16 19 16 16 17 19 17 18 17 18 18 19 18 21 18 18 19 21 19 20 19 20 20 21 20 23 20 20 21 23 21 22 21 22 22 23 22 25 22 22 23 25 23 24 23 24 24 25 24 27 24 24 25 27 25 26 25 26 26 27 26 29 26 26 27 29 27 28 27 28 28 29 28 31 28 28 29 31 29 30 29 30 30 31 30 33 30 30 31 33 31 32 31 32 32 33 32 35 32 32 33 35 33 34 33 34 34 35 34 37 34 34 35 37 35 36 35 36 36 37 36 39 36 36 37 39 37 38 37 38 38 39 38 41 38 38 39 41 39 40 39 40 40 41 40 43 40 40 41 43 41 42 41 42 42 43 42 45 42 42 43 45 43 44 43 5 44 3 44 1 44 1 45 47 45 45 45 45 46 43 46 41 46 41 47 39 47 37 47 37 48 35 48 33 48 33 49 31 49 29 49 29 50 27 50 25 50 25 51 23 51 21 51 21 52 19 52 17 52 17 53 15 53 13 53 13 54 11 54 9 54 9 55 7 55 5 55 5 56 1 56 45 56 45 57 41 57 37 57 37 58 33 58 29 58 29 59 25 59 21 59 21 60 17 60 13 60 13 61 9 61 5 61 5 62 45 62 37 62 37 63 29 63 21 63 21 64 13 64 5 64 37 65 21 65 5 65 44 66 45 66 47 66 44 67 47 67 46 67 46 68 47 68 1 68 46 69 1 69 0 69 46 70 0 70 2 70 2 71 4 71 6 71 6 72 8 72 10 72 10 73 12 73 14 73 14 74 16 74 18 74 18 75 20 75 22 75 22 76 24 76 26 76 26 77 28 77 30 77 30 78 32 78 34 78 34 79 36 79 38 79 38 80 40 80 42 80 42 81 44 81 46 81 46 82 2 82 6 82 6 83 10 83 14 83 14 84 18 84 22 84 22 85 26 85 30 85 30 86 34 86 38 86 38 87 42 87 46 87 46 88 6 88 14 88 14 89 22 89 30 89 30 90 38 90 46 90 14 91 30 91 46 91</p></triangles></mesh></geometry><geometry id="mesh1"><mesh><source id="mesh1-positions"><float_array id="mesh1-array" count="36">0.02345000021159649 -0.06400000303983688 0.0040000020526349545 0.02345000021159649 -0.04399999976158142 0.003999999258667231 0.019985897466540337 -0.06400000303983688 0.002000001259148121 0.019985897466540337 -0.04399999976158142 0.001999998465180397 0.019985897466540337 -0.06400000303983688 -0.0019999993965029716 0.019985897466540337 -0.04399999976158142 -0.0020000021904706955 0.02345000021159649 -0.06400000303983688 -0.003999999258667231 0.02345000021159649 -0.04399999976158142 -0.0040000020526349545 0.02691410295665264 -0.06400000303983688 -0.001999998465180397 0.02691410295665264 -0.04399999976158142 -0.002000001259148121 0.02691410295665264 -0.06400000303983688 0.0020000021904706955 0.02691410295665264 -0.04399999976158142 0.0019999993965029716</float_array><technique_common><accessor source="#mesh1-array" count="12" stride="3"><param name="X" type="float" /><param name="Y" type="float" /><param name="Z" type="float" /></accessor></technique_common></source><source id="mesh1-normals"><float_array id="mesh1-normals-array" count="60">-0.5000001192092896 1.1635816576927027e-07 0.8660253882408142 -0.5000001192092896 1.1635816576927027e-07 0.8660253882408142 -1.0 -2.028762154473486e-14 -1.5099581673894136e-07 -1.0 -2.028762154473486e-14 -1.5099581673894136e-07 -0.49999988079071045 -1.1635817998012499e-07 -0.8660255074501038 -0.49999988079071045 -1.1635817998012499e-07 -0.8660255074501038 0.5000001192092896 -1.1635816576927027e-07 -0.8660253882408142 0.5000001192092896 -1.1635816576927027e-07 -0.8660253882408142 -2.028761815660307e-14 1.0 1.343588280633412e-07 -2.028761815660307e-14 1.0 1.343588280633412e-07 -2.028761815660307e-14 1.0 1.343588280633412e-07 -2.028761815660307e-14 1.0 1.343588280633412e-07 1.0 2.028762154473486e-14 1.5099581673894136e-07 1.0 2.028762154473486e-14 1.5099581673894136e-07 0.49999988079071045 1.1635817998012499e-07 0.8660255074501038 0.49999988079071045 1.1635817998012499e-07 0.8660255074501038 2.028761815660307e-14 -1.0 -1.343588280633412e-07 2.028761815660307e-14 -1.0 -1.343588280633412e-07 2.028761815660307e-14 -1.0 -1.343588280633412e-07 2.028761815660307e-14 -1.0 -1.343588280633412e-07</float_array><technique_common><accessor source="#mesh1-normals-array" count="20" stride="3"><param name="X" type="float" /><param name="Y" type="float" /><param name="Z" type="float" /></accessor></technique_common></source><vertices id="mesh1-vertices"><input semantic="POSITION" source="#mesh1-positions" /></vertices><triangles count="20" material="graphite"><input semantic="VERTEX" source="#mesh1-vertices" offset="0" /><input semantic="NORMAL" source="#mesh1-normals" offset="1" /><p>0 0 1 0 3 0 0 1 3 1 2 1 2 2 3 2 5 2 2 3 5 3 4 3 4 4 5 4 7 4 4 5 7 5 6 5 6 6 7 6 9 6 6 7 9 7 8 7 5 8 3 8 1 8 1 9 11 9 9 9 9 10 7 10 5 10 1 11 9 11 5 11 8 12 9 12 11 12 8 13 11 13 10 13 10 14 11 14 1 14 10 15 1 15 0 15 10 16 0 16 2 16 2 17 4 17 6 17 6 18 8 18 10 18 2 19 6 19 10 19</p></triangles></mesh></geometry><geometry id="mesh2"><mesh><source id="mesh2-positions"><float_array id="mesh2-array" count="36">0.01172499917447567 -0.06400000303983688 0.024308297783136368 0.01172499917447567 -0.04399999976158142 0.02430829405784607 0.008260897360742092 -0.06400000303983688 0.022308295592665672 0.008260897360742092 -0.04399999976158142 0.022308293730020523 0.008260897360742092 -0.06400000303983688 0.01830829493701458 0.008260897360742092 -0.04399999976158142 0.01830829307436943 0.011725001037120819 -0.06400000303983688 0.016308296471834183 0.011725001037120819 -0.04399999976158142 0.016308292746543884 0.015189102850854397 -0.06400000303983688 0.01830829679965973 0.015189102850854397 -0.04399999976158142 0.01830829493701458 0.015189102850854397 -0.06400000303983688 0.02230829745531082 0.015189102850854397 -0.04399999976158142 0.022308295592665672</float_array><technique_common><accessor source="#mesh2-array" count="12" stride="3"><param name="X" type="float" /><param name="Y" type="float" /><param name="Z" type="float" /></accessor></technique_common></source><source id="mesh2-normals"><float_array id="mesh2-normals-array" count="60">-0.5000001192092896 1.1635816576927027e-07 0.8660253882408142 -0.5000001192092896 1.1635816576927027e-07 0.8660253882408142 -1.0 -2.028762154473486e-14 -1.5099581673894136e-07 -1.0 -2.028762154473486e-14 -1.5099581673894136e-07 -0.49999988079071045 -1.1635817998012499e-07 -0.8660255074501038 -0.49999988079071045 -1.1635817998012499e-07 -0.8660255074501038 0.5000001192092896 -1.1635816576927027e-07 -0.8660253882408142 0.5000001192092896 -1.1635816576927027e-07 -0.8660253882408142 -2.028761815660307e-14 1.0 1.343588280633412e-07 -2.028761815660307e-14 1.0 1.343588280633412e-07 -2.028761815660307e-14 1.0 1.343588280633412e-07 -2.028761815660307e-14 1.0 1.343588280633412e-07 1.0 2.028762154473486e-14 1.5099581673894136e-07 1.0 2.028762154473486e-14 1.5099581673894136e-07 0.49999988079071045 1.1635817998012499e-07 0.8660255074501038 0.49999988079071045 1.1635817998012499e-07 0.8660255074501038 2.028761815660307e-14 -1.0 -1.343588280633412e-07 2.028761815660307e-14 -1.0 -1.343588280633412e-07 2.028761815660307e-14 -1.0 -1.343588280633412e-07 2.028761815660307e-14 -1.0 -1.343588280633412e-07</float_array><technique_common><accessor source="#mesh2-normals-array" count="20" stride="3"><param name="X" type="float" /><param name="Y" type="float" /><param name="Z" type="float" /></accessor></technique_common></source><vertices id="mesh2-vertices"><input semantic="POSITION" source="#mesh2-positions" /></vertices><triangles count="20" material="graphite"><input semantic="VERTEX" source="#mesh2-vertices" offset="0" /><input semantic="NORMAL" source="#mesh2-normals" offset="1" /><p>0 0 1 0 3 0 0 1 3 1 2 1 2 2 3 2 5 2 2 3 5 3 4 3 4 4 5 4 7 4 4 5 7 5 6 5 6 6 7 6 9 6 6 7 9 7 8 7 5 8 3 8 1 8 1 9 11 9 9 9 9 10 7 10 5 10 1 11 9 11 5 11 8 12 9 12 11 12 8 13 11 13 10 13 10 14 11 14 1 14 10 15 1 15 0 15 10 16 0 16 2 16 2 17 4 17 6 17 6 18 8 18 10 18 2 19 6 19 10 19</p></triangles></mesh></geometry><geometry id="mesh3"><mesh><source id="mesh3-positions"><float_array id="mesh3-array" count="36">-0.011725001037120819 -0.06400000303983688 0.024308297783136368 -0.011725001037120819 -0.04399999976158142 0.02430829405784607 -0.015189102850854397 -0.06400000303983688 0.022308295592665672 -0.015189102850854397 -0.04399999976158142 0.022308293730020523 -0.015189102850854397 -0.06400000303983688 0.01830829493701458 -0.015189102850854397 -0.04399999976158142 0.01830829307436943 -0.01172499917447567 -0.06400000303983688 0.016308296471834183 -0.01172499917447567 -0.04399999976158142 0.016308292746543884 -0.008260897360742092 -0.06400000303983688 0.01830829679965973 -0.008260897360742092 -0.04399999976158142 0.01830829493701458 -0.008260897360742092 -0.06400000303983688 0.02230829745531082 -0.008260897360742092 -0.04399999976158142 0.022308295592665672</float_array><technique_common><accessor source="#mesh3-array" count="12" stride="3"><param name="X" type="float" /><param name="Y" type="float" /><param name="Z" type="float" /></accessor></technique_common></source><source id="mesh3-normals"><float_array id="mesh3-normals-array" count="60">-0.5000001192092896 1.1635816576927027e-07 0.8660253882408142 -0.5000001192092896 1.1635816576927027e-07 0.8660253882408142 -1.0 -2.028762154473486e-14 -1.5099581673894136e-07 -1.0 -2.028762154473486e-14 -1.5099581673894136e-07 -0.49999988079071045 -1.1635817998012499e-07 -0.8660255074501038 -0.49999988079071045 -1.1635817998012499e-07 -0.8660255074501038 0.5000001192092896 -1.1635816576927027e-07 -0.8660253882408142 0.5000001192092896 -1.1635816576927027e-07 -0.8660253882408142 -2.028761815660307e-14 1.0 1.343588280633412e-07 -2.028761815660307e-14 1.0 1.343588280633412e-07 -2.028761815660307e-14 1.0 1.343588280633412e-07 -2.028761815660307e-14 1.0 1.343588280633412e-07 1.0 2.028762154473486e-14 1.5099581673894136e-07 1.0 2.028762154473486e-14 1.5099581673894136e-07 0.49999988079071045 1.1635817998012499e-07 0.8660255074501038 0.49999988079071045 1.1635817998012499e-07 0.8660255074501038 2.028761815660307e-14 -1.0 -1.343588280633412e-07 2.028761815660307e-14 -1.0 -1.343588280633412e-07 2.028761815660307e-14 -1.0 -1.343588280633412e-07 2.028761815660307e-14 -1.0 -1.343588280633412e-07</float_array><technique_common><accessor source="#mesh3-normals-array" count="20" stride="3"><param name="X" type="float" /><param name="Y" type="float" /><param name="Z" type="float" /></accessor></technique_common></source><vertices id="mesh3-vertices"><input semantic="POSITION" source="#mesh3-positions" /></vertices><triangles count="20" material="graphite"><input semantic="VERTEX" source="#mesh3-vertices" offset="0" /><input semantic="NORMAL" source="#mesh3-normals" offset="1" /><p>0 0 1 0 3 0 0 1 3 1 2 1 2 2 3 2 5 2 2 3 5 3 4 3 4 4 5 4 7 4 4 5 7 5 6 5 6 6 7 6 9 6 6 7 9 7 8 7 5 8 3 8 1 8 1 9 11 9 9 9 9 10 7 10 5 10 1 11 9 11 5 11 8 12 9 12 11 12 8 13 11 13 10 13 10 14 11 14 1 14 10 15 1 15 0 15 10 16 0 16 2 16 2 17 4 17 6 17 6 18 8 18 10 18 2 19 6 19 10 19</p></triangles></mesh></geometry><geometry id="mesh4"><mesh><source id="mesh4-positions"><float_array id="mesh4-array" count="36">-0.02345000021159649 -0.06400000303983688 0.0040000020526349545 -0.02345000021159649 -0.04399999976158142 0.003999999258667231 -0.02691410295665264 -0.06400000303983688 0.002000001259148121 -0.02691410295665264 -0.04399999976158142 0.001999998465180397 -0.02691410295665264 -0.06400000303983688 -0.0019999993965029716 -0.02691410295665264 -0.04399999976158142 -0.0020000021904706955 -0.02345000021159649 -0.06400000303983688 -0.003999999258667231 -0.02345000021159649 -0.04399999976158142 -0.0040000020526349545 -0.019985897466540337 -0.06400000303983688 -0.001999998465180397 -0.019985897466540337 -0.04399999976158142 -0.002000001259148121 -0.019985897466540337 -0.06400000303983688 0.0020000021904706955 -0.019985897466540337 -0.04399999976158142 0.0019999993965029716</float_array><technique_common><accessor source="#mesh4-array" count="12" stride="3"><param name="X" type="float" /><param name="Y" type="float" /><param name="Z" type="float" /></accessor></technique_common></source><source id="mesh4-normals"><float_array id="mesh4-normals-array" count="60">-0.5000001192092896 1.1635816576927027e-07 0.8660253882408142 -0.5000001192092896 1.1635816576927027e-07 0.8660253882408142 -1.0 -2.028762154473486e-14 -1.5099581673894136e-07 -1.0 -2.028762154473486e-14 -1.5099581673894136e-07 -0.49999988079071045 -1.1635817998012499e-07 -0.8660255074501038 -0.49999988079071045 -1.1635817998012499e-07 -0.8660255074501038 0.5000001192092896 -1.1635816576927027e-07 -0.8660253882408142 0.5000001192092896 -1.1635816576927027e-07 -0.8660253882408142 -2.028761815660307e-14 1.0 1.343588280633412e-07 -2.028761815660307e-14 1.0 1.343588280633412e-07 -2.028761815660307e-14 1.0 1.343588280633412e-07 -2.028761815660307e-14 1.0 1.343588280633412e-07 1.0 2.028762154473486e-14 1.5099581673894136e-07 1.0 2.028762154473486e-14 1.5099581673894136e-07 0.49999988079071045 1.1635817998012499e-07 0.8660255074501038 0.49999988079071045 1.1635817998012499e-07 0.8660255074501038 2.028761815660307e-14 -1.0 -1.343588280633412e-07 2.028761815660307e-14 -1.0 -1.343588280633412e-07 2.028761815660307e-14 -1.0 -1.343588280633412e-07 2.028761815660307e-14 -1.0 -1.343588280633412e-07</float_array><technique_common><accessor source="#mesh4-normals-array" count="20" stride="3"><param name="X" type="float" /><param name="Y" type="float" /><param name="Z" type="float" /></accessor></technique_common></source><vertices id="mesh4-vertices"><input semantic="POSITION" source="#mesh4-positions" /></vertices><triangles count="20" material="graphite"><input semantic="VERTEX" source="#mesh4-vertices" offset="0" /><input semantic="NORMAL" source="#mesh4-normals" offset="1" /><p>0 0 1 0 3 0 0 1 3 1 2 1 2 2 3 2 5 2 2 3 5 3 4 3 4 4 5 4 7 4 4 5 7 5 6 5 6 6 7 6 9 6 6 7 9 7 8 7 5 8 3 8 1 8 1 9 11 9 9 9 9 10 7 10 5 10 1 11 9 11 5 11 8 12 9 12 11 12 8 13 11 13 10 13 10 14 11 14 1 14 10 15 1 15 0 15 10 16 0 16 2 16 2 17 4 17 6 17 6 18 8 18 10 18 2 19 6 19 10 19</p></triangles></mesh></geometry><geometry id="mesh5"><mesh><source id="mesh5-positions"><float_array id="mesh5-array" count="36">-0.011725001037120819 -0.06400000303983688 -0.016308292746543884 -0.011725001037120819 -0.04399999976158142 -0.016308296471834183 -0.015189102850854397 -0.06400000303983688 -0.01830829493701458 -0.015189102850854397 -0.04399999976158142 -0.01830829679965973 -0.015189102850854397 -0.06400000303983688 -0.022308295592665672 -0.015189102850854397 -0.04399999976158142 -0.02230829745531082 -0.01172499917447567 -0.06400000303983688 -0.02430829405784607 -0.01172499917447567 -0.04399999976158142 -0.024308297783136368 -0.008260897360742092 -0.06400000303983688 -0.022308293730020523 -0.008260897360742092 -0.04399999976158142 -0.022308295592665672 -0.008260897360742092 -0.06400000303983688 -0.01830829307436943 -0.008260897360742092 -0.04399999976158142 -0.01830829493701458</float_array><technique_common><accessor source="#mesh5-array" count="12" stride="3"><param name="X" type="float" /><param name="Y" type="float" /><param name="Z" type="float" /></accessor></technique_common></source><source id="mesh5-normals"><float_array id="mesh5-normals-array" count="60">-0.5000001192092896 1.1635816576927027e-07 0.8660253882408142 -0.5000001192092896 1.1635816576927027e-07 0.8660253882408142 -1.0 -2.028762154473486e-14 -1.5099581673894136e-07 -1.0 -2.028762154473486e-14 -1.5099581673894136e-07 -0.49999988079071045 -1.1635817998012499e-07 -0.8660255074501038 -0.49999988079071045 -1.1635817998012499e-07 -0.8660255074501038 0.5000001192092896 -1.1635816576927027e-07 -0.8660253882408142 0.5000001192092896 -1.1635816576927027e-07 -0.8660253882408142 -2.028761815660307e-14 1.0 1.343588280633412e-07 -2.028761815660307e-14 1.0 1.343588280633412e-07 -2.028761815660307e-14 1.0 1.343588280633412e-07 -2.028761815660307e-14 1.0 1.343588280633412e-07 1.0 2.028762154473486e-14 1.5099581673894136e-07 1.0 2.028762154473486e-14 1.5099581673894136e-07 0.49999988079071045 1.1635817998012499e-07 0.8660255074501038 0.49999988079071045 1.1635817998012499e-07 0.8660255074501038 2.028761815660307e-14 -1.0 -1.343588280633412e-07 2.028761815660307e-14 -1.0 -1.343588280633412e-07 2.028761815660307e-14 -1.0 -1.343588280633412e-07 2.028761815660307e-14 -1.0 -1.343588280633412e-07</float_array><technique_common><accessor source="#mesh5-normals-array" count="20" stride="3"><param name="X" type="float" /><param name="Y" type="float" /><param name="Z" type="float" /></accessor></technique_common></source><vertices id="mesh5-vertices"><input semantic="POSITION" source="#mesh5-positions" /></vertices><triangles count="20" material="graphite"><input semantic="VERTEX" source="#mesh5-vertices" offset="0" /><input semantic="NORMAL" source="#mesh5-normals" offset="1" /><p>0 0 1 0 3 0 0 1 3 1 2 1 2 2 3 2 5 2 2 3 5 3 4 3 4 4 5 4 7 4 4 5 7 5 6 5 6 6 7 6 9 6 6 7 9 7 8 7 5 8 3 8 1 8 1 9 11 9 9 9 9 10 7 10 5 10 1 11 9 11 5 11 8 12 9 12 11 12 8 13 11 13 10 13 10 14 11 14 1 14 10 15 1 15 0 15 10 16 0 16 2 16 2 17 4 17 6 17 6 18 8 18 10 18 2 19 6 19 10 19</p></triangles></mesh></geometry><geometry id="mesh6"><mesh><source id="mesh6-positions"><float_array id="mesh6-array" count="36">0.01172499917447567 -0.06400000303983688 -0.016308292746543884 0.01172499917447567 -0.04399999976158142 -0.016308296471834183 0.008260897360742092 -0.06400000303983688 -0.01830829493701458 0.008260897360742092 -0.04399999976158142 -0.01830829679965973 0.008260897360742092 -0.06400000303983688 -0.022308295592665672 0.008260897360742092 -0.04399999976158142 -0.02230829745531082 0.011725001037120819 -0.06400000303983688 -0.02430829405784607 0.011725001037120819 -0.04399999976158142 -0.024308297783136368 0.015189102850854397 -0.06400000303983688 -0.022308293730020523 0.015189102850854397 -0.04399999976158142 -0.022308295592665672 0.015189102850854397 -0.06400000303983688 -0.01830829307436943 0.015189102850854397 -0.04399999976158142 -0.01830829493701458</float_array><technique_common><accessor source="#mesh6-array" count="12" stride="3"><param name="X" type="float" /><param name="Y" type="float" /><param name="Z" type="float" /></accessor></technique_common></source><source id="mesh6-normals"><float_array id="mesh6-normals-array" count="60">-0.5000001192092896 1.1635816576927027e-07 0.8660253882408142 -0.5000001192092896 1.1635816576927027e-07 0.8660253882408142 -1.0 -2.028762154473486e-14 -1.5099581673894136e-07 -1.0 -2.028762154473486e-14 -1.5099581673894136e-07 -0.49999988079071045 -1.1635817998012499e-07 -0.8660255074501038 -0.49999988079071045 -1.1635817998012499e-07 -0.8660255074501038 0.5000001192092896 -1.1635816576927027e-07 -0.8660253882408142 0.5000001192092896 -1.1635816576927027e-07 -0.8660253882408142 -2.028761815660307e-14 1.0 1.343588280633412e-07 -2.028761815660307e-14 1.0 1.343588280633412e-07 -2.028761815660307e-14 1.0 1.343588280633412e-07 -2.028761815660307e-14 1.0 1.343588280633412e-07 1.0 2.028762154473486e-14 1.5099581673894136e-07 1.0 2.028762154473486e-14 1.5099581673894136e-07 0.49999988079071045 1.1635817998012499e-07 0.8660255074501038 0.49999988079071045 1.1635817998012499e-07 0.8660255074501038 2.028761815660307e-14 -1.0 -1.343588280633412e-07 2.028761815660307e-14 -1.0 -1.343588280633412e-07 2.028761815660307e-14 -1.0 -1.343588280633412e-07 2.028761815660307e-14 -1.0 -1.343588280633412e-07</float_array><technique_common><accessor source="#mesh6-normals-array" count="20" stride="3"><param name="X" type="float" /><param name="Y" type="float" /><param name="Z" type="float" /></accessor></technique_common></source><vertices id="mesh6-vertices"><input semantic="POSITION" source="#mesh6-positions" /></vertices><triangles count="20" material="graphite"><input semantic="VERTEX" source="#mesh6-vertices" offset="0" /><input semantic="NORMAL" source="#mesh6-normals" offset="1" /><p>0 0 1 0 3 0 0 1 3 1 2 1 2 2 3 2 5 2 2 3 5 3 4 3 4 4 5 4 7 4 4 5 7 5 6 5 6 6 7 6 9 6 6 7 9 7 8 7 5 8 3 8 1 8 1 9 11 9 9 9 9 10 7 10 5 10 1 11 9 11 5 11 8 12 9 12 11 12 8 13 11 13 10 13 10 14 11 14 1 14 10 15 1 15 0 15 10 16 0 16 2 16 2 17 4 17 6 17 6 18 8 18 10 18 2 19 6 19 10 19</p></triangles></mesh></geometry><geometry id="mesh7"><mesh><source id="mesh7-positions"><float_array id="mesh7-array" count="36">0.02345000021159649 0.04399999976158142 0.0040000020526349545 0.02345000021159649 0.06400000303983688 0.003999999258667231 0.019985897466540337 0.04399999976158142 0.002000001259148121 0.019985897466540337 0.06400000303983688 0.001999998465180397 0.019985897466540337 0.04399999976158142 -0.0019999993965029716 0.019985897466540337 0.06400000303983688 -0.0020000021904706955 0.02345000021159649 0.04399999976158142 -0.003999999258667231 0.02345000021159649 0.06400000303983688 -0.0040000020526349545 0.02691410295665264 0.04399999976158142 -0.001999998465180397 0.02691410295665264 0.06400000303983688 -0.002000001259148121 0.02691410295665264 0.04399999976158142 0.0020000021904706955 0.02691410295665264 0.06400000303983688 0.0019999993965029716</float_array><technique_common><accessor source="#mesh7-array" count="12" stride="3"><param name="X" type="float" /><param name="Y" type="float" /><param name="Z" type="float" /></accessor></technique_common></source><source id="mesh7-normals"><float_array id="mesh7-normals-array" count="60">-0.5000001192092896 1.1635816576927027e-07 0.8660253882408142 -0.5000001192092896 1.1635816576927027e-07 0.8660253882408142 -1.0 -2.028762154473486e-14 -1.5099581673894136e-07 -1.0 -2.028762154473486e-14 -1.5099581673894136e-07 -0.49999988079071045 -1.1635817998012499e-07 -0.8660255074501038 -0.49999988079071045 -1.1635817998012499e-07 -0.8660255074501038 0.5000001192092896 -1.1635816576927027e-07 -0.8660253882408142 0.5000001192092896 -1.1635816576927027e-07 -0.8660253882408142 -2.028761815660307e-14 1.0 1.343588280633412e-07 -2.028761815660307e-14 1.0 1.343588280633412e-07 -2.028761815660307e-14 1.0 1.343588280633412e-07 -2.028761815660307e-14 1.0 1.343588280633412e-07 1.0 2.028762154473486e-14 1.5099581673894136e-07 1.0 2.028762154473486e-14 1.5099581673894136e-07 0.49999988079071045 1.1635817998012499e-07 0.8660255074501038 0.49999988079071045 1.1635817998012499e-07 0.8660255074501038 2.028761815660307e-14 -1.0 -1.343588280633412e-07 2.028761815660307e-14 -1.0 -1.343588280633412e-07 2.028761815660307e-14 -1.0 -1.343588280633412e-07 2.028761815660307e-14 -1.0 -1.343588280633412e-07</float_array><technique_common><accessor source="#mesh7-normals-array" count="20" stride="3"><param name="X" type="float" /><param name="Y" type="float" /><param name="Z" type="float" /></accessor></technique_common></source><vertices id="mesh7-vertices"><input semantic="POSITION" source="#mesh7-positions" /></vertices><triangles count="20" material="graphite"><input semantic="VERTEX" source="#mesh7-vertices" offset="0" /><input semantic="NORMAL" source="#mesh7-normals" offset="1" /><p>0 0 1 0 3 0 0 1 3 1 2 1 2 2 3 2 5 2 2 3 5 3 4 3 4 4 5 4 7 4 4 5 7 5 6 5 6 6 7 6 9 6 6 7 9 7 8 7 5 8 3 8 1 8 1 9 11 9 9 9 9 10 7 10 5 10 1 11 9 11 5 11 8 12 9 12 11 12 8 13 11 13 10 13 10 14 11 14 1 14 10 15 1 15 0 15 10 16 0 16 2 16 2 17 4 17 6 17 6 18 8 18 10 18 2 19 6 19 10 19</p></triangles></mesh></geometry><geometry id="mesh8"><mesh><source id="mesh8-positions"><float_array id="mesh8-array" count="36">0.01172499917447567 0.04399999976158142 0.024308297783136368 0.01172499917447567 0.06400000303983688 0.02430829405784607 0.008260897360742092 0.04399999976158142 0.022308295592665672 0.008260897360742092 0.06400000303983688 0.022308293730020523 0.008260897360742092 0.04399999976158142 0.01830829493701458 0.008260897360742092 0.06400000303983688 0.01830829307436943 0.011725001037120819 0.04399999976158142 0.016308296471834183 0.011725001037120819 0.06400000303983688 0.016308292746543884 0.015189102850854397 0.04399999976158142 0.01830829679965973 0.015189102850854397 0.06400000303983688 0.01830829493701458 0.015189102850854397 0.04399999976158142 0.02230829745531082 0.015189102850854397 0.06400000303983688 0.022308295592665672</float_array><technique_common><accessor source="#mesh8-array" count="12" stride="3"><param name="X" type="float" /><param name="Y" type="float" /><param name="Z" type="float" /></accessor></technique_common></source><source id="mesh8-normals"><float_array id="mesh8-normals-array" count="60">-0.5000001192092896 1.1635816576927027e-07 0.8660253882408142 -0.5000001192092896 1.1635816576927027e-07 0.8660253882408142 -1.0 -2.028762154473486e-14 -1.5099581673894136e-07 -1.0 -2.028762154473486e-14 -1.5099581673894136e-07 -0.49999988079071045 -1.1635817998012499e-07 -0.8660255074501038 -0.49999988079071045 -1.1635817998012499e-07 -0.8660255074501038 0.5000001192092896 -1.1635816576927027e-07 -0.8660253882408142 0.5000001192092896 -1.1635816576927027e-07 -0.8660253882408142 -2.028761815660307e-14 1.0 1.343588280633412e-07 -2.028761815660307e-14 1.0 1.343588280633412e-07 -2.028761815660307e-14 1.0 1.343588280633412e-07 -2.028761815660307e-14 1.0 1.343588280633412e-07 1.0 2.028762154473486e-14 1.5099581673894136e-07 1.0 2.028762154473486e-14 1.5099581673894136e-07 0.49999988079071045 1.1635817998012499e-07 0.8660255074501038 0.49999988079071045 1.1635817998012499e-07 0.8660255074501038 2.028761815660307e-14 -1.0 -1.343588280633412e-07 2.028761815660307e-14 -1.0 -1.343588280633412e-07 2.028761815660307e-14 -1.0 -1.343588280633412e-07 2.028761815660307e-14 -1.0 -1.343588280633412e-07</float_array><technique_common><accessor source="#mesh8-normals-array" count="20" stride="3"><param name="X" type="float" /><param name="Y" type="float" /><param name="Z" type="float" /></accessor></technique_common></source><vertices id="mesh8-vertices"><input semantic="POSITION" source="#mesh8-positions" /></vertices><triangles count="20" material="graphite"><input semantic="VERTEX" source="#mesh8-vertices" offset="0" /><input semantic="NORMAL" source="#mesh8-normals" offset="1" /><p>0 0 1 0 3 0 0 1 3 1 2 1 2 2 3 2 5 2 2 3 5 3 4 3 4 4 5 4 7 4 4 5 7 5 6 5 6 6 7 6 9 6 6 7 9 7 8 7 5 8 3 8 1 8 1 9 11 9 9 9 9 10 7 10 5 10 1 11 9 11 5 11 8 12 9 12 11 12 8 13 11 13 10 13 10 14 11 14 1 14 10 15 1 15 0 15 10 16 0 16 2 16 2 17 4 17 6 17 6 18 8 18 10 18 2 19 6 19 10 19</p></triangles></mesh></geometry><geometry id="mesh9"><mesh><source id="mesh9-positions"><float_array id="mesh9-array" count="36">-0.011725001037120819 0.04399999976158142 0.024308297783136368 -0.011725001037120819 0.06400000303983688 0.02430829405784607 -0.015189102850854397 0.04399999976158142 0.022308295592665672 -0.015189102850854397 0.06400000303983688 0.022308293730020523 -0.015189102850854397 0.04399999976158142 0.01830829493701458 -0.015189102850854397 0.06400000303983688 0.01830829307436943 -0.01172499917447567 0.04399999976158142 0.016308296471834183 -0.01172499917447567 0.06400000303983688 0.016308292746543884 -0.008260897360742092 0.04399999976158142 0.01830829679965973 -0.008260897360742092 0.06400000303983688 0.01830829493701458 -0.008260897360742092 0.04399999976158142 0.02230829745531082 -0.008260897360742092 0.06400000303983688 0.022308295592665672</float_array><technique_common><accessor source="#mesh9-array" count="12" stride="3"><param name="X" type="float" /><param name="Y" type="float" /><param name="Z" type="float" /></accessor></technique_common></source><source id="mesh9-normals"><float_array id="mesh9-normals-array" count="60">-0.5000001192092896 1.1635816576927027e-07 0.8660253882408142 -0.5000001192092896 1.1635816576927027e-07 0.8660253882408142 -1.0 -2.028762154473486e-14 -1.5099581673894136e-07 -1.0 -2.028762154473486e-14 -1.5099581673894136e-07 -0.49999988079071045 -1.1635817998012499e-07 -0.8660255074501038 -0.49999988079071045 -1.1635817998012499e-07 -0.8660255074501038 0.5000001192092896 -1.1635816576927027e-07 -0.8660253882408142 0.5000001192092896 -1.1635816576927027e-07 -0.8660253882408142 -2.028761815660307e-14 1.0 1.343588280633412e-07 -2.028761815660307e-14 1.0 1.343588280633412e-07 -2.028761815660307e-14 1.0 1.343588280633412e-07 -2.028761815660307e-14 1.0 1.343588280633412e-07 1.0 2.028762154473486e-14 1.5099581673894136e-07 1.0 2.028762154473486e-14 1.5099581673894136e-07 0.49999988079071045 1.1635817998012499e-07 0.8660255074501038 0.49999988079071045 1.1635817998012499e-07 0.8660255074501038 2.028761815660307e-14 -1.0 -1.343588280633412e-07 2.028761815660307e-14 -1.0 -1.343588280633412e-07 2.028761815660307e-14 -1.0 -1.343588280633412e-07 2.028761815660307e-14 -1.0 -1.343588280633412e-07</float_array><technique_common><accessor source="#mesh9-normals-array" count="20" stride="3"><param name="X" type="float" /><param name="Y" type="float" /><param name="Z" type="float" /></accessor></technique_common></source><vertices id="mesh9-vertices"><input semantic="POSITION" source="#mesh9-positions" /></vertices><triangles count="20" material="graphite"><input semantic="VERTEX" source="#mesh9-vertices" offset="0" /><input semantic="NORMAL" source="#mesh9-normals" offset="1" /><p>0 0 1 0 3 0 0 1 3 1 2 1 2 2 3 2 5 2 2 3 5 3 4 3 4 4 5 4 7 4 4 5 7 5 6 5 6 6 7 6 9 6 6 7 9 7 8 7 5 8 3 8 1 8 1 9 11 9 9 9 9 10 7 10 5 10 1 11 9 11 5 11 8 12 9 12 11 12 8 13 11 13 10 13 10 14 11 14 1 14 10 15 1 15 0 15 10 16 0 16 2 16 2 17 4 17 6 17 6 18 8 18 10 18 2 19 6 19 10 19</p></triangles></mesh></geometry><geometry id="mesh10"><mesh><source id="mesh10-positions"><float_array id="mesh10-array" count="36">-0.02345000021159649 0.04399999976158142 0.0040000020526349545 -0.02345000021159649 0.06400000303983688 0.003999999258667231 -0.02691410295665264 0.04399999976158142 0.002000001259148121 -0.02691410295665264 0.06400000303983688 0.001999998465180397 -0.02691410295665264 0.04399999976158142 -0.0019999993965029716 -0.02691410295665264 0.06400000303983688 -0.0020000021904706955 -0.02345000021159649 0.04399999976158142 -0.003999999258667231 -0.02345000021159649 0.06400000303983688 -0.0040000020526349545 -0.019985897466540337 0.04399999976158142 -0.001999998465180397 -0.019985897466540337 0.06400000303983688 -0.002000001259148121 -0.019985897466540337 0.04399999976158142 0.0020000021904706955 -0.019985897466540337 0.06400000303983688 0.0019999993965029716</float_array><technique_common><accessor source="#mesh10-array" count="12" stride="3"><param name="X" type="float" /><param name="Y" type="float" /><param name="Z" type="float" /></accessor></technique_common></source><source id="mesh10-normals"><float_array id="mesh10-normals-array" count="60">-0.5000001192092896 1.1635816576927027e-07 0.8660253882408142 -0.5000001192092896 1.1635816576927027e-07 0.8660253882408142 -1.0 -2.028762154473486e-14 -1.5099581673894136e-07 -1.0 -2.028762154473486e-14 -1.5099581673894136e-07 -0.49999988079071045 -1.1635817998012499e-07 -0.8660255074501038 -0.49999988079071045 -1.1635817998012499e-07 -0.8660255074501038 0.5000001192092896 -1.1635816576927027e-07 -0.8660253882408142 0.5000001192092896 -1.1635816576927027e-07 -0.8660253882408142 -2.028761815660307e-14 1.0 1.343588280633412e-07 -2.028761815660307e-14 1.0 1.343588280633412e-07 -2.028761815660307e-14 1.0 1.343588280633412e-07 -2.028761815660307e-14 1.0 1.343588280633412e-07 1.0 2.028762154473486e-14 1.5099581673894136e-07 1.0 2.028762154473486e-14 1.5099581673894136e-07 0.49999988079071045 1.1635817998012499e-07 0.8660255074501038 0.49999988079071045 1.1635817998012499e-07 0.8660255074501038 2.028761815660307e-14 -1.0 -1.343588280633412e-07 2.028761815660307e-14 -1.0 -1.343588280633412e-07 2.028761815660307e-14 -1.0 -1.343588280633412e-07 2.028761815660307e-14 -1.0 -1.343588280633412e-07</float_array><technique_common><accessor source="#mesh10-normals-array" count="20" stride="3"><param name="X" type="float" /><param name="Y" type="float" /><param name="Z" type="float" /></accessor></technique_common></source><vertices id="mesh10-vertices"><input semantic="POSITION" source="#mesh10-positions" /></vertices><triangles count="20" material="graphite"><input semantic="VERTEX" source="#mesh10-vertices" offset="0" /><input semantic="NORMAL" source="#mesh10-normals" offset="1" /><p>0 0 1 0 3 0 0 1 3 1 2 1 2 2 3 2 5 2 2 3 5 3 4 3 4 4 5 4 7 4 4 5 7 5 6 5 6 6 7 6 9 6 6 7 9 7 8 7 5 8 3 8 1 8 1 9 11 9 9 9 9 10 7 10 5 10 1 11 9 11 5 11 8 12 9 12 11 12 8 13 11 13 10 13 10 14 11 14 1 14 10 15 1 15 0 15 10 16 0 16 2 16 2 17 4 17 6 17 6 18 8 18 10 18 2 19 6 19 10 19</p></triangles></mesh></geometry><geometry id="mesh11"><mesh><source id="mesh11-positions"><float_array id="mesh11-array" count="36">-0.011725001037120819 0.04399999976158142 -0.016308292746543884 -0.011725001037120819 0.06400000303983688 -0.016308296471834183 -0.015189102850854397 0.04399999976158142 -0.01830829493701458 -0.015189102850854397 0.06400000303983688 -0.01830829679965973 -0.015189102850854397 0.04399999976158142 -0.022308295592665672 -0.015189102850854397 0.06400000303983688 -0.02230829745531082 -0.01172499917447567 0.04399999976158142 -0.02430829405784607 -0.01172499917447567 0.06400000303983688 -0.024308297783136368 -0.008260897360742092 0.04399999976158142 -0.022308293730020523 -0.008260897360742092 0.06400000303983688 -0.022308295592665672 -0.008260897360742092 0.04399999976158142 -0.01830829307436943 -0.008260897360742092 0.06400000303983688 -0.01830829493701458</float_array><technique_common><accessor source="#mesh11-array" count="12" stride="3"><param name="X" type="float" /><param name="Y" type="float" /><param name="Z" type="float" /></accessor></technique_common></source><source id="mesh11-normals"><float_array id="mesh11-normals-array" count="60">-0.5000001192092896 1.1635816576927027e-07 0.8660253882408142 -0.5000001192092896 1.1635816576927027e-07 0.8660253882408142 -1.0 -2.028762154473486e-14 -1.5099581673894136e-07 -1.0 -2.028762154473486e-14 -1.5099581673894136e-07 -0.49999988079071045 -1.1635817998012499e-07 -0.8660255074501038 -0.49999988079071045 -1.1635817998012499e-07 -0.8660255074501038 0.5000001192092896 -1.1635816576927027e-07 -0.8660253882408142 0.5000001192092896 -1.1635816576927027e-07 -0.8660253882408142 -2.028761815660307e-14 1.0 1.343588280633412e-07 -2.028761815660307e-14 1.0 1.343588280633412e-07 -2.028761815660307e-14 1.0 1.343588280633412e-07 -2.028761815660307e-14 1.0 1.343588280633412e-07 1.0 2.028762154473486e-14 1.5099581673894136e-07 1.0 2.028762154473486e-14 1.5099581673894136e-07 0.49999988079071045 1.1635817998012499e-07 0.8660255074501038 0.49999988079071045 1.1635817998012499e-07 0.8660255074501038 2.028761815660307e-14 -1.0 -1.343588280633412e-07 2.028761815660307e-14 -1.0 -1.343588280633412e-07 2.028761815660307e-14 -1.0 -1.343588280633412e-07 2.028761815660307e-14 -1.0 -1.343588280633412e-07</float_array><technique_common><accessor source="#mesh11-normals-array" count="20" stride="3"><param name="X" type="float" /><param name="Y" type="float" /><param name="Z" type="float" /></accessor></technique_common></source><vertices id="mesh11-vertices"><input semantic="POSITION" source="#mesh11-positions" /></vertices><triangles count="20" material="graphite"><input semantic="VERTEX" source="#mesh11-vertices" offset="0" /><input semantic="NORMAL" source="#mesh11-normals" offset="1" /><p>0 0 1 0 3 0 0 1 3 1 2 1 2 2 3 2 5 2 2 3 5 3 4 3 4 4 5 4 7 4 4 5 7 5 6 5 6 6 7 6 9 6 6 7 9 7 8 7 5 8 3 8 1 8 1 9 11 9 9 9 9 10 7 10 5 10 1 11 9 11 5 11 8 12 9 12 11 12 8 13 11 13 10 13 10 14 11 14 1 14 10 15 1 15 0 15 10 16 0 16 2 16 2 17 4 17 6 17 6 18 8 18 10 18 2 19 6 19 10 19</p></triangles></mesh></geometry><geometry id="mesh12"><mesh><source id="mesh12-positions"><float_array id="mesh12-array" count="36">0.01172499917447567 0.04399999976158142 -0.016308292746543884 0.01172499917447567 0.06400000303983688 -0.016308296471834183 0.008260897360742092 0.04399999976158142 -0.01830829493701458 0.008260897360742092 0.06400000303983688 -0.01830829679965973 0.008260897360742092 0.04399999976158142 -0.022308295592665672 0.008260897360742092 0.06400000303983688 -0.02230829745531082 0.011725001037120819 0.04399999976158142 -0.02430829405784607 0.011725001037120819 0.06400000303983688 -0.024308297783136368 0.015189102850854397 0.04399999976158142 -0.022308293730020523 0.015189102850854397 0.06400000303983688 -0.022308295592665672 0.015189102850854397 0.04399999976158142 -0.01830829307436943 0.015189102850854397 0.06400000303983688 -0.01830829493701458</float_array><technique_common><accessor source="#mesh12-array" count="12" stride="3"><param name="X" type="float" /><param name="Y" type="float" /><param name="Z" type="float" /></accessor></technique_common></source><source id="mesh12-normals"><float_array id="mesh12-normals-array" count="60">-0.5000001192092896 1.1635816576927027e-07 0.8660253882408142 -0.5000001192092896 1.1635816576927027e-07 0.8660253882408142 -1.0 -2.028762154473486e-14 -1.5099581673894136e-07 -1.0 -2.028762154473486e-14 -1.5099581673894136e-07 -0.49999988079071045 -1.1635817998012499e-07 -0.8660255074501038 -0.49999988079071045 -1.1635817998012499e-07 -0.8660255074501038 0.5000001192092896 -1.1635816576927027e-07 -0.8660253882408142 0.5000001192092896 -1.1635816576927027e-07 -0.8660253882408142 -2.028761815660307e-14 1.0 1.343588280633412e-07 -2.028761815660307e-14 1.0 1.343588280633412e-07 -2.028761815660307e-14 1.0 1.343588280633412e-07 -2.028761815660307e-14 1.0 1.343588280633412e-07 1.0 2.028762154473486e-14 1.5099581673894136e-07 1.0 2.028762154473486e-14 1.5099581673894136e-07 0.49999988079071045 1.1635817998012499e-07 0.8660255074501038 0.49999988079071045 1.1635817998012499e-07 0.8660255074501038 2.028761815660307e-14 -1.0 -1.343588280633412e-07 2.028761815660307e-14 -1.0 -1.343588280633412e-07 2.028761815660307e-14 -1.0 -1.343588280633412e-07 2.028761815660307e-14 -1.0 -1.343588280633412e-07</float_array><technique_common><accessor source="#mesh12-normals-array" count="20" stride="3"><param name="X" type="float" /><param name="Y" type="float" /><param name="Z" type="float" /></accessor></technique_common></source><vertices id="mesh12-vertices"><input semantic="POSITION" source="#mesh12-positions" /></vertices><triangles count="20" material="graphite"><input semantic="VERTEX" source="#mesh12-vertices" offset="0" /><input semantic="NORMAL" source="#mesh12-normals" offset="1" /><p>0 0 1 0 3 0 0 1 3 1 2 1 2 2 3 2 5 2 2 3 5 3 4 3 4 4 5 4 7 4 4 5 7 5 6 5 6 6 7 6 9 6 6 7 9 7 8 7 5 8 3 8 1 8 1 9 11 9 9 9 9 10 7 10 5 10 1 11 9 11 5 11 8 12 9 12 11 12 8 13 11 13 10 13 10 14 11 14 1 14 10 15 1 15 0 15 10 16 0 16 2 16 2 17 4 17 6 17 6 18 8 18 10 18 2 19 6 19 10 19</p></triangles></mesh></geometry><geometry id="mesh13"><mesh><source id="mesh13-positions"><float_array id="mesh13-array" count="144">0.07500000298023224 -0.05300000309944153 -0.010999996215105057 0.07500000298023224 -0.027000000700354576 -0.010999999940395355 0.07060007750988007 -0.05300000309944153 -0.011579257436096668 0.07060007750988007 -0.027000000700354576 -0.011579261161386967 0.06650000065565109 -0.05300000309944153 -0.013277566991746426 0.06650000065565109 -0.027000000700354576 -0.01327756978571415 0.06297918409109116 -0.05300000309944153 -0.015979183837771416 0.06297918409109116 -0.026999998837709427 -0.015979185700416565 0.06027756631374359 -0.05300000309944153 -0.019500000402331352 0.06027756631374359 -0.026999998837709427 -0.01950000412762165 0.05857925862073898 -0.05299999937415123 -0.023600077256560326 0.05857925862073898 -0.026999998837709427 -0.023600080981850624 0.057999998331069946 -0.05299999937415123 -0.02800000086426735 0.057999998331069946 -0.026999998837709427 -0.028000004589557648 0.05857925862073898 -0.05299999937415123 -0.03239992633461952 0.05857925862073898 -0.026999996975064278 -0.03239993005990982 0.06027757003903389 -0.05299999937415123 -0.036500003188848495 0.06027757003903389 -0.026999996975064278 -0.036500006914138794 0.06297918409109116 -0.05299999937415123 -0.04002081975340843 0.06297918409109116 -0.026999996975064278 -0.04002082347869873 0.06650000065565109 -0.05299999937415123 -0.0427224338054657 0.06650000065565109 -0.02699999511241913 -0.042722437530756 0.07060007750988007 -0.05299999937415123 -0.044420741498470306 0.07060007750988007 -0.02699999511241913 -0.044420745223760605 0.07500000298023224 -0.05299999937415123 -0.04500000178813934 0.07500000298023224 -0.02699999511241913 -0.04500000551342964 0.07939992845058441 -0.05299999937415123 -0.044420741498470306 0.07939992845058441 -0.02699999511241913 -0.044420745223760605 0.08350000530481339 -0.05299999937415123 -0.0427224300801754 0.08350000530481339 -0.02699999511241913 -0.0427224338054657 0.08702082186937332 -0.05299999937415123 -0.040020816028118134 0.08702082186937332 -0.026999996975064278 -0.04002081975340843 0.08972243964672089 -0.05299999937415123 -0.0364999994635582 0.08972243964672089 -0.026999996975064278 -0.036500003188848495 0.0914207473397255 -0.05299999937415123 -0.032399922609329224 0.0914207473397255 -0.026999996975064278 -0.03239992633461952 0.09200000762939453 -0.05299999937415123 -0.02799999713897705 0.09200000762939453 -0.026999998837709427 -0.02800000086426735 0.0914207473397255 -0.05299999937415123 -0.023600071668624878 0.0914207473397255 -0.026999998837709427 -0.023600075393915176 0.08972243964672089 -0.05300000309944153 -0.019499994814395905 0.08972243964672089 -0.026999998837709427 -0.019499998539686203 0.08702082186937332 -0.05300000309944153 -0.015979180112481117 0.08702082186937332 -0.026999998837709427 -0.015979181975126266 0.08350000530481339 -0.05300000309944153 -0.013277564197778702 0.08350000530481339 -0.027000000700354576 -0.013277566991746426 0.07939992845058441 -0.05300000309944153 -0.011579255573451519 0.07939992845058441 -0.027000000700354576 -0.011579259298741817</float_array><technique_common><accessor source="#mesh13-array" count="48" stride="3"><param name="X" type="float" /><param name="Y" type="float" /><param name="Z" type="float" /></accessor></technique_common></source><source id="mesh13-normals"><float_array id="mesh13-normals-array" count="276">-0.13052618503570557 1.332093830797021e-07 0.9914449453353882 -0.13052618503570557 1.332093830797021e-07 0.9914449453353882 -0.3826838433742523 1.241313469790839e-07 0.9238794445991516 -0.3826838433742523 1.241313469790839e-07 0.9238794445991516 -0.6087613701820374 1.0659404381385684e-07 0.7933533787727356 -0.6087613701820374 1.0659404381385684e-07 0.7933533787727356 -0.7933535575866699 8.179245014616754e-08 0.608761191368103 -0.7933535575866699 8.179245014616754e-08 0.608761191368103 -0.9238795638084412 5.1416925828107196e-08 0.3826836347579956 -0.9238795638084412 5.1416925828107196e-08 0.3826836347579956 -0.9914449453353882 1.7537310270654416e-08 0.13052591681480408 -0.9914449453353882 1.7537310270654416e-08 0.13052591681480408 -0.9914449453353882 -1.7537349350504883e-08 -0.13052621483802795 -0.9914449453353882 -1.7537349350504883e-08 -0.13052621483802795 -0.9238794445991516 -5.1416961355243984e-08 -0.3826839327812195 -0.9238794445991516 -5.1416961355243984e-08 -0.3826839327812195 -0.7933533191680908 -8.179247856787697e-08 -0.6087614297866821 -0.7933533191680908 -8.179247856787697e-08 -0.6087614297866821 -0.6087611317634583 -1.0659407223556627e-07 -0.7933536171913147 -0.6087611317634583 -1.0659407223556627e-07 -0.7933536171913147 -0.38268354535102844 -1.2413137540079333e-07 -0.9238795638084412 -0.38268354535102844 -1.2413137540079333e-07 -0.9238795638084412 -0.1305258870124817 -1.332093830797021e-07 -0.9914449453353882 -0.1305258870124817 -1.332093830797021e-07 -0.9914449453353882 0.13052618503570557 -1.332093830797021e-07 -0.9914449453353882 0.13052618503570557 -1.332093830797021e-07 -0.9914449453353882 0.3826838433742523 -1.241313469790839e-07 -0.9238794445991516 0.3826838433742523 -1.241313469790839e-07 -0.9238794445991516 0.6087613701820374 -1.0659404381385684e-07 -0.7933533787727356 0.6087613701820374 -1.0659404381385684e-07 -0.7933533787727356 0.7933535575866699 -8.179245014616754e-08 -0.608761191368103 0.7933535575866699 -8.179245014616754e-08 -0.608761191368103 0.9238795638084412 -5.1416925828107196e-08 -0.3826836347579956 0.9238795638084412 -5.1416925828107196e-08 -0.3826836347579956 0.9914449453353882 -1.7537310270654416e-08 -0.13052591681480408 0.9914449453353882 -1.7537310270654416e-08 -0.13052591681480408 0.9914449453353882 1.7537349350504883e-08 0.13052621483802795 0.9914449453353882 1.7537349350504883e-08 0.13052621483802795 0.9238794445991516 5.1416961355243984e-08 0.3826839327812195 0.9238794445991516 5.1416961355243984e-08 0.3826839327812195 0.7933533191680908 8.179247856787697e-08 0.6087614297866821 0.7933533191680908 8.179247856787697e-08 0.6087614297866821 0.6087611317634583 1.0659407223556627e-07 0.7933536171913147 0.6087611317634583 1.0659407223556627e-07 0.7933536171913147 -2.028761815660307e-14 1.0 1.343588280633412e-07 -2.028761815660307e-14 1.0 1.343588280633412e-07 -2.028761815660307e-14 1.0 1.343588280633412e-07 -2.028761815660307e-14 1.0 1.343588280633412e-07 -2.028761815660307e-14 1.0 1.343588280633412e-07 -2.028761815660307e-14 1.0 1.343588280633412e-07 -2.028761815660307e-14 1.0 1.343588280633412e-07 -2.028761815660307e-14 1.0 1.343588280633412e-07 -2.028761815660307e-14 1.0 1.343588280633412e-07 -2.028761815660307e-14 1.0 1.343588280633412e-07 -2.028761815660307e-14 1.0 1.343588280633412e-07 -2.028761815660307e-14 1.0 1.343588280633412e-07 -2.0287619850668966e-14 1.0 1.343588280633412e-07 -2.028761815660307e-14 1.0 1.343588280633412e-07 -2.028761815660307e-14 1.0 1.343588280633412e-07 -2.0287619850668966e-14 1.0 1.343588280633412e-07 -2.028761815660307e-14 1.0 1.343588280633412e-07 -2.028761815660307e-14 1.0 1.343588280633412e-07 -2.028761815660307e-14 1.0 1.343588280633412e-07 -2.028761815660307e-14 1.0 1.343588280633412e-07 -2.028761815660307e-14 1.0 1.343588280633412e-07 -2.028761815660307e-14 1.0 1.343588280633412e-07 0.38268354535102844 1.2413137540079333e-07 0.9238795638084412 0.38268354535102844 1.2413137540079333e-07 0.9238795638084412 0.1305258870124817 1.332093830797021e-07 0.9914449453353882 0.1305258870124817 1.332093830797021e-07 0.9914449453353882 2.028761815660307e-14 -1.0 -1.343588280633412e-07 2.028761815660307e-14 -1.0 -1.343588280633412e-07 2.028761815660307e-14 -1.0 -1.343588280633412e-07 2.028761815660307e-14 -1.0 -1.343588280633412e-07 2.028761815660307e-14 -1.0 -1.343588280633412e-07 2.028761815660307e-14 -1.0 -1.343588280633412e-07 2.028761815660307e-14 -1.0 -1.343588280633412e-07 2.028761815660307e-14 -1.0 -1.343588280633412e-07 2.028761815660307e-14 -1.0 -1.343588280633412e-07 2.028761815660307e-14 -1.0 -1.343588280633412e-07 2.028761815660307e-14 -1.0 -1.343588280633412e-07 2.028761815660307e-14 -1.0 -1.343588280633412e-07 2.028761815660307e-14 -1.0 -1.343588280633412e-07 2.028761815660307e-14 -1.0 -1.343588280633412e-07 2.0287619850668966e-14 -1.0 -1.343588280633412e-07 2.028761815660307e-14 -1.0 -1.343588280633412e-07 2.028761815660307e-14 -1.0 -1.343588280633412e-07 2.0287619850668966e-14 -1.0 -1.343588280633412e-07 2.028761815660307e-14 -1.0 -1.343588280633412e-07 2.028761815660307e-14 -1.0 -1.343588280633412e-07 2.028761815660307e-14 -1.0 -1.343588280633412e-07 2.028761815660307e-14 -1.0 -1.343588280633412e-07</float_array><technique_common><accessor source="#mesh13-normals-array" count="92" stride="3"><param name="X" type="float" /><param name="Y" type="float" /><param name="Z" type="float" /></accessor></technique_common></source><vertices id="mesh13-vertices"><input semantic="POSITION" source="#mesh13-positions" /></vertices><triangles count="92" material="graphite"><input semantic="VERTEX" source="#mesh13-vertices" offset="0" /><input semantic="NORMAL" source="#mesh13-normals" offset="1" /><p>0 0 1 0 3 0 0 1 3 1 2 1 2 2 3 2 5 2 2 3 5 3 4 3 4 4 5 4 7 4 4 5 7 5 6 5 6 6 7 6 9 6 6 7 9 7 8 7 8 8 9 8 11 8 8 9 11 9 10 9 10 10 11 10 13 10 10 11 13 11 12 11 12 12 13 12 15 12 12 13 15 13 14 13 14 14 15 14 17 14 14 15 17 15 16 15 16 16 17 16 19 16 16 17 19 17 18 17 18 18 19 18 21 18 18 19 21 19 20 19 20 20 21 20 23 20 20 21 23 21 22 21 22 22 23 22 25 22 22 23 25 23 24 23 24 24 25 24 27 24 24 25 27 25 26 25 26 26 27 26 29 26 26 27 29 27 28 27 28 28 29 28 31 28 28 29 31 29 30 29 30 30 31 30 33 30 30 31 33 31 32 31 32 32 33 32 35 32 32 33 35 33 34 33 34 34 35 34 37 34 34 35 37 35 36 35 36 36 37 36 39 36 36 37 39 37 38 37 38 38 39 38 41 38 38 39 41 39 40 39 40 40 41 40 43 40 40 41 43 41 42 41 42 42 43 42 45 42 42 43 45 43 44 43 5 44 3 44 1 44 1 45 47 45 45 45 45 46 43 46 41 46 41 47 39 47 37 47 37 48 35 48 33 48 33 49 31 49 29 49 29 50 27 50 25 50 25 51 23 51 21 51 21 52 19 52 17 52 17 53 15 53 13 53 13 54 11 54 9 54 9 55 7 55 5 55 5 56 1 56 45 56 45 57 41 57 37 57 37 58 33 58 29 58 29 59 25 59 21 59 21 60 17 60 13 60 13 61 9 61 5 61 5 62 45 62 37 62 37 63 29 63 21 63 21 64 13 64 5 64 37 65 21 65 5 65 44 66 45 66 47 66 44 67 47 67 46 67 46 68 47 68 1 68 46 69 1 69 0 69 46 70 0 70 2 70 2 71 4 71 6 71 6 72 8 72 10 72 10 73 12 73 14 73 14 74 16 74 18 74 18 75 20 75 22 75 22 76 24 76 26 76 26 77 28 77 30 77 30 78 32 78 34 78 34 79 36 79 38 79 38 80 40 80 42 80 42 81 44 81 46 81 46 82 2 82 6 82 6 83 10 83 14 83 14 84 18 84 22 84 22 85 26 85 30 85 30 86 34 86 38 86 38 87 42 87 46 87 46 88 6 88 14 88 14 89 22 89 30 89 30 90 38 90 46 90 14 91 30 91 46 91</p></triangles></mesh></geometry><geometry id="mesh14"><mesh><source id="mesh14-positions"><float_array id="mesh14-array" count="144">0.07500000298023224 -0.012999994680285454 -0.011000001803040504 0.07500000298023224 0.01300000213086605 -0.011000001803040504 0.07060007750988007 -0.012999994680285454 -0.011579263024032116 0.07060007750988007 0.01300000213086605 -0.011579262092709541 0.06650000065565109 -0.012999995611608028 -0.013277572579681873 0.06650000065565109 0.013000001199543476 -0.013277571648359299 0.06297919154167175 -0.012999995611608028 -0.015979189425706863 0.06297919154167175 0.013000001199543476 -0.015979187563061714 0.06027757376432419 -0.012999996542930603 -0.01950000412762165 0.06027757376432419 0.013000000268220901 -0.0195000022649765 0.05857926607131958 -0.012999997474253178 -0.023600080981850624 0.05857926607131958 0.012999999336898327 -0.023600079119205475 0.05800000578165054 -0.012999998405575752 -0.028000004589557648 0.05800000578165054 0.012999998405575752 -0.0280000027269125 0.05857926607131958 -0.012999999336898327 -0.03239992633461952 0.05857926607131958 0.012999997474253178 -0.03239992633461952 0.06027757748961449 -0.013000000268220901 -0.036500003188848495 0.06027757748961449 0.012999996542930603 -0.036500003188848495 0.06297919154167175 -0.013000001199543476 -0.040020816028118134 0.06297919154167175 0.012999995611608028 -0.040020816028118134 0.06650000810623169 -0.013000001199543476 -0.0427224338054657 0.06650000810623169 0.012999995611608028 -0.0427224300801754 0.07060008496046066 -0.01300000213086605 -0.044420741498470306 0.07060008496046066 0.012999994680285454 -0.044420741498470306 0.07500000298023224 -0.01300000213086605 -0.04500000178813934 0.07500000298023224 0.012999994680285454 -0.044999998062849045 0.07939992845058441 -0.01300000213086605 -0.04442073777318001 0.07939992845058441 0.012999994680285454 -0.04442073777318001 0.08350000530481339 -0.013000001199543476 -0.0427224300801754 0.08350000530481339 0.012999995611608028 -0.0427224300801754 0.08702081441879272 -0.013000001199543476 -0.040020812302827835 0.08702081441879272 0.012999995611608028 -0.040020812302827835 0.08972243219614029 -0.013000000268220901 -0.0364999994635582 0.08972243219614029 0.012999996542930603 -0.0364999994635582 0.0914207398891449 -0.012999999336898327 -0.032399922609329224 0.0914207398891449 0.012999997474253178 -0.032399922609329224 0.09200000017881393 -0.012999998405575752 -0.0279999990016222 0.09200000017881393 0.012999998405575752 -0.02799999713897705 0.0914207398891449 -0.012999997474253178 -0.023600075393915176 0.0914207398891449 0.012999999336898327 -0.023600073531270027 0.08972243219614029 -0.012999996542930603 -0.019500000402331352 0.08972243219614029 0.013000000268220901 -0.019499998539686203 0.08702081441879272 -0.012999995611608028 -0.015979185700416565 0.08702081441879272 0.013000001199543476 -0.015979183837771416 0.08349999785423279 -0.012999995611608028 -0.01327756978571415 0.08349999785423279 0.013000001199543476 -0.013277568854391575 0.07939992100000381 -0.012999994680285454 -0.011579262092709541 0.07939992100000381 0.01300000213086605 -0.011579261161386967</float_array><technique_common><accessor source="#mesh14-array" count="48" stride="3"><param name="X" type="float" /><param name="Y" type="float" /><param name="Z" type="float" /></accessor></technique_common></source><source id="mesh14-normals"><float_array id="mesh14-normals-array" count="276">-0.13052619993686676 -3.393570935372736e-08 0.9914448857307434 -0.13052619993686676 -3.393570935372736e-08 0.9914448857307434 -0.3826838433742523 -3.1623038410089066e-08 0.9238793253898621 -0.3826838433742523 -3.1623038410089066e-08 0.9238793253898621 -0.6087614297866821 -2.7155319770599817e-08 0.7933533191680908 -0.6087614297866821 -2.7155319770599817e-08 0.7933533191680908 -0.7933536171913147 -2.0836997904893906e-08 0.6087611317634583 -0.7933536171913147 -2.0836997904893906e-08 0.6087611317634583 -0.9238794445991516 -1.3098686579837704e-08 0.38268348574638367 -0.9238794445991516 -1.3098686579837704e-08 0.38268348574638367 -0.9914448857307434 -4.467699099564015e-09 0.1305258721113205 -0.9914448857307434 -4.467699099564015e-09 0.1305258721113205 -0.9914448857307434 4.467731962165544e-09 -0.13052617013454437 -0.9914448857307434 4.467731962165544e-09 -0.13052617013454437 -0.9238793253898621 1.3098716777903974e-08 -0.38268378376960754 -0.9238793253898621 1.3098716777903974e-08 -0.38268378376960754 -0.7933533787727356 2.0837022773889657e-08 -0.6087613701820374 -0.7933533787727356 2.0837022773889657e-08 -0.6087613701820374 -0.608761191368103 2.715534108688189e-08 -0.7933535575866699 -0.608761191368103 2.715534108688189e-08 -0.7933535575866699 -0.38268354535102844 3.162305262094378e-08 -0.9238794445991516 -0.38268354535102844 3.162305262094378e-08 -0.9238794445991516 -0.13052590191364288 3.393571645915472e-08 -0.9914448857307434 -0.13052590191364288 3.393571645915472e-08 -0.9914448857307434 0.13052619993686676 3.393570935372736e-08 -0.9914448857307434 0.13052619993686676 3.393570935372736e-08 -0.9914448857307434 0.3826838433742523 3.1623038410089066e-08 -0.9238793253898621 0.3826838433742523 3.1623038410089066e-08 -0.9238793253898621 0.6087614297866821 2.7155319770599817e-08 -0.7933533191680908 0.6087614297866821 2.7155319770599817e-08 -0.7933533191680908 0.7933536171913147 2.0836997904893906e-08 -0.6087611317634583 0.7933536171913147 2.0836997904893906e-08 -0.6087611317634583 0.9238794445991516 1.3098686579837704e-08 -0.38268348574638367 0.9238794445991516 1.3098686579837704e-08 -0.38268348574638367 0.9914448857307434 4.467699099564015e-09 -0.1305258721113205 0.9914448857307434 4.467699099564015e-09 -0.1305258721113205 0.9914448857307434 -4.467731962165544e-09 0.13052617013454437 0.9914448857307434 -4.467731962165544e-09 0.13052617013454437 0.9238793253898621 -1.3098716777903974e-08 0.38268378376960754 0.9238793253898621 -1.3098716777903974e-08 0.38268378376960754 0.7933533787727356 -2.0837022773889657e-08 0.6087613701820374 0.7933533787727356 -2.0837022773889657e-08 0.6087613701820374 0.608761191368103 -2.715534108688189e-08 0.7933535575866699 0.608761191368103 -2.715534108688189e-08 0.7933535575866699 2.92846632089349e-14 1.0 -2.0281595425331034e-07 2.92846632089349e-14 1.0 -2.0281595425331034e-07 2.92846632089349e-14 1.0 -2.0281595425331034e-07 2.92846632089349e-14 1.0 -2.0281595425331034e-07 2.92846632089349e-14 1.0 -2.0281595425331034e-07 2.92846632089349e-14 1.0 -2.0281595425331034e-07 2.92846632089349e-14 1.0 -2.0281595425331034e-07 2.92846632089349e-14 1.0 -2.0281595425331034e-07 2.92846632089349e-14 1.0 -2.0281595425331034e-07 2.92846632089349e-14 1.0 -2.0281595425331034e-07 2.92846632089349e-14 1.0 -2.0281595425331034e-07 2.92846632089349e-14 1.0 -2.0281595425331034e-07 2.92846632089349e-14 1.0 -2.0281596846416505e-07 2.92846632089349e-14 1.0 -2.0281595425331034e-07 2.92846632089349e-14 1.0 -2.0281595425331034e-07 2.92846632089349e-14 1.0 -2.0281596846416505e-07 2.92846632089349e-14 1.0 -2.0281595425331034e-07 2.92846632089349e-14 1.0 -2.0281595425331034e-07 2.92846632089349e-14 1.0 -2.0281595425331034e-07 2.92846632089349e-14 1.0 -2.0281595425331034e-07 2.92846632089349e-14 1.0 -2.0281595425331034e-07 2.92846632089349e-14 1.0 -2.0281595425331034e-07 0.38268354535102844 -3.162305262094378e-08 0.9238794445991516 0.38268354535102844 -3.162305262094378e-08 0.9238794445991516 0.13052590191364288 -3.393571645915472e-08 0.9914448857307434 0.13052590191364288 -3.393571645915472e-08 0.9914448857307434 -2.92846632089349e-14 -1.0 2.0281595425331034e-07 -2.92846632089349e-14 -1.0 2.0281595425331034e-07 -2.92846632089349e-14 -1.0 2.0281595425331034e-07 -2.92846632089349e-14 -1.0 2.0281595425331034e-07 -2.92846632089349e-14 -1.0 2.0281595425331034e-07 -2.92846632089349e-14 -1.0 2.0281595425331034e-07 -2.92846632089349e-14 -1.0 2.0281595425331034e-07 -2.92846632089349e-14 -1.0 2.0281595425331034e-07 -2.92846632089349e-14 -1.0 2.0281595425331034e-07 -2.92846632089349e-14 -1.0 2.0281595425331034e-07 -2.92846632089349e-14 -1.0 2.0281595425331034e-07 -2.92846632089349e-14 -1.0 2.0281595425331034e-07 -2.92846632089349e-14 -1.0 2.0281595425331034e-07 -2.92846632089349e-14 -1.0 2.0281595425331034e-07 -2.92846632089349e-14 -1.0 2.0281596846416505e-07 -2.92846632089349e-14 -1.0 2.0281595425331034e-07 -2.92846632089349e-14 -1.0 2.0281595425331034e-07 -2.92846632089349e-14 -1.0 2.0281596846416505e-07 -2.92846632089349e-14 -1.0 2.0281595425331034e-07 -2.92846632089349e-14 -1.0 2.0281595425331034e-07 -2.92846632089349e-14 -1.0 2.0281595425331034e-07 -2.92846632089349e-14 -1.0 2.0281595425331034e-07</float_array><technique_common><accessor source="#mesh14-normals-array" count="92" stride="3"><param name="X" type="float" /><param name="Y" type="float" /><param name="Z" type="float" /></accessor></technique_common></source><vertices id="mesh14-vertices"><input semantic="POSITION" source="#mesh14-positions" /></vertices><triangles count="92" material="graphite"><input semantic="VERTEX" source="#mesh14-vertices" offset="0" /><input semantic="NORMAL" source="#mesh14-normals" offset="1" /><p>0 0 1 0 3 0 0 1 3 1 2 1 2 2 3 2 5 2 2 3 5 3 4 3 4 4 5 4 7 4 4 5 7 5 6 5 6 6 7 6 9 6 6 7 9 7 8 7 8 8 9 8 11 8 8 9 11 9 10 9 10 10 11 10 13 10 10 11 13 11 12 11 12 12 13 12 15 12 12 13 15 13 14 13 14 14 15 14 17 14 14 15 17 15 16 15 16 16 17 16 19 16 16 17 19 17 18 17 18 18 19 18 21 18 18 19 21 19 20 19 20 20 21 20 23 20 20 21 23 21 22 21 22 22 23 22 25 22 22 23 25 23 24 23 24 24 25 24 27 24 24 25 27 25 26 25 26 26 27 26 29 26 26 27 29 27 28 27 28 28 29 28 31 28 28 29 31 29 30 29 30 30 31 30 33 30 30 31 33 31 32 31 32 32 33 32 35 32 32 33 35 33 34 33 34 34 35 34 37 34 34 35 37 35 36 35 36 36 37 36 39 36 36 37 39 37 38 37 38 38 39 38 41 38 38 39 41 39 40 39 40 40 41 40 43 40 40 41 43 41 42 41 42 42 43 42 45 42 42 43 45 43 44 43 5 44 3 44 1 44 1 45 47 45 45 45 45 46 43 46 41 46 41 47 39 47 37 47 37 48 35 48 33 48 33 49 31 49 29 49 29 50 27 50 25 50 25 51 23 51 21 51 21 52 19 52 17 52 17 53 15 53 13 53 13 54 11 54 9 54 9 55 7 55 5 55 5 56 1 56 45 56 45 57 41 57 37 57 37 58 33 58 29 58 29 59 25 59 21 59 21 60 17 60 13 60 13 61 9 61 5 61 5 62 45 62 37 62 37 63 29 63 21 63 21 64 13 64 5 64 37 65 21 65 5 65 44 66 45 66 47 66 44 67 47 67 46 67 46 68 47 68 1 68 46 69 1 69 0 69 46 70 0 70 2 70 2 71 4 71 6 71 6 72 8 72 10 72 10 73 12 73 14 73 14 74 16 74 18 74 18 75 20 75 22 75 22 76 24 76 26 76 26 77 28 77 30 77 30 78 32 78 34 78 34 79 36 79 38 79 38 80 40 80 42 80 42 81 44 81 46 81 46 82 2 82 6 82 6 83 10 83 14 83 14 84 18 84 22 84 22 85 26 85 30 85 30 86 34 86 38 86 38 87 42 87 46 87 46 88 6 88 14 88 14 89 22 89 30 89 30 90 38 90 46 90 14 91 30 91 46 91</p></triangles></mesh></geometry><geometry id="mesh15"><mesh><source id="mesh15-positions"><float_array id="mesh15-array" count="144">0.07500000298023224 0.02699999511241913 -0.010999996215105057 0.07500000298023224 0.05299999937415123 -0.010999999940395355 0.07060007750988007 0.02699999511241913 -0.011579257436096668 0.07060007750988007 0.05299999937415123 -0.011579261161386967 0.06650000065565109 0.02699999511241913 -0.013277566991746426 0.06650000065565109 0.05299999937415123 -0.01327756978571415 0.06297918409109116 0.026999996975064278 -0.015979183837771416 0.06297918409109116 0.05299999937415123 -0.015979185700416565 0.06027756631374359 0.026999996975064278 -0.019500000402331352 0.06027756631374359 0.05299999937415123 -0.01950000412762165 0.05857925862073898 0.026999996975064278 -0.023600077256560326 0.05857925862073898 0.05299999937415123 -0.023600080981850624 0.057999998331069946 0.026999998837709427 -0.02800000086426735 0.057999998331069946 0.05299999937415123 -0.028000004589557648 0.05857925862073898 0.026999998837709427 -0.03239992633461952 0.05857925862073898 0.05299999937415123 -0.03239993005990982 0.06027757003903389 0.026999998837709427 -0.036500003188848495 0.06027757003903389 0.05300000309944153 -0.036500006914138794 0.06297918409109116 0.026999998837709427 -0.04002081975340843 0.06297918409109116 0.05300000309944153 -0.04002082347869873 0.06650000065565109 0.027000000700354576 -0.0427224338054657 0.06650000065565109 0.05300000309944153 -0.042722437530756 0.07060007750988007 0.027000000700354576 -0.044420741498470306 0.07060007750988007 0.05300000309944153 -0.044420745223760605 0.07500000298023224 0.027000000700354576 -0.04500000178813934 0.07500000298023224 0.05300000309944153 -0.04500000551342964 0.07939992845058441 0.027000000700354576 -0.044420741498470306 0.07939992845058441 0.05300000309944153 -0.044420745223760605 0.08350000530481339 0.027000000700354576 -0.0427224300801754 0.08350000530481339 0.05300000309944153 -0.0427224338054657 0.08702082186937332 0.026999998837709427 -0.040020816028118134 0.08702082186937332 0.05300000309944153 -0.04002081975340843 0.08972243964672089 0.026999998837709427 -0.0364999994635582 0.08972243964672089 0.05300000309944153 -0.036500003188848495 0.0914207473397255 0.026999998837709427 -0.032399922609329224 0.0914207473397255 0.05299999937415123 -0.03239992633461952 0.09200000762939453 0.026999998837709427 -0.02799999713897705 0.09200000762939453 0.05299999937415123 -0.02800000086426735 0.0914207473397255 0.026999996975064278 -0.023600071668624878 0.0914207473397255 0.05299999937415123 -0.023600075393915176 0.08972243964672089 0.026999996975064278 -0.019499994814395905 0.08972243964672089 0.05299999937415123 -0.019499998539686203 0.08702082186937332 0.026999996975064278 -0.015979180112481117 0.08702082186937332 0.05299999937415123 -0.015979181975126266 0.08350000530481339 0.02699999511241913 -0.013277564197778702 0.08350000530481339 0.05299999937415123 -0.013277566991746426 0.07939992845058441 0.02699999511241913 -0.011579255573451519 0.07939992845058441 0.05299999937415123 -0.011579259298741817</float_array><technique_common><accessor source="#mesh15-array" count="48" stride="3"><param name="X" type="float" /><param name="Y" type="float" /><param name="Z" type="float" /></accessor></technique_common></source><source id="mesh15-normals"><float_array id="mesh15-normals-array" count="276">-0.13052618503570557 1.332093830797021e-07 0.9914449453353882 -0.13052618503570557 1.332093830797021e-07 0.9914449453353882 -0.3826838433742523 1.241313469790839e-07 0.9238794445991516 -0.3826838433742523 1.241313469790839e-07 0.9238794445991516 -0.6087613701820374 1.0659404381385684e-07 0.7933533787727356 -0.6087613701820374 1.0659404381385684e-07 0.7933533787727356 -0.7933535575866699 8.179245014616754e-08 0.608761191368103 -0.7933535575866699 8.179245014616754e-08 0.608761191368103 -0.9238795638084412 5.1416925828107196e-08 0.3826836347579956 -0.9238795638084412 5.1416925828107196e-08 0.3826836347579956 -0.9914449453353882 1.7537310270654416e-08 0.13052591681480408 -0.9914449453353882 1.7537310270654416e-08 0.13052591681480408 -0.9914449453353882 -1.7537349350504883e-08 -0.13052621483802795 -0.9914449453353882 -1.7537349350504883e-08 -0.13052621483802795 -0.9238794445991516 -5.1416961355243984e-08 -0.3826839327812195 -0.9238794445991516 -5.1416961355243984e-08 -0.3826839327812195 -0.7933533191680908 -8.179247856787697e-08 -0.6087614297866821 -0.7933533191680908 -8.179247856787697e-08 -0.6087614297866821 -0.6087611317634583 -1.0659407223556627e-07 -0.7933536171913147 -0.6087611317634583 -1.0659407223556627e-07 -0.7933536171913147 -0.38268354535102844 -1.2413137540079333e-07 -0.9238795638084412 -0.38268354535102844 -1.2413137540079333e-07 -0.9238795638084412 -0.1305258870124817 -1.332093830797021e-07 -0.9914449453353882 -0.1305258870124817 -1.332093830797021e-07 -0.9914449453353882 0.13052618503570557 -1.332093830797021e-07 -0.9914449453353882 0.13052618503570557 -1.332093830797021e-07 -0.9914449453353882 0.3826838433742523 -1.241313469790839e-07 -0.9238794445991516 0.3826838433742523 -1.241313469790839e-07 -0.9238794445991516 0.6087613701820374 -1.0659404381385684e-07 -0.7933533787727356 0.6087613701820374 -1.0659404381385684e-07 -0.7933533787727356 0.7933535575866699 -8.179245014616754e-08 -0.608761191368103 0.7933535575866699 -8.179245014616754e-08 -0.608761191368103 0.9238795638084412 -5.1416925828107196e-08 -0.3826836347579956 0.9238795638084412 -5.1416925828107196e-08 -0.3826836347579956 0.9914449453353882 -1.7537310270654416e-08 -0.13052591681480408 0.9914449453353882 -1.7537310270654416e-08 -0.13052591681480408 0.9914449453353882 1.7537349350504883e-08 0.13052621483802795 0.9914449453353882 1.7537349350504883e-08 0.13052621483802795 0.9238794445991516 5.1416961355243984e-08 0.3826839327812195 0.9238794445991516 5.1416961355243984e-08 0.3826839327812195 0.7933533191680908 8.179247856787697e-08 0.6087614297866821 0.7933533191680908 8.179247856787697e-08 0.6087614297866821 0.6087611317634583 1.0659407223556627e-07 0.7933536171913147 0.6087611317634583 1.0659407223556627e-07 0.7933536171913147 -2.028761815660307e-14 1.0 1.343588280633412e-07 -2.028761815660307e-14 1.0 1.343588280633412e-07 -2.028761815660307e-14 1.0 1.343588280633412e-07 -2.028761815660307e-14 1.0 1.343588280633412e-07 -2.028761815660307e-14 1.0 1.343588280633412e-07 -2.028761815660307e-14 1.0 1.343588280633412e-07 -2.028761815660307e-14 1.0 1.343588280633412e-07 -2.028761815660307e-14 1.0 1.343588280633412e-07 -2.028761815660307e-14 1.0 1.343588280633412e-07 -2.028761815660307e-14 1.0 1.343588280633412e-07 -2.028761815660307e-14 1.0 1.343588280633412e-07 -2.028761815660307e-14 1.0 1.343588280633412e-07 -2.0287619850668966e-14 1.0 1.343588280633412e-07 -2.028761815660307e-14 1.0 1.343588280633412e-07 -2.028761815660307e-14 1.0 1.343588280633412e-07 -2.0287619850668966e-14 1.0 1.343588280633412e-07 -2.028761815660307e-14 1.0 1.343588280633412e-07 -2.028761815660307e-14 1.0 1.343588280633412e-07 -2.028761815660307e-14 1.0 1.343588280633412e-07 -2.028761815660307e-14 1.0 1.343588280633412e-07 -2.028761815660307e-14 1.0 1.343588280633412e-07 -2.028761815660307e-14 1.0 1.343588280633412e-07 0.38268354535102844 1.2413137540079333e-07 0.9238795638084412 0.38268354535102844 1.2413137540079333e-07 0.9238795638084412 0.1305258870124817 1.332093830797021e-07 0.9914449453353882 0.1305258870124817 1.332093830797021e-07 0.9914449453353882 2.028761815660307e-14 -1.0 -1.343588280633412e-07 2.028761815660307e-14 -1.0 -1.343588280633412e-07 2.028761815660307e-14 -1.0 -1.343588280633412e-07 2.028761815660307e-14 -1.0 -1.343588280633412e-07 2.028761815660307e-14 -1.0 -1.343588280633412e-07 2.028761815660307e-14 -1.0 -1.343588280633412e-07 2.028761815660307e-14 -1.0 -1.343588280633412e-07 2.028761815660307e-14 -1.0 -1.343588280633412e-07 2.028761815660307e-14 -1.0 -1.343588280633412e-07 2.028761815660307e-14 -1.0 -1.343588280633412e-07 2.028761815660307e-14 -1.0 -1.343588280633412e-07 2.028761815660307e-14 -1.0 -1.343588280633412e-07 2.028761815660307e-14 -1.0 -1.343588280633412e-07 2.028761815660307e-14 -1.0 -1.343588280633412e-07 2.0287619850668966e-14 -1.0 -1.343588280633412e-07 2.028761815660307e-14 -1.0 -1.343588280633412e-07 2.028761815660307e-14 -1.0 -1.343588280633412e-07 2.0287619850668966e-14 -1.0 -1.343588280633412e-07 2.028761815660307e-14 -1.0 -1.343588280633412e-07 2.028761815660307e-14 -1.0 -1.343588280633412e-07 2.028761815660307e-14 -1.0 -1.343588280633412e-07 2.028761815660307e-14 -1.0 -1.343588280633412e-07</float_array><technique_common><accessor source="#mesh15-normals-array" count="92" stride="3"><param name="X" type="float" /><param name="Y" type="float" /><param name="Z" type="float" /></accessor></technique_common></source><vertices id="mesh15-vertices"><input semantic="POSITION" source="#mesh15-positions" /></vertices><triangles count="92" material="graphite"><input semantic="VERTEX" source="#mesh15-vertices" offset="0" /><input semantic="NORMAL" source="#mesh15-normals" offset="1" /><p>0 0 1 0 3 0 0 1 3 1 2 1 2 2 3 2 5 2 2 3 5 3 4 3 4 4 5 4 7 4 4 5 7 5 6 5 6 6 7 6 9 6 6 7 9 7 8 7 8 8 9 8 11 8 8 9 11 9 10 9 10 10 11 10 13 10 10 11 13 11 12 11 12 12 13 12 15 12 12 13 15 13 14 13 14 14 15 14 17 14 14 15 17 15 16 15 16 16 17 16 19 16 16 17 19 17 18 17 18 18 19 18 21 18 18 19 21 19 20 19 20 20 21 20 23 20 20 21 23 21 22 21 22 22 23 22 25 22 22 23 25 23 24 23 24 24 25 24 27 24 24 25 27 25 26 25 26 26 27 26 29 26 26 27 29 27 28 27 28 28 29 28 31 28 28 29 31 29 30 29 30 30 31 30 33 30 30 31 33 31 32 31 32 32 33 32 35 32 32 33 35 33 34 33 34 34 35 34 37 34 34 35 37 35 36 35 36 36 37 36 39 36 36 37 39 37 38 37 38 38 39 38 41 38 38 39 41 39 40 39 40 40 41 40 43 40 40 41 43 41 42 41 42 42 43 42 45 42 42 43 45 43 44 43 5 44 3 44 1 44 1 45 47 45 45 45 45 46 43 46 41 46 41 47 39 47 37 47 37 48 35 48 33 48 33 49 31 49 29 49 29 50 27 50 25 50 25 51 23 51 21 51 21 52 19 52 17 52 17 53 15 53 13 53 13 54 11 54 9 54 9 55 7 55 5 55 5 56 1 56 45 56 45 57 41 57 37 57 37 58 33 58 29 58 29 59 25 59 21 59 21 60 17 60 13 60 13 61 9 61 5 61 5 62 45 62 37 62 37 63 29 63 21 63 21 64 13 64 5 64 37 65 21 65 5 65 44 66 45 66 47 66 44 67 47 67 46 67 46 68 47 68 1 68 46 69 1 69 0 69 46 70 0 70 2 70 2 71 4 71 6 71 6 72 8 72 10 72 10 73 12 73 14 73 14 74 16 74 18 74 18 75 20 75 22 75 22 76 24 76 26 76 26 77 28 77 30 77 30 78 32 78 34 78 34 79 36 79 38 79 38 80 40 80 42 80 42 81 44 81 46 81 46 82 2 82 6 82 6 83 10 83 14 83 14 84 18 84 22 84 22 85 26 85 30 85 30 86 34 86 38 86 38 87 42 87 46 87 46 88 6 88 14 88 14 89 22 89 30 89 30 90 38 90 46 90 14 91 30 91 46 91</p></triangles></mesh></geometry></library_geometries><library_visual_scenes><visual_scene id="Scene"><node id="mesh0-node"><instance_geometry url="#mesh0"><bind_material><technique_common><instance_material symbol="graphite" target="#graphite" /></technique_common></bind_material></instance_geometry></node><node id="mesh1-node"><instance_geometry url="#mesh1"><bind_material><technique_common><instance_material symbol="graphite" target="#graphite" /></technique_common></bind_material></instance_geometry></node><node id="mesh2-node"><instance_geometry url="#mesh2"><bind_material><technique_common><instance_material symbol="graphite" target="#graphite" /></technique_common></bind_material></instance_geometry></node><node id="mesh3-node"><instance_geometry url="#mesh3"><bind_material><technique_common><instance_material symbol="graphite" target="#graphite" /></technique_common></bind_material></instance_geometry></node><node id="mesh4-node"><instance_geometry url="#mesh4"><bind_material><technique_common><instance_material symbol="graphite" target="#graphite" /></technique_common></bind_material></instance_geometry></node><node id="mesh5-node"><instance_geometry url="#mesh5"><bind_material><technique_common><instance_material symbol="graphite" target="#graphite" /></technique_common></bind_material></instance_geometry></node><node id="mesh6-node"><instance_geometry url="#mesh6"><bind_material><technique_common><instance_material symbol="graphite" target="#graphite" /></technique_common></bind_material></instance_geometry></node><node id="mesh7-node"><instance_geometry url="#mesh7"><bind_material><technique_common><instance_material symbol="graphite" target="#graphite" /></technique_common></bind_material></instance_geometry></node><node id="mesh8-node"><instance_geometry url="#mesh8"><bind_material><technique_common><instance_material symbol="graphite" target="#graphite" /></technique_common></bind_material></instance_geometry></node><node id="mesh9-node"><instance_geometry url="#mesh9"><bind_material><technique_common><instance_material symbol="graphite" target="#graphite" /></technique_common></bind_material></instance_geometry></node><node id="mesh10-node"><instance_geometry url="#mesh10"><bind_material><technique_common><instance_material symbol="graphite" target="#graphite" /></technique_common></bind_material></instance_geometry></node><node id="mesh11-node"><instance_geometry url="#mesh11"><bind_material><technique_common><instance_material symbol="graphite" target="#graphite" /></technique_common></bind_material></instance_geometry></node><node id="mesh12-node"><instance_geometry url="#mesh12"><bind_material><technique_common><instance_material symbol="graphite" target="#graphite" /></technique_common></bind_material></instance_geometry></node><node id="mesh13-node"><instance_geometry url="#mesh13"><bind_material><technique_common><instance_material symbol="graphite" target="#graphite" /></technique_common></bind_material></instance_geometry></node><node id="mesh14-node"><instance_geometry url="#mesh14"><bind_material><technique_common><instance_material symbol="graphite" target="#graphite" /></technique_common></bind_material></instance_geometry></node><node id="mesh15-node"><instance_geometry url="#mesh15"><bind_material><technique_common><instance_material symbol="graphite" target="#graphite" /></technique_common></bind_material></instance_geometry></node></visual_scene></library_visual_scenes><scene><instance_visual_scene url="#Scene" /></scene></COLLADA>