<?xml version='1.0' encoding='utf-8'?>
<COLLADA xmlns="http://www.collada.org/2005/11/COLLADASchema" version="1.4.1"><asset><unit name="meter" meter="1" /><up_axis>Z_UP</up_axis></asset><library_effects><effect id="graphite-fx"><profile_COMMON><technique sid="common"><phong><emission><color>0 0 0 1</color></emission><ambient><color>0.065 0.075 0.085 1</color></ambient><diffuse><color>0.065 0.075 0.085 1</color></diffuse><specular><color>0.12 0.12 0.12 1</color></specular><shininess><float>25</float></shininess></phong></technique></profile_COMMON></effect><effect id="titanium-fx"><profile_COMMON><technique sid="common"><phong><emission><color>0 0 0 1</color></emission><ambient><color>0.36 0.4 0.43 1</color></ambient><diffuse><color>0.36 0.4 0.43 1</color></diffuse><specular><color>0.12 0.12 0.12 1</color></specular><shininess><float>25</float></shininess></phong></technique></profile_COMMON></effect><effect id="ivory-fx"><profile_COMMON><technique sid="common"><phong><emission><color>0 0 0 1</color></emission><ambient><color>0.72 0.72 0.65 1</color></ambient><diffuse><color>0.72 0.72 0.65 1</color></diffuse><specular><color>0.12 0.12 0.12 1</color></specular><shininess><float>25</float></shininess></phong></technique></profile_COMMON></effect><effect id="copper-fx"><profile_COMMON><technique sid="common"><phong><emission><color>0 0 0 1</color></emission><ambient><color>0.66 0.29 0.08 1</color></ambient><diffuse><color>0.66 0.29 0.08 1</color></diffuse><specular><color>0.12 0.12 0.12 1</color></specular><shininess><float>25</float></shininess></phong></technique></profile_COMMON></effect><effect id="rubber-fx"><profile_COMMON><technique sid="common"><phong><emission><color>0 0 0 1</color></emission><ambient><color>0.025 0.028 0.032 1</color></ambient><diffuse><color>0.025 0.028 0.032 1</color></diffuse><specular><color>0.12 0.12 0.12 1</color></specular><shininess><float>25</float></shininess></phong></technique></profile_COMMON></effect><effect id="lens-fx"><profile_COMMON><technique sid="common"><phong><emission><color>0 0 0 1</color></emission><ambient><color>0.05 0.26 0.33 1</color></ambient><diffuse><color>0.05 0.26 0.33 1</color></diffuse><specular><color>0.12 0.12 0.12 1</color></specular><shininess><float>25</float></shininess></phong></technique></profile_COMMON></effect></library_effects><library_materials><material id="graphite"><instance_effect url="#graphite-fx" /></material><material id="titanium"><instance_effect url="#titanium-fx" /></material><material id="ivory"><instance_effect url="#ivory-fx" /></material><material id="copper"><instance_effect url="#copper-fx" /></material><material id="rubber"><instance_effect url="#rubber-fx" /></material><material id="lens"><instance_effect url="#lens-fx" /></material></library_materials><library_geometries><geometry id="mesh0"><mesh><source id="mesh0-positions"><float_array id="mesh0-array" count="144">-4.492126226551818e-09 -0.06000000610947609 0.029750004410743713 -4.492126226551818e-09 -0.04800000414252281 0.029750004410743713 -0.007699872832745314 -0.06000000610947609 0.02873629704117775 -0.007699872832745314 -0.04800000414252281 0.0287362951785326 -0.014875007793307304 -0.06000000610947609 0.025764258578419685 -0.014875007793307304 -0.04800000414252281 0.025764256715774536 -0.021036436781287193 -0.06000000610947609 0.021036427468061447 -0.021036436781287193 -0.04800000414252281 0.021036425605416298 -0.025764264166355133 -0.06000000610947609 0.014874999411404133 -0.025764264166355133 -0.04800000041723251 0.014874997548758984 -0.028736302629113197 -0.06000000610947609 0.007699863985180855 -0.028736302629113197 -0.04800000041723251 0.007699862588196993 -0.029750008136034012 -0.06000000238418579 -3.6859728602678388e-09 -0.029750008136034012 -0.04800000041723251 -5.298279592835797e-09 -0.0287362989038229 -0.06000000238418579 -0.007699871435761452 -0.0287362989038229 -0.047999996691942215 -0.007699872832745314 -0.025764260441064835 -0.06000000238418579 -0.01487500499933958 -0.025764260441064835 -0.047999996691942215 -0.01487500686198473 -0.021036429330706596 -0.05999999865889549 -0.021036431193351746 -0.021036429330706596 -0.047999996691942215 -0.021036433055996895 -0.014875000342726707 -0.05999999865889549 -0.025764262303709984 -0.014875000342726707 -0.047999996691942215 -0.025764264166355133 -0.007699864450842142 -0.05999999865889549 -0.02873629704117775 -0.007699864450842142 -0.047999996691942215 -0.0287362989038229 4.492126226551818e-09 -0.05999999865889549 -0.029750004410743713 4.492126226551818e-09 -0.047999996691942215 -0.029750004410743713 0.007699872832745314 -0.05999999865889549 -0.0287362951785326 0.007699872832745314 -0.047999996691942215 -0.02873629704117775 0.014875007793307304 -0.05999999865889549 -0.025764256715774536 0.014875007793307304 -0.047999996691942215 -0.025764258578419685 0.021036436781287193 -0.05999999865889549 -0.021036425605416298 0.021036436781287193 -0.047999996691942215 -0.021036427468061447 0.025764264166355133 -0.06000000238418579 -0.014874997548758984 0.025764264166355133 -0.047999996691942215 -0.014874999411404133 0.028736302629113197 -0.06000000238418579 -0.007699862588196993 0.028736302629113197 -0.047999996691942215 -0.007699863985180855 0.029750008136034012 -0.06000000238418579 5.298279592835797e-09 0.029750008136034012 -0.04800000041723251 3.6859728602678388e-09 0.0287362989038229 -0.06000000610947609 0.007699872832745314 0.0287362989038229 -0.04800000041723251 0.007699871435761452 0.025764260441064835 -0.06000000610947609 0.01487500686198473 0.025764260441064835 -0.04800000041723251 0.01487500499933958 0.021036429330706596 -0.06000000610947609 0.021036433055996895 0.021036429330706596 -0.04800000414252281 0.021036431193351746 0.014875000342726707 -0.06000000610947609 0.025764264166355133 0.014875000342726707 -0.04800000414252281 0.025764262303709984 0.007699864450842142 -0.06000000610947609 0.0287362989038229 0.007699864450842142 -0.04800000414252281 0.02873629704117775</float_array><technique_common><accessor source="#mesh0-array" count="48" stride="3"><param name="X" type="float" /><param name="Y" type="float" /><param name="Z" type="float" /></accessor></technique_common></source><source id="mesh0-normals"><float_array id="mesh0-normals-array" count="276">-0.13052640855312347 1.3320936886884738e-07 0.9914448857307434 -0.13052640855312347 1.3320936886884738e-07 0.9914448857307434 -0.38268348574638367 1.2413137540079333e-07 0.9238796234130859 -0.38268348574638367 1.2413137540079333e-07 0.9238796234130859 -0.6087615489959717 1.0659402960300213e-07 0.7933533191680908 -0.6087615489959717 1.0659402960300213e-07 0.7933533191680908 -0.7933534383773804 8.17924572515949e-08 0.6087613105773926 -0.7933534383773804 8.17924572515949e-08 0.6087613105773926 -0.9238796234130859 5.1416872537402014e-08 0.3826832175254822 -0.9238796234130859 5.1416872537402014e-08 0.3826832175254822 -0.9914448857307434 1.7537338692363846e-08 0.13052614033222198 -0.9914448857307434 1.7537338692363846e-08 0.13052614033222198 -0.9914448857307434 -1.7537377772214313e-08 -0.13052643835544586 -0.9914448857307434 -1.7537377772214313e-08 -0.13052643835544586 -0.9238795042037964 -5.14169080645388e-08 -0.38268351554870605 -0.9238795042037964 -5.14169080645388e-08 -0.38268351554870605 -0.793353259563446 -8.179249988415904e-08 -0.6087616086006165 -0.793353259563446 -8.179249988415904e-08 -0.6087616086006165 -0.6087612509727478 -1.0659404381385684e-07 -0.7933534979820251 -0.6087612509727478 -1.0659404381385684e-07 -0.7933534979820251 -0.3826831877231598 -1.2413140382250276e-07 -0.9238797426223755 -0.3826831877231598 -1.2413140382250276e-07 -0.9238797426223755 -0.1305261105298996 -1.3320936886884738e-07 -0.9914448857307434 -0.1305261105298996 -1.3320936886884738e-07 -0.9914448857307434 0.13052640855312347 -1.3320936886884738e-07 -0.9914448857307434 0.13052640855312347 -1.3320936886884738e-07 -0.9914448857307434 0.38268348574638367 -1.2413137540079333e-07 -0.9238796234130859 0.38268348574638367 -1.2413137540079333e-07 -0.9238796234130859 0.6087615489959717 -1.0659402960300213e-07 -0.7933533191680908 0.6087615489959717 -1.0659402960300213e-07 -0.7933533191680908 0.7933534383773804 -8.17924572515949e-08 -0.6087613105773926 0.7933534383773804 -8.17924572515949e-08 -0.6087613105773926 0.9238796234130859 -5.1416872537402014e-08 -0.3826832175254822 0.9238796234130859 -5.1416872537402014e-08 -0.3826832175254822 0.9914448857307434 -1.7537338692363846e-08 -0.13052614033222198 0.9914448857307434 -1.7537338692363846e-08 -0.13052614033222198 0.9914448857307434 1.7537377772214313e-08 0.13052643835544586 0.9914448857307434 1.7537377772214313e-08 0.13052643835544586 0.9238795042037964 5.14169080645388e-08 0.38268351554870605 0.9238795042037964 5.14169080645388e-08 0.38268351554870605 0.793353259563446 8.179249988415904e-08 0.6087616086006165 0.793353259563446 8.179249988415904e-08 0.6087616086006165 0.6087612509727478 1.0659404381385684e-07 0.7933534979820251 0.6087612509727478 1.0659404381385684e-07 0.7933534979820251 -2.028761815660307e-14 1.0 1.343588280633412e-07 -2.028761815660307e-14 1.0 1.343588280633412e-07 -2.028761815660307e-14 1.0 1.343588280633412e-07 -2.028761815660307e-14 1.0 1.343588280633412e-07 -2.028761815660307e-14 1.0 1.343588280633412e-07 -2.028761815660307e-14 1.0 1.343588280633412e-07 -2.028761815660307e-14 1.0 1.343588280633412e-07 -2.028761815660307e-14 1.0 1.343588280633412e-07 -2.028761815660307e-14 1.0 1.343588280633412e-07 -2.028761815660307e-14 1.0 1.343588280633412e-07 -2.028761815660307e-14 1.0 1.343588280633412e-07 -2.028761815660307e-14 1.0 1.343588280633412e-07 -2.028761815660307e-14 1.0 1.343588280633412e-07 -2.028761815660307e-14 1.0 1.343588280633412e-07 -2.028761815660307e-14 1.0 1.343588280633412e-07 -2.028761815660307e-14 1.0 1.343588280633412e-07 -2.028761815660307e-14 1.0 1.343588280633412e-07 -2.028761815660307e-14 1.0 1.343588280633412e-07 -2.028761815660307e-14 1.0 1.343588280633412e-07 -2.028761815660307e-14 1.0 1.343588280633412e-07 -2.028761815660307e-14 1.0 1.343588280633412e-07 -2.028761815660307e-14 1.0 1.343588280633412e-07 0.3826831877231598 1.2413140382250276e-07 0.9238797426223755 0.3826831877231598 1.2413140382250276e-07 0.9238797426223755 0.1305261105298996 1.3320936886884738e-07 0.9914448857307434 0.1305261105298996 1.3320936886884738e-07 0.9914448857307434 2.028761815660307e-14 -1.0 -1.343588280633412e-07 2.028761815660307e-14 -1.0 -1.343588280633412e-07 2.028761815660307e-14 -1.0 -1.343588280633412e-07 2.028761815660307e-14 -1.0 -1.343588280633412e-07 2.028761815660307e-14 -1.0 -1.343588280633412e-07 2.028761815660307e-14 -1.0 -1.343588280633412e-07 2.028761815660307e-14 -1.0 -1.343588280633412e-07 2.028761815660307e-14 -1.0 -1.343588280633412e-07 2.028761815660307e-14 -1.0 -1.343588280633412e-07 2.028761815660307e-14 -1.0 -1.343588280633412e-07 2.028761815660307e-14 -1.0 -1.343588280633412e-07 2.028761815660307e-14 -1.0 -1.343588280633412e-07 2.0287619850668966e-14 -1.0 -1.343588280633412e-07 2.0287619850668966e-14 -1.0 -1.343588280633412e-07 2.028761815660307e-14 -1.0 -1.343588280633412e-07 2.0287619850668966e-14 -1.0 -1.343588280633412e-07 2.0287619850668966e-14 -1.0 -1.343588280633412e-07 2.028761815660307e-14 -1.0 -1.343588280633412e-07 2.028761815660307e-14 -1.0 -1.343588280633412e-07 2.028761815660307e-14 -1.0 -1.343588280633412e-07 2.028761815660307e-14 -1.0 -1.343588280633412e-07 2.028761815660307e-14 -1.0 -1.343588280633412e-07</float_array><technique_common><accessor source="#mesh0-normals-array" count="92" stride="3"><param name="X" type="float" /><param name="Y" type="float" /><param name="Z" type="float" /></accessor></technique_common></source><vertices id="mesh0-vertices"><input semantic="POSITION" source="#mesh0-positions" /></vertices><triangles count="92" material="ivory"><input semantic="VERTEX" source="#mesh0-vertices" offset="0" /><input semantic="NORMAL" source="#mesh0-normals" offset="1" /><p>0 0 1 0 3 0 0 1 3 1 2 1 2 2 3 2 5 2 2 3 5 3 4 3 4 4 5 4 7 4 4 5 7 5 6 5 6 6 7 6 9 6 6 7 9 7 8 7 8 8 9 8 11 8 8 9 11 9 10 9 10 10 11 10 13 10 10 11 13 11 12 11 12 12 13 12 15 12 12 13 15 13 14 13 14 14 15 14 17 14 14 15 17 15 16 15 16 16 17 16 19 16 16 17 19 17 18 17 18 18 19 18 21 18 18 19 21 19 20 19 20 20 21 20 23 20 20 21 23 21 22 21 22 22 23 22 25 22 22 23 25 23 24 23 24 24 25 24 27 24 24 25 27 25 26 25 26 26 27 26 29 26 26 27 29 27 28 27 28 28 29 28 31 28 28 29 31 29 30 29 30 30 31 30 33 30 30 31 33 31 32 31 32 32 33 32 35 32 32 33 35 33 34 33 34 34 35 34 37 34 34 35 37 35 36 35 36 36 37 36 39 36 36 37 39 37 38 37 38 38 39 38 41 38 38 39 41 39 40 39 40 40 41 40 43 40 40 41 43 41 42 41 42 42 43 42 45 42 42 43 45 43 44 43 5 44 3 44 1 44 1 45 47 45 45 45 45 46 43 46 41 46 41 47 39 47 37 47 37 48 35 48 33 48 33 49 31 49 29 49 29 50 27 50 25 50 25 51 23 51 21 51 21 52 19 52 17 52 17 53 15 53 13 53 13 54 11 54 9 54 9 55 7 55 5 55 5 56 1 56 45 56 45 57 41 57 37 57 37 58 33 58 29 58 29 59 25 59 21 59 21 60 17 60 13 60 13 61 9 61 5 61 5 62 45 62 37 62 37 63 29 63 21 63 21 64 13 64 5 64 37 65 21 65 5 65 44 66 45 66 47 66 44 67 47 67 46 67 46 68 47 68 1 68 46 69 1 69 0 69 46 70 0 70 2 70 2 71 4 71 6 71 6 72 8 72 10 72 10 73 12 73 14 73 14 74 16 74 18 74 18 75 20 75 22 75 22 76 24 76 26 76 26 77 28 77 30 77 30 78 32 78 34 78 34 79 36 79 38 79 38 80 40 80 42 80 42 81 44 81 46 81 46 82 2 82 6 82 6 83 10 83 14 83 14 84 18 84 22 84 22 85 26 85 30 85 30 86 34 86 38 86 38 87 42 87 46 87 46 88 6 88 14 88 14 89 22 89 30 89 30 90 38 90 46 90 14 91 30 91 46 91</p></triangles></mesh></geometry><geometry id="mesh1"><mesh><source id="mesh1-positions"><float_array id="mesh1-array" count="144">-4.492126226551818e-09 0.047999996691942215 0.029750004410743713 -4.492126226551818e-09 0.05999999865889549 0.029750004410743713 -0.007699872832745314 0.047999996691942215 0.02873629704117775 -0.007699872832745314 0.05999999865889549 0.0287362951785326 -0.014875007793307304 0.047999996691942215 0.025764258578419685 -0.014875007793307304 0.05999999865889549 0.025764256715774536 -0.021036436781287193 0.047999996691942215 0.021036427468061447 -0.021036436781287193 0.05999999865889549 0.021036425605416298 -0.025764264166355133 0.047999996691942215 0.014874999411404133 -0.025764264166355133 0.06000000238418579 0.014874997548758984 -0.028736302629113197 0.047999996691942215 0.007699863985180855 -0.028736302629113197 0.06000000238418579 0.007699862588196993 -0.029750008136034012 0.04800000041723251 -3.6859728602678388e-09 -0.029750008136034012 0.06000000238418579 -5.298279592835797e-09 -0.0287362989038229 0.04800000041723251 -0.007699871435761452 -0.0287362989038229 0.06000000610947609 -0.007699872832745314 -0.025764260441064835 0.04800000041723251 -0.01487500499933958 -0.025764260441064835 0.06000000610947609 -0.01487500686198473 -0.021036429330706596 0.04800000414252281 -0.021036431193351746 -0.021036429330706596 0.06000000610947609 -0.021036433055996895 -0.014875000342726707 0.04800000414252281 -0.025764262303709984 -0.014875000342726707 0.06000000610947609 -0.025764264166355133 -0.007699864450842142 0.04800000414252281 -0.02873629704117775 -0.007699864450842142 0.06000000610947609 -0.0287362989038229 4.492126226551818e-09 0.04800000414252281 -0.029750004410743713 4.492126226551818e-09 0.06000000610947609 -0.029750004410743713 0.007699872832745314 0.04800000414252281 -0.0287362951785326 0.007699872832745314 0.06000000610947609 -0.02873629704117775 0.014875007793307304 0.04800000414252281 -0.025764256715774536 0.014875007793307304 0.06000000610947609 -0.025764258578419685 0.021036436781287193 0.04800000414252281 -0.021036425605416298 0.021036436781287193 0.06000000610947609 -0.021036427468061447 0.025764264166355133 0.04800000041723251 -0.014874997548758984 0.025764264166355133 0.06000000610947609 -0.014874999411404133 0.028736302629113197 0.04800000041723251 -0.007699862588196993 0.028736302629113197 0.06000000610947609 -0.007699863985180855 0.029750008136034012 0.04800000041723251 5.298279592835797e-09 0.029750008136034012 0.06000000238418579 3.6859728602678388e-09 0.0287362989038229 0.047999996691942215 0.007699872832745314 0.0287362989038229 0.06000000238418579 0.007699871435761452 0.025764260441064835 0.047999996691942215 0.01487500686198473 0.025764260441064835 0.06000000238418579 0.01487500499933958 0.021036429330706596 0.047999996691942215 0.021036433055996895 0.021036429330706596 0.05999999865889549 0.021036431193351746 0.014875000342726707 0.047999996691942215 0.025764264166355133 0.014875000342726707 0.05999999865889549 0.025764262303709984 0.007699864450842142 0.047999996691942215 0.0287362989038229 0.007699864450842142 0.05999999865889549 0.02873629704117775</float_array><technique_common><accessor source="#mesh1-array" count="48" stride="3"><param name="X" type="float" /><param name="Y" type="float" /><param name="Z" type="float" /></accessor></technique_common></source><source id="mesh1-normals"><float_array id="mesh1-normals-array" count="276">-0.13052640855312347 1.3320936886884738e-07 0.9914448857307434 -0.13052640855312347 1.3320936886884738e-07 0.9914448857307434 -0.38268348574638367 1.2413137540079333e-07 0.9238796234130859 -0.38268348574638367 1.2413137540079333e-07 0.9238796234130859 -0.6087615489959717 1.0659402960300213e-07 0.7933533191680908 -0.6087615489959717 1.0659402960300213e-07 0.7933533191680908 -0.7933534383773804 8.17924572515949e-08 0.6087613105773926 -0.7933534383773804 8.17924572515949e-08 0.6087613105773926 -0.9238796234130859 5.1416872537402014e-08 0.3826832175254822 -0.9238796234130859 5.1416872537402014e-08 0.3826832175254822 -0.9914448857307434 1.7537338692363846e-08 0.13052614033222198 -0.9914448857307434 1.7537338692363846e-08 0.13052614033222198 -0.9914448857307434 -1.7537377772214313e-08 -0.13052643835544586 -0.9914448857307434 -1.7537377772214313e-08 -0.13052643835544586 -0.9238795042037964 -5.14169080645388e-08 -0.38268351554870605 -0.9238795042037964 -5.14169080645388e-08 -0.38268351554870605 -0.793353259563446 -8.179249988415904e-08 -0.6087616086006165 -0.793353259563446 -8.179249988415904e-08 -0.6087616086006165 -0.6087612509727478 -1.0659404381385684e-07 -0.7933534979820251 -0.6087612509727478 -1.0659404381385684e-07 -0.7933534979820251 -0.3826831877231598 -1.2413140382250276e-07 -0.9238797426223755 -0.3826831877231598 -1.2413140382250276e-07 -0.9238797426223755 -0.1305261105298996 -1.3320936886884738e-07 -0.9914448857307434 -0.1305261105298996 -1.3320936886884738e-07 -0.9914448857307434 0.13052640855312347 -1.3320936886884738e-07 -0.9914448857307434 0.13052640855312347 -1.3320936886884738e-07 -0.9914448857307434 0.38268348574638367 -1.2413137540079333e-07 -0.9238796234130859 0.38268348574638367 -1.2413137540079333e-07 -0.9238796234130859 0.6087615489959717 -1.0659402960300213e-07 -0.7933533191680908 0.6087615489959717 -1.0659402960300213e-07 -0.7933533191680908 0.7933534383773804 -8.17924572515949e-08 -0.6087613105773926 0.7933534383773804 -8.17924572515949e-08 -0.6087613105773926 0.9238796234130859 -5.1416872537402014e-08 -0.3826832175254822 0.9238796234130859 -5.1416872537402014e-08 -0.3826832175254822 0.9914448857307434 -1.7537338692363846e-08 -0.13052614033222198 0.9914448857307434 -1.7537338692363846e-08 -0.13052614033222198 0.9914448857307434 1.7537377772214313e-08 0.13052643835544586 0.9914448857307434 1.7537377772214313e-08 0.13052643835544586 0.9238795042037964 5.14169080645388e-08 0.38268351554870605 0.9238795042037964 5.14169080645388e-08 0.38268351554870605 0.793353259563446 8.179249988415904e-08 0.6087616086006165 0.793353259563446 8.179249988415904e-08 0.6087616086006165 0.6087612509727478 1.0659404381385684e-07 0.7933534979820251 0.6087612509727478 1.0659404381385684e-07 0.7933534979820251 -2.028761815660307e-14 1.0 1.343588280633412e-07 -2.028761815660307e-14 1.0 1.343588280633412e-07 -2.028761815660307e-14 1.0 1.343588280633412e-07 -2.028761815660307e-14 1.0 1.343588280633412e-07 -2.028761815660307e-14 1.0 1.343588280633412e-07 -2.028761815660307e-14 1.0 1.343588280633412e-07 -2.028761815660307e-14 1.0 1.343588280633412e-07 -2.028761815660307e-14 1.0 1.343588280633412e-07 -2.028761815660307e-14 1.0 1.343588280633412e-07 -2.028761815660307e-14 1.0 1.343588280633412e-07 -2.028761815660307e-14 1.0 1.343588280633412e-07 -2.028761815660307e-14 1.0 1.343588280633412e-07 -2.028761815660307e-14 1.0 1.343588280633412e-07 -2.028761815660307e-14 1.0 1.343588280633412e-07 -2.028761815660307e-14 1.0 1.343588280633412e-07 -2.028761815660307e-14 1.0 1.343588280633412e-07 -2.028761815660307e-14 1.0 1.343588280633412e-07 -2.028761815660307e-14 1.0 1.343588280633412e-07 -2.028761815660307e-14 1.0 1.343588280633412e-07 -2.028761815660307e-14 1.0 1.343588280633412e-07 -2.028761815660307e-14 1.0 1.343588280633412e-07 -2.028761815660307e-14 1.0 1.343588280633412e-07 0.3826831877231598 1.2413140382250276e-07 0.9238797426223755 0.3826831877231598 1.2413140382250276e-07 0.9238797426223755 0.1305261105298996 1.3320936886884738e-07 0.9914448857307434 0.1305261105298996 1.3320936886884738e-07 0.9914448857307434 2.028761815660307e-14 -1.0 -1.343588280633412e-07 2.028761815660307e-14 -1.0 -1.343588280633412e-07 2.028761815660307e-14 -1.0 -1.343588280633412e-07 2.028761815660307e-14 -1.0 -1.343588280633412e-07 2.028761815660307e-14 -1.0 -1.343588280633412e-07 2.028761815660307e-14 -1.0 -1.343588280633412e-07 2.028761815660307e-14 -1.0 -1.343588280633412e-07 2.028761815660307e-14 -1.0 -1.343588280633412e-07 2.028761815660307e-14 -1.0 -1.343588280633412e-07 2.028761815660307e-14 -1.0 -1.343588280633412e-07 2.028761815660307e-14 -1.0 -1.343588280633412e-07 2.028761815660307e-14 -1.0 -1.343588280633412e-07 2.0287619850668966e-14 -1.0 -1.343588280633412e-07 2.0287619850668966e-14 -1.0 -1.343588280633412e-07 2.028761815660307e-14 -1.0 -1.343588280633412e-07 2.0287619850668966e-14 -1.0 -1.343588280633412e-07 2.0287619850668966e-14 -1.0 -1.343588280633412e-07 2.028761815660307e-14 -1.0 -1.343588280633412e-07 2.028761815660307e-14 -1.0 -1.343588280633412e-07 2.028761815660307e-14 -1.0 -1.343588280633412e-07 2.028761815660307e-14 -1.0 -1.343588280633412e-07 2.028761815660307e-14 -1.0 -1.343588280633412e-07</float_array><technique_common><accessor source="#mesh1-normals-array" count="92" stride="3"><param name="X" type="float" /><param name="Y" type="float" /><param name="Z" type="float" /></accessor></technique_common></source><vertices id="mesh1-vertices"><input semantic="POSITION" source="#mesh1-positions" /></vertices><triangles count="92" material="ivory"><input semantic="VERTEX" source="#mesh1-vertices" offset="0" /><input semantic="NORMAL" source="#mesh1-normals" offset="1" /><p>0 0 1 0 3 0 0 1 3 1 2 1 2 2 3 2 5 2 2 3 5 3 4 3 4 4 5 4 7 4 4 5 7 5 6 5 6 6 7 6 9 6 6 7 9 7 8 7 8 8 9 8 11 8 8 9 11 9 10 9 10 10 11 10 13 10 10 11 13 11 12 11 12 12 13 12 15 12 12 13 15 13 14 13 14 14 15 14 17 14 14 15 17 15 16 15 16 16 17 16 19 16 16 17 19 17 18 17 18 18 19 18 21 18 18 19 21 19 20 19 20 20 21 20 23 20 20 21 23 21 22 21 22 22 23 22 25 22 22 23 25 23 24 23 24 24 25 24 27 24 24 25 27 25 26 25 26 26 27 26 29 26 26 27 29 27 28 27 28 28 29 28 31 28 28 29 31 29 30 29 30 30 31 30 33 30 30 31 33 31 32 31 32 32 33 32 35 32 32 33 35 33 34 33 34 34 35 34 37 34 34 35 37 35 36 35 36 36 37 36 39 36 36 37 39 37 38 37 38 38 39 38 41 38 38 39 41 39 40 39 40 40 41 40 43 40 40 41 43 41 42 41 42 42 43 42 45 42 42 43 45 43 44 43 5 44 3 44 1 44 1 45 47 45 45 45 45 46 43 46 41 46 41 47 39 47 37 47 37 48 35 48 33 48 33 49 31 49 29 49 29 50 27 50 25 50 25 51 23 51 21 51 21 52 19 52 17 52 17 53 15 53 13 53 13 54 11 54 9 54 9 55 7 55 5 55 5 56 1 56 45 56 45 57 41 57 37 57 37 58 33 58 29 58 29 59 25 59 21 59 21 60 17 60 13 60 13 61 9 61 5 61 5 62 45 62 37 62 37 63 29 63 21 63 21 64 13 64 5 64 37 65 21 65 5 65 44 66 45 66 47 66 44 67 47 67 46 67 46 68 47 68 1 68 46 69 1 69 0 69 46 70 0 70 2 70 2 71 4 71 6 71 6 72 8 72 10 72 10 73 12 73 14 73 14 74 16 74 18 74 18 75 20 75 22 75 22 76 24 76 26 76 26 77 28 77 30 77 30 78 32 78 34 78 34 79 36 79 38 79 38 80 40 80 42 80 42 81 44 81 46 81 46 82 2 82 6 82 6 83 10 83 14 83 14 84 18 84 22 84 22 85 26 85 30 85 30 86 34 86 38 86 38 87 42 87 46 87 46 88 6 88 14 88 14 89 22 89 30 89 30 90 38 90 46 90 14 91 30 91 46 91</p></triangles></mesh></geometry></library_geometries><library_visual_scenes><visual_scene id="Scene"><node id="mesh0-node"><instance_geometry url="#mesh0"><bind_material><technique_common><instance_material symbol="ivory" target="#ivory" /></technique_common></bind_material></instance_geometry></node><node id="mesh1-node"><instance_geometry url="#mesh1"><bind_material><technique_common><instance_material symbol="ivory" target="#ivory" /></technique_common></bind_material></instance_geometry></node></visual_scene></library_visual_scenes><scene><instance_visual_scene url="#Scene" /></scene></COLLADA>