<?xml version='1.0' encoding='utf-8'?>
<COLLADA xmlns="http://www.collada.org/2005/11/COLLADASchema" version="1.4.1"><asset><unit name="meter" meter="1" /><up_axis>Z_UP</up_axis></asset><library_effects><effect id="graphite-fx"><profile_COMMON><technique sid="common"><phong><emission><color>0 0 0 1</color></emission><ambient><color>0.065 0.075 0.085 1</color></ambient><diffuse><color>0.065 0.075 0.085 1</color></diffuse><specular><color>0.12 0.12 0.12 1</color></specular><shininess><float>25</float></shininess></phong></technique></profile_COMMON></effect><effect id="titanium-fx"><profile_COMMON><technique sid="common"><phong><emission><color>0 0 0 1</color></emission><ambient><color>0.36 0.4 0.43 1</color></ambient><diffuse><color>0.36 0.4 0.43 1</color></diffuse><specular><color>0.12 0.12 0.12 1</color></specular><shininess><float>25</float></shininess></phong></technique></profile_COMMON></effect><effect id="ivory-fx"><profile_COMMON><technique sid="common"><phong><emission><color>0 0 0 1</color></emission><ambient><color>0.72 0.72 0.65 1</color></ambient><diffuse><color>0.72 0.72 0.65 1</color></diffuse><specular><color>0.12 0.12 0.12 1</color></specular><shininess><float>25</float></shininess></phong></technique></profile_COMMON></effect><effect id="copper-fx"><profile_COMMON><technique sid="common"><phong><emission><color>0 0 0 1</color></emission><ambient><color>0.66 0.29 0.08 1</color></ambient><diffuse><color>0.66 0.29 0.08 1</color></diffuse><specular><color>0.12 0.12 0.12 1</color></specular><shininess><float>25</float></shininess></phong></technique></profile_COMMON></effect><effect id="rubber-fx"><profile_COMMON><technique sid="common"><phong><emission><color>0 0 0 1</color></emission><ambient><color>0.025 0.028 0.032 1</color></ambient><diffuse><color>0.025 0.028 0.032 1</color></diffuse><specular><color>0.12 0.12 0.12 1</color></specular><shininess><float>25</float></shininess></phong></technique></profile_COMMON></effect><effect id="lens-fx"><profile_COMMON><technique sid="common"><phong><emission><color>0 0 0 1</color></emission><ambient><color>0.05 0.26 0.33 1</color></ambient><diffuse><color>0.05 0.26 0.33 1</color></diffuse><specular><color>0.12 0.12 0.12 1</color></specular><shininess><float>25</float></shininess></phong></technique></profile_COMMON></effect></library_effects><library_materials><material id="graphite"><instance_effect url="#graphite-fx" /></material><material id="titanium"><instance_effect url="#titanium-fx" /></material><material id="ivory"><instance_effect url="#ivory-fx" /></material><material id="copper"><instance_effect url="#copper-fx" /></material><material id="rubber"><instance_effect url="#rubber-fx" /></material><material id="lens"><instance_effect url="#lens-fx" /></material></library_materials><library_geometries><geometry id="mesh0"><mesh><source id="mesh0-positions"><float_array id="mesh0-array" count="144">-6.0322831174630664e-09 -0.0625000074505806 0.03995000198483467 -6.0322831174630664e-09 -0.05050000175833702 0.03995000198483467 -0.01033982913941145 -0.0625000074505806 0.038588739931583405 -0.01033982913941145 -0.05050000175833702 0.038588736206293106 -0.01997501030564308 -0.0625000074505806 0.03459771350026131 -0.01997501030564308 -0.05050000175833702 0.03459771350026131 -0.028248924762010574 -0.0625000074505806 0.02824891358613968 -0.028248924762010574 -0.05050000175833702 0.02824891172349453 -0.0345977246761322 -0.0625 0.019974997267127037 -0.0345977246761322 -0.05049999803304672 0.019974995404481888 -0.0385887436568737 -0.0625 0.01033981703221798 -0.0385887436568737 -0.05049999803304672 0.01033981516957283 -0.03995000943541527 -0.0625 -5.226129751179087e-09 -0.03995000943541527 -0.05049999803304672 -6.838436483747046e-09 -0.0385887436568737 -0.0625 -0.010339826345443726 -0.0385887436568737 -0.050499994307756424 -0.010339828208088875 -0.034597717225551605 -0.0625 -0.019975004717707634 -0.034597717225551605 -0.050499994307756424 -0.019975006580352783 -0.028248917311429977 -0.0624999962747097 -0.028248921036720276 -0.028248917311429977 -0.050499994307756424 -0.028248922899365425 -0.019974999129772186 -0.0624999962747097 -0.034597720950841904 -0.019974999129772186 -0.050499994307756424 -0.034597720950841904 -0.010339817963540554 -0.0624999962747097 -0.038588739931583405 -0.010339817963540554 -0.050499990582466125 -0.0385887436568737 6.0322831174630664e-09 -0.0624999962747097 -0.03995000198483467 6.0322831174630664e-09 -0.050499990582466125 -0.03995000198483467 0.01033982913941145 -0.0624999962747097 -0.038588736206293106 0.01033982913941145 -0.050499990582466125 -0.038588739931583405 0.01997501030564308 -0.0624999962747097 -0.03459771350026131 0.01997501030564308 -0.050499994307756424 -0.03459771350026131 0.028248924762010574 -0.0624999962747097 -0.02824891172349453 0.028248924762010574 -0.050499994307756424 -0.02824891358613968 0.0345977246761322 -0.0625 -0.019974995404481888 0.0345977246761322 -0.050499994307756424 -0.019974997267127037 0.0385887436568737 -0.0625 -0.01033981516957283 0.0385887436568737 -0.050499994307756424 -0.01033981703221798 0.03995000943541527 -0.0625 6.838436483747046e-09 0.03995000943541527 -0.05049999803304672 5.226129751179087e-09 0.0385887436568737 -0.0625 0.010339828208088875 0.0385887436568737 -0.05049999803304672 0.010339826345443726 0.034597717225551605 -0.0625 0.019975006580352783 0.034597717225551605 -0.05049999803304672 0.019975004717707634 0.028248917311429977 -0.0625000074505806 0.028248922899365425 0.028248917311429977 -0.05050000175833702 0.028248921036720276 0.019974999129772186 -0.0625000074505806 0.034597720950841904 0.019974999129772186 -0.05050000175833702 0.034597720950841904 0.010339817963540554 -0.0625000074505806 0.0385887436568737 0.010339817963540554 -0.05050000175833702 0.038588739931583405</float_array><technique_common><accessor source="#mesh0-array" count="48" stride="3"><param name="X" type="float" /><param name="Y" type="float" /><param name="Z" type="float" /></accessor></technique_common></source><source id="mesh0-normals"><float_array id="mesh0-normals-array" count="276">-0.13052621483802795 1.3320936886884738e-07 0.9914448857307434 -0.13052621483802795 1.3320936886884738e-07 0.9914448857307434 -0.382683664560318 1.2413136118993862e-07 0.9238795042037964 -0.382683664560318 1.2413136118993862e-07 0.9238795042037964 -0.6087616682052612 1.065940011812927e-07 0.7933531403541565 -0.6087616682052612 1.065940011812927e-07 0.7933531403541565 -0.7933533191680908 8.179247856787697e-08 0.6087614893913269 -0.7933533191680908 8.179247856787697e-08 0.6087614893913269 -0.9238796234130859 5.1416900959111445e-08 0.3826834261417389 -0.9238796234130859 5.1416900959111445e-08 0.3826834261417389 -0.9914448857307434 1.7537313823368095e-08 0.13052594661712646 -0.9914448857307434 1.7537313823368095e-08 0.13052594661712646 -0.9914448857307434 -1.753735290321856e-08 -0.13052624464035034 -0.9914448857307434 -1.753735290321856e-08 -0.13052624464035034 -0.9238795042037964 -5.141693648624823e-08 -0.38268372416496277 -0.9238795042037964 -5.141693648624823e-08 -0.38268372416496277 -0.7933531403541565 -8.179252120044112e-08 -0.6087617874145508 -0.7933531403541565 -8.179252120044112e-08 -0.6087617874145508 -0.6087614297866821 -1.0659402960300213e-07 -0.7933533787727356 -0.6087614297866821 -1.0659402960300213e-07 -0.7933533787727356 -0.3826833665370941 -1.2413138961164805e-07 -0.9238796234130859 -0.3826833665370941 -1.2413138961164805e-07 -0.9238796234130859 -0.13052591681480408 -1.3320936886884738e-07 -0.9914448857307434 -0.13052591681480408 -1.3320936886884738e-07 -0.9914448857307434 0.13052621483802795 -1.3320936886884738e-07 -0.9914448857307434 0.13052621483802795 -1.3320936886884738e-07 -0.9914448857307434 0.382683664560318 -1.2413136118993862e-07 -0.9238795042037964 0.382683664560318 -1.2413136118993862e-07 -0.9238795042037964 0.6087616682052612 -1.065940011812927e-07 -0.7933531403541565 0.6087616682052612 -1.065940011812927e-07 -0.7933531403541565 0.7933533191680908 -8.179247856787697e-08 -0.6087614893913269 0.7933533191680908 -8.179247856787697e-08 -0.6087614893913269 0.9238796234130859 -5.1416900959111445e-08 -0.3826834261417389 0.9238796234130859 -5.1416900959111445e-08 -0.3826834261417389 0.9914448857307434 -1.7537313823368095e-08 -0.13052594661712646 0.9914448857307434 -1.7537313823368095e-08 -0.13052594661712646 0.9914448857307434 1.753735290321856e-08 0.13052624464035034 0.9914448857307434 1.753735290321856e-08 0.13052624464035034 0.9238795042037964 5.141693648624823e-08 0.38268372416496277 0.9238795042037964 5.141693648624823e-08 0.38268372416496277 0.7933531403541565 8.179252120044112e-08 0.6087617874145508 0.7933531403541565 8.179252120044112e-08 0.6087617874145508 0.6087614297866821 1.0659402960300213e-07 0.7933533787727356 0.6087614297866821 1.0659402960300213e-07 0.7933533787727356 -2.028761815660307e-14 1.0 1.343588280633412e-07 -2.028761815660307e-14 1.0 1.343588280633412e-07 -2.0287619850668966e-14 1.0 1.343588280633412e-07 -2.028761815660307e-14 1.0 1.343588280633412e-07 -2.028761815660307e-14 1.0 1.343588280633412e-07 -2.0287619850668966e-14 1.0 1.343588280633412e-07 -2.028761815660307e-14 1.0 1.343588280633412e-07 -2.028761815660307e-14 1.0 1.343588280633412e-07 -2.0287619850668966e-14 1.0 1.343588280633412e-07 -2.028761815660307e-14 1.0 1.343588280633412e-07 -2.028761815660307e-14 1.0 1.343588280633412e-07 -2.0287619850668966e-14 1.0 1.343588280633412e-07 -2.0287619850668966e-14 1.0 1.343588280633412e-07 -2.028761815660307e-14 1.0 1.343588280633412e-07 -2.028761815660307e-14 1.0 1.343588280633412e-07 -2.0287619850668966e-14 1.0 1.343588280633412e-07 -2.028761815660307e-14 1.0 1.343588280633412e-07 -2.028761815660307e-14 1.0 1.343588280633412e-07 -2.028761815660307e-14 1.0 1.343588280633412e-07 -2.028761815660307e-14 1.0 1.343588280633412e-07 -2.028761815660307e-14 1.0 1.343588280633412e-07 -2.028761815660307e-14 1.0 1.343588280633412e-07 0.3826833665370941 1.2413138961164805e-07 0.9238796234130859 0.3826833665370941 1.2413138961164805e-07 0.9238796234130859 0.13052591681480408 1.3320936886884738e-07 0.9914448857307434 0.13052591681480408 1.3320936886884738e-07 0.9914448857307434 2.028761815660307e-14 -1.0 -1.343588280633412e-07 2.0287619850668966e-14 -1.0 -1.343588280633412e-07 2.0287619850668966e-14 -1.0 -1.343588280633412e-07 2.028761815660307e-14 -1.0 -1.343588280633412e-07 2.0287619850668966e-14 -1.0 -1.343588280633412e-07 2.0287619850668966e-14 -1.0 -1.343588280633412e-07 2.028761815660307e-14 -1.0 -1.343588280633412e-07 2.0287619850668966e-14 -1.0 -1.343588280633412e-07 2.0287619850668966e-14 -1.0 -1.343588280633412e-07 2.028761815660307e-14 -1.0 -1.343588280633412e-07 2.0287619850668966e-14 -1.0 -1.343588280633412e-07 2.0287619850668966e-14 -1.0 -1.343588280633412e-07 2.028761815660307e-14 -1.0 -1.343588280633412e-07 2.028761815660307e-14 -1.0 -1.343588280633412e-07 2.028761815660307e-14 -1.0 -1.343588280633412e-07 2.028761815660307e-14 -1.0 -1.343588280633412e-07 2.028761815660307e-14 -1.0 -1.343588280633412e-07 2.028761815660307e-14 -1.0 -1.343588280633412e-07 2.028761815660307e-14 -1.0 -1.343588280633412e-07 2.028761815660307e-14 -1.0 -1.343588280633412e-07 2.028761815660307e-14 -1.0 -1.343588280633412e-07 2.028761815660307e-14 -1.0 -1.343588280633412e-07</float_array><technique_common><accessor source="#mesh0-normals-array" count="92" stride="3"><param name="X" type="float" /><param name="Y" type="float" /><param name="Z" type="float" /></accessor></technique_common></source><vertices id="mesh0-vertices"><input semantic="POSITION" source="#mesh0-positions" /></vertices><triangles count="92" material="ivory"><input semantic="VERTEX" source="#mesh0-vertices" offset="0" /><input semantic="NORMAL" source="#mesh0-normals" offset="1" /><p>0 0 1 0 3 0 0 1 3 1 2 1 2 2 3 2 5 2 2 3 5 3 4 3 4 4 5 4 7 4 4 5 7 5 6 5 6 6 7 6 9 6 6 7 9 7 8 7 8 8 9 8 11 8 8 9 11 9 10 9 10 10 11 10 13 10 10 11 13 11 12 11 12 12 13 12 15 12 12 13 15 13 14 13 14 14 15 14 17 14 14 15 17 15 16 15 16 16 17 16 19 16 16 17 19 17 18 17 18 18 19 18 21 18 18 19 21 19 20 19 20 20 21 20 23 20 20 21 23 21 22 21 22 22 23 22 25 22 22 23 25 23 24 23 24 24 25 24 27 24 24 25 27 25 26 25 26 26 27 26 29 26 26 27 29 27 28 27 28 28 29 28 31 28 28 29 31 29 30 29 30 30 31 30 33 30 30 31 33 31 32 31 32 32 33 32 35 32 32 33 35 33 34 33 34 34 35 34 37 34 34 35 37 35 36 35 36 36 37 36 39 36 36 37 39 37 38 37 38 38 39 38 41 38 38 39 41 39 40 39 40 40 41 40 43 40 40 41 43 41 42 41 42 42 43 42 45 42 42 43 45 43 44 43 5 44 3 44 1 44 1 45 47 45 45 45 45 46 43 46 41 46 41 47 39 47 37 47 37 48 35 48 33 48 33 49 31 49 29 49 29 50 27 50 25 50 25 51 23 51 21 51 21 52 19 52 17 52 17 53 15 53 13 53 13 54 11 54 9 54 9 55 7 55 5 55 5 56 1 56 45 56 45 57 41 57 37 57 37 58 33 58 29 58 29 59 25 59 21 59 21 60 17 60 13 60 13 61 9 61 5 61 5 62 45 62 37 62 37 63 29 63 21 63 21 64 13 64 5 64 37 65 21 65 5 65 44 66 45 66 47 66 44 67 47 67 46 67 46 68 47 68 1 68 46 69 1 69 0 69 46 70 0 70 2 70 2 71 4 71 6 71 6 72 8 72 10 72 10 73 12 73 14 73 14 74 16 74 18 74 18 75 20 75 22 75 22 76 24 76 26 76 26 77 28 77 30 77 30 78 32 78 34 78 34 79 36 79 38 79 38 80 40 80 42 80 42 81 44 81 46 81 46 82 2 82 6 82 6 83 10 83 14 83 14 84 18 84 22 84 22 85 26 85 30 85 30 86 34 86 38 86 38 87 42 87 46 87 46 88 6 88 14 88 14 89 22 89 30 89 30 90 38 90 46 90 14 91 30 91 46 91</p></triangles></mesh></geometry><geometry id="mesh1"><mesh><source id="mesh1-positions"><float_array id="mesh1-array" count="144">-6.0322831174630664e-09 0.050499990582466125 0.03995000198483467 -6.0322831174630664e-09 0.0624999962747097 0.03995000198483467 -0.01033982913941145 0.050499990582466125 0.038588739931583405 -0.01033982913941145 0.0624999962747097 0.038588736206293106 -0.01997501030564308 0.050499994307756424 0.03459771350026131 -0.01997501030564308 0.0624999962747097 0.03459771350026131 -0.028248924762010574 0.050499994307756424 0.02824891358613968 -0.028248924762010574 0.0624999962747097 0.02824891172349453 -0.0345977246761322 0.050499994307756424 0.019974997267127037 -0.0345977246761322 0.0625 0.019974995404481888 -0.0385887436568737 0.050499994307756424 0.01033981703221798 -0.0385887436568737 0.0625 0.01033981516957283 -0.03995000943541527 0.05049999803304672 -5.226129751179087e-09 -0.03995000943541527 0.0625 -6.838436483747046e-09 -0.0385887436568737 0.05049999803304672 -0.010339826345443726 -0.0385887436568737 0.0625 -0.010339828208088875 -0.034597717225551605 0.05049999803304672 -0.019975004717707634 -0.034597717225551605 0.0625 -0.019975006580352783 -0.028248917311429977 0.05050000175833702 -0.028248921036720276 -0.028248917311429977 0.0625000074505806 -0.028248922899365425 -0.019974999129772186 0.05050000175833702 -0.034597720950841904 -0.019974999129772186 0.0625000074505806 -0.034597720950841904 -0.010339817963540554 0.05050000175833702 -0.038588739931583405 -0.010339817963540554 0.0625000074505806 -0.0385887436568737 6.0322831174630664e-09 0.05050000175833702 -0.03995000198483467 6.0322831174630664e-09 0.0625000074505806 -0.03995000198483467 0.01033982913941145 0.05050000175833702 -0.038588736206293106 0.01033982913941145 0.0625000074505806 -0.038588739931583405 0.01997501030564308 0.05050000175833702 -0.03459771350026131 0.01997501030564308 0.0625000074505806 -0.03459771350026131 0.028248924762010574 0.05050000175833702 -0.02824891172349453 0.028248924762010574 0.0625000074505806 -0.02824891358613968 0.0345977246761322 0.05049999803304672 -0.019974995404481888 0.0345977246761322 0.0625 -0.019974997267127037 0.0385887436568737 0.05049999803304672 -0.01033981516957283 0.0385887436568737 0.0625 -0.01033981703221798 0.03995000943541527 0.05049999803304672 6.838436483747046e-09 0.03995000943541527 0.0625 5.226129751179087e-09 0.0385887436568737 0.050499994307756424 0.010339828208088875 0.0385887436568737 0.0625 0.010339826345443726 0.034597717225551605 0.050499994307756424 0.019975006580352783 0.034597717225551605 0.0625 0.019975004717707634 0.028248917311429977 0.050499994307756424 0.028248922899365425 0.028248917311429977 0.0624999962747097 0.028248921036720276 0.019974999129772186 0.050499994307756424 0.034597720950841904 0.019974999129772186 0.0624999962747097 0.034597720950841904 0.010339817963540554 0.050499990582466125 0.0385887436568737 0.010339817963540554 0.0624999962747097 0.038588739931583405</float_array><technique_common><accessor source="#mesh1-array" count="48" stride="3"><param name="X" type="float" /><param name="Y" type="float" /><param name="Z" type="float" /></accessor></technique_common></source><source id="mesh1-normals"><float_array id="mesh1-normals-array" count="276">-0.13052621483802795 1.3320936886884738e-07 0.9914448857307434 -0.13052621483802795 1.3320936886884738e-07 0.9914448857307434 -0.382683664560318 1.2413136118993862e-07 0.9238795042037964 -0.382683664560318 1.2413136118993862e-07 0.9238795042037964 -0.6087616682052612 1.065940011812927e-07 0.7933531403541565 -0.6087616682052612 1.065940011812927e-07 0.7933531403541565 -0.7933533191680908 8.179247856787697e-08 0.6087614893913269 -0.7933533191680908 8.179247856787697e-08 0.6087614893913269 -0.9238796234130859 5.1416900959111445e-08 0.3826834261417389 -0.9238796234130859 5.1416900959111445e-08 0.3826834261417389 -0.9914448857307434 1.7537313823368095e-08 0.13052594661712646 -0.9914448857307434 1.7537313823368095e-08 0.13052594661712646 -0.9914448857307434 -1.753735290321856e-08 -0.13052624464035034 -0.9914448857307434 -1.753735290321856e-08 -0.13052624464035034 -0.9238795042037964 -5.141693648624823e-08 -0.38268372416496277 -0.9238795042037964 -5.141693648624823e-08 -0.38268372416496277 -0.7933531403541565 -8.179252120044112e-08 -0.6087617874145508 -0.7933531403541565 -8.179252120044112e-08 -0.6087617874145508 -0.6087614297866821 -1.0659402960300213e-07 -0.7933533787727356 -0.6087614297866821 -1.0659402960300213e-07 -0.7933533787727356 -0.3826833665370941 -1.2413138961164805e-07 -0.9238796234130859 -0.3826833665370941 -1.2413138961164805e-07 -0.9238796234130859 -0.13052591681480408 -1.3320936886884738e-07 -0.9914448857307434 -0.13052591681480408 -1.3320936886884738e-07 -0.9914448857307434 0.13052621483802795 -1.3320936886884738e-07 -0.9914448857307434 0.13052621483802795 -1.3320936886884738e-07 -0.9914448857307434 0.382683664560318 -1.2413136118993862e-07 -0.9238795042037964 0.382683664560318 -1.2413136118993862e-07 -0.9238795042037964 0.6087616682052612 -1.065940011812927e-07 -0.7933531403541565 0.6087616682052612 -1.065940011812927e-07 -0.7933531403541565 0.7933533191680908 -8.179247856787697e-08 -0.6087614893913269 0.7933533191680908 -8.179247856787697e-08 -0.6087614893913269 0.9238796234130859 -5.1416900959111445e-08 -0.3826834261417389 0.9238796234130859 -5.1416900959111445e-08 -0.3826834261417389 0.9914448857307434 -1.7537313823368095e-08 -0.13052594661712646 0.9914448857307434 -1.7537313823368095e-08 -0.13052594661712646 0.9914448857307434 1.753735290321856e-08 0.13052624464035034 0.9914448857307434 1.753735290321856e-08 0.13052624464035034 0.9238795042037964 5.141693648624823e-08 0.38268372416496277 0.9238795042037964 5.141693648624823e-08 0.38268372416496277 0.7933531403541565 8.179252120044112e-08 0.6087617874145508 0.7933531403541565 8.179252120044112e-08 0.6087617874145508 0.6087614297866821 1.0659402960300213e-07 0.7933533787727356 0.6087614297866821 1.0659402960300213e-07 0.7933533787727356 -2.028761815660307e-14 1.0 1.343588280633412e-07 -2.028761815660307e-14 1.0 1.343588280633412e-07 -2.0287619850668966e-14 1.0 1.343588280633412e-07 -2.028761815660307e-14 1.0 1.343588280633412e-07 -2.028761815660307e-14 1.0 1.343588280633412e-07 -2.0287619850668966e-14 1.0 1.343588280633412e-07 -2.028761815660307e-14 1.0 1.343588280633412e-07 -2.028761815660307e-14 1.0 1.343588280633412e-07 -2.0287619850668966e-14 1.0 1.343588280633412e-07 -2.028761815660307e-14 1.0 1.343588280633412e-07 -2.028761815660307e-14 1.0 1.343588280633412e-07 -2.0287619850668966e-14 1.0 1.343588280633412e-07 -2.0287619850668966e-14 1.0 1.343588280633412e-07 -2.028761815660307e-14 1.0 1.343588280633412e-07 -2.028761815660307e-14 1.0 1.343588280633412e-07 -2.0287619850668966e-14 1.0 1.343588280633412e-07 -2.028761815660307e-14 1.0 1.343588280633412e-07 -2.028761815660307e-14 1.0 1.343588280633412e-07 -2.028761815660307e-14 1.0 1.343588280633412e-07 -2.028761815660307e-14 1.0 1.343588280633412e-07 -2.028761815660307e-14 1.0 1.343588280633412e-07 -2.028761815660307e-14 1.0 1.343588280633412e-07 0.3826833665370941 1.2413138961164805e-07 0.9238796234130859 0.3826833665370941 1.2413138961164805e-07 0.9238796234130859 0.13052591681480408 1.3320936886884738e-07 0.9914448857307434 0.13052591681480408 1.3320936886884738e-07 0.9914448857307434 2.028761815660307e-14 -1.0 -1.343588280633412e-07 2.0287619850668966e-14 -1.0 -1.343588280633412e-07 2.0287619850668966e-14 -1.0 -1.343588280633412e-07 2.028761815660307e-14 -1.0 -1.343588280633412e-07 2.0287619850668966e-14 -1.0 -1.343588280633412e-07 2.0287619850668966e-14 -1.0 -1.343588280633412e-07 2.028761815660307e-14 -1.0 -1.343588280633412e-07 2.0287619850668966e-14 -1.0 -1.343588280633412e-07 2.0287619850668966e-14 -1.0 -1.343588280633412e-07 2.028761815660307e-14 -1.0 -1.343588280633412e-07 2.0287619850668966e-14 -1.0 -1.343588280633412e-07 2.0287619850668966e-14 -1.0 -1.343588280633412e-07 2.028761815660307e-14 -1.0 -1.343588280633412e-07 2.028761815660307e-14 -1.0 -1.343588280633412e-07 2.028761815660307e-14 -1.0 -1.343588280633412e-07 2.028761815660307e-14 -1.0 -1.343588280633412e-07 2.028761815660307e-14 -1.0 -1.343588280633412e-07 2.028761815660307e-14 -1.0 -1.343588280633412e-07 2.028761815660307e-14 -1.0 -1.343588280633412e-07 2.028761815660307e-14 -1.0 -1.343588280633412e-07 2.028761815660307e-14 -1.0 -1.343588280633412e-07 2.028761815660307e-14 -1.0 -1.343588280633412e-07</float_array><technique_common><accessor source="#mesh1-normals-array" count="92" stride="3"><param name="X" type="float" /><param name="Y" type="float" /><param name="Z" type="float" /></accessor></technique_common></source><vertices id="mesh1-vertices"><input semantic="POSITION" source="#mesh1-positions" /></vertices><triangles count="92" material="ivory"><input semantic="VERTEX" source="#mesh1-vertices" offset="0" /><input semantic="NORMAL" source="#mesh1-normals" offset="1" /><p>0 0 1 0 3 0 0 1 3 1 2 1 2 2 3 2 5 2 2 3 5 3 4 3 4 4 5 4 7 4 4 5 7 5 6 5 6 6 7 6 9 6 6 7 9 7 8 7 8 8 9 8 11 8 8 9 11 9 10 9 10 10 11 10 13 10 10 11 13 11 12 11 12 12 13 12 15 12 12 13 15 13 14 13 14 14 15 14 17 14 14 15 17 15 16 15 16 16 17 16 19 16 16 17 19 17 18 17 18 18 19 18 21 18 18 19 21 19 20 19 20 20 21 20 23 20 20 21 23 21 22 21 22 22 23 22 25 22 22 23 25 23 24 23 24 24 25 24 27 24 24 25 27 25 26 25 26 26 27 26 29 26 26 27 29 27 28 27 28 28 29 28 31 28 28 29 31 29 30 29 30 30 31 30 33 30 30 31 33 31 32 31 32 32 33 32 35 32 32 33 35 33 34 33 34 34 35 34 37 34 34 35 37 35 36 35 36 36 37 36 39 36 36 37 39 37 38 37 38 38 39 38 41 38 38 39 41 39 40 39 40 40 41 40 43 40 40 41 43 41 42 41 42 42 43 42 45 42 42 43 45 43 44 43 5 44 3 44 1 44 1 45 47 45 45 45 45 46 43 46 41 46 41 47 39 47 37 47 37 48 35 48 33 48 33 49 31 49 29 49 29 50 27 50 25 50 25 51 23 51 21 51 21 52 19 52 17 52 17 53 15 53 13 53 13 54 11 54 9 54 9 55 7 55 5 55 5 56 1 56 45 56 45 57 41 57 37 57 37 58 33 58 29 58 29 59 25 59 21 59 21 60 17 60 13 60 13 61 9 61 5 61 5 62 45 62 37 62 37 63 29 63 21 63 21 64 13 64 5 64 37 65 21 65 5 65 44 66 45 66 47 66 44 67 47 67 46 67 46 68 47 68 1 68 46 69 1 69 0 69 46 70 0 70 2 70 2 71 4 71 6 71 6 72 8 72 10 72 10 73 12 73 14 73 14 74 16 74 18 74 18 75 20 75 22 75 22 76 24 76 26 76 26 77 28 77 30 77 30 78 32 78 34 78 34 79 36 79 38 79 38 80 40 80 42 80 42 81 44 81 46 81 46 82 2 82 6 82 6 83 10 83 14 83 14 84 18 84 22 84 22 85 26 85 30 85 30 86 34 86 38 86 38 87 42 87 46 87 46 88 6 88 14 88 14 89 22 89 30 89 30 90 38 90 46 90 14 91 30 91 46 91</p></triangles></mesh></geometry><geometry id="mesh2"><mesh><source id="mesh2-positions"><float_array id="mesh2-array" count="240">0.012968421913683414 -0.026999998837709427 -0.05099991708993912 0.018931478261947632 -0.032999999821186066 -0.05803507938981056 0.0175444595515728 -0.026999998837709427 -0.04891764000058174 0.014024486765265465 -0.02999606356024742 -0.05250990018248558 0.013331887312233448 -0.026999998837709427 -0.0479571633040905 0.01436719112098217 -0.02986926957964897 -0.04957299306988716 0.01849830336868763 -0.03219842165708542 -0.054052453488111496 0.01621328666806221 -0.03219842165708542 -0.0550922267138958 0.015908170491456985 -0.031419795006513596 -0.05139102786779404 0.015011567622423172 -0.026999998837709427 -0.04719284176826477 0.017989184707403183 -0.02999606356024742 -0.05070580914616585 0.01554973516613245 -0.02986926957964897 -0.04903488978743553 0.04153982177376747 -0.026999998837709427 -0.07598232477903366 0.037455540150403976 -0.026999998837709427 -0.06608236581087112 0.035785041749477386 -0.032999999821186066 -0.0725640133023262 0.04138382151722908 -0.026999998837709427 -0.07238039374351501 0.040549665689468384 -0.02999606356024742 -0.07561696320772171 0.040403641760349274 -0.02986926957964897 -0.07215548306703568 0.037011031061410904 -0.02999606356024742 -0.0670396015048027 0.039884645491838455 -0.026999998837709427 -0.06874651461839676 0.03934817761182785 -0.02986926957964897 -0.06959712505340576 0.03843731805682182 -0.03219842165708542 -0.07436224073171616 0.03639785572886467 -0.03219842165708542 -0.0694187581539154 0.03891648352146149 -0.031419795006513596 -0.0712721198797226 0.03200000151991844 -0.026999998837709427 -0.20000000298023224 0.02612115442752838 -0.032999999821186066 -0.19819459319114685 0.03121238946914673 -0.029999999329447746 -0.1997581273317337 0.02906057983636856 -0.032196152955293655 -0.19909730553627014 0.012031578458845615 -0.026999998837709427 -0.22900007665157318 0.014976833947002888 -0.026999998837709427 -0.22979053854942322 0.01812010444700718 -0.032999999821186066 -0.2121964395046234 0.012532209977507591 -0.026999998837709427 -0.2312677800655365 0.012939696200191975 -0.029929576441645622 -0.22366011142730713 0.013308627530932426 -0.029818547889590263 -0.22815805673599243 0.016864478588104248 -0.029929576441645622 -0.22471347451210022 0.01340802013874054 -0.026999998837709427 -0.23150286078453064 0.01429298147559166 -0.029818546026945114 -0.22842225432395935 0.015162435360252857 -0.0321199968457222 -0.21752561628818512 0.018011994659900665 -0.0321199968457222 -0.21829038858413696 0.014998236671090126 -0.03145477920770645 -0.22382855415344238 0.012968421913683414 0.026999998837709427 -0.05099991708993912 0.0175444595515728 0.026999998837709427 -0.04891764000058174 0.018931478261947632 0.032999999821186066 -0.05803507938981056 0.013331887312233448 0.026999998837709427 -0.0479571633040905 0.014024486765265465 0.02999606356024742 -0.05250990018248558 0.01436719112098217 0.02986926957964897 -0.04957299306988716 0.017989184707403183 0.02999606356024742 -0.05070580914616585 0.015011567622423172 0.026999998837709427 -0.04719284176826477 0.01554973516613245 0.02986926957964897 -0.04903488978743553 0.01621328666806221 0.03219842165708542 -0.0550922267138958 0.01849830336868763 0.03219842165708542 -0.054052453488111496 0.015908170491456985 0.031419795006513596 -0.05139102786779404 0.037455540150403976 0.026999998837709427 -0.06608236581087112 0.04153982177376747 0.026999998837709427 -0.07598232477903366 0.035785041749477386 0.032999999821186066 -0.0725640133023262 0.039884645491838455 0.026999998837709427 -0.06874651461839676 0.037011031061410904 0.02999606356024742 -0.0670396015048027 0.03934817761182785 0.02986926957964897 -0.06959712505340576 0.040549665689468384 0.02999606356024742 -0.07561696320772171 0.04138382151722908 0.026999998837709427 -0.07238039374351501 0.040403641760349274 0.02986926957964897 -0.07215548306703568 0.03639785572886467 0.03219842165708542 -0.0694187581539154 0.03843731805682182 0.03219842165708542 -0.07436224073171616 0.03891648352146149 0.031419795006513596 -0.0712721198797226 0.03200000151991844 0.026999998837709427 -0.20000000298023224 0.02612115442752838 0.032999999821186066 -0.19819459319114685 0.03121238946914673 0.029999999329447746 -0.1997581273317337 0.02906058356165886 0.032196152955293655 -0.19909730553627014 0.012031578458845615 0.026999998837709427 -0.22900007665157318 0.01812010258436203 0.032999999821186066 -0.2121964395046234 0.014976835809648037 0.026999998837709427 -0.22979053854942322 0.012939694337546825 0.02992957830429077 -0.22366012632846832 0.012532209977507591 0.026999998837709427 -0.2312677800655365 0.013308627530932426 0.02981855347752571 -0.22815808653831482 0.018011992797255516 0.0321199968457222 -0.21829038858413696 0.015162434428930283 0.0321199968457222 -0.21752560138702393 0.0149982376024127 0.03145477920770645 -0.2238285392522812 0.013408021070063114 0.026999998837709427 -0.23150286078453064 0.016864478588104248 0.029929576441645622 -0.22471347451210022 0.01429298147559166 0.029818546026945114 -0.22842225432395935</float_array><technique_common><accessor source="#mesh2-array" count="80" stride="3"><param name="X" type="float" /><param name="Y" type="float" /><param name="Z" type="float" /></accessor></technique_common></source><source id="mesh2-normals"><float_array id="mesh2-normals-array" count="468">-0.9147965312004089 -0.3846189081668854 0.1233515664935112 -0.9138103723526001 -0.3911972641944885 0.10915720462799072 -0.6393170356750488 -0.7613956928253174 0.1074724867939949 -0.6393170952796936 -0.7613956928253174 0.10747261345386505 -0.10320064425468445 -0.9772178530693054 0.185458704829216 -0.07203470170497894 -0.9772177934646606 0.1996403932571411 0.3389481008052826 -0.7613953351974487 0.5526221990585327 0.3389478623867035 -0.7613956332206726 0.5526221394538879 0.5179969668388367 -0.39119747281074524 0.7606862187385559 0.507942795753479 -0.38461923599243164 0.7707542777061462 -0.3453536629676819 -0.5520162582397461 0.7589524984359741 -0.34535282850265503 -0.55201655626297 0.7589526772499084 -0.23200193047523499 -0.8283883333206177 0.5098510384559631 0.9464898109436035 -0.32011985778808594 0.04099263623356819 0.9500876665115356 -0.30772802233695984 0.05135190486907959 0.8888090252876282 -0.27488577365875244 0.36668285727500916 0.8888090252876282 -0.27488577365875244 0.36668288707733154 0.7099224925041199 -0.3077268898487091 0.6334936618804932 0.700066089630127 -0.3201197385787964 0.6383030414581299 0.5614039301872253 -0.6743995547294617 0.47959446907043457 0.561404287815094 -0.6743992567062378 0.47959452867507935 0.3879132866859436 -0.9062201976776123 0.16819164156913757 0.3936639428138733 -0.9062201976776123 0.1542525291442871 0.7362586259841919 -0.6743987798690796 0.05576259270310402 0.7362582087516785 -0.6743992567062378 0.05576339736580849 0.7682063579559326 -0.556251585483551 0.31692758202552795 -0.8710023164749146 -0.45208463072776794 -0.1922875940799713 -0.8979136347770691 -0.43202120065689087 -0.08431297540664673 -0.17120584845542908 -0.7508988380432129 -0.6378397345542908 -0.17119425535202026 -0.7508969306945801 -0.6378450393676758 0.7350331544876099 -0.4320243000984192 -0.5225717425346375 0.6576783657073975 -0.45208632946014404 -0.6025588512420654 0.4828156530857086 -0.7988900542259216 -0.3586973249912262 0.4828231930732727 -0.798891544342041 -0.35868391394615173 -0.11136971414089203 -0.9885886907577515 -0.10143522173166275 0.045615267008543015 -0.9885887503623962 -0.14356742799282074 -0.5975615382194519 -0.7988716959953308 -0.06873288005590439 -0.5975019335746765 -0.7989146709442139 -0.06875254213809967 -0.08654660731554031 -0.942616879940033 -0.3224641680717468 -0.9138103723526001 0.39119723439216614 0.10915718972682953 -0.9147965312004089 0.38461893796920776 0.1233515739440918 -0.3453536033630371 0.5520164966583252 0.7589523196220398 -0.3453529179096222 0.5520161986351013 0.7589528560638428 0.5079428553581238 0.3846192955970764 0.770754337310791 0.5179969668388367 0.39119747281074524 0.7606862187385559 0.33894795179367065 0.7613954544067383 0.5526222586631775 0.3389480412006378 0.7613954544067383 0.5526220798492432 -0.07203471660614014 0.9772179126739502 0.1996404528617859 -0.10320060700178146 0.9772177934646606 0.18545866012573242 -0.6393169164657593 0.7613958716392517 0.10747262090444565 -0.6393172144889832 0.7613955736160278 0.10747244954109192 -0.23200193047523499 0.8283882141113281 0.5098509788513184 0.700066089630127 0.3201197385787964 0.6383030414581299 0.7099224925041199 0.3077268600463867 0.6334937214851379 0.8888090252876282 0.27488577365875244 0.36668285727500916 0.8888090252876282 0.27488580346107483 0.36668288707733154 0.9500876665115356 0.30772796273231506 0.051351893693208694 0.9464898109436035 0.32011982798576355 0.04099263250827789 0.7362588047981262 0.6743985414505005 0.05576317012310028 0.7362580299377441 0.6743994951248169 0.05576258525252342 0.3936639428138733 0.9062201976776123 0.15425251424312592 0.3879132866859436 0.9062201976776123 0.16819165647029877 0.5614041090011597 0.6743995547294617 0.4795943796634674 0.5614039897918701 0.6743994355201721 0.4795946776866913 0.7682063579559326 0.5562516450881958 0.31692758202552795 -0.897914469242096 0.43201974034309387 -0.08431273698806763 -0.8710034489631653 0.4520823061466217 -0.1922878473997116 -0.5975333452224731 0.7988914847373962 -0.06874945759773254 -0.597533106803894 0.7988932728767395 -0.06873045116662979 0.04561459645628929 0.988588809967041 -0.14356741309165955 -0.11137021332979202 0.9885886907577515 -0.10143522918224335 0.4828421473503113 0.7988743782043457 -0.3586965799331665 0.4827864468097687 0.798913300037384 -0.3586849570274353 0.6576780676841736 0.45208674669265747 -0.6025589108467102 0.7350330352783203 0.432024747133255 -0.5225716829299927 -0.17120732367038727 0.7508932948112488 -0.6378458738327026 -0.17117179930210114 0.750898540019989 -0.6378492712974548 -0.08653191477060318 0.942617654800415 -0.3224656283855438 -0.9577115774154663 -0.28768593072891235 0.005040590185672045 -0.9421827793121338 -0.33504849672317505 0.005841621197760105 -0.7077762484550476 -0.7064241170883179 0.004211627412587404 -0.7067955136299133 -0.7074053287506104 0.0042310189455747604 -0.28748956322669983 -0.9577828049659729 0.0013974643079563975 -0.28137585520744324 -0.959596574306488 0.001480922568589449 0.249781996011734 -0.9577246308326721 -0.14273247122764587 0.22341319918632507 -0.9656842350959778 -0.13244055211544037 0.6058819890022278 -0.7136366367340088 -0.351610392332077 0.6125016212463379 -0.7066972255706787 -0.3541480302810669 0.8284931182861328 -0.2931106686592102 -0.47716379165649414 0.8386588096618652 -0.2588173747062683 -0.4792337715625763 0.25805628299713135 -0.9659258723258972 -0.01985047571361065 0.2762961685657501 -0.9608477354049683 -0.020787550136446953 0.7052532434463501 -0.7069694995880127 -0.053029030561447144 0.7054188251495361 -0.7068037390708923 -0.05303565412759781 0.9632309079170227 -0.2587246000766754 -0.07244119793176651 0.944310188293457 -0.32093900442123413 -0.07263923436403275 0.18075455725193024 -0.9609183669090271 0.20967529714107513 0.18291079998016357 -0.9597640037536621 0.2130649834871292 0.46035537123680115 -0.7074677348136902 0.5362483859062195 0.46013420820236206 -0.7079069018363953 0.5358585715293884 0.6169686317443848 -0.3210962116718292 0.7185032367706299 0.6152915954589844 -0.3346552550792694 0.713738203048706 -0.28768253326416016 0.9577246308326721 0.0015141188632696867 -0.2814985513687134 0.959560751914978 0.001357849221676588 -0.7078125476837158 0.7063876390457153 0.004238095134496689 -0.7068108320236206 0.7073901295661926 0.004205147735774517 -0.9581671953201294 0.28614696860313416 0.005961943417787552 -0.9423276782035828 0.3346549868583679 0.004959622398018837 0.6183993220329285 0.3209378719329834 0.7173431515693665 0.6137138605117798 0.3354712128639221 0.7147127985954285 0.46043458580970764 0.7074466347694397 0.5362083315849304 0.46003609895706177 0.7079570889472961 0.535876452922821 0.18012505769729614 0.961004912853241 0.2098199874162674 0.18372388184070587 0.9595965147018433 0.21311970055103302 0.9630810618400574 0.2588176727294922 -0.07408314943313599 0.9444802403450012 0.3207989037036896 -0.07102889567613602 0.7052549123764038 0.7069681882858276 -0.0530233308672905 0.7054169774055481 0.7068051099777222 -0.05304131284356117 0.25817975401878357 0.9659015536308289 -0.01942576840519905 0.2760161757469177 0.9609185457229614 -0.02123200334608555 0.8315383195877075 0.28768470883369446 -0.4751648008823395 0.8371143937110901 0.25863680243492126 -0.4820232391357422 0.607750415802002 0.7121343016624451 -0.351431667804718 0.6120690107345581 0.7065721750259399 -0.35514405369758606 0.24160030484199524 0.959798276424408 -0.14288675785064697 0.22471700608730316 0.9659261107444763 -0.12840966880321503 0.5628525614738464 0.0 0.8265573382377625 0.5628525614738464 0.0 0.8265573382377625 -0.4141758680343628 0.0 0.9101969003677368 -0.4141758680343628 0.0 0.9101969003677368 -0.9929410219192505 0.0 0.11860956251621246 -0.9929410219192505 0.0 0.11860956251621246 0.9990634322166443 0.0 0.04326961189508438 0.9990634322166443 0.0 0.04326961189508438 0.9244206547737122 0.0 0.38137462735176086 0.9244206547737122 0.0 0.38137462735176086 0.7389519214630127 0.0 0.6737581491470337 0.7389519214630127 0.0 0.6737581491470337 -0.9764873385429382 0.0 -0.21557506918907166 -0.9764873385429382 0.0 -0.21557506918907166 -0.25923866033554077 0.0 -0.9658133387565613 -0.25923892855644226 4.471019998675274e-09 -0.9658132791519165 0.7373287081718445 -1.2716498964948642e-08 -0.6755341291427612 0.7373289465904236 -2.543300681168148e-08 -0.6755339503288269 -0.9999861717224121 0.0 0.005263088271021843 -0.9999861717224121 0.0 0.005263088271021843 0.0 -1.0 0.0 0.0 -1.0 0.0 0.6529396772384644 0.0 0.7574099898338318 0.6529396772384644 0.0 0.7574099898338318 0.9970544576644897 0.0 -0.0766964852809906 0.9970544576644897 0.0 -0.0766964852809906 0.8682430982589722 -2.994867998040718e-08 -0.4961390495300293 0.8682432174682617 0.0 -0.4961389899253845 0.0 1.0 0.0 0.0 1.0 0.0</float_array><technique_common><accessor source="#mesh2-normals-array" count="156" stride="3"><param name="X" type="float" /><param name="Y" type="float" /><param name="Z" type="float" /></accessor></technique_common></source><vertices id="mesh2-vertices"><input semantic="POSITION" source="#mesh2-positions" /></vertices><triangles count="156" material="ivory"><input semantic="VERTEX" source="#mesh2-vertices" offset="0" /><input semantic="NORMAL" source="#mesh2-normals" offset="1" /><p>0 0 3 0 5 0 0 1 5 1 4 1 3 2 7 2 8 2 3 3 8 3 5 3 1 4 6 4 8 4 1 5 8 5 7 5 6 6 10 6 11 6 6 7 11 7 8 7 2 8 9 8 11 8 2 9 11 9 10 9 9 10 4 10 5 10 9 11 5 11 11 11 5 12 8 12 11 12 12 13 15 13 17 13 12 14 17 14 16 14 15 15 19 15 20 15 15 16 20 16 17 16 13 17 18 17 20 17 13 18 20 18 19 18 18 19 22 19 23 19 18 20 23 20 20 20 14 21 21 21 23 21 14 22 23 22 22 22 21 23 16 23 17 23 21 24 17 24 23 24 17 25 20 25 23 25 28 26 31 26 33 26 28 27 33 27 32 27 31 28 35 28 36 28 31 29 36 29 33 29 29 30 34 30 36 30 29 31 36 31 35 31 34 32 38 32 39 32 34 33 39 33 36 33 30 34 37 34 39 34 30 35 39 35 38 35 37 36 32 36 33 36 37 37 33 37 39 37 33 38 36 38 39 38 40 39 43 39 45 39 40 40 45 40 44 40 43 41 47 41 48 41 43 42 48 42 45 42 41 43 46 43 48 43 41 44 48 44 47 44 46 45 50 45 51 45 46 46 51 46 48 46 42 47 49 47 51 47 42 48 51 48 50 48 49 49 44 49 45 49 49 50 45 50 51 50 45 51 48 51 51 51 52 52 55 52 57 52 52 53 57 53 56 53 55 54 59 54 60 54 55 55 60 55 57 55 53 56 58 56 60 56 53 57 60 57 59 57 58 58 62 58 63 58 58 59 63 59 60 59 54 60 61 60 63 60 54 61 63 61 62 61 61 62 56 62 57 62 61 63 57 63 63 63 57 64 60 64 63 64 68 65 71 65 73 65 68 66 73 66 72 66 71 67 75 67 76 67 71 68 76 68 73 68 69 69 74 69 76 69 69 70 76 70 75 70 74 71 78 71 79 71 74 72 79 72 76 72 70 73 77 73 79 73 70 74 79 74 78 74 77 75 72 75 73 75 77 76 73 76 79 76 73 77 76 77 79 77 0 78 28 78 32 78 0 79 32 79 3 79 3 80 32 80 37 80 3 81 37 81 7 81 7 82 37 82 30 82 7 83 30 83 1 83 25 84 30 84 38 84 25 85 38 85 27 85 27 86 38 86 34 86 27 87 34 87 26 87 26 88 34 88 29 88 26 89 29 89 24 89 14 90 25 90 27 90 14 91 27 91 21 91 21 92 27 92 26 92 21 93 26 93 16 93 16 94 26 94 24 94 16 95 24 95 12 95 1 96 14 96 22 96 1 97 22 97 6 97 6 98 22 98 18 98 6 99 18 99 10 99 10 100 18 100 13 100 10 101 13 101 2 101 42 102 69 102 75 102 42 103 75 103 49 103 49 104 75 104 71 104 49 105 71 105 44 105 44 106 71 106 68 106 44 107 68 107 40 107 41 108 52 108 56 108 41 109 56 109 46 109 46 110 56 110 61 110 46 111 61 111 50 111 50 112 61 112 54 112 50 113 54 113 42 113 53 114 64 114 66 114 53 115 66 115 58 115 58 116 66 116 67 116 58 117 67 117 62 117 62 118 67 118 65 118 62 119 65 119 54 119 64 120 70 120 78 120 64 121 78 121 66 121 66 122 78 122 74 122 66 123 74 123 67 123 67 124 74 124 69 124 67 125 69 125 65 125 2 126 41 126 47 126 2 127 47 127 9 127 9 128 47 128 43 128 9 129 43 129 4 129 4 130 43 130 40 130 4 131 40 131 0 131 12 132 53 132 59 132 12 133 59 133 15 133 15 134 59 134 55 134 15 135 55 135 19 135 19 136 55 136 52 136 19 137 52 137 13 137 28 138 68 138 72 138 28 139 72 139 31 139 31 140 72 140 77 140 31 141 77 141 35 141 35 142 77 142 70 142 35 143 70 143 29 143 28 144 0 144 40 144 28 145 40 145 68 145 30 146 25 146 14 146 30 147 14 147 1 147 2 148 13 148 52 148 2 149 52 149 41 149 12 150 24 150 64 150 12 151 64 151 53 151 24 152 29 152 70 152 24 153 70 153 64 153 42 154 54 154 65 154 42 155 65 155 69 155</p></triangles></mesh></geometry></library_geometries><library_visual_scenes><visual_scene id="Scene"><node id="mesh0-node"><instance_geometry url="#mesh0"><bind_material><technique_common><instance_material symbol="ivory" target="#ivory" /></technique_common></bind_material></instance_geometry></node><node id="mesh1-node"><instance_geometry url="#mesh1"><bind_material><technique_common><instance_material symbol="ivory" target="#ivory" /></technique_common></bind_material></instance_geometry></node><node id="mesh2-node"><instance_geometry url="#mesh2"><bind_material><technique_common><instance_material symbol="ivory" target="#ivory" /></technique_common></bind_material></instance_geometry></node></visual_scene></library_visual_scenes><scene><instance_visual_scene url="#Scene" /></scene></COLLADA>