<?xml version='1.0' encoding='utf-8'?>
<COLLADA xmlns="http://www.collada.org/2005/11/COLLADASchema" version="1.4.1"><asset><unit name="meter" meter="1" /><up_axis>Z_UP</up_axis></asset><library_effects><effect id="graphite-fx"><profile_COMMON><technique sid="common"><phong><emission><color>0 0 0 1</color></emission><ambient><color>0.065 0.075 0.085 1</color></ambient><diffuse><color>0.065 0.075 0.085 1</color></diffuse><specular><color>0.12 0.12 0.12 1</color></specular><shininess><float>25</float></shininess></phong></technique></profile_COMMON></effect><effect id="titanium-fx"><profile_COMMON><technique sid="common"><phong><emission><color>0 0 0 1</color></emission><ambient><color>0.36 0.4 0.43 1</color></ambient><diffuse><color>0.36 0.4 0.43 1</color></diffuse><specular><color>0.12 0.12 0.12 1</color></specular><shininess><float>25</float></shininess></phong></technique></profile_COMMON></effect><effect id="ivory-fx"><profile_COMMON><technique sid="common"><phong><emission><color>0 0 0 1</color></emission><ambient><color>0.72 0.72 0.65 1</color></ambient><diffuse><color>0.72 0.72 0.65 1</color></diffuse><specular><color>0.12 0.12 0.12 1</color></specular><shininess><float>25</float></shininess></phong></technique></profile_COMMON></effect><effect id="copper-fx"><profile_COMMON><technique sid="common"><phong><emission><color>0 0 0 1</color></emission><ambient><color>0.66 0.29 0.08 1</color></ambient><diffuse><color>0.66 0.29 0.08 1</color></diffuse><specular><color>0.12 0.12 0.12 1</color></specular><shininess><float>25</float></shininess></phong></technique></profile_COMMON></effect><effect id="rubber-fx"><profile_COMMON><technique sid="common"><phong><emission><color>0 0 0 1</color></emission><ambient><color>0.025 0.028 0.032 1</color></ambient><diffuse><color>0.025 0.028 0.032 1</color></diffuse><specular><color>0.12 0.12 0.12 1</color></specular><shininess><float>25</float></shininess></phong></technique></profile_COMMON></effect><effect id="lens-fx"><profile_COMMON><technique sid="common"><phong><emission><color>0 0 0 1</color></emission><ambient><color>0.05 0.26 0.33 1</color></ambient><diffuse><color>0.05 0.26 0.33 1</color></diffuse><specular><color>0.12 0.12 0.12 1</color></specular><shininess><float>25</float></shininess></phong></technique></profile_COMMON></effect></library_effects><library_materials><material id="graphite"><instance_effect url="#graphite-fx" /></material><material id="titanium"><instance_effect url="#titanium-fx" /></material><material id="ivory"><instance_effect url="#ivory-fx" /></material><material id="copper"><instance_effect url="#copper-fx" /></material><material id="rubber"><instance_effect url="#rubber-fx" /></material><material id="lens"><instance_effect url="#lens-fx" /></material></library_materials><library_geometries><geometry id="mesh0"><mesh><source id="mesh0-positions"><float_array id="mesh0-array" count="144">-2.4582120783378514e-09 -0.06300000101327896 0.016280002892017365 -2.4582120783378514e-09 -0.04500000178813934 0.016279999166727066 -0.004213577136397362 -0.06300000101327896 0.0157252736389637 -0.004213577136397362 -0.04500000178813934 0.01572527177631855 -0.008140003308653831 -0.06300000101327896 0.014098894782364368 -0.008140003308653831 -0.04500000178813934 0.014098891988396645 -0.011511702090501785 -0.06300000101327896 0.011511697433888912 -0.011511702090501785 -0.04500000178813934 0.011511695571243763 -0.014098897576332092 -0.06300000101327896 0.008139999583363533 -0.014098897576332092 -0.04500000178813934 0.00813999678939581 -0.01572527550160885 -0.06300000101327896 0.004213572945445776 -0.01572527550160885 -0.04500000178813934 0.0042135706171393394 -0.016280002892017365 -0.06300000101327896 -1.2489824730010923e-09 -0.016280002892017365 -0.04500000178813934 -3.6674416836746104e-09 -0.01572527550160885 -0.06300000101327896 -0.0042135757394135 -0.01572527550160885 -0.04500000178813934 -0.004213578067719936 -0.014098895713686943 -0.06300000101327896 -0.008140001446008682 -0.014098895713686943 -0.044999998062849045 -0.008140004239976406 -0.011511698365211487 -0.06300000101327896 -0.011511699296534061 -0.011511698365211487 -0.044999998062849045 -0.01151170115917921 -0.008139999583363533 -0.06300000101327896 -0.014098894782364368 -0.008139999583363533 -0.044999998062849045 -0.014098897576332092 -0.004213572479784489 -0.06300000101327896 -0.0157252736389637 -0.004213572479784489 -0.044999998062849045 -0.01572527550160885 2.4582120783378514e-09 -0.06300000101327896 -0.016279999166727066 2.4582120783378514e-09 -0.044999998062849045 -0.016280002892017365 0.004213577136397362 -0.06300000101327896 -0.01572527177631855 0.004213577136397362 -0.044999998062849045 -0.0157252736389637 0.008140003308653831 -0.06300000101327896 -0.014098891988396645 0.008140003308653831 -0.044999998062849045 -0.014098894782364368 0.011511702090501785 -0.06300000101327896 -0.011511695571243763 0.011511702090501785 -0.044999998062849045 -0.011511697433888912 0.014098897576332092 -0.06300000101327896 -0.00813999678939581 0.014098897576332092 -0.044999998062849045 -0.008139999583363533 0.01572527550160885 -0.06300000101327896 -0.0042135706171393394 0.01572527550160885 -0.04500000178813934 -0.004213572945445776 0.016280002892017365 -0.06300000101327896 3.6674416836746104e-09 0.016280002892017365 -0.04500000178813934 1.2489824730010923e-09 0.01572527550160885 -0.06300000101327896 0.004213578067719936 0.01572527550160885 -0.04500000178813934 0.0042135757394135 0.014098895713686943 -0.06300000101327896 0.008140004239976406 0.014098895713686943 -0.04500000178813934 0.008140001446008682 0.011511698365211487 -0.06300000101327896 0.01151170115917921 0.011511698365211487 -0.04500000178813934 0.011511699296534061 0.008139999583363533 -0.06300000101327896 0.014098897576332092 0.008139999583363533 -0.04500000178813934 0.014098894782364368 0.004213572479784489 -0.06300000101327896 0.01572527550160885 0.004213572479784489 -0.04500000178813934 0.0157252736389637</float_array><technique_common><accessor source="#mesh0-array" count="48" stride="3"><param name="X" type="float" /><param name="Y" type="float" /><param name="Z" type="float" /></accessor></technique_common></source><source id="mesh0-normals"><float_array id="mesh0-normals-array" count="276">-0.13052628934383392 1.3320936886884738e-07 0.9914448261260986 -0.13052628934383392 1.3320936886884738e-07 0.9914448261260986 -0.38268357515335083 1.2413137540079333e-07 0.9238795638084412 -0.38268357515335083 1.2413137540079333e-07 0.9238795638084412 -0.6087616086006165 1.0659400828672005e-07 0.7933531403541565 -0.6087616086006165 1.0659400828672005e-07 0.7933531403541565 -0.7933533191680908 8.179247856787697e-08 0.6087614297866821 -0.7933533191680908 8.179247856787697e-08 0.6087614297866821 -0.9238796830177307 5.141689030097041e-08 0.3826833665370941 -0.9238796830177307 5.141689030097041e-08 0.3826833665370941 -0.9914449453353882 1.753732625786597e-08 0.13052603602409363 -0.9914449453353882 1.753732625786597e-08 0.13052603602409363 -0.9914448261260986 -1.753736178500276e-08 -0.1305263191461563 -0.9914448261260986 -1.753736178500276e-08 -0.1305263191461563 -0.9238795638084412 -5.1416925828107196e-08 -0.382683664560318 -0.9238795638084412 -5.1416925828107196e-08 -0.382683664560318 -0.7933531999588013 -8.179251409501376e-08 -0.6087617874145508 -0.7933531999588013 -8.179251409501376e-08 -0.6087617874145508 -0.6087613701820374 -1.0659403670842948e-07 -0.7933533787727356 -0.6087613701820374 -1.0659403670842948e-07 -0.7933533787727356 -0.38268327713012695 -1.2413140382250276e-07 -0.9238796830177307 -0.38268327713012695 -1.2413140382250276e-07 -0.9238796830177307 -0.13052600622177124 -1.332093830797021e-07 -0.9914449453353882 -0.13052600622177124 -1.332093830797021e-07 -0.9914449453353882 0.13052628934383392 -1.3320936886884738e-07 -0.9914448261260986 0.13052628934383392 -1.3320936886884738e-07 -0.9914448261260986 0.38268357515335083 -1.2413137540079333e-07 -0.9238795638084412 0.38268357515335083 -1.2413137540079333e-07 -0.9238795638084412 0.6087616086006165 -1.0659400828672005e-07 -0.7933531403541565 0.6087616086006165 -1.0659400828672005e-07 -0.7933531403541565 0.7933533191680908 -8.179247856787697e-08 -0.6087614297866821 0.7933533191680908 -8.179247856787697e-08 -0.6087614297866821 0.9238796830177307 -5.141689030097041e-08 -0.3826833665370941 0.9238796830177307 -5.141689030097041e-08 -0.3826833665370941 0.9914449453353882 -1.753732625786597e-08 -0.13052603602409363 0.9914449453353882 -1.753732625786597e-08 -0.13052603602409363 0.9914448261260986 1.753736178500276e-08 0.1305263191461563 0.9914448261260986 1.753736178500276e-08 0.1305263191461563 0.9238795638084412 5.1416925828107196e-08 0.382683664560318 0.9238795638084412 5.1416925828107196e-08 0.382683664560318 0.7933531999588013 8.179251409501376e-08 0.6087617874145508 0.7933531999588013 8.179251409501376e-08 0.6087617874145508 0.6087613701820374 1.0659403670842948e-07 0.7933533787727356 0.6087613701820374 1.0659403670842948e-07 0.7933533787727356 -2.028761815660307e-14 1.0 1.343588280633412e-07 -2.028761815660307e-14 1.0 1.343588280633412e-07 -2.028761815660307e-14 1.0 1.343588280633412e-07 -2.028761815660307e-14 1.0 1.343588280633412e-07 -2.028761815660307e-14 1.0 1.343588280633412e-07 -2.028761815660307e-14 1.0 1.343588280633412e-07 -2.028761815660307e-14 1.0 1.343588280633412e-07 -2.028761815660307e-14 1.0 1.343588280633412e-07 -2.028761815660307e-14 1.0 1.343588280633412e-07 -2.028761815660307e-14 1.0 1.343588280633412e-07 -2.028761815660307e-14 1.0 1.343588280633412e-07 -2.028761815660307e-14 1.0 1.343588280633412e-07 -2.028761815660307e-14 1.0 1.343588280633412e-07 -2.0287619850668966e-14 1.0 1.343588280633412e-07 -2.0287619850668966e-14 1.0 1.343588280633412e-07 -2.028761815660307e-14 1.0 1.343588280633412e-07 -2.0287619850668966e-14 1.0 1.343588280633412e-07 -2.0287619850668966e-14 1.0 1.343588280633412e-07 -2.0287619850668966e-14 1.0 1.343588280633412e-07 -2.0287619850668966e-14 1.0 1.343588280633412e-07 -2.0287619850668966e-14 1.0 1.343588280633412e-07 -2.028761815660307e-14 1.0 1.343588280633412e-07 0.38268327713012695 1.2413140382250276e-07 0.9238796830177307 0.38268327713012695 1.2413140382250276e-07 0.9238796830177307 0.13052600622177124 1.332093830797021e-07 0.9914449453353882 0.13052600622177124 1.332093830797021e-07 0.9914449453353882 2.028761815660307e-14 -1.0 -1.343588280633412e-07 2.028761815660307e-14 -1.0 -1.343588280633412e-07 2.028761815660307e-14 -1.0 -1.343588280633412e-07 2.028761815660307e-14 -1.0 -1.343588280633412e-07 2.028761815660307e-14 -1.0 -1.343588280633412e-07 2.028761815660307e-14 -1.0 -1.343588280633412e-07 2.028761815660307e-14 -1.0 -1.343588280633412e-07 2.028761815660307e-14 -1.0 -1.343588280633412e-07 2.028761815660307e-14 -1.0 -1.343588280633412e-07 2.028761815660307e-14 -1.0 -1.343588280633412e-07 2.028761815660307e-14 -1.0 -1.343588280633412e-07 2.028761815660307e-14 -1.0 -1.343588280633412e-07 2.0287619850668966e-14 -1.0 -1.343588280633412e-07 2.0287619850668966e-14 -1.0 -1.343588280633412e-07 2.028761815660307e-14 -1.0 -1.343588280633412e-07 2.0287619850668966e-14 -1.0 -1.343588280633412e-07 2.0287619850668966e-14 -1.0 -1.343588280633412e-07 2.028761815660307e-14 -1.0 -1.343588280633412e-07 2.028761815660307e-14 -1.0 -1.343588280633412e-07 2.028761815660307e-14 -1.0 -1.343588280633412e-07 2.028761815660307e-14 -1.0 -1.343588280633412e-07 2.028761815660307e-14 -1.0 -1.343588280633412e-07</float_array><technique_common><accessor source="#mesh0-normals-array" count="92" stride="3"><param name="X" type="float" /><param name="Y" type="float" /><param name="Z" type="float" /></accessor></technique_common></source><vertices id="mesh0-vertices"><input semantic="POSITION" source="#mesh0-positions" /></vertices><triangles count="92" material="titanium"><input semantic="VERTEX" source="#mesh0-vertices" offset="0" /><input semantic="NORMAL" source="#mesh0-normals" offset="1" /><p>0 0 1 0 3 0 0 1 3 1 2 1 2 2 3 2 5 2 2 3 5 3 4 3 4 4 5 4 7 4 4 5 7 5 6 5 6 6 7 6 9 6 6 7 9 7 8 7 8 8 9 8 11 8 8 9 11 9 10 9 10 10 11 10 13 10 10 11 13 11 12 11 12 12 13 12 15 12 12 13 15 13 14 13 14 14 15 14 17 14 14 15 17 15 16 15 16 16 17 16 19 16 16 17 19 17 18 17 18 18 19 18 21 18 18 19 21 19 20 19 20 20 21 20 23 20 20 21 23 21 22 21 22 22 23 22 25 22 22 23 25 23 24 23 24 24 25 24 27 24 24 25 27 25 26 25 26 26 27 26 29 26 26 27 29 27 28 27 28 28 29 28 31 28 28 29 31 29 30 29 30 30 31 30 33 30 30 31 33 31 32 31 32 32 33 32 35 32 32 33 35 33 34 33 34 34 35 34 37 34 34 35 37 35 36 35 36 36 37 36 39 36 36 37 39 37 38 37 38 38 39 38 41 38 38 39 41 39 40 39 40 40 41 40 43 40 40 41 43 41 42 41 42 42 43 42 45 42 42 43 45 43 44 43 5 44 3 44 1 44 1 45 47 45 45 45 45 46 43 46 41 46 41 47 39 47 37 47 37 48 35 48 33 48 33 49 31 49 29 49 29 50 27 50 25 50 25 51 23 51 21 51 21 52 19 52 17 52 17 53 15 53 13 53 13 54 11 54 9 54 9 55 7 55 5 55 5 56 1 56 45 56 45 57 41 57 37 57 37 58 33 58 29 58 29 59 25 59 21 59 21 60 17 60 13 60 13 61 9 61 5 61 5 62 45 62 37 62 37 63 29 63 21 63 21 64 13 64 5 64 37 65 21 65 5 65 44 66 45 66 47 66 44 67 47 67 46 67 46 68 47 68 1 68 46 69 1 69 0 69 46 70 0 70 2 70 2 71 4 71 6 71 6 72 8 72 10 72 10 73 12 73 14 73 14 74 16 74 18 74 18 75 20 75 22 75 22 76 24 76 26 76 26 77 28 77 30 77 30 78 32 78 34 78 34 79 36 79 38 79 38 80 40 80 42 80 42 81 44 81 46 81 46 82 2 82 6 82 6 83 10 83 14 83 14 84 18 84 22 84 22 85 26 85 30 85 30 86 34 86 38 86 38 87 42 87 46 87 46 88 6 88 14 88 14 89 22 89 30 89 30 90 38 90 46 90 14 91 30 91 46 91</p></triangles></mesh></geometry><geometry id="mesh1"><mesh><source id="mesh1-positions"><float_array id="mesh1-array" count="144">-2.4582120783378514e-09 0.044999998062849045 0.016280002892017365 -2.4582120783378514e-09 0.06300000101327896 0.016279999166727066 -0.004213577136397362 0.044999998062849045 0.0157252736389637 -0.004213577136397362 0.06300000101327896 0.01572527177631855 -0.008140003308653831 0.044999998062849045 0.014098894782364368 -0.008140003308653831 0.06300000101327896 0.014098891988396645 -0.011511702090501785 0.044999998062849045 0.011511697433888912 -0.011511702090501785 0.06300000101327896 0.011511695571243763 -0.014098897576332092 0.044999998062849045 0.008139999583363533 -0.014098897576332092 0.06300000101327896 0.00813999678939581 -0.01572527550160885 0.04500000178813934 0.004213572945445776 -0.01572527550160885 0.06300000101327896 0.0042135706171393394 -0.016280002892017365 0.04500000178813934 -1.2489824730010923e-09 -0.016280002892017365 0.06300000101327896 -3.6674416836746104e-09 -0.01572527550160885 0.04500000178813934 -0.0042135757394135 -0.01572527550160885 0.06300000101327896 -0.004213578067719936 -0.014098895713686943 0.04500000178813934 -0.008140001446008682 -0.014098895713686943 0.06300000101327896 -0.008140004239976406 -0.011511698365211487 0.04500000178813934 -0.011511699296534061 -0.011511698365211487 0.06300000101327896 -0.01151170115917921 -0.008139999583363533 0.04500000178813934 -0.014098894782364368 -0.008139999583363533 0.06300000101327896 -0.014098897576332092 -0.004213572479784489 0.04500000178813934 -0.0157252736389637 -0.004213572479784489 0.06300000101327896 -0.01572527550160885 2.4582120783378514e-09 0.04500000178813934 -0.016279999166727066 2.4582120783378514e-09 0.06300000101327896 -0.016280002892017365 0.004213577136397362 0.04500000178813934 -0.01572527177631855 0.004213577136397362 0.06300000101327896 -0.0157252736389637 0.008140003308653831 0.04500000178813934 -0.014098891988396645 0.008140003308653831 0.06300000101327896 -0.014098894782364368 0.011511702090501785 0.04500000178813934 -0.011511695571243763 0.011511702090501785 0.06300000101327896 -0.011511697433888912 0.014098897576332092 0.04500000178813934 -0.00813999678939581 0.014098897576332092 0.06300000101327896 -0.008139999583363533 0.01572527550160885 0.04500000178813934 -0.0042135706171393394 0.01572527550160885 0.06300000101327896 -0.004213572945445776 0.016280002892017365 0.04500000178813934 3.6674416836746104e-09 0.016280002892017365 0.06300000101327896 1.2489824730010923e-09 0.01572527550160885 0.04500000178813934 0.004213578067719936 0.01572527550160885 0.06300000101327896 0.0042135757394135 0.014098895713686943 0.044999998062849045 0.008140004239976406 0.014098895713686943 0.06300000101327896 0.008140001446008682 0.011511698365211487 0.044999998062849045 0.01151170115917921 0.011511698365211487 0.06300000101327896 0.011511699296534061 0.008139999583363533 0.044999998062849045 0.014098897576332092 0.008139999583363533 0.06300000101327896 0.014098894782364368 0.004213572479784489 0.044999998062849045 0.01572527550160885 0.004213572479784489 0.06300000101327896 0.0157252736389637</float_array><technique_common><accessor source="#mesh1-array" count="48" stride="3"><param name="X" type="float" /><param name="Y" type="float" /><param name="Z" type="float" /></accessor></technique_common></source><source id="mesh1-normals"><float_array id="mesh1-normals-array" count="276">-0.13052628934383392 1.3320936886884738e-07 0.9914448261260986 -0.13052628934383392 1.3320936886884738e-07 0.9914448261260986 -0.38268357515335083 1.2413137540079333e-07 0.9238795638084412 -0.38268357515335083 1.2413137540079333e-07 0.9238795638084412 -0.6087616086006165 1.0659400828672005e-07 0.7933531403541565 -0.6087616086006165 1.0659400828672005e-07 0.7933531403541565 -0.7933533191680908 8.179247856787697e-08 0.6087614297866821 -0.7933533191680908 8.179247856787697e-08 0.6087614297866821 -0.9238796830177307 5.141689030097041e-08 0.3826833665370941 -0.9238796830177307 5.141689030097041e-08 0.3826833665370941 -0.9914449453353882 1.753732625786597e-08 0.13052603602409363 -0.9914449453353882 1.753732625786597e-08 0.13052603602409363 -0.9914448261260986 -1.753736178500276e-08 -0.1305263191461563 -0.9914448261260986 -1.753736178500276e-08 -0.1305263191461563 -0.9238795638084412 -5.1416925828107196e-08 -0.382683664560318 -0.9238795638084412 -5.1416925828107196e-08 -0.382683664560318 -0.7933531999588013 -8.179251409501376e-08 -0.6087617874145508 -0.7933531999588013 -8.179251409501376e-08 -0.6087617874145508 -0.6087613701820374 -1.0659403670842948e-07 -0.7933533787727356 -0.6087613701820374 -1.0659403670842948e-07 -0.7933533787727356 -0.38268327713012695 -1.2413140382250276e-07 -0.9238796830177307 -0.38268327713012695 -1.2413140382250276e-07 -0.9238796830177307 -0.13052600622177124 -1.332093830797021e-07 -0.9914449453353882 -0.13052600622177124 -1.332093830797021e-07 -0.9914449453353882 0.13052628934383392 -1.3320936886884738e-07 -0.9914448261260986 0.13052628934383392 -1.3320936886884738e-07 -0.9914448261260986 0.38268357515335083 -1.2413137540079333e-07 -0.9238795638084412 0.38268357515335083 -1.2413137540079333e-07 -0.9238795638084412 0.6087616086006165 -1.0659400828672005e-07 -0.7933531403541565 0.6087616086006165 -1.0659400828672005e-07 -0.7933531403541565 0.7933533191680908 -8.179247856787697e-08 -0.6087614297866821 0.7933533191680908 -8.179247856787697e-08 -0.6087614297866821 0.9238796830177307 -5.141689030097041e-08 -0.3826833665370941 0.9238796830177307 -5.141689030097041e-08 -0.3826833665370941 0.9914449453353882 -1.753732625786597e-08 -0.13052603602409363 0.9914449453353882 -1.753732625786597e-08 -0.13052603602409363 0.9914448261260986 1.753736178500276e-08 0.1305263191461563 0.9914448261260986 1.753736178500276e-08 0.1305263191461563 0.9238795638084412 5.1416925828107196e-08 0.382683664560318 0.9238795638084412 5.1416925828107196e-08 0.382683664560318 0.7933531999588013 8.179251409501376e-08 0.6087617874145508 0.7933531999588013 8.179251409501376e-08 0.6087617874145508 0.6087613701820374 1.0659403670842948e-07 0.7933533787727356 0.6087613701820374 1.0659403670842948e-07 0.7933533787727356 -2.028761815660307e-14 1.0 1.343588280633412e-07 -2.028761815660307e-14 1.0 1.343588280633412e-07 -2.028761815660307e-14 1.0 1.343588280633412e-07 -2.028761815660307e-14 1.0 1.343588280633412e-07 -2.028761815660307e-14 1.0 1.343588280633412e-07 -2.028761815660307e-14 1.0 1.343588280633412e-07 -2.028761815660307e-14 1.0 1.343588280633412e-07 -2.028761815660307e-14 1.0 1.343588280633412e-07 -2.028761815660307e-14 1.0 1.343588280633412e-07 -2.028761815660307e-14 1.0 1.343588280633412e-07 -2.028761815660307e-14 1.0 1.343588280633412e-07 -2.028761815660307e-14 1.0 1.343588280633412e-07 -2.028761815660307e-14 1.0 1.343588280633412e-07 -2.0287619850668966e-14 1.0 1.343588280633412e-07 -2.0287619850668966e-14 1.0 1.343588280633412e-07 -2.028761815660307e-14 1.0 1.343588280633412e-07 -2.0287619850668966e-14 1.0 1.343588280633412e-07 -2.0287619850668966e-14 1.0 1.343588280633412e-07 -2.0287619850668966e-14 1.0 1.343588280633412e-07 -2.0287619850668966e-14 1.0 1.343588280633412e-07 -2.0287619850668966e-14 1.0 1.343588280633412e-07 -2.028761815660307e-14 1.0 1.343588280633412e-07 0.38268327713012695 1.2413140382250276e-07 0.9238796830177307 0.38268327713012695 1.2413140382250276e-07 0.9238796830177307 0.13052600622177124 1.332093830797021e-07 0.9914449453353882 0.13052600622177124 1.332093830797021e-07 0.9914449453353882 2.028761815660307e-14 -1.0 -1.343588280633412e-07 2.028761815660307e-14 -1.0 -1.343588280633412e-07 2.028761815660307e-14 -1.0 -1.343588280633412e-07 2.028761815660307e-14 -1.0 -1.343588280633412e-07 2.028761815660307e-14 -1.0 -1.343588280633412e-07 2.028761815660307e-14 -1.0 -1.343588280633412e-07 2.028761815660307e-14 -1.0 -1.343588280633412e-07 2.028761815660307e-14 -1.0 -1.343588280633412e-07 2.028761815660307e-14 -1.0 -1.343588280633412e-07 2.028761815660307e-14 -1.0 -1.343588280633412e-07 2.028761815660307e-14 -1.0 -1.343588280633412e-07 2.028761815660307e-14 -1.0 -1.343588280633412e-07 2.0287619850668966e-14 -1.0 -1.343588280633412e-07 2.0287619850668966e-14 -1.0 -1.343588280633412e-07 2.028761815660307e-14 -1.0 -1.343588280633412e-07 2.0287619850668966e-14 -1.0 -1.343588280633412e-07 2.0287619850668966e-14 -1.0 -1.343588280633412e-07 2.028761815660307e-14 -1.0 -1.343588280633412e-07 2.028761815660307e-14 -1.0 -1.343588280633412e-07 2.028761815660307e-14 -1.0 -1.343588280633412e-07 2.028761815660307e-14 -1.0 -1.343588280633412e-07 2.028761815660307e-14 -1.0 -1.343588280633412e-07</float_array><technique_common><accessor source="#mesh1-normals-array" count="92" stride="3"><param name="X" type="float" /><param name="Y" type="float" /><param name="Z" type="float" /></accessor></technique_common></source><vertices id="mesh1-vertices"><input semantic="POSITION" source="#mesh1-positions" /></vertices><triangles count="92" material="titanium"><input semantic="VERTEX" source="#mesh1-vertices" offset="0" /><input semantic="NORMAL" source="#mesh1-normals" offset="1" /><p>0 0 1 0 3 0 0 1 3 1 2 1 2 2 3 2 5 2 2 3 5 3 4 3 4 4 5 4 7 4 4 5 7 5 6 5 6 6 7 6 9 6 6 7 9 7 8 7 8 8 9 8 11 8 8 9 11 9 10 9 10 10 11 10 13 10 10 11 13 11 12 11 12 12 13 12 15 12 12 13 15 13 14 13 14 14 15 14 17 14 14 15 17 15 16 15 16 16 17 16 19 16 16 17 19 17 18 17 18 18 19 18 21 18 18 19 21 19 20 19 20 20 21 20 23 20 20 21 23 21 22 21 22 22 23 22 25 22 22 23 25 23 24 23 24 24 25 24 27 24 24 25 27 25 26 25 26 26 27 26 29 26 26 27 29 27 28 27 28 28 29 28 31 28 28 29 31 29 30 29 30 30 31 30 33 30 30 31 33 31 32 31 32 32 33 32 35 32 32 33 35 33 34 33 34 34 35 34 37 34 34 35 37 35 36 35 36 36 37 36 39 36 36 37 39 37 38 37 38 38 39 38 41 38 38 39 41 39 40 39 40 40 41 40 43 40 40 41 43 41 42 41 42 42 43 42 45 42 42 43 45 43 44 43 5 44 3 44 1 44 1 45 47 45 45 45 45 46 43 46 41 46 41 47 39 47 37 47 37 48 35 48 33 48 33 49 31 49 29 49 29 50 27 50 25 50 25 51 23 51 21 51 21 52 19 52 17 52 17 53 15 53 13 53 13 54 11 54 9 54 9 55 7 55 5 55 5 56 1 56 45 56 45 57 41 57 37 57 37 58 33 58 29 58 29 59 25 59 21 59 21 60 17 60 13 60 13 61 9 61 5 61 5 62 45 62 37 62 37 63 29 63 21 63 21 64 13 64 5 64 37 65 21 65 5 65 44 66 45 66 47 66 44 67 47 67 46 67 46 68 47 68 1 68 46 69 1 69 0 69 46 70 0 70 2 70 2 71 4 71 6 71 6 72 8 72 10 72 10 73 12 73 14 73 14 74 16 74 18 74 18 75 20 75 22 75 22 76 24 76 26 76 26 77 28 77 30 77 30 78 32 78 34 78 34 79 36 79 38 79 38 80 40 80 42 80 42 81 44 81 46 81 46 82 2 82 6 82 6 83 10 83 14 83 14 84 18 84 22 84 22 85 26 85 30 85 30 86 34 86 38 86 38 87 42 87 46 87 46 88 6 88 14 88 14 89 22 89 30 89 30 90 38 90 46 90 14 91 30 91 46 91</p></triangles></mesh></geometry></library_geometries><library_visual_scenes><visual_scene id="Scene"><node id="mesh0-node"><instance_geometry url="#mesh0"><bind_material><technique_common><instance_material symbol="titanium" target="#titanium" /></technique_common></bind_material></instance_geometry></node><node id="mesh1-node"><instance_geometry url="#mesh1"><bind_material><technique_common><instance_material symbol="titanium" target="#titanium" /></technique_common></bind_material></instance_geometry></node></visual_scene></library_visual_scenes><scene><instance_visual_scene url="#Scene" /></scene></COLLADA>