<?xml version='1.0' encoding='utf-8'?>
<COLLADA xmlns="http://www.collada.org/2005/11/COLLADASchema" version="1.4.1"><asset><unit name="meter" meter="1" /><up_axis>Z_UP</up_axis></asset><library_effects><effect id="graphite-fx"><profile_COMMON><technique sid="common"><phong><emission><color>0 0 0 1</color></emission><ambient><color>0.065 0.075 0.085 1</color></ambient><diffuse><color>0.065 0.075 0.085 1</color></diffuse><specular><color>0.12 0.12 0.12 1</color></specular><shininess><float>25</float></shininess></phong></technique></profile_COMMON></effect><effect id="titanium-fx"><profile_COMMON><technique sid="common"><phong><emission><color>0 0 0 1</color></emission><ambient><color>0.36 0.4 0.43 1</color></ambient><diffuse><color>0.36 0.4 0.43 1</color></diffuse><specular><color>0.12 0.12 0.12 1</color></specular><shininess><float>25</float></shininess></phong></technique></profile_COMMON></effect><effect id="ivory-fx"><profile_COMMON><technique sid="common"><phong><emission><color>0 0 0 1</color></emission><ambient><color>0.72 0.72 0.65 1</color></ambient><diffuse><color>0.72 0.72 0.65 1</color></diffuse><specular><color>0.12 0.12 0.12 1</color></specular><shininess><float>25</float></shininess></phong></technique></profile_COMMON></effect><effect id="copper-fx"><profile_COMMON><technique sid="common"><phong><emission><color>0 0 0 1</color></emission><ambient><color>0.66 0.29 0.08 1</color></ambient><diffuse><color>0.66 0.29 0.08 1</color></diffuse><specular><color>0.12 0.12 0.12 1</color></specular><shininess><float>25</float></shininess></phong></technique></profile_COMMON></effect><effect id="rubber-fx"><profile_COMMON><technique sid="common"><phong><emission><color>0 0 0 1</color></emission><ambient><color>0.025 0.028 0.032 1</color></ambient><diffuse><color>0.025 0.028 0.032 1</color></diffuse><specular><color>0.12 0.12 0.12 1</color></specular><shininess><float>25</float></shininess></phong></technique></profile_COMMON></effect><effect id="lens-fx"><profile_COMMON><technique sid="common"><phong><emission><color>0 0 0 1</color></emission><ambient><color>0.05 0.26 0.33 1</color></ambient><diffuse><color>0.05 0.26 0.33 1</color></diffuse><specular><color>0.12 0.12 0.12 1</color></specular><shininess><float>25</float></shininess></phong></technique></profile_COMMON></effect></library_effects><library_materials><material id="graphite"><instance_effect url="#graphite-fx" /></material><material id="titanium"><instance_effect url="#titanium-fx" /></material><material id="ivory"><instance_effect url="#ivory-fx" /></material><material id="copper"><instance_effect url="#copper-fx" /></material><material id="rubber"><instance_effect url="#rubber-fx" /></material><material id="lens"><instance_effect url="#lens-fx" /></material></library_materials><library_geometries><geometry id="mesh0"><mesh><source id="mesh0-positions"><float_array id="mesh0-array" count="168">-0.052000001072883606 -0.041999999433755875 -0.06000000238418579 -0.052000001072883606 -0.05000000074505806 -0.052000001072883606 -0.06000000238418579 -0.04200000315904617 -0.052000001072883606 -0.052000001072883606 -0.04765685647726059 -0.05765685811638832 -0.05661880597472191 -0.04661880433559418 -0.05661880597472191 -0.05765685811638832 -0.04765686020255089 -0.052000001072883606 -0.05765685811638832 -0.04200000315904617 -0.05765685811638832 -0.052000001072883606 -0.05000000074505806 -0.012000001966953278 -0.052000001072883606 -0.041999999433755875 -0.0040000006556510925 -0.06000000238418579 -0.04200000315904617 -0.012000001966953278 -0.052000001072883606 -0.04765685647726059 -0.006343144923448563 -0.05661880597472191 -0.04661880433559418 -0.007381197065114975 -0.05765685811638832 -0.04200000315904617 -0.006343144923448563 -0.05765685811638832 -0.04765686020255089 -0.012000000104308128 -0.052000001072883606 0.041999999433755875 -0.06000000238418579 -0.06000000238418579 0.04200000315904617 -0.052000001072883606 -0.052000001072883606 0.05000000074505806 -0.052000001072883606 -0.05765685811638832 0.04200000315904617 -0.05765685811638832 -0.05661880597472191 0.04661880433559418 -0.05661880597472191 -0.05765685811638832 0.04765686020255089 -0.052000001072883606 -0.052000001072883606 0.04765685647726059 -0.05765685811638832 -0.052000001072883606 0.041999999433755875 -0.0040000006556510925 -0.052000001072883606 0.05000000074505806 -0.012000001966953278 -0.06000000238418579 0.04200000315904617 -0.012000001966953278 -0.052000001072883606 0.04765685647726059 -0.006343144923448563 -0.05661880597472191 0.04661880433559418 -0.007381197065114975 -0.05765685811638832 0.04765686020255089 -0.012000000104308128 -0.05765685811638832 0.04200000315904617 -0.006343144923448563 0.02199999988079071 -0.041999999433755875 -0.06000000238418579 0.030000001192092896 -0.04200000315904617 -0.052000001072883606 0.02199999988079071 -0.05000000074505806 -0.052000001072883606 0.027656856924295425 -0.04200000315904617 -0.05765685811638832 0.026618804782629013 -0.04661880433559418 -0.05661880597472191 0.027656856924295425 -0.04765686020255089 -0.052000001072883606 0.02199999988079071 -0.04765685647726059 -0.05765685811638832 0.02199999988079071 -0.041999999433755875 -0.0040000006556510925 0.02199999988079071 -0.05000000074505806 -0.012000001966953278 0.030000001192092896 -0.04200000315904617 -0.012000001966953278 0.02199999988079071 -0.04765685647726059 -0.006343144923448563 0.026618804782629013 -0.04661880433559418 -0.007381197065114975 0.027656856924295425 -0.04765686020255089 -0.012000000104308128 0.027656856924295425 -0.04200000315904617 -0.006343144923448563 0.02199999988079071 0.041999999433755875 -0.06000000238418579 0.02199999988079071 0.05000000074505806 -0.052000001072883606 0.030000001192092896 0.04200000315904617 -0.052000001072883606 0.02199999988079071 0.04765685647726059 -0.05765685811638832 0.026618804782629013 0.04661880433559418 -0.05661880597472191 0.027656856924295425 0.04765686020255089 -0.052000001072883606 0.027656856924295425 0.04200000315904617 -0.05765685811638832 0.02199999988079071 0.041999999433755875 -0.0040000006556510925 0.030000001192092896 0.04200000315904617 -0.012000001966953278 0.02199999988079071 0.05000000074505806 -0.012000001966953278 0.027656856924295425 0.04200000315904617 -0.006343144923448563 0.026618804782629013 0.04661880433559418 -0.007381197065114975 0.027656856924295425 0.04765686020255089 -0.012000000104308128 0.02199999988079071 0.04765685647726059 -0.006343144923448563</float_array><technique_common><accessor source="#mesh0-array" count="56" stride="3"><param name="X" type="float" /><param name="Y" type="float" /><param name="Z" type="float" /></accessor></technique_common></source><source id="mesh0-normals"><float_array id="mesh0-normals-array" count="324">-0.2817472517490387 -0.3671800494194031 -0.8864520788192749 -0.36717987060546875 -0.2817474603652954 -0.8864521384239197 -0.36717942357063293 -0.8864521384239197 -0.2817479372024536 -0.2817472219467163 -0.8864520788192749 -0.3671800196170807 -0.8864520192146301 -0.2817474603652954 -0.3671800196170807 -0.8864520192146301 -0.3671799600124359 -0.28174760937690735 -0.2817472517490387 -0.8864520788192749 0.3671800494194031 -0.3671794533729553 -0.8864521980285645 0.2817479372024536 -0.36717990040779114 -0.2817474603652954 0.8864521384239197 -0.2817472517490387 -0.3671800494194031 0.8864521384239197 -0.8864520192146301 -0.3671799600124359 0.28174760937690735 -0.8864520192146301 -0.2817474603652954 0.3671800196170807 -0.36717990040779114 0.2817474603652954 -0.8864521384239197 -0.2817472517490387 0.3671800494194031 -0.8864521384239197 -0.8864520192146301 0.3671799600124359 -0.28174760937690735 -0.8864520192146301 0.2817474603652954 -0.3671800196170807 -0.2817472517490387 0.8864520788192749 -0.3671800494194031 -0.3671794533729553 0.8864521980285645 -0.2817479372024536 -0.2817472517490387 0.3671800494194031 0.8864520788192749 -0.36717987060546875 0.2817474603652954 0.8864521384239197 -0.36717942357063293 0.8864521384239197 0.2817479372024536 -0.2817472219467163 0.8864520788192749 0.3671800196170807 -0.8864520192146301 0.2817474603652954 0.3671800196170807 -0.8864520192146301 0.3671799600124359 0.28174760937690735 0.36717990040779114 -0.2817474603652954 -0.8864521384239197 0.2817472517490387 -0.3671800494194031 -0.8864521384239197 0.8864520192146301 -0.3671799600124359 -0.28174760937690735 0.8864520192146301 -0.2817474603652954 -0.3671800196170807 0.2817472517490387 -0.8864520788192749 -0.3671800494194031 0.3671794533729553 -0.8864521980285645 -0.2817479372024536 0.2817472517490387 -0.3671800494194031 0.8864520788192749 0.36717987060546875 -0.2817474603652954 0.8864521384239197 0.36717942357063293 -0.8864521384239197 0.2817479372024536 0.2817472219467163 -0.8864520788192749 0.3671800196170807 0.8864520192146301 -0.2817474603652954 0.3671800196170807 0.8864520192146301 -0.3671799600124359 0.28174760937690735 0.2817472517490387 0.3671800494194031 -0.8864520788192749 0.36717987060546875 0.2817474603652954 -0.8864521384239197 0.36717942357063293 0.8864521384239197 -0.2817479372024536 0.2817472219467163 0.8864520788192749 -0.3671800196170807 0.8864520192146301 0.2817474603652954 -0.3671800196170807 0.8864520192146301 0.3671799600124359 -0.28174760937690735 0.36717990040779114 0.2817474603652954 0.8864521384239197 0.2817472517490387 0.3671800494194031 0.8864521384239197 0.8864520192146301 0.3671799600124359 0.28174760937690735 0.8864520192146301 0.2817474603652954 0.3671800196170807 0.2817472517490387 0.8864520788192749 0.3671800494194031 0.3671794533729553 0.8864521980285645 0.2817479372024536 -0.38268303871154785 0.0 -0.9238796830177307 -0.38268306851387024 0.0 -0.9238797426223755 -0.9238797426223755 0.0 -0.38268306851387024 -0.9238797426223755 0.0 -0.38268306851387024 -0.38268256187438965 -0.9238799214363098 0.0 -0.38268259167671204 -0.9238799810409546 0.0 -0.9238797426223755 -0.382683128118515 0.0 -0.9238796830177307 -0.3826830983161926 0.0 -0.38268303871154785 0.0 0.9238796830177307 -0.38268306851387024 0.0 0.9238797426223755 -0.9238797426223755 0.0 0.38268306851387024 -0.9238797426223755 0.0 0.38268306851387024 -0.38268256187438965 0.9238799214363098 0.0 -0.38268259167671204 0.9238799810409546 0.0 -0.9238797426223755 0.382683128118515 0.0 -0.9238796830177307 0.3826830983161926 0.0 0.0 0.38268306851387024 -0.9238796830177307 0.0 0.38268306851387024 -0.9238796830177307 0.0 0.9238796830177307 -0.38268306851387024 0.0 0.9238796830177307 -0.38268306851387024 0.0 0.38268306851387024 0.9238796830177307 0.0 0.38268306851387024 0.9238796830177307 0.0 0.9238796830177307 0.38268306851387024 0.0 0.9238796830177307 0.38268306851387024 0.9238796830177307 0.3826830983161926 0.0 0.9238797426223755 0.382683128118515 0.0 0.38268259167671204 0.9238799810409546 0.0 0.38268256187438965 0.9238799214363098 0.0 0.38268303871154785 0.0 -0.9238796830177307 0.38268306851387024 0.0 -0.9238797426223755 0.9238797426223755 0.0 -0.38268306851387024 0.9238797426223755 0.0 -0.38268306851387024 0.38268303871154785 0.0 0.9238796830177307 0.38268306851387024 0.0 0.9238797426223755 0.9238797426223755 0.0 0.38268306851387024 0.9238797426223755 0.0 0.38268306851387024 0.38268256187438965 -0.9238799214363098 0.0 0.38268259167671204 -0.9238799810409546 0.0 0.9238797426223755 -0.382683128118515 0.0 0.9238796830177307 -0.3826830983161926 0.0 0.0 -0.38268306851387024 -0.9238796830177307 0.0 -0.38268306851387024 -0.9238796830177307 0.0 -0.9238796830177307 -0.38268306851387024 0.0 -0.9238796830177307 -0.38268306851387024 0.0 -0.38268306851387024 0.9238796830177307 0.0 -0.38268306851387024 0.9238796830177307 0.0 -0.9238796830177307 0.38268306851387024 0.0 -0.9238796830177307 0.38268306851387024 0.0 0.0 -1.0 0.0 0.0 -1.0 -1.0 0.0 0.0 -1.0 0.0 0.0 0.0 -1.0 0.0 0.0 -1.0 0.0 0.0 0.0 1.0 0.0 0.0 1.0 0.0 1.0 0.0 0.0 1.0 0.0 1.0 0.0 0.0 1.0 0.0 0.0</float_array><technique_common><accessor source="#mesh0-normals-array" count="108" stride="3"><param name="X" type="float" /><param name="Y" type="float" /><param name="Z" type="float" /></accessor></technique_common></source><vertices id="mesh0-vertices"><input semantic="POSITION" source="#mesh0-positions" /></vertices><triangles count="108" material="rubber"><input semantic="VERTEX" source="#mesh0-vertices" offset="0" /><input semantic="NORMAL" source="#mesh0-normals" offset="1" /><p>0 0 3 0 4 0 0 1 4 1 6 1 1 2 5 2 4 2 1 3 4 3 3 3 2 4 6 4 4 4 2 5 4 5 5 5 7 6 10 6 11 6 7 7 11 7 13 7 8 8 12 8 11 8 8 9 11 9 10 9 9 10 13 10 11 10 9 11 11 11 12 11 14 12 17 12 18 12 14 13 18 13 20 13 15 14 19 14 18 14 15 15 18 15 17 15 16 16 20 16 18 16 16 17 18 17 19 17 21 18 24 18 25 18 21 19 25 19 27 19 22 20 26 20 25 20 22 21 25 21 24 21 23 22 27 22 25 22 23 23 25 23 26 23 28 24 31 24 32 24 28 25 32 25 34 25 29 26 33 26 32 26 29 27 32 27 31 27 30 28 34 28 32 28 30 29 32 29 33 29 35 30 38 30 39 30 35 31 39 31 41 31 36 32 40 32 39 32 36 33 39 33 38 33 37 34 41 34 39 34 37 35 39 35 40 35 42 36 45 36 46 36 42 37 46 37 48 37 43 38 47 38 46 38 43 39 46 39 45 39 44 40 48 40 46 40 44 41 46 41 47 41 49 42 52 42 53 42 49 43 53 43 55 43 50 44 54 44 53 44 50 45 53 45 52 45 51 46 55 46 53 46 51 47 53 47 54 47 14 48 0 48 6 48 14 49 6 49 17 49 17 50 6 50 2 50 17 51 2 51 15 51 1 52 7 52 13 52 1 53 13 53 5 53 5 54 13 54 9 54 5 55 9 55 2 55 8 56 21 56 27 56 8 57 27 57 12 57 12 58 27 58 23 58 12 59 23 59 9 59 22 60 16 60 19 60 22 61 19 61 26 61 26 62 19 62 15 62 26 63 15 63 23 63 42 64 14 64 20 64 42 65 20 65 45 65 45 66 20 66 16 66 45 67 16 67 43 67 21 68 49 68 55 68 21 69 55 69 24 69 24 70 55 70 51 70 24 71 51 71 22 71 50 72 44 72 47 72 50 73 47 73 54 73 54 74 47 74 43 74 54 75 43 75 51 75 28 76 42 76 48 76 28 77 48 77 31 77 31 78 48 78 44 78 31 79 44 79 29 79 49 80 35 80 41 80 49 81 41 81 52 81 52 82 41 82 37 82 52 83 37 83 50 83 36 84 30 84 33 84 36 85 33 85 40 85 40 86 33 86 29 86 40 87 29 87 37 87 0 88 28 88 34 88 0 89 34 89 3 89 3 90 34 90 30 90 3 91 30 91 1 91 35 92 8 92 10 92 35 93 10 93 38 93 38 94 10 94 7 94 38 95 7 95 36 95 14 96 42 96 28 96 14 97 28 97 0 97 2 98 9 98 23 98 2 99 23 99 15 99 30 100 36 100 7 100 30 101 7 101 1 101 49 102 21 102 8 102 49 103 8 103 35 103 16 104 22 104 51 104 16 105 51 105 43 105 44 106 50 106 37 106 44 107 37 107 29 107</p></triangles></mesh></geometry></library_geometries><library_visual_scenes><visual_scene id="Scene"><node id="mesh0-node"><instance_geometry url="#mesh0"><bind_material><technique_common><instance_material symbol="rubber" target="#rubber" /></technique_common></bind_material></instance_geometry></node></visual_scene></library_visual_scenes><scene><instance_visual_scene url="#Scene" /></scene></COLLADA>