<?xml version='1.0' encoding='utf-8'?>
<COLLADA xmlns="http://www.collada.org/2005/11/COLLADASchema" version="1.4.1"><asset><unit name="meter" meter="1" /><up_axis>Z_UP</up_axis></asset><library_effects><effect id="graphite-fx"><profile_COMMON><technique sid="common"><phong><emission><color>0 0 0 1</color></emission><ambient><color>0.065 0.075 0.085 1</color></ambient><diffuse><color>0.065 0.075 0.085 1</color></diffuse><specular><color>0.12 0.12 0.12 1</color></specular><shininess><float>25</float></shininess></phong></technique></profile_COMMON></effect><effect id="titanium-fx"><profile_COMMON><technique sid="common"><phong><emission><color>0 0 0 1</color></emission><ambient><color>0.36 0.4 0.43 1</color></ambient><diffuse><color>0.36 0.4 0.43 1</color></diffuse><specular><color>0.12 0.12 0.12 1</color></specular><shininess><float>25</float></shininess></phong></technique></profile_COMMON></effect><effect id="ivory-fx"><profile_COMMON><technique sid="common"><phong><emission><color>0 0 0 1</color></emission><ambient><color>0.72 0.72 0.65 1</color></ambient><diffuse><color>0.72 0.72 0.65 1</color></diffuse><specular><color>0.12 0.12 0.12 1</color></specular><shininess><float>25</float></shininess></phong></technique></profile_COMMON></effect><effect id="copper-fx"><profile_COMMON><technique sid="common"><phong><emission><color>0 0 0 1</color></emission><ambient><color>0.66 0.29 0.08 1</color></ambient><diffuse><color>0.66 0.29 0.08 1</color></diffuse><specular><color>0.12 0.12 0.12 1</color></specular><shininess><float>25</float></shininess></phong></technique></profile_COMMON></effect><effect id="rubber-fx"><profile_COMMON><technique sid="common"><phong><emission><color>0 0 0 1</color></emission><ambient><color>0.025 0.028 0.032 1</color></ambient><diffuse><color>0.025 0.028 0.032 1</color></diffuse><specular><color>0.12 0.12 0.12 1</color></specular><shininess><float>25</float></shininess></phong></technique></profile_COMMON></effect><effect id="lens-fx"><profile_COMMON><technique sid="common"><phong><emission><color>0 0 0 1</color></emission><ambient><color>0.05 0.26 0.33 1</color></ambient><diffuse><color>0.05 0.26 0.33 1</color></diffuse><specular><color>0.12 0.12 0.12 1</color></specular><shininess><float>25</float></shininess></phong></technique></profile_COMMON></effect></library_effects><library_materials><material id="graphite"><instance_effect url="#graphite-fx" /></material><material id="titanium"><instance_effect url="#titanium-fx" /></material><material id="ivory"><instance_effect url="#ivory-fx" /></material><material id="copper"><instance_effect url="#copper-fx" /></material><material id="rubber"><instance_effect url="#rubber-fx" /></material><material id="lens"><instance_effect url="#lens-fx" /></material></library_materials><library_geometries><geometry id="mesh0"><mesh><source id="mesh0-positions"><float_array id="mesh0-array" count="144">-3.122593739135482e-09 -0.06549999862909317 0.020680002868175507 -3.122593739135482e-09 -0.04749999940395355 0.020679999142885208 -0.005352381616830826 -0.06549999862909317 0.019975347444415092 -0.005352381616830826 -0.04749999940395355 0.019975345581769943 -0.010340005159378052 -0.06549999862909317 0.017909405753016472 -0.010340005159378052 -0.04749999940395355 0.017909403890371323 -0.014622973278164864 -0.06549999862909317 0.01462296862155199 -0.014622973278164864 -0.04749999940395355 0.014622965827584267 -0.01790940947830677 -0.06549999862909317 0.01033999864012003 -0.01790940947830677 -0.04749999940395355 0.01033999677747488 -0.01997535116970539 -0.06549999862909317 0.005352376028895378 -0.01997535116970539 -0.04749999940395355 0.005352373700588942 -0.020680004730820656 -0.06549999862909317 -1.913364133798723e-09 -0.020680004730820656 -0.04749999940395355 -4.331823344472241e-09 -0.01997535116970539 -0.06549999862909317 -0.005352379754185677 -0.01997535116970539 -0.04749999940395355 -0.005352382082492113 -0.017909405753016472 -0.06549999862909317 -0.010340002365410328 -0.017909405753016472 -0.047499995678663254 -0.010340004228055477 -0.014622969552874565 -0.06549999862909317 -0.01462297048419714 -0.014622969552874565 -0.047499995678663254 -0.014622973278164864 -0.010339999571442604 -0.06549999862909317 -0.017909405753016472 -0.010339999571442604 -0.047499995678663254 -0.01790940761566162 -0.005352376028895378 -0.06549999862909317 -0.019975347444415092 -0.005352376028895378 -0.047499995678663254 -0.01997534930706024 3.122593739135482e-09 -0.06549999862909317 -0.020679999142885208 3.122593739135482e-09 -0.047499995678663254 -0.020680002868175507 0.005352381616830826 -0.06549999862909317 -0.019975345581769943 0.005352381616830826 -0.047499995678663254 -0.019975347444415092 0.010340005159378052 -0.06549999862909317 -0.017909403890371323 0.010340005159378052 -0.047499995678663254 -0.017909405753016472 0.014622973278164864 -0.06549999862909317 -0.014622965827584267 0.014622973278164864 -0.047499995678663254 -0.01462296862155199 0.01790940947830677 -0.06549999862909317 -0.01033999677747488 0.01790940947830677 -0.047499995678663254 -0.01033999864012003 0.01997535116970539 -0.06549999862909317 -0.005352373700588942 0.01997535116970539 -0.04749999940395355 -0.005352376028895378 0.020680004730820656 -0.06549999862909317 4.331823344472241e-09 0.020680004730820656 -0.04749999940395355 1.913364133798723e-09 0.01997535116970539 -0.06549999862909317 0.005352382082492113 0.01997535116970539 -0.04749999940395355 0.005352379754185677 0.017909405753016472 -0.06549999862909317 0.010340004228055477 0.017909405753016472 -0.04749999940395355 0.010340002365410328 0.014622969552874565 -0.06549999862909317 0.014622973278164864 0.014622969552874565 -0.04749999940395355 0.01462297048419714 0.010339999571442604 -0.06549999862909317 0.01790940761566162 0.010339999571442604 -0.04749999940395355 0.017909405753016472 0.005352376028895378 -0.06549999862909317 0.01997534930706024 0.005352376028895378 -0.04749999940395355 0.019975347444415092</float_array><technique_common><accessor source="#mesh0-array" count="48" stride="3"><param name="X" type="float" /><param name="Y" type="float" /><param name="Z" type="float" /></accessor></technique_common></source><source id="mesh0-normals"><float_array id="mesh0-normals-array" count="276">-0.13052628934383392 1.3320936886884738e-07 0.9914448857307434 -0.13052628934383392 1.3320936886884738e-07 0.9914448857307434 -0.38268372416496277 1.2413136118993862e-07 0.9238794445991516 -0.38268372416496277 1.2413136118993862e-07 0.9238794445991516 -0.6087614893913269 1.0659402960300213e-07 0.7933533191680908 -0.6087614893913269 1.0659402960300213e-07 0.7933533191680908 -0.7933534979820251 8.179246435702225e-08 0.6087613105773926 -0.7933534979820251 8.179246435702225e-08 0.6087613105773926 -0.9238795638084412 5.14169080645388e-08 0.38268348574638367 -0.9238795638084412 5.14169080645388e-08 0.38268348574638367 -0.9914448857307434 1.7537322705152292e-08 0.13052602112293243 -0.9914448857307434 1.7537322705152292e-08 0.13052602112293243 -0.9914448857307434 -1.753736178500276e-08 -0.1305263191461563 -0.9914448857307434 -1.753736178500276e-08 -0.1305263191461563 -0.9238794445991516 -5.141694359167559e-08 -0.38268378376960754 -0.9238794445991516 -5.141694359167559e-08 -0.38268378376960754 -0.793353259563446 -8.179249277873168e-08 -0.6087615489959717 -0.793353259563446 -8.179249277873168e-08 -0.6087615489959717 -0.6087612509727478 -1.0659405802471156e-07 -0.7933535575866699 -0.6087612509727478 -1.0659405802471156e-07 -0.7933535575866699 -0.3826834261417389 -1.2413138961164805e-07 -0.9238795638084412 -0.3826834261417389 -1.2413138961164805e-07 -0.9238795638084412 -0.13052599132061005 -1.3320936886884738e-07 -0.9914448857307434 -0.13052599132061005 -1.3320936886884738e-07 -0.9914448857307434 0.13052628934383392 -1.3320936886884738e-07 -0.9914448857307434 0.13052628934383392 -1.3320936886884738e-07 -0.9914448857307434 0.38268372416496277 -1.2413136118993862e-07 -0.9238794445991516 0.38268372416496277 -1.2413136118993862e-07 -0.9238794445991516 0.6087614893913269 -1.0659402960300213e-07 -0.7933533191680908 0.6087614893913269 -1.0659402960300213e-07 -0.7933533191680908 0.7933534979820251 -8.179246435702225e-08 -0.6087613105773926 0.7933534979820251 -8.179246435702225e-08 -0.6087613105773926 0.9238795638084412 -5.14169080645388e-08 -0.38268348574638367 0.9238795638084412 -5.14169080645388e-08 -0.38268348574638367 0.9914448857307434 -1.7537322705152292e-08 -0.13052602112293243 0.9914448857307434 -1.7537322705152292e-08 -0.13052602112293243 0.9914448857307434 1.753736178500276e-08 0.1305263191461563 0.9914448857307434 1.753736178500276e-08 0.1305263191461563 0.9238794445991516 5.141694359167559e-08 0.38268378376960754 0.9238794445991516 5.141694359167559e-08 0.38268378376960754 0.793353259563446 8.179249277873168e-08 0.6087615489959717 0.793353259563446 8.179249277873168e-08 0.6087615489959717 0.6087612509727478 1.0659405802471156e-07 0.7933535575866699 0.6087612509727478 1.0659405802471156e-07 0.7933535575866699 -2.028761815660307e-14 1.0 1.343588280633412e-07 -2.028761815660307e-14 1.0 1.343588280633412e-07 -2.028761815660307e-14 1.0 1.343588280633412e-07 -2.028761815660307e-14 1.0 1.343588280633412e-07 -2.028761815660307e-14 1.0 1.343588280633412e-07 -2.028761815660307e-14 1.0 1.343588280633412e-07 -2.028761815660307e-14 1.0 1.343588280633412e-07 -2.028761815660307e-14 1.0 1.343588280633412e-07 -2.028761815660307e-14 1.0 1.343588280633412e-07 -2.028761815660307e-14 1.0 1.343588280633412e-07 -2.028761815660307e-14 1.0 1.343588280633412e-07 -2.028761815660307e-14 1.0 1.343588280633412e-07 -2.028761815660307e-14 1.0 1.343588280633412e-07 -2.028761815660307e-14 1.0 1.343588280633412e-07 -2.028761815660307e-14 1.0 1.343588280633412e-07 -2.028761815660307e-14 1.0 1.343588280633412e-07 -2.028761815660307e-14 1.0 1.343588280633412e-07 -2.028761815660307e-14 1.0 1.343588280633412e-07 -2.0287619850668966e-14 1.0 1.343588280633412e-07 -2.0287619850668966e-14 1.0 1.343588280633412e-07 -2.0287619850668966e-14 1.0 1.343588280633412e-07 -2.028761815660307e-14 1.0 1.343588280633412e-07 0.3826834261417389 1.2413138961164805e-07 0.9238795638084412 0.3826834261417389 1.2413138961164805e-07 0.9238795638084412 0.13052599132061005 1.3320936886884738e-07 0.9914448857307434 0.13052599132061005 1.3320936886884738e-07 0.9914448857307434 2.0287619850668966e-14 -1.0 -1.343588280633412e-07 2.0287619850668966e-14 -1.0 -1.343588280633412e-07 2.0287619850668966e-14 -1.0 -1.343588280633412e-07 2.0287619850668966e-14 -1.0 -1.343588280633412e-07 2.0287619850668966e-14 -1.0 -1.343588280633412e-07 2.0287619850668966e-14 -1.0 -1.343588280633412e-07 2.0287619850668966e-14 -1.0 -1.343588280633412e-07 2.0287619850668966e-14 -1.0 -1.343588280633412e-07 2.0287619850668966e-14 -1.0 -1.343588280633412e-07 2.0287619850668966e-14 -1.0 -1.343588280633412e-07 2.0287619850668966e-14 -1.0 -1.343588280633412e-07 2.0287619850668966e-14 -1.0 -1.343588280633412e-07 2.028761815660307e-14 -1.0 -1.343588280633412e-07 2.028761815660307e-14 -1.0 -1.343588280633412e-07 2.028761815660307e-14 -1.0 -1.343588280633412e-07 2.028761815660307e-14 -1.0 -1.343588280633412e-07 2.028761815660307e-14 -1.0 -1.343588280633412e-07 2.028761815660307e-14 -1.0 -1.343588280633412e-07 2.0287619850668966e-14 -1.0 -1.343588280633412e-07 2.0287619850668966e-14 -1.0 -1.343588280633412e-07 2.0287619850668966e-14 -1.0 -1.343588280633412e-07 2.028761815660307e-14 -1.0 -1.343588280633412e-07</float_array><technique_common><accessor source="#mesh0-normals-array" count="92" stride="3"><param name="X" type="float" /><param name="Y" type="float" /><param name="Z" type="float" /></accessor></technique_common></source><vertices id="mesh0-vertices"><input semantic="POSITION" source="#mesh0-positions" /></vertices><triangles count="92" material="titanium"><input semantic="VERTEX" source="#mesh0-vertices" offset="0" /><input semantic="NORMAL" source="#mesh0-normals" offset="1" /><p>0 0 1 0 3 0 0 1 3 1 2 1 2 2 3 2 5 2 2 3 5 3 4 3 4 4 5 4 7 4 4 5 7 5 6 5 6 6 7 6 9 6 6 7 9 7 8 7 8 8 9 8 11 8 8 9 11 9 10 9 10 10 11 10 13 10 10 11 13 11 12 11 12 12 13 12 15 12 12 13 15 13 14 13 14 14 15 14 17 14 14 15 17 15 16 15 16 16 17 16 19 16 16 17 19 17 18 17 18 18 19 18 21 18 18 19 21 19 20 19 20 20 21 20 23 20 20 21 23 21 22 21 22 22 23 22 25 22 22 23 25 23 24 23 24 24 25 24 27 24 24 25 27 25 26 25 26 26 27 26 29 26 26 27 29 27 28 27 28 28 29 28 31 28 28 29 31 29 30 29 30 30 31 30 33 30 30 31 33 31 32 31 32 32 33 32 35 32 32 33 35 33 34 33 34 34 35 34 37 34 34 35 37 35 36 35 36 36 37 36 39 36 36 37 39 37 38 37 38 38 39 38 41 38 38 39 41 39 40 39 40 40 41 40 43 40 40 41 43 41 42 41 42 42 43 42 45 42 42 43 45 43 44 43 5 44 3 44 1 44 1 45 47 45 45 45 45 46 43 46 41 46 41 47 39 47 37 47 37 48 35 48 33 48 33 49 31 49 29 49 29 50 27 50 25 50 25 51 23 51 21 51 21 52 19 52 17 52 17 53 15 53 13 53 13 54 11 54 9 54 9 55 7 55 5 55 5 56 1 56 45 56 45 57 41 57 37 57 37 58 33 58 29 58 29 59 25 59 21 59 21 60 17 60 13 60 13 61 9 61 5 61 5 62 45 62 37 62 37 63 29 63 21 63 21 64 13 64 5 64 37 65 21 65 5 65 44 66 45 66 47 66 44 67 47 67 46 67 46 68 47 68 1 68 46 69 1 69 0 69 46 70 0 70 2 70 2 71 4 71 6 71 6 72 8 72 10 72 10 73 12 73 14 73 14 74 16 74 18 74 18 75 20 75 22 75 22 76 24 76 26 76 26 77 28 77 30 77 30 78 32 78 34 78 34 79 36 79 38 79 38 80 40 80 42 80 42 81 44 81 46 81 46 82 2 82 6 82 6 83 10 83 14 83 14 84 18 84 22 84 22 85 26 85 30 85 30 86 34 86 38 86 38 87 42 87 46 87 46 88 6 88 14 88 14 89 22 89 30 89 30 90 38 90 46 90 14 91 30 91 46 91</p></triangles></mesh></geometry><geometry id="mesh1"><mesh><source id="mesh1-positions"><float_array id="mesh1-array" count="144">-3.122593739135482e-09 0.047499995678663254 0.020680002868175507 -3.122593739135482e-09 0.06549999862909317 0.020679999142885208 -0.005352381616830826 0.047499995678663254 0.019975347444415092 -0.005352381616830826 0.06549999862909317 0.019975345581769943 -0.010340005159378052 0.047499995678663254 0.017909405753016472 -0.010340005159378052 0.06549999862909317 0.017909403890371323 -0.014622973278164864 0.047499995678663254 0.01462296862155199 -0.014622973278164864 0.06549999862909317 0.014622965827584267 -0.01790940947830677 0.047499995678663254 0.01033999864012003 -0.01790940947830677 0.06549999862909317 0.01033999677747488 -0.01997535116970539 0.04749999940395355 0.005352376028895378 -0.01997535116970539 0.06549999862909317 0.005352373700588942 -0.020680004730820656 0.04749999940395355 -1.913364133798723e-09 -0.020680004730820656 0.06549999862909317 -4.331823344472241e-09 -0.01997535116970539 0.04749999940395355 -0.005352379754185677 -0.01997535116970539 0.06549999862909317 -0.005352382082492113 -0.017909405753016472 0.04749999940395355 -0.010340002365410328 -0.017909405753016472 0.06549999862909317 -0.010340004228055477 -0.014622969552874565 0.04749999940395355 -0.01462297048419714 -0.014622969552874565 0.06549999862909317 -0.014622973278164864 -0.010339999571442604 0.04749999940395355 -0.017909405753016472 -0.010339999571442604 0.06549999862909317 -0.01790940761566162 -0.005352376028895378 0.04749999940395355 -0.019975347444415092 -0.005352376028895378 0.06549999862909317 -0.01997534930706024 3.122593739135482e-09 0.04749999940395355 -0.020679999142885208 3.122593739135482e-09 0.06549999862909317 -0.020680002868175507 0.005352381616830826 0.04749999940395355 -0.019975345581769943 0.005352381616830826 0.06549999862909317 -0.019975347444415092 0.010340005159378052 0.04749999940395355 -0.017909403890371323 0.010340005159378052 0.06549999862909317 -0.017909405753016472 0.014622973278164864 0.04749999940395355 -0.014622965827584267 0.014622973278164864 0.06549999862909317 -0.01462296862155199 0.01790940947830677 0.04749999940395355 -0.01033999677747488 0.01790940947830677 0.06549999862909317 -0.01033999864012003 0.01997535116970539 0.04749999940395355 -0.005352373700588942 0.01997535116970539 0.06549999862909317 -0.005352376028895378 0.020680004730820656 0.04749999940395355 4.331823344472241e-09 0.020680004730820656 0.06549999862909317 1.913364133798723e-09 0.01997535116970539 0.04749999940395355 0.005352382082492113 0.01997535116970539 0.06549999862909317 0.005352379754185677 0.017909405753016472 0.047499995678663254 0.010340004228055477 0.017909405753016472 0.06549999862909317 0.010340002365410328 0.014622969552874565 0.047499995678663254 0.014622973278164864 0.014622969552874565 0.06549999862909317 0.01462297048419714 0.010339999571442604 0.047499995678663254 0.01790940761566162 0.010339999571442604 0.06549999862909317 0.017909405753016472 0.005352376028895378 0.047499995678663254 0.01997534930706024 0.005352376028895378 0.06549999862909317 0.019975347444415092</float_array><technique_common><accessor source="#mesh1-array" count="48" stride="3"><param name="X" type="float" /><param name="Y" type="float" /><param name="Z" type="float" /></accessor></technique_common></source><source id="mesh1-normals"><float_array id="mesh1-normals-array" count="276">-0.13052628934383392 1.3320936886884738e-07 0.9914448857307434 -0.13052628934383392 1.3320936886884738e-07 0.9914448857307434 -0.38268372416496277 1.2413136118993862e-07 0.9238794445991516 -0.38268372416496277 1.2413136118993862e-07 0.9238794445991516 -0.6087614893913269 1.0659402960300213e-07 0.7933533191680908 -0.6087614893913269 1.0659402960300213e-07 0.7933533191680908 -0.7933534979820251 8.179246435702225e-08 0.6087613105773926 -0.7933534979820251 8.179246435702225e-08 0.6087613105773926 -0.9238795638084412 5.14169080645388e-08 0.38268348574638367 -0.9238795638084412 5.14169080645388e-08 0.38268348574638367 -0.9914448857307434 1.7537322705152292e-08 0.13052602112293243 -0.9914448857307434 1.7537322705152292e-08 0.13052602112293243 -0.9914448857307434 -1.753736178500276e-08 -0.1305263191461563 -0.9914448857307434 -1.753736178500276e-08 -0.1305263191461563 -0.9238794445991516 -5.141694359167559e-08 -0.38268378376960754 -0.9238794445991516 -5.141694359167559e-08 -0.38268378376960754 -0.793353259563446 -8.179249277873168e-08 -0.6087615489959717 -0.793353259563446 -8.179249277873168e-08 -0.6087615489959717 -0.6087612509727478 -1.0659405802471156e-07 -0.7933535575866699 -0.6087612509727478 -1.0659405802471156e-07 -0.7933535575866699 -0.3826834261417389 -1.2413138961164805e-07 -0.9238795638084412 -0.3826834261417389 -1.2413138961164805e-07 -0.9238795638084412 -0.13052599132061005 -1.3320936886884738e-07 -0.9914448857307434 -0.13052599132061005 -1.3320936886884738e-07 -0.9914448857307434 0.13052628934383392 -1.3320936886884738e-07 -0.9914448857307434 0.13052628934383392 -1.3320936886884738e-07 -0.9914448857307434 0.38268372416496277 -1.2413136118993862e-07 -0.9238794445991516 0.38268372416496277 -1.2413136118993862e-07 -0.9238794445991516 0.6087614893913269 -1.0659402960300213e-07 -0.7933533191680908 0.6087614893913269 -1.0659402960300213e-07 -0.7933533191680908 0.7933534979820251 -8.179246435702225e-08 -0.6087613105773926 0.7933534979820251 -8.179246435702225e-08 -0.6087613105773926 0.9238795638084412 -5.14169080645388e-08 -0.38268348574638367 0.9238795638084412 -5.14169080645388e-08 -0.38268348574638367 0.9914448857307434 -1.7537322705152292e-08 -0.13052602112293243 0.9914448857307434 -1.7537322705152292e-08 -0.13052602112293243 0.9914448857307434 1.753736178500276e-08 0.1305263191461563 0.9914448857307434 1.753736178500276e-08 0.1305263191461563 0.9238794445991516 5.141694359167559e-08 0.38268378376960754 0.9238794445991516 5.141694359167559e-08 0.38268378376960754 0.793353259563446 8.179249277873168e-08 0.6087615489959717 0.793353259563446 8.179249277873168e-08 0.6087615489959717 0.6087612509727478 1.0659405802471156e-07 0.7933535575866699 0.6087612509727478 1.0659405802471156e-07 0.7933535575866699 -2.028761815660307e-14 1.0 1.343588280633412e-07 -2.028761815660307e-14 1.0 1.343588280633412e-07 -2.028761815660307e-14 1.0 1.343588280633412e-07 -2.028761815660307e-14 1.0 1.343588280633412e-07 -2.028761815660307e-14 1.0 1.343588280633412e-07 -2.028761815660307e-14 1.0 1.343588280633412e-07 -2.028761815660307e-14 1.0 1.343588280633412e-07 -2.028761815660307e-14 1.0 1.343588280633412e-07 -2.028761815660307e-14 1.0 1.343588280633412e-07 -2.028761815660307e-14 1.0 1.343588280633412e-07 -2.028761815660307e-14 1.0 1.343588280633412e-07 -2.028761815660307e-14 1.0 1.343588280633412e-07 -2.028761815660307e-14 1.0 1.343588280633412e-07 -2.028761815660307e-14 1.0 1.343588280633412e-07 -2.028761815660307e-14 1.0 1.343588280633412e-07 -2.028761815660307e-14 1.0 1.343588280633412e-07 -2.028761815660307e-14 1.0 1.343588280633412e-07 -2.028761815660307e-14 1.0 1.343588280633412e-07 -2.0287619850668966e-14 1.0 1.343588280633412e-07 -2.0287619850668966e-14 1.0 1.343588280633412e-07 -2.0287619850668966e-14 1.0 1.343588280633412e-07 -2.028761815660307e-14 1.0 1.343588280633412e-07 0.3826834261417389 1.2413138961164805e-07 0.9238795638084412 0.3826834261417389 1.2413138961164805e-07 0.9238795638084412 0.13052599132061005 1.3320936886884738e-07 0.9914448857307434 0.13052599132061005 1.3320936886884738e-07 0.9914448857307434 2.0287619850668966e-14 -1.0 -1.343588280633412e-07 2.0287619850668966e-14 -1.0 -1.343588280633412e-07 2.0287619850668966e-14 -1.0 -1.343588280633412e-07 2.0287619850668966e-14 -1.0 -1.343588280633412e-07 2.0287619850668966e-14 -1.0 -1.343588280633412e-07 2.0287619850668966e-14 -1.0 -1.343588280633412e-07 2.0287619850668966e-14 -1.0 -1.343588280633412e-07 2.0287619850668966e-14 -1.0 -1.343588280633412e-07 2.0287619850668966e-14 -1.0 -1.343588280633412e-07 2.0287619850668966e-14 -1.0 -1.343588280633412e-07 2.0287619850668966e-14 -1.0 -1.343588280633412e-07 2.0287619850668966e-14 -1.0 -1.343588280633412e-07 2.028761815660307e-14 -1.0 -1.343588280633412e-07 2.028761815660307e-14 -1.0 -1.343588280633412e-07 2.028761815660307e-14 -1.0 -1.343588280633412e-07 2.028761815660307e-14 -1.0 -1.343588280633412e-07 2.028761815660307e-14 -1.0 -1.343588280633412e-07 2.028761815660307e-14 -1.0 -1.343588280633412e-07 2.0287619850668966e-14 -1.0 -1.343588280633412e-07 2.0287619850668966e-14 -1.0 -1.343588280633412e-07 2.0287619850668966e-14 -1.0 -1.343588280633412e-07 2.028761815660307e-14 -1.0 -1.343588280633412e-07</float_array><technique_common><accessor source="#mesh1-normals-array" count="92" stride="3"><param name="X" type="float" /><param name="Y" type="float" /><param name="Z" type="float" /></accessor></technique_common></source><vertices id="mesh1-vertices"><input semantic="POSITION" source="#mesh1-positions" /></vertices><triangles count="92" material="titanium"><input semantic="VERTEX" source="#mesh1-vertices" offset="0" /><input semantic="NORMAL" source="#mesh1-normals" offset="1" /><p>0 0 1 0 3 0 0 1 3 1 2 1 2 2 3 2 5 2 2 3 5 3 4 3 4 4 5 4 7 4 4 5 7 5 6 5 6 6 7 6 9 6 6 7 9 7 8 7 8 8 9 8 11 8 8 9 11 9 10 9 10 10 11 10 13 10 10 11 13 11 12 11 12 12 13 12 15 12 12 13 15 13 14 13 14 14 15 14 17 14 14 15 17 15 16 15 16 16 17 16 19 16 16 17 19 17 18 17 18 18 19 18 21 18 18 19 21 19 20 19 20 20 21 20 23 20 20 21 23 21 22 21 22 22 23 22 25 22 22 23 25 23 24 23 24 24 25 24 27 24 24 25 27 25 26 25 26 26 27 26 29 26 26 27 29 27 28 27 28 28 29 28 31 28 28 29 31 29 30 29 30 30 31 30 33 30 30 31 33 31 32 31 32 32 33 32 35 32 32 33 35 33 34 33 34 34 35 34 37 34 34 35 37 35 36 35 36 36 37 36 39 36 36 37 39 37 38 37 38 38 39 38 41 38 38 39 41 39 40 39 40 40 41 40 43 40 40 41 43 41 42 41 42 42 43 42 45 42 42 43 45 43 44 43 5 44 3 44 1 44 1 45 47 45 45 45 45 46 43 46 41 46 41 47 39 47 37 47 37 48 35 48 33 48 33 49 31 49 29 49 29 50 27 50 25 50 25 51 23 51 21 51 21 52 19 52 17 52 17 53 15 53 13 53 13 54 11 54 9 54 9 55 7 55 5 55 5 56 1 56 45 56 45 57 41 57 37 57 37 58 33 58 29 58 29 59 25 59 21 59 21 60 17 60 13 60 13 61 9 61 5 61 5 62 45 62 37 62 37 63 29 63 21 63 21 64 13 64 5 64 37 65 21 65 5 65 44 66 45 66 47 66 44 67 47 67 46 67 46 68 47 68 1 68 46 69 1 69 0 69 46 70 0 70 2 70 2 71 4 71 6 71 6 72 8 72 10 72 10 73 12 73 14 73 14 74 16 74 18 74 18 75 20 75 22 75 22 76 24 76 26 76 26 77 28 77 30 77 30 78 32 78 34 78 34 79 36 79 38 79 38 80 40 80 42 80 42 81 44 81 46 81 46 82 2 82 6 82 6 83 10 83 14 83 14 84 18 84 22 84 22 85 26 85 30 85 30 86 34 86 38 86 38 87 42 87 46 87 46 88 6 88 14 88 14 89 22 89 30 89 30 90 38 90 46 90 14 91 30 91 46 91</p></triangles></mesh></geometry><geometry id="mesh2"><mesh><source id="mesh2-positions"><float_array id="mesh2-array" count="144">0.0 -0.04799998551607132 -0.034999992698431015 0.0 -0.048000019043684006 -0.26499998569488525 0.004141104873269796 -0.047454796731472015 -0.034999992698431015 0.004141104873269796 -0.047454833984375 -0.26499998569488525 0.00800000037997961 -0.04585639014840126 -0.034999992698431015 0.00800000037997961 -0.045856427401304245 -0.26499998569488525 0.011313708499073982 -0.04331369325518608 -0.034999996423721313 0.011313708499073982 -0.04331372678279877 -0.26499998569488525 0.013856407254934311 -0.039999984204769135 -0.034999996423721313 0.013856407254934311 -0.04000001773238182 -0.26499998569488525 0.015454813838005066 -0.03614109009504318 -0.034999996423721313 0.015454813838005066 -0.03614112362265587 -0.26499998569488525 0.01600000075995922 -0.03199998289346695 -0.034999996423721313 0.01600000075995922 -0.032000020146369934 -0.26499998569488525 0.015454813838005066 -0.027858879417181015 -0.034999996423721313 0.015454813838005066 -0.02785891480743885 -0.26499998569488525 0.013856407254934311 -0.023999983444809914 -0.034999996423721313 0.013856407254934311 -0.02400001883506775 -0.26499998569488525 0.011313708499073982 -0.020686276257038116 -0.034999996423721313 0.011313708499073982 -0.020686309784650803 -0.26499998569488525 0.00800000037997961 -0.018143577501177788 -0.03500000014901161 0.00800000037997961 -0.018143611028790474 -0.26499998569488525 0.004141104873269796 -0.016545170918107033 -0.03500000014901161 0.004141104873269796 -0.01654520444571972 -0.26499998569488525 0.0 -0.015999983996152878 -0.03500000014901161 0.0 -0.016000017523765564 -0.26499998569488525 -0.004141104873269796 -0.016545170918107033 -0.03500000014901161 -0.004141104873269796 -0.01654520444571972 -0.26499998569488525 -0.00800000037997961 -0.018143577501177788 -0.03500000014901161 -0.00800000037997961 -0.018143611028790474 -0.26499998569488525 -0.011313708499073982 -0.020686276257038116 -0.034999996423721313 -0.011313708499073982 -0.020686309784650803 -0.26499998569488525 -0.013856407254934311 -0.023999983444809914 -0.034999996423721313 -0.013856407254934311 -0.02400001883506775 -0.26499998569488525 -0.015454813838005066 -0.027858879417181015 -0.034999996423721313 -0.015454813838005066 -0.02785891480743885 -0.26499998569488525 -0.01600000075995922 -0.03199998289346695 -0.034999996423721313 -0.01600000075995922 -0.032000020146369934 -0.26499998569488525 -0.015454813838005066 -0.03614109009504318 -0.034999996423721313 -0.015454813838005066 -0.03614112362265587 -0.26499998569488525 -0.013856407254934311 -0.039999984204769135 -0.034999996423721313 -0.013856407254934311 -0.04000001773238182 -0.26499998569488525 -0.011313708499073982 -0.04331369325518608 -0.034999996423721313 -0.011313708499073982 -0.04331372678279877 -0.26499998569488525 -0.00800000037997961 -0.04585639014840126 -0.034999992698431015 -0.00800000037997961 -0.045856427401304245 -0.26499998569488525 -0.004141104873269796 -0.047454796731472015 -0.034999992698431015 -0.004141104873269796 -0.047454833984375 -0.26499998569488525</float_array><technique_common><accessor source="#mesh2-array" count="48" stride="3"><param name="X" type="float" /><param name="Y" type="float" /><param name="Z" type="float" /></accessor></technique_common></source><source id="mesh2-normals"><float_array id="mesh2-normals-array" count="276">0.13052622973918915 -0.9914448857307434 1.4970402162362006e-07 0.13052622973918915 -0.9914448857307434 1.4970402162362006e-07 0.3826834261417389 -0.9238796234130859 1.3950193533673882e-07 0.3826834261417389 -0.9238796234130859 1.3950193533673882e-07 0.6087616086006165 -0.7933533191680908 1.197930146190629e-07 0.6087616086006165 -0.7933533191680908 1.197930146190629e-07 0.7933533191680908 -0.6087616086006165 9.192045524741843e-08 0.7933533191680908 -0.6087616086006165 9.192045524741843e-08 0.9238796234130859 -0.3826834261417389 5.7783587692483707e-08 0.9238796234130859 -0.3826834261417389 5.7783587692483707e-08 0.9914448857307434 -0.13052622973918915 1.970891361224858e-08 0.9914448857307434 -0.13052622973918915 1.970891361224858e-08 0.9914448857307434 0.13052622973918915 -1.970891361224858e-08 0.9914448857307434 0.13052622973918915 -1.970891361224858e-08 0.9238796234130859 0.3826834261417389 -5.7783587692483707e-08 0.9238796234130859 0.3826834261417389 -5.7783587692483707e-08 0.7933533191680908 0.6087616086006165 -9.192045524741843e-08 0.7933533191680908 0.6087616086006165 -9.192045524741843e-08 0.6087616086006165 0.7933533191680908 -1.197930146190629e-07 0.6087616086006165 0.7933533191680908 -1.197930146190629e-07 0.3826834261417389 0.9238796234130859 -1.3950193533673882e-07 0.3826834261417389 0.9238796234130859 -1.3950193533673882e-07 0.13052622973918915 0.9914448857307434 -1.4970402162362006e-07 0.13052622973918915 0.9914448857307434 -1.4970402162362006e-07 -0.13052622973918915 0.9914448857307434 -1.4970402162362006e-07 -0.13052622973918915 0.9914448857307434 -1.4970402162362006e-07 -0.3826834261417389 0.9238796234130859 -1.3950193533673882e-07 -0.3826834261417389 0.9238796234130859 -1.3950193533673882e-07 -0.6087616086006165 0.7933533191680908 -1.197930146190629e-07 -0.6087616086006165 0.7933533191680908 -1.197930146190629e-07 -0.7933533191680908 0.6087616086006165 -9.192045524741843e-08 -0.7933533191680908 0.6087616086006165 -9.192045524741843e-08 -0.9238796234130859 0.3826834261417389 -5.7783587692483707e-08 -0.9238796234130859 0.3826834261417389 -5.7783587692483707e-08 -0.9914448857307434 0.13052622973918915 -1.970891361224858e-08 -0.9914448857307434 0.13052622973918915 -1.970891361224858e-08 -0.9914448857307434 -0.13052622973918915 1.970891361224858e-08 -0.9914448857307434 -0.13052622973918915 1.970891361224858e-08 -0.9238796234130859 -0.3826834261417389 5.7783587692483707e-08 -0.9238796234130859 -0.3826834261417389 5.7783587692483707e-08 -0.7933533191680908 -0.6087616086006165 9.192045524741843e-08 -0.7933533191680908 -0.6087616086006165 9.192045524741843e-08 -0.6087616086006165 -0.7933533191680908 1.197930146190629e-07 -0.6087616086006165 -0.7933533191680908 1.197930146190629e-07 0.0 -1.5099580252808664e-07 -1.0 0.0 -1.5099580252808664e-07 -1.0 0.0 -1.5099580252808664e-07 -1.0 0.0 -1.5099580252808664e-07 -1.0 0.0 -1.5099580252808664e-07 -1.0 0.0 -1.5099580252808664e-07 -1.0 0.0 -1.5099580252808664e-07 -1.0 0.0 -1.5099580252808664e-07 -1.0 0.0 -1.5099580252808664e-07 -1.0 0.0 -1.5099580252808664e-07 -1.0 0.0 -1.5099580252808664e-07 -1.0 0.0 -1.5099580252808664e-07 -1.0 0.0 -1.5099580252808664e-07 -1.0 0.0 -1.5099580252808664e-07 -1.0 0.0 -1.5099580252808664e-07 -1.0 0.0 -1.5099580252808664e-07 -1.0 0.0 -1.5099580252808664e-07 -1.0 0.0 -1.5099580252808664e-07 -1.0 0.0 -1.5099580252808664e-07 -1.0 0.0 -1.5099580252808664e-07 -1.0 0.0 -1.5099580252808664e-07 -1.0 0.0 -1.5099580252808664e-07 -1.0 -0.3826834261417389 -0.9238796234130859 1.3950193533673882e-07 -0.3826834261417389 -0.9238796234130859 1.3950193533673882e-07 -0.13052622973918915 -0.9914448857307434 1.4970402162362006e-07 -0.13052622973918915 -0.9914448857307434 1.4970402162362006e-07 0.0 1.5099580252808664e-07 1.0 0.0 1.5099580252808664e-07 1.0 0.0 1.5099580252808664e-07 1.0 0.0 1.5099580252808664e-07 1.0 0.0 1.5099580252808664e-07 1.0 0.0 1.5099580252808664e-07 1.0 0.0 1.5099580252808664e-07 1.0 0.0 1.5099580252808664e-07 1.0 0.0 1.5099580252808664e-07 1.0 0.0 1.5099580252808664e-07 1.0 0.0 1.5099580252808664e-07 1.0 0.0 1.5099580252808664e-07 1.0 0.0 1.5099580252808664e-07 1.0 0.0 1.5099580252808664e-07 1.0 0.0 1.5099580252808664e-07 1.0 0.0 1.5099580252808664e-07 1.0 0.0 1.5099580252808664e-07 1.0 0.0 1.5099580252808664e-07 1.0 0.0 1.5099580252808664e-07 1.0 0.0 1.5099580252808664e-07 1.0 0.0 1.5099580252808664e-07 1.0 0.0 1.5099580252808664e-07 1.0</float_array><technique_common><accessor source="#mesh2-normals-array" count="92" stride="3"><param name="X" type="float" /><param name="Y" type="float" /><param name="Z" type="float" /></accessor></technique_common></source><vertices id="mesh2-vertices"><input semantic="POSITION" source="#mesh2-positions" /></vertices><triangles count="92" material="titanium"><input semantic="VERTEX" source="#mesh2-vertices" offset="0" /><input semantic="NORMAL" source="#mesh2-normals" offset="1" /><p>0 0 1 0 3 0 0 1 3 1 2 1 2 2 3 2 5 2 2 3 5 3 4 3 4 4 5 4 7 4 4 5 7 5 6 5 6 6 7 6 9 6 6 7 9 7 8 7 8 8 9 8 11 8 8 9 11 9 10 9 10 10 11 10 13 10 10 11 13 11 12 11 12 12 13 12 15 12 12 13 15 13 14 13 14 14 15 14 17 14 14 15 17 15 16 15 16 16 17 16 19 16 16 17 19 17 18 17 18 18 19 18 21 18 18 19 21 19 20 19 20 20 21 20 23 20 20 21 23 21 22 21 22 22 23 22 25 22 22 23 25 23 24 23 24 24 25 24 27 24 24 25 27 25 26 25 26 26 27 26 29 26 26 27 29 27 28 27 28 28 29 28 31 28 28 29 31 29 30 29 30 30 31 30 33 30 30 31 33 31 32 31 32 32 33 32 35 32 32 33 35 33 34 33 34 34 35 34 37 34 34 35 37 35 36 35 36 36 37 36 39 36 36 37 39 37 38 37 38 38 39 38 41 38 38 39 41 39 40 39 40 40 41 40 43 40 40 41 43 41 42 41 42 42 43 42 45 42 42 43 45 43 44 43 5 44 3 44 1 44 1 45 47 45 45 45 45 46 43 46 41 46 41 47 39 47 37 47 37 48 35 48 33 48 33 49 31 49 29 49 29 50 27 50 25 50 25 51 23 51 21 51 21 52 19 52 17 52 17 53 15 53 13 53 13 54 11 54 9 54 9 55 7 55 5 55 5 56 1 56 45 56 45 57 41 57 37 57 37 58 33 58 29 58 29 59 25 59 21 59 21 60 17 60 13 60 13 61 9 61 5 61 5 62 45 62 37 62 37 63 29 63 21 63 21 64 13 64 5 64 37 65 21 65 5 65 44 66 45 66 47 66 44 67 47 67 46 67 46 68 47 68 1 68 46 69 1 69 0 69 46 70 0 70 2 70 2 71 4 71 6 71 6 72 8 72 10 72 10 73 12 73 14 73 14 74 16 74 18 74 18 75 20 75 22 75 22 76 24 76 26 76 26 77 28 77 30 77 30 78 32 78 34 78 34 79 36 79 38 79 38 80 40 80 42 80 42 81 44 81 46 81 46 82 2 82 6 82 6 83 10 83 14 83 14 84 18 84 22 84 22 85 26 85 30 85 30 86 34 86 38 86 38 87 42 87 46 87 46 88 6 88 14 88 14 89 22 89 30 89 30 90 38 90 46 90 14 91 30 91 46 91</p></triangles></mesh></geometry><geometry id="mesh3"><mesh><source id="mesh3-positions"><float_array id="mesh3-array" count="144">0.0 0.016000017523765564 -0.034999992698431015 0.0 0.015999983996152878 -0.26499998569488525 0.004141104873269796 0.01654520444571972 -0.034999992698431015 0.004141104873269796 0.016545170918107033 -0.26499998569488525 0.00800000037997961 0.018143611028790474 -0.034999992698431015 0.00800000037997961 0.018143577501177788 -0.26499998569488525 0.011313708499073982 0.020686309784650803 -0.034999996423721313 0.011313708499073982 0.020686276257038116 -0.26499998569488525 0.013856407254934311 0.02400001883506775 -0.034999996423721313 0.013856407254934311 0.023999983444809914 -0.26499998569488525 0.015454813838005066 0.02785891480743885 -0.034999996423721313 0.015454813838005066 0.027858879417181015 -0.26499998569488525 0.01600000075995922 0.032000020146369934 -0.034999996423721313 0.01600000075995922 0.03199998289346695 -0.26499998569488525 0.015454813838005066 0.03614112362265587 -0.034999996423721313 0.015454813838005066 0.03614109009504318 -0.26499998569488525 0.013856407254934311 0.04000001773238182 -0.034999996423721313 0.013856407254934311 0.039999984204769135 -0.26499998569488525 0.011313708499073982 0.04331372678279877 -0.034999996423721313 0.011313708499073982 0.04331369325518608 -0.26499998569488525 0.00800000037997961 0.045856427401304245 -0.03500000014901161 0.00800000037997961 0.04585639014840126 -0.26499998569488525 0.004141104873269796 0.047454833984375 -0.03500000014901161 0.004141104873269796 0.047454796731472015 -0.26499998569488525 0.0 0.048000019043684006 -0.03500000014901161 0.0 0.04799998551607132 -0.26499998569488525 -0.004141104873269796 0.047454833984375 -0.03500000014901161 -0.004141104873269796 0.047454796731472015 -0.26499998569488525 -0.00800000037997961 0.045856427401304245 -0.03500000014901161 -0.00800000037997961 0.04585639014840126 -0.26499998569488525 -0.011313708499073982 0.04331372678279877 -0.034999996423721313 -0.011313708499073982 0.04331369325518608 -0.26499998569488525 -0.013856407254934311 0.04000001773238182 -0.034999996423721313 -0.013856407254934311 0.039999984204769135 -0.26499998569488525 -0.015454813838005066 0.03614112362265587 -0.034999996423721313 -0.015454813838005066 0.03614109009504318 -0.26499998569488525 -0.01600000075995922 0.032000020146369934 -0.034999996423721313 -0.01600000075995922 0.03199998289346695 -0.26499998569488525 -0.015454813838005066 0.02785891480743885 -0.034999996423721313 -0.015454813838005066 0.027858879417181015 -0.26499998569488525 -0.013856407254934311 0.02400001883506775 -0.034999996423721313 -0.013856407254934311 0.023999983444809914 -0.26499998569488525 -0.011313708499073982 0.020686309784650803 -0.034999996423721313 -0.011313708499073982 0.020686276257038116 -0.26499998569488525 -0.00800000037997961 0.018143611028790474 -0.034999992698431015 -0.00800000037997961 0.018143577501177788 -0.26499998569488525 -0.004141104873269796 0.01654520444571972 -0.034999992698431015 -0.004141104873269796 0.016545170918107033 -0.26499998569488525</float_array><technique_common><accessor source="#mesh3-array" count="48" stride="3"><param name="X" type="float" /><param name="Y" type="float" /><param name="Z" type="float" /></accessor></technique_common></source><source id="mesh3-normals"><float_array id="mesh3-normals-array" count="276">0.13052622973918915 -0.9914448857307434 1.4970402162362006e-07 0.13052622973918915 -0.9914448857307434 1.4970402162362006e-07 0.3826834261417389 -0.9238796234130859 1.3950193533673882e-07 0.3826834261417389 -0.9238796234130859 1.3950193533673882e-07 0.6087616086006165 -0.7933533191680908 1.197930146190629e-07 0.6087616086006165 -0.7933533191680908 1.197930146190629e-07 0.7933533191680908 -0.6087616086006165 9.192045524741843e-08 0.7933533191680908 -0.6087616086006165 9.192045524741843e-08 0.9238796234130859 -0.3826834261417389 5.7783587692483707e-08 0.9238796234130859 -0.3826834261417389 5.7783587692483707e-08 0.9914448857307434 -0.13052622973918915 1.970891361224858e-08 0.9914448857307434 -0.13052622973918915 1.970891361224858e-08 0.9914448857307434 0.13052622973918915 -1.970891361224858e-08 0.9914448857307434 0.13052622973918915 -1.970891361224858e-08 0.9238796234130859 0.3826834261417389 -5.7783587692483707e-08 0.9238796234130859 0.3826834261417389 -5.7783587692483707e-08 0.7933533191680908 0.6087616086006165 -9.192045524741843e-08 0.7933533191680908 0.6087616086006165 -9.192045524741843e-08 0.6087616086006165 0.7933533191680908 -1.197930146190629e-07 0.6087616086006165 0.7933533191680908 -1.197930146190629e-07 0.3826834261417389 0.9238796234130859 -1.3950193533673882e-07 0.3826834261417389 0.9238796234130859 -1.3950193533673882e-07 0.13052622973918915 0.9914448857307434 -1.4970402162362006e-07 0.13052622973918915 0.9914448857307434 -1.4970402162362006e-07 -0.13052622973918915 0.9914448857307434 -1.4970402162362006e-07 -0.13052622973918915 0.9914448857307434 -1.4970402162362006e-07 -0.3826834261417389 0.9238796234130859 -1.3950193533673882e-07 -0.3826834261417389 0.9238796234130859 -1.3950193533673882e-07 -0.6087616086006165 0.7933533191680908 -1.197930146190629e-07 -0.6087616086006165 0.7933533191680908 -1.197930146190629e-07 -0.7933533191680908 0.6087616086006165 -9.192045524741843e-08 -0.7933533191680908 0.6087616086006165 -9.192045524741843e-08 -0.9238796234130859 0.3826834261417389 -5.7783587692483707e-08 -0.9238796234130859 0.3826834261417389 -5.7783587692483707e-08 -0.9914448857307434 0.13052622973918915 -1.970891361224858e-08 -0.9914448857307434 0.13052622973918915 -1.970891361224858e-08 -0.9914448857307434 -0.13052622973918915 1.970891361224858e-08 -0.9914448857307434 -0.13052622973918915 1.970891361224858e-08 -0.9238796234130859 -0.3826834261417389 5.7783587692483707e-08 -0.9238796234130859 -0.3826834261417389 5.7783587692483707e-08 -0.7933533191680908 -0.6087616086006165 9.192045524741843e-08 -0.7933533191680908 -0.6087616086006165 9.192045524741843e-08 -0.6087616086006165 -0.7933533191680908 1.197930146190629e-07 -0.6087616086006165 -0.7933533191680908 1.197930146190629e-07 0.0 -1.5099580252808664e-07 -1.0 0.0 -1.5099580252808664e-07 -1.0 0.0 -1.5099580252808664e-07 -1.0 0.0 -1.5099580252808664e-07 -1.0 0.0 -1.5099580252808664e-07 -1.0 0.0 -1.5099580252808664e-07 -1.0 0.0 -1.5099580252808664e-07 -1.0 0.0 -1.5099580252808664e-07 -1.0 0.0 -1.5099580252808664e-07 -1.0 0.0 -1.5099580252808664e-07 -1.0 0.0 -1.5099580252808664e-07 -1.0 0.0 -1.5099580252808664e-07 -1.0 0.0 -1.5099580252808664e-07 -1.0 0.0 -1.5099580252808664e-07 -1.0 0.0 -1.5099580252808664e-07 -1.0 0.0 -1.5099580252808664e-07 -1.0 0.0 -1.5099580252808664e-07 -1.0 0.0 -1.5099580252808664e-07 -1.0 0.0 -1.5099580252808664e-07 -1.0 0.0 -1.5099580252808664e-07 -1.0 0.0 -1.5099580252808664e-07 -1.0 0.0 -1.5099580252808664e-07 -1.0 -0.3826834261417389 -0.9238796234130859 1.3950193533673882e-07 -0.3826834261417389 -0.9238796234130859 1.3950193533673882e-07 -0.13052622973918915 -0.9914448857307434 1.4970402162362006e-07 -0.13052622973918915 -0.9914448857307434 1.4970402162362006e-07 0.0 1.5099580252808664e-07 1.0 0.0 1.5099580252808664e-07 1.0 0.0 1.5099580252808664e-07 1.0 0.0 1.5099580252808664e-07 1.0 0.0 1.5099580252808664e-07 1.0 0.0 1.5099580252808664e-07 1.0 0.0 1.5099580252808664e-07 1.0 0.0 1.5099580252808664e-07 1.0 0.0 1.5099580252808664e-07 1.0 0.0 1.5099580252808664e-07 1.0 0.0 1.5099580252808664e-07 1.0 0.0 1.5099580252808664e-07 1.0 0.0 1.5099580252808664e-07 1.0 0.0 1.5099580252808664e-07 1.0 0.0 1.5099580252808664e-07 1.0 0.0 1.5099580252808664e-07 1.0 0.0 1.5099580252808664e-07 1.0 0.0 1.5099580252808664e-07 1.0 0.0 1.5099580252808664e-07 1.0 0.0 1.5099580252808664e-07 1.0 0.0 1.5099580252808664e-07 1.0 0.0 1.5099580252808664e-07 1.0</float_array><technique_common><accessor source="#mesh3-normals-array" count="92" stride="3"><param name="X" type="float" /><param name="Y" type="float" /><param name="Z" type="float" /></accessor></technique_common></source><vertices id="mesh3-vertices"><input semantic="POSITION" source="#mesh3-positions" /></vertices><triangles count="92" material="titanium"><input semantic="VERTEX" source="#mesh3-vertices" offset="0" /><input semantic="NORMAL" source="#mesh3-normals" offset="1" /><p>0 0 1 0 3 0 0 1 3 1 2 1 2 2 3 2 5 2 2 3 5 3 4 3 4 4 5 4 7 4 4 5 7 5 6 5 6 6 7 6 9 6 6 7 9 7 8 7 8 8 9 8 11 8 8 9 11 9 10 9 10 10 11 10 13 10 10 11 13 11 12 11 12 12 13 12 15 12 12 13 15 13 14 13 14 14 15 14 17 14 14 15 17 15 16 15 16 16 17 16 19 16 16 17 19 17 18 17 18 18 19 18 21 18 18 19 21 19 20 19 20 20 21 20 23 20 20 21 23 21 22 21 22 22 23 22 25 22 22 23 25 23 24 23 24 24 25 24 27 24 24 25 27 25 26 25 26 26 27 26 29 26 26 27 29 27 28 27 28 28 29 28 31 28 28 29 31 29 30 29 30 30 31 30 33 30 30 31 33 31 32 31 32 32 33 32 35 32 32 33 35 33 34 33 34 34 35 34 37 34 34 35 37 35 36 35 36 36 37 36 39 36 36 37 39 37 38 37 38 38 39 38 41 38 38 39 41 39 40 39 40 40 41 40 43 40 40 41 43 41 42 41 42 42 43 42 45 42 42 43 45 43 44 43 5 44 3 44 1 44 1 45 47 45 45 45 45 46 43 46 41 46 41 47 39 47 37 47 37 48 35 48 33 48 33 49 31 49 29 49 29 50 27 50 25 50 25 51 23 51 21 51 21 52 19 52 17 52 17 53 15 53 13 53 13 54 11 54 9 54 9 55 7 55 5 55 5 56 1 56 45 56 45 57 41 57 37 57 37 58 33 58 29 58 29 59 25 59 21 59 21 60 17 60 13 60 13 61 9 61 5 61 5 62 45 62 37 62 37 63 29 63 21 63 21 64 13 64 5 64 37 65 21 65 5 65 44 66 45 66 47 66 44 67 47 67 46 67 46 68 47 68 1 68 46 69 1 69 0 69 46 70 0 70 2 70 2 71 4 71 6 71 6 72 8 72 10 72 10 73 12 73 14 73 14 74 16 74 18 74 18 75 20 75 22 75 22 76 24 76 26 76 26 77 28 77 30 77 30 78 32 78 34 78 34 79 36 79 38 79 38 80 40 80 42 80 42 81 44 81 46 81 46 82 2 82 6 82 6 83 10 83 14 83 14 84 18 84 22 84 22 85 26 85 30 85 30 86 34 86 38 86 38 87 42 87 46 87 46 88 6 88 14 88 14 89 22 89 30 89 30 90 38 90 46 90 14 91 30 91 46 91</p></triangles></mesh></geometry></library_geometries><library_visual_scenes><visual_scene id="Scene"><node id="mesh0-node"><instance_geometry url="#mesh0"><bind_material><technique_common><instance_material symbol="titanium" target="#titanium" /></technique_common></bind_material></instance_geometry></node><node id="mesh1-node"><instance_geometry url="#mesh1"><bind_material><technique_common><instance_material symbol="titanium" target="#titanium" /></technique_common></bind_material></instance_geometry></node><node id="mesh2-node"><instance_geometry url="#mesh2"><bind_material><technique_common><instance_material symbol="titanium" target="#titanium" /></technique_common></bind_material></instance_geometry></node><node id="mesh3-node"><instance_geometry url="#mesh3"><bind_material><technique_common><instance_material symbol="titanium" target="#titanium" /></technique_common></bind_material></instance_geometry></node></visual_scene></library_visual_scenes><scene><instance_visual_scene url="#Scene" /></scene></COLLADA>