<?xml version='1.0' encoding='utf-8'?>
<COLLADA xmlns="http://www.collada.org/2005/11/COLLADASchema" version="1.4.1"><asset><unit name="meter" meter="1" /><up_axis>Z_UP</up_axis></asset><library_effects><effect id="graphite-fx"><profile_COMMON><technique sid="common"><phong><emission><color>0 0 0 1</color></emission><ambient><color>0.065 0.075 0.085 1</color></ambient><diffuse><color>0.065 0.075 0.085 1</color></diffuse><specular><color>0.12 0.12 0.12 1</color></specular><shininess><float>25</float></shininess></phong></technique></profile_COMMON></effect><effect id="titanium-fx"><profile_COMMON><technique sid="common"><phong><emission><color>0 0 0 1</color></emission><ambient><color>0.36 0.4 0.43 1</color></ambient><diffuse><color>0.36 0.4 0.43 1</color></diffuse><specular><color>0.12 0.12 0.12 1</color></specular><shininess><float>25</float></shininess></phong></technique></profile_COMMON></effect><effect id="ivory-fx"><profile_COMMON><technique sid="common"><phong><emission><color>0 0 0 1</color></emission><ambient><color>0.72 0.72 0.65 1</color></ambient><diffuse><color>0.72 0.72 0.65 1</color></diffuse><specular><color>0.12 0.12 0.12 1</color></specular><shininess><float>25</float></shininess></phong></technique></profile_COMMON></effect><effect id="copper-fx"><profile_COMMON><technique sid="common"><phong><emission><color>0 0 0 1</color></emission><ambient><color>0.66 0.29 0.08 1</color></ambient><diffuse><color>0.66 0.29 0.08 1</color></diffuse><specular><color>0.12 0.12 0.12 1</color></specular><shininess><float>25</float></shininess></phong></technique></profile_COMMON></effect><effect id="rubber-fx"><profile_COMMON><technique sid="common"><phong><emission><color>0 0 0 1</color></emission><ambient><color>0.025 0.028 0.032 1</color></ambient><diffuse><color>0.025 0.028 0.032 1</color></diffuse><specular><color>0.12 0.12 0.12 1</color></specular><shininess><float>25</float></shininess></phong></technique></profile_COMMON></effect><effect id="lens-fx"><profile_COMMON><technique sid="common"><phong><emission><color>0 0 0 1</color></emission><ambient><color>0.05 0.26 0.33 1</color></ambient><diffuse><color>0.05 0.26 0.33 1</color></diffuse><specular><color>0.12 0.12 0.12 1</color></specular><shininess><float>25</float></shininess></phong></technique></profile_COMMON></effect></library_effects><library_materials><material id="graphite"><instance_effect url="#graphite-fx" /></material><material id="titanium"><instance_effect url="#titanium-fx" /></material><material id="ivory"><instance_effect url="#ivory-fx" /></material><material id="copper"><instance_effect url="#copper-fx" /></material><material id="rubber"><instance_effect url="#rubber-fx" /></material><material id="lens"><instance_effect url="#lens-fx" /></material></library_materials><library_geometries><geometry id="mesh0"><mesh><source id="mesh0-positions"><float_array id="mesh0-array" count="144">-2.3253357017694043e-09 -0.06300000101327896 0.015400002710521221 -2.3253357017694043e-09 -0.04500000178813934 0.015400000847876072 -0.003985816612839699 -0.06300000101327896 0.014875260181725025 -0.003985816612839699 -0.04500000178813934 0.014875257387757301 -0.007700003683567047 -0.06300000101327896 0.013336792588233948 -0.007700003683567047 -0.04500000178813934 0.013336789794266224 -0.010889449156820774 -0.06300000101327896 0.010889445431530476 -0.010889449156820774 -0.04500000178813934 0.010889442637562752 -0.013336794450879097 -0.06300000101327896 0.007699999958276749 -0.013336794450879097 -0.04500000178813934 0.007699997629970312 -0.014875262044370174 -0.06300000101327896 0.0039858128875494 -0.014875262044370174 -0.04500000178813934 0.003985810559242964 -0.015400003641843796 -0.06300000101327896 -1.1161060964326452e-09 -0.015400003641843796 -0.04500000178813934 -3.5345653071061633e-09 -0.014875260181725025 -0.06300000101327896 -0.0039858147501945496 -0.014875260181725025 -0.04500000178813934 -0.003985817078500986 -0.013336792588233948 -0.06300000101327896 -0.007700001820921898 -0.013336792588233948 -0.044999998062849045 -0.007700004149228334 -0.010889445431530476 -0.06300000101327896 -0.010889445431530476 -0.010889445431530476 -0.044999998062849045 -0.0108894482254982 -0.007699999958276749 -0.06300000101327896 -0.013336792588233948 -0.007699999958276749 -0.044999998062849045 -0.013336795382201672 -0.003985811956226826 -0.06300000101327896 -0.014875258319079876 -0.003985811956226826 -0.044999998062849045 -0.0148752611130476 2.3253357017694043e-09 -0.06300000101327896 -0.015400000847876072 2.3253357017694043e-09 -0.044999998062849045 -0.015400002710521221 0.003985816612839699 -0.06300000101327896 -0.014875257387757301 0.003985816612839699 -0.044999998062849045 -0.014875260181725025 0.007700003683567047 -0.06300000101327896 -0.013336789794266224 0.007700003683567047 -0.044999998062849045 -0.013336792588233948 0.010889449156820774 -0.06300000101327896 -0.010889442637562752 0.010889449156820774 -0.044999998062849045 -0.010889445431530476 0.013336794450879097 -0.06300000101327896 -0.007699997629970312 0.013336794450879097 -0.044999998062849045 -0.007699999958276749 0.014875262044370174 -0.06300000101327896 -0.003985810559242964 0.014875262044370174 -0.04500000178813934 -0.0039858128875494 0.015400003641843796 -0.06300000101327896 3.5345653071061633e-09 0.015400003641843796 -0.04500000178813934 1.1161060964326452e-09 0.014875260181725025 -0.06300000101327896 0.003985817078500986 0.014875260181725025 -0.04500000178813934 0.0039858147501945496 0.013336792588233948 -0.06300000101327896 0.007700004149228334 0.013336792588233948 -0.04500000178813934 0.007700001820921898 0.010889445431530476 -0.06300000101327896 0.0108894482254982 0.010889445431530476 -0.04500000178813934 0.010889445431530476 0.007699999958276749 -0.06300000101327896 0.013336795382201672 0.007699999958276749 -0.04500000178813934 0.013336792588233948 0.003985811956226826 -0.06300000101327896 0.0148752611130476 0.003985811956226826 -0.04500000178813934 0.014875258319079876</float_array><technique_common><accessor source="#mesh0-array" count="48" stride="3"><param name="X" type="float" /><param name="Y" type="float" /><param name="Z" type="float" /></accessor></technique_common></source><source id="mesh0-normals"><float_array id="mesh0-normals-array" count="276">-0.1305263787508011 1.3320936886884738e-07 0.9914448261260986 -0.1305263787508011 1.3320936886884738e-07 0.9914448261260986 -0.3826836049556732 1.2413136118993862e-07 0.9238795042037964 -0.3826836049556732 1.2413136118993862e-07 0.9238795042037964 -0.6087614297866821 1.0659402960300213e-07 0.7933533191680908 -0.6087614297866821 1.0659402960300213e-07 0.7933533191680908 -0.7933534979820251 8.179245014616754e-08 0.6087612509727478 -0.7933534979820251 8.179245014616754e-08 0.6087612509727478 -0.9238796234130859 5.141689385368409e-08 0.3826833665370941 -0.9238796234130859 5.141689385368409e-08 0.3826833665370941 -0.9914449453353882 1.7537338692363846e-08 0.1305261254310608 -0.9914449453353882 1.7537338692363846e-08 0.1305261254310608 -0.9914448261260986 -1.7537374219500634e-08 -0.13052640855312347 -0.9914448261260986 -1.7537374219500634e-08 -0.13052640855312347 -0.9238795042037964 -5.1416929380820875e-08 -0.382683664560318 -0.9238795042037964 -5.1416929380820875e-08 -0.382683664560318 -0.7933533191680908 -8.179249277873168e-08 -0.6087615489959717 -0.7933533191680908 -8.179249277873168e-08 -0.6087615489959717 -0.608761191368103 -1.0659405802471156e-07 -0.7933535575866699 -0.608761191368103 -1.0659405802471156e-07 -0.7933535575866699 -0.38268330693244934 -1.2413138961164805e-07 -0.9238796234130859 -0.38268330693244934 -1.2413138961164805e-07 -0.9238796234130859 -0.1305260956287384 -1.332093830797021e-07 -0.9914449453353882 -0.1305260956287384 -1.332093830797021e-07 -0.9914449453353882 0.1305263787508011 -1.3320936886884738e-07 -0.9914448261260986 0.1305263787508011 -1.3320936886884738e-07 -0.9914448261260986 0.3826836049556732 -1.2413136118993862e-07 -0.9238795042037964 0.3826836049556732 -1.2413136118993862e-07 -0.9238795042037964 0.6087614297866821 -1.0659402960300213e-07 -0.7933533191680908 0.6087614297866821 -1.0659402960300213e-07 -0.7933533191680908 0.7933534979820251 -8.179245014616754e-08 -0.6087612509727478 0.7933534979820251 -8.179245014616754e-08 -0.6087612509727478 0.9238796234130859 -5.141689385368409e-08 -0.3826833665370941 0.9238796234130859 -5.141689385368409e-08 -0.3826833665370941 0.9914449453353882 -1.7537338692363846e-08 -0.1305261254310608 0.9914449453353882 -1.7537338692363846e-08 -0.1305261254310608 0.9914448261260986 1.7537374219500634e-08 0.13052640855312347 0.9914448261260986 1.7537374219500634e-08 0.13052640855312347 0.9238795042037964 5.1416929380820875e-08 0.382683664560318 0.9238795042037964 5.1416929380820875e-08 0.382683664560318 0.7933533191680908 8.179249277873168e-08 0.6087615489959717 0.7933533191680908 8.179249277873168e-08 0.6087615489959717 0.608761191368103 1.0659405802471156e-07 0.7933535575866699 0.608761191368103 1.0659405802471156e-07 0.7933535575866699 -2.028761815660307e-14 1.0 1.343588280633412e-07 -2.028761815660307e-14 1.0 1.343588280633412e-07 -2.028761815660307e-14 1.0 1.343588280633412e-07 -2.028761815660307e-14 1.0 1.343588280633412e-07 -2.028761815660307e-14 1.0 1.343588280633412e-07 -2.028761815660307e-14 1.0 1.343588280633412e-07 -2.028761815660307e-14 1.0 1.343588280633412e-07 -2.028761815660307e-14 1.0 1.343588280633412e-07 -2.028761815660307e-14 1.0 1.343588280633412e-07 -2.028761815660307e-14 1.0 1.343588280633412e-07 -2.028761815660307e-14 1.0 1.343588280633412e-07 -2.028761815660307e-14 1.0 1.343588280633412e-07 -2.028761815660307e-14 1.0 1.343588280633412e-07 -2.028761815660307e-14 1.0 1.343588280633412e-07 -2.028761815660307e-14 1.0 1.343588280633412e-07 -2.028761815660307e-14 1.0 1.343588280633412e-07 -2.028761815660307e-14 1.0 1.343588280633412e-07 -2.028761815660307e-14 1.0 1.343588280633412e-07 -2.0287619850668966e-14 1.0 1.343588280633412e-07 -2.0287619850668966e-14 1.0 1.343588280633412e-07 -2.0287619850668966e-14 1.0 1.343588280633412e-07 -2.028761815660307e-14 1.0 1.343588280633412e-07 0.38268330693244934 1.2413138961164805e-07 0.9238796234130859 0.38268330693244934 1.2413138961164805e-07 0.9238796234130859 0.1305260956287384 1.332093830797021e-07 0.9914449453353882 0.1305260956287384 1.332093830797021e-07 0.9914449453353882 2.028761815660307e-14 -1.0 -1.343588280633412e-07 2.028761815660307e-14 -1.0 -1.343588280633412e-07 2.028761815660307e-14 -1.0 -1.343588280633412e-07 2.028761815660307e-14 -1.0 -1.343588280633412e-07 2.028761815660307e-14 -1.0 -1.343588280633412e-07 2.028761815660307e-14 -1.0 -1.343588280633412e-07 2.028761815660307e-14 -1.0 -1.343588280633412e-07 2.028761815660307e-14 -1.0 -1.343588280633412e-07 2.028761815660307e-14 -1.0 -1.343588280633412e-07 2.028761815660307e-14 -1.0 -1.343588280633412e-07 2.028761815660307e-14 -1.0 -1.343588280633412e-07 2.028761815660307e-14 -1.0 -1.343588280633412e-07 2.028761815660307e-14 -1.0 -1.343588280633412e-07 2.028761815660307e-14 -1.0 -1.343588280633412e-07 2.028761815660307e-14 -1.0 -1.343588280633412e-07 2.028761815660307e-14 -1.0 -1.343588280633412e-07 2.028761815660307e-14 -1.0 -1.343588280633412e-07 2.028761815660307e-14 -1.0 -1.343588280633412e-07 2.0287619850668966e-14 -1.0 -1.343588280633412e-07 2.0287619850668966e-14 -1.0 -1.343588280633412e-07 2.0287619850668966e-14 -1.0 -1.343588280633412e-07 2.028761815660307e-14 -1.0 -1.343588280633412e-07</float_array><technique_common><accessor source="#mesh0-normals-array" count="92" stride="3"><param name="X" type="float" /><param name="Y" type="float" /><param name="Z" type="float" /></accessor></technique_common></source><vertices id="mesh0-vertices"><input semantic="POSITION" source="#mesh0-positions" /></vertices><triangles count="92" material="titanium"><input semantic="VERTEX" source="#mesh0-vertices" offset="0" /><input semantic="NORMAL" source="#mesh0-normals" offset="1" /><p>0 0 1 0 3 0 0 1 3 1 2 1 2 2 3 2 5 2 2 3 5 3 4 3 4 4 5 4 7 4 4 5 7 5 6 5 6 6 7 6 9 6 6 7 9 7 8 7 8 8 9 8 11 8 8 9 11 9 10 9 10 10 11 10 13 10 10 11 13 11 12 11 12 12 13 12 15 12 12 13 15 13 14 13 14 14 15 14 17 14 14 15 17 15 16 15 16 16 17 16 19 16 16 17 19 17 18 17 18 18 19 18 21 18 18 19 21 19 20 19 20 20 21 20 23 20 20 21 23 21 22 21 22 22 23 22 25 22 22 23 25 23 24 23 24 24 25 24 27 24 24 25 27 25 26 25 26 26 27 26 29 26 26 27 29 27 28 27 28 28 29 28 31 28 28 29 31 29 30 29 30 30 31 30 33 30 30 31 33 31 32 31 32 32 33 32 35 32 32 33 35 33 34 33 34 34 35 34 37 34 34 35 37 35 36 35 36 36 37 36 39 36 36 37 39 37 38 37 38 38 39 38 41 38 38 39 41 39 40 39 40 40 41 40 43 40 40 41 43 41 42 41 42 42 43 42 45 42 42 43 45 43 44 43 5 44 3 44 1 44 1 45 47 45 45 45 45 46 43 46 41 46 41 47 39 47 37 47 37 48 35 48 33 48 33 49 31 49 29 49 29 50 27 50 25 50 25 51 23 51 21 51 21 52 19 52 17 52 17 53 15 53 13 53 13 54 11 54 9 54 9 55 7 55 5 55 5 56 1 56 45 56 45 57 41 57 37 57 37 58 33 58 29 58 29 59 25 59 21 59 21 60 17 60 13 60 13 61 9 61 5 61 5 62 45 62 37 62 37 63 29 63 21 63 21 64 13 64 5 64 37 65 21 65 5 65 44 66 45 66 47 66 44 67 47 67 46 67 46 68 47 68 1 68 46 69 1 69 0 69 46 70 0 70 2 70 2 71 4 71 6 71 6 72 8 72 10 72 10 73 12 73 14 73 14 74 16 74 18 74 18 75 20 75 22 75 22 76 24 76 26 76 26 77 28 77 30 77 30 78 32 78 34 78 34 79 36 79 38 79 38 80 40 80 42 80 42 81 44 81 46 81 46 82 2 82 6 82 6 83 10 83 14 83 14 84 18 84 22 84 22 85 26 85 30 85 30 86 34 86 38 86 38 87 42 87 46 87 46 88 6 88 14 88 14 89 22 89 30 89 30 90 38 90 46 90 14 91 30 91 46 91</p></triangles></mesh></geometry><geometry id="mesh1"><mesh><source id="mesh1-positions"><float_array id="mesh1-array" count="144">-2.3253357017694043e-09 0.044999998062849045 0.015400002710521221 -2.3253357017694043e-09 0.06300000101327896 0.015400000847876072 -0.003985816612839699 0.044999998062849045 0.014875260181725025 -0.003985816612839699 0.06300000101327896 0.014875257387757301 -0.007700003683567047 0.044999998062849045 0.013336792588233948 -0.007700003683567047 0.06300000101327896 0.013336789794266224 -0.010889449156820774 0.044999998062849045 0.010889445431530476 -0.010889449156820774 0.06300000101327896 0.010889442637562752 -0.013336794450879097 0.044999998062849045 0.007699999958276749 -0.013336794450879097 0.06300000101327896 0.007699997629970312 -0.014875262044370174 0.04500000178813934 0.0039858128875494 -0.014875262044370174 0.06300000101327896 0.003985810559242964 -0.015400003641843796 0.04500000178813934 -1.1161060964326452e-09 -0.015400003641843796 0.06300000101327896 -3.5345653071061633e-09 -0.014875260181725025 0.04500000178813934 -0.0039858147501945496 -0.014875260181725025 0.06300000101327896 -0.003985817078500986 -0.013336792588233948 0.04500000178813934 -0.007700001820921898 -0.013336792588233948 0.06300000101327896 -0.007700004149228334 -0.010889445431530476 0.04500000178813934 -0.010889445431530476 -0.010889445431530476 0.06300000101327896 -0.0108894482254982 -0.007699999958276749 0.04500000178813934 -0.013336792588233948 -0.007699999958276749 0.06300000101327896 -0.013336795382201672 -0.003985811956226826 0.04500000178813934 -0.014875258319079876 -0.003985811956226826 0.06300000101327896 -0.0148752611130476 2.3253357017694043e-09 0.04500000178813934 -0.015400000847876072 2.3253357017694043e-09 0.06300000101327896 -0.015400002710521221 0.003985816612839699 0.04500000178813934 -0.014875257387757301 0.003985816612839699 0.06300000101327896 -0.014875260181725025 0.007700003683567047 0.04500000178813934 -0.013336789794266224 0.007700003683567047 0.06300000101327896 -0.013336792588233948 0.010889449156820774 0.04500000178813934 -0.010889442637562752 0.010889449156820774 0.06300000101327896 -0.010889445431530476 0.013336794450879097 0.04500000178813934 -0.007699997629970312 0.013336794450879097 0.06300000101327896 -0.007699999958276749 0.014875262044370174 0.04500000178813934 -0.003985810559242964 0.014875262044370174 0.06300000101327896 -0.0039858128875494 0.015400003641843796 0.04500000178813934 3.5345653071061633e-09 0.015400003641843796 0.06300000101327896 1.1161060964326452e-09 0.014875260181725025 0.04500000178813934 0.003985817078500986 0.014875260181725025 0.06300000101327896 0.0039858147501945496 0.013336792588233948 0.044999998062849045 0.007700004149228334 0.013336792588233948 0.06300000101327896 0.007700001820921898 0.010889445431530476 0.044999998062849045 0.0108894482254982 0.010889445431530476 0.06300000101327896 0.010889445431530476 0.007699999958276749 0.044999998062849045 0.013336795382201672 0.007699999958276749 0.06300000101327896 0.013336792588233948 0.003985811956226826 0.044999998062849045 0.0148752611130476 0.003985811956226826 0.06300000101327896 0.014875258319079876</float_array><technique_common><accessor source="#mesh1-array" count="48" stride="3"><param name="X" type="float" /><param name="Y" type="float" /><param name="Z" type="float" /></accessor></technique_common></source><source id="mesh1-normals"><float_array id="mesh1-normals-array" count="276">-0.1305263787508011 1.3320936886884738e-07 0.9914448261260986 -0.1305263787508011 1.3320936886884738e-07 0.9914448261260986 -0.3826836049556732 1.2413136118993862e-07 0.9238795042037964 -0.3826836049556732 1.2413136118993862e-07 0.9238795042037964 -0.6087614297866821 1.0659402960300213e-07 0.7933533191680908 -0.6087614297866821 1.0659402960300213e-07 0.7933533191680908 -0.7933534979820251 8.179245014616754e-08 0.6087612509727478 -0.7933534979820251 8.179245014616754e-08 0.6087612509727478 -0.9238796234130859 5.141689385368409e-08 0.3826833665370941 -0.9238796234130859 5.141689385368409e-08 0.3826833665370941 -0.9914449453353882 1.7537338692363846e-08 0.1305261254310608 -0.9914449453353882 1.7537338692363846e-08 0.1305261254310608 -0.9914448261260986 -1.7537374219500634e-08 -0.13052640855312347 -0.9914448261260986 -1.7537374219500634e-08 -0.13052640855312347 -0.9238795042037964 -5.1416929380820875e-08 -0.382683664560318 -0.9238795042037964 -5.1416929380820875e-08 -0.382683664560318 -0.7933533191680908 -8.179249277873168e-08 -0.6087615489959717 -0.7933533191680908 -8.179249277873168e-08 -0.6087615489959717 -0.608761191368103 -1.0659405802471156e-07 -0.7933535575866699 -0.608761191368103 -1.0659405802471156e-07 -0.7933535575866699 -0.38268330693244934 -1.2413138961164805e-07 -0.9238796234130859 -0.38268330693244934 -1.2413138961164805e-07 -0.9238796234130859 -0.1305260956287384 -1.332093830797021e-07 -0.9914449453353882 -0.1305260956287384 -1.332093830797021e-07 -0.9914449453353882 0.1305263787508011 -1.3320936886884738e-07 -0.9914448261260986 0.1305263787508011 -1.3320936886884738e-07 -0.9914448261260986 0.3826836049556732 -1.2413136118993862e-07 -0.9238795042037964 0.3826836049556732 -1.2413136118993862e-07 -0.9238795042037964 0.6087614297866821 -1.0659402960300213e-07 -0.7933533191680908 0.6087614297866821 -1.0659402960300213e-07 -0.7933533191680908 0.7933534979820251 -8.179245014616754e-08 -0.6087612509727478 0.7933534979820251 -8.179245014616754e-08 -0.6087612509727478 0.9238796234130859 -5.141689385368409e-08 -0.3826833665370941 0.9238796234130859 -5.141689385368409e-08 -0.3826833665370941 0.9914449453353882 -1.7537338692363846e-08 -0.1305261254310608 0.9914449453353882 -1.7537338692363846e-08 -0.1305261254310608 0.9914448261260986 1.7537374219500634e-08 0.13052640855312347 0.9914448261260986 1.7537374219500634e-08 0.13052640855312347 0.9238795042037964 5.1416929380820875e-08 0.382683664560318 0.9238795042037964 5.1416929380820875e-08 0.382683664560318 0.7933533191680908 8.179249277873168e-08 0.6087615489959717 0.7933533191680908 8.179249277873168e-08 0.6087615489959717 0.608761191368103 1.0659405802471156e-07 0.7933535575866699 0.608761191368103 1.0659405802471156e-07 0.7933535575866699 -2.028761815660307e-14 1.0 1.343588280633412e-07 -2.028761815660307e-14 1.0 1.343588280633412e-07 -2.028761815660307e-14 1.0 1.343588280633412e-07 -2.028761815660307e-14 1.0 1.343588280633412e-07 -2.028761815660307e-14 1.0 1.343588280633412e-07 -2.028761815660307e-14 1.0 1.343588280633412e-07 -2.028761815660307e-14 1.0 1.343588280633412e-07 -2.028761815660307e-14 1.0 1.343588280633412e-07 -2.028761815660307e-14 1.0 1.343588280633412e-07 -2.028761815660307e-14 1.0 1.343588280633412e-07 -2.028761815660307e-14 1.0 1.343588280633412e-07 -2.028761815660307e-14 1.0 1.343588280633412e-07 -2.028761815660307e-14 1.0 1.343588280633412e-07 -2.028761815660307e-14 1.0 1.343588280633412e-07 -2.028761815660307e-14 1.0 1.343588280633412e-07 -2.028761815660307e-14 1.0 1.343588280633412e-07 -2.028761815660307e-14 1.0 1.343588280633412e-07 -2.028761815660307e-14 1.0 1.343588280633412e-07 -2.0287619850668966e-14 1.0 1.343588280633412e-07 -2.0287619850668966e-14 1.0 1.343588280633412e-07 -2.0287619850668966e-14 1.0 1.343588280633412e-07 -2.028761815660307e-14 1.0 1.343588280633412e-07 0.38268330693244934 1.2413138961164805e-07 0.9238796234130859 0.38268330693244934 1.2413138961164805e-07 0.9238796234130859 0.1305260956287384 1.332093830797021e-07 0.9914449453353882 0.1305260956287384 1.332093830797021e-07 0.9914449453353882 2.028761815660307e-14 -1.0 -1.343588280633412e-07 2.028761815660307e-14 -1.0 -1.343588280633412e-07 2.028761815660307e-14 -1.0 -1.343588280633412e-07 2.028761815660307e-14 -1.0 -1.343588280633412e-07 2.028761815660307e-14 -1.0 -1.343588280633412e-07 2.028761815660307e-14 -1.0 -1.343588280633412e-07 2.028761815660307e-14 -1.0 -1.343588280633412e-07 2.028761815660307e-14 -1.0 -1.343588280633412e-07 2.028761815660307e-14 -1.0 -1.343588280633412e-07 2.028761815660307e-14 -1.0 -1.343588280633412e-07 2.028761815660307e-14 -1.0 -1.343588280633412e-07 2.028761815660307e-14 -1.0 -1.343588280633412e-07 2.028761815660307e-14 -1.0 -1.343588280633412e-07 2.028761815660307e-14 -1.0 -1.343588280633412e-07 2.028761815660307e-14 -1.0 -1.343588280633412e-07 2.028761815660307e-14 -1.0 -1.343588280633412e-07 2.028761815660307e-14 -1.0 -1.343588280633412e-07 2.028761815660307e-14 -1.0 -1.343588280633412e-07 2.0287619850668966e-14 -1.0 -1.343588280633412e-07 2.0287619850668966e-14 -1.0 -1.343588280633412e-07 2.0287619850668966e-14 -1.0 -1.343588280633412e-07 2.028761815660307e-14 -1.0 -1.343588280633412e-07</float_array><technique_common><accessor source="#mesh1-normals-array" count="92" stride="3"><param name="X" type="float" /><param name="Y" type="float" /><param name="Z" type="float" /></accessor></technique_common></source><vertices id="mesh1-vertices"><input semantic="POSITION" source="#mesh1-positions" /></vertices><triangles count="92" material="titanium"><input semantic="VERTEX" source="#mesh1-vertices" offset="0" /><input semantic="NORMAL" source="#mesh1-normals" offset="1" /><p>0 0 1 0 3 0 0 1 3 1 2 1 2 2 3 2 5 2 2 3 5 3 4 3 4 4 5 4 7 4 4 5 7 5 6 5 6 6 7 6 9 6 6 7 9 7 8 7 8 8 9 8 11 8 8 9 11 9 10 9 10 10 11 10 13 10 10 11 13 11 12 11 12 12 13 12 15 12 12 13 15 13 14 13 14 14 15 14 17 14 14 15 17 15 16 15 16 16 17 16 19 16 16 17 19 17 18 17 18 18 19 18 21 18 18 19 21 19 20 19 20 20 21 20 23 20 20 21 23 21 22 21 22 22 23 22 25 22 22 23 25 23 24 23 24 24 25 24 27 24 24 25 27 25 26 25 26 26 27 26 29 26 26 27 29 27 28 27 28 28 29 28 31 28 28 29 31 29 30 29 30 30 31 30 33 30 30 31 33 31 32 31 32 32 33 32 35 32 32 33 35 33 34 33 34 34 35 34 37 34 34 35 37 35 36 35 36 36 37 36 39 36 36 37 39 37 38 37 38 38 39 38 41 38 38 39 41 39 40 39 40 40 41 40 43 40 40 41 43 41 42 41 42 42 43 42 45 42 42 43 45 43 44 43 5 44 3 44 1 44 1 45 47 45 45 45 45 46 43 46 41 46 41 47 39 47 37 47 37 48 35 48 33 48 33 49 31 49 29 49 29 50 27 50 25 50 25 51 23 51 21 51 21 52 19 52 17 52 17 53 15 53 13 53 13 54 11 54 9 54 9 55 7 55 5 55 5 56 1 56 45 56 45 57 41 57 37 57 37 58 33 58 29 58 29 59 25 59 21 59 21 60 17 60 13 60 13 61 9 61 5 61 5 62 45 62 37 62 37 63 29 63 21 63 21 64 13 64 5 64 37 65 21 65 5 65 44 66 45 66 47 66 44 67 47 67 46 67 46 68 47 68 1 68 46 69 1 69 0 69 46 70 0 70 2 70 2 71 4 71 6 71 6 72 8 72 10 72 10 73 12 73 14 73 14 74 16 74 18 74 18 75 20 75 22 75 22 76 24 76 26 76 26 77 28 77 30 77 30 78 32 78 34 78 34 79 36 79 38 79 38 80 40 80 42 80 42 81 44 81 46 81 46 82 2 82 6 82 6 83 10 83 14 83 14 84 18 84 22 84 22 85 26 85 30 85 30 86 34 86 38 86 38 87 42 87 46 87 46 88 6 88 14 88 14 89 22 89 30 89 30 90 38 90 46 90 14 91 30 91 46 91</p></triangles></mesh></geometry><geometry id="mesh2"><mesh><source id="mesh2-positions"><float_array id="mesh2-array" count="144">0.00662694638594985 -0.04000000283122063 -0.01311079878360033 0.10162694752216339 -0.03999999538064003 -0.026110805571079254 0.006571509409695864 -0.03689417615532875 -0.013515913859009743 0.10157150775194168 -0.036894168704748154 -0.026515919715166092 0.00640897685661912 -0.03400000184774399 -0.01470364909619093 0.10140897333621979 -0.03399999812245369 -0.027703654021024704 0.00615042494609952 -0.031514722853899 -0.01659306511282921 0.10115042328834534 -0.031514715403318405 -0.029593070968985558 0.0058134738355875015 -0.029607698321342468 -0.019055398181080818 0.10081347078084946 -0.02960769273340702 -0.03205540403723717 0.005421086214482784 -0.028408892452716827 -0.021922845393419266 0.10042108595371246 -0.02840888686478138 -0.034922853112220764 0.00500000175088644 -0.0280000027269125 -0.02499999664723873 0.10000000149011612 -0.0279999952763319 -0.03800000250339508 0.004578918218612671 -0.028408892452716827 -0.028077147901058197 0.09957891702651978 -0.02840888686478138 -0.0410771518945694 0.004186530131846666 -0.02960769645869732 -0.030944596976041794 0.09918653219938278 -0.02960769087076187 -0.043944600969552994 0.0038495794869959354 -0.031514719128608704 -0.033406928181648254 0.0988495796918869 -0.031514715403318405 -0.04640693590044975 0.003591027809306979 -0.03400000184774399 -0.03529634699225426 0.09859102964401245 -0.03399999439716339 -0.04829635098576546 0.0034284957218915224 -0.03689417243003845 -0.03648408129811287 0.09842849522829056 -0.036894164979457855 -0.04948408529162407 0.0033730589784681797 -0.04000000283122063 -0.03688919544219971 0.09837305545806885 -0.03999999538064003 -0.049889203161001205 0.0034284961875528097 -0.0431058295071125 -0.03648408129811287 0.09842849522829056 -0.043105822056531906 -0.04948408901691437 0.003591028740629554 -0.04600000008940697 -0.03529634699225426 0.09859102964401245 -0.04599999636411667 -0.04829635098576546 0.00384958041831851 -0.04848528280854225 -0.03340693190693855 0.0988495796918869 -0.048485275357961655 -0.04640693590044975 0.004186531528830528 -0.050392307341098785 -0.030944596976041794 0.09918653219938278 -0.05039229989051819 -0.04394460469484329 0.0045789191499352455 -0.051591113209724426 -0.028077149763703346 0.09957891702651978 -0.05159110575914383 -0.041077155619859695 0.0050000036135315895 -0.052000001072883606 -0.02499999850988388 0.10000000149011612 -0.05199999734759331 -0.03800000250339508 0.005421087145805359 -0.051591113209724426 -0.021922847256064415 0.10042108595371246 -0.05159110575914383 -0.034922853112220764 0.0058134752325713634 -0.050392307341098785 -0.019055398181080818 0.10081347078084946 -0.05039229989051819 -0.03205540403723717 0.006150425877422094 -0.04848528280854225 -0.01659306511282921 0.10115042328834534 -0.04848527908325195 -0.029593070968985558 0.006408977322280407 -0.046000003814697266 -0.01470364909619093 0.10140897333621979 -0.04599999636411667 -0.027703655883669853 0.006571509409695864 -0.0431058332324028 -0.013515913859009743 0.10157150775194168 -0.043105825781822205 -0.026515919715166092</float_array><technique_common><accessor source="#mesh2-array" count="48" stride="3"><param name="X" type="float" /><param name="Y" type="float" /><param name="Z" type="float" /></accessor></technique_common></source><source id="mesh2-normals"><float_array id="mesh2-normals-array" count="276">0.13441875576972961 0.1305263191461563 0.9822904467582703 0.13441875576972961 0.1305263191461563 0.9822904467582703 0.12525832653045654 0.3826833665370941 0.9153490662574768 0.12525832653045654 0.3826833665370941 0.9153490662574768 0.10756172239780426 0.6087614297866821 0.7860279083251953 0.10756172239780426 0.6087614297866821 0.7860279083251953 0.082535021007061 0.793353259563446 0.603140652179718 0.082535021007061 0.793353259563446 0.603140652179718 0.051883649080991745 0.9238796234130859 0.37915000319480896 0.051883649080991745 0.9238796234130859 0.37915000319480896 0.01769653521478176 0.9914448857307434 0.12932124733924866 0.01769653521478176 0.9914448857307434 0.12932124733924866 -0.017696643248200417 0.9914448857307434 -0.12932109832763672 -0.017696643248200417 0.9914448857307434 -0.12932109832763672 -0.0518837533891201 0.9238796234130859 -0.3791498839855194 -0.0518837533891201 0.9238796234130859 -0.3791498839855194 -0.08253510296344757 0.793353259563446 -0.6031404733657837 -0.08253510296344757 0.793353259563446 -0.6031404733657837 -0.10756179690361023 0.6087616086006165 -0.7860279083251953 -0.10756179690361023 0.6087616086006165 -0.7860279083251953 -0.12525834143161774 0.3826834261417389 -0.9153489470481873 -0.12525834143161774 0.3826834261417389 -0.9153489470481873 -0.13441875576972961 0.13052643835544586 -0.9822904467582703 -0.13441875576972961 0.13052643835544586 -0.9822904467582703 -0.13441875576972961 -0.1305263191461563 -0.9822904467582703 -0.13441875576972961 -0.1305263191461563 -0.9822904467582703 -0.12525832653045654 -0.3826833665370941 -0.9153490662574768 -0.12525832653045654 -0.3826833665370941 -0.9153490662574768 -0.10756172239780426 -0.6087614297866821 -0.7860279083251953 -0.10756172239780426 -0.6087614297866821 -0.7860279083251953 -0.082535021007061 -0.793353259563446 -0.603140652179718 -0.082535021007061 -0.793353259563446 -0.603140652179718 -0.051883649080991745 -0.9238796234130859 -0.37915000319480896 -0.051883649080991745 -0.9238796234130859 -0.37915000319480896 -0.01769653521478176 -0.9914448857307434 -0.12932124733924866 -0.01769653521478176 -0.9914448857307434 -0.12932124733924866 0.017696643248200417 -0.9914448857307434 0.12932109832763672 0.017696643248200417 -0.9914448857307434 0.12932109832763672 0.0518837533891201 -0.9238796234130859 0.3791498839855194 0.0518837533891201 -0.9238796234130859 0.3791498839855194 0.08253510296344757 -0.793353259563446 0.6031404733657837 0.08253510296344757 -0.793353259563446 0.6031404733657837 0.10756179690361023 -0.6087616086006165 0.7860279083251953 0.10756179690361023 -0.6087616086006165 0.7860279083251953 0.9907665848731995 6.786209638676155e-08 -0.13557863235473633 0.9907665848731995 6.786209638676155e-08 -0.13557863235473633 0.9907665848731995 6.786209638676155e-08 -0.13557863235473633 0.9907665848731995 6.786209638676155e-08 -0.13557863235473633 0.9907665848731995 6.786209638676155e-08 -0.13557863235473633 0.9907665848731995 6.786209638676155e-08 -0.13557863235473633 0.9907665848731995 6.786209638676155e-08 -0.13557863235473633 0.9907665848731995 6.786209638676155e-08 -0.13557863235473633 0.9907665848731995 6.786209638676155e-08 -0.13557863235473633 0.9907665848731995 6.786209638676155e-08 -0.13557863235473633 0.9907665848731995 6.786209638676155e-08 -0.13557863235473633 0.9907665848731995 6.786209638676155e-08 -0.13557863235473633 0.9907665848731995 6.786209638676155e-08 -0.13557863235473633 0.9907665848731995 6.786209638676155e-08 -0.13557863235473633 0.9907665848731995 6.786209638676155e-08 -0.13557863235473633 0.9907665848731995 6.786209638676155e-08 -0.13557863235473633 0.9907665848731995 6.786209638676155e-08 -0.13557863235473633 0.9907665848731995 6.786209638676155e-08 -0.13557863235473633 0.9907665848731995 6.786209638676155e-08 -0.13557863235473633 0.9907665848731995 6.786209638676155e-08 -0.13557863235473633 0.9907665848731995 6.786209638676155e-08 -0.13557863235473633 0.9907665848731995 6.786209638676155e-08 -0.13557863235473633 0.12525834143161774 -0.3826834261417389 0.9153489470481873 0.12525834143161774 -0.3826834261417389 0.9153489470481873 0.13441875576972961 -0.13052643835544586 0.9822904467582703 0.13441875576972961 -0.13052643835544586 0.9822904467582703 -0.9907665848731995 -6.786209638676155e-08 0.13557863235473633 -0.9907665848731995 -6.786209638676155e-08 0.13557863235473633 -0.9907665848731995 -6.786209638676155e-08 0.13557863235473633 -0.9907665848731995 -6.786209638676155e-08 0.13557863235473633 -0.9907665848731995 -6.786209638676155e-08 0.13557863235473633 -0.9907665848731995 -6.786209638676155e-08 0.13557863235473633 -0.9907665848731995 -6.786209638676155e-08 0.13557863235473633 -0.9907665848731995 -6.786209638676155e-08 0.13557863235473633 -0.9907665848731995 -6.786209638676155e-08 0.13557863235473633 -0.9907665848731995 -6.786209638676155e-08 0.13557863235473633 -0.9907665848731995 -6.786209638676155e-08 0.13557863235473633 -0.9907665848731995 -6.786209638676155e-08 0.13557863235473633 -0.9907665848731995 -6.786209638676155e-08 0.13557863235473633 -0.9907665848731995 -6.786209638676155e-08 0.13557863235473633 -0.9907665848731995 -6.786209638676155e-08 0.13557863235473633 -0.9907665848731995 -6.786209638676155e-08 0.13557863235473633 -0.9907665848731995 -6.786209638676155e-08 0.13557863235473633 -0.9907665848731995 -6.786209638676155e-08 0.13557863235473633 -0.9907665848731995 -6.786209638676155e-08 0.13557863235473633 -0.9907665848731995 -6.786209638676155e-08 0.13557863235473633 -0.9907665848731995 -6.786209638676155e-08 0.13557863235473633 -0.9907665848731995 -6.786209638676155e-08 0.13557863235473633</float_array><technique_common><accessor source="#mesh2-normals-array" count="92" stride="3"><param name="X" type="float" /><param name="Y" type="float" /><param name="Z" type="float" /></accessor></technique_common></source><vertices id="mesh2-vertices"><input semantic="POSITION" source="#mesh2-positions" /></vertices><triangles count="92" material="titanium"><input semantic="VERTEX" source="#mesh2-vertices" offset="0" /><input semantic="NORMAL" source="#mesh2-normals" offset="1" /><p>0 0 1 0 3 0 0 1 3 1 2 1 2 2 3 2 5 2 2 3 5 3 4 3 4 4 5 4 7 4 4 5 7 5 6 5 6 6 7 6 9 6 6 7 9 7 8 7 8 8 9 8 11 8 8 9 11 9 10 9 10 10 11 10 13 10 10 11 13 11 12 11 12 12 13 12 15 12 12 13 15 13 14 13 14 14 15 14 17 14 14 15 17 15 16 15 16 16 17 16 19 16 16 17 19 17 18 17 18 18 19 18 21 18 18 19 21 19 20 19 20 20 21 20 23 20 20 21 23 21 22 21 22 22 23 22 25 22 22 23 25 23 24 23 24 24 25 24 27 24 24 25 27 25 26 25 26 26 27 26 29 26 26 27 29 27 28 27 28 28 29 28 31 28 28 29 31 29 30 29 30 30 31 30 33 30 30 31 33 31 32 31 32 32 33 32 35 32 32 33 35 33 34 33 34 34 35 34 37 34 34 35 37 35 36 35 36 36 37 36 39 36 36 37 39 37 38 37 38 38 39 38 41 38 38 39 41 39 40 39 40 40 41 40 43 40 40 41 43 41 42 41 42 42 43 42 45 42 42 43 45 43 44 43 5 44 3 44 1 44 1 45 47 45 45 45 45 46 43 46 41 46 41 47 39 47 37 47 37 48 35 48 33 48 33 49 31 49 29 49 29 50 27 50 25 50 25 51 23 51 21 51 21 52 19 52 17 52 17 53 15 53 13 53 13 54 11 54 9 54 9 55 7 55 5 55 5 56 1 56 45 56 45 57 41 57 37 57 37 58 33 58 29 58 29 59 25 59 21 59 21 60 17 60 13 60 13 61 9 61 5 61 5 62 45 62 37 62 37 63 29 63 21 63 21 64 13 64 5 64 37 65 21 65 5 65 44 66 45 66 47 66 44 67 47 67 46 67 46 68 47 68 1 68 46 69 1 69 0 69 46 70 0 70 2 70 2 71 4 71 6 71 6 72 8 72 10 72 10 73 12 73 14 73 14 74 16 74 18 74 18 75 20 75 22 75 22 76 24 76 26 76 26 77 28 77 30 77 30 78 32 78 34 78 34 79 36 79 38 79 38 80 40 80 42 80 42 81 44 81 46 81 46 82 2 82 6 82 6 83 10 83 14 83 14 84 18 84 22 84 22 85 26 85 30 85 30 86 34 86 38 86 38 87 42 87 46 87 46 88 6 88 14 88 14 89 22 89 30 89 30 90 38 90 46 90 14 91 30 91 46 91</p></triangles></mesh></geometry><geometry id="mesh3"><mesh><source id="mesh3-positions"><float_array id="mesh3-array" count="144">0.00662694638594985 -3.76279940539348e-09 -0.01311079878360033 0.10162694752216339 2.3275330551797424e-09 -0.026110805571079254 0.006571509409695864 0.003105824813246727 -0.013515913859009743 0.10157150775194168 0.003105830866843462 -0.026515919715166092 0.00640897685661912 0.005999996326863766 -0.01470364909619093 0.10140897333621979 0.006000002380460501 -0.027703654021024704 0.00615042494609952 0.008485277183353901 -0.01659306511282921 0.10115042328834534 0.008485283702611923 -0.029593070968985558 0.0058134738355875015 0.01039230078458786 -0.019055398181080818 0.10081347078084946 0.010392307303845882 -0.03205540403723717 0.005421086214482784 0.011591106653213501 -0.021922845393419266 0.10042108595371246 0.011591112241148949 -0.034922853112220764 0.00500000175088644 0.011999997310340405 -0.02499999664723873 0.10000000149011612 0.012000002898275852 -0.03800000250339508 0.004578918218612671 0.011591106653213501 -0.028077147901058197 0.09957891702651978 0.011591112241148949 -0.0410771518945694 0.004186530131846666 0.010392301715910435 -0.030944596976041794 0.09918653219938278 0.010392308235168457 -0.043944600969552994 0.0038495794869959354 0.008485278114676476 -0.033406928181648254 0.0988495796918869 0.008485284633934498 -0.04640693590044975 0.003591027809306979 0.005999997723847628 -0.03529634699225426 0.09859102964401245 0.006000003777444363 -0.04829635098576546 0.0034284957218915224 0.003105826210230589 -0.03648408129811287 0.09842849522829056 0.003105832263827324 -0.04948408529162407 0.0033730589784681797 -2.3275330551797424e-09 -0.03688919544219971 0.09837305545806885 3.76279940539348e-09 -0.049889203161001205 0.0034284961875528097 -0.003105830866843462 -0.03648408129811287 0.09842849522829056 -0.003105824813246727 -0.04948408901691437 0.003591028740629554 -0.006000002380460501 -0.03529634699225426 0.09859102964401245 -0.005999996326863766 -0.04829635098576546 0.00384958041831851 -0.008485283702611923 -0.03340693190693855 0.0988495796918869 -0.008485277183353901 -0.04640693590044975 0.004186531528830528 -0.010392307303845882 -0.030944596976041794 0.09918653219938278 -0.01039230078458786 -0.04394460469484329 0.0045789191499352455 -0.011591112241148949 -0.028077149763703346 0.09957891702651978 -0.011591106653213501 -0.041077155619859695 0.0050000036135315895 -0.012000002898275852 -0.02499999850988388 0.10000000149011612 -0.011999997310340405 -0.03800000250339508 0.005421087145805359 -0.011591112241148949 -0.021922847256064415 0.10042108595371246 -0.011591106653213501 -0.034922853112220764 0.0058134752325713634 -0.010392308235168457 -0.019055398181080818 0.10081347078084946 -0.010392301715910435 -0.03205540403723717 0.006150425877422094 -0.008485284633934498 -0.01659306511282921 0.10115042328834534 -0.008485278114676476 -0.029593070968985558 0.006408977322280407 -0.006000003777444363 -0.01470364909619093 0.10140897333621979 -0.005999997723847628 -0.027703655883669853 0.006571509409695864 -0.003105832263827324 -0.013515913859009743 0.10157150775194168 -0.003105826210230589 -0.026515919715166092</float_array><technique_common><accessor source="#mesh3-array" count="48" stride="3"><param name="X" type="float" /><param name="Y" type="float" /><param name="Z" type="float" /></accessor></technique_common></source><source id="mesh3-normals"><float_array id="mesh3-normals-array" count="276">0.13441875576972961 0.1305263191461563 0.9822904467582703 0.13441875576972961 0.1305263191461563 0.9822904467582703 0.12525832653045654 0.3826833665370941 0.9153490662574768 0.12525832653045654 0.3826833665370941 0.9153490662574768 0.10756172239780426 0.6087614297866821 0.7860279083251953 0.10756172239780426 0.6087614297866821 0.7860279083251953 0.082535021007061 0.793353259563446 0.603140652179718 0.082535021007061 0.793353259563446 0.603140652179718 0.051883649080991745 0.9238796234130859 0.37915000319480896 0.051883649080991745 0.9238796234130859 0.37915000319480896 0.01769653521478176 0.9914448857307434 0.12932124733924866 0.01769653521478176 0.9914448857307434 0.12932124733924866 -0.017696643248200417 0.9914448857307434 -0.12932109832763672 -0.017696643248200417 0.9914448857307434 -0.12932109832763672 -0.0518837533891201 0.9238796234130859 -0.3791498839855194 -0.0518837533891201 0.9238796234130859 -0.3791498839855194 -0.08253510296344757 0.793353259563446 -0.6031404733657837 -0.08253510296344757 0.793353259563446 -0.6031404733657837 -0.10756179690361023 0.6087616086006165 -0.7860279083251953 -0.10756179690361023 0.6087616086006165 -0.7860279083251953 -0.12525834143161774 0.3826834261417389 -0.9153489470481873 -0.12525834143161774 0.3826834261417389 -0.9153489470481873 -0.13441875576972961 0.13052643835544586 -0.9822904467582703 -0.13441875576972961 0.13052643835544586 -0.9822904467582703 -0.13441875576972961 -0.1305263191461563 -0.9822904467582703 -0.13441875576972961 -0.1305263191461563 -0.9822904467582703 -0.12525832653045654 -0.3826833665370941 -0.9153490662574768 -0.12525832653045654 -0.3826833665370941 -0.9153490662574768 -0.10756172239780426 -0.6087614297866821 -0.7860279083251953 -0.10756172239780426 -0.6087614297866821 -0.7860279083251953 -0.082535021007061 -0.793353259563446 -0.603140652179718 -0.082535021007061 -0.793353259563446 -0.603140652179718 -0.051883649080991745 -0.9238796234130859 -0.37915000319480896 -0.051883649080991745 -0.9238796234130859 -0.37915000319480896 -0.01769653521478176 -0.9914448857307434 -0.12932124733924866 -0.01769653521478176 -0.9914448857307434 -0.12932124733924866 0.017696643248200417 -0.9914448857307434 0.12932109832763672 0.017696643248200417 -0.9914448857307434 0.12932109832763672 0.0518837533891201 -0.9238796234130859 0.3791498839855194 0.0518837533891201 -0.9238796234130859 0.3791498839855194 0.08253510296344757 -0.793353259563446 0.6031404733657837 0.08253510296344757 -0.793353259563446 0.6031404733657837 0.10756179690361023 -0.6087616086006165 0.7860279083251953 0.10756179690361023 -0.6087616086006165 0.7860279083251953 0.9907665848731995 6.786209638676155e-08 -0.13557863235473633 0.9907665848731995 6.786209638676155e-08 -0.13557863235473633 0.9907665848731995 6.786209638676155e-08 -0.13557863235473633 0.9907665848731995 6.786209638676155e-08 -0.13557863235473633 0.9907665848731995 6.786209638676155e-08 -0.13557863235473633 0.9907665848731995 6.786209638676155e-08 -0.13557863235473633 0.9907665848731995 6.786209638676155e-08 -0.13557863235473633 0.9907665848731995 6.786209638676155e-08 -0.13557863235473633 0.9907665848731995 6.786209638676155e-08 -0.13557863235473633 0.9907665848731995 6.786209638676155e-08 -0.13557863235473633 0.9907665848731995 6.786209638676155e-08 -0.13557863235473633 0.9907665848731995 6.786209638676155e-08 -0.13557863235473633 0.9907665848731995 6.786209638676155e-08 -0.13557863235473633 0.9907665848731995 6.786209638676155e-08 -0.13557863235473633 0.9907665848731995 6.786209638676155e-08 -0.13557863235473633 0.9907665848731995 6.786209638676155e-08 -0.13557863235473633 0.9907665848731995 6.786209638676155e-08 -0.13557863235473633 0.9907665848731995 6.786209638676155e-08 -0.13557863235473633 0.9907665848731995 6.786209638676155e-08 -0.13557863235473633 0.9907665848731995 6.786209638676155e-08 -0.13557863235473633 0.9907665848731995 6.786209638676155e-08 -0.13557863235473633 0.9907665848731995 6.786209638676155e-08 -0.13557863235473633 0.12525834143161774 -0.3826834261417389 0.9153489470481873 0.12525834143161774 -0.3826834261417389 0.9153489470481873 0.13441875576972961 -0.13052643835544586 0.9822904467582703 0.13441875576972961 -0.13052643835544586 0.9822904467582703 -0.9907665848731995 -6.786209638676155e-08 0.13557863235473633 -0.9907665848731995 -6.786209638676155e-08 0.13557863235473633 -0.9907665848731995 -6.786209638676155e-08 0.13557863235473633 -0.9907665848731995 -6.786209638676155e-08 0.13557863235473633 -0.9907665848731995 -6.786209638676155e-08 0.13557863235473633 -0.9907665848731995 -6.786209638676155e-08 0.13557863235473633 -0.9907665848731995 -6.786209638676155e-08 0.13557863235473633 -0.9907665848731995 -6.786209638676155e-08 0.13557863235473633 -0.9907665848731995 -6.786209638676155e-08 0.13557863235473633 -0.9907665848731995 -6.786209638676155e-08 0.13557863235473633 -0.9907665848731995 -6.786209638676155e-08 0.13557863235473633 -0.9907665848731995 -6.786209638676155e-08 0.13557863235473633 -0.9907665848731995 -6.786209638676155e-08 0.13557863235473633 -0.9907665848731995 -6.786209638676155e-08 0.13557863235473633 -0.9907665848731995 -6.786209638676155e-08 0.13557863235473633 -0.9907665848731995 -6.786209638676155e-08 0.13557863235473633 -0.9907665848731995 -6.786209638676155e-08 0.13557863235473633 -0.9907665848731995 -6.786209638676155e-08 0.13557863235473633 -0.9907665848731995 -6.786209638676155e-08 0.13557863235473633 -0.9907665848731995 -6.786209638676155e-08 0.13557863235473633 -0.9907665848731995 -6.786209638676155e-08 0.13557863235473633 -0.9907665848731995 -6.786209638676155e-08 0.13557863235473633</float_array><technique_common><accessor source="#mesh3-normals-array" count="92" stride="3"><param name="X" type="float" /><param name="Y" type="float" /><param name="Z" type="float" /></accessor></technique_common></source><vertices id="mesh3-vertices"><input semantic="POSITION" source="#mesh3-positions" /></vertices><triangles count="92" material="titanium"><input semantic="VERTEX" source="#mesh3-vertices" offset="0" /><input semantic="NORMAL" source="#mesh3-normals" offset="1" /><p>0 0 1 0 3 0 0 1 3 1 2 1 2 2 3 2 5 2 2 3 5 3 4 3 4 4 5 4 7 4 4 5 7 5 6 5 6 6 7 6 9 6 6 7 9 7 8 7 8 8 9 8 11 8 8 9 11 9 10 9 10 10 11 10 13 10 10 11 13 11 12 11 12 12 13 12 15 12 12 13 15 13 14 13 14 14 15 14 17 14 14 15 17 15 16 15 16 16 17 16 19 16 16 17 19 17 18 17 18 18 19 18 21 18 18 19 21 19 20 19 20 20 21 20 23 20 20 21 23 21 22 21 22 22 23 22 25 22 22 23 25 23 24 23 24 24 25 24 27 24 24 25 27 25 26 25 26 26 27 26 29 26 26 27 29 27 28 27 28 28 29 28 31 28 28 29 31 29 30 29 30 30 31 30 33 30 30 31 33 31 32 31 32 32 33 32 35 32 32 33 35 33 34 33 34 34 35 34 37 34 34 35 37 35 36 35 36 36 37 36 39 36 36 37 39 37 38 37 38 38 39 38 41 38 38 39 41 39 40 39 40 40 41 40 43 40 40 41 43 41 42 41 42 42 43 42 45 42 42 43 45 43 44 43 5 44 3 44 1 44 1 45 47 45 45 45 45 46 43 46 41 46 41 47 39 47 37 47 37 48 35 48 33 48 33 49 31 49 29 49 29 50 27 50 25 50 25 51 23 51 21 51 21 52 19 52 17 52 17 53 15 53 13 53 13 54 11 54 9 54 9 55 7 55 5 55 5 56 1 56 45 56 45 57 41 57 37 57 37 58 33 58 29 58 29 59 25 59 21 59 21 60 17 60 13 60 13 61 9 61 5 61 5 62 45 62 37 62 37 63 29 63 21 63 21 64 13 64 5 64 37 65 21 65 5 65 44 66 45 66 47 66 44 67 47 67 46 67 46 68 47 68 1 68 46 69 1 69 0 69 46 70 0 70 2 70 2 71 4 71 6 71 6 72 8 72 10 72 10 73 12 73 14 73 14 74 16 74 18 74 18 75 20 75 22 75 22 76 24 76 26 76 26 77 28 77 30 77 30 78 32 78 34 78 34 79 36 79 38 79 38 80 40 80 42 80 42 81 44 81 46 81 46 82 2 82 6 82 6 83 10 83 14 83 14 84 18 84 22 84 22 85 26 85 30 85 30 86 34 86 38 86 38 87 42 87 46 87 46 88 6 88 14 88 14 89 22 89 30 89 30 90 38 90 46 90 14 91 30 91 46 91</p></triangles></mesh></geometry><geometry id="mesh4"><mesh><source id="mesh4-positions"><float_array id="mesh4-array" count="144">0.00662694638594985 0.03999999538064003 -0.01311079878360033 0.10162694752216339 0.04000000283122063 -0.026110805571079254 0.006571509409695864 0.043105822056531906 -0.013515913859009743 0.10157150775194168 0.0431058295071125 -0.026515919715166092 0.00640897685661912 0.04599999636411667 -0.01470364909619093 0.10140897333621979 0.04600000008940697 -0.027703654021024704 0.00615042494609952 0.048485275357961655 -0.01659306511282921 0.10115042328834534 0.04848528280854225 -0.029593070968985558 0.0058134738355875015 0.05039229989051819 -0.019055398181080818 0.10081347078084946 0.050392307341098785 -0.03205540403723717 0.005421086214482784 0.05159110575914383 -0.021922845393419266 0.10042108595371246 0.051591113209724426 -0.034922853112220764 0.00500000175088644 0.05199999734759331 -0.02499999664723873 0.10000000149011612 0.052000001072883606 -0.03800000250339508 0.004578918218612671 0.05159110575914383 -0.028077147901058197 0.09957891702651978 0.051591113209724426 -0.0410771518945694 0.004186530131846666 0.05039229989051819 -0.030944596976041794 0.09918653219938278 0.050392307341098785 -0.043944600969552994 0.0038495794869959354 0.04848527908325195 -0.033406928181648254 0.0988495796918869 0.04848528280854225 -0.04640693590044975 0.003591027809306979 0.04599999636411667 -0.03529634699225426 0.09859102964401245 0.046000003814697266 -0.04829635098576546 0.0034284957218915224 0.043105825781822205 -0.03648408129811287 0.09842849522829056 0.0431058332324028 -0.04948408529162407 0.0033730589784681797 0.03999999538064003 -0.03688919544219971 0.09837305545806885 0.04000000283122063 -0.049889203161001205 0.0034284961875528097 0.036894168704748154 -0.03648408129811287 0.09842849522829056 0.03689417615532875 -0.04948408901691437 0.003591028740629554 0.03399999812245369 -0.03529634699225426 0.09859102964401245 0.03400000184774399 -0.04829635098576546 0.00384958041831851 0.031514715403318405 -0.03340693190693855 0.0988495796918869 0.031514722853899 -0.04640693590044975 0.004186531528830528 0.02960769273340702 -0.030944596976041794 0.09918653219938278 0.029607698321342468 -0.04394460469484329 0.0045789191499352455 0.02840888686478138 -0.028077149763703346 0.09957891702651978 0.028408892452716827 -0.041077155619859695 0.0050000036135315895 0.0279999952763319 -0.02499999850988388 0.10000000149011612 0.0280000027269125 -0.03800000250339508 0.005421087145805359 0.02840888686478138 -0.021922847256064415 0.10042108595371246 0.028408892452716827 -0.034922853112220764 0.0058134752325713634 0.02960769087076187 -0.019055398181080818 0.10081347078084946 0.02960769645869732 -0.03205540403723717 0.006150425877422094 0.031514715403318405 -0.01659306511282921 0.10115042328834534 0.031514719128608704 -0.029593070968985558 0.006408977322280407 0.03399999439716339 -0.01470364909619093 0.10140897333621979 0.03400000184774399 -0.027703655883669853 0.006571509409695864 0.036894164979457855 -0.013515913859009743 0.10157150775194168 0.03689417243003845 -0.026515919715166092</float_array><technique_common><accessor source="#mesh4-array" count="48" stride="3"><param name="X" type="float" /><param name="Y" type="float" /><param name="Z" type="float" /></accessor></technique_common></source><source id="mesh4-normals"><float_array id="mesh4-normals-array" count="276">0.13441875576972961 0.1305263191461563 0.9822904467582703 0.13441875576972961 0.1305263191461563 0.9822904467582703 0.12525832653045654 0.3826833665370941 0.9153490662574768 0.12525832653045654 0.3826833665370941 0.9153490662574768 0.10756172239780426 0.6087614297866821 0.7860279083251953 0.10756172239780426 0.6087614297866821 0.7860279083251953 0.082535021007061 0.793353259563446 0.603140652179718 0.082535021007061 0.793353259563446 0.603140652179718 0.051883649080991745 0.9238796234130859 0.37915000319480896 0.051883649080991745 0.9238796234130859 0.37915000319480896 0.01769653521478176 0.9914448857307434 0.12932124733924866 0.01769653521478176 0.9914448857307434 0.12932124733924866 -0.017696643248200417 0.9914448857307434 -0.12932109832763672 -0.017696643248200417 0.9914448857307434 -0.12932109832763672 -0.0518837533891201 0.9238796234130859 -0.3791498839855194 -0.0518837533891201 0.9238796234130859 -0.3791498839855194 -0.08253510296344757 0.793353259563446 -0.6031404733657837 -0.08253510296344757 0.793353259563446 -0.6031404733657837 -0.10756179690361023 0.6087616086006165 -0.7860279083251953 -0.10756179690361023 0.6087616086006165 -0.7860279083251953 -0.12525834143161774 0.3826834261417389 -0.9153489470481873 -0.12525834143161774 0.3826834261417389 -0.9153489470481873 -0.13441875576972961 0.13052643835544586 -0.9822904467582703 -0.13441875576972961 0.13052643835544586 -0.9822904467582703 -0.13441875576972961 -0.1305263191461563 -0.9822904467582703 -0.13441875576972961 -0.1305263191461563 -0.9822904467582703 -0.12525832653045654 -0.3826833665370941 -0.9153490662574768 -0.12525832653045654 -0.3826833665370941 -0.9153490662574768 -0.10756172239780426 -0.6087614297866821 -0.7860279083251953 -0.10756172239780426 -0.6087614297866821 -0.7860279083251953 -0.082535021007061 -0.793353259563446 -0.603140652179718 -0.082535021007061 -0.793353259563446 -0.603140652179718 -0.051883649080991745 -0.9238796234130859 -0.37915000319480896 -0.051883649080991745 -0.9238796234130859 -0.37915000319480896 -0.01769653521478176 -0.9914448857307434 -0.12932124733924866 -0.01769653521478176 -0.9914448857307434 -0.12932124733924866 0.017696643248200417 -0.9914448857307434 0.12932109832763672 0.017696643248200417 -0.9914448857307434 0.12932109832763672 0.0518837533891201 -0.9238796234130859 0.3791498839855194 0.0518837533891201 -0.9238796234130859 0.3791498839855194 0.08253510296344757 -0.793353259563446 0.6031404733657837 0.08253510296344757 -0.793353259563446 0.6031404733657837 0.10756179690361023 -0.6087616086006165 0.7860279083251953 0.10756179690361023 -0.6087616086006165 0.7860279083251953 0.9907665848731995 6.786209638676155e-08 -0.13557863235473633 0.9907665848731995 6.786209638676155e-08 -0.13557863235473633 0.9907665848731995 6.786209638676155e-08 -0.13557863235473633 0.9907665848731995 6.786209638676155e-08 -0.13557863235473633 0.9907665848731995 6.786209638676155e-08 -0.13557863235473633 0.9907665848731995 6.786209638676155e-08 -0.13557863235473633 0.9907665848731995 6.786209638676155e-08 -0.13557863235473633 0.9907665848731995 6.786209638676155e-08 -0.13557863235473633 0.9907665848731995 6.786209638676155e-08 -0.13557863235473633 0.9907665848731995 6.786209638676155e-08 -0.13557863235473633 0.9907665848731995 6.786209638676155e-08 -0.13557863235473633 0.9907665848731995 6.786209638676155e-08 -0.13557863235473633 0.9907665848731995 6.786209638676155e-08 -0.13557863235473633 0.9907665848731995 6.786209638676155e-08 -0.13557863235473633 0.9907665848731995 6.786209638676155e-08 -0.13557863235473633 0.9907665848731995 6.786209638676155e-08 -0.13557863235473633 0.9907665848731995 6.786209638676155e-08 -0.13557863235473633 0.9907665848731995 6.786209638676155e-08 -0.13557863235473633 0.9907665848731995 6.786209638676155e-08 -0.13557863235473633 0.9907665848731995 6.786209638676155e-08 -0.13557863235473633 0.9907665848731995 6.786209638676155e-08 -0.13557863235473633 0.9907665848731995 6.786209638676155e-08 -0.13557863235473633 0.12525834143161774 -0.3826834261417389 0.9153489470481873 0.12525834143161774 -0.3826834261417389 0.9153489470481873 0.13441875576972961 -0.13052643835544586 0.9822904467582703 0.13441875576972961 -0.13052643835544586 0.9822904467582703 -0.9907665848731995 -6.786209638676155e-08 0.13557863235473633 -0.9907665848731995 -6.786209638676155e-08 0.13557863235473633 -0.9907665848731995 -6.786209638676155e-08 0.13557863235473633 -0.9907665848731995 -6.786209638676155e-08 0.13557863235473633 -0.9907665848731995 -6.786209638676155e-08 0.13557863235473633 -0.9907665848731995 -6.786209638676155e-08 0.13557863235473633 -0.9907665848731995 -6.786209638676155e-08 0.13557863235473633 -0.9907665848731995 -6.786209638676155e-08 0.13557863235473633 -0.9907665848731995 -6.786209638676155e-08 0.13557863235473633 -0.9907665848731995 -6.786209638676155e-08 0.13557863235473633 -0.9907665848731995 -6.786209638676155e-08 0.13557863235473633 -0.9907665848731995 -6.786209638676155e-08 0.13557863235473633 -0.9907665848731995 -6.786209638676155e-08 0.13557863235473633 -0.9907665848731995 -6.786209638676155e-08 0.13557863235473633 -0.9907665848731995 -6.786209638676155e-08 0.13557863235473633 -0.9907665848731995 -6.786209638676155e-08 0.13557863235473633 -0.9907665848731995 -6.786209638676155e-08 0.13557863235473633 -0.9907665848731995 -6.786209638676155e-08 0.13557863235473633 -0.9907665848731995 -6.786209638676155e-08 0.13557863235473633 -0.9907665848731995 -6.786209638676155e-08 0.13557863235473633 -0.9907665848731995 -6.786209638676155e-08 0.13557863235473633 -0.9907665848731995 -6.786209638676155e-08 0.13557863235473633</float_array><technique_common><accessor source="#mesh4-normals-array" count="92" stride="3"><param name="X" type="float" /><param name="Y" type="float" /><param name="Z" type="float" /></accessor></technique_common></source><vertices id="mesh4-vertices"><input semantic="POSITION" source="#mesh4-positions" /></vertices><triangles count="92" material="titanium"><input semantic="VERTEX" source="#mesh4-vertices" offset="0" /><input semantic="NORMAL" source="#mesh4-normals" offset="1" /><p>0 0 1 0 3 0 0 1 3 1 2 1 2 2 3 2 5 2 2 3 5 3 4 3 4 4 5 4 7 4 4 5 7 5 6 5 6 6 7 6 9 6 6 7 9 7 8 7 8 8 9 8 11 8 8 9 11 9 10 9 10 10 11 10 13 10 10 11 13 11 12 11 12 12 13 12 15 12 12 13 15 13 14 13 14 14 15 14 17 14 14 15 17 15 16 15 16 16 17 16 19 16 16 17 19 17 18 17 18 18 19 18 21 18 18 19 21 19 20 19 20 20 21 20 23 20 20 21 23 21 22 21 22 22 23 22 25 22 22 23 25 23 24 23 24 24 25 24 27 24 24 25 27 25 26 25 26 26 27 26 29 26 26 27 29 27 28 27 28 28 29 28 31 28 28 29 31 29 30 29 30 30 31 30 33 30 30 31 33 31 32 31 32 32 33 32 35 32 32 33 35 33 34 33 34 34 35 34 37 34 34 35 37 35 36 35 36 36 37 36 39 36 36 37 39 37 38 37 38 38 39 38 41 38 38 39 41 39 40 39 40 40 41 40 43 40 40 41 43 41 42 41 42 42 43 42 45 42 42 43 45 43 44 43 5 44 3 44 1 44 1 45 47 45 45 45 45 46 43 46 41 46 41 47 39 47 37 47 37 48 35 48 33 48 33 49 31 49 29 49 29 50 27 50 25 50 25 51 23 51 21 51 21 52 19 52 17 52 17 53 15 53 13 53 13 54 11 54 9 54 9 55 7 55 5 55 5 56 1 56 45 56 45 57 41 57 37 57 37 58 33 58 29 58 29 59 25 59 21 59 21 60 17 60 13 60 13 61 9 61 5 61 5 62 45 62 37 62 37 63 29 63 21 63 21 64 13 64 5 64 37 65 21 65 5 65 44 66 45 66 47 66 44 67 47 67 46 67 46 68 47 68 1 68 46 69 1 69 0 69 46 70 0 70 2 70 2 71 4 71 6 71 6 72 8 72 10 72 10 73 12 73 14 73 14 74 16 74 18 74 18 75 20 75 22 75 22 76 24 76 26 76 26 77 28 77 30 77 30 78 32 78 34 78 34 79 36 79 38 79 38 80 40 80 42 80 42 81 44 81 46 81 46 82 2 82 6 82 6 83 10 83 14 83 14 84 18 84 22 84 22 85 26 85 30 85 30 86 34 86 38 86 38 87 42 87 46 87 46 88 6 88 14 88 14 89 22 89 30 89 30 90 38 90 46 90 14 91 30 91 46 91</p></triangles></mesh></geometry></library_geometries><library_visual_scenes><visual_scene id="Scene"><node id="mesh0-node"><instance_geometry url="#mesh0"><bind_material><technique_common><instance_material symbol="titanium" target="#titanium" /></technique_common></bind_material></instance_geometry></node><node id="mesh1-node"><instance_geometry url="#mesh1"><bind_material><technique_common><instance_material symbol="titanium" target="#titanium" /></technique_common></bind_material></instance_geometry></node><node id="mesh2-node"><instance_geometry url="#mesh2"><bind_material><technique_common><instance_material symbol="titanium" target="#titanium" /></technique_common></bind_material></instance_geometry></node><node id="mesh3-node"><instance_geometry url="#mesh3"><bind_material><technique_common><instance_material symbol="titanium" target="#titanium" /></technique_common></bind_material></instance_geometry></node><node id="mesh4-node"><instance_geometry url="#mesh4"><bind_material><technique_common><instance_material symbol="titanium" target="#titanium" /></technique_common></bind_material></instance_geometry></node></visual_scene></library_visual_scenes><scene><instance_visual_scene url="#Scene" /></scene></COLLADA>