<?xml version='1.0' encoding='utf-8'?>
<COLLADA xmlns="http://www.collada.org/2005/11/COLLADASchema" version="1.4.1"><asset><unit name="meter" meter="1" /><up_axis>Z_UP</up_axis></asset><library_effects><effect id="graphite-fx"><profile_COMMON><technique sid="common"><phong><emission><color>0 0 0 1</color></emission><ambient><color>0.065 0.075 0.085 1</color></ambient><diffuse><color>0.065 0.075 0.085 1</color></diffuse><specular><color>0.12 0.12 0.12 1</color></specular><shininess><float>25</float></shininess></phong></technique></profile_COMMON></effect><effect id="titanium-fx"><profile_COMMON><technique sid="common"><phong><emission><color>0 0 0 1</color></emission><ambient><color>0.36 0.4 0.43 1</color></ambient><diffuse><color>0.36 0.4 0.43 1</color></diffuse><specular><color>0.12 0.12 0.12 1</color></specular><shininess><float>25</float></shininess></phong></technique></profile_COMMON></effect><effect id="ivory-fx"><profile_COMMON><technique sid="common"><phong><emission><color>0 0 0 1</color></emission><ambient><color>0.72 0.72 0.65 1</color></ambient><diffuse><color>0.72 0.72 0.65 1</color></diffuse><specular><color>0.12 0.12 0.12 1</color></specular><shininess><float>25</float></shininess></phong></technique></profile_COMMON></effect><effect id="copper-fx"><profile_COMMON><technique sid="common"><phong><emission><color>0 0 0 1</color></emission><ambient><color>0.66 0.29 0.08 1</color></ambient><diffuse><color>0.66 0.29 0.08 1</color></diffuse><specular><color>0.12 0.12 0.12 1</color></specular><shininess><float>25</float></shininess></phong></technique></profile_COMMON></effect><effect id="rubber-fx"><profile_COMMON><technique sid="common"><phong><emission><color>0 0 0 1</color></emission><ambient><color>0.025 0.028 0.032 1</color></ambient><diffuse><color>0.025 0.028 0.032 1</color></diffuse><specular><color>0.12 0.12 0.12 1</color></specular><shininess><float>25</float></shininess></phong></technique></profile_COMMON></effect><effect id="lens-fx"><profile_COMMON><technique sid="common"><phong><emission><color>0 0 0 1</color></emission><ambient><color>0.05 0.26 0.33 1</color></ambient><diffuse><color>0.05 0.26 0.33 1</color></diffuse><specular><color>0.12 0.12 0.12 1</color></specular><shininess><float>25</float></shininess></phong></technique></profile_COMMON></effect></library_effects><library_materials><material id="graphite"><instance_effect url="#graphite-fx" /></material><material id="titanium"><instance_effect url="#titanium-fx" /></material><material id="ivory"><instance_effect url="#ivory-fx" /></material><material id="copper"><instance_effect url="#copper-fx" /></material><material id="rubber"><instance_effect url="#rubber-fx" /></material><material id="lens"><instance_effect url="#lens-fx" /></material></library_materials><library_geometries><geometry id="mesh0"><mesh><source id="mesh0-positions"><float_array id="mesh0-array" count="144">-0.07000000029802322 -1.2267964468430094e-17 0.010249998420476913 -0.05800000578165054 -1.2267964468430094e-17 0.010249998420476913 -0.07000000029802322 0.014299752190709114 0.008367400616407394 -0.05800000578165054 0.014299752190709114 0.008367400616407394 -0.07000000029802322 0.02762500010430813 0.002847902476787567 -0.05800000578165054 0.02762500010430813 0.002847902476787567 -0.07000000029802322 0.039067648351192474 -0.005932353436946869 -0.05800000578165054 0.039067648351192474 -0.005932353436946869 -0.07000000029802322 0.04784790426492691 -0.017375001683831215 -0.05800000578165054 0.04784790426492691 -0.017375001683831215 -0.07000000029802322 0.05336740240454674 -0.03070024959743023 -0.05800000578165054 0.05336740240454674 -0.03070024959743023 -0.07000000029802322 0.05525000020861626 -0.04500000178813934 -0.05800000578165054 0.05525000020861626 -0.04500000178813934 -0.07000000029802322 0.05336740240454674 -0.05929975211620331 -0.05800000578165054 0.05336740240454674 -0.05929975211620331 -0.07000000029802322 0.04784790426492691 -0.07262500375509262 -0.05800000578165054 0.04784790426492691 -0.07262500375509262 -0.07000000029802322 0.039067648351192474 -0.08406765013933182 -0.05800000578165054 0.039067648351192474 -0.08406765013933182 -0.07000000029802322 0.02762500010430813 -0.09284790605306625 -0.05800000578165054 0.02762500010430813 -0.09284790605306625 -0.07000000029802322 0.014299752190709114 -0.09836740791797638 -0.05800000578165054 0.014299752190709114 -0.09836740791797638 -0.07000000029802322 1.2267964468430094e-17 -0.1002500057220459 -0.05800000578165054 1.2267964468430094e-17 -0.1002500057220459 -0.07000000029802322 -0.014299752190709114 -0.09836740791797638 -0.05800000578165054 -0.014299752190709114 -0.09836740791797638 -0.07000000029802322 -0.02762500010430813 -0.09284790605306625 -0.058000002056360245 -0.02762500010430813 -0.09284790605306625 -0.07000000029802322 -0.039067648351192474 -0.08406765013933182 -0.058000002056360245 -0.039067648351192474 -0.08406765013933182 -0.07000000029802322 -0.04784790426492691 -0.07262500375509262 -0.058000002056360245 -0.04784790426492691 -0.07262500375509262 -0.07000000029802322 -0.05336740240454674 -0.05929975211620331 -0.058000002056360245 -0.05336740240454674 -0.05929975211620331 -0.07000000029802322 -0.05525000020861626 -0.04500000178813934 -0.058000002056360245 -0.05525000020861626 -0.04500000178813934 -0.07000000029802322 -0.05336740240454674 -0.03070024959743023 -0.058000002056360245 -0.05336740240454674 -0.03070024959743023 -0.07000000029802322 -0.04784790426492691 -0.017375001683831215 -0.058000002056360245 -0.04784790426492691 -0.017375001683831215 -0.07000000029802322 -0.039067648351192474 -0.005932353436946869 -0.058000002056360245 -0.039067648351192474 -0.005932353436946869 -0.07000000029802322 -0.02762500010430813 0.002847902476787567 -0.058000002056360245 -0.02762500010430813 0.002847902476787567 -0.07000000029802322 -0.014299752190709114 0.008367400616407394 -0.05800000578165054 -0.014299752190709114 0.008367400616407394</float_array><technique_common><accessor source="#mesh0-array" count="48" stride="3"><param name="X" type="float" /><param name="Y" type="float" /><param name="Z" type="float" /></accessor></technique_common></source><source id="mesh0-normals"><float_array id="mesh0-normals-array" count="276">2.2014498795702573e-16 0.13052617013454437 0.9914448857307434 2.2014498795702573e-16 0.13052617013454437 0.9914448857307434 2.0514247274415557e-16 0.3826834261417389 0.9238795638084412 2.0514247274415557e-16 0.3826834261417389 0.9238795638084412 1.761598110857512e-16 0.6087616086006165 0.793353259563446 1.761598110857512e-16 0.6087616086006165 0.793353259563446 1.3517223087525042e-16 0.793353259563446 0.6087616086006165 1.3517223087525042e-16 0.793353259563446 0.6087616086006165 8.497279016899981e-17 0.9238795638084412 0.3826834261417389 8.497279016899981e-17 0.9238795638084412 0.3826834261417389 2.8982631879902326e-17 0.9914448857307434 0.13052617013454437 2.8982631879902326e-17 0.9914448857307434 0.13052617013454437 -2.8982631879902326e-17 0.9914448857307434 -0.13052617013454437 -2.8982631879902326e-17 0.9914448857307434 -0.13052617013454437 -8.497279016899981e-17 0.9238795638084412 -0.3826834261417389 -8.497279016899981e-17 0.9238795638084412 -0.3826834261417389 -1.3517223087525042e-16 0.793353259563446 -0.6087616086006165 -1.3517223087525042e-16 0.793353259563446 -0.6087616086006165 -1.761598110857512e-16 0.6087616086006165 -0.793353259563446 -1.761598110857512e-16 0.6087616086006165 -0.793353259563446 -2.0514247274415557e-16 0.3826834261417389 -0.9238795638084412 -2.0514247274415557e-16 0.3826834261417389 -0.9238795638084412 -2.2014498795702573e-16 0.13052617013454437 -0.9914448857307434 -2.2014498795702573e-16 0.13052617013454437 -0.9914448857307434 -2.2014498795702573e-16 -0.13052617013454437 -0.9914448857307434 -2.2014498795702573e-16 -0.13052617013454437 -0.9914448857307434 -2.0514247274415557e-16 -0.3826834261417389 -0.9238795638084412 -2.0514247274415557e-16 -0.3826834261417389 -0.9238795638084412 -1.761598110857512e-16 -0.6087616086006165 -0.793353259563446 -1.761598110857512e-16 -0.6087616086006165 -0.793353259563446 -1.3517223087525042e-16 -0.793353259563446 -0.6087616086006165 -1.3517223087525042e-16 -0.793353259563446 -0.6087616086006165 -8.497279016899981e-17 -0.9238795638084412 -0.3826834261417389 -8.497279016899981e-17 -0.9238795638084412 -0.3826834261417389 -2.8982631879902326e-17 -0.9914448857307434 -0.13052617013454437 -2.8982631879902326e-17 -0.9914448857307434 -0.13052617013454437 2.8982631879902326e-17 -0.9914448857307434 0.13052617013454437 2.8982631879902326e-17 -0.9914448857307434 0.13052617013454437 8.497279016899981e-17 -0.9238795638084412 0.3826834261417389 8.497279016899981e-17 -0.9238795638084412 0.3826834261417389 1.3517223087525042e-16 -0.793353259563446 0.6087616086006165 1.3517223087525042e-16 -0.793353259563446 0.6087616086006165 1.761598110857512e-16 -0.6087616086006165 0.793353259563446 1.761598110857512e-16 -0.6087616086006165 0.793353259563446 1.0 2.220446049250313e-16 4.930380657631324e-32 1.0 2.220446049250313e-16 4.930380657631324e-32 1.0 2.220446049250313e-16 4.930380657631324e-32 1.0 2.220446049250313e-16 4.930380657631324e-32 1.0 2.220446049250313e-16 4.930380657631324e-32 1.0 2.220446049250313e-16 4.930380657631324e-32 1.0 2.220446049250313e-16 4.930380657631324e-32 1.0 2.220446049250313e-16 4.930380657631324e-32 1.0 2.220446049250313e-16 4.930380657631324e-32 1.0 2.220446049250313e-16 4.930380657631324e-32 1.0 2.220446049250313e-16 4.930380657631324e-32 1.0 2.220446049250313e-16 4.930380657631324e-32 1.0 2.220446049250313e-16 4.930380657631324e-32 1.0 2.220446049250313e-16 4.930380657631324e-32 1.0 2.220446049250313e-16 4.930380657631324e-32 1.0 2.220446049250313e-16 4.930380657631324e-32 1.0 2.220446049250313e-16 4.930380657631324e-32 1.0 2.220446049250313e-16 4.930380657631324e-32 1.0 2.220446049250313e-16 4.930380657631324e-32 1.0 2.220446049250313e-16 4.930380657631324e-32 1.0 2.220446049250313e-16 4.930380657631324e-32 1.0 2.220446049250313e-16 4.930380657631324e-32 2.0514247274415557e-16 -0.3826834261417389 0.9238795638084412 2.0514247274415557e-16 -0.3826834261417389 0.9238795638084412 2.2014498795702573e-16 -0.13052617013454437 0.9914448857307434 2.2014498795702573e-16 -0.13052617013454437 0.9914448857307434 -1.0 -2.220446049250313e-16 -4.930380657631324e-32 -1.0 -2.220446049250313e-16 -4.930380657631324e-32 -1.0 -2.220446049250313e-16 -4.930380657631324e-32 -1.0 -2.220446049250313e-16 -4.930380657631324e-32 -1.0 -2.220446049250313e-16 -4.930380657631324e-32 -1.0 -2.220446049250313e-16 -4.930380657631324e-32 -1.0 -2.220446049250313e-16 -4.930380657631324e-32 -1.0 -2.220446049250313e-16 -4.930380657631324e-32 -1.0 -2.220446049250313e-16 -4.930380657631324e-32 -1.0 -2.220446049250313e-16 -4.930380657631324e-32 -1.0 -2.220446049250313e-16 -4.930380657631324e-32 -1.0 -2.220446049250313e-16 -4.930380657631324e-32 -1.0 -2.220446049250313e-16 -4.930380657631324e-32 -1.0 -2.220446049250313e-16 -4.930380657631324e-32 -1.0 -2.220446049250313e-16 -4.930380657631324e-32 -1.0 -2.220446049250313e-16 -4.930380657631324e-32 -1.0 -2.220446049250313e-16 -4.930380657631324e-32 -1.0 -2.220446049250313e-16 -4.930380657631324e-32 -1.0 -2.220446049250313e-16 -4.930380657631324e-32 -1.0 -2.220446049250313e-16 -4.930380657631324e-32 -1.0 -2.220446049250313e-16 -4.930380657631324e-32 -1.0 -2.220446049250313e-16 -4.930380657631324e-32</float_array><technique_common><accessor source="#mesh0-normals-array" count="92" stride="3"><param name="X" type="float" /><param name="Y" type="float" /><param name="Z" type="float" /></accessor></technique_common></source><vertices id="mesh0-vertices"><input semantic="POSITION" source="#mesh0-positions" /></vertices><triangles count="92" material="ivory"><input semantic="VERTEX" source="#mesh0-vertices" offset="0" /><input semantic="NORMAL" source="#mesh0-normals" offset="1" /><p>0 0 1 0 3 0 0 1 3 1 2 1 2 2 3 2 5 2 2 3 5 3 4 3 4 4 5 4 7 4 4 5 7 5 6 5 6 6 7 6 9 6 6 7 9 7 8 7 8 8 9 8 11 8 8 9 11 9 10 9 10 10 11 10 13 10 10 11 13 11 12 11 12 12 13 12 15 12 12 13 15 13 14 13 14 14 15 14 17 14 14 15 17 15 16 15 16 16 17 16 19 16 16 17 19 17 18 17 18 18 19 18 21 18 18 19 21 19 20 19 20 20 21 20 23 20 20 21 23 21 22 21 22 22 23 22 25 22 22 23 25 23 24 23 24 24 25 24 27 24 24 25 27 25 26 25 26 26 27 26 29 26 26 27 29 27 28 27 28 28 29 28 31 28 28 29 31 29 30 29 30 30 31 30 33 30 30 31 33 31 32 31 32 32 33 32 35 32 32 33 35 33 34 33 34 34 35 34 37 34 34 35 37 35 36 35 36 36 37 36 39 36 36 37 39 37 38 37 38 38 39 38 41 38 38 39 41 39 40 39 40 40 41 40 43 40 40 41 43 41 42 41 42 42 43 42 45 42 42 43 45 43 44 43 5 44 3 44 1 44 1 45 47 45 45 45 45 46 43 46 41 46 41 47 39 47 37 47 37 48 35 48 33 48 33 49 31 49 29 49 29 50 27 50 25 50 25 51 23 51 21 51 21 52 19 52 17 52 17 53 15 53 13 53 13 54 11 54 9 54 9 55 7 55 5 55 5 56 1 56 45 56 45 57 41 57 37 57 37 58 33 58 29 58 29 59 25 59 21 59 21 60 17 60 13 60 13 61 9 61 5 61 5 62 45 62 37 62 37 63 29 63 21 63 21 64 13 64 5 64 37 65 21 65 5 65 44 66 45 66 47 66 44 67 47 67 46 67 46 68 47 68 1 68 46 69 1 69 0 69 46 70 0 70 2 70 2 71 4 71 6 71 6 72 8 72 10 72 10 73 12 73 14 73 14 74 16 74 18 74 18 75 20 75 22 75 22 76 24 76 26 76 26 77 28 77 30 77 30 78 32 78 34 78 34 79 36 79 38 79 38 80 40 80 42 80 42 81 44 81 46 81 46 82 2 82 6 82 6 83 10 83 14 83 14 84 18 84 22 84 22 85 26 85 30 85 30 86 34 86 38 86 38 87 42 87 46 87 46 88 6 88 14 88 14 89 22 89 30 89 30 90 38 90 46 90 14 91 30 91 46 91</p></triangles></mesh></geometry><geometry id="mesh1"><mesh><source id="mesh1-positions"><float_array id="mesh1-array" count="144">0.05800000578165054 -1.2267964468430094e-17 0.010249998420476913 0.07000000029802322 -1.2267964468430094e-17 0.010249998420476913 0.05800000578165054 0.014299752190709114 0.008367400616407394 0.07000000029802322 0.014299752190709114 0.008367400616407394 0.058000002056360245 0.02762500010430813 0.002847902476787567 0.07000000029802322 0.02762500010430813 0.002847902476787567 0.058000002056360245 0.039067648351192474 -0.005932353436946869 0.07000000029802322 0.039067648351192474 -0.005932353436946869 0.058000002056360245 0.04784790426492691 -0.017375001683831215 0.07000000029802322 0.04784790426492691 -0.017375001683831215 0.058000002056360245 0.05336740240454674 -0.03070024959743023 0.07000000029802322 0.05336740240454674 -0.03070024959743023 0.058000002056360245 0.05525000020861626 -0.04500000178813934 0.07000000029802322 0.05525000020861626 -0.04500000178813934 0.058000002056360245 0.05336740240454674 -0.05929975211620331 0.07000000029802322 0.05336740240454674 -0.05929975211620331 0.058000002056360245 0.04784790426492691 -0.07262500375509262 0.07000000029802322 0.04784790426492691 -0.07262500375509262 0.058000002056360245 0.039067648351192474 -0.08406765013933182 0.07000000029802322 0.039067648351192474 -0.08406765013933182 0.058000002056360245 0.02762500010430813 -0.09284790605306625 0.07000000029802322 0.02762500010430813 -0.09284790605306625 0.05800000578165054 0.014299752190709114 -0.09836740791797638 0.07000000029802322 0.014299752190709114 -0.09836740791797638 0.05800000578165054 1.2267964468430094e-17 -0.1002500057220459 0.07000000029802322 1.2267964468430094e-17 -0.1002500057220459 0.05800000578165054 -0.014299752190709114 -0.09836740791797638 0.07000000029802322 -0.014299752190709114 -0.09836740791797638 0.05800000578165054 -0.02762500010430813 -0.09284790605306625 0.07000000029802322 -0.02762500010430813 -0.09284790605306625 0.05800000578165054 -0.039067648351192474 -0.08406765013933182 0.07000000029802322 -0.039067648351192474 -0.08406765013933182 0.05800000578165054 -0.04784790426492691 -0.07262500375509262 0.07000000029802322 -0.04784790426492691 -0.07262500375509262 0.05800000578165054 -0.05336740240454674 -0.05929975211620331 0.07000000029802322 -0.05336740240454674 -0.05929975211620331 0.05800000578165054 -0.05525000020861626 -0.04500000178813934 0.07000000029802322 -0.05525000020861626 -0.04500000178813934 0.05800000578165054 -0.05336740240454674 -0.03070024959743023 0.07000000029802322 -0.05336740240454674 -0.03070024959743023 0.05800000578165054 -0.04784790426492691 -0.017375001683831215 0.07000000029802322 -0.04784790426492691 -0.017375001683831215 0.05800000578165054 -0.039067648351192474 -0.005932353436946869 0.07000000029802322 -0.039067648351192474 -0.005932353436946869 0.05800000578165054 -0.02762500010430813 0.002847902476787567 0.07000000029802322 -0.02762500010430813 0.002847902476787567 0.05800000578165054 -0.014299752190709114 0.008367400616407394 0.07000000029802322 -0.014299752190709114 0.008367400616407394</float_array><technique_common><accessor source="#mesh1-array" count="48" stride="3"><param name="X" type="float" /><param name="Y" type="float" /><param name="Z" type="float" /></accessor></technique_common></source><source id="mesh1-normals"><float_array id="mesh1-normals-array" count="276">2.2014498795702573e-16 0.13052617013454437 0.9914448857307434 2.2014498795702573e-16 0.13052617013454437 0.9914448857307434 2.0514247274415557e-16 0.3826834261417389 0.9238795638084412 2.0514247274415557e-16 0.3826834261417389 0.9238795638084412 1.761598110857512e-16 0.6087616086006165 0.793353259563446 1.761598110857512e-16 0.6087616086006165 0.793353259563446 1.3517223087525042e-16 0.793353259563446 0.6087616086006165 1.3517223087525042e-16 0.793353259563446 0.6087616086006165 8.497279016899981e-17 0.9238795638084412 0.3826834261417389 8.497279016899981e-17 0.9238795638084412 0.3826834261417389 2.8982631879902326e-17 0.9914448857307434 0.13052617013454437 2.8982631879902326e-17 0.9914448857307434 0.13052617013454437 -2.8982631879902326e-17 0.9914448857307434 -0.13052617013454437 -2.8982631879902326e-17 0.9914448857307434 -0.13052617013454437 -8.497279016899981e-17 0.9238795638084412 -0.3826834261417389 -8.497279016899981e-17 0.9238795638084412 -0.3826834261417389 -1.3517223087525042e-16 0.793353259563446 -0.6087616086006165 -1.3517223087525042e-16 0.793353259563446 -0.6087616086006165 -1.761598110857512e-16 0.6087616086006165 -0.793353259563446 -1.761598110857512e-16 0.6087616086006165 -0.793353259563446 -2.0514247274415557e-16 0.3826834261417389 -0.9238795638084412 -2.0514247274415557e-16 0.3826834261417389 -0.9238795638084412 -2.2014498795702573e-16 0.13052617013454437 -0.9914448857307434 -2.2014498795702573e-16 0.13052617013454437 -0.9914448857307434 -2.2014498795702573e-16 -0.13052617013454437 -0.9914448857307434 -2.2014498795702573e-16 -0.13052617013454437 -0.9914448857307434 -2.0514247274415557e-16 -0.3826834261417389 -0.9238795638084412 -2.0514247274415557e-16 -0.3826834261417389 -0.9238795638084412 -1.761598110857512e-16 -0.6087616086006165 -0.793353259563446 -1.761598110857512e-16 -0.6087616086006165 -0.793353259563446 -1.3517223087525042e-16 -0.793353259563446 -0.6087616086006165 -1.3517223087525042e-16 -0.793353259563446 -0.6087616086006165 -8.497279016899981e-17 -0.9238795638084412 -0.3826834261417389 -8.497279016899981e-17 -0.9238795638084412 -0.3826834261417389 -2.8982631879902326e-17 -0.9914448857307434 -0.13052617013454437 -2.8982631879902326e-17 -0.9914448857307434 -0.13052617013454437 2.8982631879902326e-17 -0.9914448857307434 0.13052617013454437 2.8982631879902326e-17 -0.9914448857307434 0.13052617013454437 8.497279016899981e-17 -0.9238795638084412 0.3826834261417389 8.497279016899981e-17 -0.9238795638084412 0.3826834261417389 1.3517223087525042e-16 -0.793353259563446 0.6087616086006165 1.3517223087525042e-16 -0.793353259563446 0.6087616086006165 1.761598110857512e-16 -0.6087616086006165 0.793353259563446 1.761598110857512e-16 -0.6087616086006165 0.793353259563446 1.0 2.220446049250313e-16 4.930380657631324e-32 1.0 2.220446049250313e-16 4.930380657631324e-32 1.0 2.220446049250313e-16 4.930380657631324e-32 1.0 2.220446049250313e-16 4.930380657631324e-32 1.0 2.220446049250313e-16 4.930380657631324e-32 1.0 2.220446049250313e-16 4.930380657631324e-32 1.0 2.220446049250313e-16 4.930380657631324e-32 1.0 2.220446049250313e-16 4.930380657631324e-32 1.0 2.220446049250313e-16 4.930380657631324e-32 1.0 2.220446049250313e-16 4.930380657631324e-32 1.0 2.220446049250313e-16 4.930380657631324e-32 1.0 2.220446049250313e-16 4.930380657631324e-32 1.0 2.220446049250313e-16 4.930380657631324e-32 1.0 2.220446049250313e-16 4.930380657631324e-32 1.0 2.220446049250313e-16 4.930380657631324e-32 1.0 2.220446049250313e-16 4.930380657631324e-32 1.0 2.220446049250313e-16 4.930380657631324e-32 1.0 2.220446049250313e-16 4.930380657631324e-32 1.0 2.220446049250313e-16 4.930380657631324e-32 1.0 2.220446049250313e-16 4.930380657631324e-32 1.0 2.220446049250313e-16 4.930380657631324e-32 1.0 2.220446049250313e-16 4.930380657631324e-32 2.0514247274415557e-16 -0.3826834261417389 0.9238795638084412 2.0514247274415557e-16 -0.3826834261417389 0.9238795638084412 2.2014498795702573e-16 -0.13052617013454437 0.9914448857307434 2.2014498795702573e-16 -0.13052617013454437 0.9914448857307434 -1.0 -2.220446049250313e-16 -4.930380657631324e-32 -1.0 -2.220446049250313e-16 -4.930380657631324e-32 -1.0 -2.220446049250313e-16 -4.930380657631324e-32 -1.0 -2.220446049250313e-16 -4.930380657631324e-32 -1.0 -2.220446049250313e-16 -4.930380657631324e-32 -1.0 -2.220446049250313e-16 -4.930380657631324e-32 -1.0 -2.220446049250313e-16 -4.930380657631324e-32 -1.0 -2.220446049250313e-16 -4.930380657631324e-32 -1.0 -2.220446049250313e-16 -4.930380657631324e-32 -1.0 -2.220446049250313e-16 -4.930380657631324e-32 -1.0 -2.220446049250313e-16 -4.930380657631324e-32 -1.0 -2.220446049250313e-16 -4.930380657631324e-32 -1.0 -2.220446049250313e-16 -4.930380657631324e-32 -1.0 -2.220446049250313e-16 -4.930380657631324e-32 -1.0 -2.220446049250313e-16 -4.930380657631324e-32 -1.0 -2.220446049250313e-16 -4.930380657631324e-32 -1.0 -2.220446049250313e-16 -4.930380657631324e-32 -1.0 -2.220446049250313e-16 -4.930380657631324e-32 -1.0 -2.220446049250313e-16 -4.930380657631324e-32 -1.0 -2.220446049250313e-16 -4.930380657631324e-32 -1.0 -2.220446049250313e-16 -4.930380657631324e-32 -1.0 -2.220446049250313e-16 -4.930380657631324e-32</float_array><technique_common><accessor source="#mesh1-normals-array" count="92" stride="3"><param name="X" type="float" /><param name="Y" type="float" /><param name="Z" type="float" /></accessor></technique_common></source><vertices id="mesh1-vertices"><input semantic="POSITION" source="#mesh1-positions" /></vertices><triangles count="92" material="ivory"><input semantic="VERTEX" source="#mesh1-vertices" offset="0" /><input semantic="NORMAL" source="#mesh1-normals" offset="1" /><p>0 0 1 0 3 0 0 1 3 1 2 1 2 2 3 2 5 2 2 3 5 3 4 3 4 4 5 4 7 4 4 5 7 5 6 5 6 6 7 6 9 6 6 7 9 7 8 7 8 8 9 8 11 8 8 9 11 9 10 9 10 10 11 10 13 10 10 11 13 11 12 11 12 12 13 12 15 12 12 13 15 13 14 13 14 14 15 14 17 14 14 15 17 15 16 15 16 16 17 16 19 16 16 17 19 17 18 17 18 18 19 18 21 18 18 19 21 19 20 19 20 20 21 20 23 20 20 21 23 21 22 21 22 22 23 22 25 22 22 23 25 23 24 23 24 24 25 24 27 24 24 25 27 25 26 25 26 26 27 26 29 26 26 27 29 27 28 27 28 28 29 28 31 28 28 29 31 29 30 29 30 30 31 30 33 30 30 31 33 31 32 31 32 32 33 32 35 32 32 33 35 33 34 33 34 34 35 34 37 34 34 35 37 35 36 35 36 36 37 36 39 36 36 37 39 37 38 37 38 38 39 38 41 38 38 39 41 39 40 39 40 40 41 40 43 40 40 41 43 41 42 41 42 42 43 42 45 42 42 43 45 43 44 43 5 44 3 44 1 44 1 45 47 45 45 45 45 46 43 46 41 46 41 47 39 47 37 47 37 48 35 48 33 48 33 49 31 49 29 49 29 50 27 50 25 50 25 51 23 51 21 51 21 52 19 52 17 52 17 53 15 53 13 53 13 54 11 54 9 54 9 55 7 55 5 55 5 56 1 56 45 56 45 57 41 57 37 57 37 58 33 58 29 58 29 59 25 59 21 59 21 60 17 60 13 60 13 61 9 61 5 61 5 62 45 62 37 62 37 63 29 63 21 63 21 64 13 64 5 64 37 65 21 65 5 65 44 66 45 66 47 66 44 67 47 67 46 67 46 68 47 68 1 68 46 69 1 69 0 69 46 70 0 70 2 70 2 71 4 71 6 71 6 72 8 72 10 72 10 73 12 73 14 73 14 74 16 74 18 74 18 75 20 75 22 75 22 76 24 76 26 76 26 77 28 77 30 77 30 78 32 78 34 78 34 79 36 79 38 79 38 80 40 80 42 80 42 81 44 81 46 81 46 82 2 82 6 82 6 83 10 83 14 83 14 84 18 84 22 84 22 85 26 85 30 85 30 86 34 86 38 86 38 87 42 87 46 87 46 88 6 88 14 88 14 89 22 89 30 89 30 90 38 90 46 90 14 91 30 91 46 91</p></triangles></mesh></geometry></library_geometries><library_visual_scenes><visual_scene id="Scene"><node id="mesh0-node"><instance_geometry url="#mesh0"><bind_material><technique_common><instance_material symbol="ivory" target="#ivory" /></technique_common></bind_material></instance_geometry></node><node id="mesh1-node"><instance_geometry url="#mesh1"><bind_material><technique_common><instance_material symbol="ivory" target="#ivory" /></technique_common></bind_material></instance_geometry></node></visual_scene></library_visual_scenes><scene><instance_visual_scene url="#Scene" /></scene></COLLADA>