<?xml version='1.0' encoding='utf-8'?>
<COLLADA xmlns="http://www.collada.org/2005/11/COLLADASchema" version="1.4.1"><asset><unit name="meter" meter="1" /><up_axis>Z_UP</up_axis></asset><library_effects><effect id="graphite-fx"><profile_COMMON><technique sid="common"><phong><emission><color>0 0 0 1</color></emission><ambient><color>0.065 0.075 0.085 1</color></ambient><diffuse><color>0.065 0.075 0.085 1</color></diffuse><specular><color>0.12 0.12 0.12 1</color></specular><shininess><float>25</float></shininess></phong></technique></profile_COMMON></effect><effect id="titanium-fx"><profile_COMMON><technique sid="common"><phong><emission><color>0 0 0 1</color></emission><ambient><color>0.36 0.4 0.43 1</color></ambient><diffuse><color>0.36 0.4 0.43 1</color></diffuse><specular><color>0.12 0.12 0.12 1</color></specular><shininess><float>25</float></shininess></phong></technique></profile_COMMON></effect><effect id="ivory-fx"><profile_COMMON><technique sid="common"><phong><emission><color>0 0 0 1</color></emission><ambient><color>0.72 0.72 0.65 1</color></ambient><diffuse><color>0.72 0.72 0.65 1</color></diffuse><specular><color>0.12 0.12 0.12 1</color></specular><shininess><float>25</float></shininess></phong></technique></profile_COMMON></effect><effect id="copper-fx"><profile_COMMON><technique sid="common"><phong><emission><color>0 0 0 1</color></emission><ambient><color>0.66 0.29 0.08 1</color></ambient><diffuse><color>0.66 0.29 0.08 1</color></diffuse><specular><color>0.12 0.12 0.12 1</color></specular><shininess><float>25</float></shininess></phong></technique></profile_COMMON></effect><effect id="rubber-fx"><profile_COMMON><technique sid="common"><phong><emission><color>0 0 0 1</color></emission><ambient><color>0.025 0.028 0.032 1</color></ambient><diffuse><color>0.025 0.028 0.032 1</color></diffuse><specular><color>0.12 0.12 0.12 1</color></specular><shininess><float>25</float></shininess></phong></technique></profile_COMMON></effect><effect id="lens-fx"><profile_COMMON><technique sid="common"><phong><emission><color>0 0 0 1</color></emission><ambient><color>0.05 0.26 0.33 1</color></ambient><diffuse><color>0.05 0.26 0.33 1</color></diffuse><specular><color>0.12 0.12 0.12 1</color></specular><shininess><float>25</float></shininess></phong></technique></profile_COMMON></effect></library_effects><library_materials><material id="graphite"><instance_effect url="#graphite-fx" /></material><material id="titanium"><instance_effect url="#titanium-fx" /></material><material id="ivory"><instance_effect url="#ivory-fx" /></material><material id="copper"><instance_effect url="#copper-fx" /></material><material id="rubber"><instance_effect url="#rubber-fx" /></material><material id="lens"><instance_effect url="#lens-fx" /></material></library_materials><library_geometries><geometry id="mesh0"><mesh><source id="mesh0-positions"><float_array id="mesh0-array" count="144">-0.05999999865889549 -1.4432898790731443e-17 0.019999995827674866 0.05999999865889549 -1.4432898790731443e-17 0.019999995827674866 -0.05999999865889549 0.016823237761855125 0.017785176634788513 0.05999999865889549 0.016823237761855125 0.017785176634788513 -0.05999999865889549 0.032499998807907104 0.011291645467281342 0.05999999865889549 0.032499998807907104 0.011291645467281342 -0.05999999865889549 0.04596193879842758 0.0009619370102882385 0.05999999865889549 0.04596193879842758 0.0009619370102882385 -0.05999999865889549 0.056291647255420685 -0.012500002980232239 0.05999999865889549 0.056291647255420685 -0.012500002980232239 -0.05999999865889549 0.06278517842292786 -0.028176764026284218 0.05999999865889549 0.06278517842292786 -0.028176764026284218 -0.05999999865889549 0.06499999761581421 -0.04500000178813934 0.05999999865889549 0.06499999761581421 -0.04500000178813934 -0.05999999865889549 0.06278517842292786 -0.06182323768734932 0.05999999865889549 0.06278517842292786 -0.06182324141263962 -0.05999999865889549 0.056291647255420685 -0.07750000059604645 0.05999999865889549 0.056291647255420685 -0.07750000059604645 -0.05999999865889549 0.04596193879842758 -0.09096194058656693 0.05999999865889549 0.04596193879842758 -0.09096194058656693 -0.05999999865889549 0.032499998807907104 -0.10129164904356003 0.05999999865889549 0.032499998807907104 -0.10129164904356003 -0.05999999865889549 0.016823237761855125 -0.1077851802110672 0.05999999865889549 0.016823237761855125 -0.1077851802110672 -0.05999999865889549 1.4432898790731443e-17 -0.10999999940395355 0.05999999865889549 1.4432898790731443e-17 -0.10999999940395355 -0.05999999865889549 -0.016823237761855125 -0.1077851802110672 0.05999999865889549 -0.016823237761855125 -0.1077851802110672 -0.05999999865889549 -0.032499998807907104 -0.10129164904356003 0.05999999865889549 -0.032499998807907104 -0.10129164904356003 -0.05999999865889549 -0.04596193879842758 -0.09096194058656693 0.05999999865889549 -0.04596193879842758 -0.09096194058656693 -0.05999999865889549 -0.056291647255420685 -0.07750000059604645 0.05999999865889549 -0.056291647255420685 -0.07750000059604645 -0.05999999865889549 -0.06278517842292786 -0.06182323768734932 0.05999999865889549 -0.06278517842292786 -0.06182324141263962 -0.05999999865889549 -0.06499999761581421 -0.04500000178813934 0.05999999865889549 -0.06499999761581421 -0.04500000178813934 -0.05999999865889549 -0.06278517842292786 -0.028176764026284218 0.05999999865889549 -0.06278517842292786 -0.028176764026284218 -0.05999999865889549 -0.056291647255420685 -0.012500002980232239 0.05999999865889549 -0.056291647255420685 -0.012500002980232239 -0.05999999865889549 -0.04596193879842758 0.0009619370102882385 0.05999999865889549 -0.04596193879842758 0.0009619370102882385 -0.05999999865889549 -0.032499998807907104 0.011291645467281342 0.05999999865889549 -0.032499998807907104 0.011291645467281342 -0.05999999865889549 -0.016823237761855125 0.017785176634788513 0.05999999865889549 -0.016823237761855125 0.017785176634788513</float_array><technique_common><accessor source="#mesh0-array" count="48" stride="3"><param name="X" type="float" /><param name="Y" type="float" /><param name="Z" type="float" /></accessor></technique_common></source><source id="mesh0-normals"><float_array id="mesh0-normals-array" count="276">2.2014500119191553e-16 0.1305260807275772 0.9914449453353882 2.2014500119191553e-16 0.1305260807275772 0.9914449453353882 2.0514245950926577e-16 0.3826836943626404 0.9238795042037964 2.0514245950926577e-16 0.3826836943626404 0.9238795042037964 1.761598375555308e-16 0.6087613701820374 0.7933533787727356 1.761598375555308e-16 0.6087613701820374 0.7933533787727356 1.3517217793569122e-16 0.7933533787727356 0.6087613701820374 1.3517217793569122e-16 0.7933533787727356 0.6087613701820374 8.497284972600391e-17 0.9238795042037964 0.3826836943626404 8.497284972600391e-17 0.9238795042037964 0.3826836943626404 2.8982612027567625e-17 0.9914449453353882 0.1305260807275772 2.8982612027567625e-17 0.9914449453353882 0.1305260807275772 -2.8982612027567625e-17 0.9914449453353882 -0.1305260807275772 -2.8982612027567625e-17 0.9914449453353882 -0.1305260807275772 -8.497284972600391e-17 0.9238795042037964 -0.3826836943626404 -8.497284972600391e-17 0.9238795042037964 -0.3826836943626404 -1.3517217793569122e-16 0.7933533787727356 -0.6087613701820374 -1.3517217793569122e-16 0.7933533787727356 -0.6087613701820374 -1.761598375555308e-16 0.6087613701820374 -0.7933533787727356 -1.761598375555308e-16 0.6087613701820374 -0.7933533787727356 -2.0514245950926577e-16 0.3826836943626404 -0.9238795042037964 -2.0514245950926577e-16 0.3826836943626404 -0.9238795042037964 -2.2014500119191553e-16 0.1305260807275772 -0.9914449453353882 -2.2014500119191553e-16 0.1305260807275772 -0.9914449453353882 -2.2014500119191553e-16 -0.1305260807275772 -0.9914449453353882 -2.2014500119191553e-16 -0.1305260807275772 -0.9914449453353882 -2.0514245950926577e-16 -0.3826836943626404 -0.9238795042037964 -2.0514245950926577e-16 -0.3826836943626404 -0.9238795042037964 -1.761598375555308e-16 -0.6087613701820374 -0.7933533787727356 -1.761598375555308e-16 -0.6087613701820374 -0.7933533787727356 -1.3517217793569122e-16 -0.7933533787727356 -0.6087613701820374 -1.3517217793569122e-16 -0.7933533787727356 -0.6087613701820374 -8.497284972600391e-17 -0.9238795042037964 -0.3826836943626404 -8.497284972600391e-17 -0.9238795042037964 -0.3826836943626404 -2.8982612027567625e-17 -0.9914449453353882 -0.1305260807275772 -2.8982612027567625e-17 -0.9914449453353882 -0.1305260807275772 2.8982612027567625e-17 -0.9914449453353882 0.1305260807275772 2.8982612027567625e-17 -0.9914449453353882 0.1305260807275772 8.497284972600391e-17 -0.9238795042037964 0.3826836943626404 8.497284972600391e-17 -0.9238795042037964 0.3826836943626404 1.3517217793569122e-16 -0.7933533787727356 0.6087613701820374 1.3517217793569122e-16 -0.7933533787727356 0.6087613701820374 1.761598375555308e-16 -0.6087613701820374 0.7933533787727356 1.761598375555308e-16 -0.6087613701820374 0.7933533787727356 1.0 2.220446049250313e-16 4.930380657631324e-32 1.0 2.220446049250313e-16 4.930380657631324e-32 1.0 2.220446049250313e-16 4.930380657631324e-32 1.0 2.220446049250313e-16 4.930380657631324e-32 1.0 2.220446049250313e-16 4.930380657631324e-32 1.0 2.220446049250313e-16 4.930380657631324e-32 1.0 2.220446049250313e-16 4.930380657631324e-32 1.0 2.220446049250313e-16 4.930380657631324e-32 1.0 2.220446049250313e-16 4.930380657631324e-32 1.0 2.220446049250313e-16 4.930380657631324e-32 1.0 2.220446049250313e-16 4.930380657631324e-32 1.0 2.220446049250313e-16 4.930380657631324e-32 1.0 2.220446049250313e-16 4.930380657631324e-32 1.0 2.220446049250313e-16 4.930380657631324e-32 1.0 2.220446049250313e-16 4.930380657631324e-32 1.0 2.220446049250313e-16 4.930380657631324e-32 1.0 2.220446049250313e-16 4.930380657631324e-32 1.0 2.220446049250313e-16 4.930380657631324e-32 1.0 2.220446049250313e-16 4.930380657631324e-32 1.0 2.220446049250313e-16 4.930380657631324e-32 1.0 2.220446049250313e-16 4.930380657631324e-32 1.0 2.220446049250313e-16 4.930380657631324e-32 2.0514245950926577e-16 -0.3826836943626404 0.9238795042037964 2.0514245950926577e-16 -0.3826836943626404 0.9238795042037964 2.2014500119191553e-16 -0.1305260807275772 0.9914449453353882 2.2014500119191553e-16 -0.1305260807275772 0.9914449453353882 -1.0 -2.220446049250313e-16 -4.930380657631324e-32 -1.0 -2.220446049250313e-16 -4.930380657631324e-32 -1.0 -2.220446049250313e-16 -4.930380657631324e-32 -1.0 -2.220446049250313e-16 -4.930380657631324e-32 -1.0 -2.220446049250313e-16 -4.930380657631324e-32 -1.0 -2.220446049250313e-16 -4.930380657631324e-32 -1.0 -2.220446049250313e-16 -4.930380657631324e-32 -1.0 -2.220446049250313e-16 -4.930380657631324e-32 -1.0 -2.220446049250313e-16 -4.930380657631324e-32 -1.0 -2.220446049250313e-16 -4.930380657631324e-32 -1.0 -2.220446049250313e-16 -4.930380657631324e-32 -1.0 -2.220446049250313e-16 -4.930380657631324e-32 -1.0 -2.220446049250313e-16 -4.930380657631324e-32 -1.0 -2.220446049250313e-16 -4.930380657631324e-32 -1.0 -2.220446049250313e-16 -4.930380657631324e-32 -1.0 -2.220446049250313e-16 -4.930380657631324e-32 -1.0 -2.220446049250313e-16 -4.930380657631324e-32 -1.0 -2.220446049250313e-16 -4.930380657631324e-32 -1.0 -2.220446049250313e-16 -4.930380657631324e-32 -1.0 -2.220446049250313e-16 -4.930380657631324e-32 -1.0 -2.220446049250313e-16 -4.930380657631324e-32 -1.0 -2.220446049250313e-16 -4.930380657631324e-32</float_array><technique_common><accessor source="#mesh0-normals-array" count="92" stride="3"><param name="X" type="float" /><param name="Y" type="float" /><param name="Z" type="float" /></accessor></technique_common></source><vertices id="mesh0-vertices"><input semantic="POSITION" source="#mesh0-positions" /></vertices><triangles count="92" material="graphite"><input semantic="VERTEX" source="#mesh0-vertices" offset="0" /><input semantic="NORMAL" source="#mesh0-normals" offset="1" /><p>0 0 1 0 3 0 0 1 3 1 2 1 2 2 3 2 5 2 2 3 5 3 4 3 4 4 5 4 7 4 4 5 7 5 6 5 6 6 7 6 9 6 6 7 9 7 8 7 8 8 9 8 11 8 8 9 11 9 10 9 10 10 11 10 13 10 10 11 13 11 12 11 12 12 13 12 15 12 12 13 15 13 14 13 14 14 15 14 17 14 14 15 17 15 16 15 16 16 17 16 19 16 16 17 19 17 18 17 18 18 19 18 21 18 18 19 21 19 20 19 20 20 21 20 23 20 20 21 23 21 22 21 22 22 23 22 25 22 22 23 25 23 24 23 24 24 25 24 27 24 24 25 27 25 26 25 26 26 27 26 29 26 26 27 29 27 28 27 28 28 29 28 31 28 28 29 31 29 30 29 30 30 31 30 33 30 30 31 33 31 32 31 32 32 33 32 35 32 32 33 35 33 34 33 34 34 35 34 37 34 34 35 37 35 36 35 36 36 37 36 39 36 36 37 39 37 38 37 38 38 39 38 41 38 38 39 41 39 40 39 40 40 41 40 43 40 40 41 43 41 42 41 42 42 43 42 45 42 42 43 45 43 44 43 5 44 3 44 1 44 1 45 47 45 45 45 45 46 43 46 41 46 41 47 39 47 37 47 37 48 35 48 33 48 33 49 31 49 29 49 29 50 27 50 25 50 25 51 23 51 21 51 21 52 19 52 17 52 17 53 15 53 13 53 13 54 11 54 9 54 9 55 7 55 5 55 5 56 1 56 45 56 45 57 41 57 37 57 37 58 33 58 29 58 29 59 25 59 21 59 21 60 17 60 13 60 13 61 9 61 5 61 5 62 45 62 37 62 37 63 29 63 21 63 21 64 13 64 5 64 37 65 21 65 5 65 44 66 45 66 47 66 44 67 47 67 46 67 46 68 47 68 1 68 46 69 1 69 0 69 46 70 0 70 2 70 2 71 4 71 6 71 6 72 8 72 10 72 10 73 12 73 14 73 14 74 16 74 18 74 18 75 20 75 22 75 22 76 24 76 26 76 26 77 28 77 30 77 30 78 32 78 34 78 34 79 36 79 38 79 38 80 40 80 42 80 42 81 44 81 46 81 46 82 2 82 6 82 6 83 10 83 14 83 14 84 18 84 22 84 22 85 26 85 30 85 30 86 34 86 38 86 38 87 42 87 46 87 46 88 6 88 14 88 14 89 22 89 30 89 30 90 38 90 46 90 14 91 30 91 46 91</p></triangles></mesh></geometry><geometry id="mesh1"><mesh><source id="mesh1-positions"><float_array id="mesh1-array" count="36">-0.07400000095367432 0.043549999594688416 -0.04100000113248825 -0.05400000512599945 0.043549999594688416 -0.04100000113248825 -0.07400000095367432 0.04701410233974457 -0.0430000014603138 -0.05400000512599945 0.04701410233974457 -0.0430000014603138 -0.07400000095367432 0.04701410233974457 -0.04700000211596489 -0.05400000512599945 0.04701410233974457 -0.04700000211596489 -0.07400000095367432 0.043549999594688416 -0.049000002443790436 -0.05400000512599945 0.043549999594688416 -0.049000002443790436 -0.07400000095367432 0.04008589684963226 -0.04700000211596489 -0.05400000512599945 0.04008589684963226 -0.04700000211596489 -0.07400000095367432 0.04008589684963226 -0.0430000014603138 -0.05400000512599945 0.04008589684963226 -0.0430000014603138</float_array><technique_common><accessor source="#mesh1-array" count="12" stride="3"><param name="X" type="float" /><param name="Y" type="float" /><param name="Z" type="float" /></accessor></technique_common></source><source id="mesh1-normals"><float_array id="mesh1-normals-array" count="60">1.9229626518697845e-16 0.4999999701976776 0.8660253882408142 1.9229626518697845e-16 0.4999999701976776 0.8660253882408142 4.930380657631324e-32 1.0 2.220446049250313e-16 4.930380657631324e-32 1.0 2.220446049250313e-16 -1.9229626518697845e-16 0.4999999701976776 -0.8660253882408142 -1.9229626518697845e-16 0.4999999701976776 -0.8660253882408142 -1.9229626518697845e-16 -0.4999999701976776 -0.8660253882408142 -1.9229626518697845e-16 -0.4999999701976776 -0.8660253882408142 1.0 2.220446049250313e-16 4.930380657631324e-32 1.0 2.220446049250313e-16 4.930380657631324e-32 1.0 2.220446049250313e-16 4.930380657631324e-32 1.0 2.220446049250313e-16 4.930380657631324e-32 -4.930380657631324e-32 -1.0 -2.220446049250313e-16 -4.930380657631324e-32 -1.0 -2.220446049250313e-16 1.9229626518697845e-16 -0.4999999701976776 0.8660253882408142 1.9229626518697845e-16 -0.4999999701976776 0.8660253882408142 -1.0 -2.220446049250313e-16 -4.930380657631324e-32 -1.0 -2.220446049250313e-16 -4.930380657631324e-32 -1.0 -2.220446049250313e-16 -4.930380657631324e-32 -1.0 -2.220446049250313e-16 -4.930380657631324e-32</float_array><technique_common><accessor source="#mesh1-normals-array" count="20" stride="3"><param name="X" type="float" /><param name="Y" type="float" /><param name="Z" type="float" /></accessor></technique_common></source><vertices id="mesh1-vertices"><input semantic="POSITION" source="#mesh1-positions" /></vertices><triangles count="20" material="graphite"><input semantic="VERTEX" source="#mesh1-vertices" offset="0" /><input semantic="NORMAL" source="#mesh1-normals" offset="1" /><p>0 0 1 0 3 0 0 1 3 1 2 1 2 2 3 2 5 2 2 3 5 3 4 3 4 4 5 4 7 4 4 5 7 5 6 5 6 6 7 6 9 6 6 7 9 7 8 7 5 8 3 8 1 8 1 9 11 9 9 9 9 10 7 10 5 10 1 11 9 11 5 11 8 12 9 12 11 12 8 13 11 13 10 13 10 14 11 14 1 14 10 15 1 15 0 15 10 16 0 16 2 16 2 17 4 17 6 17 6 18 8 18 10 18 2 19 6 19 10 19</p></triangles></mesh></geometry><geometry id="mesh2"><mesh><source id="mesh2-positions"><float_array id="mesh2-array" count="36">-0.07400000095367432 0.021774999797344208 -0.003284596372395754 -0.05400000512599945 0.021774999797344208 -0.003284596372395754 -0.07400000095367432 0.02523910254240036 -0.005284596234560013 -0.05400000512599945 0.02523910254240036 -0.0052845967002213 -0.07400000095367432 0.02523910254240036 -0.009284596890211105 -0.05400000512599945 0.02523910254240036 -0.009284596890211105 -0.07400000095367432 0.021774999797344208 -0.011284596286714077 -0.05400000512599945 0.021774999797344208 -0.011284597218036652 -0.07400000095367432 0.018310897052288055 -0.009284596890211105 -0.05400000512599945 0.018310897052288055 -0.009284596890211105 -0.07400000095367432 0.018310897052288055 -0.005284596234560013 -0.05400000512599945 0.018310897052288055 -0.0052845967002213</float_array><technique_common><accessor source="#mesh2-array" count="12" stride="3"><param name="X" type="float" /><param name="Y" type="float" /><param name="Z" type="float" /></accessor></technique_common></source><source id="mesh2-normals"><float_array id="mesh2-normals-array" count="60">1.9229626518697845e-16 0.4999999701976776 0.8660253882408142 1.9229626518697845e-16 0.4999999701976776 0.8660253882408142 4.930380657631324e-32 1.0 2.220446049250313e-16 4.930380657631324e-32 1.0 2.220446049250313e-16 -1.9229626518697845e-16 0.4999999701976776 -0.8660253882408142 -1.9229626518697845e-16 0.4999999701976776 -0.8660253882408142 -1.9229626518697845e-16 -0.4999999701976776 -0.8660253882408142 -1.9229626518697845e-16 -0.4999999701976776 -0.8660253882408142 1.0 2.220446049250313e-16 4.930380657631324e-32 1.0 2.220446049250313e-16 4.930380657631324e-32 1.0 2.220446049250313e-16 4.930380657631324e-32 1.0 2.220446049250313e-16 4.930380657631324e-32 -4.930380657631324e-32 -1.0 -2.220446049250313e-16 -4.930380657631324e-32 -1.0 -2.220446049250313e-16 1.9229626518697845e-16 -0.4999999701976776 0.8660253882408142 1.9229626518697845e-16 -0.4999999701976776 0.8660253882408142 -1.0 -2.220446049250313e-16 -4.930380657631324e-32 -1.0 -2.220446049250313e-16 -4.930380657631324e-32 -1.0 -2.220446049250313e-16 -4.930380657631324e-32 -1.0 -2.220446049250313e-16 -4.930380657631324e-32</float_array><technique_common><accessor source="#mesh2-normals-array" count="20" stride="3"><param name="X" type="float" /><param name="Y" type="float" /><param name="Z" type="float" /></accessor></technique_common></source><vertices id="mesh2-vertices"><input semantic="POSITION" source="#mesh2-positions" /></vertices><triangles count="20" material="graphite"><input semantic="VERTEX" source="#mesh2-vertices" offset="0" /><input semantic="NORMAL" source="#mesh2-normals" offset="1" /><p>0 0 1 0 3 0 0 1 3 1 2 1 2 2 3 2 5 2 2 3 5 3 4 3 4 4 5 4 7 4 4 5 7 5 6 5 6 6 7 6 9 6 6 7 9 7 8 7 5 8 3 8 1 8 1 9 11 9 9 9 9 10 7 10 5 10 1 11 9 11 5 11 8 12 9 12 11 12 8 13 11 13 10 13 10 14 11 14 1 14 10 15 1 15 0 15 10 16 0 16 2 16 2 17 4 17 6 17 6 18 8 18 10 18 2 19 6 19 10 19</p></triangles></mesh></geometry><geometry id="mesh3"><mesh><source id="mesh3-positions"><float_array id="mesh3-array" count="36">-0.07400000095367432 -0.021774999797344208 -0.003284596372395754 -0.05400000512599945 -0.021774999797344208 -0.003284596372395754 -0.07400000095367432 -0.018310897052288055 -0.005284596234560013 -0.05400000512599945 -0.018310897052288055 -0.0052845967002213 -0.07400000095367432 -0.018310897052288055 -0.009284596890211105 -0.05400000512599945 -0.018310897052288055 -0.009284596890211105 -0.07400000095367432 -0.021774999797344208 -0.011284596286714077 -0.05400000512599945 -0.021774999797344208 -0.011284597218036652 -0.07400000095367432 -0.02523910254240036 -0.009284596890211105 -0.05400000512599945 -0.02523910254240036 -0.009284596890211105 -0.07400000095367432 -0.02523910254240036 -0.005284596234560013 -0.05400000512599945 -0.02523910254240036 -0.0052845967002213</float_array><technique_common><accessor source="#mesh3-array" count="12" stride="3"><param name="X" type="float" /><param name="Y" type="float" /><param name="Z" type="float" /></accessor></technique_common></source><source id="mesh3-normals"><float_array id="mesh3-normals-array" count="60">1.9229626518697845e-16 0.4999999701976776 0.8660253882408142 1.9229626518697845e-16 0.4999999701976776 0.8660253882408142 4.930380657631324e-32 1.0 2.220446049250313e-16 4.930380657631324e-32 1.0 2.220446049250313e-16 -1.9229626518697845e-16 0.4999999701976776 -0.8660253882408142 -1.9229626518697845e-16 0.4999999701976776 -0.8660253882408142 -1.9229626518697845e-16 -0.4999999701976776 -0.8660253882408142 -1.9229626518697845e-16 -0.4999999701976776 -0.8660253882408142 1.0 2.220446049250313e-16 4.930380657631324e-32 1.0 2.220446049250313e-16 4.930380657631324e-32 1.0 2.220446049250313e-16 4.930380657631324e-32 1.0 2.220446049250313e-16 4.930380657631324e-32 -4.930380657631324e-32 -1.0 -2.220446049250313e-16 -4.930380657631324e-32 -1.0 -2.220446049250313e-16 1.9229626518697845e-16 -0.4999999701976776 0.8660253882408142 1.9229626518697845e-16 -0.4999999701976776 0.8660253882408142 -1.0 -2.220446049250313e-16 -4.930380657631324e-32 -1.0 -2.220446049250313e-16 -4.930380657631324e-32 -1.0 -2.220446049250313e-16 -4.930380657631324e-32 -1.0 -2.220446049250313e-16 -4.930380657631324e-32</float_array><technique_common><accessor source="#mesh3-normals-array" count="20" stride="3"><param name="X" type="float" /><param name="Y" type="float" /><param name="Z" type="float" /></accessor></technique_common></source><vertices id="mesh3-vertices"><input semantic="POSITION" source="#mesh3-positions" /></vertices><triangles count="20" material="graphite"><input semantic="VERTEX" source="#mesh3-vertices" offset="0" /><input semantic="NORMAL" source="#mesh3-normals" offset="1" /><p>0 0 1 0 3 0 0 1 3 1 2 1 2 2 3 2 5 2 2 3 5 3 4 3 4 4 5 4 7 4 4 5 7 5 6 5 6 6 7 6 9 6 6 7 9 7 8 7 5 8 3 8 1 8 1 9 11 9 9 9 9 10 7 10 5 10 1 11 9 11 5 11 8 12 9 12 11 12 8 13 11 13 10 13 10 14 11 14 1 14 10 15 1 15 0 15 10 16 0 16 2 16 2 17 4 17 6 17 6 18 8 18 10 18 2 19 6 19 10 19</p></triangles></mesh></geometry><geometry id="mesh4"><mesh><source id="mesh4-positions"><float_array id="mesh4-array" count="36">-0.07400000095367432 -0.043549999594688416 -0.04100000113248825 -0.05400000512599945 -0.043549999594688416 -0.04100000113248825 -0.07400000095367432 -0.04008589684963226 -0.0430000014603138 -0.05400000512599945 -0.04008589684963226 -0.0430000014603138 -0.07400000095367432 -0.04008589684963226 -0.04700000211596489 -0.05400000512599945 -0.04008589684963226 -0.04700000211596489 -0.07400000095367432 -0.043549999594688416 -0.049000002443790436 -0.05400000512599945 -0.043549999594688416 -0.049000002443790436 -0.07400000095367432 -0.04701410233974457 -0.04700000211596489 -0.05400000512599945 -0.04701410233974457 -0.04700000211596489 -0.07400000095367432 -0.04701410233974457 -0.0430000014603138 -0.05400000512599945 -0.04701410233974457 -0.0430000014603138</float_array><technique_common><accessor source="#mesh4-array" count="12" stride="3"><param name="X" type="float" /><param name="Y" type="float" /><param name="Z" type="float" /></accessor></technique_common></source><source id="mesh4-normals"><float_array id="mesh4-normals-array" count="60">1.9229626518697845e-16 0.4999999701976776 0.8660253882408142 1.9229626518697845e-16 0.4999999701976776 0.8660253882408142 4.930380657631324e-32 1.0 2.220446049250313e-16 4.930380657631324e-32 1.0 2.220446049250313e-16 -1.9229626518697845e-16 0.4999999701976776 -0.8660253882408142 -1.9229626518697845e-16 0.4999999701976776 -0.8660253882408142 -1.9229626518697845e-16 -0.4999999701976776 -0.8660253882408142 -1.9229626518697845e-16 -0.4999999701976776 -0.8660253882408142 1.0 2.220446049250313e-16 4.930380657631324e-32 1.0 2.220446049250313e-16 4.930380657631324e-32 1.0 2.220446049250313e-16 4.930380657631324e-32 1.0 2.220446049250313e-16 4.930380657631324e-32 -4.930380657631324e-32 -1.0 -2.220446049250313e-16 -4.930380657631324e-32 -1.0 -2.220446049250313e-16 1.9229626518697845e-16 -0.4999999701976776 0.8660253882408142 1.9229626518697845e-16 -0.4999999701976776 0.8660253882408142 -1.0 -2.220446049250313e-16 -4.930380657631324e-32 -1.0 -2.220446049250313e-16 -4.930380657631324e-32 -1.0 -2.220446049250313e-16 -4.930380657631324e-32 -1.0 -2.220446049250313e-16 -4.930380657631324e-32</float_array><technique_common><accessor source="#mesh4-normals-array" count="20" stride="3"><param name="X" type="float" /><param name="Y" type="float" /><param name="Z" type="float" /></accessor></technique_common></source><vertices id="mesh4-vertices"><input semantic="POSITION" source="#mesh4-positions" /></vertices><triangles count="20" material="graphite"><input semantic="VERTEX" source="#mesh4-vertices" offset="0" /><input semantic="NORMAL" source="#mesh4-normals" offset="1" /><p>0 0 1 0 3 0 0 1 3 1 2 1 2 2 3 2 5 2 2 3 5 3 4 3 4 4 5 4 7 4 4 5 7 5 6 5 6 6 7 6 9 6 6 7 9 7 8 7 5 8 3 8 1 8 1 9 11 9 9 9 9 10 7 10 5 10 1 11 9 11 5 11 8 12 9 12 11 12 8 13 11 13 10 13 10 14 11 14 1 14 10 15 1 15 0 15 10 16 0 16 2 16 2 17 4 17 6 17 6 18 8 18 10 18 2 19 6 19 10 19</p></triangles></mesh></geometry><geometry id="mesh5"><mesh><source id="mesh5-positions"><float_array id="mesh5-array" count="36">-0.07400000095367432 -0.021774999797344208 -0.07871540635824203 -0.05400000512599945 -0.021774999797344208 -0.07871540635824203 -0.07400000095367432 -0.018310897052288055 -0.08071541041135788 -0.05400000512599945 -0.018310897052288055 -0.08071541041135788 -0.07400000095367432 -0.018310897052288055 -0.08471540361642838 -0.05400000512599945 -0.018310897052288055 -0.08471540361642838 -0.07400000095367432 -0.021774999797344208 -0.08671540766954422 -0.05400000512599945 -0.021774999797344208 -0.08671540766954422 -0.07400000095367432 -0.02523910254240036 -0.08471540361642838 -0.05400000512599945 -0.02523910254240036 -0.08471540361642838 -0.07400000095367432 -0.02523910254240036 -0.08071541041135788 -0.05400000512599945 -0.02523910254240036 -0.08071541041135788</float_array><technique_common><accessor source="#mesh5-array" count="12" stride="3"><param name="X" type="float" /><param name="Y" type="float" /><param name="Z" type="float" /></accessor></technique_common></source><source id="mesh5-normals"><float_array id="mesh5-normals-array" count="60">1.9229626518697845e-16 0.4999999701976776 0.8660253882408142 1.9229626518697845e-16 0.4999999701976776 0.8660253882408142 4.930380657631324e-32 1.0 2.220446049250313e-16 4.930380657631324e-32 1.0 2.220446049250313e-16 -1.9229626518697845e-16 0.4999999701976776 -0.8660253882408142 -1.9229626518697845e-16 0.4999999701976776 -0.8660253882408142 -1.9229626518697845e-16 -0.4999999701976776 -0.8660253882408142 -1.9229626518697845e-16 -0.4999999701976776 -0.8660253882408142 1.0 2.220446049250313e-16 4.930380657631324e-32 1.0 2.220446049250313e-16 4.930380657631324e-32 1.0 2.220446049250313e-16 4.930380657631324e-32 1.0 2.220446049250313e-16 4.930380657631324e-32 -4.930380657631324e-32 -1.0 -2.220446049250313e-16 -4.930380657631324e-32 -1.0 -2.220446049250313e-16 1.9229626518697845e-16 -0.4999999701976776 0.8660253882408142 1.9229626518697845e-16 -0.4999999701976776 0.8660253882408142 -1.0 -2.220446049250313e-16 -4.930380657631324e-32 -1.0 -2.220446049250313e-16 -4.930380657631324e-32 -1.0 -2.220446049250313e-16 -4.930380657631324e-32 -1.0 -2.220446049250313e-16 -4.930380657631324e-32</float_array><technique_common><accessor source="#mesh5-normals-array" count="20" stride="3"><param name="X" type="float" /><param name="Y" type="float" /><param name="Z" type="float" /></accessor></technique_common></source><vertices id="mesh5-vertices"><input semantic="POSITION" source="#mesh5-positions" /></vertices><triangles count="20" material="graphite"><input semantic="VERTEX" source="#mesh5-vertices" offset="0" /><input semantic="NORMAL" source="#mesh5-normals" offset="1" /><p>0 0 1 0 3 0 0 1 3 1 2 1 2 2 3 2 5 2 2 3 5 3 4 3 4 4 5 4 7 4 4 5 7 5 6 5 6 6 7 6 9 6 6 7 9 7 8 7 5 8 3 8 1 8 1 9 11 9 9 9 9 10 7 10 5 10 1 11 9 11 5 11 8 12 9 12 11 12 8 13 11 13 10 13 10 14 11 14 1 14 10 15 1 15 0 15 10 16 0 16 2 16 2 17 4 17 6 17 6 18 8 18 10 18 2 19 6 19 10 19</p></triangles></mesh></geometry><geometry id="mesh6"><mesh><source id="mesh6-positions"><float_array id="mesh6-array" count="36">-0.07400000095367432 0.021774999797344208 -0.07871540635824203 -0.05400000512599945 0.021774999797344208 -0.07871540635824203 -0.07400000095367432 0.02523910254240036 -0.08071541041135788 -0.05400000512599945 0.02523910254240036 -0.08071541041135788 -0.07400000095367432 0.02523910254240036 -0.08471540361642838 -0.05400000512599945 0.02523910254240036 -0.08471540361642838 -0.07400000095367432 0.021774999797344208 -0.08671540766954422 -0.05400000512599945 0.021774999797344208 -0.08671540766954422 -0.07400000095367432 0.018310897052288055 -0.08471540361642838 -0.05400000512599945 0.018310897052288055 -0.08471540361642838 -0.07400000095367432 0.018310897052288055 -0.08071541041135788 -0.05400000512599945 0.018310897052288055 -0.08071541041135788</float_array><technique_common><accessor source="#mesh6-array" count="12" stride="3"><param name="X" type="float" /><param name="Y" type="float" /><param name="Z" type="float" /></accessor></technique_common></source><source id="mesh6-normals"><float_array id="mesh6-normals-array" count="60">1.9229626518697845e-16 0.4999999701976776 0.8660253882408142 1.9229626518697845e-16 0.4999999701976776 0.8660253882408142 4.930380657631324e-32 1.0 2.220446049250313e-16 4.930380657631324e-32 1.0 2.220446049250313e-16 -1.9229626518697845e-16 0.4999999701976776 -0.8660253882408142 -1.9229626518697845e-16 0.4999999701976776 -0.8660253882408142 -1.9229626518697845e-16 -0.4999999701976776 -0.8660253882408142 -1.9229626518697845e-16 -0.4999999701976776 -0.8660253882408142 1.0 2.220446049250313e-16 4.930380657631324e-32 1.0 2.220446049250313e-16 4.930380657631324e-32 1.0 2.220446049250313e-16 4.930380657631324e-32 1.0 2.220446049250313e-16 4.930380657631324e-32 -4.930380657631324e-32 -1.0 -2.220446049250313e-16 -4.930380657631324e-32 -1.0 -2.220446049250313e-16 1.9229626518697845e-16 -0.4999999701976776 0.8660253882408142 1.9229626518697845e-16 -0.4999999701976776 0.8660253882408142 -1.0 -2.220446049250313e-16 -4.930380657631324e-32 -1.0 -2.220446049250313e-16 -4.930380657631324e-32 -1.0 -2.220446049250313e-16 -4.930380657631324e-32 -1.0 -2.220446049250313e-16 -4.930380657631324e-32</float_array><technique_common><accessor source="#mesh6-normals-array" count="20" stride="3"><param name="X" type="float" /><param name="Y" type="float" /><param name="Z" type="float" /></accessor></technique_common></source><vertices id="mesh6-vertices"><input semantic="POSITION" source="#mesh6-positions" /></vertices><triangles count="20" material="graphite"><input semantic="VERTEX" source="#mesh6-vertices" offset="0" /><input semantic="NORMAL" source="#mesh6-normals" offset="1" /><p>0 0 1 0 3 0 0 1 3 1 2 1 2 2 3 2 5 2 2 3 5 3 4 3 4 4 5 4 7 4 4 5 7 5 6 5 6 6 7 6 9 6 6 7 9 7 8 7 5 8 3 8 1 8 1 9 11 9 9 9 9 10 7 10 5 10 1 11 9 11 5 11 8 12 9 12 11 12 8 13 11 13 10 13 10 14 11 14 1 14 10 15 1 15 0 15 10 16 0 16 2 16 2 17 4 17 6 17 6 18 8 18 10 18 2 19 6 19 10 19</p></triangles></mesh></geometry><geometry id="mesh7"><mesh><source id="mesh7-positions"><float_array id="mesh7-array" count="36">0.05400000512599945 0.043549999594688416 -0.04100000113248825 0.07400000095367432 0.043549999594688416 -0.04100000113248825 0.05400000512599945 0.04701410233974457 -0.0430000014603138 0.07400000095367432 0.04701410233974457 -0.0430000014603138 0.05400000512599945 0.04701410233974457 -0.04700000211596489 0.07400000095367432 0.04701410233974457 -0.04700000211596489 0.05400000512599945 0.043549999594688416 -0.049000002443790436 0.07400000095367432 0.043549999594688416 -0.049000002443790436 0.05400000512599945 0.04008589684963226 -0.04700000211596489 0.07400000095367432 0.04008589684963226 -0.04700000211596489 0.05400000512599945 0.04008589684963226 -0.0430000014603138 0.07400000095367432 0.04008589684963226 -0.0430000014603138</float_array><technique_common><accessor source="#mesh7-array" count="12" stride="3"><param name="X" type="float" /><param name="Y" type="float" /><param name="Z" type="float" /></accessor></technique_common></source><source id="mesh7-normals"><float_array id="mesh7-normals-array" count="60">1.9229626518697845e-16 0.4999999701976776 0.8660253882408142 1.9229626518697845e-16 0.4999999701976776 0.8660253882408142 4.930380657631324e-32 1.0 2.220446049250313e-16 4.930380657631324e-32 1.0 2.220446049250313e-16 -1.9229626518697845e-16 0.4999999701976776 -0.8660253882408142 -1.9229626518697845e-16 0.4999999701976776 -0.8660253882408142 -1.9229626518697845e-16 -0.4999999701976776 -0.8660253882408142 -1.9229626518697845e-16 -0.4999999701976776 -0.8660253882408142 1.0 2.220446049250313e-16 4.930380657631324e-32 1.0 2.220446049250313e-16 4.930380657631324e-32 1.0 2.220446049250313e-16 4.930380657631324e-32 1.0 2.220446049250313e-16 4.930380657631324e-32 -4.930380657631324e-32 -1.0 -2.220446049250313e-16 -4.930380657631324e-32 -1.0 -2.220446049250313e-16 1.9229626518697845e-16 -0.4999999701976776 0.8660253882408142 1.9229626518697845e-16 -0.4999999701976776 0.8660253882408142 -1.0 -2.220446049250313e-16 -4.930380657631324e-32 -1.0 -2.220446049250313e-16 -4.930380657631324e-32 -1.0 -2.220446049250313e-16 -4.930380657631324e-32 -1.0 -2.220446049250313e-16 -4.930380657631324e-32</float_array><technique_common><accessor source="#mesh7-normals-array" count="20" stride="3"><param name="X" type="float" /><param name="Y" type="float" /><param name="Z" type="float" /></accessor></technique_common></source><vertices id="mesh7-vertices"><input semantic="POSITION" source="#mesh7-positions" /></vertices><triangles count="20" material="graphite"><input semantic="VERTEX" source="#mesh7-vertices" offset="0" /><input semantic="NORMAL" source="#mesh7-normals" offset="1" /><p>0 0 1 0 3 0 0 1 3 1 2 1 2 2 3 2 5 2 2 3 5 3 4 3 4 4 5 4 7 4 4 5 7 5 6 5 6 6 7 6 9 6 6 7 9 7 8 7 5 8 3 8 1 8 1 9 11 9 9 9 9 10 7 10 5 10 1 11 9 11 5 11 8 12 9 12 11 12 8 13 11 13 10 13 10 14 11 14 1 14 10 15 1 15 0 15 10 16 0 16 2 16 2 17 4 17 6 17 6 18 8 18 10 18 2 19 6 19 10 19</p></triangles></mesh></geometry><geometry id="mesh8"><mesh><source id="mesh8-positions"><float_array id="mesh8-array" count="36">0.05400000512599945 0.021774999797344208 -0.003284596372395754 0.07400000095367432 0.021774999797344208 -0.003284596372395754 0.05400000512599945 0.02523910254240036 -0.005284596234560013 0.07400000095367432 0.02523910254240036 -0.0052845967002213 0.05400000512599945 0.02523910254240036 -0.009284596890211105 0.07400000095367432 0.02523910254240036 -0.009284596890211105 0.05400000512599945 0.021774999797344208 -0.011284596286714077 0.07400000095367432 0.021774999797344208 -0.011284597218036652 0.05400000512599945 0.018310897052288055 -0.009284596890211105 0.07400000095367432 0.018310897052288055 -0.009284596890211105 0.05400000512599945 0.018310897052288055 -0.005284596234560013 0.07400000095367432 0.018310897052288055 -0.0052845967002213</float_array><technique_common><accessor source="#mesh8-array" count="12" stride="3"><param name="X" type="float" /><param name="Y" type="float" /><param name="Z" type="float" /></accessor></technique_common></source><source id="mesh8-normals"><float_array id="mesh8-normals-array" count="60">1.9229626518697845e-16 0.4999999701976776 0.8660253882408142 1.9229626518697845e-16 0.4999999701976776 0.8660253882408142 4.930380657631324e-32 1.0 2.220446049250313e-16 4.930380657631324e-32 1.0 2.220446049250313e-16 -1.9229626518697845e-16 0.4999999701976776 -0.8660253882408142 -1.9229626518697845e-16 0.4999999701976776 -0.8660253882408142 -1.9229626518697845e-16 -0.4999999701976776 -0.8660253882408142 -1.9229626518697845e-16 -0.4999999701976776 -0.8660253882408142 1.0 2.220446049250313e-16 4.930380657631324e-32 1.0 2.220446049250313e-16 4.930380657631324e-32 1.0 2.220446049250313e-16 4.930380657631324e-32 1.0 2.220446049250313e-16 4.930380657631324e-32 -4.930380657631324e-32 -1.0 -2.220446049250313e-16 -4.930380657631324e-32 -1.0 -2.220446049250313e-16 1.9229626518697845e-16 -0.4999999701976776 0.8660253882408142 1.9229626518697845e-16 -0.4999999701976776 0.8660253882408142 -1.0 -2.220446049250313e-16 -4.930380657631324e-32 -1.0 -2.220446049250313e-16 -4.930380657631324e-32 -1.0 -2.220446049250313e-16 -4.930380657631324e-32 -1.0 -2.220446049250313e-16 -4.930380657631324e-32</float_array><technique_common><accessor source="#mesh8-normals-array" count="20" stride="3"><param name="X" type="float" /><param name="Y" type="float" /><param name="Z" type="float" /></accessor></technique_common></source><vertices id="mesh8-vertices"><input semantic="POSITION" source="#mesh8-positions" /></vertices><triangles count="20" material="graphite"><input semantic="VERTEX" source="#mesh8-vertices" offset="0" /><input semantic="NORMAL" source="#mesh8-normals" offset="1" /><p>0 0 1 0 3 0 0 1 3 1 2 1 2 2 3 2 5 2 2 3 5 3 4 3 4 4 5 4 7 4 4 5 7 5 6 5 6 6 7 6 9 6 6 7 9 7 8 7 5 8 3 8 1 8 1 9 11 9 9 9 9 10 7 10 5 10 1 11 9 11 5 11 8 12 9 12 11 12 8 13 11 13 10 13 10 14 11 14 1 14 10 15 1 15 0 15 10 16 0 16 2 16 2 17 4 17 6 17 6 18 8 18 10 18 2 19 6 19 10 19</p></triangles></mesh></geometry><geometry id="mesh9"><mesh><source id="mesh9-positions"><float_array id="mesh9-array" count="36">0.05400000512599945 -0.021774999797344208 -0.003284596372395754 0.07400000095367432 -0.021774999797344208 -0.003284596372395754 0.05400000512599945 -0.018310897052288055 -0.005284596234560013 0.07400000095367432 -0.018310897052288055 -0.0052845967002213 0.05400000512599945 -0.018310897052288055 -0.009284596890211105 0.07400000095367432 -0.018310897052288055 -0.009284596890211105 0.05400000512599945 -0.021774999797344208 -0.011284596286714077 0.07400000095367432 -0.021774999797344208 -0.011284597218036652 0.05400000512599945 -0.02523910254240036 -0.009284596890211105 0.07400000095367432 -0.02523910254240036 -0.009284596890211105 0.05400000512599945 -0.02523910254240036 -0.005284596234560013 0.07400000095367432 -0.02523910254240036 -0.0052845967002213</float_array><technique_common><accessor source="#mesh9-array" count="12" stride="3"><param name="X" type="float" /><param name="Y" type="float" /><param name="Z" type="float" /></accessor></technique_common></source><source id="mesh9-normals"><float_array id="mesh9-normals-array" count="60">1.9229626518697845e-16 0.4999999701976776 0.8660253882408142 1.9229626518697845e-16 0.4999999701976776 0.8660253882408142 4.930380657631324e-32 1.0 2.220446049250313e-16 4.930380657631324e-32 1.0 2.220446049250313e-16 -1.9229626518697845e-16 0.4999999701976776 -0.8660253882408142 -1.9229626518697845e-16 0.4999999701976776 -0.8660253882408142 -1.9229626518697845e-16 -0.4999999701976776 -0.8660253882408142 -1.9229626518697845e-16 -0.4999999701976776 -0.8660253882408142 1.0 2.220446049250313e-16 4.930380657631324e-32 1.0 2.220446049250313e-16 4.930380657631324e-32 1.0 2.220446049250313e-16 4.930380657631324e-32 1.0 2.220446049250313e-16 4.930380657631324e-32 -4.930380657631324e-32 -1.0 -2.220446049250313e-16 -4.930380657631324e-32 -1.0 -2.220446049250313e-16 1.9229626518697845e-16 -0.4999999701976776 0.8660253882408142 1.9229626518697845e-16 -0.4999999701976776 0.8660253882408142 -1.0 -2.220446049250313e-16 -4.930380657631324e-32 -1.0 -2.220446049250313e-16 -4.930380657631324e-32 -1.0 -2.220446049250313e-16 -4.930380657631324e-32 -1.0 -2.220446049250313e-16 -4.930380657631324e-32</float_array><technique_common><accessor source="#mesh9-normals-array" count="20" stride="3"><param name="X" type="float" /><param name="Y" type="float" /><param name="Z" type="float" /></accessor></technique_common></source><vertices id="mesh9-vertices"><input semantic="POSITION" source="#mesh9-positions" /></vertices><triangles count="20" material="graphite"><input semantic="VERTEX" source="#mesh9-vertices" offset="0" /><input semantic="NORMAL" source="#mesh9-normals" offset="1" /><p>0 0 1 0 3 0 0 1 3 1 2 1 2 2 3 2 5 2 2 3 5 3 4 3 4 4 5 4 7 4 4 5 7 5 6 5 6 6 7 6 9 6 6 7 9 7 8 7 5 8 3 8 1 8 1 9 11 9 9 9 9 10 7 10 5 10 1 11 9 11 5 11 8 12 9 12 11 12 8 13 11 13 10 13 10 14 11 14 1 14 10 15 1 15 0 15 10 16 0 16 2 16 2 17 4 17 6 17 6 18 8 18 10 18 2 19 6 19 10 19</p></triangles></mesh></geometry><geometry id="mesh10"><mesh><source id="mesh10-positions"><float_array id="mesh10-array" count="36">0.05400000512599945 -0.043549999594688416 -0.04100000113248825 0.07400000095367432 -0.043549999594688416 -0.04100000113248825 0.05400000512599945 -0.04008589684963226 -0.0430000014603138 0.07400000095367432 -0.04008589684963226 -0.0430000014603138 0.05400000512599945 -0.04008589684963226 -0.04700000211596489 0.07400000095367432 -0.04008589684963226 -0.04700000211596489 0.05400000512599945 -0.043549999594688416 -0.049000002443790436 0.07400000095367432 -0.043549999594688416 -0.049000002443790436 0.05400000512599945 -0.04701410233974457 -0.04700000211596489 0.07400000095367432 -0.04701410233974457 -0.04700000211596489 0.05400000512599945 -0.04701410233974457 -0.0430000014603138 0.07400000095367432 -0.04701410233974457 -0.0430000014603138</float_array><technique_common><accessor source="#mesh10-array" count="12" stride="3"><param name="X" type="float" /><param name="Y" type="float" /><param name="Z" type="float" /></accessor></technique_common></source><source id="mesh10-normals"><float_array id="mesh10-normals-array" count="60">1.9229626518697845e-16 0.4999999701976776 0.8660253882408142 1.9229626518697845e-16 0.4999999701976776 0.8660253882408142 4.930380657631324e-32 1.0 2.220446049250313e-16 4.930380657631324e-32 1.0 2.220446049250313e-16 -1.9229626518697845e-16 0.4999999701976776 -0.8660253882408142 -1.9229626518697845e-16 0.4999999701976776 -0.8660253882408142 -1.9229626518697845e-16 -0.4999999701976776 -0.8660253882408142 -1.9229626518697845e-16 -0.4999999701976776 -0.8660253882408142 1.0 2.220446049250313e-16 4.930380657631324e-32 1.0 2.220446049250313e-16 4.930380657631324e-32 1.0 2.220446049250313e-16 4.930380657631324e-32 1.0 2.220446049250313e-16 4.930380657631324e-32 -4.930380657631324e-32 -1.0 -2.220446049250313e-16 -4.930380657631324e-32 -1.0 -2.220446049250313e-16 1.9229626518697845e-16 -0.4999999701976776 0.8660253882408142 1.9229626518697845e-16 -0.4999999701976776 0.8660253882408142 -1.0 -2.220446049250313e-16 -4.930380657631324e-32 -1.0 -2.220446049250313e-16 -4.930380657631324e-32 -1.0 -2.220446049250313e-16 -4.930380657631324e-32 -1.0 -2.220446049250313e-16 -4.930380657631324e-32</float_array><technique_common><accessor source="#mesh10-normals-array" count="20" stride="3"><param name="X" type="float" /><param name="Y" type="float" /><param name="Z" type="float" /></accessor></technique_common></source><vertices id="mesh10-vertices"><input semantic="POSITION" source="#mesh10-positions" /></vertices><triangles count="20" material="graphite"><input semantic="VERTEX" source="#mesh10-vertices" offset="0" /><input semantic="NORMAL" source="#mesh10-normals" offset="1" /><p>0 0 1 0 3 0 0 1 3 1 2 1 2 2 3 2 5 2 2 3 5 3 4 3 4 4 5 4 7 4 4 5 7 5 6 5 6 6 7 6 9 6 6 7 9 7 8 7 5 8 3 8 1 8 1 9 11 9 9 9 9 10 7 10 5 10 1 11 9 11 5 11 8 12 9 12 11 12 8 13 11 13 10 13 10 14 11 14 1 14 10 15 1 15 0 15 10 16 0 16 2 16 2 17 4 17 6 17 6 18 8 18 10 18 2 19 6 19 10 19</p></triangles></mesh></geometry><geometry id="mesh11"><mesh><source id="mesh11-positions"><float_array id="mesh11-array" count="36">0.05400000512599945 -0.021774999797344208 -0.07871540635824203 0.07400000095367432 -0.021774999797344208 -0.07871540635824203 0.05400000512599945 -0.018310897052288055 -0.08071541041135788 0.07400000095367432 -0.018310897052288055 -0.08071541041135788 0.05400000512599945 -0.018310897052288055 -0.08471540361642838 0.07400000095367432 -0.018310897052288055 -0.08471540361642838 0.05400000512599945 -0.021774999797344208 -0.08671540766954422 0.07400000095367432 -0.021774999797344208 -0.08671540766954422 0.05400000512599945 -0.02523910254240036 -0.08471540361642838 0.07400000095367432 -0.02523910254240036 -0.08471540361642838 0.05400000512599945 -0.02523910254240036 -0.08071541041135788 0.07400000095367432 -0.02523910254240036 -0.08071541041135788</float_array><technique_common><accessor source="#mesh11-array" count="12" stride="3"><param name="X" type="float" /><param name="Y" type="float" /><param name="Z" type="float" /></accessor></technique_common></source><source id="mesh11-normals"><float_array id="mesh11-normals-array" count="60">1.9229626518697845e-16 0.4999999701976776 0.8660253882408142 1.9229626518697845e-16 0.4999999701976776 0.8660253882408142 4.930380657631324e-32 1.0 2.220446049250313e-16 4.930380657631324e-32 1.0 2.220446049250313e-16 -1.9229626518697845e-16 0.4999999701976776 -0.8660253882408142 -1.9229626518697845e-16 0.4999999701976776 -0.8660253882408142 -1.9229626518697845e-16 -0.4999999701976776 -0.8660253882408142 -1.9229626518697845e-16 -0.4999999701976776 -0.8660253882408142 1.0 2.220446049250313e-16 4.930380657631324e-32 1.0 2.220446049250313e-16 4.930380657631324e-32 1.0 2.220446049250313e-16 4.930380657631324e-32 1.0 2.220446049250313e-16 4.930380657631324e-32 -4.930380657631324e-32 -1.0 -2.220446049250313e-16 -4.930380657631324e-32 -1.0 -2.220446049250313e-16 1.9229626518697845e-16 -0.4999999701976776 0.8660253882408142 1.9229626518697845e-16 -0.4999999701976776 0.8660253882408142 -1.0 -2.220446049250313e-16 -4.930380657631324e-32 -1.0 -2.220446049250313e-16 -4.930380657631324e-32 -1.0 -2.220446049250313e-16 -4.930380657631324e-32 -1.0 -2.220446049250313e-16 -4.930380657631324e-32</float_array><technique_common><accessor source="#mesh11-normals-array" count="20" stride="3"><param name="X" type="float" /><param name="Y" type="float" /><param name="Z" type="float" /></accessor></technique_common></source><vertices id="mesh11-vertices"><input semantic="POSITION" source="#mesh11-positions" /></vertices><triangles count="20" material="graphite"><input semantic="VERTEX" source="#mesh11-vertices" offset="0" /><input semantic="NORMAL" source="#mesh11-normals" offset="1" /><p>0 0 1 0 3 0 0 1 3 1 2 1 2 2 3 2 5 2 2 3 5 3 4 3 4 4 5 4 7 4 4 5 7 5 6 5 6 6 7 6 9 6 6 7 9 7 8 7 5 8 3 8 1 8 1 9 11 9 9 9 9 10 7 10 5 10 1 11 9 11 5 11 8 12 9 12 11 12 8 13 11 13 10 13 10 14 11 14 1 14 10 15 1 15 0 15 10 16 0 16 2 16 2 17 4 17 6 17 6 18 8 18 10 18 2 19 6 19 10 19</p></triangles></mesh></geometry><geometry id="mesh12"><mesh><source id="mesh12-positions"><float_array id="mesh12-array" count="36">0.05400000512599945 0.021774999797344208 -0.07871540635824203 0.07400000095367432 0.021774999797344208 -0.07871540635824203 0.05400000512599945 0.02523910254240036 -0.08071541041135788 0.07400000095367432 0.02523910254240036 -0.08071541041135788 0.05400000512599945 0.02523910254240036 -0.08471540361642838 0.07400000095367432 0.02523910254240036 -0.08471540361642838 0.05400000512599945 0.021774999797344208 -0.08671540766954422 0.07400000095367432 0.021774999797344208 -0.08671540766954422 0.05400000512599945 0.018310897052288055 -0.08471540361642838 0.07400000095367432 0.018310897052288055 -0.08471540361642838 0.05400000512599945 0.018310897052288055 -0.08071541041135788 0.07400000095367432 0.018310897052288055 -0.08071541041135788</float_array><technique_common><accessor source="#mesh12-array" count="12" stride="3"><param name="X" type="float" /><param name="Y" type="float" /><param name="Z" type="float" /></accessor></technique_common></source><source id="mesh12-normals"><float_array id="mesh12-normals-array" count="60">1.9229626518697845e-16 0.4999999701976776 0.8660253882408142 1.9229626518697845e-16 0.4999999701976776 0.8660253882408142 4.930380657631324e-32 1.0 2.220446049250313e-16 4.930380657631324e-32 1.0 2.220446049250313e-16 -1.9229626518697845e-16 0.4999999701976776 -0.8660253882408142 -1.9229626518697845e-16 0.4999999701976776 -0.8660253882408142 -1.9229626518697845e-16 -0.4999999701976776 -0.8660253882408142 -1.9229626518697845e-16 -0.4999999701976776 -0.8660253882408142 1.0 2.220446049250313e-16 4.930380657631324e-32 1.0 2.220446049250313e-16 4.930380657631324e-32 1.0 2.220446049250313e-16 4.930380657631324e-32 1.0 2.220446049250313e-16 4.930380657631324e-32 -4.930380657631324e-32 -1.0 -2.220446049250313e-16 -4.930380657631324e-32 -1.0 -2.220446049250313e-16 1.9229626518697845e-16 -0.4999999701976776 0.8660253882408142 1.9229626518697845e-16 -0.4999999701976776 0.8660253882408142 -1.0 -2.220446049250313e-16 -4.930380657631324e-32 -1.0 -2.220446049250313e-16 -4.930380657631324e-32 -1.0 -2.220446049250313e-16 -4.930380657631324e-32 -1.0 -2.220446049250313e-16 -4.930380657631324e-32</float_array><technique_common><accessor source="#mesh12-normals-array" count="20" stride="3"><param name="X" type="float" /><param name="Y" type="float" /><param name="Z" type="float" /></accessor></technique_common></source><vertices id="mesh12-vertices"><input semantic="POSITION" source="#mesh12-positions" /></vertices><triangles count="20" material="graphite"><input semantic="VERTEX" source="#mesh12-vertices" offset="0" /><input semantic="NORMAL" source="#mesh12-normals" offset="1" /><p>0 0 1 0 3 0 0 1 3 1 2 1 2 2 3 2 5 2 2 3 5 3 4 3 4 4 5 4 7 4 4 5 7 5 6 5 6 6 7 6 9 6 6 7 9 7 8 7 5 8 3 8 1 8 1 9 11 9 9 9 9 10 7 10 5 10 1 11 9 11 5 11 8 12 9 12 11 12 8 13 11 13 10 13 10 14 11 14 1 14 10 15 1 15 0 15 10 16 0 16 2 16 2 17 4 17 6 17 6 18 8 18 10 18 2 19 6 19 10 19</p></triangles></mesh></geometry></library_geometries><library_visual_scenes><visual_scene id="Scene"><node id="mesh0-node"><instance_geometry url="#mesh0"><bind_material><technique_common><instance_material symbol="graphite" target="#graphite" /></technique_common></bind_material></instance_geometry></node><node id="mesh1-node"><instance_geometry url="#mesh1"><bind_material><technique_common><instance_material symbol="graphite" target="#graphite" /></technique_common></bind_material></instance_geometry></node><node id="mesh2-node"><instance_geometry url="#mesh2"><bind_material><technique_common><instance_material symbol="graphite" target="#graphite" /></technique_common></bind_material></instance_geometry></node><node id="mesh3-node"><instance_geometry url="#mesh3"><bind_material><technique_common><instance_material symbol="graphite" target="#graphite" /></technique_common></bind_material></instance_geometry></node><node id="mesh4-node"><instance_geometry url="#mesh4"><bind_material><technique_common><instance_material symbol="graphite" target="#graphite" /></technique_common></bind_material></instance_geometry></node><node id="mesh5-node"><instance_geometry url="#mesh5"><bind_material><technique_common><instance_material symbol="graphite" target="#graphite" /></technique_common></bind_material></instance_geometry></node><node id="mesh6-node"><instance_geometry url="#mesh6"><bind_material><technique_common><instance_material symbol="graphite" target="#graphite" /></technique_common></bind_material></instance_geometry></node><node id="mesh7-node"><instance_geometry url="#mesh7"><bind_material><technique_common><instance_material symbol="graphite" target="#graphite" /></technique_common></bind_material></instance_geometry></node><node id="mesh8-node"><instance_geometry url="#mesh8"><bind_material><technique_common><instance_material symbol="graphite" target="#graphite" /></technique_common></bind_material></instance_geometry></node><node id="mesh9-node"><instance_geometry url="#mesh9"><bind_material><technique_common><instance_material symbol="graphite" target="#graphite" /></technique_common></bind_material></instance_geometry></node><node id="mesh10-node"><instance_geometry url="#mesh10"><bind_material><technique_common><instance_material symbol="graphite" target="#graphite" /></technique_common></bind_material></instance_geometry></node><node id="mesh11-node"><instance_geometry url="#mesh11"><bind_material><technique_common><instance_material symbol="graphite" target="#graphite" /></technique_common></bind_material></instance_geometry></node><node id="mesh12-node"><instance_geometry url="#mesh12"><bind_material><technique_common><instance_material symbol="graphite" target="#graphite" /></technique_common></bind_material></instance_geometry></node></visual_scene></library_visual_scenes><scene><instance_visual_scene url="#Scene" /></scene></COLLADA>