<?xml version='1.0' encoding='utf-8'?>
<COLLADA xmlns="http://www.collada.org/2005/11/COLLADASchema" version="1.4.1"><asset><unit name="meter" meter="1" /><up_axis>Z_UP</up_axis></asset><library_effects><effect id="graphite-fx"><profile_COMMON><technique sid="common"><phong><emission><color>0 0 0 1</color></emission><ambient><color>0.065 0.075 0.085 1</color></ambient><diffuse><color>0.065 0.075 0.085 1</color></diffuse><specular><color>0.12 0.12 0.12 1</color></specular><shininess><float>25</float></shininess></phong></technique></profile_COMMON></effect><effect id="titanium-fx"><profile_COMMON><technique sid="common"><phong><emission><color>0 0 0 1</color></emission><ambient><color>0.36 0.4 0.43 1</color></ambient><diffuse><color>0.36 0.4 0.43 1</color></diffuse><specular><color>0.12 0.12 0.12 1</color></specular><shininess><float>25</float></shininess></phong></technique></profile_COMMON></effect><effect id="ivory-fx"><profile_COMMON><technique sid="common"><phong><emission><color>0 0 0 1</color></emission><ambient><color>0.72 0.72 0.65 1</color></ambient><diffuse><color>0.72 0.72 0.65 1</color></diffuse><specular><color>0.12 0.12 0.12 1</color></specular><shininess><float>25</float></shininess></phong></technique></profile_COMMON></effect><effect id="copper-fx"><profile_COMMON><technique sid="common"><phong><emission><color>0 0 0 1</color></emission><ambient><color>0.66 0.29 0.08 1</color></ambient><diffuse><color>0.66 0.29 0.08 1</color></diffuse><specular><color>0.12 0.12 0.12 1</color></specular><shininess><float>25</float></shininess></phong></technique></profile_COMMON></effect><effect id="rubber-fx"><profile_COMMON><technique sid="common"><phong><emission><color>0 0 0 1</color></emission><ambient><color>0.025 0.028 0.032 1</color></ambient><diffuse><color>0.025 0.028 0.032 1</color></diffuse><specular><color>0.12 0.12 0.12 1</color></specular><shininess><float>25</float></shininess></phong></technique></profile_COMMON></effect><effect id="lens-fx"><profile_COMMON><technique sid="common"><phong><emission><color>0 0 0 1</color></emission><ambient><color>0.05 0.26 0.33 1</color></ambient><diffuse><color>0.05 0.26 0.33 1</color></diffuse><specular><color>0.12 0.12 0.12 1</color></specular><shininess><float>25</float></shininess></phong></technique></profile_COMMON></effect></library_effects><library_materials><material id="graphite"><instance_effect url="#graphite-fx" /></material><material id="titanium"><instance_effect url="#titanium-fx" /></material><material id="ivory"><instance_effect url="#ivory-fx" /></material><material id="copper"><instance_effect url="#copper-fx" /></material><material id="rubber"><instance_effect url="#rubber-fx" /></material><material id="lens"><instance_effect url="#lens-fx" /></material></library_materials><library_geometries><geometry id="mesh0"><mesh><source id="mesh0-positions"><float_array id="mesh0-array" count="144">-0.030000079423189163 0.05499960482120514 -0.059968408197164536 -0.02900008112192154 0.05500039458274841 -0.24996843934059143 -0.030204521492123604 0.05655251815915108 -0.059969477355480194 -0.02920452319085598 0.05655330792069435 -0.2499695122241974 -0.030803916975855827 0.05799960345029831 -0.05997262895107269 -0.029803916811943054 0.05800039321184158 -0.2499726563692093 -0.0317574143409729 0.05924224480986595 -0.059977639466524124 -0.030757416039705276 0.059243034571409225 -0.24997766315937042 -0.03300003707408905 0.06019575893878937 -0.059984177350997925 -0.032000038772821426 0.06019654497504234 -0.24998420476913452 -0.03444710373878479 0.06079516187310219 -0.05999179184436798 -0.033447105437517166 0.060795947909355164 -0.24999181926250458 -0.03599999472498894 0.06099960580468178 -0.05999996140599251 -0.034999996423721313 0.06100039556622505 -0.2499999850988388 -0.03755288943648338 0.06079516187310219 -0.06000813469290733 -0.03655289113521576 0.060795947909355164 -0.25000816583633423 -0.03899995610117912 0.06019575893878937 -0.060015756636857986 -0.0379999577999115 0.06019654870033264 -0.2500157952308655 -0.04024257883429527 0.05924224853515625 -0.060022298246622086 -0.03924258053302765 0.059243034571409225 -0.2500223219394684 -0.041196078062057495 0.05799960717558861 -0.06002732366323471 -0.04019607976078987 0.05800039693713188 -0.2500273585319519 -0.04179547354578972 0.056552521884441376 -0.060030482709407806 -0.040795471519231796 0.05655330792069435 -0.250030517578125 -0.04199991375207901 0.05499960482120514 -0.06003156676888466 -0.040999915450811386 0.05500039458274841 -0.25003159046173096 -0.04179547354578972 0.0534466914832592 -0.060030497610569 -0.040795471519231796 0.053447481244802475 -0.250030517578125 -0.041196078062057495 0.05199960619211197 -0.0600273460149765 -0.04019607976078987 0.05200039595365524 -0.2500273883342743 -0.04024257883429527 0.05075696483254433 -0.06002233549952507 -0.03924258053302765 0.0507577545940876 -0.25002235174179077 -0.03899995610117912 0.04980345442891121 -0.06001579761505127 -0.0379999577999115 0.049804240465164185 -0.25001582503318787 -0.03755288943648338 0.04920405149459839 -0.06000818312168121 -0.03655289113521576 0.049204837530851364 -0.250008225440979 -0.035999998450279236 0.0489996038377285 -0.060000013560056686 -0.03500000014901161 0.049000393599271774 -0.2500000298023224 -0.03444710373878479 0.04920405149459839 -0.05999184027314186 -0.033447105437517166 0.049204837530851364 -0.24999186396598816 -0.03300003707408905 0.04980345070362091 -0.05998421832919121 -0.032000038772821426 0.049804240465164185 -0.2499842494726181 -0.0317574143409729 0.05075696483254433 -0.05997767671942711 -0.030757416039705276 0.0507577508687973 -0.249977707862854 -0.030803916975855827 0.05199960246682167 -0.059972651302814484 -0.029803916811943054 0.052000392228364944 -0.24997268617153168 -0.030204521492123604 0.0534466914832592 -0.05996949225664139 -0.02920452319085598 0.053447477519512177 -0.2499695122241974</float_array><technique_common><accessor source="#mesh0-array" count="48" stride="3"><param name="X" type="float" /><param name="Y" type="float" /><param name="Z" type="float" /></accessor></technique_common></source><source id="mesh0-normals"><float_array id="mesh0-normals-array" count="276">0.9914311766624451 0.1305263489484787 0.005218591541051865 0.9914311766624451 0.1305263489484787 0.005218591541051865 0.9238667488098145 0.38268330693244934 0.004864036571234465 0.9238667488098145 0.38268330693244934 0.004864036571234465 0.7933423519134521 0.6087615489959717 0.004178005736321211 0.7933423519134521 0.6087615489959717 0.004178005736321211 0.6087532043457031 0.7933531403541565 0.003207251662388444 0.6087532043457031 0.7933531403541565 0.003207251662388444 0.38267824053764343 0.9238795638084412 0.0020179273560643196 0.38267824053764343 0.9238795638084412 0.0020179273560643196 0.13052470982074738 0.9914448857307434 0.0006910863448865712 0.13052470982074738 0.9914448857307434 0.0006910863448865712 -0.1305244415998459 0.9914448857307434 -0.0006828540354035795 -0.1305244415998459 0.9914448857307434 -0.0006828540354035795 -0.3826780319213867 0.9238796830177307 -0.0020102562848478556 -0.3826780319213867 0.9238796830177307 -0.0020102562848478556 -0.6087530851364136 0.7933533191680908 -0.0032006646506488323 -0.6087530851364136 0.7933533191680908 -0.0032006646506488323 -0.7933422923088074 0.6087616086006165 -0.004172950983047485 -0.7933422923088074 0.6087616086006165 -0.004172950983047485 -0.9238667488098145 0.3826834261417389 -0.004860859364271164 -0.9238667488098145 0.3826834261417389 -0.004860859364271164 -0.9914311766624451 0.13052640855312347 -0.005217507481575012 -0.9914311766624451 0.13052640855312347 -0.005217507481575012 -0.9914311766624451 -0.1305263489484787 -0.005218591541051865 -0.9914311766624451 -0.1305263489484787 -0.005218591541051865 -0.9238667488098145 -0.38268330693244934 -0.004864036571234465 -0.9238667488098145 -0.38268330693244934 -0.004864036571234465 -0.7933423519134521 -0.6087615489959717 -0.004178005736321211 -0.7933423519134521 -0.6087615489959717 -0.004178005736321211 -0.6087532043457031 -0.7933531403541565 -0.003207251662388444 -0.6087532043457031 -0.7933531403541565 -0.003207251662388444 -0.38267824053764343 -0.9238795638084412 -0.0020179273560643196 -0.38267824053764343 -0.9238795638084412 -0.0020179273560643196 -0.13052470982074738 -0.9914448857307434 -0.0006910863448865712 -0.13052470982074738 -0.9914448857307434 -0.0006910863448865712 0.1305244415998459 -0.9914448857307434 0.0006828540354035795 0.1305244415998459 -0.9914448857307434 0.0006828540354035795 0.3826780319213867 -0.9238796830177307 0.0020102562848478556 0.3826780319213867 -0.9238796830177307 0.0020102562848478556 0.6087530851364136 -0.7933533191680908 0.0032006646506488323 0.6087530851364136 -0.7933533191680908 0.0032006646506488323 0.7933422923088074 -0.6087616086006165 0.004172950983047485 0.7933422923088074 -0.6087616086006165 0.004172950983047485 0.00526307662948966 4.151230768911773e-06 -0.9999862313270569 0.00526307662948966 4.151230768911773e-06 -0.9999862313270569 0.00526307662948966 4.151230768911773e-06 -0.9999862313270569 0.00526307662948966 4.151230768911773e-06 -0.9999862313270569 0.00526307662948966 4.151230768911773e-06 -0.9999862313270569 0.00526307662948966 4.151230768911773e-06 -0.9999862313270569 0.00526307662948966 4.151230768911773e-06 -0.9999862313270569 0.00526307662948966 4.151230768911773e-06 -0.9999862313270569 0.00526307662948966 4.151230768911773e-06 -0.9999862313270569 0.00526307662948966 4.151230768911773e-06 -0.9999862313270569 0.00526307662948966 4.151230768911773e-06 -0.9999862313270569 0.00526307662948966 4.151230768911773e-06 -0.9999862313270569 0.00526307662948966 4.151230768911773e-06 -0.9999862313270569 0.00526307662948966 4.151230768911773e-06 -0.9999862313270569 0.00526307662948966 4.151230768911773e-06 -0.9999862313270569 0.00526307662948966 4.151230768911773e-06 -0.9999862313270569 0.00526307662948966 4.151230768911773e-06 -0.9999862313270569 0.00526307662948966 4.151230768911773e-06 -0.9999862313270569 0.00526307662948966 4.151230768911773e-06 -0.9999862313270569 0.00526307662948966 4.151230768911773e-06 -0.9999862313270569 0.00526307662948966 4.151230768911773e-06 -0.9999862313270569 0.00526307662948966 4.151230768911773e-06 -0.9999862313270569 0.9238667488098145 -0.3826834261417389 0.004860859364271164 0.9238667488098145 -0.3826834261417389 0.004860859364271164 0.9914311766624451 -0.13052640855312347 0.005217507481575012 0.9914311766624451 -0.13052640855312347 0.005217507481575012 -0.00526307662948966 -4.151230768911773e-06 0.9999862313270569 -0.00526307662948966 -4.151230768911773e-06 0.9999862313270569 -0.00526307662948966 -4.151230768911773e-06 0.9999862313270569 -0.00526307662948966 -4.151230768911773e-06 0.9999862313270569 -0.00526307662948966 -4.151230768911773e-06 0.9999862313270569 -0.00526307662948966 -4.151230768911773e-06 0.9999862313270569 -0.00526307662948966 -4.151230768911773e-06 0.9999862313270569 -0.00526307662948966 -4.151230768911773e-06 0.9999862313270569 -0.00526307662948966 -4.151230768911773e-06 0.9999862313270569 -0.00526307662948966 -4.151230768911773e-06 0.9999862313270569 -0.00526307662948966 -4.151230768911773e-06 0.9999862313270569 -0.00526307662948966 -4.151230768911773e-06 0.9999862313270569 -0.00526307662948966 -4.151230768911773e-06 0.9999862313270569 -0.00526307662948966 -4.151230768911773e-06 0.9999862313270569 -0.00526307662948966 -4.151230768911773e-06 0.9999862313270569 -0.00526307662948966 -4.151230768911773e-06 0.9999862313270569 -0.00526307662948966 -4.151230768911773e-06 0.9999862313270569 -0.00526307662948966 -4.151230768911773e-06 0.9999862313270569 -0.00526307662948966 -4.151230768911773e-06 0.9999862313270569 -0.00526307662948966 -4.151230768911773e-06 0.9999862313270569 -0.00526307662948966 -4.151230768911773e-06 0.9999862313270569 -0.00526307662948966 -4.151230768911773e-06 0.9999862313270569</float_array><technique_common><accessor source="#mesh0-normals-array" count="92" stride="3"><param name="X" type="float" /><param name="Y" type="float" /><param name="Z" type="float" /></accessor></technique_common></source><vertices id="mesh0-vertices"><input semantic="POSITION" source="#mesh0-positions" /></vertices><triangles count="92" material="copper"><input semantic="VERTEX" source="#mesh0-vertices" offset="0" /><input semantic="NORMAL" source="#mesh0-normals" offset="1" /><p>0 0 1 0 3 0 0 1 3 1 2 1 2 2 3 2 5 2 2 3 5 3 4 3 4 4 5 4 7 4 4 5 7 5 6 5 6 6 7 6 9 6 6 7 9 7 8 7 8 8 9 8 11 8 8 9 11 9 10 9 10 10 11 10 13 10 10 11 13 11 12 11 12 12 13 12 15 12 12 13 15 13 14 13 14 14 15 14 17 14 14 15 17 15 16 15 16 16 17 16 19 16 16 17 19 17 18 17 18 18 19 18 21 18 18 19 21 19 20 19 20 20 21 20 23 20 20 21 23 21 22 21 22 22 23 22 25 22 22 23 25 23 24 23 24 24 25 24 27 24 24 25 27 25 26 25 26 26 27 26 29 26 26 27 29 27 28 27 28 28 29 28 31 28 28 29 31 29 30 29 30 30 31 30 33 30 30 31 33 31 32 31 32 32 33 32 35 32 32 33 35 33 34 33 34 34 35 34 37 34 34 35 37 35 36 35 36 36 37 36 39 36 36 37 39 37 38 37 38 38 39 38 41 38 38 39 41 39 40 39 40 40 41 40 43 40 40 41 43 41 42 41 42 42 43 42 45 42 42 43 45 43 44 43 5 44 3 44 1 44 1 45 47 45 45 45 45 46 43 46 41 46 41 47 39 47 37 47 37 48 35 48 33 48 33 49 31 49 29 49 29 50 27 50 25 50 25 51 23 51 21 51 21 52 19 52 17 52 17 53 15 53 13 53 13 54 11 54 9 54 9 55 7 55 5 55 5 56 1 56 45 56 45 57 41 57 37 57 37 58 33 58 29 58 29 59 25 59 21 59 21 60 17 60 13 60 13 61 9 61 5 61 5 62 45 62 37 62 37 63 29 63 21 63 21 64 13 64 5 64 37 65 21 65 5 65 44 66 45 66 47 66 44 67 47 67 46 67 46 68 47 68 1 68 46 69 1 69 0 69 46 70 0 70 2 70 2 71 4 71 6 71 6 72 8 72 10 72 10 73 12 73 14 73 14 74 16 74 18 74 18 75 20 75 22 75 22 76 24 76 26 76 26 77 28 77 30 77 30 78 32 78 34 78 34 79 36 79 38 79 38 80 40 80 42 80 42 81 44 81 46 81 46 82 2 82 6 82 6 83 10 83 14 83 14 84 18 84 22 84 22 85 26 85 30 85 30 86 34 86 38 86 38 87 42 87 46 87 46 88 6 88 14 88 14 89 22 89 30 89 30 90 38 90 46 90 14 91 30 91 46 91</p></triangles></mesh></geometry></library_geometries><library_visual_scenes><visual_scene id="Scene"><node id="mesh0-node"><instance_geometry url="#mesh0"><bind_material><technique_common><instance_material symbol="copper" target="#copper" /></technique_common></bind_material></instance_geometry></node></visual_scene></library_visual_scenes><scene><instance_visual_scene url="#Scene" /></scene></COLLADA>