<?xml version='1.0' encoding='utf-8'?>
<COLLADA xmlns="http://www.collada.org/2005/11/COLLADASchema" version="1.4.1"><asset><unit name="meter" meter="1" /><up_axis>Z_UP</up_axis></asset><library_effects><effect id="graphite-fx"><profile_COMMON><technique sid="common"><phong><emission><color>0 0 0 1</color></emission><ambient><color>0.065 0.075 0.085 1</color></ambient><diffuse><color>0.065 0.075 0.085 1</color></diffuse><specular><color>0.12 0.12 0.12 1</color></specular><shininess><float>25</float></shininess></phong></technique></profile_COMMON></effect><effect id="titanium-fx"><profile_COMMON><technique sid="common"><phong><emission><color>0 0 0 1</color></emission><ambient><color>0.36 0.4 0.43 1</color></ambient><diffuse><color>0.36 0.4 0.43 1</color></diffuse><specular><color>0.12 0.12 0.12 1</color></specular><shininess><float>25</float></shininess></phong></technique></profile_COMMON></effect><effect id="ivory-fx"><profile_COMMON><technique sid="common"><phong><emission><color>0 0 0 1</color></emission><ambient><color>0.72 0.72 0.65 1</color></ambient><diffuse><color>0.72 0.72 0.65 1</color></diffuse><specular><color>0.12 0.12 0.12 1</color></specular><shininess><float>25</float></shininess></phong></technique></profile_COMMON></effect><effect id="copper-fx"><profile_COMMON><technique sid="common"><phong><emission><color>0 0 0 1</color></emission><ambient><color>0.66 0.29 0.08 1</color></ambient><diffuse><color>0.66 0.29 0.08 1</color></diffuse><specular><color>0.12 0.12 0.12 1</color></specular><shininess><float>25</float></shininess></phong></technique></profile_COMMON></effect><effect id="rubber-fx"><profile_COMMON><technique sid="common"><phong><emission><color>0 0 0 1</color></emission><ambient><color>0.025 0.028 0.032 1</color></ambient><diffuse><color>0.025 0.028 0.032 1</color></diffuse><specular><color>0.12 0.12 0.12 1</color></specular><shininess><float>25</float></shininess></phong></technique></profile_COMMON></effect><effect id="lens-fx"><profile_COMMON><technique sid="common"><phong><emission><color>0 0 0 1</color></emission><ambient><color>0.05 0.26 0.33 1</color></ambient><diffuse><color>0.05 0.26 0.33 1</color></diffuse><specular><color>0.12 0.12 0.12 1</color></specular><shininess><float>25</float></shininess></phong></technique></profile_COMMON></effect></library_effects><library_materials><material id="graphite"><instance_effect url="#graphite-fx" /></material><material id="titanium"><instance_effect url="#titanium-fx" /></material><material id="ivory"><instance_effect url="#ivory-fx" /></material><material id="copper"><instance_effect url="#copper-fx" /></material><material id="rubber"><instance_effect url="#rubber-fx" /></material><material id="lens"><instance_effect url="#lens-fx" /></material></library_materials><library_geometries><geometry id="mesh0"><mesh><source id="mesh0-positions"><float_array id="mesh0-array" count="144">-1.0116720794428602e-08 -0.060000013560056686 0.06700001657009125 -1.0116720794428602e-08 0.05999999865889549 0.06700000166893005 -0.0173408892005682 -0.060000013560056686 0.06471704691648483 -0.0173408892005682 0.05999999865889549 0.06471703201532364 -0.03350001573562622 -0.060000013560056686 0.058023713529109955 -0.03350001573562622 0.05999999865889549 0.05802369490265846 -0.04737617447972298 -0.060000013560056686 0.04737616330385208 -0.04737617447972298 0.05999999865889549 0.04737614840269089 -0.05802372097969055 -0.06000000983476639 0.033500004559755325 -0.05802372097969055 0.06000000238418579 0.03349998593330383 -0.06471704691648483 -0.06000000983476639 0.017340876162052155 -0.06471704691648483 0.06000000238418579 0.01734085939824581 -0.06700001657009125 -0.06000000610947609 -2.0551897961240684e-09 -0.06700001657009125 0.06000000610947609 -1.8178251792733136e-08 -0.06471704691648483 -0.06000000238418579 -0.017340879887342453 -0.06471704691648483 0.06000000983476639 -0.017340896651148796 -0.058023713529109955 -0.06000000238418579 -0.033500004559755325 -0.058023713529109955 0.06000000983476639 -0.03350002318620682 -0.04737615957856178 -0.05999999865889549 -0.04737616330385208 -0.04737615957856178 0.060000013560056686 -0.047376178205013275 -0.03350000083446503 -0.05999999865889549 -0.05802370607852936 -0.03350000083446503 0.060000013560056686 -0.05802372470498085 -0.017340870574116707 -0.05999999865889549 -0.06471703201532364 -0.017340870574116707 0.060000013560056686 -0.06471704691648483 1.0116720794428602e-08 -0.05999999865889549 -0.06700000166893005 1.0116720794428602e-08 0.060000013560056686 -0.06700001657009125 0.0173408892005682 -0.05999999865889549 -0.06471703201532364 0.0173408892005682 0.060000013560056686 -0.06471704691648483 0.03350001573562622 -0.05999999865889549 -0.05802369490265846 0.03350001573562622 0.060000013560056686 -0.058023713529109955 0.04737617447972298 -0.05999999865889549 -0.04737614840269089 0.04737617447972298 0.060000013560056686 -0.04737616330385208 0.05802372097969055 -0.06000000238418579 -0.03349998593330383 0.05802372097969055 0.06000000983476639 -0.033500004559755325 0.06471704691648483 -0.06000000238418579 -0.01734085939824581 0.06471704691648483 0.06000000983476639 -0.017340876162052155 0.06700001657009125 -0.06000000610947609 1.8178251792733136e-08 0.06700001657009125 0.06000000610947609 2.0551897961240684e-09 0.06471704691648483 -0.06000000983476639 0.017340896651148796 0.06471704691648483 0.06000000238418579 0.017340879887342453 0.058023713529109955 -0.06000000983476639 0.03350002318620682 0.058023713529109955 0.06000000238418579 0.033500004559755325 0.04737615957856178 -0.060000013560056686 0.047376178205013275 0.04737615957856178 0.05999999865889549 0.04737616330385208 0.03350000083446503 -0.060000013560056686 0.05802372470498085 0.03350000083446503 0.05999999865889549 0.05802370607852936 0.017340870574116707 -0.060000013560056686 0.06471704691648483 0.017340870574116707 0.05999999865889549 0.06471703201532364</float_array><technique_common><accessor source="#mesh0-array" count="48" stride="3"><param name="X" type="float" /><param name="Y" type="float" /><param name="Z" type="float" /></accessor></technique_common></source><source id="mesh0-normals"><float_array id="mesh0-normals-array" count="276">-0.1305263340473175 1.3320936886884738e-07 0.9914448261260986 -0.1305263340473175 1.3320936886884738e-07 0.9914448261260986 -0.3826836049556732 1.2413136118993862e-07 0.9238795042037964 -0.3826836049556732 1.2413136118993862e-07 0.9238795042037964 -0.6087614893913269 1.0659402960300213e-07 0.7933533191680908 -0.6087614893913269 1.0659402960300213e-07 0.7933533191680908 -0.7933534979820251 8.17924572515949e-08 0.6087613105773926 -0.7933534979820251 8.17924572515949e-08 0.6087613105773926 -0.9238796234130859 5.141689385368409e-08 0.3826833963394165 -0.9238796234130859 5.141689385368409e-08 0.3826833963394165 -0.9914449453353882 1.753733158693649e-08 0.1305260807275772 -0.9914449453353882 1.753733158693649e-08 0.1305260807275772 -0.9914448261260986 -1.7537368890430116e-08 -0.1305263638496399 -0.9914448261260986 -1.7537368890430116e-08 -0.1305263638496399 -0.9238795042037964 -5.1416929380820875e-08 -0.3826836943626404 -0.9238795042037964 -5.1416929380820875e-08 -0.3826836943626404 -0.793353259563446 -8.179248567330433e-08 -0.6087615489959717 -0.793353259563446 -8.179248567330433e-08 -0.6087615489959717 -0.6087612509727478 -1.0659405802471156e-07 -0.7933535575866699 -0.6087612509727478 -1.0659405802471156e-07 -0.7933535575866699 -0.38268330693244934 -1.2413138961164805e-07 -0.9238796234130859 -0.38268330693244934 -1.2413138961164805e-07 -0.9238796234130859 -0.13052605092525482 -1.332093830797021e-07 -0.9914449453353882 -0.13052605092525482 -1.332093830797021e-07 -0.9914449453353882 0.1305263340473175 -1.3320936886884738e-07 -0.9914448261260986 0.1305263340473175 -1.3320936886884738e-07 -0.9914448261260986 0.3826836049556732 -1.2413136118993862e-07 -0.9238795042037964 0.3826836049556732 -1.2413136118993862e-07 -0.9238795042037964 0.6087614893913269 -1.0659402960300213e-07 -0.7933533191680908 0.6087614893913269 -1.0659402960300213e-07 -0.7933533191680908 0.7933534979820251 -8.17924572515949e-08 -0.6087613105773926 0.7933534979820251 -8.17924572515949e-08 -0.6087613105773926 0.9238796234130859 -5.141689385368409e-08 -0.3826833963394165 0.9238796234130859 -5.141689385368409e-08 -0.3826833963394165 0.9914449453353882 -1.753733158693649e-08 -0.1305260807275772 0.9914449453353882 -1.753733158693649e-08 -0.1305260807275772 0.9914448261260986 1.7537368890430116e-08 0.1305263638496399 0.9914448261260986 1.7537368890430116e-08 0.1305263638496399 0.9238795042037964 5.1416929380820875e-08 0.3826836943626404 0.9238795042037964 5.1416929380820875e-08 0.3826836943626404 0.793353259563446 8.179248567330433e-08 0.6087615489959717 0.793353259563446 8.179248567330433e-08 0.6087615489959717 0.6087612509727478 1.0659405802471156e-07 0.7933535575866699 0.6087612509727478 1.0659405802471156e-07 0.7933535575866699 -2.028761815660307e-14 1.0 1.343588280633412e-07 -2.028761815660307e-14 1.0 1.343588280633412e-07 -2.0287619850668966e-14 1.0 1.343588280633412e-07 -2.028761815660307e-14 1.0 1.343588280633412e-07 -2.028761815660307e-14 1.0 1.343588280633412e-07 -2.0287619850668966e-14 1.0 1.343588280633412e-07 -2.028761815660307e-14 1.0 1.343588280633412e-07 -2.028761815660307e-14 1.0 1.343588280633412e-07 -2.0287619850668966e-14 1.0 1.343588280633412e-07 -2.028761815660307e-14 1.0 1.343588280633412e-07 -2.028761815660307e-14 1.0 1.343588280633412e-07 -2.0287619850668966e-14 1.0 1.343588280633412e-07 -2.028761815660307e-14 1.0 1.343588280633412e-07 -2.028761815660307e-14 1.0 1.343588280633412e-07 -2.028761815660307e-14 1.0 1.343588280633412e-07 -2.028761815660307e-14 1.0 1.343588280633412e-07 -2.028761815660307e-14 1.0 1.343588280633412e-07 -2.028761815660307e-14 1.0 1.343588280633412e-07 -2.0287619850668966e-14 1.0 1.343588280633412e-07 -2.0287619850668966e-14 1.0 1.343588280633412e-07 -2.0287619850668966e-14 1.0 1.343588280633412e-07 -2.028761815660307e-14 1.0 1.343588280633412e-07 0.38268330693244934 1.2413138961164805e-07 0.9238796234130859 0.38268330693244934 1.2413138961164805e-07 0.9238796234130859 0.13052605092525482 1.332093830797021e-07 0.9914449453353882 0.13052605092525482 1.332093830797021e-07 0.9914449453353882 2.028761815660307e-14 -1.0 -1.343588280633412e-07 2.028761815660307e-14 -1.0 -1.343588280633412e-07 2.028761815660307e-14 -1.0 -1.343588280633412e-07 2.028761815660307e-14 -1.0 -1.343588280633412e-07 2.028761815660307e-14 -1.0 -1.343588280633412e-07 2.028761815660307e-14 -1.0 -1.343588280633412e-07 2.028761815660307e-14 -1.0 -1.343588280633412e-07 2.028761815660307e-14 -1.0 -1.343588280633412e-07 2.028761815660307e-14 -1.0 -1.343588280633412e-07 2.028761815660307e-14 -1.0 -1.343588280633412e-07 2.028761815660307e-14 -1.0 -1.343588280633412e-07 2.028761815660307e-14 -1.0 -1.343588280633412e-07 2.028761815660307e-14 -1.0 -1.343588280633412e-07 2.028761815660307e-14 -1.0 -1.343588280633412e-07 2.028761815660307e-14 -1.0 -1.343588280633412e-07 2.028761815660307e-14 -1.0 -1.343588280633412e-07 2.028761815660307e-14 -1.0 -1.343588280633412e-07 2.028761815660307e-14 -1.0 -1.343588280633412e-07 2.0287619850668966e-14 -1.0 -1.343588280633412e-07 2.028761815660307e-14 -1.0 -1.343588280633412e-07 2.028761815660307e-14 -1.0 -1.343588280633412e-07 2.028761815660307e-14 -1.0 -1.343588280633412e-07</float_array><technique_common><accessor source="#mesh0-normals-array" count="92" stride="3"><param name="X" type="float" /><param name="Y" type="float" /><param name="Z" type="float" /></accessor></technique_common></source><vertices id="mesh0-vertices"><input semantic="POSITION" source="#mesh0-positions" /></vertices><triangles count="92" material="graphite"><input semantic="VERTEX" source="#mesh0-vertices" offset="0" /><input semantic="NORMAL" source="#mesh0-normals" offset="1" /><p>0 0 1 0 3 0 0 1 3 1 2 1 2 2 3 2 5 2 2 3 5 3 4 3 4 4 5 4 7 4 4 5 7 5 6 5 6 6 7 6 9 6 6 7 9 7 8 7 8 8 9 8 11 8 8 9 11 9 10 9 10 10 11 10 13 10 10 11 13 11 12 11 12 12 13 12 15 12 12 13 15 13 14 13 14 14 15 14 17 14 14 15 17 15 16 15 16 16 17 16 19 16 16 17 19 17 18 17 18 18 19 18 21 18 18 19 21 19 20 19 20 20 21 20 23 20 20 21 23 21 22 21 22 22 23 22 25 22 22 23 25 23 24 23 24 24 25 24 27 24 24 25 27 25 26 25 26 26 27 26 29 26 26 27 29 27 28 27 28 28 29 28 31 28 28 29 31 29 30 29 30 30 31 30 33 30 30 31 33 31 32 31 32 32 33 32 35 32 32 33 35 33 34 33 34 34 35 34 37 34 34 35 37 35 36 35 36 36 37 36 39 36 36 37 39 37 38 37 38 38 39 38 41 38 38 39 41 39 40 39 40 40 41 40 43 40 40 41 43 41 42 41 42 42 43 42 45 42 42 43 45 43 44 43 5 44 3 44 1 44 1 45 47 45 45 45 45 46 43 46 41 46 41 47 39 47 37 47 37 48 35 48 33 48 33 49 31 49 29 49 29 50 27 50 25 50 25 51 23 51 21 51 21 52 19 52 17 52 17 53 15 53 13 53 13 54 11 54 9 54 9 55 7 55 5 55 5 56 1 56 45 56 45 57 41 57 37 57 37 58 33 58 29 58 29 59 25 59 21 59 21 60 17 60 13 60 13 61 9 61 5 61 5 62 45 62 37 62 37 63 29 63 21 63 21 64 13 64 5 64 37 65 21 65 5 65 44 66 45 66 47 66 44 67 47 67 46 67 46 68 47 68 1 68 46 69 1 69 0 69 46 70 0 70 2 70 2 71 4 71 6 71 6 72 8 72 10 72 10 73 12 73 14 73 14 74 16 74 18 74 18 75 20 75 22 75 22 76 24 76 26 76 26 77 28 77 30 77 30 78 32 78 34 78 34 79 36 79 38 79 38 80 40 80 42 80 42 81 44 81 46 81 46 82 2 82 6 82 6 83 10 83 14 83 14 84 18 84 22 84 22 85 26 85 30 85 30 86 34 86 38 86 38 87 42 87 46 87 46 88 6 88 14 88 14 89 22 89 30 89 30 90 38 90 46 90 14 91 30 91 46 91</p></triangles></mesh></geometry><geometry id="mesh1"><mesh><source id="mesh1-positions"><float_array id="mesh1-array" count="36">0.04489000141620636 -0.07400000095367432 0.0040000020526349545 0.04489000141620636 -0.05400000512599945 0.003999999258667231 0.04142589867115021 -0.07400000095367432 0.002000001259148121 0.04142589867115021 -0.05400000512599945 0.001999998465180397 0.04142589867115021 -0.07400000095367432 -0.0019999993965029716 0.04142589867115021 -0.05400000512599945 -0.0020000021904706955 0.04489000141620636 -0.07400000095367432 -0.003999999258667231 0.04489000141620636 -0.05400000512599945 -0.0040000020526349545 0.04835410416126251 -0.07400000095367432 -0.001999998465180397 0.04835410416126251 -0.05400000512599945 -0.002000001259148121 0.04835410416126251 -0.07400000095367432 0.0020000021904706955 0.04835410416126251 -0.05400000512599945 0.0019999993965029716</float_array><technique_common><accessor source="#mesh1-array" count="12" stride="3"><param name="X" type="float" /><param name="Y" type="float" /><param name="Z" type="float" /></accessor></technique_common></source><source id="mesh1-normals"><float_array id="mesh1-normals-array" count="60">-0.5000000596046448 1.1635816576927027e-07 0.8660253882408142 -0.5000000596046448 1.1635816576927027e-07 0.8660253882408142 -1.0 -2.028762154473486e-14 -1.5099581673894136e-07 -1.0 -2.028762154473486e-14 -1.5099581673894136e-07 -0.49999985098838806 -1.1635817998012499e-07 -0.8660255074501038 -0.49999985098838806 -1.1635817998012499e-07 -0.8660255074501038 0.5000000596046448 -1.1635816576927027e-07 -0.8660253882408142 0.5000000596046448 -1.1635816576927027e-07 -0.8660253882408142 -2.028761815660307e-14 1.0 1.343588280633412e-07 -2.028761815660307e-14 1.0 1.343588280633412e-07 -2.028761815660307e-14 1.0 1.343588280633412e-07 -2.028761815660307e-14 1.0 1.343588280633412e-07 1.0 2.028762154473486e-14 1.5099581673894136e-07 1.0 2.028762154473486e-14 1.5099581673894136e-07 0.49999985098838806 1.1635817998012499e-07 0.8660255074501038 0.49999985098838806 1.1635817998012499e-07 0.8660255074501038 2.028761815660307e-14 -1.0 -1.343588280633412e-07 2.028761815660307e-14 -1.0 -1.343588280633412e-07 2.028761815660307e-14 -1.0 -1.343588280633412e-07 2.028761815660307e-14 -1.0 -1.343588280633412e-07</float_array><technique_common><accessor source="#mesh1-normals-array" count="20" stride="3"><param name="X" type="float" /><param name="Y" type="float" /><param name="Z" type="float" /></accessor></technique_common></source><vertices id="mesh1-vertices"><input semantic="POSITION" source="#mesh1-positions" /></vertices><triangles count="20" material="graphite"><input semantic="VERTEX" source="#mesh1-vertices" offset="0" /><input semantic="NORMAL" source="#mesh1-normals" offset="1" /><p>0 0 1 0 3 0 0 1 3 1 2 1 2 2 3 2 5 2 2 3 5 3 4 3 4 4 5 4 7 4 4 5 7 5 6 5 6 6 7 6 9 6 6 7 9 7 8 7 5 8 3 8 1 8 1 9 11 9 9 9 9 10 7 10 5 10 1 11 9 11 5 11 8 12 9 12 11 12 8 13 11 13 10 13 10 14 11 14 1 14 10 15 1 15 0 15 10 16 0 16 2 16 2 17 4 17 6 17 6 18 8 18 10 18 2 19 6 19 10 19</p></triangles></mesh></geometry><geometry id="mesh2"><mesh><source id="mesh2-positions"><float_array id="mesh2-array" count="36">0.02244500070810318 -0.07400000095367432 0.04287588223814964 0.02244500070810318 -0.05400000512599945 0.04287588223814964 0.018980897963047028 -0.07400000095367432 0.0408758819103241 0.018980897963047028 -0.05400000512599945 0.0408758781850338 0.018980897963047028 -0.07400000095367432 0.036875881254673004 0.018980897963047028 -0.05400000512599945 0.036875877529382706 0.02244500070810318 -0.07400000095367432 0.03487588092684746 0.02244500070810318 -0.05400000512599945 0.03487588092684746 0.025909103453159332 -0.07400000095367432 0.0368758849799633 0.025909103453159332 -0.05400000512599945 0.036875881254673004 0.025909103453159332 -0.07400000095367432 0.040875885635614395 0.025909103453159332 -0.05400000512599945 0.0408758819103241</float_array><technique_common><accessor source="#mesh2-array" count="12" stride="3"><param name="X" type="float" /><param name="Y" type="float" /><param name="Z" type="float" /></accessor></technique_common></source><source id="mesh2-normals"><float_array id="mesh2-normals-array" count="60">-0.5000000596046448 1.1635816576927027e-07 0.8660253882408142 -0.5000000596046448 1.1635816576927027e-07 0.8660253882408142 -1.0 -2.028762154473486e-14 -1.5099581673894136e-07 -1.0 -2.028762154473486e-14 -1.5099581673894136e-07 -0.49999985098838806 -1.1635817998012499e-07 -0.8660255074501038 -0.49999985098838806 -1.1635817998012499e-07 -0.8660255074501038 0.5000000596046448 -1.1635816576927027e-07 -0.8660253882408142 0.5000000596046448 -1.1635816576927027e-07 -0.8660253882408142 -2.028761815660307e-14 1.0 1.343588280633412e-07 -2.028761815660307e-14 1.0 1.343588280633412e-07 -2.028761815660307e-14 1.0 1.343588280633412e-07 -2.028761815660307e-14 1.0 1.343588280633412e-07 1.0 2.028762154473486e-14 1.5099581673894136e-07 1.0 2.028762154473486e-14 1.5099581673894136e-07 0.49999985098838806 1.1635817998012499e-07 0.8660255074501038 0.49999985098838806 1.1635817998012499e-07 0.8660255074501038 2.028761815660307e-14 -1.0 -1.343588280633412e-07 2.028761815660307e-14 -1.0 -1.343588280633412e-07 2.028761815660307e-14 -1.0 -1.343588280633412e-07 2.028761815660307e-14 -1.0 -1.343588280633412e-07</float_array><technique_common><accessor source="#mesh2-normals-array" count="20" stride="3"><param name="X" type="float" /><param name="Y" type="float" /><param name="Z" type="float" /></accessor></technique_common></source><vertices id="mesh2-vertices"><input semantic="POSITION" source="#mesh2-positions" /></vertices><triangles count="20" material="graphite"><input semantic="VERTEX" source="#mesh2-vertices" offset="0" /><input semantic="NORMAL" source="#mesh2-normals" offset="1" /><p>0 0 1 0 3 0 0 1 3 1 2 1 2 2 3 2 5 2 2 3 5 3 4 3 4 4 5 4 7 4 4 5 7 5 6 5 6 6 7 6 9 6 6 7 9 7 8 7 5 8 3 8 1 8 1 9 11 9 9 9 9 10 7 10 5 10 1 11 9 11 5 11 8 12 9 12 11 12 8 13 11 13 10 13 10 14 11 14 1 14 10 15 1 15 0 15 10 16 0 16 2 16 2 17 4 17 6 17 6 18 8 18 10 18 2 19 6 19 10 19</p></triangles></mesh></geometry><geometry id="mesh3"><mesh><source id="mesh3-positions"><float_array id="mesh3-array" count="36">-0.02244500070810318 -0.07400000095367432 0.04287588223814964 -0.02244500070810318 -0.05400000512599945 0.04287588223814964 -0.025909103453159332 -0.07400000095367432 0.0408758819103241 -0.025909103453159332 -0.05400000512599945 0.0408758781850338 -0.025909103453159332 -0.07400000095367432 0.036875881254673004 -0.025909103453159332 -0.05400000512599945 0.036875877529382706 -0.02244500070810318 -0.07400000095367432 0.03487588092684746 -0.02244500070810318 -0.05400000512599945 0.03487588092684746 -0.018980897963047028 -0.07400000095367432 0.0368758849799633 -0.018980897963047028 -0.05400000512599945 0.036875881254673004 -0.018980897963047028 -0.07400000095367432 0.040875885635614395 -0.018980897963047028 -0.05400000512599945 0.0408758819103241</float_array><technique_common><accessor source="#mesh3-array" count="12" stride="3"><param name="X" type="float" /><param name="Y" type="float" /><param name="Z" type="float" /></accessor></technique_common></source><source id="mesh3-normals"><float_array id="mesh3-normals-array" count="60">-0.5000000596046448 1.1635816576927027e-07 0.8660253882408142 -0.5000000596046448 1.1635816576927027e-07 0.8660253882408142 -1.0 -2.028762154473486e-14 -1.5099581673894136e-07 -1.0 -2.028762154473486e-14 -1.5099581673894136e-07 -0.49999985098838806 -1.1635817998012499e-07 -0.8660255074501038 -0.49999985098838806 -1.1635817998012499e-07 -0.8660255074501038 0.5000000596046448 -1.1635816576927027e-07 -0.8660253882408142 0.5000000596046448 -1.1635816576927027e-07 -0.8660253882408142 -2.028761815660307e-14 1.0 1.343588280633412e-07 -2.028761815660307e-14 1.0 1.343588280633412e-07 -2.028761815660307e-14 1.0 1.343588280633412e-07 -2.028761815660307e-14 1.0 1.343588280633412e-07 1.0 2.028762154473486e-14 1.5099581673894136e-07 1.0 2.028762154473486e-14 1.5099581673894136e-07 0.49999985098838806 1.1635817998012499e-07 0.8660255074501038 0.49999985098838806 1.1635817998012499e-07 0.8660255074501038 2.028761815660307e-14 -1.0 -1.343588280633412e-07 2.028761815660307e-14 -1.0 -1.343588280633412e-07 2.028761815660307e-14 -1.0 -1.343588280633412e-07 2.028761815660307e-14 -1.0 -1.343588280633412e-07</float_array><technique_common><accessor source="#mesh3-normals-array" count="20" stride="3"><param name="X" type="float" /><param name="Y" type="float" /><param name="Z" type="float" /></accessor></technique_common></source><vertices id="mesh3-vertices"><input semantic="POSITION" source="#mesh3-positions" /></vertices><triangles count="20" material="graphite"><input semantic="VERTEX" source="#mesh3-vertices" offset="0" /><input semantic="NORMAL" source="#mesh3-normals" offset="1" /><p>0 0 1 0 3 0 0 1 3 1 2 1 2 2 3 2 5 2 2 3 5 3 4 3 4 4 5 4 7 4 4 5 7 5 6 5 6 6 7 6 9 6 6 7 9 7 8 7 5 8 3 8 1 8 1 9 11 9 9 9 9 10 7 10 5 10 1 11 9 11 5 11 8 12 9 12 11 12 8 13 11 13 10 13 10 14 11 14 1 14 10 15 1 15 0 15 10 16 0 16 2 16 2 17 4 17 6 17 6 18 8 18 10 18 2 19 6 19 10 19</p></triangles></mesh></geometry><geometry id="mesh4"><mesh><source id="mesh4-positions"><float_array id="mesh4-array" count="36">-0.04489000141620636 -0.07400000095367432 0.0040000020526349545 -0.04489000141620636 -0.05400000512599945 0.003999999258667231 -0.04835410416126251 -0.07400000095367432 0.002000001259148121 -0.04835410416126251 -0.05400000512599945 0.001999998465180397 -0.04835410416126251 -0.07400000095367432 -0.0019999993965029716 -0.04835410416126251 -0.05400000512599945 -0.0020000021904706955 -0.04489000141620636 -0.07400000095367432 -0.003999999258667231 -0.04489000141620636 -0.05400000512599945 -0.0040000020526349545 -0.04142589867115021 -0.07400000095367432 -0.001999998465180397 -0.04142589867115021 -0.05400000512599945 -0.002000001259148121 -0.04142589867115021 -0.07400000095367432 0.0020000021904706955 -0.04142589867115021 -0.05400000512599945 0.0019999993965029716</float_array><technique_common><accessor source="#mesh4-array" count="12" stride="3"><param name="X" type="float" /><param name="Y" type="float" /><param name="Z" type="float" /></accessor></technique_common></source><source id="mesh4-normals"><float_array id="mesh4-normals-array" count="60">-0.5000000596046448 1.1635816576927027e-07 0.8660253882408142 -0.5000000596046448 1.1635816576927027e-07 0.8660253882408142 -1.0 -2.028762154473486e-14 -1.5099581673894136e-07 -1.0 -2.028762154473486e-14 -1.5099581673894136e-07 -0.49999985098838806 -1.1635817998012499e-07 -0.8660255074501038 -0.49999985098838806 -1.1635817998012499e-07 -0.8660255074501038 0.5000000596046448 -1.1635816576927027e-07 -0.8660253882408142 0.5000000596046448 -1.1635816576927027e-07 -0.8660253882408142 -2.028761815660307e-14 1.0 1.343588280633412e-07 -2.028761815660307e-14 1.0 1.343588280633412e-07 -2.028761815660307e-14 1.0 1.343588280633412e-07 -2.028761815660307e-14 1.0 1.343588280633412e-07 1.0 2.028762154473486e-14 1.5099581673894136e-07 1.0 2.028762154473486e-14 1.5099581673894136e-07 0.49999985098838806 1.1635817998012499e-07 0.8660255074501038 0.49999985098838806 1.1635817998012499e-07 0.8660255074501038 2.028761815660307e-14 -1.0 -1.343588280633412e-07 2.028761815660307e-14 -1.0 -1.343588280633412e-07 2.028761815660307e-14 -1.0 -1.343588280633412e-07 2.028761815660307e-14 -1.0 -1.343588280633412e-07</float_array><technique_common><accessor source="#mesh4-normals-array" count="20" stride="3"><param name="X" type="float" /><param name="Y" type="float" /><param name="Z" type="float" /></accessor></technique_common></source><vertices id="mesh4-vertices"><input semantic="POSITION" source="#mesh4-positions" /></vertices><triangles count="20" material="graphite"><input semantic="VERTEX" source="#mesh4-vertices" offset="0" /><input semantic="NORMAL" source="#mesh4-normals" offset="1" /><p>0 0 1 0 3 0 0 1 3 1 2 1 2 2 3 2 5 2 2 3 5 3 4 3 4 4 5 4 7 4 4 5 7 5 6 5 6 6 7 6 9 6 6 7 9 7 8 7 5 8 3 8 1 8 1 9 11 9 9 9 9 10 7 10 5 10 1 11 9 11 5 11 8 12 9 12 11 12 8 13 11 13 10 13 10 14 11 14 1 14 10 15 1 15 0 15 10 16 0 16 2 16 2 17 4 17 6 17 6 18 8 18 10 18 2 19 6 19 10 19</p></triangles></mesh></geometry><geometry id="mesh5"><mesh><source id="mesh5-positions"><float_array id="mesh5-array" count="36">-0.02244500070810318 -0.07400000095367432 -0.03487588092684746 -0.02244500070810318 -0.05400000512599945 -0.03487588092684746 -0.025909103453159332 -0.07400000095367432 -0.036875881254673004 -0.025909103453159332 -0.05400000512599945 -0.0368758849799633 -0.025909103453159332 -0.07400000095367432 -0.0408758819103241 -0.025909103453159332 -0.05400000512599945 -0.040875885635614395 -0.02244500070810318 -0.07400000095367432 -0.04287588223814964 -0.02244500070810318 -0.05400000512599945 -0.04287588223814964 -0.018980897963047028 -0.07400000095367432 -0.0408758781850338 -0.018980897963047028 -0.05400000512599945 -0.0408758819103241 -0.018980897963047028 -0.07400000095367432 -0.036875877529382706 -0.018980897963047028 -0.05400000512599945 -0.036875881254673004</float_array><technique_common><accessor source="#mesh5-array" count="12" stride="3"><param name="X" type="float" /><param name="Y" type="float" /><param name="Z" type="float" /></accessor></technique_common></source><source id="mesh5-normals"><float_array id="mesh5-normals-array" count="60">-0.5000000596046448 1.1635816576927027e-07 0.8660253882408142 -0.5000000596046448 1.1635816576927027e-07 0.8660253882408142 -1.0 -2.028762154473486e-14 -1.5099581673894136e-07 -1.0 -2.028762154473486e-14 -1.5099581673894136e-07 -0.49999985098838806 -1.1635817998012499e-07 -0.8660255074501038 -0.49999985098838806 -1.1635817998012499e-07 -0.8660255074501038 0.5000000596046448 -1.1635816576927027e-07 -0.8660253882408142 0.5000000596046448 -1.1635816576927027e-07 -0.8660253882408142 -2.028761815660307e-14 1.0 1.343588280633412e-07 -2.028761815660307e-14 1.0 1.343588280633412e-07 -2.028761815660307e-14 1.0 1.343588280633412e-07 -2.028761815660307e-14 1.0 1.343588280633412e-07 1.0 2.028762154473486e-14 1.5099581673894136e-07 1.0 2.028762154473486e-14 1.5099581673894136e-07 0.49999985098838806 1.1635817998012499e-07 0.8660255074501038 0.49999985098838806 1.1635817998012499e-07 0.8660255074501038 2.028761815660307e-14 -1.0 -1.343588280633412e-07 2.028761815660307e-14 -1.0 -1.343588280633412e-07 2.028761815660307e-14 -1.0 -1.343588280633412e-07 2.028761815660307e-14 -1.0 -1.343588280633412e-07</float_array><technique_common><accessor source="#mesh5-normals-array" count="20" stride="3"><param name="X" type="float" /><param name="Y" type="float" /><param name="Z" type="float" /></accessor></technique_common></source><vertices id="mesh5-vertices"><input semantic="POSITION" source="#mesh5-positions" /></vertices><triangles count="20" material="graphite"><input semantic="VERTEX" source="#mesh5-vertices" offset="0" /><input semantic="NORMAL" source="#mesh5-normals" offset="1" /><p>0 0 1 0 3 0 0 1 3 1 2 1 2 2 3 2 5 2 2 3 5 3 4 3 4 4 5 4 7 4 4 5 7 5 6 5 6 6 7 6 9 6 6 7 9 7 8 7 5 8 3 8 1 8 1 9 11 9 9 9 9 10 7 10 5 10 1 11 9 11 5 11 8 12 9 12 11 12 8 13 11 13 10 13 10 14 11 14 1 14 10 15 1 15 0 15 10 16 0 16 2 16 2 17 4 17 6 17 6 18 8 18 10 18 2 19 6 19 10 19</p></triangles></mesh></geometry><geometry id="mesh6"><mesh><source id="mesh6-positions"><float_array id="mesh6-array" count="36">0.02244500070810318 -0.07400000095367432 -0.03487588092684746 0.02244500070810318 -0.05400000512599945 -0.03487588092684746 0.018980897963047028 -0.07400000095367432 -0.036875881254673004 0.018980897963047028 -0.05400000512599945 -0.0368758849799633 0.018980897963047028 -0.07400000095367432 -0.0408758819103241 0.018980897963047028 -0.05400000512599945 -0.040875885635614395 0.02244500070810318 -0.07400000095367432 -0.04287588223814964 0.02244500070810318 -0.05400000512599945 -0.04287588223814964 0.025909103453159332 -0.07400000095367432 -0.0408758781850338 0.025909103453159332 -0.05400000512599945 -0.0408758819103241 0.025909103453159332 -0.07400000095367432 -0.036875877529382706 0.025909103453159332 -0.05400000512599945 -0.036875881254673004</float_array><technique_common><accessor source="#mesh6-array" count="12" stride="3"><param name="X" type="float" /><param name="Y" type="float" /><param name="Z" type="float" /></accessor></technique_common></source><source id="mesh6-normals"><float_array id="mesh6-normals-array" count="60">-0.5000000596046448 1.1635816576927027e-07 0.8660253882408142 -0.5000000596046448 1.1635816576927027e-07 0.8660253882408142 -1.0 -2.028762154473486e-14 -1.5099581673894136e-07 -1.0 -2.028762154473486e-14 -1.5099581673894136e-07 -0.49999985098838806 -1.1635817998012499e-07 -0.8660255074501038 -0.49999985098838806 -1.1635817998012499e-07 -0.8660255074501038 0.5000000596046448 -1.1635816576927027e-07 -0.8660253882408142 0.5000000596046448 -1.1635816576927027e-07 -0.8660253882408142 -2.028761815660307e-14 1.0 1.343588280633412e-07 -2.028761815660307e-14 1.0 1.343588280633412e-07 -2.028761815660307e-14 1.0 1.343588280633412e-07 -2.028761815660307e-14 1.0 1.343588280633412e-07 1.0 2.028762154473486e-14 1.5099581673894136e-07 1.0 2.028762154473486e-14 1.5099581673894136e-07 0.49999985098838806 1.1635817998012499e-07 0.8660255074501038 0.49999985098838806 1.1635817998012499e-07 0.8660255074501038 2.028761815660307e-14 -1.0 -1.343588280633412e-07 2.028761815660307e-14 -1.0 -1.343588280633412e-07 2.028761815660307e-14 -1.0 -1.343588280633412e-07 2.028761815660307e-14 -1.0 -1.343588280633412e-07</float_array><technique_common><accessor source="#mesh6-normals-array" count="20" stride="3"><param name="X" type="float" /><param name="Y" type="float" /><param name="Z" type="float" /></accessor></technique_common></source><vertices id="mesh6-vertices"><input semantic="POSITION" source="#mesh6-positions" /></vertices><triangles count="20" material="graphite"><input semantic="VERTEX" source="#mesh6-vertices" offset="0" /><input semantic="NORMAL" source="#mesh6-normals" offset="1" /><p>0 0 1 0 3 0 0 1 3 1 2 1 2 2 3 2 5 2 2 3 5 3 4 3 4 4 5 4 7 4 4 5 7 5 6 5 6 6 7 6 9 6 6 7 9 7 8 7 5 8 3 8 1 8 1 9 11 9 9 9 9 10 7 10 5 10 1 11 9 11 5 11 8 12 9 12 11 12 8 13 11 13 10 13 10 14 11 14 1 14 10 15 1 15 0 15 10 16 0 16 2 16 2 17 4 17 6 17 6 18 8 18 10 18 2 19 6 19 10 19</p></triangles></mesh></geometry><geometry id="mesh7"><mesh><source id="mesh7-positions"><float_array id="mesh7-array" count="36">0.04489000141620636 0.05400000512599945 0.0040000020526349545 0.04489000141620636 0.07400000095367432 0.003999999258667231 0.04142589867115021 0.05400000512599945 0.002000001259148121 0.04142589867115021 0.07400000095367432 0.001999998465180397 0.04142589867115021 0.05400000512599945 -0.0019999993965029716 0.04142589867115021 0.07400000095367432 -0.0020000021904706955 0.04489000141620636 0.05400000512599945 -0.003999999258667231 0.04489000141620636 0.07400000095367432 -0.0040000020526349545 0.04835410416126251 0.05400000512599945 -0.001999998465180397 0.04835410416126251 0.07400000095367432 -0.002000001259148121 0.04835410416126251 0.05400000512599945 0.0020000021904706955 0.04835410416126251 0.07400000095367432 0.0019999993965029716</float_array><technique_common><accessor source="#mesh7-array" count="12" stride="3"><param name="X" type="float" /><param name="Y" type="float" /><param name="Z" type="float" /></accessor></technique_common></source><source id="mesh7-normals"><float_array id="mesh7-normals-array" count="60">-0.5000000596046448 1.1635816576927027e-07 0.8660253882408142 -0.5000000596046448 1.1635816576927027e-07 0.8660253882408142 -1.0 -2.028762154473486e-14 -1.5099581673894136e-07 -1.0 -2.028762154473486e-14 -1.5099581673894136e-07 -0.49999985098838806 -1.1635817998012499e-07 -0.8660255074501038 -0.49999985098838806 -1.1635817998012499e-07 -0.8660255074501038 0.5000000596046448 -1.1635816576927027e-07 -0.8660253882408142 0.5000000596046448 -1.1635816576927027e-07 -0.8660253882408142 -2.028761815660307e-14 1.0 1.343588280633412e-07 -2.028761815660307e-14 1.0 1.343588280633412e-07 -2.028761815660307e-14 1.0 1.343588280633412e-07 -2.028761815660307e-14 1.0 1.343588280633412e-07 1.0 2.028762154473486e-14 1.5099581673894136e-07 1.0 2.028762154473486e-14 1.5099581673894136e-07 0.49999985098838806 1.1635817998012499e-07 0.8660255074501038 0.49999985098838806 1.1635817998012499e-07 0.8660255074501038 2.028761815660307e-14 -1.0 -1.343588280633412e-07 2.028761815660307e-14 -1.0 -1.343588280633412e-07 2.028761815660307e-14 -1.0 -1.343588280633412e-07 2.028761815660307e-14 -1.0 -1.343588280633412e-07</float_array><technique_common><accessor source="#mesh7-normals-array" count="20" stride="3"><param name="X" type="float" /><param name="Y" type="float" /><param name="Z" type="float" /></accessor></technique_common></source><vertices id="mesh7-vertices"><input semantic="POSITION" source="#mesh7-positions" /></vertices><triangles count="20" material="graphite"><input semantic="VERTEX" source="#mesh7-vertices" offset="0" /><input semantic="NORMAL" source="#mesh7-normals" offset="1" /><p>0 0 1 0 3 0 0 1 3 1 2 1 2 2 3 2 5 2 2 3 5 3 4 3 4 4 5 4 7 4 4 5 7 5 6 5 6 6 7 6 9 6 6 7 9 7 8 7 5 8 3 8 1 8 1 9 11 9 9 9 9 10 7 10 5 10 1 11 9 11 5 11 8 12 9 12 11 12 8 13 11 13 10 13 10 14 11 14 1 14 10 15 1 15 0 15 10 16 0 16 2 16 2 17 4 17 6 17 6 18 8 18 10 18 2 19 6 19 10 19</p></triangles></mesh></geometry><geometry id="mesh8"><mesh><source id="mesh8-positions"><float_array id="mesh8-array" count="36">0.02244500070810318 0.05400000512599945 0.04287588223814964 0.02244500070810318 0.07400000095367432 0.04287588223814964 0.018980897963047028 0.05400000512599945 0.0408758819103241 0.018980897963047028 0.07400000095367432 0.0408758781850338 0.018980897963047028 0.05400000512599945 0.036875881254673004 0.018980897963047028 0.07400000095367432 0.036875877529382706 0.02244500070810318 0.05400000512599945 0.03487588092684746 0.02244500070810318 0.07400000095367432 0.03487588092684746 0.025909103453159332 0.05400000512599945 0.0368758849799633 0.025909103453159332 0.07400000095367432 0.036875881254673004 0.025909103453159332 0.05400000512599945 0.040875885635614395 0.025909103453159332 0.07400000095367432 0.0408758819103241</float_array><technique_common><accessor source="#mesh8-array" count="12" stride="3"><param name="X" type="float" /><param name="Y" type="float" /><param name="Z" type="float" /></accessor></technique_common></source><source id="mesh8-normals"><float_array id="mesh8-normals-array" count="60">-0.5000000596046448 1.1635816576927027e-07 0.8660253882408142 -0.5000000596046448 1.1635816576927027e-07 0.8660253882408142 -1.0 -2.028762154473486e-14 -1.5099581673894136e-07 -1.0 -2.028762154473486e-14 -1.5099581673894136e-07 -0.49999985098838806 -1.1635817998012499e-07 -0.8660255074501038 -0.49999985098838806 -1.1635817998012499e-07 -0.8660255074501038 0.5000000596046448 -1.1635816576927027e-07 -0.8660253882408142 0.5000000596046448 -1.1635816576927027e-07 -0.8660253882408142 -2.028761815660307e-14 1.0 1.343588280633412e-07 -2.028761815660307e-14 1.0 1.343588280633412e-07 -2.028761815660307e-14 1.0 1.343588280633412e-07 -2.028761815660307e-14 1.0 1.343588280633412e-07 1.0 2.028762154473486e-14 1.5099581673894136e-07 1.0 2.028762154473486e-14 1.5099581673894136e-07 0.49999985098838806 1.1635817998012499e-07 0.8660255074501038 0.49999985098838806 1.1635817998012499e-07 0.8660255074501038 2.028761815660307e-14 -1.0 -1.343588280633412e-07 2.028761815660307e-14 -1.0 -1.343588280633412e-07 2.028761815660307e-14 -1.0 -1.343588280633412e-07 2.028761815660307e-14 -1.0 -1.343588280633412e-07</float_array><technique_common><accessor source="#mesh8-normals-array" count="20" stride="3"><param name="X" type="float" /><param name="Y" type="float" /><param name="Z" type="float" /></accessor></technique_common></source><vertices id="mesh8-vertices"><input semantic="POSITION" source="#mesh8-positions" /></vertices><triangles count="20" material="graphite"><input semantic="VERTEX" source="#mesh8-vertices" offset="0" /><input semantic="NORMAL" source="#mesh8-normals" offset="1" /><p>0 0 1 0 3 0 0 1 3 1 2 1 2 2 3 2 5 2 2 3 5 3 4 3 4 4 5 4 7 4 4 5 7 5 6 5 6 6 7 6 9 6 6 7 9 7 8 7 5 8 3 8 1 8 1 9 11 9 9 9 9 10 7 10 5 10 1 11 9 11 5 11 8 12 9 12 11 12 8 13 11 13 10 13 10 14 11 14 1 14 10 15 1 15 0 15 10 16 0 16 2 16 2 17 4 17 6 17 6 18 8 18 10 18 2 19 6 19 10 19</p></triangles></mesh></geometry><geometry id="mesh9"><mesh><source id="mesh9-positions"><float_array id="mesh9-array" count="36">-0.02244500070810318 0.05400000512599945 0.04287588223814964 -0.02244500070810318 0.07400000095367432 0.04287588223814964 -0.025909103453159332 0.05400000512599945 0.0408758819103241 -0.025909103453159332 0.07400000095367432 0.0408758781850338 -0.025909103453159332 0.05400000512599945 0.036875881254673004 -0.025909103453159332 0.07400000095367432 0.036875877529382706 -0.02244500070810318 0.05400000512599945 0.03487588092684746 -0.02244500070810318 0.07400000095367432 0.03487588092684746 -0.018980897963047028 0.05400000512599945 0.0368758849799633 -0.018980897963047028 0.07400000095367432 0.036875881254673004 -0.018980897963047028 0.05400000512599945 0.040875885635614395 -0.018980897963047028 0.07400000095367432 0.0408758819103241</float_array><technique_common><accessor source="#mesh9-array" count="12" stride="3"><param name="X" type="float" /><param name="Y" type="float" /><param name="Z" type="float" /></accessor></technique_common></source><source id="mesh9-normals"><float_array id="mesh9-normals-array" count="60">-0.5000000596046448 1.1635816576927027e-07 0.8660253882408142 -0.5000000596046448 1.1635816576927027e-07 0.8660253882408142 -1.0 -2.028762154473486e-14 -1.5099581673894136e-07 -1.0 -2.028762154473486e-14 -1.5099581673894136e-07 -0.49999985098838806 -1.1635817998012499e-07 -0.8660255074501038 -0.49999985098838806 -1.1635817998012499e-07 -0.8660255074501038 0.5000000596046448 -1.1635816576927027e-07 -0.8660253882408142 0.5000000596046448 -1.1635816576927027e-07 -0.8660253882408142 -2.028761815660307e-14 1.0 1.343588280633412e-07 -2.028761815660307e-14 1.0 1.343588280633412e-07 -2.028761815660307e-14 1.0 1.343588280633412e-07 -2.028761815660307e-14 1.0 1.343588280633412e-07 1.0 2.028762154473486e-14 1.5099581673894136e-07 1.0 2.028762154473486e-14 1.5099581673894136e-07 0.49999985098838806 1.1635817998012499e-07 0.8660255074501038 0.49999985098838806 1.1635817998012499e-07 0.8660255074501038 2.028761815660307e-14 -1.0 -1.343588280633412e-07 2.028761815660307e-14 -1.0 -1.343588280633412e-07 2.028761815660307e-14 -1.0 -1.343588280633412e-07 2.028761815660307e-14 -1.0 -1.343588280633412e-07</float_array><technique_common><accessor source="#mesh9-normals-array" count="20" stride="3"><param name="X" type="float" /><param name="Y" type="float" /><param name="Z" type="float" /></accessor></technique_common></source><vertices id="mesh9-vertices"><input semantic="POSITION" source="#mesh9-positions" /></vertices><triangles count="20" material="graphite"><input semantic="VERTEX" source="#mesh9-vertices" offset="0" /><input semantic="NORMAL" source="#mesh9-normals" offset="1" /><p>0 0 1 0 3 0 0 1 3 1 2 1 2 2 3 2 5 2 2 3 5 3 4 3 4 4 5 4 7 4 4 5 7 5 6 5 6 6 7 6 9 6 6 7 9 7 8 7 5 8 3 8 1 8 1 9 11 9 9 9 9 10 7 10 5 10 1 11 9 11 5 11 8 12 9 12 11 12 8 13 11 13 10 13 10 14 11 14 1 14 10 15 1 15 0 15 10 16 0 16 2 16 2 17 4 17 6 17 6 18 8 18 10 18 2 19 6 19 10 19</p></triangles></mesh></geometry><geometry id="mesh10"><mesh><source id="mesh10-positions"><float_array id="mesh10-array" count="36">-0.04489000141620636 0.05400000512599945 0.0040000020526349545 -0.04489000141620636 0.07400000095367432 0.003999999258667231 -0.04835410416126251 0.05400000512599945 0.002000001259148121 -0.04835410416126251 0.07400000095367432 0.001999998465180397 -0.04835410416126251 0.05400000512599945 -0.0019999993965029716 -0.04835410416126251 0.07400000095367432 -0.0020000021904706955 -0.04489000141620636 0.05400000512599945 -0.003999999258667231 -0.04489000141620636 0.07400000095367432 -0.0040000020526349545 -0.04142589867115021 0.05400000512599945 -0.001999998465180397 -0.04142589867115021 0.07400000095367432 -0.002000001259148121 -0.04142589867115021 0.05400000512599945 0.0020000021904706955 -0.04142589867115021 0.07400000095367432 0.0019999993965029716</float_array><technique_common><accessor source="#mesh10-array" count="12" stride="3"><param name="X" type="float" /><param name="Y" type="float" /><param name="Z" type="float" /></accessor></technique_common></source><source id="mesh10-normals"><float_array id="mesh10-normals-array" count="60">-0.5000000596046448 1.1635816576927027e-07 0.8660253882408142 -0.5000000596046448 1.1635816576927027e-07 0.8660253882408142 -1.0 -2.028762154473486e-14 -1.5099581673894136e-07 -1.0 -2.028762154473486e-14 -1.5099581673894136e-07 -0.49999985098838806 -1.1635817998012499e-07 -0.8660255074501038 -0.49999985098838806 -1.1635817998012499e-07 -0.8660255074501038 0.5000000596046448 -1.1635816576927027e-07 -0.8660253882408142 0.5000000596046448 -1.1635816576927027e-07 -0.8660253882408142 -2.028761815660307e-14 1.0 1.343588280633412e-07 -2.028761815660307e-14 1.0 1.343588280633412e-07 -2.028761815660307e-14 1.0 1.343588280633412e-07 -2.028761815660307e-14 1.0 1.343588280633412e-07 1.0 2.028762154473486e-14 1.5099581673894136e-07 1.0 2.028762154473486e-14 1.5099581673894136e-07 0.49999985098838806 1.1635817998012499e-07 0.8660255074501038 0.49999985098838806 1.1635817998012499e-07 0.8660255074501038 2.028761815660307e-14 -1.0 -1.343588280633412e-07 2.028761815660307e-14 -1.0 -1.343588280633412e-07 2.028761815660307e-14 -1.0 -1.343588280633412e-07 2.028761815660307e-14 -1.0 -1.343588280633412e-07</float_array><technique_common><accessor source="#mesh10-normals-array" count="20" stride="3"><param name="X" type="float" /><param name="Y" type="float" /><param name="Z" type="float" /></accessor></technique_common></source><vertices id="mesh10-vertices"><input semantic="POSITION" source="#mesh10-positions" /></vertices><triangles count="20" material="graphite"><input semantic="VERTEX" source="#mesh10-vertices" offset="0" /><input semantic="NORMAL" source="#mesh10-normals" offset="1" /><p>0 0 1 0 3 0 0 1 3 1 2 1 2 2 3 2 5 2 2 3 5 3 4 3 4 4 5 4 7 4 4 5 7 5 6 5 6 6 7 6 9 6 6 7 9 7 8 7 5 8 3 8 1 8 1 9 11 9 9 9 9 10 7 10 5 10 1 11 9 11 5 11 8 12 9 12 11 12 8 13 11 13 10 13 10 14 11 14 1 14 10 15 1 15 0 15 10 16 0 16 2 16 2 17 4 17 6 17 6 18 8 18 10 18 2 19 6 19 10 19</p></triangles></mesh></geometry><geometry id="mesh11"><mesh><source id="mesh11-positions"><float_array id="mesh11-array" count="36">-0.02244500070810318 0.05400000512599945 -0.03487588092684746 -0.02244500070810318 0.07400000095367432 -0.03487588092684746 -0.025909103453159332 0.05400000512599945 -0.036875881254673004 -0.025909103453159332 0.07400000095367432 -0.0368758849799633 -0.025909103453159332 0.05400000512599945 -0.0408758819103241 -0.025909103453159332 0.07400000095367432 -0.040875885635614395 -0.02244500070810318 0.05400000512599945 -0.04287588223814964 -0.02244500070810318 0.07400000095367432 -0.04287588223814964 -0.018980897963047028 0.05400000512599945 -0.0408758781850338 -0.018980897963047028 0.07400000095367432 -0.0408758819103241 -0.018980897963047028 0.05400000512599945 -0.036875877529382706 -0.018980897963047028 0.07400000095367432 -0.036875881254673004</float_array><technique_common><accessor source="#mesh11-array" count="12" stride="3"><param name="X" type="float" /><param name="Y" type="float" /><param name="Z" type="float" /></accessor></technique_common></source><source id="mesh11-normals"><float_array id="mesh11-normals-array" count="60">-0.5000000596046448 1.1635816576927027e-07 0.8660253882408142 -0.5000000596046448 1.1635816576927027e-07 0.8660253882408142 -1.0 -2.028762154473486e-14 -1.5099581673894136e-07 -1.0 -2.028762154473486e-14 -1.5099581673894136e-07 -0.49999985098838806 -1.1635817998012499e-07 -0.8660255074501038 -0.49999985098838806 -1.1635817998012499e-07 -0.8660255074501038 0.5000000596046448 -1.1635816576927027e-07 -0.8660253882408142 0.5000000596046448 -1.1635816576927027e-07 -0.8660253882408142 -2.028761815660307e-14 1.0 1.343588280633412e-07 -2.028761815660307e-14 1.0 1.343588280633412e-07 -2.028761815660307e-14 1.0 1.343588280633412e-07 -2.028761815660307e-14 1.0 1.343588280633412e-07 1.0 2.028762154473486e-14 1.5099581673894136e-07 1.0 2.028762154473486e-14 1.5099581673894136e-07 0.49999985098838806 1.1635817998012499e-07 0.8660255074501038 0.49999985098838806 1.1635817998012499e-07 0.8660255074501038 2.028761815660307e-14 -1.0 -1.343588280633412e-07 2.028761815660307e-14 -1.0 -1.343588280633412e-07 2.028761815660307e-14 -1.0 -1.343588280633412e-07 2.028761815660307e-14 -1.0 -1.343588280633412e-07</float_array><technique_common><accessor source="#mesh11-normals-array" count="20" stride="3"><param name="X" type="float" /><param name="Y" type="float" /><param name="Z" type="float" /></accessor></technique_common></source><vertices id="mesh11-vertices"><input semantic="POSITION" source="#mesh11-positions" /></vertices><triangles count="20" material="graphite"><input semantic="VERTEX" source="#mesh11-vertices" offset="0" /><input semantic="NORMAL" source="#mesh11-normals" offset="1" /><p>0 0 1 0 3 0 0 1 3 1 2 1 2 2 3 2 5 2 2 3 5 3 4 3 4 4 5 4 7 4 4 5 7 5 6 5 6 6 7 6 9 6 6 7 9 7 8 7 5 8 3 8 1 8 1 9 11 9 9 9 9 10 7 10 5 10 1 11 9 11 5 11 8 12 9 12 11 12 8 13 11 13 10 13 10 14 11 14 1 14 10 15 1 15 0 15 10 16 0 16 2 16 2 17 4 17 6 17 6 18 8 18 10 18 2 19 6 19 10 19</p></triangles></mesh></geometry><geometry id="mesh12"><mesh><source id="mesh12-positions"><float_array id="mesh12-array" count="36">0.02244500070810318 0.05400000512599945 -0.03487588092684746 0.02244500070810318 0.07400000095367432 -0.03487588092684746 0.018980897963047028 0.05400000512599945 -0.036875881254673004 0.018980897963047028 0.07400000095367432 -0.0368758849799633 0.018980897963047028 0.05400000512599945 -0.0408758819103241 0.018980897963047028 0.07400000095367432 -0.040875885635614395 0.02244500070810318 0.05400000512599945 -0.04287588223814964 0.02244500070810318 0.07400000095367432 -0.04287588223814964 0.025909103453159332 0.05400000512599945 -0.0408758781850338 0.025909103453159332 0.07400000095367432 -0.0408758819103241 0.025909103453159332 0.05400000512599945 -0.036875877529382706 0.025909103453159332 0.07400000095367432 -0.036875881254673004</float_array><technique_common><accessor source="#mesh12-array" count="12" stride="3"><param name="X" type="float" /><param name="Y" type="float" /><param name="Z" type="float" /></accessor></technique_common></source><source id="mesh12-normals"><float_array id="mesh12-normals-array" count="60">-0.5000000596046448 1.1635816576927027e-07 0.8660253882408142 -0.5000000596046448 1.1635816576927027e-07 0.8660253882408142 -1.0 -2.028762154473486e-14 -1.5099581673894136e-07 -1.0 -2.028762154473486e-14 -1.5099581673894136e-07 -0.49999985098838806 -1.1635817998012499e-07 -0.8660255074501038 -0.49999985098838806 -1.1635817998012499e-07 -0.8660255074501038 0.5000000596046448 -1.1635816576927027e-07 -0.8660253882408142 0.5000000596046448 -1.1635816576927027e-07 -0.8660253882408142 -2.028761815660307e-14 1.0 1.343588280633412e-07 -2.028761815660307e-14 1.0 1.343588280633412e-07 -2.028761815660307e-14 1.0 1.343588280633412e-07 -2.028761815660307e-14 1.0 1.343588280633412e-07 1.0 2.028762154473486e-14 1.5099581673894136e-07 1.0 2.028762154473486e-14 1.5099581673894136e-07 0.49999985098838806 1.1635817998012499e-07 0.8660255074501038 0.49999985098838806 1.1635817998012499e-07 0.8660255074501038 2.028761815660307e-14 -1.0 -1.343588280633412e-07 2.028761815660307e-14 -1.0 -1.343588280633412e-07 2.028761815660307e-14 -1.0 -1.343588280633412e-07 2.028761815660307e-14 -1.0 -1.343588280633412e-07</float_array><technique_common><accessor source="#mesh12-normals-array" count="20" stride="3"><param name="X" type="float" /><param name="Y" type="float" /><param name="Z" type="float" /></accessor></technique_common></source><vertices id="mesh12-vertices"><input semantic="POSITION" source="#mesh12-positions" /></vertices><triangles count="20" material="graphite"><input semantic="VERTEX" source="#mesh12-vertices" offset="0" /><input semantic="NORMAL" source="#mesh12-normals" offset="1" /><p>0 0 1 0 3 0 0 1 3 1 2 1 2 2 3 2 5 2 2 3 5 3 4 3 4 4 5 4 7 4 4 5 7 5 6 5 6 6 7 6 9 6 6 7 9 7 8 7 5 8 3 8 1 8 1 9 11 9 9 9 9 10 7 10 5 10 1 11 9 11 5 11 8 12 9 12 11 12 8 13 11 13 10 13 10 14 11 14 1 14 10 15 1 15 0 15 10 16 0 16 2 16 2 17 4 17 6 17 6 18 8 18 10 18 2 19 6 19 10 19</p></triangles></mesh></geometry><geometry id="mesh13"><mesh><source id="mesh13-positions"><float_array id="mesh13-array" count="144">0.03400000184774399 -0.04999998211860657 -0.05500000715255737 0.03400000184774399 -0.050000015646219254 -0.27000001072883606 0.036070555448532104 -0.049727391451597214 -0.05500000715255737 0.036070555448532104 -0.0497274212539196 -0.27000001072883606 0.03800000250339508 -0.04892818629741669 -0.05500000715255737 0.03800000250339508 -0.04892821982502937 -0.27000001072883606 0.039656855165958405 -0.0476568378508091 -0.05500000715255737 0.039656855165958405 -0.04765687137842178 -0.27000001072883606 0.04092820733785629 -0.04599998518824577 -0.05500000715255737 0.04092820733785629 -0.04600001499056816 -0.27000001072883606 0.04172740876674652 -0.0440705344080925 -0.05500000715255737 0.04172740876674652 -0.044070567935705185 -0.27000001072883606 0.04200000315904617 -0.04199998453259468 -0.05500000715255737 0.04200000315904617 -0.04200001433491707 -0.27000001072883606 0.04172740876674652 -0.039929430931806564 -0.05500000715255737 0.04172740876674652 -0.03992946445941925 -0.27000001072883606 0.04092820733785629 -0.03799998387694359 -0.05500000715255737 0.04092820733785629 -0.038000013679265976 -0.27000001072883606 0.039656855165958405 -0.036343127489089966 -0.05500000715255737 0.039656855165958405 -0.03634316101670265 -0.27000001072883606 0.03800000250339508 -0.035071779042482376 -0.05500000715255737 0.03800000250339508 -0.03507181257009506 -0.27000001072883606 0.036070555448532104 -0.03427257761359215 -0.05500000715255737 0.036070555448532104 -0.034272607415914536 -0.27000001072883606 0.03400000184774399 -0.033999983221292496 -0.05500000715255737 0.03400000184774399 -0.03400001674890518 -0.27000001072883606 0.03192944824695587 -0.03427257761359215 -0.05500000715255737 0.03192944824695587 -0.034272607415914536 -0.27000001072883606 0.030000001192092896 -0.035071779042482376 -0.05500000715255737 0.030000001192092896 -0.03507181257009506 -0.27000001072883606 0.02834314852952957 -0.036343127489089966 -0.05500000715255737 0.02834314852952957 -0.03634316101670265 -0.27000001072883606 0.027071798220276833 -0.03799998387694359 -0.05500000715255737 0.027071798220276833 -0.038000013679265976 -0.27000001072883606 0.026272594928741455 -0.039929430931806564 -0.05500000715255737 0.026272594928741455 -0.03992946445941925 -0.27000001072883606 0.026000000536441803 -0.04199998453259468 -0.05500000715255737 0.026000000536441803 -0.04200001433491707 -0.27000001072883606 0.026272594928741455 -0.0440705344080925 -0.05500000715255737 0.026272594928741455 -0.044070567935705185 -0.27000001072883606 0.027071798220276833 -0.04599998518824577 -0.05500000715255737 0.027071798220276833 -0.04600001499056816 -0.27000001072883606 0.02834314852952957 -0.0476568378508091 -0.05500000715255737 0.02834314852952957 -0.04765687137842178 -0.27000001072883606 0.030000001192092896 -0.04892818629741669 -0.05500000715255737 0.030000001192092896 -0.04892821982502937 -0.27000001072883606 0.03192944824695587 -0.049727391451597214 -0.05500000715255737 0.03192944824695587 -0.0497274212539196 -0.27000001072883606</float_array><technique_common><accessor source="#mesh13-array" count="48" stride="3"><param name="X" type="float" /><param name="Y" type="float" /><param name="Z" type="float" /></accessor></technique_common></source><source id="mesh13-normals"><float_array id="mesh13-normals-array" count="276">0.13052622973918915 -0.9914448857307434 1.4970402162362006e-07 0.13052622973918915 -0.9914448857307434 1.4970402162362006e-07 0.3826833963394165 -0.9238795638084412 1.3950193533673882e-07 0.3826833963394165 -0.9238795638084412 1.3950193533673882e-07 0.6087616086006165 -0.7933533191680908 1.197930146190629e-07 0.6087616086006165 -0.7933533191680908 1.197930146190629e-07 0.7933533191680908 -0.6087616086006165 9.192045524741843e-08 0.7933533191680908 -0.6087616086006165 9.192045524741843e-08 0.9238795638084412 -0.3826833963394165 5.7783587692483707e-08 0.9238795638084412 -0.3826833963394165 5.7783587692483707e-08 0.9914448857307434 -0.13052622973918915 1.970891361224858e-08 0.9914448857307434 -0.13052622973918915 1.970891361224858e-08 0.9914448857307434 0.13052622973918915 -1.970891361224858e-08 0.9914448857307434 0.13052622973918915 -1.970891361224858e-08 0.9238795638084412 0.3826833963394165 -5.7783587692483707e-08 0.9238795638084412 0.3826833963394165 -5.7783587692483707e-08 0.7933533191680908 0.6087616086006165 -9.192045524741843e-08 0.7933533191680908 0.6087616086006165 -9.192045524741843e-08 0.6087616086006165 0.7933533191680908 -1.197930146190629e-07 0.6087616086006165 0.7933533191680908 -1.197930146190629e-07 0.3826833963394165 0.9238795638084412 -1.3950193533673882e-07 0.3826833963394165 0.9238795638084412 -1.3950193533673882e-07 0.13052622973918915 0.9914448857307434 -1.4970402162362006e-07 0.13052622973918915 0.9914448857307434 -1.4970402162362006e-07 -0.13052622973918915 0.9914448857307434 -1.4970402162362006e-07 -0.13052622973918915 0.9914448857307434 -1.4970402162362006e-07 -0.3826833963394165 0.9238795638084412 -1.3950193533673882e-07 -0.3826833963394165 0.9238795638084412 -1.3950193533673882e-07 -0.6087616086006165 0.7933533191680908 -1.197930146190629e-07 -0.6087616086006165 0.7933533191680908 -1.197930146190629e-07 -0.7933533191680908 0.6087616086006165 -9.192045524741843e-08 -0.7933533191680908 0.6087616086006165 -9.192045524741843e-08 -0.9238795638084412 0.3826833963394165 -5.7783587692483707e-08 -0.9238795638084412 0.3826833963394165 -5.7783587692483707e-08 -0.9914448857307434 0.13052622973918915 -1.970891361224858e-08 -0.9914448857307434 0.13052622973918915 -1.970891361224858e-08 -0.9914448857307434 -0.13052622973918915 1.970891361224858e-08 -0.9914448857307434 -0.13052622973918915 1.970891361224858e-08 -0.9238795638084412 -0.3826833963394165 5.7783587692483707e-08 -0.9238795638084412 -0.3826833963394165 5.7783587692483707e-08 -0.7933533191680908 -0.6087616086006165 9.192045524741843e-08 -0.7933533191680908 -0.6087616086006165 9.192045524741843e-08 -0.6087616086006165 -0.7933533191680908 1.197930146190629e-07 -0.6087616086006165 -0.7933533191680908 1.197930146190629e-07 0.0 -1.5099580252808664e-07 -1.0 0.0 -1.5099580252808664e-07 -1.0 0.0 -1.5099580252808664e-07 -1.0 0.0 -1.5099580252808664e-07 -1.0 0.0 -1.5099580252808664e-07 -1.0 0.0 -1.5099580252808664e-07 -1.0 0.0 -1.5099580252808664e-07 -1.0 0.0 -1.5099580252808664e-07 -1.0 0.0 -1.5099580252808664e-07 -1.0 0.0 -1.5099580252808664e-07 -1.0 0.0 -1.5099580252808664e-07 -1.0 0.0 -1.5099580252808664e-07 -1.0 0.0 -1.5099580252808664e-07 -1.0 0.0 -1.5099580252808664e-07 -1.0 0.0 -1.5099580252808664e-07 -1.0 0.0 -1.5099580252808664e-07 -1.0 0.0 -1.5099580252808664e-07 -1.0 0.0 -1.5099580252808664e-07 -1.0 0.0 -1.5099580252808664e-07 -1.0 0.0 -1.5099580252808664e-07 -1.0 0.0 -1.5099580252808664e-07 -1.0 0.0 -1.5099580252808664e-07 -1.0 -0.3826833963394165 -0.9238795638084412 1.3950193533673882e-07 -0.3826833963394165 -0.9238795638084412 1.3950193533673882e-07 -0.13052622973918915 -0.9914448857307434 1.4970402162362006e-07 -0.13052622973918915 -0.9914448857307434 1.4970402162362006e-07 0.0 1.5099580252808664e-07 1.0 0.0 1.5099580252808664e-07 1.0 0.0 1.5099580252808664e-07 1.0 0.0 1.5099580252808664e-07 1.0 0.0 1.5099580252808664e-07 1.0 0.0 1.5099580252808664e-07 1.0 0.0 1.5099580252808664e-07 1.0 0.0 1.5099580252808664e-07 1.0 0.0 1.5099580252808664e-07 1.0 0.0 1.5099580252808664e-07 1.0 0.0 1.5099580252808664e-07 1.0 0.0 1.5099580252808664e-07 1.0 0.0 1.5099580252808664e-07 1.0 0.0 1.5099580252808664e-07 1.0 0.0 1.5099580252808664e-07 1.0 0.0 1.5099580252808664e-07 1.0 0.0 1.5099580252808664e-07 1.0 0.0 1.5099580252808664e-07 1.0 0.0 1.5099580252808664e-07 1.0 0.0 1.5099580252808664e-07 1.0 0.0 1.5099580252808664e-07 1.0 0.0 1.5099580252808664e-07 1.0</float_array><technique_common><accessor source="#mesh13-normals-array" count="92" stride="3"><param name="X" type="float" /><param name="Y" type="float" /><param name="Z" type="float" /></accessor></technique_common></source><vertices id="mesh13-vertices"><input semantic="POSITION" source="#mesh13-positions" /></vertices><triangles count="92" material="graphite"><input semantic="VERTEX" source="#mesh13-vertices" offset="0" /><input semantic="NORMAL" source="#mesh13-normals" offset="1" /><p>0 0 1 0 3 0 0 1 3 1 2 1 2 2 3 2 5 2 2 3 5 3 4 3 4 4 5 4 7 4 4 5 7 5 6 5 6 6 7 6 9 6 6 7 9 7 8 7 8 8 9 8 11 8 8 9 11 9 10 9 10 10 11 10 13 10 10 11 13 11 12 11 12 12 13 12 15 12 12 13 15 13 14 13 14 14 15 14 17 14 14 15 17 15 16 15 16 16 17 16 19 16 16 17 19 17 18 17 18 18 19 18 21 18 18 19 21 19 20 19 20 20 21 20 23 20 20 21 23 21 22 21 22 22 23 22 25 22 22 23 25 23 24 23 24 24 25 24 27 24 24 25 27 25 26 25 26 26 27 26 29 26 26 27 29 27 28 27 28 28 29 28 31 28 28 29 31 29 30 29 30 30 31 30 33 30 30 31 33 31 32 31 32 32 33 32 35 32 32 33 35 33 34 33 34 34 35 34 37 34 34 35 37 35 36 35 36 36 37 36 39 36 36 37 39 37 38 37 38 38 39 38 41 38 38 39 41 39 40 39 40 40 41 40 43 40 40 41 43 41 42 41 42 42 43 42 45 42 42 43 45 43 44 43 5 44 3 44 1 44 1 45 47 45 45 45 45 46 43 46 41 46 41 47 39 47 37 47 37 48 35 48 33 48 33 49 31 49 29 49 29 50 27 50 25 50 25 51 23 51 21 51 21 52 19 52 17 52 17 53 15 53 13 53 13 54 11 54 9 54 9 55 7 55 5 55 5 56 1 56 45 56 45 57 41 57 37 57 37 58 33 58 29 58 29 59 25 59 21 59 21 60 17 60 13 60 13 61 9 61 5 61 5 62 45 62 37 62 37 63 29 63 21 63 21 64 13 64 5 64 37 65 21 65 5 65 44 66 45 66 47 66 44 67 47 67 46 67 46 68 47 68 1 68 46 69 1 69 0 69 46 70 0 70 2 70 2 71 4 71 6 71 6 72 8 72 10 72 10 73 12 73 14 73 14 74 16 74 18 74 18 75 20 75 22 75 22 76 24 76 26 76 26 77 28 77 30 77 30 78 32 78 34 78 34 79 36 79 38 79 38 80 40 80 42 80 42 81 44 81 46 81 46 82 2 82 6 82 6 83 10 83 14 83 14 84 18 84 22 84 22 85 26 85 30 85 30 86 34 86 38 86 38 87 42 87 46 87 46 88 6 88 14 88 14 89 22 89 30 89 30 90 38 90 46 90 14 91 30 91 46 91</p></triangles></mesh></geometry><geometry id="mesh14"><mesh><source id="mesh14-positions"><float_array id="mesh14-array" count="144">0.03400000184774399 0.03400001674890518 -0.05500000715255737 0.03400000184774399 0.033999983221292496 -0.27000001072883606 0.036070555448532104 0.034272607415914536 -0.05500000715255737 0.036070555448532104 0.03427257761359215 -0.27000001072883606 0.03800000250339508 0.03507181257009506 -0.05500000715255737 0.03800000250339508 0.035071779042482376 -0.27000001072883606 0.039656855165958405 0.03634316101670265 -0.05500000715255737 0.039656855165958405 0.036343127489089966 -0.27000001072883606 0.04092820733785629 0.038000013679265976 -0.05500000715255737 0.04092820733785629 0.03799998387694359 -0.27000001072883606 0.04172740876674652 0.03992946445941925 -0.05500000715255737 0.04172740876674652 0.039929430931806564 -0.27000001072883606 0.04200000315904617 0.04200001433491707 -0.05500000715255737 0.04200000315904617 0.04199998453259468 -0.27000001072883606 0.04172740876674652 0.044070567935705185 -0.05500000715255737 0.04172740876674652 0.0440705344080925 -0.27000001072883606 0.04092820733785629 0.04600001499056816 -0.05500000715255737 0.04092820733785629 0.04599998518824577 -0.27000001072883606 0.039656855165958405 0.04765687137842178 -0.05500000715255737 0.039656855165958405 0.0476568378508091 -0.27000001072883606 0.03800000250339508 0.04892821982502937 -0.05500000715255737 0.03800000250339508 0.04892818629741669 -0.27000001072883606 0.036070555448532104 0.0497274212539196 -0.05500000715255737 0.036070555448532104 0.049727391451597214 -0.27000001072883606 0.03400000184774399 0.050000015646219254 -0.05500000715255737 0.03400000184774399 0.04999998211860657 -0.27000001072883606 0.03192944824695587 0.0497274212539196 -0.05500000715255737 0.03192944824695587 0.049727391451597214 -0.27000001072883606 0.030000001192092896 0.04892821982502937 -0.05500000715255737 0.030000001192092896 0.04892818629741669 -0.27000001072883606 0.02834314852952957 0.04765687137842178 -0.05500000715255737 0.02834314852952957 0.0476568378508091 -0.27000001072883606 0.027071798220276833 0.04600001499056816 -0.05500000715255737 0.027071798220276833 0.04599998518824577 -0.27000001072883606 0.026272594928741455 0.044070567935705185 -0.05500000715255737 0.026272594928741455 0.0440705344080925 -0.27000001072883606 0.026000000536441803 0.04200001433491707 -0.05500000715255737 0.026000000536441803 0.04199998453259468 -0.27000001072883606 0.026272594928741455 0.03992946445941925 -0.05500000715255737 0.026272594928741455 0.039929430931806564 -0.27000001072883606 0.027071798220276833 0.038000013679265976 -0.05500000715255737 0.027071798220276833 0.03799998387694359 -0.27000001072883606 0.02834314852952957 0.03634316101670265 -0.05500000715255737 0.02834314852952957 0.036343127489089966 -0.27000001072883606 0.030000001192092896 0.03507181257009506 -0.05500000715255737 0.030000001192092896 0.035071779042482376 -0.27000001072883606 0.03192944824695587 0.034272607415914536 -0.05500000715255737 0.03192944824695587 0.03427257761359215 -0.27000001072883606</float_array><technique_common><accessor source="#mesh14-array" count="48" stride="3"><param name="X" type="float" /><param name="Y" type="float" /><param name="Z" type="float" /></accessor></technique_common></source><source id="mesh14-normals"><float_array id="mesh14-normals-array" count="276">0.13052622973918915 -0.9914448857307434 1.4970402162362006e-07 0.13052622973918915 -0.9914448857307434 1.4970402162362006e-07 0.3826833963394165 -0.9238795638084412 1.3950193533673882e-07 0.3826833963394165 -0.9238795638084412 1.3950193533673882e-07 0.6087616086006165 -0.7933533191680908 1.197930146190629e-07 0.6087616086006165 -0.7933533191680908 1.197930146190629e-07 0.7933533191680908 -0.6087616086006165 9.192045524741843e-08 0.7933533191680908 -0.6087616086006165 9.192045524741843e-08 0.9238795638084412 -0.3826833963394165 5.7783587692483707e-08 0.9238795638084412 -0.3826833963394165 5.7783587692483707e-08 0.9914448857307434 -0.13052622973918915 1.970891361224858e-08 0.9914448857307434 -0.13052622973918915 1.970891361224858e-08 0.9914448857307434 0.13052622973918915 -1.970891361224858e-08 0.9914448857307434 0.13052622973918915 -1.970891361224858e-08 0.9238795638084412 0.3826833963394165 -5.7783587692483707e-08 0.9238795638084412 0.3826833963394165 -5.7783587692483707e-08 0.7933533191680908 0.6087616086006165 -9.192045524741843e-08 0.7933533191680908 0.6087616086006165 -9.192045524741843e-08 0.6087616086006165 0.7933533191680908 -1.197930146190629e-07 0.6087616086006165 0.7933533191680908 -1.197930146190629e-07 0.3826833963394165 0.9238795638084412 -1.3950193533673882e-07 0.3826833963394165 0.9238795638084412 -1.3950193533673882e-07 0.13052622973918915 0.9914448857307434 -1.4970402162362006e-07 0.13052622973918915 0.9914448857307434 -1.4970402162362006e-07 -0.13052622973918915 0.9914448857307434 -1.4970402162362006e-07 -0.13052622973918915 0.9914448857307434 -1.4970402162362006e-07 -0.3826833963394165 0.9238795638084412 -1.3950193533673882e-07 -0.3826833963394165 0.9238795638084412 -1.3950193533673882e-07 -0.6087616086006165 0.7933533191680908 -1.197930146190629e-07 -0.6087616086006165 0.7933533191680908 -1.197930146190629e-07 -0.7933533191680908 0.6087616086006165 -9.192045524741843e-08 -0.7933533191680908 0.6087616086006165 -9.192045524741843e-08 -0.9238795638084412 0.3826833963394165 -5.7783587692483707e-08 -0.9238795638084412 0.3826833963394165 -5.7783587692483707e-08 -0.9914448857307434 0.13052622973918915 -1.970891361224858e-08 -0.9914448857307434 0.13052622973918915 -1.970891361224858e-08 -0.9914448857307434 -0.13052622973918915 1.970891361224858e-08 -0.9914448857307434 -0.13052622973918915 1.970891361224858e-08 -0.9238795638084412 -0.3826833963394165 5.7783587692483707e-08 -0.9238795638084412 -0.3826833963394165 5.7783587692483707e-08 -0.7933533191680908 -0.6087616086006165 9.192045524741843e-08 -0.7933533191680908 -0.6087616086006165 9.192045524741843e-08 -0.6087616086006165 -0.7933533191680908 1.197930146190629e-07 -0.6087616086006165 -0.7933533191680908 1.197930146190629e-07 0.0 -1.5099580252808664e-07 -1.0 0.0 -1.5099580252808664e-07 -1.0 0.0 -1.5099580252808664e-07 -1.0 0.0 -1.5099580252808664e-07 -1.0 0.0 -1.5099580252808664e-07 -1.0 0.0 -1.5099580252808664e-07 -1.0 0.0 -1.5099580252808664e-07 -1.0 0.0 -1.5099580252808664e-07 -1.0 0.0 -1.5099580252808664e-07 -1.0 0.0 -1.5099580252808664e-07 -1.0 0.0 -1.5099580252808664e-07 -1.0 0.0 -1.5099580252808664e-07 -1.0 0.0 -1.5099580252808664e-07 -1.0 0.0 -1.5099580252808664e-07 -1.0 0.0 -1.5099580252808664e-07 -1.0 0.0 -1.5099580252808664e-07 -1.0 0.0 -1.5099580252808664e-07 -1.0 0.0 -1.5099580252808664e-07 -1.0 0.0 -1.5099580252808664e-07 -1.0 0.0 -1.5099580252808664e-07 -1.0 0.0 -1.5099580252808664e-07 -1.0 0.0 -1.5099580252808664e-07 -1.0 -0.3826833963394165 -0.9238795638084412 1.3950193533673882e-07 -0.3826833963394165 -0.9238795638084412 1.3950193533673882e-07 -0.13052622973918915 -0.9914448857307434 1.4970402162362006e-07 -0.13052622973918915 -0.9914448857307434 1.4970402162362006e-07 0.0 1.5099580252808664e-07 1.0 0.0 1.5099580252808664e-07 1.0 0.0 1.5099580252808664e-07 1.0 0.0 1.5099580252808664e-07 1.0 0.0 1.5099580252808664e-07 1.0 0.0 1.5099580252808664e-07 1.0 0.0 1.5099580252808664e-07 1.0 0.0 1.5099580252808664e-07 1.0 0.0 1.5099580252808664e-07 1.0 0.0 1.5099580252808664e-07 1.0 0.0 1.5099580252808664e-07 1.0 0.0 1.5099580252808664e-07 1.0 0.0 1.5099580252808664e-07 1.0 0.0 1.5099580252808664e-07 1.0 0.0 1.5099580252808664e-07 1.0 0.0 1.5099580252808664e-07 1.0 0.0 1.5099580252808664e-07 1.0 0.0 1.5099580252808664e-07 1.0 0.0 1.5099580252808664e-07 1.0 0.0 1.5099580252808664e-07 1.0 0.0 1.5099580252808664e-07 1.0 0.0 1.5099580252808664e-07 1.0</float_array><technique_common><accessor source="#mesh14-normals-array" count="92" stride="3"><param name="X" type="float" /><param name="Y" type="float" /><param name="Z" type="float" /></accessor></technique_common></source><vertices id="mesh14-vertices"><input semantic="POSITION" source="#mesh14-positions" /></vertices><triangles count="92" material="graphite"><input semantic="VERTEX" source="#mesh14-vertices" offset="0" /><input semantic="NORMAL" source="#mesh14-normals" offset="1" /><p>0 0 1 0 3 0 0 1 3 1 2 1 2 2 3 2 5 2 2 3 5 3 4 3 4 4 5 4 7 4 4 5 7 5 6 5 6 6 7 6 9 6 6 7 9 7 8 7 8 8 9 8 11 8 8 9 11 9 10 9 10 10 11 10 13 10 10 11 13 11 12 11 12 12 13 12 15 12 12 13 15 13 14 13 14 14 15 14 17 14 14 15 17 15 16 15 16 16 17 16 19 16 16 17 19 17 18 17 18 18 19 18 21 18 18 19 21 19 20 19 20 20 21 20 23 20 20 21 23 21 22 21 22 22 23 22 25 22 22 23 25 23 24 23 24 24 25 24 27 24 24 25 27 25 26 25 26 26 27 26 29 26 26 27 29 27 28 27 28 28 29 28 31 28 28 29 31 29 30 29 30 30 31 30 33 30 30 31 33 31 32 31 32 32 33 32 35 32 32 33 35 33 34 33 34 34 35 34 37 34 34 35 37 35 36 35 36 36 37 36 39 36 36 37 39 37 38 37 38 38 39 38 41 38 38 39 41 39 40 39 40 40 41 40 43 40 40 41 43 41 42 41 42 42 43 42 45 42 42 43 45 43 44 43 5 44 3 44 1 44 1 45 47 45 45 45 45 46 43 46 41 46 41 47 39 47 37 47 37 48 35 48 33 48 33 49 31 49 29 49 29 50 27 50 25 50 25 51 23 51 21 51 21 52 19 52 17 52 17 53 15 53 13 53 13 54 11 54 9 54 9 55 7 55 5 55 5 56 1 56 45 56 45 57 41 57 37 57 37 58 33 58 29 58 29 59 25 59 21 59 21 60 17 60 13 60 13 61 9 61 5 61 5 62 45 62 37 62 37 63 29 63 21 63 21 64 13 64 5 64 37 65 21 65 5 65 44 66 45 66 47 66 44 67 47 67 46 67 46 68 47 68 1 68 46 69 1 69 0 69 46 70 0 70 2 70 2 71 4 71 6 71 6 72 8 72 10 72 10 73 12 73 14 73 14 74 16 74 18 74 18 75 20 75 22 75 22 76 24 76 26 76 26 77 28 77 30 77 30 78 32 78 34 78 34 79 36 79 38 79 38 80 40 80 42 80 42 81 44 81 46 81 46 82 2 82 6 82 6 83 10 83 14 83 14 84 18 84 22 84 22 85 26 85 30 85 30 86 34 86 38 86 38 87 42 87 46 87 46 88 6 88 14 88 14 89 22 89 30 89 30 90 38 90 46 90 14 91 30 91 46 91</p></triangles></mesh></geometry><geometry id="mesh15"><mesh><source id="mesh15-positions"><float_array id="mesh15-array" count="144">-0.03500000014901161 -0.07099998742341995 -0.06499999761581421 -0.03500000014901161 -0.07100000977516174 -0.1899999976158142 -0.030858894810080528 -0.07045480608940125 -0.06499999761581421 -0.030858894810080528 -0.07045482099056244 -0.1899999976158142 -0.026999998837709427 -0.06885639578104019 -0.06499999761581421 -0.026999998837709427 -0.06885641813278198 -0.1899999976158142 -0.02368629164993763 -0.06631369888782501 -0.06499999761581421 -0.02368629164993763 -0.0663137212395668 -0.1899999976158142 -0.0211435928940773 -0.06299999356269836 -0.06499999761581421 -0.0211435928940773 -0.06300000846385956 -0.1899999976158142 -0.019545186311006546 -0.059141095727682114 -0.06499999761581421 -0.019545186311006546 -0.059141114354133606 -0.1899999976158142 -0.01899999938905239 -0.05499998852610588 -0.06499999761581421 -0.01899999938905239 -0.05500001087784767 -0.1899999976158142 -0.019545186311006546 -0.050858885049819946 -0.06499999761581421 -0.019545186311006546 -0.05085890367627144 -0.1899999976158142 -0.0211435928940773 -0.046999990940093994 -0.06499999761581421 -0.0211435928940773 -0.047000009566545486 -0.1899999976158142 -0.02368629164993763 -0.04368628188967705 -0.06499999761581421 -0.02368629164993763 -0.04368630051612854 -0.1899999976158142 -0.026999998837709427 -0.04114358127117157 -0.06499999761581421 -0.026999998837709427 -0.04114360362291336 -0.1899999976158142 -0.030858894810080528 -0.039545174688100815 -0.06499999761581421 -0.030858894810080528 -0.039545197039842606 -0.1899999976158142 -0.03500000014901161 -0.03899998962879181 -0.06499999761581421 -0.03500000014901161 -0.0390000082552433 -0.1899999976158142 -0.039141103625297546 -0.039545174688100815 -0.06499999761581421 -0.039141103625297546 -0.039545197039842606 -0.1899999976158142 -0.0430000014603138 -0.04114358127117157 -0.06499999761581421 -0.0430000014603138 -0.04114360362291336 -0.1899999976158142 -0.04631371051073074 -0.04368628188967705 -0.06499999761581421 -0.04631371051073074 -0.04368630051612854 -0.1899999976158142 -0.04885640740394592 -0.046999990940093994 -0.06499999761581421 -0.04885640740394592 -0.047000009566545486 -0.1899999976158142 -0.05045481398701668 -0.050858885049819946 -0.06499999761581421 -0.05045481398701668 -0.05085890367627144 -0.1899999976158142 -0.050999999046325684 -0.05499998852610588 -0.06499999761581421 -0.050999999046325684 -0.05500001087784767 -0.1899999976158142 -0.05045481398701668 -0.059141095727682114 -0.06499999761581421 -0.05045481398701668 -0.059141114354133606 -0.1899999976158142 -0.04885640740394592 -0.06299999356269836 -0.06499999761581421 -0.04885640740394592 -0.06300000846385956 -0.1899999976158142 -0.04631371051073074 -0.06631369888782501 -0.06499999761581421 -0.04631371051073074 -0.0663137212395668 -0.1899999976158142 -0.0430000014603138 -0.06885639578104019 -0.06499999761581421 -0.0430000014603138 -0.06885641813278198 -0.1899999976158142 -0.039141103625297546 -0.07045480608940125 -0.06499999761581421 -0.039141103625297546 -0.07045482099056244 -0.1899999976158142</float_array><technique_common><accessor source="#mesh15-array" count="48" stride="3"><param name="X" type="float" /><param name="Y" type="float" /><param name="Z" type="float" /></accessor></technique_common></source><source id="mesh15-normals"><float_array id="mesh15-normals-array" count="276">0.13052622973918915 -0.9914448857307434 1.4970402162362006e-07 0.13052622973918915 -0.9914448857307434 1.4970402162362006e-07 0.3826833665370941 -0.9238795638084412 1.3950193533673882e-07 0.3826833665370941 -0.9238795638084412 1.3950193533673882e-07 0.6087616086006165 -0.7933531999588013 1.1979300040820817e-07 0.6087616086006165 -0.7933531999588013 1.1979300040820817e-07 0.7933531999588013 -0.6087616086006165 9.192044814199107e-08 0.7933531999588013 -0.6087616086006165 9.192044814199107e-08 0.9238795638084412 -0.3826833665370941 5.778358058705635e-08 0.9238795638084412 -0.3826833665370941 5.778358058705635e-08 0.9914448857307434 -0.13052622973918915 1.970891361224858e-08 0.9914448857307434 -0.13052622973918915 1.970891361224858e-08 0.9914448857307434 0.13052622973918915 -1.970891361224858e-08 0.9914448857307434 0.13052622973918915 -1.970891361224858e-08 0.9238795638084412 0.3826833665370941 -5.778358058705635e-08 0.9238795638084412 0.3826833665370941 -5.778358058705635e-08 0.7933531999588013 0.6087616086006165 -9.192044814199107e-08 0.7933531999588013 0.6087616086006165 -9.192044814199107e-08 0.6087616086006165 0.7933531999588013 -1.1979300040820817e-07 0.6087616086006165 0.7933531999588013 -1.1979300040820817e-07 0.3826833665370941 0.9238795638084412 -1.3950193533673882e-07 0.3826833665370941 0.9238795638084412 -1.3950193533673882e-07 0.13052622973918915 0.9914448857307434 -1.4970402162362006e-07 0.13052622973918915 0.9914448857307434 -1.4970402162362006e-07 -0.13052622973918915 0.9914448857307434 -1.4970402162362006e-07 -0.13052622973918915 0.9914448857307434 -1.4970402162362006e-07 -0.3826833665370941 0.9238795638084412 -1.3950193533673882e-07 -0.3826833665370941 0.9238795638084412 -1.3950193533673882e-07 -0.6087616086006165 0.7933531999588013 -1.1979300040820817e-07 -0.6087616086006165 0.7933531999588013 -1.1979300040820817e-07 -0.7933531999588013 0.6087616086006165 -9.192044814199107e-08 -0.7933531999588013 0.6087616086006165 -9.192044814199107e-08 -0.9238795638084412 0.3826833665370941 -5.778358058705635e-08 -0.9238795638084412 0.3826833665370941 -5.778358058705635e-08 -0.9914448857307434 0.13052622973918915 -1.970891361224858e-08 -0.9914448857307434 0.13052622973918915 -1.970891361224858e-08 -0.9914448857307434 -0.13052622973918915 1.970891361224858e-08 -0.9914448857307434 -0.13052622973918915 1.970891361224858e-08 -0.9238795638084412 -0.3826833665370941 5.778358058705635e-08 -0.9238795638084412 -0.3826833665370941 5.778358058705635e-08 -0.7933531999588013 -0.6087616086006165 9.192044814199107e-08 -0.7933531999588013 -0.6087616086006165 9.192044814199107e-08 -0.6087616086006165 -0.7933531999588013 1.1979300040820817e-07 -0.6087616086006165 -0.7933531999588013 1.1979300040820817e-07 0.0 -1.5099580252808664e-07 -1.0 0.0 -1.5099580252808664e-07 -1.0 0.0 -1.5099580252808664e-07 -1.0 0.0 -1.5099580252808664e-07 -1.0 0.0 -1.5099580252808664e-07 -1.0 0.0 -1.5099580252808664e-07 -1.0 0.0 -1.5099580252808664e-07 -1.0 0.0 -1.5099580252808664e-07 -1.0 0.0 -1.5099580252808664e-07 -1.0 0.0 -1.5099580252808664e-07 -1.0 0.0 -1.5099580252808664e-07 -1.0 0.0 -1.5099580252808664e-07 -1.0 0.0 -1.5099580252808664e-07 -1.0 0.0 -1.5099580252808664e-07 -1.0 0.0 -1.5099580252808664e-07 -1.0 0.0 -1.5099580252808664e-07 -1.0 0.0 -1.5099580252808664e-07 -1.0 0.0 -1.5099580252808664e-07 -1.0 0.0 -1.5099580252808664e-07 -1.0 0.0 -1.5099580252808664e-07 -1.0 0.0 -1.5099580252808664e-07 -1.0 0.0 -1.5099580252808664e-07 -1.0 -0.3826833665370941 -0.9238795638084412 1.3950193533673882e-07 -0.3826833665370941 -0.9238795638084412 1.3950193533673882e-07 -0.13052622973918915 -0.9914448857307434 1.4970402162362006e-07 -0.13052622973918915 -0.9914448857307434 1.4970402162362006e-07 0.0 1.5099580252808664e-07 1.0 0.0 1.5099580252808664e-07 1.0 0.0 1.5099580252808664e-07 1.0 0.0 1.5099580252808664e-07 1.0 0.0 1.5099580252808664e-07 1.0 0.0 1.5099580252808664e-07 1.0 0.0 1.5099580252808664e-07 1.0 0.0 1.5099580252808664e-07 1.0 0.0 1.5099580252808664e-07 1.0 0.0 1.5099580252808664e-07 1.0 0.0 1.5099580252808664e-07 1.0 0.0 1.5099580252808664e-07 1.0 0.0 1.5099580252808664e-07 1.0 0.0 1.5099580252808664e-07 1.0 0.0 1.5099580252808664e-07 1.0 0.0 1.5099580252808664e-07 1.0 0.0 1.5099580252808664e-07 1.0 0.0 1.5099580252808664e-07 1.0 0.0 1.5099580252808664e-07 1.0 0.0 1.5099580252808664e-07 1.0 0.0 1.5099580252808664e-07 1.0 0.0 1.5099580252808664e-07 1.0</float_array><technique_common><accessor source="#mesh15-normals-array" count="92" stride="3"><param name="X" type="float" /><param name="Y" type="float" /><param name="Z" type="float" /></accessor></technique_common></source><vertices id="mesh15-vertices"><input semantic="POSITION" source="#mesh15-positions" /></vertices><triangles count="92" material="graphite"><input semantic="VERTEX" source="#mesh15-vertices" offset="0" /><input semantic="NORMAL" source="#mesh15-normals" offset="1" /><p>0 0 1 0 3 0 0 1 3 1 2 1 2 2 3 2 5 2 2 3 5 3 4 3 4 4 5 4 7 4 4 5 7 5 6 5 6 6 7 6 9 6 6 7 9 7 8 7 8 8 9 8 11 8 8 9 11 9 10 9 10 10 11 10 13 10 10 11 13 11 12 11 12 12 13 12 15 12 12 13 15 13 14 13 14 14 15 14 17 14 14 15 17 15 16 15 16 16 17 16 19 16 16 17 19 17 18 17 18 18 19 18 21 18 18 19 21 19 20 19 20 20 21 20 23 20 20 21 23 21 22 21 22 22 23 22 25 22 22 23 25 23 24 23 24 24 25 24 27 24 24 25 27 25 26 25 26 26 27 26 29 26 26 27 29 27 28 27 28 28 29 28 31 28 28 29 31 29 30 29 30 30 31 30 33 30 30 31 33 31 32 31 32 32 33 32 35 32 32 33 35 33 34 33 34 34 35 34 37 34 34 35 37 35 36 35 36 36 37 36 39 36 36 37 39 37 38 37 38 38 39 38 41 38 38 39 41 39 40 39 40 40 41 40 43 40 40 41 43 41 42 41 42 42 43 42 45 42 42 43 45 43 44 43 5 44 3 44 1 44 1 45 47 45 45 45 45 46 43 46 41 46 41 47 39 47 37 47 37 48 35 48 33 48 33 49 31 49 29 49 29 50 27 50 25 50 25 51 23 51 21 51 21 52 19 52 17 52 17 53 15 53 13 53 13 54 11 54 9 54 9 55 7 55 5 55 5 56 1 56 45 56 45 57 41 57 37 57 37 58 33 58 29 58 29 59 25 59 21 59 21 60 17 60 13 60 13 61 9 61 5 61 5 62 45 62 37 62 37 63 29 63 21 63 21 64 13 64 5 64 37 65 21 65 5 65 44 66 45 66 47 66 44 67 47 67 46 67 46 68 47 68 1 68 46 69 1 69 0 69 46 70 0 70 2 70 2 71 4 71 6 71 6 72 8 72 10 72 10 73 12 73 14 73 14 74 16 74 18 74 18 75 20 75 22 75 22 76 24 76 26 76 26 77 28 77 30 77 30 78 32 78 34 78 34 79 36 79 38 79 38 80 40 80 42 80 42 81 44 81 46 81 46 82 2 82 6 82 6 83 10 83 14 83 14 84 18 84 22 84 22 85 26 85 30 85 30 86 34 86 38 86 38 87 42 87 46 87 46 88 6 88 14 88 14 89 22 89 30 89 30 90 38 90 46 90 14 91 30 91 46 91</p></triangles></mesh></geometry><geometry id="mesh16"><mesh><source id="mesh16-positions"><float_array id="mesh16-array" count="144">-0.03500000014901161 0.0390000082552433 -0.06499999761581421 -0.03500000014901161 0.03899998962879181 -0.1899999976158142 -0.030858894810080528 0.039545197039842606 -0.06499999761581421 -0.030858894810080528 0.039545174688100815 -0.1899999976158142 -0.026999998837709427 0.04114360362291336 -0.06499999761581421 -0.026999998837709427 0.04114358127117157 -0.1899999976158142 -0.02368629164993763 0.04368630051612854 -0.06499999761581421 -0.02368629164993763 0.04368628188967705 -0.1899999976158142 -0.0211435928940773 0.047000009566545486 -0.06499999761581421 -0.0211435928940773 0.046999990940093994 -0.1899999976158142 -0.019545186311006546 0.05085890367627144 -0.06499999761581421 -0.019545186311006546 0.050858885049819946 -0.1899999976158142 -0.01899999938905239 0.05500001087784767 -0.06499999761581421 -0.01899999938905239 0.05499998852610588 -0.1899999976158142 -0.019545186311006546 0.059141114354133606 -0.06499999761581421 -0.019545186311006546 0.059141095727682114 -0.1899999976158142 -0.0211435928940773 0.06300000846385956 -0.06499999761581421 -0.0211435928940773 0.06299999356269836 -0.1899999976158142 -0.02368629164993763 0.0663137212395668 -0.06499999761581421 -0.02368629164993763 0.06631369888782501 -0.1899999976158142 -0.026999998837709427 0.06885641813278198 -0.06499999761581421 -0.026999998837709427 0.06885639578104019 -0.1899999976158142 -0.030858894810080528 0.07045482099056244 -0.06499999761581421 -0.030858894810080528 0.07045480608940125 -0.1899999976158142 -0.03500000014901161 0.07100000977516174 -0.06499999761581421 -0.03500000014901161 0.07099998742341995 -0.1899999976158142 -0.039141103625297546 0.07045482099056244 -0.06499999761581421 -0.039141103625297546 0.07045480608940125 -0.1899999976158142 -0.0430000014603138 0.06885641813278198 -0.06499999761581421 -0.0430000014603138 0.06885639578104019 -0.1899999976158142 -0.04631371051073074 0.0663137212395668 -0.06499999761581421 -0.04631371051073074 0.06631369888782501 -0.1899999976158142 -0.04885640740394592 0.06300000846385956 -0.06499999761581421 -0.04885640740394592 0.06299999356269836 -0.1899999976158142 -0.05045481398701668 0.059141114354133606 -0.06499999761581421 -0.05045481398701668 0.059141095727682114 -0.1899999976158142 -0.050999999046325684 0.05500001087784767 -0.06499999761581421 -0.050999999046325684 0.05499998852610588 -0.1899999976158142 -0.05045481398701668 0.05085890367627144 -0.06499999761581421 -0.05045481398701668 0.050858885049819946 -0.1899999976158142 -0.04885640740394592 0.047000009566545486 -0.06499999761581421 -0.04885640740394592 0.046999990940093994 -0.1899999976158142 -0.04631371051073074 0.04368630051612854 -0.06499999761581421 -0.04631371051073074 0.04368628188967705 -0.1899999976158142 -0.0430000014603138 0.04114360362291336 -0.06499999761581421 -0.0430000014603138 0.04114358127117157 -0.1899999976158142 -0.039141103625297546 0.039545197039842606 -0.06499999761581421 -0.039141103625297546 0.039545174688100815 -0.1899999976158142</float_array><technique_common><accessor source="#mesh16-array" count="48" stride="3"><param name="X" type="float" /><param name="Y" type="float" /><param name="Z" type="float" /></accessor></technique_common></source><source id="mesh16-normals"><float_array id="mesh16-normals-array" count="276">0.13052622973918915 -0.9914448857307434 1.4970402162362006e-07 0.13052622973918915 -0.9914448857307434 1.4970402162362006e-07 0.3826833665370941 -0.9238795638084412 1.3950193533673882e-07 0.3826833665370941 -0.9238795638084412 1.3950193533673882e-07 0.6087616086006165 -0.7933531999588013 1.1979300040820817e-07 0.6087616086006165 -0.7933531999588013 1.1979300040820817e-07 0.7933531999588013 -0.6087616086006165 9.192044814199107e-08 0.7933531999588013 -0.6087616086006165 9.192044814199107e-08 0.9238795638084412 -0.3826833665370941 5.778358058705635e-08 0.9238795638084412 -0.3826833665370941 5.778358058705635e-08 0.9914448857307434 -0.13052622973918915 1.970891361224858e-08 0.9914448857307434 -0.13052622973918915 1.970891361224858e-08 0.9914448857307434 0.13052622973918915 -1.970891361224858e-08 0.9914448857307434 0.13052622973918915 -1.970891361224858e-08 0.9238795638084412 0.3826833665370941 -5.778358058705635e-08 0.9238795638084412 0.3826833665370941 -5.778358058705635e-08 0.7933531999588013 0.6087616086006165 -9.192044814199107e-08 0.7933531999588013 0.6087616086006165 -9.192044814199107e-08 0.6087616086006165 0.7933531999588013 -1.1979300040820817e-07 0.6087616086006165 0.7933531999588013 -1.1979300040820817e-07 0.3826833665370941 0.9238795638084412 -1.3950193533673882e-07 0.3826833665370941 0.9238795638084412 -1.3950193533673882e-07 0.13052622973918915 0.9914448857307434 -1.4970402162362006e-07 0.13052622973918915 0.9914448857307434 -1.4970402162362006e-07 -0.13052622973918915 0.9914448857307434 -1.4970402162362006e-07 -0.13052622973918915 0.9914448857307434 -1.4970402162362006e-07 -0.3826833665370941 0.9238795638084412 -1.3950193533673882e-07 -0.3826833665370941 0.9238795638084412 -1.3950193533673882e-07 -0.6087616086006165 0.7933531999588013 -1.1979300040820817e-07 -0.6087616086006165 0.7933531999588013 -1.1979300040820817e-07 -0.7933531999588013 0.6087616086006165 -9.192044814199107e-08 -0.7933531999588013 0.6087616086006165 -9.192044814199107e-08 -0.9238795638084412 0.3826833665370941 -5.778358058705635e-08 -0.9238795638084412 0.3826833665370941 -5.778358058705635e-08 -0.9914448857307434 0.13052622973918915 -1.970891361224858e-08 -0.9914448857307434 0.13052622973918915 -1.970891361224858e-08 -0.9914448857307434 -0.13052622973918915 1.970891361224858e-08 -0.9914448857307434 -0.13052622973918915 1.970891361224858e-08 -0.9238795638084412 -0.3826833665370941 5.778358058705635e-08 -0.9238795638084412 -0.3826833665370941 5.778358058705635e-08 -0.7933531999588013 -0.6087616086006165 9.192044814199107e-08 -0.7933531999588013 -0.6087616086006165 9.192044814199107e-08 -0.6087616086006165 -0.7933531999588013 1.1979300040820817e-07 -0.6087616086006165 -0.7933531999588013 1.1979300040820817e-07 0.0 -1.5099580252808664e-07 -1.0 0.0 -1.5099580252808664e-07 -1.0 0.0 -1.5099580252808664e-07 -1.0 0.0 -1.5099580252808664e-07 -1.0 0.0 -1.5099580252808664e-07 -1.0 0.0 -1.5099580252808664e-07 -1.0 0.0 -1.5099580252808664e-07 -1.0 0.0 -1.5099580252808664e-07 -1.0 0.0 -1.5099580252808664e-07 -1.0 0.0 -1.5099580252808664e-07 -1.0 0.0 -1.5099580252808664e-07 -1.0 0.0 -1.5099580252808664e-07 -1.0 0.0 -1.5099580252808664e-07 -1.0 0.0 -1.5099580252808664e-07 -1.0 0.0 -1.5099580252808664e-07 -1.0 0.0 -1.5099580252808664e-07 -1.0 0.0 -1.5099580252808664e-07 -1.0 0.0 -1.5099580252808664e-07 -1.0 0.0 -1.5099580252808664e-07 -1.0 0.0 -1.5099580252808664e-07 -1.0 0.0 -1.5099580252808664e-07 -1.0 0.0 -1.5099580252808664e-07 -1.0 -0.3826833665370941 -0.9238795638084412 1.3950193533673882e-07 -0.3826833665370941 -0.9238795638084412 1.3950193533673882e-07 -0.13052622973918915 -0.9914448857307434 1.4970402162362006e-07 -0.13052622973918915 -0.9914448857307434 1.4970402162362006e-07 0.0 1.5099580252808664e-07 1.0 0.0 1.5099580252808664e-07 1.0 0.0 1.5099580252808664e-07 1.0 0.0 1.5099580252808664e-07 1.0 0.0 1.5099580252808664e-07 1.0 0.0 1.5099580252808664e-07 1.0 0.0 1.5099580252808664e-07 1.0 0.0 1.5099580252808664e-07 1.0 0.0 1.5099580252808664e-07 1.0 0.0 1.5099580252808664e-07 1.0 0.0 1.5099580252808664e-07 1.0 0.0 1.5099580252808664e-07 1.0 0.0 1.5099580252808664e-07 1.0 0.0 1.5099580252808664e-07 1.0 0.0 1.5099580252808664e-07 1.0 0.0 1.5099580252808664e-07 1.0 0.0 1.5099580252808664e-07 1.0 0.0 1.5099580252808664e-07 1.0 0.0 1.5099580252808664e-07 1.0 0.0 1.5099580252808664e-07 1.0 0.0 1.5099580252808664e-07 1.0 0.0 1.5099580252808664e-07 1.0</float_array><technique_common><accessor source="#mesh16-normals-array" count="92" stride="3"><param name="X" type="float" /><param name="Y" type="float" /><param name="Z" type="float" /></accessor></technique_common></source><vertices id="mesh16-vertices"><input semantic="POSITION" source="#mesh16-positions" /></vertices><triangles count="92" material="graphite"><input semantic="VERTEX" source="#mesh16-vertices" offset="0" /><input semantic="NORMAL" source="#mesh16-normals" offset="1" /><p>0 0 1 0 3 0 0 1 3 1 2 1 2 2 3 2 5 2 2 3 5 3 4 3 4 4 5 4 7 4 4 5 7 5 6 5 6 6 7 6 9 6 6 7 9 7 8 7 8 8 9 8 11 8 8 9 11 9 10 9 10 10 11 10 13 10 10 11 13 11 12 11 12 12 13 12 15 12 12 13 15 13 14 13 14 14 15 14 17 14 14 15 17 15 16 15 16 16 17 16 19 16 16 17 19 17 18 17 18 18 19 18 21 18 18 19 21 19 20 19 20 20 21 20 23 20 20 21 23 21 22 21 22 22 23 22 25 22 22 23 25 23 24 23 24 24 25 24 27 24 24 25 27 25 26 25 26 26 27 26 29 26 26 27 29 27 28 27 28 28 29 28 31 28 28 29 31 29 30 29 30 30 31 30 33 30 30 31 33 31 32 31 32 32 33 32 35 32 32 33 35 33 34 33 34 34 35 34 37 34 34 35 37 35 36 35 36 36 37 36 39 36 36 37 39 37 38 37 38 38 39 38 41 38 38 39 41 39 40 39 40 40 41 40 43 40 40 41 43 41 42 41 42 42 43 42 45 42 42 43 45 43 44 43 5 44 3 44 1 44 1 45 47 45 45 45 45 46 43 46 41 46 41 47 39 47 37 47 37 48 35 48 33 48 33 49 31 49 29 49 29 50 27 50 25 50 25 51 23 51 21 51 21 52 19 52 17 52 17 53 15 53 13 53 13 54 11 54 9 54 9 55 7 55 5 55 5 56 1 56 45 56 45 57 41 57 37 57 37 58 33 58 29 58 29 59 25 59 21 59 21 60 17 60 13 60 13 61 9 61 5 61 5 62 45 62 37 62 37 63 29 63 21 63 21 64 13 64 5 64 37 65 21 65 5 65 44 66 45 66 47 66 44 67 47 67 46 67 46 68 47 68 1 68 46 69 1 69 0 69 46 70 0 70 2 70 2 71 4 71 6 71 6 72 8 72 10 72 10 73 12 73 14 73 14 74 16 74 18 74 18 75 20 75 22 75 22 76 24 76 26 76 26 77 28 77 30 77 30 78 32 78 34 78 34 79 36 79 38 79 38 80 40 80 42 80 42 81 44 81 46 81 46 82 2 82 6 82 6 83 10 83 14 83 14 84 18 84 22 84 22 85 26 85 30 85 30 86 34 86 38 86 38 87 42 87 46 87 46 88 6 88 14 88 14 89 22 89 30 89 30 90 38 90 46 90 14 91 30 91 46 91</p></triangles></mesh></geometry></library_geometries><library_visual_scenes><visual_scene id="Scene"><node id="mesh0-node"><instance_geometry url="#mesh0"><bind_material><technique_common><instance_material symbol="graphite" target="#graphite" /></technique_common></bind_material></instance_geometry></node><node id="mesh1-node"><instance_geometry url="#mesh1"><bind_material><technique_common><instance_material symbol="graphite" target="#graphite" /></technique_common></bind_material></instance_geometry></node><node id="mesh2-node"><instance_geometry url="#mesh2"><bind_material><technique_common><instance_material symbol="graphite" target="#graphite" /></technique_common></bind_material></instance_geometry></node><node id="mesh3-node"><instance_geometry url="#mesh3"><bind_material><technique_common><instance_material symbol="graphite" target="#graphite" /></technique_common></bind_material></instance_geometry></node><node id="mesh4-node"><instance_geometry url="#mesh4"><bind_material><technique_common><instance_material symbol="graphite" target="#graphite" /></technique_common></bind_material></instance_geometry></node><node id="mesh5-node"><instance_geometry url="#mesh5"><bind_material><technique_common><instance_material symbol="graphite" target="#graphite" /></technique_common></bind_material></instance_geometry></node><node id="mesh6-node"><instance_geometry url="#mesh6"><bind_material><technique_common><instance_material symbol="graphite" target="#graphite" /></technique_common></bind_material></instance_geometry></node><node id="mesh7-node"><instance_geometry url="#mesh7"><bind_material><technique_common><instance_material symbol="graphite" target="#graphite" /></technique_common></bind_material></instance_geometry></node><node id="mesh8-node"><instance_geometry url="#mesh8"><bind_material><technique_common><instance_material symbol="graphite" target="#graphite" /></technique_common></bind_material></instance_geometry></node><node id="mesh9-node"><instance_geometry url="#mesh9"><bind_material><technique_common><instance_material symbol="graphite" target="#graphite" /></technique_common></bind_material></instance_geometry></node><node id="mesh10-node"><instance_geometry url="#mesh10"><bind_material><technique_common><instance_material symbol="graphite" target="#graphite" /></technique_common></bind_material></instance_geometry></node><node id="mesh11-node"><instance_geometry url="#mesh11"><bind_material><technique_common><instance_material symbol="graphite" target="#graphite" /></technique_common></bind_material></instance_geometry></node><node id="mesh12-node"><instance_geometry url="#mesh12"><bind_material><technique_common><instance_material symbol="graphite" target="#graphite" /></technique_common></bind_material></instance_geometry></node><node id="mesh13-node"><instance_geometry url="#mesh13"><bind_material><technique_common><instance_material symbol="graphite" target="#graphite" /></technique_common></bind_material></instance_geometry></node><node id="mesh14-node"><instance_geometry url="#mesh14"><bind_material><technique_common><instance_material symbol="graphite" target="#graphite" /></technique_common></bind_material></instance_geometry></node><node id="mesh15-node"><instance_geometry url="#mesh15"><bind_material><technique_common><instance_material symbol="graphite" target="#graphite" /></technique_common></bind_material></instance_geometry></node><node id="mesh16-node"><instance_geometry url="#mesh16"><bind_material><technique_common><instance_material symbol="graphite" target="#graphite" /></technique_common></bind_material></instance_geometry></node></visual_scene></library_visual_scenes><scene><instance_visual_scene url="#Scene" /></scene></COLLADA>