<?xml version='1.0' encoding='utf-8'?>
<COLLADA xmlns="http://www.collada.org/2005/11/COLLADASchema" version="1.4.1"><asset><unit name="meter" meter="1" /><up_axis>Z_UP</up_axis></asset><library_effects><effect id="graphite-fx"><profile_COMMON><technique sid="common"><phong><emission><color>0 0 0 1</color></emission><ambient><color>0.065 0.075 0.085 1</color></ambient><diffuse><color>0.065 0.075 0.085 1</color></diffuse><specular><color>0.12 0.12 0.12 1</color></specular><shininess><float>25</float></shininess></phong></technique></profile_COMMON></effect><effect id="titanium-fx"><profile_COMMON><technique sid="common"><phong><emission><color>0 0 0 1</color></emission><ambient><color>0.36 0.4 0.43 1</color></ambient><diffuse><color>0.36 0.4 0.43 1</color></diffuse><specular><color>0.12 0.12 0.12 1</color></specular><shininess><float>25</float></shininess></phong></technique></profile_COMMON></effect><effect id="ivory-fx"><profile_COMMON><technique sid="common"><phong><emission><color>0 0 0 1</color></emission><ambient><color>0.72 0.72 0.65 1</color></ambient><diffuse><color>0.72 0.72 0.65 1</color></diffuse><specular><color>0.12 0.12 0.12 1</color></specular><shininess><float>25</float></shininess></phong></technique></profile_COMMON></effect><effect id="copper-fx"><profile_COMMON><technique sid="common"><phong><emission><color>0 0 0 1</color></emission><ambient><color>0.66 0.29 0.08 1</color></ambient><diffuse><color>0.66 0.29 0.08 1</color></diffuse><specular><color>0.12 0.12 0.12 1</color></specular><shininess><float>25</float></shininess></phong></technique></profile_COMMON></effect><effect id="rubber-fx"><profile_COMMON><technique sid="common"><phong><emission><color>0 0 0 1</color></emission><ambient><color>0.025 0.028 0.032 1</color></ambient><diffuse><color>0.025 0.028 0.032 1</color></diffuse><specular><color>0.12 0.12 0.12 1</color></specular><shininess><float>25</float></shininess></phong></technique></profile_COMMON></effect><effect id="lens-fx"><profile_COMMON><technique sid="common"><phong><emission><color>0 0 0 1</color></emission><ambient><color>0.05 0.26 0.33 1</color></ambient><diffuse><color>0.05 0.26 0.33 1</color></diffuse><specular><color>0.12 0.12 0.12 1</color></specular><shininess><float>25</float></shininess></phong></technique></profile_COMMON></effect></library_effects><library_materials><material id="graphite"><instance_effect url="#graphite-fx" /></material><material id="titanium"><instance_effect url="#titanium-fx" /></material><material id="ivory"><instance_effect url="#ivory-fx" /></material><material id="copper"><instance_effect url="#copper-fx" /></material><material id="rubber"><instance_effect url="#rubber-fx" /></material><material id="lens"><instance_effect url="#lens-fx" /></material></library_materials><library_geometries><geometry id="mesh0"><mesh><source id="mesh0-positions"><float_array id="mesh0-array" count="144">-6.0322831174630664e-09 -0.0625000074505806 0.03995000198483467 -6.0322831174630664e-09 -0.05050000175833702 0.03995000198483467 -0.01033982913941145 -0.0625000074505806 0.038588739931583405 -0.01033982913941145 -0.05050000175833702 0.038588736206293106 -0.01997501030564308 -0.0625000074505806 0.03459771350026131 -0.01997501030564308 -0.05050000175833702 0.03459771350026131 -0.028248924762010574 -0.0625000074505806 0.02824891358613968 -0.028248924762010574 -0.05050000175833702 0.02824891172349453 -0.0345977246761322 -0.0625 0.019974997267127037 -0.0345977246761322 -0.05049999803304672 0.019974995404481888 -0.0385887436568737 -0.0625 0.01033981703221798 -0.0385887436568737 -0.05049999803304672 0.01033981516957283 -0.03995000943541527 -0.0625 -5.226129751179087e-09 -0.03995000943541527 -0.05049999803304672 -6.838436483747046e-09 -0.0385887436568737 -0.0625 -0.010339826345443726 -0.0385887436568737 -0.050499994307756424 -0.010339828208088875 -0.034597717225551605 -0.0625 -0.019975004717707634 -0.034597717225551605 -0.050499994307756424 -0.019975006580352783 -0.028248917311429977 -0.0624999962747097 -0.028248921036720276 -0.028248917311429977 -0.050499994307756424 -0.028248922899365425 -0.019974999129772186 -0.0624999962747097 -0.034597720950841904 -0.019974999129772186 -0.050499994307756424 -0.034597720950841904 -0.010339817963540554 -0.0624999962747097 -0.038588739931583405 -0.010339817963540554 -0.050499990582466125 -0.0385887436568737 6.0322831174630664e-09 -0.0624999962747097 -0.03995000198483467 6.0322831174630664e-09 -0.050499990582466125 -0.03995000198483467 0.01033982913941145 -0.0624999962747097 -0.038588736206293106 0.01033982913941145 -0.050499990582466125 -0.038588739931583405 0.01997501030564308 -0.0624999962747097 -0.03459771350026131 0.01997501030564308 -0.050499994307756424 -0.03459771350026131 0.028248924762010574 -0.0624999962747097 -0.02824891172349453 0.028248924762010574 -0.050499994307756424 -0.02824891358613968 0.0345977246761322 -0.0625 -0.019974995404481888 0.0345977246761322 -0.050499994307756424 -0.019974997267127037 0.0385887436568737 -0.0625 -0.01033981516957283 0.0385887436568737 -0.050499994307756424 -0.01033981703221798 0.03995000943541527 -0.0625 6.838436483747046e-09 0.03995000943541527 -0.05049999803304672 5.226129751179087e-09 0.0385887436568737 -0.0625 0.010339828208088875 0.0385887436568737 -0.05049999803304672 0.010339826345443726 0.034597717225551605 -0.0625 0.019975006580352783 0.034597717225551605 -0.05049999803304672 0.019975004717707634 0.028248917311429977 -0.0625000074505806 0.028248922899365425 0.028248917311429977 -0.05050000175833702 0.028248921036720276 0.019974999129772186 -0.0625000074505806 0.034597720950841904 0.019974999129772186 -0.05050000175833702 0.034597720950841904 0.010339817963540554 -0.0625000074505806 0.0385887436568737 0.010339817963540554 -0.05050000175833702 0.038588739931583405</float_array><technique_common><accessor source="#mesh0-array" count="48" stride="3"><param name="X" type="float" /><param name="Y" type="float" /><param name="Z" type="float" /></accessor></technique_common></source><source id="mesh0-normals"><float_array id="mesh0-normals-array" count="276">-0.13052621483802795 1.3320936886884738e-07 0.9914448857307434 -0.13052621483802795 1.3320936886884738e-07 0.9914448857307434 -0.382683664560318 1.2413136118993862e-07 0.9238795042037964 -0.382683664560318 1.2413136118993862e-07 0.9238795042037964 -0.6087616682052612 1.065940011812927e-07 0.7933531403541565 -0.6087616682052612 1.065940011812927e-07 0.7933531403541565 -0.7933533191680908 8.179247856787697e-08 0.6087614893913269 -0.7933533191680908 8.179247856787697e-08 0.6087614893913269 -0.9238796234130859 5.1416900959111445e-08 0.3826834261417389 -0.9238796234130859 5.1416900959111445e-08 0.3826834261417389 -0.9914448857307434 1.7537313823368095e-08 0.13052594661712646 -0.9914448857307434 1.7537313823368095e-08 0.13052594661712646 -0.9914448857307434 -1.753735290321856e-08 -0.13052624464035034 -0.9914448857307434 -1.753735290321856e-08 -0.13052624464035034 -0.9238795042037964 -5.141693648624823e-08 -0.38268372416496277 -0.9238795042037964 -5.141693648624823e-08 -0.38268372416496277 -0.7933531403541565 -8.179252120044112e-08 -0.6087617874145508 -0.7933531403541565 -8.179252120044112e-08 -0.6087617874145508 -0.6087614297866821 -1.0659402960300213e-07 -0.7933533787727356 -0.6087614297866821 -1.0659402960300213e-07 -0.7933533787727356 -0.3826833665370941 -1.2413138961164805e-07 -0.9238796234130859 -0.3826833665370941 -1.2413138961164805e-07 -0.9238796234130859 -0.13052591681480408 -1.3320936886884738e-07 -0.9914448857307434 -0.13052591681480408 -1.3320936886884738e-07 -0.9914448857307434 0.13052621483802795 -1.3320936886884738e-07 -0.9914448857307434 0.13052621483802795 -1.3320936886884738e-07 -0.9914448857307434 0.382683664560318 -1.2413136118993862e-07 -0.9238795042037964 0.382683664560318 -1.2413136118993862e-07 -0.9238795042037964 0.6087616682052612 -1.065940011812927e-07 -0.7933531403541565 0.6087616682052612 -1.065940011812927e-07 -0.7933531403541565 0.7933533191680908 -8.179247856787697e-08 -0.6087614893913269 0.7933533191680908 -8.179247856787697e-08 -0.6087614893913269 0.9238796234130859 -5.1416900959111445e-08 -0.3826834261417389 0.9238796234130859 -5.1416900959111445e-08 -0.3826834261417389 0.9914448857307434 -1.7537313823368095e-08 -0.13052594661712646 0.9914448857307434 -1.7537313823368095e-08 -0.13052594661712646 0.9914448857307434 1.753735290321856e-08 0.13052624464035034 0.9914448857307434 1.753735290321856e-08 0.13052624464035034 0.9238795042037964 5.141693648624823e-08 0.38268372416496277 0.9238795042037964 5.141693648624823e-08 0.38268372416496277 0.7933531403541565 8.179252120044112e-08 0.6087617874145508 0.7933531403541565 8.179252120044112e-08 0.6087617874145508 0.6087614297866821 1.0659402960300213e-07 0.7933533787727356 0.6087614297866821 1.0659402960300213e-07 0.7933533787727356 -2.028761815660307e-14 1.0 1.343588280633412e-07 -2.028761815660307e-14 1.0 1.343588280633412e-07 -2.0287619850668966e-14 1.0 1.343588280633412e-07 -2.028761815660307e-14 1.0 1.343588280633412e-07 -2.028761815660307e-14 1.0 1.343588280633412e-07 -2.0287619850668966e-14 1.0 1.343588280633412e-07 -2.028761815660307e-14 1.0 1.343588280633412e-07 -2.028761815660307e-14 1.0 1.343588280633412e-07 -2.0287619850668966e-14 1.0 1.343588280633412e-07 -2.028761815660307e-14 1.0 1.343588280633412e-07 -2.028761815660307e-14 1.0 1.343588280633412e-07 -2.0287619850668966e-14 1.0 1.343588280633412e-07 -2.0287619850668966e-14 1.0 1.343588280633412e-07 -2.028761815660307e-14 1.0 1.343588280633412e-07 -2.028761815660307e-14 1.0 1.343588280633412e-07 -2.0287619850668966e-14 1.0 1.343588280633412e-07 -2.028761815660307e-14 1.0 1.343588280633412e-07 -2.028761815660307e-14 1.0 1.343588280633412e-07 -2.028761815660307e-14 1.0 1.343588280633412e-07 -2.028761815660307e-14 1.0 1.343588280633412e-07 -2.028761815660307e-14 1.0 1.343588280633412e-07 -2.028761815660307e-14 1.0 1.343588280633412e-07 0.3826833665370941 1.2413138961164805e-07 0.9238796234130859 0.3826833665370941 1.2413138961164805e-07 0.9238796234130859 0.13052591681480408 1.3320936886884738e-07 0.9914448857307434 0.13052591681480408 1.3320936886884738e-07 0.9914448857307434 2.028761815660307e-14 -1.0 -1.343588280633412e-07 2.0287619850668966e-14 -1.0 -1.343588280633412e-07 2.0287619850668966e-14 -1.0 -1.343588280633412e-07 2.028761815660307e-14 -1.0 -1.343588280633412e-07 2.0287619850668966e-14 -1.0 -1.343588280633412e-07 2.0287619850668966e-14 -1.0 -1.343588280633412e-07 2.028761815660307e-14 -1.0 -1.343588280633412e-07 2.0287619850668966e-14 -1.0 -1.343588280633412e-07 2.0287619850668966e-14 -1.0 -1.343588280633412e-07 2.028761815660307e-14 -1.0 -1.343588280633412e-07 2.0287619850668966e-14 -1.0 -1.343588280633412e-07 2.0287619850668966e-14 -1.0 -1.343588280633412e-07 2.028761815660307e-14 -1.0 -1.343588280633412e-07 2.028761815660307e-14 -1.0 -1.343588280633412e-07 2.028761815660307e-14 -1.0 -1.343588280633412e-07 2.028761815660307e-14 -1.0 -1.343588280633412e-07 2.028761815660307e-14 -1.0 -1.343588280633412e-07 2.028761815660307e-14 -1.0 -1.343588280633412e-07 2.028761815660307e-14 -1.0 -1.343588280633412e-07 2.028761815660307e-14 -1.0 -1.343588280633412e-07 2.028761815660307e-14 -1.0 -1.343588280633412e-07 2.028761815660307e-14 -1.0 -1.343588280633412e-07</float_array><technique_common><accessor source="#mesh0-normals-array" count="92" stride="3"><param name="X" type="float" /><param name="Y" type="float" /><param name="Z" type="float" /></accessor></technique_common></source><vertices id="mesh0-vertices"><input semantic="POSITION" source="#mesh0-positions" /></vertices><triangles count="92" material="ivory"><input semantic="VERTEX" source="#mesh0-vertices" offset="0" /><input semantic="NORMAL" source="#mesh0-normals" offset="1" /><p>0 0 1 0 3 0 0 1 3 1 2 1 2 2 3 2 5 2 2 3 5 3 4 3 4 4 5 4 7 4 4 5 7 5 6 5 6 6 7 6 9 6 6 7 9 7 8 7 8 8 9 8 11 8 8 9 11 9 10 9 10 10 11 10 13 10 10 11 13 11 12 11 12 12 13 12 15 12 12 13 15 13 14 13 14 14 15 14 17 14 14 15 17 15 16 15 16 16 17 16 19 16 16 17 19 17 18 17 18 18 19 18 21 18 18 19 21 19 20 19 20 20 21 20 23 20 20 21 23 21 22 21 22 22 23 22 25 22 22 23 25 23 24 23 24 24 25 24 27 24 24 25 27 25 26 25 26 26 27 26 29 26 26 27 29 27 28 27 28 28 29 28 31 28 28 29 31 29 30 29 30 30 31 30 33 30 30 31 33 31 32 31 32 32 33 32 35 32 32 33 35 33 34 33 34 34 35 34 37 34 34 35 37 35 36 35 36 36 37 36 39 36 36 37 39 37 38 37 38 38 39 38 41 38 38 39 41 39 40 39 40 40 41 40 43 40 40 41 43 41 42 41 42 42 43 42 45 42 42 43 45 43 44 43 5 44 3 44 1 44 1 45 47 45 45 45 45 46 43 46 41 46 41 47 39 47 37 47 37 48 35 48 33 48 33 49 31 49 29 49 29 50 27 50 25 50 25 51 23 51 21 51 21 52 19 52 17 52 17 53 15 53 13 53 13 54 11 54 9 54 9 55 7 55 5 55 5 56 1 56 45 56 45 57 41 57 37 57 37 58 33 58 29 58 29 59 25 59 21 59 21 60 17 60 13 60 13 61 9 61 5 61 5 62 45 62 37 62 37 63 29 63 21 63 21 64 13 64 5 64 37 65 21 65 5 65 44 66 45 66 47 66 44 67 47 67 46 67 46 68 47 68 1 68 46 69 1 69 0 69 46 70 0 70 2 70 2 71 4 71 6 71 6 72 8 72 10 72 10 73 12 73 14 73 14 74 16 74 18 74 18 75 20 75 22 75 22 76 24 76 26 76 26 77 28 77 30 77 30 78 32 78 34 78 34 79 36 79 38 79 38 80 40 80 42 80 42 81 44 81 46 81 46 82 2 82 6 82 6 83 10 83 14 83 14 84 18 84 22 84 22 85 26 85 30 85 30 86 34 86 38 86 38 87 42 87 46 87 46 88 6 88 14 88 14 89 22 89 30 89 30 90 38 90 46 90 14 91 30 91 46 91</p></triangles></mesh></geometry><geometry id="mesh1"><mesh><source id="mesh1-positions"><float_array id="mesh1-array" count="144">-6.0322831174630664e-09 0.050499990582466125 0.03995000198483467 -6.0322831174630664e-09 0.0624999962747097 0.03995000198483467 -0.01033982913941145 0.050499990582466125 0.038588739931583405 -0.01033982913941145 0.0624999962747097 0.038588736206293106 -0.01997501030564308 0.050499994307756424 0.03459771350026131 -0.01997501030564308 0.0624999962747097 0.03459771350026131 -0.028248924762010574 0.050499994307756424 0.02824891358613968 -0.028248924762010574 0.0624999962747097 0.02824891172349453 -0.0345977246761322 0.050499994307756424 0.019974997267127037 -0.0345977246761322 0.0625 0.019974995404481888 -0.0385887436568737 0.050499994307756424 0.01033981703221798 -0.0385887436568737 0.0625 0.01033981516957283 -0.03995000943541527 0.05049999803304672 -5.226129751179087e-09 -0.03995000943541527 0.0625 -6.838436483747046e-09 -0.0385887436568737 0.05049999803304672 -0.010339826345443726 -0.0385887436568737 0.0625 -0.010339828208088875 -0.034597717225551605 0.05049999803304672 -0.019975004717707634 -0.034597717225551605 0.0625 -0.019975006580352783 -0.028248917311429977 0.05050000175833702 -0.028248921036720276 -0.028248917311429977 0.0625000074505806 -0.028248922899365425 -0.019974999129772186 0.05050000175833702 -0.034597720950841904 -0.019974999129772186 0.0625000074505806 -0.034597720950841904 -0.010339817963540554 0.05050000175833702 -0.038588739931583405 -0.010339817963540554 0.0625000074505806 -0.0385887436568737 6.0322831174630664e-09 0.05050000175833702 -0.03995000198483467 6.0322831174630664e-09 0.0625000074505806 -0.03995000198483467 0.01033982913941145 0.05050000175833702 -0.038588736206293106 0.01033982913941145 0.0625000074505806 -0.038588739931583405 0.01997501030564308 0.05050000175833702 -0.03459771350026131 0.01997501030564308 0.0625000074505806 -0.03459771350026131 0.028248924762010574 0.05050000175833702 -0.02824891172349453 0.028248924762010574 0.0625000074505806 -0.02824891358613968 0.0345977246761322 0.05049999803304672 -0.019974995404481888 0.0345977246761322 0.0625 -0.019974997267127037 0.0385887436568737 0.05049999803304672 -0.01033981516957283 0.0385887436568737 0.0625 -0.01033981703221798 0.03995000943541527 0.05049999803304672 6.838436483747046e-09 0.03995000943541527 0.0625 5.226129751179087e-09 0.0385887436568737 0.050499994307756424 0.010339828208088875 0.0385887436568737 0.0625 0.010339826345443726 0.034597717225551605 0.050499994307756424 0.019975006580352783 0.034597717225551605 0.0625 0.019975004717707634 0.028248917311429977 0.050499994307756424 0.028248922899365425 0.028248917311429977 0.0624999962747097 0.028248921036720276 0.019974999129772186 0.050499994307756424 0.034597720950841904 0.019974999129772186 0.0624999962747097 0.034597720950841904 0.010339817963540554 0.050499990582466125 0.0385887436568737 0.010339817963540554 0.0624999962747097 0.038588739931583405</float_array><technique_common><accessor source="#mesh1-array" count="48" stride="3"><param name="X" type="float" /><param name="Y" type="float" /><param name="Z" type="float" /></accessor></technique_common></source><source id="mesh1-normals"><float_array id="mesh1-normals-array" count="276">-0.13052621483802795 1.3320936886884738e-07 0.9914448857307434 -0.13052621483802795 1.3320936886884738e-07 0.9914448857307434 -0.382683664560318 1.2413136118993862e-07 0.9238795042037964 -0.382683664560318 1.2413136118993862e-07 0.9238795042037964 -0.6087616682052612 1.065940011812927e-07 0.7933531403541565 -0.6087616682052612 1.065940011812927e-07 0.7933531403541565 -0.7933533191680908 8.179247856787697e-08 0.6087614893913269 -0.7933533191680908 8.179247856787697e-08 0.6087614893913269 -0.9238796234130859 5.1416900959111445e-08 0.3826834261417389 -0.9238796234130859 5.1416900959111445e-08 0.3826834261417389 -0.9914448857307434 1.7537313823368095e-08 0.13052594661712646 -0.9914448857307434 1.7537313823368095e-08 0.13052594661712646 -0.9914448857307434 -1.753735290321856e-08 -0.13052624464035034 -0.9914448857307434 -1.753735290321856e-08 -0.13052624464035034 -0.9238795042037964 -5.141693648624823e-08 -0.38268372416496277 -0.9238795042037964 -5.141693648624823e-08 -0.38268372416496277 -0.7933531403541565 -8.179252120044112e-08 -0.6087617874145508 -0.7933531403541565 -8.179252120044112e-08 -0.6087617874145508 -0.6087614297866821 -1.0659402960300213e-07 -0.7933533787727356 -0.6087614297866821 -1.0659402960300213e-07 -0.7933533787727356 -0.3826833665370941 -1.2413138961164805e-07 -0.9238796234130859 -0.3826833665370941 -1.2413138961164805e-07 -0.9238796234130859 -0.13052591681480408 -1.3320936886884738e-07 -0.9914448857307434 -0.13052591681480408 -1.3320936886884738e-07 -0.9914448857307434 0.13052621483802795 -1.3320936886884738e-07 -0.9914448857307434 0.13052621483802795 -1.3320936886884738e-07 -0.9914448857307434 0.382683664560318 -1.2413136118993862e-07 -0.9238795042037964 0.382683664560318 -1.2413136118993862e-07 -0.9238795042037964 0.6087616682052612 -1.065940011812927e-07 -0.7933531403541565 0.6087616682052612 -1.065940011812927e-07 -0.7933531403541565 0.7933533191680908 -8.179247856787697e-08 -0.6087614893913269 0.7933533191680908 -8.179247856787697e-08 -0.6087614893913269 0.9238796234130859 -5.1416900959111445e-08 -0.3826834261417389 0.9238796234130859 -5.1416900959111445e-08 -0.3826834261417389 0.9914448857307434 -1.7537313823368095e-08 -0.13052594661712646 0.9914448857307434 -1.7537313823368095e-08 -0.13052594661712646 0.9914448857307434 1.753735290321856e-08 0.13052624464035034 0.9914448857307434 1.753735290321856e-08 0.13052624464035034 0.9238795042037964 5.141693648624823e-08 0.38268372416496277 0.9238795042037964 5.141693648624823e-08 0.38268372416496277 0.7933531403541565 8.179252120044112e-08 0.6087617874145508 0.7933531403541565 8.179252120044112e-08 0.6087617874145508 0.6087614297866821 1.0659402960300213e-07 0.7933533787727356 0.6087614297866821 1.0659402960300213e-07 0.7933533787727356 -2.028761815660307e-14 1.0 1.343588280633412e-07 -2.028761815660307e-14 1.0 1.343588280633412e-07 -2.0287619850668966e-14 1.0 1.343588280633412e-07 -2.028761815660307e-14 1.0 1.343588280633412e-07 -2.028761815660307e-14 1.0 1.343588280633412e-07 -2.0287619850668966e-14 1.0 1.343588280633412e-07 -2.028761815660307e-14 1.0 1.343588280633412e-07 -2.028761815660307e-14 1.0 1.343588280633412e-07 -2.0287619850668966e-14 1.0 1.343588280633412e-07 -2.028761815660307e-14 1.0 1.343588280633412e-07 -2.028761815660307e-14 1.0 1.343588280633412e-07 -2.0287619850668966e-14 1.0 1.343588280633412e-07 -2.0287619850668966e-14 1.0 1.343588280633412e-07 -2.028761815660307e-14 1.0 1.343588280633412e-07 -2.028761815660307e-14 1.0 1.343588280633412e-07 -2.0287619850668966e-14 1.0 1.343588280633412e-07 -2.028761815660307e-14 1.0 1.343588280633412e-07 -2.028761815660307e-14 1.0 1.343588280633412e-07 -2.028761815660307e-14 1.0 1.343588280633412e-07 -2.028761815660307e-14 1.0 1.343588280633412e-07 -2.028761815660307e-14 1.0 1.343588280633412e-07 -2.028761815660307e-14 1.0 1.343588280633412e-07 0.3826833665370941 1.2413138961164805e-07 0.9238796234130859 0.3826833665370941 1.2413138961164805e-07 0.9238796234130859 0.13052591681480408 1.3320936886884738e-07 0.9914448857307434 0.13052591681480408 1.3320936886884738e-07 0.9914448857307434 2.028761815660307e-14 -1.0 -1.343588280633412e-07 2.0287619850668966e-14 -1.0 -1.343588280633412e-07 2.0287619850668966e-14 -1.0 -1.343588280633412e-07 2.028761815660307e-14 -1.0 -1.343588280633412e-07 2.0287619850668966e-14 -1.0 -1.343588280633412e-07 2.0287619850668966e-14 -1.0 -1.343588280633412e-07 2.028761815660307e-14 -1.0 -1.343588280633412e-07 2.0287619850668966e-14 -1.0 -1.343588280633412e-07 2.0287619850668966e-14 -1.0 -1.343588280633412e-07 2.028761815660307e-14 -1.0 -1.343588280633412e-07 2.0287619850668966e-14 -1.0 -1.343588280633412e-07 2.0287619850668966e-14 -1.0 -1.343588280633412e-07 2.028761815660307e-14 -1.0 -1.343588280633412e-07 2.028761815660307e-14 -1.0 -1.343588280633412e-07 2.028761815660307e-14 -1.0 -1.343588280633412e-07 2.028761815660307e-14 -1.0 -1.343588280633412e-07 2.028761815660307e-14 -1.0 -1.343588280633412e-07 2.028761815660307e-14 -1.0 -1.343588280633412e-07 2.028761815660307e-14 -1.0 -1.343588280633412e-07 2.028761815660307e-14 -1.0 -1.343588280633412e-07 2.028761815660307e-14 -1.0 -1.343588280633412e-07 2.028761815660307e-14 -1.0 -1.343588280633412e-07</float_array><technique_common><accessor source="#mesh1-normals-array" count="92" stride="3"><param name="X" type="float" /><param name="Y" type="float" /><param name="Z" type="float" /></accessor></technique_common></source><vertices id="mesh1-vertices"><input semantic="POSITION" source="#mesh1-positions" /></vertices><triangles count="92" material="ivory"><input semantic="VERTEX" source="#mesh1-vertices" offset="0" /><input semantic="NORMAL" source="#mesh1-normals" offset="1" /><p>0 0 1 0 3 0 0 1 3 1 2 1 2 2 3 2 5 2 2 3 5 3 4 3 4 4 5 4 7 4 4 5 7 5 6 5 6 6 7 6 9 6 6 7 9 7 8 7 8 8 9 8 11 8 8 9 11 9 10 9 10 10 11 10 13 10 10 11 13 11 12 11 12 12 13 12 15 12 12 13 15 13 14 13 14 14 15 14 17 14 14 15 17 15 16 15 16 16 17 16 19 16 16 17 19 17 18 17 18 18 19 18 21 18 18 19 21 19 20 19 20 20 21 20 23 20 20 21 23 21 22 21 22 22 23 22 25 22 22 23 25 23 24 23 24 24 25 24 27 24 24 25 27 25 26 25 26 26 27 26 29 26 26 27 29 27 28 27 28 28 29 28 31 28 28 29 31 29 30 29 30 30 31 30 33 30 30 31 33 31 32 31 32 32 33 32 35 32 32 33 35 33 34 33 34 34 35 34 37 34 34 35 37 35 36 35 36 36 37 36 39 36 36 37 39 37 38 37 38 38 39 38 41 38 38 39 41 39 40 39 40 40 41 40 43 40 40 41 43 41 42 41 42 42 43 42 45 42 42 43 45 43 44 43 5 44 3 44 1 44 1 45 47 45 45 45 45 46 43 46 41 46 41 47 39 47 37 47 37 48 35 48 33 48 33 49 31 49 29 49 29 50 27 50 25 50 25 51 23 51 21 51 21 52 19 52 17 52 17 53 15 53 13 53 13 54 11 54 9 54 9 55 7 55 5 55 5 56 1 56 45 56 45 57 41 57 37 57 37 58 33 58 29 58 29 59 25 59 21 59 21 60 17 60 13 60 13 61 9 61 5 61 5 62 45 62 37 62 37 63 29 63 21 63 21 64 13 64 5 64 37 65 21 65 5 65 44 66 45 66 47 66 44 67 47 67 46 67 46 68 47 68 1 68 46 69 1 69 0 69 46 70 0 70 2 70 2 71 4 71 6 71 6 72 8 72 10 72 10 73 12 73 14 73 14 74 16 74 18 74 18 75 20 75 22 75 22 76 24 76 26 76 26 77 28 77 30 77 30 78 32 78 34 78 34 79 36 79 38 79 38 80 40 80 42 80 42 81 44 81 46 81 46 82 2 82 6 82 6 83 10 83 14 83 14 84 18 84 22 84 22 85 26 85 30 85 30 86 34 86 38 86 38 87 42 87 46 87 46 88 6 88 14 88 14 89 22 89 30 89 30 90 38 90 46 90 14 91 30 91 46 91</p></triangles></mesh></geometry><geometry id="mesh2"><mesh><source id="mesh2-positions"><float_array id="mesh2-array" count="168">0.02500000223517418 -0.024000000208616257 -0.19499999284744263 0.02500000223517418 -0.03200000151991844 -0.18699999153614044 0.017000000923871994 -0.024000000208616257 -0.18699999153614044 0.02500000223517418 -0.029656853526830673 -0.19265684485435486 0.020381199195981026 -0.02861880138516426 -0.19161880016326904 0.019343147054314613 -0.029656853526830673 -0.18699999153614044 0.019343147054314613 -0.023999998345971107 -0.19265684485435486 0.02500000223517418 -0.03200000151991844 -0.0729999989271164 0.02500000223517418 -0.024000000208616257 -0.06499999761581421 0.017000000923871994 -0.024000000208616257 -0.0729999989271164 0.02500000223517418 -0.029656853526830673 -0.06734314560890198 0.020381199195981026 -0.02861880138516426 -0.06838119029998779 0.019343147054314613 -0.023999998345971107 -0.06734314560890198 0.019343147054314613 -0.029656853526830673 -0.0729999989271164 0.02500000223517418 0.024000000208616257 -0.19499999284744263 0.017000000923871994 0.024000000208616257 -0.18699999153614044 0.02500000223517418 0.03200000151991844 -0.18699999153614044 0.019343147054314613 0.023999998345971107 -0.19265684485435486 0.020381199195981026 0.02861880138516426 -0.19161880016326904 0.019343147054314613 0.029656853526830673 -0.18699999153614044 0.02500000223517418 0.029656853526830673 -0.19265684485435486 0.02500000223517418 0.024000000208616257 -0.06499999761581421 0.02500000223517418 0.03200000151991844 -0.0729999989271164 0.017000000923871994 0.024000000208616257 -0.0729999989271164 0.02500000223517418 0.029656853526830673 -0.06734314560890198 0.020381199195981026 0.02861880138516426 -0.06838119029998779 0.019343147054314613 0.029656853526830673 -0.0729999989271164 0.019343147054314613 0.023999998345971107 -0.06734314560890198 0.026999998837709427 -0.024000000208616257 -0.19499999284744263 0.03500000014901161 -0.024000000208616257 -0.18699999153614044 0.026999998837709427 -0.03200000151991844 -0.18699999153614044 0.03265685588121414 -0.023999998345971107 -0.19265684485435486 0.03161880373954773 -0.02861880138516426 -0.19161880016326904 0.03265685588121414 -0.029656853526830673 -0.18699999153614044 0.026999998837709427 -0.029656853526830673 -0.19265684485435486 0.026999998837709427 -0.024000000208616257 -0.06499999761581421 0.026999998837709427 -0.03200000151991844 -0.0729999989271164 0.03500000014901161 -0.024000000208616257 -0.0729999989271164 0.026999998837709427 -0.029656853526830673 -0.06734314560890198 0.03161880373954773 -0.02861880138516426 -0.06838119029998779 0.03265685588121414 -0.029656853526830673 -0.0729999989271164 0.03265685588121414 -0.023999998345971107 -0.06734314560890198 0.026999998837709427 0.024000000208616257 -0.19499999284744263 0.026999998837709427 0.03200000151991844 -0.18699999153614044 0.03500000014901161 0.024000000208616257 -0.18699999153614044 0.026999998837709427 0.029656853526830673 -0.19265684485435486 0.03161880373954773 0.02861880138516426 -0.19161880016326904 0.03265685588121414 0.029656853526830673 -0.18699999153614044 0.03265685588121414 0.023999998345971107 -0.19265684485435486 0.026999998837709427 0.024000000208616257 -0.06499999761581421 0.03500000014901161 0.024000000208616257 -0.0729999989271164 0.026999998837709427 0.03200000151991844 -0.0729999989271164 0.03265685588121414 0.023999998345971107 -0.06734314560890198 0.03161880373954773 0.02861880138516426 -0.06838119029998779 0.03265685588121414 0.029656853526830673 -0.0729999989271164 0.026999998837709427 0.029656853526830673 -0.06734314560890198</float_array><technique_common><accessor source="#mesh2-array" count="56" stride="3"><param name="X" type="float" /><param name="Y" type="float" /><param name="Z" type="float" /></accessor></technique_common></source><source id="mesh2-normals"><float_array id="mesh2-normals-array" count="324">-0.2817468047142029 -0.36718079447746277 -0.8864519000053406 -0.36718085408210754 -0.2817467749118805 -0.8864519000053406 -0.3671807050704956 -0.8864518404006958 -0.28174731135368347 -0.2817472219467163 -0.8864518404006958 -0.36718079447746277 -0.8864519000053406 -0.28174716234207153 -0.36718055605888367 -0.8864518404006958 -0.3671804368495941 -0.2817472815513611 -0.2817471921443939 -0.8864518404006958 0.3671807646751404 -0.3671807050704956 -0.8864519000053406 0.28174731135368347 -0.36718082427978516 -0.2817467749118805 0.8864519596099854 -0.2817467749118805 -0.36718082427978516 0.8864519000053406 -0.8864518404006958 -0.3671804368495941 0.2817472815513611 -0.8864519000053406 -0.28174713253974915 0.36718055605888367 -0.36718082427978516 0.2817467749118805 -0.8864519596099854 -0.2817467749118805 0.36718082427978516 -0.8864519000053406 -0.8864518404006958 0.3671804368495941 -0.2817472815513611 -0.8864519000053406 0.28174713253974915 -0.36718055605888367 -0.2817471921443939 0.8864518404006958 -0.3671807646751404 -0.3671807050704956 0.8864519000053406 -0.28174731135368347 -0.2817468047142029 0.36718079447746277 0.8864519000053406 -0.36718085408210754 0.2817467749118805 0.8864519000053406 -0.3671807050704956 0.8864518404006958 0.28174731135368347 -0.2817472219467163 0.8864518404006958 0.36718079447746277 -0.8864519000053406 0.28174716234207153 0.36718055605888367 -0.8864518404006958 0.3671804368495941 0.2817472815513611 0.36718082427978516 -0.2817467749118805 -0.8864519596099854 0.2817467749118805 -0.36718082427978516 -0.8864519000053406 0.8864518404006958 -0.3671804368495941 -0.2817472815513611 0.8864519000053406 -0.28174713253974915 -0.36718055605888367 0.2817471921443939 -0.8864518404006958 -0.3671807646751404 0.3671807050704956 -0.8864519000053406 -0.28174731135368347 0.2817468047142029 -0.36718079447746277 0.8864519000053406 0.36718085408210754 -0.2817467749118805 0.8864519000053406 0.3671807050704956 -0.8864518404006958 0.28174731135368347 0.2817472219467163 -0.8864518404006958 0.36718079447746277 0.8864519000053406 -0.28174716234207153 0.36718055605888367 0.8864518404006958 -0.3671804368495941 0.2817472815513611 0.2817468047142029 0.36718079447746277 -0.8864519000053406 0.36718085408210754 0.2817467749118805 -0.8864519000053406 0.3671807050704956 0.8864518404006958 -0.28174731135368347 0.2817472219467163 0.8864518404006958 -0.36718079447746277 0.8864519000053406 0.28174716234207153 -0.36718055605888367 0.8864518404006958 0.3671804368495941 -0.2817472815513611 0.36718082427978516 0.2817467749118805 0.8864519596099854 0.2817467749118805 0.36718082427978516 0.8864519000053406 0.8864518404006958 0.3671804368495941 0.2817472815513611 0.8864519000053406 0.28174713253974915 0.36718055605888367 0.2817471921443939 0.8864518404006958 0.3671807646751404 0.3671807050704956 0.8864519000053406 0.28174731135368347 -0.38268372416496277 0.0 -0.9238793849945068 -0.38268375396728516 0.0 -0.9238795042037964 -0.9238795042037964 0.0 -0.38268348574638367 -0.9238795638084412 0.0 -0.38268351554870605 -0.38268372416496277 -0.9238794445991516 0.0 -0.38268372416496277 -0.9238794445991516 0.0 -0.9238795042037964 -0.38268348574638367 0.0 -0.9238795042037964 -0.38268348574638367 0.0 -0.38268372416496277 0.0 0.9238793849945068 -0.38268375396728516 0.0 0.9238795042037964 -0.9238795042037964 0.0 0.38268348574638367 -0.9238795638084412 0.0 0.38268351554870605 -0.38268372416496277 0.9238794445991516 0.0 -0.38268372416496277 0.9238794445991516 0.0 -0.9238795042037964 0.38268348574638367 0.0 -0.9238795042037964 0.38268348574638367 0.0 0.0 0.38268381357192993 -0.9238793849945068 0.0 0.38268381357192993 -0.9238793849945068 0.0 0.9238793849945068 -0.38268381357192993 0.0 0.9238793849945068 -0.38268381357192993 0.0 0.38268381357192993 0.9238793849945068 0.0 0.38268381357192993 0.9238793849945068 0.0 0.9238793849945068 0.38268381357192993 0.0 0.9238793849945068 0.38268381357192993 0.9238795042037964 0.38268348574638367 0.0 0.9238795042037964 0.38268348574638367 0.0 0.38268372416496277 0.9238794445991516 0.0 0.38268372416496277 0.9238794445991516 0.0 0.38268372416496277 0.0 -0.9238793849945068 0.38268375396728516 0.0 -0.9238795042037964 0.9238795042037964 0.0 -0.38268348574638367 0.9238795638084412 0.0 -0.38268351554870605 0.38268372416496277 0.0 0.9238793849945068 0.38268375396728516 0.0 0.9238795042037964 0.9238795042037964 0.0 0.38268348574638367 0.9238795638084412 0.0 0.38268351554870605 0.38268372416496277 -0.9238794445991516 0.0 0.38268372416496277 -0.9238794445991516 0.0 0.9238795042037964 -0.38268348574638367 0.0 0.9238795042037964 -0.38268348574638367 0.0 0.0 -0.38268381357192993 -0.9238793849945068 0.0 -0.38268381357192993 -0.9238793849945068 0.0 -0.9238793849945068 -0.38268381357192993 0.0 -0.9238793849945068 -0.38268381357192993 0.0 -0.38268381357192993 0.9238793849945068 0.0 -0.38268381357192993 0.9238793849945068 0.0 -0.9238793849945068 0.38268381357192993 0.0 -0.9238793849945068 0.38268381357192993 0.0 0.0 -1.0 0.0 0.0 -1.0 -1.0 0.0 0.0 -1.0 0.0 0.0 0.0 -1.0 0.0 0.0 -1.0 0.0 0.0 0.0 1.0 0.0 0.0 1.0 0.0 1.0 0.0 0.0 1.0 0.0 1.0 0.0 0.0 1.0 0.0 0.0</float_array><technique_common><accessor source="#mesh2-normals-array" count="108" stride="3"><param name="X" type="float" /><param name="Y" type="float" /><param name="Z" type="float" /></accessor></technique_common></source><vertices id="mesh2-vertices"><input semantic="POSITION" source="#mesh2-positions" /></vertices><triangles count="108" material="ivory"><input semantic="VERTEX" source="#mesh2-vertices" offset="0" /><input semantic="NORMAL" source="#mesh2-normals" offset="1" /><p>0 0 3 0 4 0 0 1 4 1 6 1 1 2 5 2 4 2 1 3 4 3 3 3 2 4 6 4 4 4 2 5 4 5 5 5 7 6 10 6 11 6 7 7 11 7 13 7 8 8 12 8 11 8 8 9 11 9 10 9 9 10 13 10 11 10 9 11 11 11 12 11 14 12 17 12 18 12 14 13 18 13 20 13 15 14 19 14 18 14 15 15 18 15 17 15 16 16 20 16 18 16 16 17 18 17 19 17 21 18 24 18 25 18 21 19 25 19 27 19 22 20 26 20 25 20 22 21 25 21 24 21 23 22 27 22 25 22 23 23 25 23 26 23 28 24 31 24 32 24 28 25 32 25 34 25 29 26 33 26 32 26 29 27 32 27 31 27 30 28 34 28 32 28 30 29 32 29 33 29 35 30 38 30 39 30 35 31 39 31 41 31 36 32 40 32 39 32 36 33 39 33 38 33 37 34 41 34 39 34 37 35 39 35 40 35 42 36 45 36 46 36 42 37 46 37 48 37 43 38 47 38 46 38 43 39 46 39 45 39 44 40 48 40 46 40 44 41 46 41 47 41 49 42 52 42 53 42 49 43 53 43 55 43 50 44 54 44 53 44 50 45 53 45 52 45 51 46 55 46 53 46 51 47 53 47 54 47 14 48 0 48 6 48 14 49 6 49 17 49 17 50 6 50 2 50 17 51 2 51 15 51 1 52 7 52 13 52 1 53 13 53 5 53 5 54 13 54 9 54 5 55 9 55 2 55 8 56 21 56 27 56 8 57 27 57 12 57 12 58 27 58 23 58 12 59 23 59 9 59 22 60 16 60 19 60 22 61 19 61 26 61 26 62 19 62 15 62 26 63 15 63 23 63 42 64 14 64 20 64 42 65 20 65 45 65 45 66 20 66 16 66 45 67 16 67 43 67 21 68 49 68 55 68 21 69 55 69 24 69 24 70 55 70 51 70 24 71 51 71 22 71 50 72 44 72 47 72 50 73 47 73 54 73 54 74 47 74 43 74 54 75 43 75 51 75 28 76 42 76 48 76 28 77 48 77 31 77 31 78 48 78 44 78 31 79 44 79 29 79 49 80 35 80 41 80 49 81 41 81 52 81 52 82 41 82 37 82 52 83 37 83 50 83 36 84 30 84 33 84 36 85 33 85 40 85 40 86 33 86 29 86 40 87 29 87 37 87 0 88 28 88 34 88 0 89 34 89 3 89 3 90 34 90 30 90 3 91 30 91 1 91 35 92 8 92 10 92 35 93 10 93 38 93 38 94 10 94 7 94 38 95 7 95 36 95 14 96 42 96 28 96 14 97 28 97 0 97 2 98 9 98 23 98 2 99 23 99 15 99 30 100 36 100 7 100 30 101 7 101 1 101 49 102 21 102 8 102 49 103 8 103 35 103 16 104 22 104 51 104 16 105 51 105 43 105 44 106 50 106 37 106 44 107 37 107 29 107</p></triangles></mesh></geometry></library_geometries><library_visual_scenes><visual_scene id="Scene"><node id="mesh0-node"><instance_geometry url="#mesh0"><bind_material><technique_common><instance_material symbol="ivory" target="#ivory" /></technique_common></bind_material></instance_geometry></node><node id="mesh1-node"><instance_geometry url="#mesh1"><bind_material><technique_common><instance_material symbol="ivory" target="#ivory" /></technique_common></bind_material></instance_geometry></node><node id="mesh2-node"><instance_geometry url="#mesh2"><bind_material><technique_common><instance_material symbol="ivory" target="#ivory" /></technique_common></bind_material></instance_geometry></node></visual_scene></library_visual_scenes><scene><instance_visual_scene url="#Scene" /></scene></COLLADA>