<?xml version='1.0' encoding='utf-8'?>
<COLLADA xmlns="http://www.collada.org/2005/11/COLLADASchema" version="1.4.1"><asset><unit name="meter" meter="1" /><up_axis>Z_UP</up_axis></asset><library_effects><effect id="graphite-fx"><profile_COMMON><technique sid="common"><phong><emission><color>0 0 0 1</color></emission><ambient><color>0.065 0.075 0.085 1</color></ambient><diffuse><color>0.065 0.075 0.085 1</color></diffuse><specular><color>0.12 0.12 0.12 1</color></specular><shininess><float>25</float></shininess></phong></technique></profile_COMMON></effect><effect id="titanium-fx"><profile_COMMON><technique sid="common"><phong><emission><color>0 0 0 1</color></emission><ambient><color>0.36 0.4 0.43 1</color></ambient><diffuse><color>0.36 0.4 0.43 1</color></diffuse><specular><color>0.12 0.12 0.12 1</color></specular><shininess><float>25</float></shininess></phong></technique></profile_COMMON></effect><effect id="ivory-fx"><profile_COMMON><technique sid="common"><phong><emission><color>0 0 0 1</color></emission><ambient><color>0.72 0.72 0.65 1</color></ambient><diffuse><color>0.72 0.72 0.65 1</color></diffuse><specular><color>0.12 0.12 0.12 1</color></specular><shininess><float>25</float></shininess></phong></technique></profile_COMMON></effect><effect id="copper-fx"><profile_COMMON><technique sid="common"><phong><emission><color>0 0 0 1</color></emission><ambient><color>0.66 0.29 0.08 1</color></ambient><diffuse><color>0.66 0.29 0.08 1</color></diffuse><specular><color>0.12 0.12 0.12 1</color></specular><shininess><float>25</float></shininess></phong></technique></profile_COMMON></effect><effect id="rubber-fx"><profile_COMMON><technique sid="common"><phong><emission><color>0 0 0 1</color></emission><ambient><color>0.025 0.028 0.032 1</color></ambient><diffuse><color>0.025 0.028 0.032 1</color></diffuse><specular><color>0.12 0.12 0.12 1</color></specular><shininess><float>25</float></shininess></phong></technique></profile_COMMON></effect><effect id="lens-fx"><profile_COMMON><technique sid="common"><phong><emission><color>0 0 0 1</color></emission><ambient><color>0.05 0.26 0.33 1</color></ambient><diffuse><color>0.05 0.26 0.33 1</color></diffuse><specular><color>0.12 0.12 0.12 1</color></specular><shininess><float>25</float></shininess></phong></technique></profile_COMMON></effect></library_effects><library_materials><material id="graphite"><instance_effect url="#graphite-fx" /></material><material id="titanium"><instance_effect url="#titanium-fx" /></material><material id="ivory"><instance_effect url="#ivory-fx" /></material><material id="copper"><instance_effect url="#copper-fx" /></material><material id="rubber"><instance_effect url="#rubber-fx" /></material><material id="lens"><instance_effect url="#lens-fx" /></material></library_materials><library_geometries><geometry id="mesh0"><mesh><source id="mesh0-positions"><float_array id="mesh0-array" count="360">0.007349157240241766 -0.007000000216066837 -0.0031536524184048176 0.013542305678129196 -0.013000000268220901 -0.0029999995604157448 0.012000000104308128 -0.007000000216066837 -0.008999999612569809 0.008211860433220863 -0.009996063075959682 -0.0031050262041389942 0.0074417185969650745 -0.006999999284744263 -0.006101090461015701 0.008309613913297653 -0.009869268164038658 -0.005929210223257542 0.012807486578822136 -0.012198422104120255 -0.005967964418232441 0.010485116392374039 -0.012198422104120255 -0.0030486262403428555 0.00991005264222622 -0.011419794522225857 -0.005889502353966236 0.0091488566249609 -0.006999999284744263 -0.008247049525380135 0.012241367250680923 -0.009996063075959682 -0.008170323446393013 0.009511489421129227 -0.009869269095361233 -0.0074400282464921474 0.06854597479104996 -0.007000000216066837 -0.003202590625733137 0.061000000685453415 -0.007000000681728125 -0.008999999612569809 0.06239033490419388 -0.013000000268220901 -0.0029999995604157448 0.06700088828802109 -0.007000000216066837 -0.0061345407739281654 0.06769514083862305 -0.009996064007282257 -0.003138476749882102 0.06620597094297409 -0.009869270026683807 -0.00594830047339201 0.061157286167144775 -0.009996064007282257 -0.008161374367773533 0.06423106789588928 -0.007000000216066837 -0.008262536488473415 0.06425593793392181 -0.009869270026683807 -0.0074464729987084866 0.06543565541505814 -0.012198423035442829 -0.003064113901928067 0.06166761741042137 -0.012198423035442829 -0.005959015339612961 0.06461522728204727 -0.011419795453548431 -0.0058959475718438625 0.06628209352493286 -0.007000000216066837 0.009706927463412285 0.06945402920246124 -0.007000000216066837 0.00020259013399481773 0.06418371200561523 -0.013000000268220901 0.0037251587491482496 0.06853244453668594 -0.007000000216066837 0.0071150981821119785 0.06590074300765991 -0.009996064007282257 0.008874071761965752 0.06805835664272308 -0.009869270026683807 0.006383106112480164 0.06864891946315765 -0.009996064007282257 0.0006394779775291681 0.06969673186540604 -0.007000000216066837 0.0036264380905777216 0.06887804716825485 -0.009869270026683807 0.003926985897123814 0.06513050943613052 -0.012198423035442829 0.006678405217826366 0.06671439856290817 -0.012198423035442829 0.0019324712920933962 0.06751608848571777 -0.011419795453548431 0.004837291315197945 0.050999999046325684 -0.007000000216066837 0.017000000923871994 0.06171790882945061 -0.007000000216066837 0.013293071649968624 0.054924823343753815 -0.013000000268220901 0.01100000087171793 0.05461934953927994 -0.007000000681728125 0.016456913203001022 0.05225243419408798 -0.009941387921571732 0.016112107783555984 0.055171892046928406 -0.009850842878222466 0.015803584828972816 0.0601845346391201 -0.009941387921571732 0.01336868666112423 0.058536428958177567 -0.007000000216066837 0.015102138742804527 0.05769830569624901 -0.009850841946899891 0.014929787255823612 0.05367238447070122 -0.012112107127904892 0.013941388577222824 0.05772688612341881 -0.012112107127904892 0.012539085932075977 0.05615449696779251 -0.011445818468928337 0.01455537136644125 0.010650843381881714 -0.007000000216066837 0.011153653264045715 0.017999999225139618 -0.007000000681728125 0.017000000923871994 0.016773076727986336 -0.013000000268220901 0.01100000087171793 0.012103758752346039 -0.007000000216066837 0.014101090840995312 0.011491102166473866 -0.009996064007282257 0.011105027049779892 0.012892324477434158 -0.009869270026683807 0.013929210603237152 0.017858438193798065 -0.009996064007282257 0.01617032289505005 0.01480133831501007 -0.007000000216066837 0.01624704897403717 0.014791500754654408 -0.009869270026683807 0.015440029092133045 0.013738327659666538 -0.012198423035442829 0.011048626154661179 0.017408084124326706 -0.012198423035442829 0.013967964798212051 0.01447443850338459 -0.011419795453548431 0.013889503665268421 0.007349156774580479 0.007000000216066837 -0.003153652884066105 0.012000000104308128 0.007000000681728125 -0.008999999612569809 0.013542305678129196 0.013000000268220901 -0.0029999995604157448 0.007441719062626362 0.007000000216066837 -0.006101090461015701 0.008211860433220863 0.009996064007282257 -0.0031050262041389942 0.008309613913297653 0.009869270026683807 -0.005929209291934967 0.012241368182003498 0.009996064007282257 -0.008170323446393013 0.0091488566249609 0.007000000216066837 -0.008247049525380135 0.009511489421129227 0.009869270026683807 -0.0074400282464921474 0.010485116392374039 0.012198423035442829 -0.0030486262403428555 0.012807486578822136 0.012198423035442829 -0.005967964418232441 0.009910053573548794 0.011419795453548431 -0.005889502819627523 0.061000000685453415 0.007000000216066837 -0.008999999612569809 0.06854597479104996 0.007000000216066837 -0.0032025896944105625 0.06239033117890358 0.013000000268220901 -0.0029999995604157448 0.06423106044530869 0.007000000216066837 -0.00826253555715084 0.06115727871656418 0.009996064007282257 -0.008161373436450958 0.06425593048334122 0.009869270026683807 -0.007446472067385912 0.06769514083862305 0.009996064007282257 -0.0031384758185595274 0.06700088083744049 0.007000000216066837 -0.006134539842605591 0.06620597094297409 0.009869270026683807 -0.005948300007730722 0.061667609959840775 0.012198423035442829 -0.005959014408290386 0.06543564796447754 0.012198423035442829 -0.0030641129706054926 0.06461521983146667 0.011419795453548431 -0.005895946640521288 0.06945402920246124 0.007000000216066837 0.00020259106531739235 0.06628209352493286 0.007000000216066837 0.009706929326057434 0.06418371200561523 0.013000000268220901 0.0037251587491482496 0.06969673186540604 0.007000000216066837 0.003626438556239009 0.06864891946315765 0.009996064007282257 0.0006394772790372372 0.06887804716825485 0.009869270026683807 0.003926985897123814 0.06590074300765991 0.009996064007282257 0.008874071761965752 0.06853244453668594 0.007000000216066837 0.007115099113434553 0.06805835664272308 0.009869270026683807 0.006383106112480164 0.06671439856290817 0.012198423035442829 0.0019324703607708216 0.06513050943613052 0.012198423035442829 0.006678405217826366 0.06751608848571777 0.011419795453548431 0.004837291315197945 0.06171790882945061 0.007000000216066837 0.013293072581291199 0.050999999046325684 0.007000000681728125 0.017000000923871994 0.054924823343753815 0.013000000268220901 0.01100000087171793 0.05853642523288727 0.007000000216066837 0.015102138742804527 0.0601845346391201 0.009941387921571732 0.013368688523769379 0.05769830942153931 0.009850842878222466 0.014929788187146187 0.05225243419408798 0.00994138978421688 0.016112107783555984 0.05461934208869934 0.007000000681728125 0.016456913203001022 0.05517188459634781 0.009850842878222466 0.015803582966327667 0.05772688612341881 0.012112107127904892 0.012539085000753403 0.053672388195991516 0.012112108990550041 0.013941388577222824 0.056154489517211914 0.011445819400250912 0.014555370435118675 0.010650843381881714 0.007000000216066837 0.011153653264045715 0.016773076727986336 0.013000000268220901 0.01100000087171793 0.017999999225139618 0.007000000216066837 0.017000000923871994 0.011491102166473866 0.009996063075959682 0.011105027049779892 0.012103758752346039 0.006999999284744263 0.014101090840995312 0.012892324477434158 0.009869268164038658 0.013929210603237152 0.017408084124326706 0.012198422104120255 0.013967964798212051 0.013738327659666538 0.012198422104120255 0.011048626154661179 0.01447443850338459 0.011419794522225857 0.013889502733945847 0.01480133831501007 0.006999999284744263 0.01624704897403717 0.017858438193798065 0.009996063075959682 0.01617032289505005 0.014791500754654408 0.009869269095361233 0.015440029092133045</float_array><technique_common><accessor source="#mesh0-array" count="120" stride="3"><param name="X" type="float" /><param name="Y" type="float" /><param name="Z" type="float" /></accessor></technique_common></source><source id="mesh0-normals"><float_array id="mesh0-normals-array" count="708">0.9597560167312622 0.2770986258983612 0.04566068574786186 0.9562390446662903 0.29104170203208923 0.03002983331680298 0.6939966678619385 0.7177777886390686 0.05624646693468094 0.6939969062805176 0.7177776098251343 0.05624672397971153 0.2595555782318115 0.9465740919113159 0.1913859248161316 0.24484828114509583 0.9465740323066711 0.2098737508058548 0.2108580321073532 0.7177779078483582 0.6635765433311462 0.21085801720619202 0.7177778482437134 0.6635765433311462 0.24428017437458038 0.291041761636734 0.92499840259552 0.260301798582077 0.27709847688674927 0.9249105453491211 0.7547580599784851 0.26426634192466736 0.6004196405410767 0.7547580003738403 0.26426634192466736 0.6004196405410767 0.6040416955947876 0.6357920169830322 0.4805227220058441 -0.8529307842254639 0.26547542214393616 0.4494796395301819 -0.8504589796066284 0.25140485167503357 0.46207693219184875 -0.594975471496582 0.21510131657123566 0.7744259834289551 -0.5949759483337402 0.21510206162929535 0.7744253277778625 -0.22734344005584717 0.25140443444252014 0.9408032894134521 -0.21453452110290527 0.26547515392303467 0.939945638179779 -0.1926146298646927 0.6711905002593994 0.715823233127594 -0.19261471927165985 0.6711904406547546 0.7158232927322388 -0.23481638729572296 0.9177296161651611 0.32036468386650085 -0.24904412031173706 0.9177296161651611 0.3094339072704315 -0.642024576663971 0.6711896061897278 0.3705522418022156 -0.64202481508255 0.6711894273757935 0.37055206298828125 -0.5103874206542969 0.5460568070411682 0.6643242835998535 -0.724824845790863 0.28031301498413086 -0.6293278932571411 -0.7351516485214233 0.2668091654777527 -0.623189389705658 -0.9228987097740173 0.23106691241264343 -0.3080034554004669 -0.9228991866111755 0.23106606304645538 -0.3080027103424072 -0.9620764255523682 0.26680877804756165 0.0567629411816597 -0.9575059413909912 0.2803134024143219 0.06787370145320892 -0.7434304356575012 0.6683062314987183 0.02603914961218834 -0.7434306740760803 0.6683059930801392 0.026038991287350655 -0.3917543292045593 0.9119548797607422 -0.121930330991745 -0.38646185398101807 0.9119548201560974 -0.13778842985630035 -0.5787818431854248 0.6683068871498108 -0.4673088490962982 -0.5787820219993591 0.6683070659637451 -0.46730831265449524 -0.7962837219238281 0.5434252619743347 -0.2657468318939209 -0.14556752145290375 0.19410905241966248 -0.9701194763183594 -0.10939852148294449 0.24426758289337158 -0.9635171294212341 -0.32309433817863464 0.1514633595943451 -0.9341675043106079 -0.3230956494808197 0.1514618992805481 -0.9341673254966736 -0.509259045124054 0.2442675679922104 -0.8252203464508057 -0.4848984479904175 0.19411060214042664 -0.8527570962905884 -0.4293748736381531 0.7028675079345703 -0.5671107172966003 -0.4209127128124237 0.5725683569908142 -0.7035608887672424 -0.161895290017128 0.9235191345214844 -0.34771013259887695 -0.08752148598432541 0.9235191345214844 -0.37343332171440125 -0.09849057346582413 0.6707178950309753 -0.735144317150116 0.024948880076408386 0.6255947351455688 -0.7797491550445557 -0.28782421350479126 0.47394391894340515 -0.8321865797042847 0.8652814626693726 0.26335757970809937 -0.42653346061706543 0.8630462884902954 0.2491762787103653 -0.4393885135650635 0.6082684993743896 0.21297526359558105 -0.7646247148513794 0.6082684993743896 0.21297527849674225 -0.7646247148513794 0.2340720295906067 0.24917715787887573 -0.9397452473640442 0.22104451060295105 0.26335737109184265 -0.9390326142311096 0.1976054310798645 0.6726652979850769 -0.7130733132362366 0.1976051926612854 0.6726654767990112 -0.7130731344223022 0.2377943992614746 0.9193052053451538 -0.3135789632797241 0.2520783841609955 0.9193052649497986 -0.3022158443927765 0.6503787636756897 0.6726654767990112 -0.3528861403465271 0.6503786444664001 0.6726655960083008 -0.35288628935813904 0.5207154750823975 0.5480864644050598 -0.6545659899711609 0.9562390446662903 -0.2910414934158325 0.030030041933059692 0.9597559571266174 -0.277098685503006 0.04566061496734619 0.7547580599784851 -0.26426634192466736 0.6004195809364319 0.7547581195831299 -0.26426637172698975 0.6004195809364319 0.2603016793727875 -0.27709850668907166 0.9249104857444763 0.2442801147699356 -0.291041761636734 0.92499840259552 0.21085798740386963 -0.7177777886390686 0.663576602935791 0.21085797250270844 -0.7177778482437134 0.6635766625404358 0.24484801292419434 -0.9465740323066711 0.20987381041049957 0.2595556378364563 -0.9465740323066711 0.19138561189174652 0.6939966678619385 -0.7177777886390686 0.05624653026461601 0.6939964890480042 -0.7177779674530029 0.05624675378203392 0.6040416359901428 -0.6357921957969666 0.4805227220058441 -0.2145351767539978 -0.2654750943183899 0.9399455189704895 -0.22734341025352478 -0.25140517950057983 0.940803050994873 -0.5949756503105164 -0.21510037779808044 0.7744262218475342 -0.5949745178222656 -0.21510154008865356 0.7744266390800476 -0.8504590392112732 -0.25140488147735596 0.4620768427848816 -0.85293048620224 -0.2654731571674347 0.4494815468788147 -0.6420235633850098 -0.6711907386779785 0.37055206298828125 -0.6420233845710754 -0.6711911559104919 0.37055158615112305 -0.24904409050941467 -0.9177295565605164 0.30943426489830017 -0.234816774725914 -0.9177296161651611 0.3203648328781128 -0.19261473417282104 -0.6711905002593994 0.715823233127594 -0.1926146149635315 -0.6711905002593994 0.7158232927322388 -0.5103857517242432 -0.5460577011108398 0.6643248200416565 -0.9575058817863464 -0.2803133726119995 0.06787370890378952 -0.9620764255523682 -0.26680877804756165 0.0567629337310791 -0.9228988885879517 -0.2310662716627121 -0.3080034554004669 -0.9228989481925964 -0.23106710612773895 -0.30800265073776245 -0.7351515293121338 -0.26680952310562134 -0.6231892704963684 -0.7248249650001526 -0.2803131639957428 -0.629327654838562 -0.5787821412086487 -0.6683067679405212 -0.4673086702823639 -0.5787815451622009 -0.6683072447776794 -0.4673086106777191 -0.38646188378334045 -0.9119548797607422 -0.13778838515281677 -0.39175426959991455 -0.9119548201560974 -0.1219303086400032 -0.743430495262146 -0.6683061122894287 0.026038967072963715 -0.7434306144714355 -0.6683059334754944 0.026039239019155502 -0.7962837219238281 -0.5434252619743347 -0.2657468318939209 -0.48489800095558167 -0.19410891830921173 -0.8527576923370361 -0.5092594623565674 -0.2442675530910492 -0.8252201080322266 -0.3230941593647003 -0.1514628827571869 -0.9341676831245422 -0.32309338450431824 -0.1514618992805481 -0.9341680407524109 -0.10939954221248627 -0.2442670464515686 -0.9635171294212341 -0.14556781947612762 -0.19410958886146545 -0.970119297504425 -0.012749242596328259 -0.7028671503067017 -0.7112069129943848 -0.10370396822690964 -0.5725694894790649 -0.8132709860801697 -0.08752159029245377 -0.9235191345214844 -0.37343329191207886 -0.16189654171466827 -0.9235190153121948 -0.3477098345756531 -0.37674272060394287 -0.6707181334495544 -0.6389070153236389 -0.5013629794120789 -0.6255954504013062 -0.5977169871330261 -0.2878219485282898 -0.473944753408432 -0.8321868181228638 0.8630462288856506 -0.24917633831501007 -0.43938857316970825 0.8652814030647278 -0.26335766911506653 -0.42653346061706543 0.6503786444664001 -0.6726654171943665 -0.3528863787651062 0.6503786444664001 -0.6726655960083008 -0.35288628935813904 0.25207841396331787 -0.919305145740509 -0.302216112613678 0.2377946376800537 -0.919305145740509 -0.31357911229133606 0.1976052224636078 -0.6726652979850769 -0.7130733132362366 0.19760571420192719 -0.6726655960083008 -0.7130729556083679 0.22104457020759583 -0.26335740089416504 -0.9390325546264648 0.2340720295906067 -0.24917717278003693 -0.9397451877593994 0.6082684993743896 -0.21297535300254822 -0.7646247148513794 0.6082686185836792 -0.21297521889209747 -0.7646247148513794 0.5207155346870422 -0.5480867028236389 -0.6545658111572266 0.9390503764152527 0.26687777042388916 -0.21670396625995636 0.9390503168106079 0.2668783366680145 -0.21670383214950562 0.6889986395835876 0.7071067690849304 -0.15899957716464996 0.6889986395835876 0.7071067690849304 -0.15899960696697235 0.254057377576828 0.9654106497764587 -0.058628544211387634 0.2540578246116638 0.9654104113578796 -0.05862875655293465 0.0 0.9654105305671692 -0.2607346773147583 -0.0024904224555939436 0.9570374488830566 -0.28995364904403687 -0.002201615134254098 0.707330048084259 -0.7068800926208496 -0.0023210030049085617 0.7063453793525696 -0.7078636288642883 -0.0020555586088448763 0.26696842908859253 -0.9637030959129333 -4.077822080006399e-09 0.2889828383922577 -0.9573343396186829 -0.1785399615764618 0.9573342800140381 -0.2272326499223709 -0.15635399520397186 0.9647412300109863 -0.21172600984573364 -0.4345930814743042 0.7058300971984863 -0.5594040155410767 -0.4323386251926422 0.7079617381095886 -0.5584563612937927 -0.5901583433151245 0.28827041387557983 -0.7540645003318787 -0.5922164916992188 0.28490400314331055 -0.753730297088623 -0.256832480430603 0.9640262126922607 0.0684887245297432 -0.2527391314506531 0.9653700590133667 0.06468186527490616 -0.6862218976020813 0.7058733105659485 0.17562024295330048 -0.6845704317092896 0.708162784576416 0.17282596230506897 -0.9296443462371826 0.28404000401496887 0.23469705879688263 -0.9304710626602173 0.26954859495162964 0.24812732636928558 0.0 0.9652117490768433 0.2614692747592926 -4.773904583998956e-05 0.9654074311256409 0.2607458531856537 -0.00012950085510965437 0.707091748714447 0.7071217894554138 -0.00012935347331222147 0.7070901393890381 0.7071233987808228 -0.0001761719904607162 0.2695401608943939 0.9629892110824585 2.536221455073928e-09 0.266878217458725 0.9637302160263062 0.2540576159954071 -0.9654105305671692 -0.05862870812416077 0.25405755639076233 -0.9654105305671692 -0.058628715574741364 0.6889986395835876 -0.7071067690849304 -0.15899969637393951 0.6889986395835876 -0.7071067690849304 -0.15899966657161713 0.9390503764152527 -0.2668778598308563 -0.2167038917541504 0.9390501976013184 -0.2668783366680145 -0.21670392155647278 -2.561602263639884e-09 -0.2695489823818207 0.9629867672920227 -0.00017633175593800843 -0.2668650448322296 0.9637339115142822 -0.00012938014697283506 -0.7070918083190918 0.7071217894554138 -0.000129528169054538 -0.7070901393890381 0.7071234583854675 -4.7896963224047795e-05 -0.965208888053894 0.26148030161857605 0.0 -0.9654105305671692 0.26073458790779114 -0.9261900782585144 -0.2849035859107971 0.24698571860790253 -0.9335282444953918 -0.270150363445282 0.23567771911621094 -0.6871838569641113 -0.7054651379585266 0.17348581552505493 -0.6842480301856995 -0.7079117298126221 0.1751161813735962 -0.2584173381328583 -0.9637669324874878 0.0661354586482048 -0.2526411712169647 -0.9652117490768433 0.0673711746931076 -0.5914615392684937 -0.2889828085899353 -0.7527695894241333 -0.5907784104347229 -0.28502246737480164 -0.7548132538795471 -0.4339081346988678 -0.7054442167282104 -0.5604215264320374 -0.43337756395339966 -0.7077674269676208 -0.5578970313072205 -0.17434445023536682 -0.9563961625099182 -0.234329953789711 -0.16422177851200104 -0.9640260934829712 -0.20900951325893402 3.7659133589329485e-09 -0.26687881350517273 -0.9637300968170166 -0.0020788712427020073 -0.2881707549095154 -0.9575768709182739 -0.0023208437487483025 -0.7073419690132141 -0.7068677544593811 -0.0022000037133693695 -0.7063851356506348 -0.7078242301940918 -0.0024888119660317898 -0.965541422367096 -0.26023784279823303 0.0 -0.9573343992233276 -0.2889822721481323 0.25533339381217957 0.0 0.9668530225753784 0.2553333640098572 0.0 0.9668530225753784 0.7825788855552673 0.0 0.622551441192627 0.7825788855552673 -2.6029765010093797e-08 0.6225515604019165 0.9995072484016418 -3.324513286884212e-08 0.03138885274529457 0.9995073080062866 3.4289161732203866e-08 0.0313885323703289 -0.8846741318702698 -3.101370893432431e-08 0.4662100374698639 -0.8846749663352966 -5.018237061449327e-07 0.46620824933052063 -0.6092367172241211 -3.7697824950555514e-07 0.7929885387420654 -0.6092367172241211 -3.7697824950555514e-07 0.7929885387420654 -0.22251972556114197 -1.8327668271922448e-07 0.9749282002449036 -0.22251896560192108 0.0 0.9749283790588379 -0.7550978660583496 8.722662414584192e-08 -0.6556121110916138 -0.7550977468490601 4.361331917834832e-08 -0.6556122303009033 -0.9485690593719482 2.1059230803643914e-08 -0.3165704607963562 -0.9485689997673035 1.0529615401821957e-08 -0.3165704607963562 -0.997497022151947 -2.3518726965932046e-09 0.07070852071046829 -0.997497022151947 -4.7037445050079896e-09 0.0707085058093071 -0.14839023351669312 0.0 -0.9889289736747742 -0.14838993549346924 -7.897078546648117e-08 -0.9889289736747742 -0.32686516642570496 -1.7395250040408428e-07 -0.9450709223747253 -0.32686546444892883 -8.697633546717043e-08 -0.9450708627700806 -0.49429959058761597 -1.3152924793757848e-07 -0.8692916035652161 -0.4943001866340637 5.782789358477203e-08 -0.8692912459373474 0.8969452381134033 0.0 -0.4421418607234955 0.8969452381134033 0.0 -0.4421418607234955 0.6225513219833374 0.0 -0.7825790047645569 0.6225513219833374 0.0 -0.7825790047645569 0.22913329303264618 0.0 -0.973395049571991 0.22913329303264618 0.0 -0.973395049571991 0.9743911623954773 2.493056250330028e-08 -0.22485952079296112 0.9743911623954773 0.0 -0.22485952079296112 0.0 1.0 0.0 0.0 1.0 0.0 0.0 1.0 0.0 0.0 0.0 1.0 0.0 0.0 1.0 -0.9662345051765442 -1.7140612484922713e-08 0.257664293050766 -0.9662345051765442 -1.843378427679454e-08 0.257664293050766 -0.617821455001831 5.2308291031977205e-08 -0.7863184213638306 -0.6178213357925415 1.1191991688974667e-07 -0.7863184213638306 0.0 0.0 -1.0 0.0 0.0 -1.0 0.0 -1.0 0.0 0.0 -1.0 0.0 0.0 -1.0 0.0</float_array><technique_common><accessor source="#mesh0-normals-array" count="236" stride="3"><param name="X" type="float" /><param name="Y" type="float" /><param name="Z" type="float" /></accessor></technique_common></source><vertices id="mesh0-vertices"><input semantic="POSITION" source="#mesh0-positions" /></vertices><triangles count="236" material="ivory"><input semantic="VERTEX" source="#mesh0-vertices" offset="0" /><input semantic="NORMAL" source="#mesh0-normals" offset="1" /><p>0 0 3 0 5 0 0 1 5 1 4 1 3 2 7 2 8 2 3 3 8 3 5 3 1 4 6 4 8 4 1 5 8 5 7 5 6 6 10 6 11 6 6 7 11 7 8 7 2 8 9 8 11 8 2 9 11 9 10 9 9 10 4 10 5 10 9 11 5 11 11 11 5 12 8 12 11 12 12 13 15 13 17 13 12 14 17 14 16 14 15 15 19 15 20 15 15 16 20 16 17 16 13 17 18 17 20 17 13 18 20 18 19 18 18 19 22 19 23 19 18 20 23 20 20 20 14 21 21 21 23 21 14 22 23 22 22 22 21 23 16 23 17 23 21 24 17 24 23 24 17 25 20 25 23 25 24 26 27 26 29 26 24 27 29 27 28 27 27 28 31 28 32 28 27 29 32 29 29 29 25 30 30 30 32 30 25 31 32 31 31 31 30 32 34 32 35 32 30 33 35 33 32 33 26 34 33 34 35 34 26 35 35 35 34 35 33 36 28 36 29 36 33 37 29 37 35 37 29 38 32 38 35 38 36 39 39 39 41 39 36 40 41 40 40 40 39 41 43 41 44 41 39 42 44 42 41 42 37 43 42 43 44 43 37 44 44 44 43 44 42 45 46 45 47 45 42 46 47 46 44 46 38 47 45 47 47 47 38 48 47 48 46 48 45 49 40 49 41 49 45 50 41 50 47 50 41 51 44 51 47 51 48 52 51 52 53 52 48 53 53 53 52 53 51 54 55 54 56 54 51 55 56 55 53 55 49 56 54 56 56 56 49 57 56 57 55 57 54 58 58 58 59 58 54 59 59 59 56 59 50 60 57 60 59 60 50 61 59 61 58 61 57 62 52 62 53 62 57 63 53 63 59 63 53 64 56 64 59 64 60 65 63 65 65 65 60 66 65 66 64 66 63 67 67 67 68 67 63 68 68 68 65 68 61 69 66 69 68 69 61 70 68 70 67 70 66 71 70 71 71 71 66 72 71 72 68 72 62 73 69 73 71 73 62 74 71 74 70 74 69 75 64 75 65 75 69 76 65 76 71 76 65 77 68 77 71 77 72 78 75 78 77 78 72 79 77 79 76 79 75 80 79 80 80 80 75 81 80 81 77 81 73 82 78 82 80 82 73 83 80 83 79 83 78 84 82 84 83 84 78 85 83 85 80 85 74 86 81 86 83 86 74 87 83 87 82 87 81 88 76 88 77 88 81 89 77 89 83 89 77 90 80 90 83 90 84 91 87 91 89 91 84 92 89 92 88 92 87 93 91 93 92 93 87 94 92 94 89 94 85 95 90 95 92 95 85 96 92 96 91 96 90 97 94 97 95 97 90 98 95 98 92 98 86 99 93 99 95 99 86 100 95 100 94 100 93 101 88 101 89 101 93 102 89 102 95 102 89 103 92 103 95 103 96 104 99 104 101 104 96 105 101 105 100 105 99 106 103 106 104 106 99 107 104 107 101 107 97 108 102 108 104 108 97 109 104 109 103 109 102 110 106 110 107 110 102 111 107 111 104 111 98 112 105 112 107 112 98 113 107 113 106 113 105 114 100 114 101 114 105 115 101 115 107 115 101 116 104 116 107 116 108 117 111 117 113 117 108 118 113 118 112 118 111 119 115 119 116 119 111 120 116 120 113 120 109 121 114 121 116 121 109 122 116 122 115 122 114 123 118 123 119 123 114 124 119 124 116 124 110 125 117 125 119 125 110 126 119 126 118 126 117 127 112 127 113 127 117 128 113 128 119 128 113 129 116 129 119 129 0 130 48 130 52 130 0 131 52 131 3 131 3 132 52 132 57 132 3 133 57 133 7 133 7 134 57 134 50 134 7 135 50 135 1 135 38 136 50 136 58 136 38 137 58 137 45 137 45 138 58 138 54 138 45 139 54 139 40 139 40 140 54 140 49 140 40 141 49 141 36 141 26 142 38 142 46 142 26 143 46 143 33 143 33 144 46 144 42 144 33 145 42 145 28 145 28 146 42 146 37 146 28 147 37 147 24 147 14 148 26 148 34 148 14 149 34 149 21 149 21 150 34 150 30 150 21 151 30 151 16 151 16 152 30 152 25 152 16 153 25 153 12 153 1 154 14 154 22 154 1 155 22 155 6 155 6 156 22 156 18 156 6 157 18 157 10 157 10 158 18 158 13 158 10 159 13 159 2 159 62 160 109 160 115 160 62 161 115 161 69 161 69 162 115 162 111 162 69 163 111 163 64 163 64 164 111 164 108 164 64 165 108 165 60 165 61 166 72 166 76 166 61 167 76 167 66 167 66 168 76 168 81 168 66 169 81 169 70 169 70 170 81 170 74 170 70 171 74 171 62 171 73 172 84 172 88 172 73 173 88 173 78 173 78 174 88 174 93 174 78 175 93 175 82 175 82 176 93 176 86 176 82 177 86 177 74 177 85 178 96 178 100 178 85 179 100 179 90 179 90 180 100 180 105 180 90 181 105 181 94 181 94 182 105 182 98 182 94 183 98 183 86 183 97 184 110 184 118 184 97 185 118 185 102 185 102 186 118 186 114 186 102 187 114 187 106 187 106 188 114 188 109 188 106 189 109 189 98 189 2 190 61 190 67 190 2 191 67 191 9 191 9 192 67 192 63 192 9 193 63 193 4 193 4 194 63 194 60 194 4 195 60 195 0 195 12 196 73 196 79 196 12 197 79 197 15 197 15 198 79 198 75 198 15 199 75 199 19 199 19 200 75 200 72 200 19 201 72 201 13 201 24 202 85 202 91 202 24 203 91 203 27 203 27 204 91 204 87 204 27 205 87 205 31 205 31 206 87 206 84 206 31 207 84 207 25 207 36 208 97 208 103 208 36 209 103 209 39 209 39 210 103 210 99 210 39 211 99 211 43 211 43 212 99 212 96 212 43 213 96 213 37 213 48 214 108 214 112 214 48 215 112 215 51 215 51 216 112 216 117 216 51 217 117 217 55 217 55 218 117 218 110 218 55 219 110 219 49 219 48 220 0 220 60 220 48 221 60 221 108 221 1 222 50 222 38 222 38 223 26 223 14 223 38 224 14 224 1 224 2 225 13 225 72 225 2 226 72 226 61 226 12 227 25 227 84 227 12 228 84 228 73 228 24 229 37 229 96 229 24 230 96 230 85 230 36 231 49 231 110 231 36 232 110 232 97 232 109 233 62 233 74 233 74 234 86 234 98 234 74 235 98 235 109 235</p></triangles></mesh></geometry><geometry id="mesh1"><mesh><source id="mesh1-positions"><float_array id="mesh1-array" count="144">-3.0199165390598637e-09 -0.01650000363588333 0.020000003278255463 -3.0199165390598637e-09 0.016499999910593033 0.019999999552965164 -0.005176384933292866 -0.01650000363588333 0.01931851916015148 -0.005176384933292866 0.016499999910593033 0.019318513572216034 -0.01000000536441803 -0.01650000363588333 0.017320509999990463 -0.01000000536441803 0.016499999910593033 0.017320506274700165 -0.014142140746116638 -0.01650000363588333 0.01414213702082634 -0.014142140746116638 0.016499999910593033 0.014142132364213467 -0.01732051372528076 -0.01650000363588333 0.010000000707805157 -0.01732051372528076 0.016499999910593033 0.009999996051192284 -0.01931851916015148 -0.016500001773238182 0.005176380276679993 -0.01931851916015148 0.016500001773238182 0.005176376085728407 -0.020000005140900612 -0.016500001773238182 -8.029954479127355e-10 -0.020000005140900612 0.016500001773238182 -5.236837630206992e-09 -0.01931851916015148 -0.016500001773238182 -0.005176382139325142 -0.01931851916015148 0.016500001773238182 -0.005176386330276728 -0.017320509999990463 -0.016499999910593033 -0.010000000707805157 -0.017320509999990463 0.01650000363588333 -0.01000000536441803 -0.01414213702082634 -0.016499999910593033 -0.01414213702082634 -0.01414213702082634 0.01650000363588333 -0.014142141677439213 -0.009999999776482582 -0.016499999910593033 -0.017320509999990463 -0.009999999776482582 0.01650000363588333 -0.01732051372528076 -0.005176379345357418 -0.016499999910593033 -0.019318515434861183 -0.005176379345357418 0.01650000363588333 -0.01931852102279663 3.0199165390598637e-09 -0.016499999910593033 -0.019999999552965164 3.0199165390598637e-09 0.01650000363588333 -0.020000003278255463 0.005176384933292866 -0.016499999910593033 -0.019318513572216034 0.005176384933292866 0.01650000363588333 -0.01931851916015148 0.01000000536441803 -0.016499999910593033 -0.017320506274700165 0.01000000536441803 0.01650000363588333 -0.017320509999990463 0.014142140746116638 -0.016499999910593033 -0.014142132364213467 0.014142140746116638 0.01650000363588333 -0.01414213702082634 0.01732051372528076 -0.016499999910593033 -0.009999996051192284 0.01732051372528076 0.01650000363588333 -0.010000000707805157 0.01931851916015148 -0.016500001773238182 -0.005176376085728407 0.01931851916015148 0.016500001773238182 -0.005176380276679993 0.020000005140900612 -0.016500001773238182 5.236837630206992e-09 0.020000005140900612 0.016500001773238182 8.029954479127355e-10 0.01931851916015148 -0.016500001773238182 0.005176386330276728 0.01931851916015148 0.016500001773238182 0.005176382139325142 0.017320509999990463 -0.01650000363588333 0.01000000536441803 0.017320509999990463 0.016499999910593033 0.010000000707805157 0.01414213702082634 -0.01650000363588333 0.014142141677439213 0.01414213702082634 0.016499999910593033 0.01414213702082634 0.009999999776482582 -0.01650000363588333 0.01732051372528076 0.009999999776482582 0.016499999910593033 0.017320509999990463 0.005176379345357418 -0.01650000363588333 0.01931852102279663 0.005176379345357418 0.016499999910593033 0.019318515434861183</float_array><technique_common><accessor source="#mesh1-array" count="48" stride="3"><param name="X" type="float" /><param name="Y" type="float" /><param name="Z" type="float" /></accessor></technique_common></source><source id="mesh1-normals"><float_array id="mesh1-normals-array" count="276">-0.13052643835544586 1.3320936886884738e-07 0.9914448261260986 -0.13052643835544586 1.3320936886884738e-07 0.9914448261260986 -0.3826833963394165 1.2413137540079333e-07 0.9238796234130859 -0.3826833963394165 1.2413137540079333e-07 0.9238796234130859 -0.6087616086006165 1.0659401539214741e-07 0.7933531999588013 -0.6087616086006165 1.0659401539214741e-07 0.7933531999588013 -0.7933533787727356 8.179247856787697e-08 0.6087614297866821 -0.7933533787727356 8.179247856787697e-08 0.6087614297866821 -0.9238797426223755 5.1416865431974657e-08 0.3826831877231598 -0.9238797426223755 5.1416865431974657e-08 0.3826831877231598 -0.9914449453353882 1.7537347574148043e-08 0.13052618503570557 -0.9914449453353882 1.7537347574148043e-08 0.13052618503570557 -0.9914448261260986 -1.753738310128483e-08 -0.13052646815776825 -0.9914448261260986 -1.753738310128483e-08 -0.13052646815776825 -0.9238796234130859 -5.1416900959111445e-08 -0.38268348574638367 -0.9238796234130859 -5.1416900959111445e-08 -0.38268348574638367 -0.7933531403541565 -8.17925069895864e-08 -0.6087616682052612 -0.7933531403541565 -8.17925069895864e-08 -0.6087616682052612 -0.6087613701820374 -1.0659404381385684e-07 -0.7933534383773804 -0.6087613701820374 -1.0659404381385684e-07 -0.7933534383773804 -0.3826830983161926 -1.2413140382250276e-07 -0.9238797426223755 -0.3826830983161926 -1.2413140382250276e-07 -0.9238797426223755 -0.13052615523338318 -1.332093830797021e-07 -0.9914449453353882 -0.13052615523338318 -1.332093830797021e-07 -0.9914449453353882 0.13052643835544586 -1.3320936886884738e-07 -0.9914448261260986 0.13052643835544586 -1.3320936886884738e-07 -0.9914448261260986 0.3826833963394165 -1.2413137540079333e-07 -0.9238796234130859 0.3826833963394165 -1.2413137540079333e-07 -0.9238796234130859 0.6087616086006165 -1.0659401539214741e-07 -0.7933531999588013 0.6087616086006165 -1.0659401539214741e-07 -0.7933531999588013 0.7933533787727356 -8.179247856787697e-08 -0.6087614297866821 0.7933533787727356 -8.179247856787697e-08 -0.6087614297866821 0.9238797426223755 -5.1416865431974657e-08 -0.3826831877231598 0.9238797426223755 -5.1416865431974657e-08 -0.3826831877231598 0.9914449453353882 -1.7537347574148043e-08 -0.13052618503570557 0.9914449453353882 -1.7537347574148043e-08 -0.13052618503570557 0.9914448261260986 1.753738310128483e-08 0.13052646815776825 0.9914448261260986 1.753738310128483e-08 0.13052646815776825 0.9238796234130859 5.1416900959111445e-08 0.38268348574638367 0.9238796234130859 5.1416900959111445e-08 0.38268348574638367 0.7933531403541565 8.17925069895864e-08 0.6087616682052612 0.7933531403541565 8.17925069895864e-08 0.6087616682052612 0.6087613701820374 1.0659404381385684e-07 0.7933534383773804 0.6087613701820374 1.0659404381385684e-07 0.7933534383773804 -2.028761815660307e-14 1.0 1.343588280633412e-07 -2.028761815660307e-14 1.0 1.343588280633412e-07 -2.028761815660307e-14 1.0 1.343588280633412e-07 -2.028761815660307e-14 1.0 1.343588280633412e-07 -2.028761815660307e-14 1.0 1.343588280633412e-07 -2.028761815660307e-14 1.0 1.343588280633412e-07 -2.028761815660307e-14 1.0 1.343588280633412e-07 -2.028761815660307e-14 1.0 1.343588280633412e-07 -2.028761815660307e-14 1.0 1.343588280633412e-07 -2.028761815660307e-14 1.0 1.343588280633412e-07 -2.028761815660307e-14 1.0 1.343588280633412e-07 -2.028761815660307e-14 1.0 1.343588280633412e-07 -2.028761815660307e-14 1.0 1.343588280633412e-07 -2.028761815660307e-14 1.0 1.343588280633412e-07 -2.028761815660307e-14 1.0 1.343588280633412e-07 -2.028761815660307e-14 1.0 1.343588280633412e-07 -2.028761815660307e-14 1.0 1.343588280633412e-07 -2.028761815660307e-14 1.0 1.343588280633412e-07 -2.028761815660307e-14 1.0 1.343588280633412e-07 -2.028761815660307e-14 1.0 1.343588280633412e-07 -2.028761815660307e-14 1.0 1.343588280633412e-07 -2.028761815660307e-14 1.0 1.343588280633412e-07 0.3826830983161926 1.2413140382250276e-07 0.9238797426223755 0.3826830983161926 1.2413140382250276e-07 0.9238797426223755 0.13052615523338318 1.332093830797021e-07 0.9914449453353882 0.13052615523338318 1.332093830797021e-07 0.9914449453353882 2.028761815660307e-14 -1.0 -1.343588280633412e-07 2.0287619850668966e-14 -1.0 -1.343588280633412e-07 2.0287619850668966e-14 -1.0 -1.343588280633412e-07 2.028761815660307e-14 -1.0 -1.343588280633412e-07 2.0287619850668966e-14 -1.0 -1.343588280633412e-07 2.0287619850668966e-14 -1.0 -1.343588280633412e-07 2.028761815660307e-14 -1.0 -1.343588280633412e-07 2.0287619850668966e-14 -1.0 -1.343588280633412e-07 2.0287619850668966e-14 -1.0 -1.343588280633412e-07 2.028761815660307e-14 -1.0 -1.343588280633412e-07 2.0287619850668966e-14 -1.0 -1.343588280633412e-07 2.0287619850668966e-14 -1.0 -1.343588280633412e-07 2.028761815660307e-14 -1.0 -1.343588280633412e-07 2.028761815660307e-14 -1.0 -1.343588280633412e-07 2.028761815660307e-14 -1.0 -1.343588280633412e-07 2.028761815660307e-14 -1.0 -1.343588280633412e-07 2.028761815660307e-14 -1.0 -1.343588280633412e-07 2.028761815660307e-14 -1.0 -1.343588280633412e-07 2.028761815660307e-14 -1.0 -1.343588280633412e-07 2.028761815660307e-14 -1.0 -1.343588280633412e-07 2.028761815660307e-14 -1.0 -1.343588280633412e-07 2.028761815660307e-14 -1.0 -1.343588280633412e-07</float_array><technique_common><accessor source="#mesh1-normals-array" count="92" stride="3"><param name="X" type="float" /><param name="Y" type="float" /><param name="Z" type="float" /></accessor></technique_common></source><vertices id="mesh1-vertices"><input semantic="POSITION" source="#mesh1-positions" /></vertices><triangles count="92" material="graphite"><input semantic="VERTEX" source="#mesh1-vertices" offset="0" /><input semantic="NORMAL" source="#mesh1-normals" offset="1" /><p>0 0 1 0 3 0 0 1 3 1 2 1 2 2 3 2 5 2 2 3 5 3 4 3 4 4 5 4 7 4 4 5 7 5 6 5 6 6 7 6 9 6 6 7 9 7 8 7 8 8 9 8 11 8 8 9 11 9 10 9 10 10 11 10 13 10 10 11 13 11 12 11 12 12 13 12 15 12 12 13 15 13 14 13 14 14 15 14 17 14 14 15 17 15 16 15 16 16 17 16 19 16 16 17 19 17 18 17 18 18 19 18 21 18 18 19 21 19 20 19 20 20 21 20 23 20 20 21 23 21 22 21 22 22 23 22 25 22 22 23 25 23 24 23 24 24 25 24 27 24 24 25 27 25 26 25 26 26 27 26 29 26 26 27 29 27 28 27 28 28 29 28 31 28 28 29 31 29 30 29 30 30 31 30 33 30 30 31 33 31 32 31 32 32 33 32 35 32 32 33 35 33 34 33 34 34 35 34 37 34 34 35 37 35 36 35 36 36 37 36 39 36 36 37 39 37 38 37 38 38 39 38 41 38 38 39 41 39 40 39 40 40 41 40 43 40 40 41 43 41 42 41 42 42 43 42 45 42 42 43 45 43 44 43 5 44 3 44 1 44 1 45 47 45 45 45 45 46 43 46 41 46 41 47 39 47 37 47 37 48 35 48 33 48 33 49 31 49 29 49 29 50 27 50 25 50 25 51 23 51 21 51 21 52 19 52 17 52 17 53 15 53 13 53 13 54 11 54 9 54 9 55 7 55 5 55 5 56 1 56 45 56 45 57 41 57 37 57 37 58 33 58 29 58 29 59 25 59 21 59 21 60 17 60 13 60 13 61 9 61 5 61 5 62 45 62 37 62 37 63 29 63 21 63 21 64 13 64 5 64 37 65 21 65 5 65 44 66 45 66 47 66 44 67 47 67 46 67 46 68 47 68 1 68 46 69 1 69 0 69 46 70 0 70 2 70 2 71 4 71 6 71 6 72 8 72 10 72 10 73 12 73 14 73 14 74 16 74 18 74 18 75 20 75 22 75 22 76 24 76 26 76 26 77 28 77 30 77 30 78 32 78 34 78 34 79 36 79 38 79 38 80 40 80 42 80 42 81 44 81 46 81 46 82 2 82 6 82 6 83 10 83 14 83 14 84 18 84 22 84 22 85 26 85 30 85 30 86 34 86 38 86 38 87 42 87 46 87 46 88 6 88 14 88 14 89 22 89 30 89 30 90 38 90 46 90 14 91 30 91 46 91</p></triangles></mesh></geometry><geometry id="mesh2"><mesh><source id="mesh2-positions"><float_array id="mesh2-array" count="144">0.0 -0.017000000923871994 0.010000000707805157 0.0 -0.01899999938905239 0.010000000707805157 0.00258819037117064 -0.017000000923871994 0.009659258648753166 0.00258819037117064 -0.01899999938905239 0.009659258648753166 0.004999999888241291 -0.017000000923871994 0.008660254999995232 0.004999999888241291 -0.01899999938905239 0.008660254999995232 0.007071067579090595 -0.017000000923871994 0.00707106851041317 0.007071067579090595 -0.01899999938905239 0.00707106851041317 0.008660254068672657 -0.017000000923871994 0.005000000353902578 0.008660254068672657 -0.01899999938905239 0.005000000353902578 0.009659257717430592 -0.017000000923871994 0.0025881908368319273 0.009659257717430592 -0.01899999938905239 0.00258819037117064 0.009999999776482582 -0.016999999061226845 1.343587602287144e-10 0.009999999776482582 -0.01899999938905239 -1.343587602287144e-10 0.009659257717430592 -0.016999999061226845 -0.00258819037117064 0.009659257717430592 -0.018999997526407242 -0.0025881908368319273 0.008660254068672657 -0.016999999061226845 -0.005000000353902578 0.008660254068672657 -0.018999997526407242 -0.005000000353902578 0.007071067579090595 -0.016999999061226845 -0.00707106851041317 0.007071067579090595 -0.018999997526407242 -0.00707106851041317 0.004999999888241291 -0.016999999061226845 -0.008660254999995232 0.004999999888241291 -0.018999997526407242 -0.008660254999995232 0.00258819037117064 -0.016999999061226845 -0.009659258648753166 0.00258819037117064 -0.018999997526407242 -0.009659258648753166 0.0 -0.016999999061226845 -0.010000000707805157 0.0 -0.018999997526407242 -0.010000000707805157 -0.00258819037117064 -0.016999999061226845 -0.009659258648753166 -0.00258819037117064 -0.018999997526407242 -0.009659258648753166 -0.004999999888241291 -0.016999999061226845 -0.008660254999995232 -0.004999999888241291 -0.018999997526407242 -0.008660254999995232 -0.007071067579090595 -0.016999999061226845 -0.00707106851041317 -0.007071067579090595 -0.018999997526407242 -0.00707106851041317 -0.008660254068672657 -0.016999999061226845 -0.005000000353902578 -0.008660254068672657 -0.018999997526407242 -0.005000000353902578 -0.009659257717430592 -0.016999999061226845 -0.00258819037117064 -0.009659257717430592 -0.018999997526407242 -0.0025881908368319273 -0.009999999776482582 -0.016999999061226845 1.343587602287144e-10 -0.009999999776482582 -0.01899999938905239 -1.343587602287144e-10 -0.009659257717430592 -0.017000000923871994 0.0025881908368319273 -0.009659257717430592 -0.01899999938905239 0.00258819037117064 -0.008660254068672657 -0.017000000923871994 0.005000000353902578 -0.008660254068672657 -0.01899999938905239 0.005000000353902578 -0.007071067579090595 -0.017000000923871994 0.00707106851041317 -0.007071067579090595 -0.01899999938905239 0.00707106851041317 -0.004999999888241291 -0.017000000923871994 0.008660254999995232 -0.004999999888241291 -0.01899999938905239 0.008660254999995232 -0.00258819037117064 -0.017000000923871994 0.009659258648753166 -0.00258819037117064 -0.01899999938905239 0.009659258648753166</float_array><technique_common><accessor source="#mesh2-array" count="48" stride="3"><param name="X" type="float" /><param name="Y" type="float" /><param name="Z" type="float" /></accessor></technique_common></source><source id="mesh2-normals"><float_array id="mesh2-normals-array" count="276">0.1305263191461563 -1.332093830797021e-07 0.9914448261260986 0.1305263191461563 -1.332093830797021e-07 0.9914448261260986 0.38268330693244934 -1.2413140382250276e-07 0.9238796234130859 0.38268330693244934 -1.2413140382250276e-07 0.9238796234130859 0.6087615489959717 -1.0659402960300213e-07 0.793353259563446 0.6087615489959717 -1.0659402960300213e-07 0.793353259563446 0.7933533787727356 -8.179248567330433e-08 0.6087614893913269 0.7933533787727356 -8.179248567330433e-08 0.6087614893913269 0.9238796234130859 -5.1416872537402014e-08 0.3826831877231598 0.9238796234130859 -5.1416872537402014e-08 0.3826831877231598 0.9914448261260986 -1.753736178500276e-08 0.13052628934383392 0.9914448261260986 -1.753736178500276e-08 0.13052628934383392 0.9914448261260986 1.753736178500276e-08 -0.13052628934383392 0.9914448261260986 1.753736178500276e-08 -0.13052628934383392 0.9238796234130859 5.1416872537402014e-08 -0.3826831877231598 0.9238796234130859 5.1416872537402014e-08 -0.3826831877231598 0.7933533787727356 8.179248567330433e-08 -0.6087614893913269 0.7933533787727356 8.179248567330433e-08 -0.6087614893913269 0.6087615489959717 1.0659402960300213e-07 -0.793353259563446 0.6087615489959717 1.0659402960300213e-07 -0.793353259563446 0.38268330693244934 1.2413140382250276e-07 -0.9238796234130859 0.38268330693244934 1.2413140382250276e-07 -0.9238796234130859 0.1305263191461563 1.332093830797021e-07 -0.9914448261260986 0.1305263191461563 1.332093830797021e-07 -0.9914448261260986 -0.1305263191461563 1.332093830797021e-07 -0.9914448261260986 -0.1305263191461563 1.332093830797021e-07 -0.9914448261260986 -0.38268330693244934 1.2413140382250276e-07 -0.9238796234130859 -0.38268330693244934 1.2413140382250276e-07 -0.9238796234130859 -0.6087615489959717 1.0659402960300213e-07 -0.793353259563446 -0.6087615489959717 1.0659402960300213e-07 -0.793353259563446 -0.7933533787727356 8.179248567330433e-08 -0.6087614893913269 -0.7933533787727356 8.179248567330433e-08 -0.6087614893913269 -0.9238796234130859 5.1416872537402014e-08 -0.3826831877231598 -0.9238796234130859 5.1416872537402014e-08 -0.3826831877231598 -0.9914448261260986 1.753736178500276e-08 -0.13052628934383392 -0.9914448261260986 1.753736178500276e-08 -0.13052628934383392 -0.9914448261260986 -1.753736178500276e-08 0.13052628934383392 -0.9914448261260986 -1.753736178500276e-08 0.13052628934383392 -0.9238796234130859 -5.1416872537402014e-08 0.3826831877231598 -0.9238796234130859 -5.1416872537402014e-08 0.3826831877231598 -0.7933533787727356 -8.179248567330433e-08 0.6087614893913269 -0.7933533787727356 -8.179248567330433e-08 0.6087614893913269 -0.6087615489959717 -1.0659402960300213e-07 0.793353259563446 -0.6087615489959717 -1.0659402960300213e-07 0.793353259563446 0.0 -1.0 -1.3435884227419592e-07 0.0 -1.0 -1.3435884227419592e-07 0.0 -1.0 -1.3435884227419592e-07 0.0 -1.0 -1.3435884227419592e-07 0.0 -1.0 -1.3435884227419592e-07 0.0 -1.0 -1.3435884227419592e-07 0.0 -1.0 -1.3435884227419592e-07 0.0 -1.0 -1.3435884227419592e-07 0.0 -1.0 -1.3435884227419592e-07 0.0 -1.0 -1.3435884227419592e-07 0.0 -1.0 -1.3435884227419592e-07 0.0 -1.0 -1.3435884227419592e-07 0.0 -1.0 -1.3435884227419592e-07 0.0 -1.0 -1.3435884227419592e-07 0.0 -1.0 -1.3435884227419592e-07 0.0 -1.0 -1.3435884227419592e-07 0.0 -1.0 -1.3435884227419592e-07 0.0 -1.0 -1.3435884227419592e-07 0.0 -1.0 -1.3435884227419592e-07 0.0 -1.0 -1.3435884227419592e-07 0.0 -1.0 -1.3435884227419592e-07 0.0 -1.0 -1.3435884227419592e-07 -0.38268330693244934 -1.2413140382250276e-07 0.9238796234130859 -0.38268330693244934 -1.2413140382250276e-07 0.9238796234130859 -0.1305263191461563 -1.332093830797021e-07 0.9914448261260986 -0.1305263191461563 -1.332093830797021e-07 0.9914448261260986 0.0 1.0 1.3435884227419592e-07 0.0 1.0 1.3435884227419592e-07 0.0 1.0 1.3435884227419592e-07 0.0 1.0 1.3435884227419592e-07 0.0 1.0 1.3435884227419592e-07 0.0 1.0 1.3435884227419592e-07 0.0 1.0 1.3435884227419592e-07 0.0 1.0 1.3435884227419592e-07 0.0 1.0 1.3435884227419592e-07 0.0 1.0 1.3435884227419592e-07 0.0 1.0 1.3435884227419592e-07 0.0 1.0 1.3435884227419592e-07 0.0 1.0 1.3435884227419592e-07 0.0 1.0 1.3435884227419592e-07 0.0 1.0 1.3435884227419592e-07 0.0 1.0 1.3435884227419592e-07 0.0 1.0 1.3435884227419592e-07 0.0 1.0 1.3435884227419592e-07 0.0 1.0 1.3435884227419592e-07 0.0 1.0 1.3435884227419592e-07 0.0 1.0 1.3435884227419592e-07 0.0 1.0 1.3435884227419592e-07</float_array><technique_common><accessor source="#mesh2-normals-array" count="92" stride="3"><param name="X" type="float" /><param name="Y" type="float" /><param name="Z" type="float" /></accessor></technique_common></source><vertices id="mesh2-vertices"><input semantic="POSITION" source="#mesh2-positions" /></vertices><triangles count="92" material="titanium"><input semantic="VERTEX" source="#mesh2-vertices" offset="0" /><input semantic="NORMAL" source="#mesh2-normals" offset="1" /><p>0 0 1 0 3 0 0 1 3 1 2 1 2 2 3 2 5 2 2 3 5 3 4 3 4 4 5 4 7 4 4 5 7 5 6 5 6 6 7 6 9 6 6 7 9 7 8 7 8 8 9 8 11 8 8 9 11 9 10 9 10 10 11 10 13 10 10 11 13 11 12 11 12 12 13 12 15 12 12 13 15 13 14 13 14 14 15 14 17 14 14 15 17 15 16 15 16 16 17 16 19 16 16 17 19 17 18 17 18 18 19 18 21 18 18 19 21 19 20 19 20 20 21 20 23 20 20 21 23 21 22 21 22 22 23 22 25 22 22 23 25 23 24 23 24 24 25 24 27 24 24 25 27 25 26 25 26 26 27 26 29 26 26 27 29 27 28 27 28 28 29 28 31 28 28 29 31 29 30 29 30 30 31 30 33 30 30 31 33 31 32 31 32 32 33 32 35 32 32 33 35 33 34 33 34 34 35 34 37 34 34 35 37 35 36 35 36 36 37 36 39 36 36 37 39 37 38 37 38 38 39 38 41 38 38 39 41 39 40 39 40 40 41 40 43 40 40 41 43 41 42 41 42 42 43 42 45 42 42 43 45 43 44 43 5 44 3 44 1 44 1 45 47 45 45 45 45 46 43 46 41 46 41 47 39 47 37 47 37 48 35 48 33 48 33 49 31 49 29 49 29 50 27 50 25 50 25 51 23 51 21 51 21 52 19 52 17 52 17 53 15 53 13 53 13 54 11 54 9 54 9 55 7 55 5 55 5 56 1 56 45 56 45 57 41 57 37 57 37 58 33 58 29 58 29 59 25 59 21 59 21 60 17 60 13 60 13 61 9 61 5 61 5 62 45 62 37 62 37 63 29 63 21 63 21 64 13 64 5 64 37 65 21 65 5 65 44 66 45 66 47 66 44 67 47 67 46 67 46 68 47 68 1 68 46 69 1 69 0 69 46 70 0 70 2 70 2 71 4 71 6 71 6 72 8 72 10 72 10 73 12 73 14 73 14 74 16 74 18 74 18 75 20 75 22 75 22 76 24 76 26 76 26 77 28 77 30 77 30 78 32 78 34 78 34 79 36 79 38 79 38 80 40 80 42 80 42 81 44 81 46 81 46 82 2 82 6 82 6 83 10 83 14 83 14 84 18 84 22 84 22 85 26 85 30 85 30 86 34 86 38 86 38 87 42 87 46 87 46 88 6 88 14 88 14 89 22 89 30 89 30 90 38 90 46 90 14 91 30 91 46 91</p></triangles></mesh></geometry><geometry id="mesh3"><mesh><source id="mesh3-positions"><float_array id="mesh3-array" count="144">-1.5099582695299318e-09 0.016999999061226845 0.010000000707805157 -1.5099582695299318e-09 0.018999997526407242 0.010000000707805157 -0.002588192466646433 0.016999999061226845 0.009659258648753166 -0.002588192466646433 0.018999997526407242 0.009659257717430592 -0.005000002682209015 0.016999999061226845 0.008660254068672657 -0.005000002682209015 0.018999997526407242 0.008660254068672657 -0.007071070373058319 0.016999999061226845 0.007071067579090595 -0.007071070373058319 0.018999997526407242 0.007071067113429308 -0.00866025686264038 0.016999999061226845 0.004999998956918716 -0.00866025686264038 0.018999997526407242 0.004999998956918716 -0.00965925958007574 0.016999999061226845 0.0025881892070174217 -0.00965925958007574 0.018999997526407242 0.002588188974186778 -0.010000002570450306 0.016999999061226845 -1.3755995231790052e-09 -0.010000002570450306 0.01899999938905239 -1.6443170158808584e-09 -0.00965925958007574 0.017000000923871994 -0.0025881920009851456 -0.00965925958007574 0.01899999938905239 -0.0025881922338157892 -0.008660254999995232 0.017000000923871994 -0.00500000175088644 -0.008660254999995232 0.01899999938905239 -0.00500000175088644 -0.00707106851041317 0.017000000923871994 -0.0070710694417357445 -0.00707106851041317 0.01899999938905239 -0.007071069907397032 -0.004999999888241291 0.017000000923871994 -0.008660255931317806 -0.004999999888241291 0.01899999938905239 -0.008660255931317806 -0.002588189672678709 0.017000000923871994 -0.009659258648753166 -0.002588189672678709 0.01899999938905239 -0.00965925958007574 1.5099582695299318e-09 0.017000000923871994 -0.010000000707805157 1.5099582695299318e-09 0.01899999938905239 -0.010000000707805157 0.002588192466646433 0.017000000923871994 -0.009659257717430592 0.002588192466646433 0.01899999938905239 -0.009659258648753166 0.005000002682209015 0.017000000923871994 -0.008660254068672657 0.005000002682209015 0.01899999938905239 -0.008660254068672657 0.007071070373058319 0.017000000923871994 -0.007071067113429308 0.007071070373058319 0.01899999938905239 -0.007071067579090595 0.00866025686264038 0.017000000923871994 -0.004999998956918716 0.00866025686264038 0.01899999938905239 -0.004999998956918716 0.00965925958007574 0.017000000923871994 -0.002588188974186778 0.00965925958007574 0.01899999938905239 -0.0025881892070174217 0.010000002570450306 0.016999999061226845 1.6443170158808584e-09 0.010000002570450306 0.01899999938905239 1.3755995231790052e-09 0.00965925958007574 0.016999999061226845 0.0025881922338157892 0.00965925958007574 0.018999997526407242 0.0025881920009851456 0.008660254999995232 0.016999999061226845 0.00500000175088644 0.008660254999995232 0.018999997526407242 0.00500000175088644 0.00707106851041317 0.016999999061226845 0.007071069907397032 0.00707106851041317 0.018999997526407242 0.0070710694417357445 0.004999999888241291 0.016999999061226845 0.008660255931317806 0.004999999888241291 0.018999997526407242 0.008660255931317806 0.002588189672678709 0.016999999061226845 0.00965925958007574 0.002588189672678709 0.018999997526407242 0.009659258648753166</float_array><technique_common><accessor source="#mesh3-array" count="48" stride="3"><param name="X" type="float" /><param name="Y" type="float" /><param name="Z" type="float" /></accessor></technique_common></source><source id="mesh3-normals"><float_array id="mesh3-normals-array" count="276">-0.13052643835544586 1.3320936886884738e-07 0.9914448261260986 -0.13052643835544586 1.3320936886884738e-07 0.9914448261260986 -0.3826833665370941 1.2413137540079333e-07 0.9238795638084412 -0.3826833665370941 1.2413137540079333e-07 0.9238795638084412 -0.6087616086006165 1.0659401539214741e-07 0.7933531999588013 -0.6087616086006165 1.0659401539214741e-07 0.7933531999588013 -0.7933533787727356 8.179247856787697e-08 0.6087614297866821 -0.7933533787727356 8.179247856787697e-08 0.6087614297866821 -0.9238796830177307 5.14168583265473e-08 0.382683128118515 -0.9238796830177307 5.14168583265473e-08 0.382683128118515 -0.9914449453353882 1.7537347574148043e-08 0.13052618503570557 -0.9914449453353882 1.7537347574148043e-08 0.13052618503570557 -0.9914448261260986 -1.753738310128483e-08 -0.13052646815776825 -0.9914448261260986 -1.753738310128483e-08 -0.13052646815776825 -0.9238795638084412 -5.141689385368409e-08 -0.3826834261417389 -0.9238795638084412 -5.141689385368409e-08 -0.3826834261417389 -0.7933531403541565 -8.17925069895864e-08 -0.6087616682052612 -0.7933531403541565 -8.17925069895864e-08 -0.6087616682052612 -0.6087613701820374 -1.0659404381385684e-07 -0.7933534383773804 -0.6087613701820374 -1.0659404381385684e-07 -0.7933534383773804 -0.38268306851387024 -1.2413140382250276e-07 -0.9238796830177307 -0.38268306851387024 -1.2413140382250276e-07 -0.9238796830177307 -0.13052615523338318 -1.332093830797021e-07 -0.9914449453353882 -0.13052615523338318 -1.332093830797021e-07 -0.9914449453353882 0.13052643835544586 -1.3320936886884738e-07 -0.9914448261260986 0.13052643835544586 -1.3320936886884738e-07 -0.9914448261260986 0.3826833665370941 -1.2413137540079333e-07 -0.9238795638084412 0.3826833665370941 -1.2413137540079333e-07 -0.9238795638084412 0.6087616086006165 -1.0659401539214741e-07 -0.7933531999588013 0.6087616086006165 -1.0659401539214741e-07 -0.7933531999588013 0.7933533787727356 -8.179247856787697e-08 -0.6087614297866821 0.7933533787727356 -8.179247856787697e-08 -0.6087614297866821 0.9238796830177307 -5.14168583265473e-08 -0.382683128118515 0.9238796830177307 -5.14168583265473e-08 -0.382683128118515 0.9914449453353882 -1.7537347574148043e-08 -0.13052618503570557 0.9914449453353882 -1.7537347574148043e-08 -0.13052618503570557 0.9914448261260986 1.753738310128483e-08 0.13052646815776825 0.9914448261260986 1.753738310128483e-08 0.13052646815776825 0.9238795638084412 5.141689385368409e-08 0.3826834261417389 0.9238795638084412 5.141689385368409e-08 0.3826834261417389 0.7933531403541565 8.17925069895864e-08 0.6087616682052612 0.7933531403541565 8.17925069895864e-08 0.6087616682052612 0.6087613701820374 1.0659404381385684e-07 0.7933534383773804 0.6087613701820374 1.0659404381385684e-07 0.7933534383773804 -2.028761815660307e-14 1.0 1.343588280633412e-07 -2.028761815660307e-14 1.0 1.343588280633412e-07 -2.028761815660307e-14 1.0 1.343588280633412e-07 -2.028761815660307e-14 1.0 1.343588280633412e-07 -2.028761815660307e-14 1.0 1.343588280633412e-07 -2.028761815660307e-14 1.0 1.343588280633412e-07 -2.028761815660307e-14 1.0 1.343588280633412e-07 -2.028761815660307e-14 1.0 1.343588280633412e-07 -2.028761815660307e-14 1.0 1.343588280633412e-07 -2.028761815660307e-14 1.0 1.343588280633412e-07 -2.028761815660307e-14 1.0 1.343588280633412e-07 -2.028761815660307e-14 1.0 1.343588280633412e-07 -2.028761815660307e-14 1.0 1.343588280633412e-07 -2.028761815660307e-14 1.0 1.343588280633412e-07 -2.028761815660307e-14 1.0 1.343588280633412e-07 -2.028761815660307e-14 1.0 1.343588280633412e-07 -2.028761815660307e-14 1.0 1.343588280633412e-07 -2.028761815660307e-14 1.0 1.343588280633412e-07 -2.028761815660307e-14 1.0 1.343588280633412e-07 -2.028761815660307e-14 1.0 1.343588280633412e-07 -2.028761815660307e-14 1.0 1.343588280633412e-07 -2.028761815660307e-14 1.0 1.343588280633412e-07 0.38268306851387024 1.2413140382250276e-07 0.9238796830177307 0.38268306851387024 1.2413140382250276e-07 0.9238796830177307 0.13052615523338318 1.332093830797021e-07 0.9914449453353882 0.13052615523338318 1.332093830797021e-07 0.9914449453353882 2.028761815660307e-14 -1.0 -1.343588280633412e-07 2.0287619850668966e-14 -1.0 -1.343588280633412e-07 2.0287619850668966e-14 -1.0 -1.343588280633412e-07 2.028761815660307e-14 -1.0 -1.343588280633412e-07 2.0287619850668966e-14 -1.0 -1.343588280633412e-07 2.0287619850668966e-14 -1.0 -1.343588280633412e-07 2.028761815660307e-14 -1.0 -1.343588280633412e-07 2.0287619850668966e-14 -1.0 -1.343588280633412e-07 2.0287619850668966e-14 -1.0 -1.343588280633412e-07 2.028761815660307e-14 -1.0 -1.343588280633412e-07 2.0287619850668966e-14 -1.0 -1.343588280633412e-07 2.0287619850668966e-14 -1.0 -1.343588280633412e-07 2.028761815660307e-14 -1.0 -1.343588280633412e-07 2.028761815660307e-14 -1.0 -1.343588280633412e-07 2.028761815660307e-14 -1.0 -1.343588280633412e-07 2.028761815660307e-14 -1.0 -1.343588280633412e-07 2.028761815660307e-14 -1.0 -1.343588280633412e-07 2.028761815660307e-14 -1.0 -1.343588280633412e-07 2.028761815660307e-14 -1.0 -1.343588280633412e-07 2.028761815660307e-14 -1.0 -1.343588280633412e-07 2.028761815660307e-14 -1.0 -1.343588280633412e-07 2.028761815660307e-14 -1.0 -1.343588280633412e-07</float_array><technique_common><accessor source="#mesh3-normals-array" count="92" stride="3"><param name="X" type="float" /><param name="Y" type="float" /><param name="Z" type="float" /></accessor></technique_common></source><vertices id="mesh3-vertices"><input semantic="POSITION" source="#mesh3-positions" /></vertices><triangles count="92" material="titanium"><input semantic="VERTEX" source="#mesh3-vertices" offset="0" /><input semantic="NORMAL" source="#mesh3-normals" offset="1" /><p>0 0 1 0 3 0 0 1 3 1 2 1 2 2 3 2 5 2 2 3 5 3 4 3 4 4 5 4 7 4 4 5 7 5 6 5 6 6 7 6 9 6 6 7 9 7 8 7 8 8 9 8 11 8 8 9 11 9 10 9 10 10 11 10 13 10 10 11 13 11 12 11 12 12 13 12 15 12 12 13 15 13 14 13 14 14 15 14 17 14 14 15 17 15 16 15 16 16 17 16 19 16 16 17 19 17 18 17 18 18 19 18 21 18 18 19 21 19 20 19 20 20 21 20 23 20 20 21 23 21 22 21 22 22 23 22 25 22 22 23 25 23 24 23 24 24 25 24 27 24 24 25 27 25 26 25 26 26 27 26 29 26 26 27 29 27 28 27 28 28 29 28 31 28 28 29 31 29 30 29 30 30 31 30 33 30 30 31 33 31 32 31 32 32 33 32 35 32 32 33 35 33 34 33 34 34 35 34 37 34 34 35 37 35 36 35 36 36 37 36 39 36 36 37 39 37 38 37 38 38 39 38 41 38 38 39 41 39 40 39 40 40 41 40 43 40 40 41 43 41 42 41 42 42 43 42 45 42 42 43 45 43 44 43 5 44 3 44 1 44 1 45 47 45 45 45 45 46 43 46 41 46 41 47 39 47 37 47 37 48 35 48 33 48 33 49 31 49 29 49 29 50 27 50 25 50 25 51 23 51 21 51 21 52 19 52 17 52 17 53 15 53 13 53 13 54 11 54 9 54 9 55 7 55 5 55 5 56 1 56 45 56 45 57 41 57 37 57 37 58 33 58 29 58 29 59 25 59 21 59 21 60 17 60 13 60 13 61 9 61 5 61 5 62 45 62 37 62 37 63 29 63 21 63 21 64 13 64 5 64 37 65 21 65 5 65 44 66 45 66 47 66 44 67 47 67 46 67 46 68 47 68 1 68 46 69 1 69 0 69 46 70 0 70 2 70 2 71 4 71 6 71 6 72 8 72 10 72 10 73 12 73 14 73 14 74 16 74 18 74 18 75 20 75 22 75 22 76 24 76 26 76 26 77 28 77 30 77 30 78 32 78 34 78 34 79 36 79 38 79 38 80 40 80 42 80 42 81 44 81 46 81 46 82 2 82 6 82 6 83 10 83 14 83 14 84 18 84 22 84 22 85 26 85 30 85 30 86 34 86 38 86 38 87 42 87 46 87 46 88 6 88 14 88 14 89 22 89 30 89 30 90 38 90 46 90 14 91 30 91 46 91</p></triangles></mesh></geometry><geometry id="mesh4"><mesh><source id="mesh4-positions"><float_array id="mesh4-array" count="168">0.005750000476837158 -0.011500000022351742 -0.018000001087784767 0.005750000476837158 -0.013500000350177288 -0.01600000075995922 0.003750000149011612 -0.011500000022351742 -0.01600000075995922 0.005750000476837158 -0.012914213351905346 -0.017414214089512825 0.004595298320055008 -0.012654700316488743 -0.017154701054096222 0.004335787147283554 -0.012914213351905346 -0.01600000075995922 0.004335787147283554 -0.011499999091029167 -0.017414214089512825 0.005750000476837158 -0.013500000350177288 -0.012000000104308128 0.005750000476837158 -0.011500000022351742 -0.009999999776482582 0.003750000149011612 -0.011500000022351742 -0.012000000104308128 0.005750000476837158 -0.012914213351905346 -0.010585786774754524 0.004595298320055008 -0.012654700316488743 -0.010845299810171127 0.004335787147283554 -0.011499999091029167 -0.010585786774754524 0.004335787147283554 -0.012914213351905346 -0.012000000104308128 0.005750000476837158 0.011500000022351742 -0.018000001087784767 0.003750000149011612 0.011500000022351742 -0.01600000075995922 0.005750000476837158 0.013500000350177288 -0.01600000075995922 0.004335787147283554 0.011499999091029167 -0.017414214089512825 0.004595298320055008 0.012654700316488743 -0.017154701054096222 0.004335787147283554 0.012914213351905346 -0.01600000075995922 0.005750000476837158 0.012914213351905346 -0.017414214089512825 0.005750000476837158 0.011500000022351742 -0.009999999776482582 0.005750000476837158 0.013500000350177288 -0.012000000104308128 0.003750000149011612 0.011500000022351742 -0.012000000104308128 0.005750000476837158 0.012914213351905346 -0.010585786774754524 0.004595298320055008 0.012654700316488743 -0.010845299810171127 0.004335787147283554 0.012914213351905346 -0.012000000104308128 0.004335787147283554 0.011499999091029167 -0.010585786774754524 0.06925000250339508 -0.011500000022351742 -0.018000001087784767 0.07125000655651093 -0.011500000022351742 -0.01600000075995922 0.06925000250339508 -0.013500000350177288 -0.01600000075995922 0.07066421210765839 -0.011499999091029167 -0.017414214089512825 0.07040470838546753 -0.012654700316488743 -0.017154701054096222 0.07066421210765839 -0.012914213351905346 -0.01600000075995922 0.06925000250339508 -0.012914213351905346 -0.017414214089512825 0.06925000250339508 -0.011500000022351742 -0.009999999776482582 0.06925000250339508 -0.013500000350177288 -0.012000000104308128 0.07125000655651093 -0.011500000022351742 -0.012000000104308128 0.06925000250339508 -0.012914213351905346 -0.010585786774754524 0.07040470838546753 -0.012654700316488743 -0.010845299810171127 0.07066421210765839 -0.012914213351905346 -0.012000000104308128 0.07066421210765839 -0.011499999091029167 -0.010585786774754524 0.06925000250339508 0.011500000022351742 -0.018000001087784767 0.06925000250339508 0.013500000350177288 -0.01600000075995922 0.07125000655651093 0.011500000022351742 -0.01600000075995922 0.06925000250339508 0.012914213351905346 -0.017414214089512825 0.07040470838546753 0.012654700316488743 -0.017154701054096222 0.07066421210765839 0.012914213351905346 -0.01600000075995922 0.07066421210765839 0.011499999091029167 -0.017414214089512825 0.06925000250339508 0.011500000022351742 -0.009999999776482582 0.07125000655651093 0.011500000022351742 -0.012000000104308128 0.06925000250339508 0.013500000350177288 -0.012000000104308128 0.07066421210765839 0.011499999091029167 -0.010585786774754524 0.07040470838546753 0.012654700316488743 -0.010845299810171127 0.07066421210765839 0.012914213351905346 -0.012000000104308128 0.06925000250339508 0.012914213351905346 -0.010585786774754524</float_array><technique_common><accessor source="#mesh4-array" count="56" stride="3"><param name="X" type="float" /><param name="Y" type="float" /><param name="Z" type="float" /></accessor></technique_common></source><source id="mesh4-normals"><float_array id="mesh4-normals-array" count="324">-0.28174710273742676 -0.3671805262565613 -0.8864519596099854 -0.3671807646751404 -0.2817467749118805 -0.8864519596099854 -0.36718082427978516 -0.8864519000053406 -0.2817469537258148 -0.28174710273742676 -0.886451780796051 -0.367180734872818 -0.8864521384239197 -0.2817460596561432 -0.3671810030937195 -0.8864520788192749 -0.36718085408210754 -0.28174617886543274 -0.28174713253974915 -0.8864519000053406 0.367180734872818 -0.36718079447746277 -0.8864519000053406 0.2817469537258148 -0.367180734872818 -0.2817468047142029 0.8864520192146301 -0.28174707293510437 -0.36718055605888367 0.8864519596099854 -0.8864520788192749 -0.36718088388442993 0.28174617886543274 -0.8864521384239197 -0.2817460596561432 0.36718106269836426 -0.367180734872818 0.2817468047142029 -0.8864520192146301 -0.28174707293510437 0.36718055605888367 -0.8864519596099854 -0.8864520788192749 0.36718088388442993 -0.28174617886543274 -0.8864521384239197 0.2817460596561432 -0.36718106269836426 -0.28174713253974915 0.8864519000053406 -0.367180734872818 -0.36718079447746277 0.8864519000053406 -0.2817469537258148 -0.28174710273742676 0.3671805262565613 0.8864519596099854 -0.3671807646751404 0.2817467749118805 0.8864519596099854 -0.36718082427978516 0.8864519000053406 0.2817469537258148 -0.28174710273742676 0.886451780796051 0.367180734872818 -0.8864521384239197 0.2817460596561432 0.3671810030937195 -0.8864520788192749 0.36718085408210754 0.28174617886543274 0.367180734872818 -0.2817468047142029 -0.8864520192146301 0.28174707293510437 -0.36718055605888367 -0.8864519596099854 0.8864520788192749 -0.36718088388442993 -0.28174617886543274 0.8864521384239197 -0.2817460596561432 -0.36718106269836426 0.28174713253974915 -0.8864519000053406 -0.367180734872818 0.36718079447746277 -0.8864519000053406 -0.2817469537258148 0.28174710273742676 -0.3671805262565613 0.8864519596099854 0.3671807646751404 -0.2817467749118805 0.8864519596099854 0.36718082427978516 -0.8864519000053406 0.2817469537258148 0.28174710273742676 -0.886451780796051 0.367180734872818 0.8864521384239197 -0.2817460596561432 0.3671810030937195 0.8864520788192749 -0.36718085408210754 0.28174617886543274 0.28174710273742676 0.3671805262565613 -0.8864519596099854 0.3671807646751404 0.2817467749118805 -0.8864519596099854 0.36718082427978516 0.8864519000053406 -0.2817469537258148 0.28174710273742676 0.886451780796051 -0.367180734872818 0.8864521384239197 0.2817460596561432 -0.3671810030937195 0.8864520788192749 0.36718085408210754 -0.28174617886543274 0.367180734872818 0.2817468047142029 0.8864520192146301 0.28174707293510437 0.36718055605888367 0.8864519596099854 0.8864520788192749 0.36718088388442993 0.28174617886543274 0.8864521384239197 0.2817460596561432 0.36718106269836426 0.28174713253974915 0.8864519000053406 0.367180734872818 0.36718079447746277 0.8864519000053406 0.2817469537258148 -0.38268354535102844 0.0 -0.9238795042037964 -0.38268354535102844 0.0 -0.9238795042037964 -0.9238794445991516 0.0 -0.38268375396728516 -0.9238794445991516 0.0 -0.38268378376960754 -0.38268378376960754 -0.9238793849945068 0.0 -0.38268378376960754 -0.9238793849945068 0.0 -0.9238793849945068 -0.38268378376960754 0.0 -0.9238793849945068 -0.38268378376960754 0.0 -0.38268354535102844 0.0 0.9238795042037964 -0.38268354535102844 0.0 0.9238795042037964 -0.9238794445991516 0.0 0.38268375396728516 -0.9238794445991516 0.0 0.38268378376960754 -0.38268378376960754 0.9238793849945068 0.0 -0.38268378376960754 0.9238793849945068 0.0 -0.9238793849945068 0.38268378376960754 0.0 -0.9238793849945068 0.38268378376960754 0.0 0.0 0.38268351554870605 -0.9238794445991516 0.0 0.38268351554870605 -0.9238794445991516 0.0 0.9238793849945068 -0.38268372416496277 0.0 0.9238793849945068 -0.38268372416496277 0.0 0.38268351554870605 0.9238794445991516 0.0 0.38268351554870605 0.9238794445991516 0.0 0.9238793849945068 0.38268372416496277 0.0 0.9238793849945068 0.38268372416496277 0.9238793849945068 0.38268378376960754 0.0 0.9238793849945068 0.38268378376960754 0.0 0.38268378376960754 0.9238793849945068 0.0 0.38268378376960754 0.9238793849945068 0.0 0.38268354535102844 0.0 -0.9238795042037964 0.38268354535102844 0.0 -0.9238795042037964 0.9238794445991516 0.0 -0.38268375396728516 0.9238794445991516 0.0 -0.38268378376960754 0.38268354535102844 0.0 0.9238795042037964 0.38268354535102844 0.0 0.9238795042037964 0.9238794445991516 0.0 0.38268375396728516 0.9238794445991516 0.0 0.38268378376960754 0.38268378376960754 -0.9238793849945068 0.0 0.38268378376960754 -0.9238793849945068 0.0 0.9238793849945068 -0.38268378376960754 0.0 0.9238793849945068 -0.38268378376960754 0.0 0.0 -0.38268351554870605 -0.9238794445991516 0.0 -0.38268351554870605 -0.9238794445991516 0.0 -0.9238793849945068 -0.38268372416496277 0.0 -0.9238793849945068 -0.38268372416496277 0.0 -0.38268351554870605 0.9238794445991516 0.0 -0.38268351554870605 0.9238794445991516 0.0 -0.9238793849945068 0.38268372416496277 0.0 -0.9238793849945068 0.38268372416496277 0.0 0.0 -1.0 0.0 0.0 -1.0 -1.0 0.0 0.0 -1.0 0.0 0.0 0.0 -1.0 0.0 0.0 -1.0 0.0 0.0 0.0 1.0 0.0 0.0 1.0 0.0 1.0 0.0 0.0 1.0 0.0 1.0 0.0 0.0 1.0 0.0 0.0</float_array><technique_common><accessor source="#mesh4-normals-array" count="108" stride="3"><param name="X" type="float" /><param name="Y" type="float" /><param name="Z" type="float" /></accessor></technique_common></source><vertices id="mesh4-vertices"><input semantic="POSITION" source="#mesh4-positions" /></vertices><triangles count="108" material="rubber"><input semantic="VERTEX" source="#mesh4-vertices" offset="0" /><input semantic="NORMAL" source="#mesh4-normals" offset="1" /><p>0 0 3 0 4 0 0 1 4 1 6 1 1 2 5 2 4 2 1 3 4 3 3 3 2 4 6 4 4 4 2 5 4 5 5 5 7 6 10 6 11 6 7 7 11 7 13 7 8 8 12 8 11 8 8 9 11 9 10 9 9 10 13 10 11 10 9 11 11 11 12 11 14 12 17 12 18 12 14 13 18 13 20 13 15 14 19 14 18 14 15 15 18 15 17 15 16 16 20 16 18 16 16 17 18 17 19 17 21 18 24 18 25 18 21 19 25 19 27 19 22 20 26 20 25 20 22 21 25 21 24 21 23 22 27 22 25 22 23 23 25 23 26 23 28 24 31 24 32 24 28 25 32 25 34 25 29 26 33 26 32 26 29 27 32 27 31 27 30 28 34 28 32 28 30 29 32 29 33 29 35 30 38 30 39 30 35 31 39 31 41 31 36 32 40 32 39 32 36 33 39 33 38 33 37 34 41 34 39 34 37 35 39 35 40 35 42 36 45 36 46 36 42 37 46 37 48 37 43 38 47 38 46 38 43 39 46 39 45 39 44 40 48 40 46 40 44 41 46 41 47 41 49 42 52 42 53 42 49 43 53 43 55 43 50 44 54 44 53 44 50 45 53 45 52 45 51 46 55 46 53 46 51 47 53 47 54 47 14 48 0 48 6 48 14 49 6 49 17 49 17 50 6 50 2 50 17 51 2 51 15 51 1 52 7 52 13 52 1 53 13 53 5 53 5 54 13 54 9 54 5 55 9 55 2 55 8 56 21 56 27 56 8 57 27 57 12 57 12 58 27 58 23 58 12 59 23 59 9 59 22 60 16 60 19 60 22 61 19 61 26 61 26 62 19 62 15 62 26 63 15 63 23 63 42 64 14 64 20 64 42 65 20 65 45 65 45 66 20 66 16 66 45 67 16 67 43 67 21 68 49 68 55 68 21 69 55 69 24 69 24 70 55 70 51 70 24 71 51 71 22 71 50 72 44 72 47 72 50 73 47 73 54 73 54 74 47 74 43 74 54 75 43 75 51 75 28 76 42 76 48 76 28 77 48 77 31 77 31 78 48 78 44 78 31 79 44 79 29 79 49 80 35 80 41 80 49 81 41 81 52 81 52 82 41 82 37 82 52 83 37 83 50 83 36 84 30 84 33 84 36 85 33 85 40 85 40 86 33 86 29 86 40 87 29 87 37 87 0 88 28 88 34 88 0 89 34 89 3 89 3 90 34 90 30 90 3 91 30 91 1 91 35 92 8 92 10 92 35 93 10 93 38 93 38 94 10 94 7 94 38 95 7 95 36 95 14 96 42 96 28 96 14 97 28 97 0 97 2 98 9 98 23 98 2 99 23 99 15 99 30 100 36 100 7 100 30 101 7 101 1 101 49 102 21 102 8 102 49 103 8 103 35 103 16 104 22 104 51 104 16 105 51 105 43 105 44 106 50 106 37 106 44 107 37 107 29 107</p></triangles></mesh></geometry><geometry id="mesh5"><mesh><source id="mesh5-positions"><float_array id="mesh5-array" count="240">0.06308883428573608 -0.002656228607520461 0.0033889529295265675 0.07082092016935349 -0.006000000052154064 -0.0009235106408596039 0.06416111439466476 -0.002656228607520461 0.0049099610187113285 0.06509838998317719 -0.00428933696821332 0.0016625731950625777 0.06253337860107422 -0.002656228607520461 0.004569632466882467 0.06381621956825256 -0.004229111131280661 0.0036390661261975765 0.06889209151268005 -0.005509268958121538 0.0014690748648718 0.06791934370994568 -0.005509268492460251 8.922605775296688e-05 0.06586989760398865 -0.005138501990586519 0.002566839335486293 0.06286244094371796 -0.0026562283746898174 0.005036399234086275 0.06646234542131424 -0.004289335571229458 0.0035973461344838142 0.06416995823383331 -0.004229110665619373 0.004140837118029594 0.09000000357627869 -0.0026562283746898174 -0.004000000189989805 0.08818090707063675 -0.006000000052154064 -0.006909710820764303 0.08975628763437271 -0.004328113980591297 -0.004389831330627203 0.08909045159816742 -0.005552018992602825 -0.00545485969632864 0.09366778284311295 -0.0026562283746898174 -0.010722314938902855 0.09463559836149216 -0.00265622790902853 -0.008635596372187138 0.08818090707063675 -0.006000000052154064 -0.00690971314907074 0.09498906135559082 -0.0026562283746898174 -0.010480615310370922 0.09187568724155426 -0.004290873184800148 -0.01007950957864523 0.0939282476902008 -0.004233872052282095 -0.009978339076042175 0.0929872989654541 -0.00429087458178401 -0.007682753726840019 0.09530454874038696 -0.00265622790902853 -0.009800367057323456 0.09423590451478958 -0.004233872517943382 -0.009314997121691704 0.08987808972597122 -0.005508240312337875 -0.00869145616889 0.09063734859228134 -0.005508240777999163 -0.007054412737488747 0.0924995169043541 -0.005137333180755377 -0.008912679739296436 0.07091116160154343 -0.002656228607520461 -0.006388952024281025 0.0763322189450264 -0.002656228607520461 -0.00927768461406231 0.07471195608377457 -0.006000000052154064 -0.00578730134293437 0.07231368869543076 -0.0026562283746898174 -0.007890668697655201 0.0715046226978302 -0.004325920715928078 -0.006147766951471567 0.07284936308860779 -0.0042552584782242775 -0.007594924885779619 0.07620144635438919 -0.004325920715928078 -0.008650575764477253 0.074303537607193 -0.0026562283746898174 -0.008951006457209587 0.07425028085708618 -0.0042552584782242775 -0.008341433480381966 0.07289973646402359 -0.005553284659981728 -0.005926925223320723 0.07560671120882034 -0.005553284659981728 -0.007369396276772022 0.07383157312870026 -0.005119359120726585 -0.0074394457042217255 0.06308883428573608 0.002656228607520461 0.0033889547921717167 0.06416111439466476 0.0026562283746898174 0.004909961484372616 0.07082092016935349 0.006000000052154064 -0.0009235101751983166 0.06253337860107422 0.002656228607520461 0.004569633863866329 0.06509838998317719 0.00428933696821332 0.001662575057707727 0.06381621956825256 0.004229110665619373 0.0036390675231814384 0.06646234542131424 0.00428933696821332 0.003597344271838665 0.06286244094371796 0.002656228607520461 0.00503640016540885 0.06416995823383331 0.004229111596941948 0.00414083618670702 0.06791934370994568 0.005509268492460251 8.922691631596535e-05 0.06889209151268005 0.005509267095476389 0.0014690787065774202 0.06586990505456924 0.005138501524925232 0.002566842595115304 0.09000000357627869 0.0026562283746898174 -0.004000000189989805 0.08818090707063675 0.006000000052154064 -0.006909710820764303 0.08975628763437271 0.004328113980591297 -0.004389831330627203 0.08909045159816742 0.005552018992602825 -0.00545485969632864 0.09463559836149216 0.0026562283746898174 -0.008635596372187138 0.09366778284311295 0.002656228607520461 -0.010722314938902855 0.08818091452121735 0.006000000052154064 -0.006909714080393314 0.09530454874038696 0.00265622790902853 -0.009800367057323456 0.0929873064160347 0.004290873184800148 -0.007682755123823881 0.09423590451478958 0.004233871586620808 -0.009314998053014278 0.09187568724155426 0.004290874116122723 -0.010079511441290379 0.09498905390501022 0.00265622790902853 -0.010480614379048347 0.09392824023962021 0.004233872052282095 -0.009978339076042175 0.09063734114170074 0.005508240777999163 -0.007054413668811321 0.08987808972597122 0.005508239381015301 -0.008691458962857723 0.09249952435493469 0.005137333646416664 -0.00891268253326416 0.07091116160154343 0.002656228607520461 -0.006388952489942312 0.07471195608377457 0.006000000052154064 -0.00578730134293437 0.0763322189450264 0.0026562283746898174 -0.00927768461406231 0.0715046226978302 0.004325920715928078 -0.006147766951471567 0.07231368869543076 0.0026562283746898174 -0.007890668697655201 0.07284936308860779 0.0042552584782242775 -0.007594924885779619 0.07560671120882034 0.005553284659981728 -0.007369396276772022 0.07289973646402359 0.005553284659981728 -0.005926925223320723 0.07383157312870026 0.005119359120726585 -0.0074394457042217255 0.074303537607193 0.0026562283746898174 -0.008951006457209587 0.07620144635438919 0.004325920715928078 -0.008650575764477253 0.07425028085708618 0.0042552584782242775 -0.008341433480381966</float_array><technique_common><accessor source="#mesh5-array" count="80" stride="3"><param name="X" type="float" /><param name="Y" type="float" /><param name="Z" type="float" /></accessor></technique_common></source><source id="mesh5-normals"><float_array id="mesh5-normals-array" count="468">-0.7634475231170654 -0.42973044514656067 -0.48216164112091064 -0.8137940764427185 -0.4372217059135437 -0.3828528821468353 -0.5172462463378906 -0.7983434796333313 -0.30838924646377563 -0.5156090259552002 -0.7987232208251953 -0.3101426959037781 -0.06722293794155121 -0.9866733551025391 0.14817850291728973 -0.1621522158384323 -0.98667311668396 0.0135223139077425 0.11968208104372025 -0.7962302565574646 0.5930375456809998 0.11495427042245865 -0.8013022541999817 0.5871118307113647 0.0871487408876419 -0.43721675872802734 0.8951238989830017 0.1975998431444168 -0.4297252893447876 0.881073534488678 -0.5757669806480408 -0.7097414135932922 0.4059058725833893 -0.575767457485199 -0.7097412347793579 0.4059053957462311 -0.3009357154369354 -0.9297462701797485 0.2121545970439911 0.16505707800388336 -0.39825236797332764 -0.9023032784461975 0.05630052834749222 -0.41823121905326843 -0.9065941572189331 0.727859377861023 -0.5968823432922363 -0.33756816387176514 0.7278525233268738 -0.596885621547699 -0.33757713437080383 0.7284477949142456 -0.4182305932044983 0.5426297783851624 0.7954269647598267 -0.39825019240379333 0.45682910084724426 0.5028470158576965 -0.7921998500823975 0.3457806706428528 0.494917094707489 -0.79496830701828 0.35083091259002686 0.12602856755256653 -0.9805319309234619 -0.15057873725891113 0.19635659456253052 -0.9805319905281067 0.0010559610091149807 0.05216296389698982 -0.7868096232414246 -0.6149875521659851 0.06320839375257492 -0.8014455437660217 -0.594718337059021 0.4171934425830841 -0.8879806995391846 -0.19349420070648193 -0.6851796507835388 -0.3478899300098419 -0.6399230360984802 -0.6816808581352234 -0.3361611068248749 -0.6498515009880066 -0.44779884815216064 -0.3054381012916565 -0.840347409248352 -0.447797566652298 -0.3054361343383789 -0.8403487801551819 -0.15924498438835144 -0.3361608386039734 -0.9282439947128296 -0.14905096590518951 -0.3478917181491852 -0.9256107211112976 -0.13844868540763855 -0.6822652816772461 -0.717876136302948 -0.13844867050647736 -0.6822654008865356 -0.7178760170936584 -0.19384720921516418 -0.9048577547073364 -0.3790195882320404 -0.20649829506874084 -0.9048576951026917 -0.372278094291687 -0.5186630487442017 -0.6822648048400879 -0.5152702927589417 -0.5186596512794495 -0.6822662949562073 -0.5152716040611267 -0.38646548986434937 -0.5697851777076721 -0.7252512574195862 -0.8137940764427185 0.4372217655181885 -0.38285303115844727 -0.7634474635124207 0.4297304153442383 -0.48216164112091064 -0.5757670402526855 0.7097412943840027 0.40590599179267883 -0.5757673382759094 0.709741473197937 0.405905157327652 0.19760005176067352 0.42972561717033386 0.8810732960700989 0.08714917302131653 0.437217116355896 0.8951236009597778 0.11665528267621994 0.7983444333076477 0.5907942652702332 0.1188586950302124 0.7987244129180908 0.5898406505584717 -0.16215188801288605 0.98667311668396 0.013523241505026817 -0.06722227483987808 0.9866731762886047 0.1481795608997345 -0.5183416604995728 0.7962307929992676 -0.31199124455451965 -0.5143501162528992 0.8013013601303101 -0.3055490255355835 -0.3009357452392578 0.9297466278076172 0.21215300261974335 0.7954267859458923 0.39825066924095154 0.45682889223098755 0.7284491658210754 0.4182307720184326 0.5426278114318848 0.7278538942337036 0.5968854427337646 -0.3375745415687561 0.7278517484664917 0.5968823432922363 -0.33758461475372314 0.05630174279212952 0.4182312786579132 -0.9065940380096436 0.16505876183509827 0.3982526957988739 -0.9023028016090393 0.06084458902478218 0.7922002077102661 -0.6072205901145935 0.05187024176120758 0.794967770576477 -0.6044301986694336 0.19635792076587677 0.9805317521095276 0.001059172092936933 0.12602750957012177 0.9805317521095276 -0.15058058500289917 0.503166139125824 0.7868112921714783 0.3574239909648895 0.49483010172843933 0.8014427423477173 0.33590590953826904 0.4171944856643677 0.8879793286323547 -0.1934984177350998 -0.6816808581352234 0.3361612856388092 -0.6498514413833618 -0.6851795315742493 0.34788990020751953 -0.6399231553077698 -0.5186619758605957 0.682263970375061 -0.5152723789215088 -0.5186611413955688 0.682267427444458 -0.5152686238288879 -0.20649830996990204 0.9048576951026917 -0.3722780644893646 -0.1938471794128418 0.9048576951026917 -0.37901952862739563 -0.13844867050647736 0.6822653412818909 -0.7178760766983032 -0.13844871520996094 0.6822653412818909 -0.7178760766983032 -0.14905092120170593 0.3478917181491852 -0.9256107211112976 -0.15924499928951263 0.336160808801651 -0.9282439947128296 -0.44779911637306213 0.30543655157089233 -0.8403478860855103 -0.4477972388267517 0.30543845891952515 -0.8403481245040894 -0.38646548986434937 0.5697851777076721 -0.7252512574195862 -0.7328746318817139 -0.34517702460289 -0.5862998962402344 -0.7446590662002563 -0.2719855308532715 -0.6095135807991028 -0.5496920347213745 -0.7053526639938354 -0.44756704568862915 -0.554770827293396 -0.6971144676208496 -0.45415952801704407 -0.22264645993709564 -0.9586411118507385 -0.17730122804641724 -0.224717915058136 -0.957696795463562 -0.1797744780778885 -0.0236692912876606 -0.9585227370262146 -0.2840316891670227 -0.02354113571345806 -0.9577153921127319 -0.2867526412010193 -0.06312984228134155 -0.7058685421943665 -0.7055241465568542 -0.06294654309749603 -0.7036718726158142 -0.707731306552887 -0.08446507155895233 -0.3445414900779724 -0.934963583946228 -0.07952482998371124 -0.2880820333957672 -0.9542980194091797 0.19629690051078796 -0.9805445075035095 0.0 0.2030579149723053 -0.9642996191978455 0.1699814796447754 0.5020481944084167 -0.7288268208503723 0.46557387709617615 0.5097547769546509 -0.7056189179420471 0.49219098687171936 0.6826274991035461 -0.2998802959918976 0.6664019227027893 0.6830123066902161 -0.25882187485694885 0.683012068271637 0.08437296003103256 -0.9659255743026733 0.2446816861629486 0.09034840017557144 -0.9587578773498535 0.2694821059703827 0.22805848717689514 -0.706792950630188 0.6696515083312988 0.2273595929145813 -0.709968626499176 0.6665224432945251 0.31292209029197693 -0.25870075821876526 0.9138674139976501 0.3122003972530365 -0.2877776026725769 0.9053811430931091 -0.22255976498126984 0.9585228562355042 -0.17804795503616333 -0.22441016137599945 0.9579576253890991 -0.17876626551151276 -0.548957884311676 0.7048283219337463 -0.44929084181785583 -0.5541744828224182 0.6994605660438538 -0.4512711763381958 -0.7267351746559143 0.3441757559776306 -0.5944737792015076 -0.7478350400924683 0.28778138756752014 -0.5982680916786194 0.3148825764656067 0.2588214874267578 0.9131595492362976 0.30989131331443787 0.2908746004104614 0.905184805393219 0.22838443517684937 0.7068349719047546 0.6694960594177246 0.22687487304210663 0.7104067206382751 0.6662207841873169 0.082268126308918 0.9657840132713318 0.2459539920091629 0.09381306171417236 0.9576970934867859 0.2720579504966736 0.6771297454833984 0.28808125853538513 0.6771295666694641 0.691047191619873 0.25815659761428833 0.6751363277435303 0.5010871291160583 0.7176982760429382 0.4835502505302429 0.5201228857040405 0.7038994431495667 0.4837331175804138 0.20305898785591125 0.9642994999885559 0.169981449842453 0.1022806316614151 0.9668938517570496 0.2337842881679535 -0.07794130593538284 0.3451771140098572 -0.9352956414222717 -0.0865064412355423 0.2810158431529999 -0.9557963609695435 -0.06273330003023148 0.7059805393218994 -0.7054474353790283 -0.06337079405784607 0.7033255696296692 -0.7080376148223877 -0.02326708659529686 0.9585939645767212 -0.28382429480552673 -0.02392391301691532 0.9576057195663452 -0.2870870530605316 0.09690169245004654 -8.724209266119942e-08 0.9952939748764038 0.09690133482217789 -1.7448418532239884e-07 0.9952939748764038 -0.8173140287399292 -1.0101186376232363e-07 0.5761925578117371 -0.8173143863677979 -1.51517667745793e-07 0.5761921405792236 -0.9048653841018677 1.1194313032092396e-07 -0.425697922706604 -0.9048654437065125 1.4925745972504956e-07 -0.42569777369499207 0.17994433641433716 0.0 -0.9836768507957458 0.17994266748428345 4.2481252648940426e-07 -0.983677089214325 0.9071791768074036 1.3460554555422277e-06 -0.42074453830718994 0.9071832299232483 0.0 -0.4207358956336975 0.867161214351654 0.0 0.498027503490448 0.867161214351654 0.0 0.498027503490448 -0.7308306097984314 -5.982942496984833e-08 -0.6825589537620544 -0.730830729007721 0.0 -0.6825587749481201 -0.4702723026275635 0.0 -0.882521390914917 -0.4702723026275635 0.0 -0.882521390914917 -0.15898175537586212 0.0 -0.9872815608978271 -0.15898175537586212 0.0 -0.9872815608978271 -0.7808687090873718 2.1902960156694462e-07 -0.6246951818466187 -0.7808687686920166 0.0 -0.6246951818466187 0.0 -1.0 0.0 0.0 -1.0 0.0 0.3259906470775604 0.0 0.9453729391098022 0.3259906470775604 0.0 0.9453729391098022 0.70710688829422 0.0 0.7071067094802856 0.70710688829422 0.0 0.7071067094802856 -0.08304548263549805 0.0 -0.9965457916259766 -0.08304547518491745 0.0 -0.9965457916259766 0.0 1.0 0.0 0.0 1.0 0.0</float_array><technique_common><accessor source="#mesh5-normals-array" count="156" stride="3"><param name="X" type="float" /><param name="Y" type="float" /><param name="Z" type="float" /></accessor></technique_common></source><vertices id="mesh5-vertices"><input semantic="POSITION" source="#mesh5-positions" /></vertices><triangles count="156" material="graphite"><input semantic="VERTEX" source="#mesh5-vertices" offset="0" /><input semantic="NORMAL" source="#mesh5-normals" offset="1" /><p>0 0 3 0 5 0 0 1 5 1 4 1 3 2 7 2 8 2 3 3 8 3 5 3 1 4 6 4 8 4 1 5 8 5 7 5 6 6 10 6 11 6 6 7 11 7 8 7 2 8 9 8 11 8 2 9 11 9 10 9 9 10 4 10 5 10 9 11 5 11 11 11 5 12 8 12 11 12 16 13 19 13 21 13 16 14 21 14 20 14 19 15 23 15 24 15 19 16 24 16 21 16 17 17 22 17 24 17 17 18 24 18 23 18 22 19 26 19 27 19 22 20 27 20 24 20 18 21 25 21 27 21 18 22 27 22 26 22 25 23 20 23 21 23 25 24 21 24 27 24 21 25 24 25 27 25 28 26 31 26 33 26 28 27 33 27 32 27 31 28 35 28 36 28 31 29 36 29 33 29 29 30 34 30 36 30 29 31 36 31 35 31 34 32 38 32 39 32 34 33 39 33 36 33 30 34 37 34 39 34 30 35 39 35 38 35 37 36 32 36 33 36 37 37 33 37 39 37 33 38 36 38 39 38 40 39 43 39 45 39 40 40 45 40 44 40 43 41 47 41 48 41 43 42 48 42 45 42 41 43 46 43 48 43 41 44 48 44 47 44 46 45 50 45 51 45 46 46 51 46 48 46 42 47 49 47 51 47 42 48 51 48 50 48 49 49 44 49 45 49 49 50 45 50 51 50 45 51 48 51 51 51 56 52 59 52 61 52 56 53 61 53 60 53 59 54 63 54 64 54 59 55 64 55 61 55 57 56 62 56 64 56 57 57 64 57 63 57 62 58 66 58 67 58 62 59 67 59 64 59 58 60 65 60 67 60 58 61 67 61 66 61 65 62 60 62 61 62 65 63 61 63 67 63 61 64 64 64 67 64 68 65 71 65 73 65 68 66 73 66 72 66 71 67 75 67 76 67 71 68 76 68 73 68 69 69 74 69 76 69 69 70 76 70 75 70 74 71 78 71 79 71 74 72 79 72 76 72 70 73 77 73 79 73 70 74 79 74 78 74 77 75 72 75 73 75 77 76 73 76 79 76 73 77 76 77 79 77 0 78 28 78 32 78 0 79 32 79 3 79 3 80 32 80 37 80 3 81 37 81 7 81 7 82 37 82 30 82 7 83 30 83 1 83 18 84 30 84 38 84 18 85 38 85 25 85 25 86 38 86 34 86 25 87 34 87 20 87 20 88 34 88 29 88 20 89 29 89 16 89 13 90 18 90 26 90 13 91 26 91 15 91 15 92 26 92 22 92 15 93 22 93 14 93 14 94 22 94 17 94 14 95 17 95 12 95 1 96 13 96 15 96 1 97 15 97 6 97 6 98 15 98 14 98 6 99 14 99 10 99 10 100 14 100 12 100 10 101 12 101 2 101 42 102 69 102 75 102 42 103 75 103 49 103 49 104 75 104 71 104 49 105 71 105 44 105 44 106 71 106 68 106 44 107 68 107 40 107 41 108 52 108 54 108 41 109 54 109 46 109 46 110 54 110 55 110 46 111 55 111 50 111 50 112 55 112 53 112 50 113 53 113 42 113 52 114 56 114 60 114 52 115 60 115 54 115 54 116 60 116 65 116 54 117 65 117 55 117 55 118 65 118 58 118 55 119 58 119 53 119 57 120 70 120 78 120 57 121 78 121 62 121 62 122 78 122 74 122 62 123 74 123 66 123 66 124 74 124 69 124 66 125 69 125 58 125 2 126 41 126 47 126 2 127 47 127 9 127 9 128 47 128 43 128 9 129 43 129 4 129 4 130 43 130 40 130 4 131 40 131 0 131 16 132 57 132 63 132 16 133 63 133 19 133 19 134 63 134 59 134 19 135 59 135 23 135 23 136 59 136 56 136 23 137 56 137 17 137 28 138 68 138 72 138 28 139 72 139 31 139 31 140 72 140 77 140 31 141 77 141 35 141 35 142 77 142 70 142 35 143 70 143 29 143 28 144 0 144 40 144 28 145 40 145 68 145 30 146 18 146 13 146 30 147 13 147 1 147 2 148 12 148 52 148 2 149 52 149 41 149 12 150 17 150 56 150 12 151 56 151 52 151 16 152 29 152 70 152 16 153 70 153 57 153 42 154 53 154 58 154 42 155 58 155 69 155</p></triangles></mesh></geometry></library_geometries><library_visual_scenes><visual_scene id="Scene"><node id="mesh0-node"><instance_geometry url="#mesh0"><bind_material><technique_common><instance_material symbol="ivory" target="#ivory" /></technique_common></bind_material></instance_geometry></node><node id="mesh1-node"><instance_geometry url="#mesh1"><bind_material><technique_common><instance_material symbol="graphite" target="#graphite" /></technique_common></bind_material></instance_geometry></node><node id="mesh2-node"><instance_geometry url="#mesh2"><bind_material><technique_common><instance_material symbol="titanium" target="#titanium" /></technique_common></bind_material></instance_geometry></node><node id="mesh3-node"><instance_geometry url="#mesh3"><bind_material><technique_common><instance_material symbol="titanium" target="#titanium" /></technique_common></bind_material></instance_geometry></node><node id="mesh4-node"><instance_geometry url="#mesh4"><bind_material><technique_common><instance_material symbol="rubber" target="#rubber" /></technique_common></bind_material></instance_geometry></node><node id="mesh5-node"><instance_geometry url="#mesh5"><bind_material><technique_common><instance_material symbol="graphite" target="#graphite" /></technique_common></bind_material></instance_geometry></node></visual_scene></library_visual_scenes><scene><instance_visual_scene url="#Scene" /></scene></COLLADA>