<?xml version='1.0' encoding='utf-8'?>
<COLLADA xmlns="http://www.collada.org/2005/11/COLLADASchema" version="1.4.1"><asset><unit name="meter" meter="1" /><up_axis>Z_UP</up_axis></asset><library_effects><effect id="graphite-fx"><profile_COMMON><technique sid="common"><phong><emission><color>0 0 0 1</color></emission><ambient><color>0.065 0.075 0.085 1</color></ambient><diffuse><color>0.065 0.075 0.085 1</color></diffuse><specular><color>0.12 0.12 0.12 1</color></specular><shininess><float>25</float></shininess></phong></technique></profile_COMMON></effect><effect id="titanium-fx"><profile_COMMON><technique sid="common"><phong><emission><color>0 0 0 1</color></emission><ambient><color>0.36 0.4 0.43 1</color></ambient><diffuse><color>0.36 0.4 0.43 1</color></diffuse><specular><color>0.12 0.12 0.12 1</color></specular><shininess><float>25</float></shininess></phong></technique></profile_COMMON></effect><effect id="ivory-fx"><profile_COMMON><technique sid="common"><phong><emission><color>0 0 0 1</color></emission><ambient><color>0.72 0.72 0.65 1</color></ambient><diffuse><color>0.72 0.72 0.65 1</color></diffuse><specular><color>0.12 0.12 0.12 1</color></specular><shininess><float>25</float></shininess></phong></technique></profile_COMMON></effect><effect id="copper-fx"><profile_COMMON><technique sid="common"><phong><emission><color>0 0 0 1</color></emission><ambient><color>0.66 0.29 0.08 1</color></ambient><diffuse><color>0.66 0.29 0.08 1</color></diffuse><specular><color>0.12 0.12 0.12 1</color></specular><shininess><float>25</float></shininess></phong></technique></profile_COMMON></effect><effect id="rubber-fx"><profile_COMMON><technique sid="common"><phong><emission><color>0 0 0 1</color></emission><ambient><color>0.025 0.028 0.032 1</color></ambient><diffuse><color>0.025 0.028 0.032 1</color></diffuse><specular><color>0.12 0.12 0.12 1</color></specular><shininess><float>25</float></shininess></phong></technique></profile_COMMON></effect><effect id="lens-fx"><profile_COMMON><technique sid="common"><phong><emission><color>0 0 0 1</color></emission><ambient><color>0.05 0.26 0.33 1</color></ambient><diffuse><color>0.05 0.26 0.33 1</color></diffuse><specular><color>0.12 0.12 0.12 1</color></specular><shininess><float>25</float></shininess></phong></technique></profile_COMMON></effect></library_effects><library_materials><material id="graphite"><instance_effect url="#graphite-fx" /></material><material id="titanium"><instance_effect url="#titanium-fx" /></material><material id="ivory"><instance_effect url="#ivory-fx" /></material><material id="copper"><instance_effect url="#copper-fx" /></material><material id="rubber"><instance_effect url="#rubber-fx" /></material><material id="lens"><instance_effect url="#lens-fx" /></material></library_materials><library_geometries><geometry id="mesh0"><mesh><source id="mesh0-positions"><float_array id="mesh0-array" count="144">0.0 -0.017000000923871994 0.010000000707805157 0.0 -0.01899999938905239 0.010000000707805157 0.00258819037117064 -0.017000000923871994 0.009659258648753166 0.00258819037117064 -0.01899999938905239 0.009659258648753166 0.004999999888241291 -0.017000000923871994 0.008660254999995232 0.004999999888241291 -0.01899999938905239 0.008660254999995232 0.007071067579090595 -0.017000000923871994 0.00707106851041317 0.007071067579090595 -0.01899999938905239 0.00707106851041317 0.008660254068672657 -0.017000000923871994 0.005000000353902578 0.008660254068672657 -0.01899999938905239 0.005000000353902578 0.009659257717430592 -0.017000000923871994 0.0025881908368319273 0.009659257717430592 -0.01899999938905239 0.00258819037117064 0.009999999776482582 -0.016999999061226845 1.343587602287144e-10 0.009999999776482582 -0.01899999938905239 -1.343587602287144e-10 0.009659257717430592 -0.016999999061226845 -0.00258819037117064 0.009659257717430592 -0.018999997526407242 -0.0025881908368319273 0.008660254068672657 -0.016999999061226845 -0.005000000353902578 0.008660254068672657 -0.018999997526407242 -0.005000000353902578 0.007071067579090595 -0.016999999061226845 -0.00707106851041317 0.007071067579090595 -0.018999997526407242 -0.00707106851041317 0.004999999888241291 -0.016999999061226845 -0.008660254999995232 0.004999999888241291 -0.018999997526407242 -0.008660254999995232 0.00258819037117064 -0.016999999061226845 -0.009659258648753166 0.00258819037117064 -0.018999997526407242 -0.009659258648753166 0.0 -0.016999999061226845 -0.010000000707805157 0.0 -0.018999997526407242 -0.010000000707805157 -0.00258819037117064 -0.016999999061226845 -0.009659258648753166 -0.00258819037117064 -0.018999997526407242 -0.009659258648753166 -0.004999999888241291 -0.016999999061226845 -0.008660254999995232 -0.004999999888241291 -0.018999997526407242 -0.008660254999995232 -0.007071067579090595 -0.016999999061226845 -0.00707106851041317 -0.007071067579090595 -0.018999997526407242 -0.00707106851041317 -0.008660254068672657 -0.016999999061226845 -0.005000000353902578 -0.008660254068672657 -0.018999997526407242 -0.005000000353902578 -0.009659257717430592 -0.016999999061226845 -0.00258819037117064 -0.009659257717430592 -0.018999997526407242 -0.0025881908368319273 -0.009999999776482582 -0.016999999061226845 1.343587602287144e-10 -0.009999999776482582 -0.01899999938905239 -1.343587602287144e-10 -0.009659257717430592 -0.017000000923871994 0.0025881908368319273 -0.009659257717430592 -0.01899999938905239 0.00258819037117064 -0.008660254068672657 -0.017000000923871994 0.005000000353902578 -0.008660254068672657 -0.01899999938905239 0.005000000353902578 -0.007071067579090595 -0.017000000923871994 0.00707106851041317 -0.007071067579090595 -0.01899999938905239 0.00707106851041317 -0.004999999888241291 -0.017000000923871994 0.008660254999995232 -0.004999999888241291 -0.01899999938905239 0.008660254999995232 -0.00258819037117064 -0.017000000923871994 0.009659258648753166 -0.00258819037117064 -0.01899999938905239 0.009659258648753166</float_array><technique_common><accessor source="#mesh0-array" count="48" stride="3"><param name="X" type="float" /><param name="Y" type="float" /><param name="Z" type="float" /></accessor></technique_common></source><source id="mesh0-normals"><float_array id="mesh0-normals-array" count="276">0.1305263191461563 -1.332093830797021e-07 0.9914448261260986 0.1305263191461563 -1.332093830797021e-07 0.9914448261260986 0.38268330693244934 -1.2413140382250276e-07 0.9238796234130859 0.38268330693244934 -1.2413140382250276e-07 0.9238796234130859 0.6087615489959717 -1.0659402960300213e-07 0.793353259563446 0.6087615489959717 -1.0659402960300213e-07 0.793353259563446 0.7933533787727356 -8.179248567330433e-08 0.6087614893913269 0.7933533787727356 -8.179248567330433e-08 0.6087614893913269 0.9238796234130859 -5.1416872537402014e-08 0.3826831877231598 0.9238796234130859 -5.1416872537402014e-08 0.3826831877231598 0.9914448261260986 -1.753736178500276e-08 0.13052628934383392 0.9914448261260986 -1.753736178500276e-08 0.13052628934383392 0.9914448261260986 1.753736178500276e-08 -0.13052628934383392 0.9914448261260986 1.753736178500276e-08 -0.13052628934383392 0.9238796234130859 5.1416872537402014e-08 -0.3826831877231598 0.9238796234130859 5.1416872537402014e-08 -0.3826831877231598 0.7933533787727356 8.179248567330433e-08 -0.6087614893913269 0.7933533787727356 8.179248567330433e-08 -0.6087614893913269 0.6087615489959717 1.0659402960300213e-07 -0.793353259563446 0.6087615489959717 1.0659402960300213e-07 -0.793353259563446 0.38268330693244934 1.2413140382250276e-07 -0.9238796234130859 0.38268330693244934 1.2413140382250276e-07 -0.9238796234130859 0.1305263191461563 1.332093830797021e-07 -0.9914448261260986 0.1305263191461563 1.332093830797021e-07 -0.9914448261260986 -0.1305263191461563 1.332093830797021e-07 -0.9914448261260986 -0.1305263191461563 1.332093830797021e-07 -0.9914448261260986 -0.38268330693244934 1.2413140382250276e-07 -0.9238796234130859 -0.38268330693244934 1.2413140382250276e-07 -0.9238796234130859 -0.6087615489959717 1.0659402960300213e-07 -0.793353259563446 -0.6087615489959717 1.0659402960300213e-07 -0.793353259563446 -0.7933533787727356 8.179248567330433e-08 -0.6087614893913269 -0.7933533787727356 8.179248567330433e-08 -0.6087614893913269 -0.9238796234130859 5.1416872537402014e-08 -0.3826831877231598 -0.9238796234130859 5.1416872537402014e-08 -0.3826831877231598 -0.9914448261260986 1.753736178500276e-08 -0.13052628934383392 -0.9914448261260986 1.753736178500276e-08 -0.13052628934383392 -0.9914448261260986 -1.753736178500276e-08 0.13052628934383392 -0.9914448261260986 -1.753736178500276e-08 0.13052628934383392 -0.9238796234130859 -5.1416872537402014e-08 0.3826831877231598 -0.9238796234130859 -5.1416872537402014e-08 0.3826831877231598 -0.7933533787727356 -8.179248567330433e-08 0.6087614893913269 -0.7933533787727356 -8.179248567330433e-08 0.6087614893913269 -0.6087615489959717 -1.0659402960300213e-07 0.793353259563446 -0.6087615489959717 -1.0659402960300213e-07 0.793353259563446 0.0 -1.0 -1.3435884227419592e-07 0.0 -1.0 -1.3435884227419592e-07 0.0 -1.0 -1.3435884227419592e-07 0.0 -1.0 -1.3435884227419592e-07 0.0 -1.0 -1.3435884227419592e-07 0.0 -1.0 -1.3435884227419592e-07 0.0 -1.0 -1.3435884227419592e-07 0.0 -1.0 -1.3435884227419592e-07 0.0 -1.0 -1.3435884227419592e-07 0.0 -1.0 -1.3435884227419592e-07 0.0 -1.0 -1.3435884227419592e-07 0.0 -1.0 -1.3435884227419592e-07 0.0 -1.0 -1.3435884227419592e-07 0.0 -1.0 -1.3435884227419592e-07 0.0 -1.0 -1.3435884227419592e-07 0.0 -1.0 -1.3435884227419592e-07 0.0 -1.0 -1.3435884227419592e-07 0.0 -1.0 -1.3435884227419592e-07 0.0 -1.0 -1.3435884227419592e-07 0.0 -1.0 -1.3435884227419592e-07 0.0 -1.0 -1.3435884227419592e-07 0.0 -1.0 -1.3435884227419592e-07 -0.38268330693244934 -1.2413140382250276e-07 0.9238796234130859 -0.38268330693244934 -1.2413140382250276e-07 0.9238796234130859 -0.1305263191461563 -1.332093830797021e-07 0.9914448261260986 -0.1305263191461563 -1.332093830797021e-07 0.9914448261260986 0.0 1.0 1.3435884227419592e-07 0.0 1.0 1.3435884227419592e-07 0.0 1.0 1.3435884227419592e-07 0.0 1.0 1.3435884227419592e-07 0.0 1.0 1.3435884227419592e-07 0.0 1.0 1.3435884227419592e-07 0.0 1.0 1.3435884227419592e-07 0.0 1.0 1.3435884227419592e-07 0.0 1.0 1.3435884227419592e-07 0.0 1.0 1.3435884227419592e-07 0.0 1.0 1.3435884227419592e-07 0.0 1.0 1.3435884227419592e-07 0.0 1.0 1.3435884227419592e-07 0.0 1.0 1.3435884227419592e-07 0.0 1.0 1.3435884227419592e-07 0.0 1.0 1.3435884227419592e-07 0.0 1.0 1.3435884227419592e-07 0.0 1.0 1.3435884227419592e-07 0.0 1.0 1.3435884227419592e-07 0.0 1.0 1.3435884227419592e-07 0.0 1.0 1.3435884227419592e-07 0.0 1.0 1.3435884227419592e-07</float_array><technique_common><accessor source="#mesh0-normals-array" count="92" stride="3"><param name="X" type="float" /><param name="Y" type="float" /><param name="Z" type="float" /></accessor></technique_common></source><vertices id="mesh0-vertices"><input semantic="POSITION" source="#mesh0-positions" /></vertices><triangles count="92" material="titanium"><input semantic="VERTEX" source="#mesh0-vertices" offset="0" /><input semantic="NORMAL" source="#mesh0-normals" offset="1" /><p>0 0 1 0 3 0 0 1 3 1 2 1 2 2 3 2 5 2 2 3 5 3 4 3 4 4 5 4 7 4 4 5 7 5 6 5 6 6 7 6 9 6 6 7 9 7 8 7 8 8 9 8 11 8 8 9 11 9 10 9 10 10 11 10 13 10 10 11 13 11 12 11 12 12 13 12 15 12 12 13 15 13 14 13 14 14 15 14 17 14 14 15 17 15 16 15 16 16 17 16 19 16 16 17 19 17 18 17 18 18 19 18 21 18 18 19 21 19 20 19 20 20 21 20 23 20 20 21 23 21 22 21 22 22 23 22 25 22 22 23 25 23 24 23 24 24 25 24 27 24 24 25 27 25 26 25 26 26 27 26 29 26 26 27 29 27 28 27 28 28 29 28 31 28 28 29 31 29 30 29 30 30 31 30 33 30 30 31 33 31 32 31 32 32 33 32 35 32 32 33 35 33 34 33 34 34 35 34 37 34 34 35 37 35 36 35 36 36 37 36 39 36 36 37 39 37 38 37 38 38 39 38 41 38 38 39 41 39 40 39 40 40 41 40 43 40 40 41 43 41 42 41 42 42 43 42 45 42 42 43 45 43 44 43 5 44 3 44 1 44 1 45 47 45 45 45 45 46 43 46 41 46 41 47 39 47 37 47 37 48 35 48 33 48 33 49 31 49 29 49 29 50 27 50 25 50 25 51 23 51 21 51 21 52 19 52 17 52 17 53 15 53 13 53 13 54 11 54 9 54 9 55 7 55 5 55 5 56 1 56 45 56 45 57 41 57 37 57 37 58 33 58 29 58 29 59 25 59 21 59 21 60 17 60 13 60 13 61 9 61 5 61 5 62 45 62 37 62 37 63 29 63 21 63 21 64 13 64 5 64 37 65 21 65 5 65 44 66 45 66 47 66 44 67 47 67 46 67 46 68 47 68 1 68 46 69 1 69 0 69 46 70 0 70 2 70 2 71 4 71 6 71 6 72 8 72 10 72 10 73 12 73 14 73 14 74 16 74 18 74 18 75 20 75 22 75 22 76 24 76 26 76 26 77 28 77 30 77 30 78 32 78 34 78 34 79 36 79 38 79 38 80 40 80 42 80 42 81 44 81 46 81 46 82 2 82 6 82 6 83 10 83 14 83 14 84 18 84 22 84 22 85 26 85 30 85 30 86 34 86 38 86 38 87 42 87 46 87 46 88 6 88 14 88 14 89 22 89 30 89 30 90 38 90 46 90 14 91 30 91 46 91</p></triangles></mesh></geometry><geometry id="mesh1"><mesh><source id="mesh1-positions"><float_array id="mesh1-array" count="144">-1.5099582695299318e-09 0.016999999061226845 0.010000000707805157 -1.5099582695299318e-09 0.018999997526407242 0.010000000707805157 -0.002588192466646433 0.016999999061226845 0.009659258648753166 -0.002588192466646433 0.018999997526407242 0.009659257717430592 -0.005000002682209015 0.016999999061226845 0.008660254068672657 -0.005000002682209015 0.018999997526407242 0.008660254068672657 -0.007071070373058319 0.016999999061226845 0.007071067579090595 -0.007071070373058319 0.018999997526407242 0.007071067113429308 -0.00866025686264038 0.016999999061226845 0.004999998956918716 -0.00866025686264038 0.018999997526407242 0.004999998956918716 -0.00965925958007574 0.016999999061226845 0.0025881892070174217 -0.00965925958007574 0.018999997526407242 0.002588188974186778 -0.010000002570450306 0.016999999061226845 -1.3755995231790052e-09 -0.010000002570450306 0.01899999938905239 -1.6443170158808584e-09 -0.00965925958007574 0.017000000923871994 -0.0025881920009851456 -0.00965925958007574 0.01899999938905239 -0.0025881922338157892 -0.008660254999995232 0.017000000923871994 -0.00500000175088644 -0.008660254999995232 0.01899999938905239 -0.00500000175088644 -0.00707106851041317 0.017000000923871994 -0.0070710694417357445 -0.00707106851041317 0.01899999938905239 -0.007071069907397032 -0.004999999888241291 0.017000000923871994 -0.008660255931317806 -0.004999999888241291 0.01899999938905239 -0.008660255931317806 -0.002588189672678709 0.017000000923871994 -0.009659258648753166 -0.002588189672678709 0.01899999938905239 -0.00965925958007574 1.5099582695299318e-09 0.017000000923871994 -0.010000000707805157 1.5099582695299318e-09 0.01899999938905239 -0.010000000707805157 0.002588192466646433 0.017000000923871994 -0.009659257717430592 0.002588192466646433 0.01899999938905239 -0.009659258648753166 0.005000002682209015 0.017000000923871994 -0.008660254068672657 0.005000002682209015 0.01899999938905239 -0.008660254068672657 0.007071070373058319 0.017000000923871994 -0.007071067113429308 0.007071070373058319 0.01899999938905239 -0.007071067579090595 0.00866025686264038 0.017000000923871994 -0.004999998956918716 0.00866025686264038 0.01899999938905239 -0.004999998956918716 0.00965925958007574 0.017000000923871994 -0.002588188974186778 0.00965925958007574 0.01899999938905239 -0.0025881892070174217 0.010000002570450306 0.016999999061226845 1.6443170158808584e-09 0.010000002570450306 0.01899999938905239 1.3755995231790052e-09 0.00965925958007574 0.016999999061226845 0.0025881922338157892 0.00965925958007574 0.018999997526407242 0.0025881920009851456 0.008660254999995232 0.016999999061226845 0.00500000175088644 0.008660254999995232 0.018999997526407242 0.00500000175088644 0.00707106851041317 0.016999999061226845 0.007071069907397032 0.00707106851041317 0.018999997526407242 0.0070710694417357445 0.004999999888241291 0.016999999061226845 0.008660255931317806 0.004999999888241291 0.018999997526407242 0.008660255931317806 0.002588189672678709 0.016999999061226845 0.00965925958007574 0.002588189672678709 0.018999997526407242 0.009659258648753166</float_array><technique_common><accessor source="#mesh1-array" count="48" stride="3"><param name="X" type="float" /><param name="Y" type="float" /><param name="Z" type="float" /></accessor></technique_common></source><source id="mesh1-normals"><float_array id="mesh1-normals-array" count="276">-0.13052643835544586 1.3320936886884738e-07 0.9914448261260986 -0.13052643835544586 1.3320936886884738e-07 0.9914448261260986 -0.3826833665370941 1.2413137540079333e-07 0.9238795638084412 -0.3826833665370941 1.2413137540079333e-07 0.9238795638084412 -0.6087616086006165 1.0659401539214741e-07 0.7933531999588013 -0.6087616086006165 1.0659401539214741e-07 0.7933531999588013 -0.7933533787727356 8.179247856787697e-08 0.6087614297866821 -0.7933533787727356 8.179247856787697e-08 0.6087614297866821 -0.9238796830177307 5.14168583265473e-08 0.382683128118515 -0.9238796830177307 5.14168583265473e-08 0.382683128118515 -0.9914449453353882 1.7537347574148043e-08 0.13052618503570557 -0.9914449453353882 1.7537347574148043e-08 0.13052618503570557 -0.9914448261260986 -1.753738310128483e-08 -0.13052646815776825 -0.9914448261260986 -1.753738310128483e-08 -0.13052646815776825 -0.9238795638084412 -5.141689385368409e-08 -0.3826834261417389 -0.9238795638084412 -5.141689385368409e-08 -0.3826834261417389 -0.7933531403541565 -8.17925069895864e-08 -0.6087616682052612 -0.7933531403541565 -8.17925069895864e-08 -0.6087616682052612 -0.6087613701820374 -1.0659404381385684e-07 -0.7933534383773804 -0.6087613701820374 -1.0659404381385684e-07 -0.7933534383773804 -0.38268306851387024 -1.2413140382250276e-07 -0.9238796830177307 -0.38268306851387024 -1.2413140382250276e-07 -0.9238796830177307 -0.13052615523338318 -1.332093830797021e-07 -0.9914449453353882 -0.13052615523338318 -1.332093830797021e-07 -0.9914449453353882 0.13052643835544586 -1.3320936886884738e-07 -0.9914448261260986 0.13052643835544586 -1.3320936886884738e-07 -0.9914448261260986 0.3826833665370941 -1.2413137540079333e-07 -0.9238795638084412 0.3826833665370941 -1.2413137540079333e-07 -0.9238795638084412 0.6087616086006165 -1.0659401539214741e-07 -0.7933531999588013 0.6087616086006165 -1.0659401539214741e-07 -0.7933531999588013 0.7933533787727356 -8.179247856787697e-08 -0.6087614297866821 0.7933533787727356 -8.179247856787697e-08 -0.6087614297866821 0.9238796830177307 -5.14168583265473e-08 -0.382683128118515 0.9238796830177307 -5.14168583265473e-08 -0.382683128118515 0.9914449453353882 -1.7537347574148043e-08 -0.13052618503570557 0.9914449453353882 -1.7537347574148043e-08 -0.13052618503570557 0.9914448261260986 1.753738310128483e-08 0.13052646815776825 0.9914448261260986 1.753738310128483e-08 0.13052646815776825 0.9238795638084412 5.141689385368409e-08 0.3826834261417389 0.9238795638084412 5.141689385368409e-08 0.3826834261417389 0.7933531403541565 8.17925069895864e-08 0.6087616682052612 0.7933531403541565 8.17925069895864e-08 0.6087616682052612 0.6087613701820374 1.0659404381385684e-07 0.7933534383773804 0.6087613701820374 1.0659404381385684e-07 0.7933534383773804 -2.028761815660307e-14 1.0 1.343588280633412e-07 -2.028761815660307e-14 1.0 1.343588280633412e-07 -2.028761815660307e-14 1.0 1.343588280633412e-07 -2.028761815660307e-14 1.0 1.343588280633412e-07 -2.028761815660307e-14 1.0 1.343588280633412e-07 -2.028761815660307e-14 1.0 1.343588280633412e-07 -2.028761815660307e-14 1.0 1.343588280633412e-07 -2.028761815660307e-14 1.0 1.343588280633412e-07 -2.028761815660307e-14 1.0 1.343588280633412e-07 -2.028761815660307e-14 1.0 1.343588280633412e-07 -2.028761815660307e-14 1.0 1.343588280633412e-07 -2.028761815660307e-14 1.0 1.343588280633412e-07 -2.028761815660307e-14 1.0 1.343588280633412e-07 -2.028761815660307e-14 1.0 1.343588280633412e-07 -2.028761815660307e-14 1.0 1.343588280633412e-07 -2.028761815660307e-14 1.0 1.343588280633412e-07 -2.028761815660307e-14 1.0 1.343588280633412e-07 -2.028761815660307e-14 1.0 1.343588280633412e-07 -2.028761815660307e-14 1.0 1.343588280633412e-07 -2.028761815660307e-14 1.0 1.343588280633412e-07 -2.028761815660307e-14 1.0 1.343588280633412e-07 -2.028761815660307e-14 1.0 1.343588280633412e-07 0.38268306851387024 1.2413140382250276e-07 0.9238796830177307 0.38268306851387024 1.2413140382250276e-07 0.9238796830177307 0.13052615523338318 1.332093830797021e-07 0.9914449453353882 0.13052615523338318 1.332093830797021e-07 0.9914449453353882 2.028761815660307e-14 -1.0 -1.343588280633412e-07 2.0287619850668966e-14 -1.0 -1.343588280633412e-07 2.0287619850668966e-14 -1.0 -1.343588280633412e-07 2.028761815660307e-14 -1.0 -1.343588280633412e-07 2.0287619850668966e-14 -1.0 -1.343588280633412e-07 2.0287619850668966e-14 -1.0 -1.343588280633412e-07 2.028761815660307e-14 -1.0 -1.343588280633412e-07 2.0287619850668966e-14 -1.0 -1.343588280633412e-07 2.0287619850668966e-14 -1.0 -1.343588280633412e-07 2.028761815660307e-14 -1.0 -1.343588280633412e-07 2.0287619850668966e-14 -1.0 -1.343588280633412e-07 2.0287619850668966e-14 -1.0 -1.343588280633412e-07 2.028761815660307e-14 -1.0 -1.343588280633412e-07 2.028761815660307e-14 -1.0 -1.343588280633412e-07 2.028761815660307e-14 -1.0 -1.343588280633412e-07 2.028761815660307e-14 -1.0 -1.343588280633412e-07 2.028761815660307e-14 -1.0 -1.343588280633412e-07 2.028761815660307e-14 -1.0 -1.343588280633412e-07 2.028761815660307e-14 -1.0 -1.343588280633412e-07 2.028761815660307e-14 -1.0 -1.343588280633412e-07 2.028761815660307e-14 -1.0 -1.343588280633412e-07 2.028761815660307e-14 -1.0 -1.343588280633412e-07</float_array><technique_common><accessor source="#mesh1-normals-array" count="92" stride="3"><param name="X" type="float" /><param name="Y" type="float" /><param name="Z" type="float" /></accessor></technique_common></source><vertices id="mesh1-vertices"><input semantic="POSITION" source="#mesh1-positions" /></vertices><triangles count="92" material="titanium"><input semantic="VERTEX" source="#mesh1-vertices" offset="0" /><input semantic="NORMAL" source="#mesh1-normals" offset="1" /><p>0 0 1 0 3 0 0 1 3 1 2 1 2 2 3 2 5 2 2 3 5 3 4 3 4 4 5 4 7 4 4 5 7 5 6 5 6 6 7 6 9 6 6 7 9 7 8 7 8 8 9 8 11 8 8 9 11 9 10 9 10 10 11 10 13 10 10 11 13 11 12 11 12 12 13 12 15 12 12 13 15 13 14 13 14 14 15 14 17 14 14 15 17 15 16 15 16 16 17 16 19 16 16 17 19 17 18 17 18 18 19 18 21 18 18 19 21 19 20 19 20 20 21 20 23 20 20 21 23 21 22 21 22 22 23 22 25 22 22 23 25 23 24 23 24 24 25 24 27 24 24 25 27 25 26 25 26 26 27 26 29 26 26 27 29 27 28 27 28 28 29 28 31 28 28 29 31 29 30 29 30 30 31 30 33 30 30 31 33 31 32 31 32 32 33 32 35 32 32 33 35 33 34 33 34 34 35 34 37 34 34 35 37 35 36 35 36 36 37 36 39 36 36 37 39 37 38 37 38 38 39 38 41 38 38 39 41 39 40 39 40 40 41 40 43 40 40 41 43 41 42 41 42 42 43 42 45 42 42 43 45 43 44 43 5 44 3 44 1 44 1 45 47 45 45 45 45 46 43 46 41 46 41 47 39 47 37 47 37 48 35 48 33 48 33 49 31 49 29 49 29 50 27 50 25 50 25 51 23 51 21 51 21 52 19 52 17 52 17 53 15 53 13 53 13 54 11 54 9 54 9 55 7 55 5 55 5 56 1 56 45 56 45 57 41 57 37 57 37 58 33 58 29 58 29 59 25 59 21 59 21 60 17 60 13 60 13 61 9 61 5 61 5 62 45 62 37 62 37 63 29 63 21 63 21 64 13 64 5 64 37 65 21 65 5 65 44 66 45 66 47 66 44 67 47 67 46 67 46 68 47 68 1 68 46 69 1 69 0 69 46 70 0 70 2 70 2 71 4 71 6 71 6 72 8 72 10 72 10 73 12 73 14 73 14 74 16 74 18 74 18 75 20 75 22 75 22 76 24 76 26 76 26 77 28 77 30 77 30 78 32 78 34 78 34 79 36 79 38 79 38 80 40 80 42 80 42 81 44 81 46 81 46 82 2 82 6 82 6 83 10 83 14 83 14 84 18 84 22 84 22 85 26 85 30 85 30 86 34 86 38 86 38 87 42 87 46 87 46 88 6 88 14 88 14 89 22 89 30 89 30 90 38 90 46 90 14 91 30 91 46 91</p></triangles></mesh></geometry></library_geometries><library_visual_scenes><visual_scene id="Scene"><node id="mesh0-node"><instance_geometry url="#mesh0"><bind_material><technique_common><instance_material symbol="titanium" target="#titanium" /></technique_common></bind_material></instance_geometry></node><node id="mesh1-node"><instance_geometry url="#mesh1"><bind_material><technique_common><instance_material symbol="titanium" target="#titanium" /></technique_common></bind_material></instance_geometry></node></visual_scene></library_visual_scenes><scene><instance_visual_scene url="#Scene" /></scene></COLLADA>