<?xml version='1.0' encoding='utf-8'?>
<COLLADA xmlns="http://www.collada.org/2005/11/COLLADASchema" version="1.4.1"><asset><unit name="meter" meter="1" /><up_axis>Z_UP</up_axis></asset><library_effects><effect id="graphite-fx"><profile_COMMON><technique sid="common"><phong><emission><color>0 0 0 1</color></emission><ambient><color>0.065 0.075 0.085 1</color></ambient><diffuse><color>0.065 0.075 0.085 1</color></diffuse><specular><color>0.12 0.12 0.12 1</color></specular><shininess><float>25</float></shininess></phong></technique></profile_COMMON></effect><effect id="titanium-fx"><profile_COMMON><technique sid="common"><phong><emission><color>0 0 0 1</color></emission><ambient><color>0.36 0.4 0.43 1</color></ambient><diffuse><color>0.36 0.4 0.43 1</color></diffuse><specular><color>0.12 0.12 0.12 1</color></specular><shininess><float>25</float></shininess></phong></technique></profile_COMMON></effect><effect id="ivory-fx"><profile_COMMON><technique sid="common"><phong><emission><color>0 0 0 1</color></emission><ambient><color>0.72 0.72 0.65 1</color></ambient><diffuse><color>0.72 0.72 0.65 1</color></diffuse><specular><color>0.12 0.12 0.12 1</color></specular><shininess><float>25</float></shininess></phong></technique></profile_COMMON></effect><effect id="copper-fx"><profile_COMMON><technique sid="common"><phong><emission><color>0 0 0 1</color></emission><ambient><color>0.66 0.29 0.08 1</color></ambient><diffuse><color>0.66 0.29 0.08 1</color></diffuse><specular><color>0.12 0.12 0.12 1</color></specular><shininess><float>25</float></shininess></phong></technique></profile_COMMON></effect><effect id="rubber-fx"><profile_COMMON><technique sid="common"><phong><emission><color>0 0 0 1</color></emission><ambient><color>0.025 0.028 0.032 1</color></ambient><diffuse><color>0.025 0.028 0.032 1</color></diffuse><specular><color>0.12 0.12 0.12 1</color></specular><shininess><float>25</float></shininess></phong></technique></profile_COMMON></effect><effect id="lens-fx"><profile_COMMON><technique sid="common"><phong><emission><color>0 0 0 1</color></emission><ambient><color>0.05 0.26 0.33 1</color></ambient><diffuse><color>0.05 0.26 0.33 1</color></diffuse><specular><color>0.12 0.12 0.12 1</color></specular><shininess><float>25</float></shininess></phong></technique></profile_COMMON></effect></library_effects><library_materials><material id="graphite"><instance_effect url="#graphite-fx" /></material><material id="titanium"><instance_effect url="#titanium-fx" /></material><material id="ivory"><instance_effect url="#ivory-fx" /></material><material id="copper"><instance_effect url="#copper-fx" /></material><material id="rubber"><instance_effect url="#rubber-fx" /></material><material id="lens"><instance_effect url="#lens-fx" /></material></library_materials><library_geometries><geometry id="mesh0"><mesh><source id="mesh0-positions"><float_array id="mesh0-array" count="144">-3.0199165390598637e-09 -0.01650000363588333 0.020000003278255463 -3.0199165390598637e-09 0.016499999910593033 0.019999999552965164 -0.005176384933292866 -0.01650000363588333 0.01931851916015148 -0.005176384933292866 0.016499999910593033 0.019318513572216034 -0.01000000536441803 -0.01650000363588333 0.017320509999990463 -0.01000000536441803 0.016499999910593033 0.017320506274700165 -0.014142140746116638 -0.01650000363588333 0.01414213702082634 -0.014142140746116638 0.016499999910593033 0.014142132364213467 -0.01732051372528076 -0.01650000363588333 0.010000000707805157 -0.01732051372528076 0.016499999910593033 0.009999996051192284 -0.01931851916015148 -0.016500001773238182 0.005176380276679993 -0.01931851916015148 0.016500001773238182 0.005176376085728407 -0.020000005140900612 -0.016500001773238182 -8.029954479127355e-10 -0.020000005140900612 0.016500001773238182 -5.236837630206992e-09 -0.01931851916015148 -0.016500001773238182 -0.005176382139325142 -0.01931851916015148 0.016500001773238182 -0.005176386330276728 -0.017320509999990463 -0.016499999910593033 -0.010000000707805157 -0.017320509999990463 0.01650000363588333 -0.01000000536441803 -0.01414213702082634 -0.016499999910593033 -0.01414213702082634 -0.01414213702082634 0.01650000363588333 -0.014142141677439213 -0.009999999776482582 -0.016499999910593033 -0.017320509999990463 -0.009999999776482582 0.01650000363588333 -0.01732051372528076 -0.005176379345357418 -0.016499999910593033 -0.019318515434861183 -0.005176379345357418 0.01650000363588333 -0.01931852102279663 3.0199165390598637e-09 -0.016499999910593033 -0.019999999552965164 3.0199165390598637e-09 0.01650000363588333 -0.020000003278255463 0.005176384933292866 -0.016499999910593033 -0.019318513572216034 0.005176384933292866 0.01650000363588333 -0.01931851916015148 0.01000000536441803 -0.016499999910593033 -0.017320506274700165 0.01000000536441803 0.01650000363588333 -0.017320509999990463 0.014142140746116638 -0.016499999910593033 -0.014142132364213467 0.014142140746116638 0.01650000363588333 -0.01414213702082634 0.01732051372528076 -0.016499999910593033 -0.009999996051192284 0.01732051372528076 0.01650000363588333 -0.010000000707805157 0.01931851916015148 -0.016500001773238182 -0.005176376085728407 0.01931851916015148 0.016500001773238182 -0.005176380276679993 0.020000005140900612 -0.016500001773238182 5.236837630206992e-09 0.020000005140900612 0.016500001773238182 8.029954479127355e-10 0.01931851916015148 -0.016500001773238182 0.005176386330276728 0.01931851916015148 0.016500001773238182 0.005176382139325142 0.017320509999990463 -0.01650000363588333 0.01000000536441803 0.017320509999990463 0.016499999910593033 0.010000000707805157 0.01414213702082634 -0.01650000363588333 0.014142141677439213 0.01414213702082634 0.016499999910593033 0.01414213702082634 0.009999999776482582 -0.01650000363588333 0.01732051372528076 0.009999999776482582 0.016499999910593033 0.017320509999990463 0.005176379345357418 -0.01650000363588333 0.01931852102279663 0.005176379345357418 0.016499999910593033 0.019318515434861183</float_array><technique_common><accessor source="#mesh0-array" count="48" stride="3"><param name="X" type="float" /><param name="Y" type="float" /><param name="Z" type="float" /></accessor></technique_common></source><source id="mesh0-normals"><float_array id="mesh0-normals-array" count="276">-0.13052643835544586 1.3320936886884738e-07 0.9914448261260986 -0.13052643835544586 1.3320936886884738e-07 0.9914448261260986 -0.3826833963394165 1.2413137540079333e-07 0.9238796234130859 -0.3826833963394165 1.2413137540079333e-07 0.9238796234130859 -0.6087616086006165 1.0659401539214741e-07 0.7933531999588013 -0.6087616086006165 1.0659401539214741e-07 0.7933531999588013 -0.7933533787727356 8.179247856787697e-08 0.6087614297866821 -0.7933533787727356 8.179247856787697e-08 0.6087614297866821 -0.9238797426223755 5.1416865431974657e-08 0.3826831877231598 -0.9238797426223755 5.1416865431974657e-08 0.3826831877231598 -0.9914449453353882 1.7537347574148043e-08 0.13052618503570557 -0.9914449453353882 1.7537347574148043e-08 0.13052618503570557 -0.9914448261260986 -1.753738310128483e-08 -0.13052646815776825 -0.9914448261260986 -1.753738310128483e-08 -0.13052646815776825 -0.9238796234130859 -5.1416900959111445e-08 -0.38268348574638367 -0.9238796234130859 -5.1416900959111445e-08 -0.38268348574638367 -0.7933531403541565 -8.17925069895864e-08 -0.6087616682052612 -0.7933531403541565 -8.17925069895864e-08 -0.6087616682052612 -0.6087613701820374 -1.0659404381385684e-07 -0.7933534383773804 -0.6087613701820374 -1.0659404381385684e-07 -0.7933534383773804 -0.3826830983161926 -1.2413140382250276e-07 -0.9238797426223755 -0.3826830983161926 -1.2413140382250276e-07 -0.9238797426223755 -0.13052615523338318 -1.332093830797021e-07 -0.9914449453353882 -0.13052615523338318 -1.332093830797021e-07 -0.9914449453353882 0.13052643835544586 -1.3320936886884738e-07 -0.9914448261260986 0.13052643835544586 -1.3320936886884738e-07 -0.9914448261260986 0.3826833963394165 -1.2413137540079333e-07 -0.9238796234130859 0.3826833963394165 -1.2413137540079333e-07 -0.9238796234130859 0.6087616086006165 -1.0659401539214741e-07 -0.7933531999588013 0.6087616086006165 -1.0659401539214741e-07 -0.7933531999588013 0.7933533787727356 -8.179247856787697e-08 -0.6087614297866821 0.7933533787727356 -8.179247856787697e-08 -0.6087614297866821 0.9238797426223755 -5.1416865431974657e-08 -0.3826831877231598 0.9238797426223755 -5.1416865431974657e-08 -0.3826831877231598 0.9914449453353882 -1.7537347574148043e-08 -0.13052618503570557 0.9914449453353882 -1.7537347574148043e-08 -0.13052618503570557 0.9914448261260986 1.753738310128483e-08 0.13052646815776825 0.9914448261260986 1.753738310128483e-08 0.13052646815776825 0.9238796234130859 5.1416900959111445e-08 0.38268348574638367 0.9238796234130859 5.1416900959111445e-08 0.38268348574638367 0.7933531403541565 8.17925069895864e-08 0.6087616682052612 0.7933531403541565 8.17925069895864e-08 0.6087616682052612 0.6087613701820374 1.0659404381385684e-07 0.7933534383773804 0.6087613701820374 1.0659404381385684e-07 0.7933534383773804 -2.028761815660307e-14 1.0 1.343588280633412e-07 -2.028761815660307e-14 1.0 1.343588280633412e-07 -2.028761815660307e-14 1.0 1.343588280633412e-07 -2.028761815660307e-14 1.0 1.343588280633412e-07 -2.028761815660307e-14 1.0 1.343588280633412e-07 -2.028761815660307e-14 1.0 1.343588280633412e-07 -2.028761815660307e-14 1.0 1.343588280633412e-07 -2.028761815660307e-14 1.0 1.343588280633412e-07 -2.028761815660307e-14 1.0 1.343588280633412e-07 -2.028761815660307e-14 1.0 1.343588280633412e-07 -2.028761815660307e-14 1.0 1.343588280633412e-07 -2.028761815660307e-14 1.0 1.343588280633412e-07 -2.028761815660307e-14 1.0 1.343588280633412e-07 -2.028761815660307e-14 1.0 1.343588280633412e-07 -2.028761815660307e-14 1.0 1.343588280633412e-07 -2.028761815660307e-14 1.0 1.343588280633412e-07 -2.028761815660307e-14 1.0 1.343588280633412e-07 -2.028761815660307e-14 1.0 1.343588280633412e-07 -2.028761815660307e-14 1.0 1.343588280633412e-07 -2.028761815660307e-14 1.0 1.343588280633412e-07 -2.028761815660307e-14 1.0 1.343588280633412e-07 -2.028761815660307e-14 1.0 1.343588280633412e-07 0.3826830983161926 1.2413140382250276e-07 0.9238797426223755 0.3826830983161926 1.2413140382250276e-07 0.9238797426223755 0.13052615523338318 1.332093830797021e-07 0.9914449453353882 0.13052615523338318 1.332093830797021e-07 0.9914449453353882 2.028761815660307e-14 -1.0 -1.343588280633412e-07 2.0287619850668966e-14 -1.0 -1.343588280633412e-07 2.0287619850668966e-14 -1.0 -1.343588280633412e-07 2.028761815660307e-14 -1.0 -1.343588280633412e-07 2.0287619850668966e-14 -1.0 -1.343588280633412e-07 2.0287619850668966e-14 -1.0 -1.343588280633412e-07 2.028761815660307e-14 -1.0 -1.343588280633412e-07 2.0287619850668966e-14 -1.0 -1.343588280633412e-07 2.0287619850668966e-14 -1.0 -1.343588280633412e-07 2.028761815660307e-14 -1.0 -1.343588280633412e-07 2.0287619850668966e-14 -1.0 -1.343588280633412e-07 2.0287619850668966e-14 -1.0 -1.343588280633412e-07 2.028761815660307e-14 -1.0 -1.343588280633412e-07 2.028761815660307e-14 -1.0 -1.343588280633412e-07 2.028761815660307e-14 -1.0 -1.343588280633412e-07 2.028761815660307e-14 -1.0 -1.343588280633412e-07 2.028761815660307e-14 -1.0 -1.343588280633412e-07 2.028761815660307e-14 -1.0 -1.343588280633412e-07 2.028761815660307e-14 -1.0 -1.343588280633412e-07 2.028761815660307e-14 -1.0 -1.343588280633412e-07 2.028761815660307e-14 -1.0 -1.343588280633412e-07 2.028761815660307e-14 -1.0 -1.343588280633412e-07</float_array><technique_common><accessor source="#mesh0-normals-array" count="92" stride="3"><param name="X" type="float" /><param name="Y" type="float" /><param name="Z" type="float" /></accessor></technique_common></source><vertices id="mesh0-vertices"><input semantic="POSITION" source="#mesh0-positions" /></vertices><triangles count="92" material="graphite"><input semantic="VERTEX" source="#mesh0-vertices" offset="0" /><input semantic="NORMAL" source="#mesh0-normals" offset="1" /><p>0 0 1 0 3 0 0 1 3 1 2 1 2 2 3 2 5 2 2 3 5 3 4 3 4 4 5 4 7 4 4 5 7 5 6 5 6 6 7 6 9 6 6 7 9 7 8 7 8 8 9 8 11 8 8 9 11 9 10 9 10 10 11 10 13 10 10 11 13 11 12 11 12 12 13 12 15 12 12 13 15 13 14 13 14 14 15 14 17 14 14 15 17 15 16 15 16 16 17 16 19 16 16 17 19 17 18 17 18 18 19 18 21 18 18 19 21 19 20 19 20 20 21 20 23 20 20 21 23 21 22 21 22 22 23 22 25 22 22 23 25 23 24 23 24 24 25 24 27 24 24 25 27 25 26 25 26 26 27 26 29 26 26 27 29 27 28 27 28 28 29 28 31 28 28 29 31 29 30 29 30 30 31 30 33 30 30 31 33 31 32 31 32 32 33 32 35 32 32 33 35 33 34 33 34 34 35 34 37 34 34 35 37 35 36 35 36 36 37 36 39 36 36 37 39 37 38 37 38 38 39 38 41 38 38 39 41 39 40 39 40 40 41 40 43 40 40 41 43 41 42 41 42 42 43 42 45 42 42 43 45 43 44 43 5 44 3 44 1 44 1 45 47 45 45 45 45 46 43 46 41 46 41 47 39 47 37 47 37 48 35 48 33 48 33 49 31 49 29 49 29 50 27 50 25 50 25 51 23 51 21 51 21 52 19 52 17 52 17 53 15 53 13 53 13 54 11 54 9 54 9 55 7 55 5 55 5 56 1 56 45 56 45 57 41 57 37 57 37 58 33 58 29 58 29 59 25 59 21 59 21 60 17 60 13 60 13 61 9 61 5 61 5 62 45 62 37 62 37 63 29 63 21 63 21 64 13 64 5 64 37 65 21 65 5 65 44 66 45 66 47 66 44 67 47 67 46 67 46 68 47 68 1 68 46 69 1 69 0 69 46 70 0 70 2 70 2 71 4 71 6 71 6 72 8 72 10 72 10 73 12 73 14 73 14 74 16 74 18 74 18 75 20 75 22 75 22 76 24 76 26 76 26 77 28 77 30 77 30 78 32 78 34 78 34 79 36 79 38 79 38 80 40 80 42 80 42 81 44 81 46 81 46 82 2 82 6 82 6 83 10 83 14 83 14 84 18 84 22 84 22 85 26 85 30 85 30 86 34 86 38 86 38 87 42 87 46 87 46 88 6 88 14 88 14 89 22 89 30 89 30 90 38 90 46 90 14 91 30 91 46 91</p></triangles></mesh></geometry><geometry id="mesh1"><mesh><source id="mesh1-positions"><float_array id="mesh1-array" count="240">0.06308883428573608 -0.002656228607520461 0.0033889529295265675 0.07082092016935349 -0.006000000052154064 -0.0009235106408596039 0.06416111439466476 -0.002656228607520461 0.0049099610187113285 0.06509838998317719 -0.00428933696821332 0.0016625731950625777 0.06253337860107422 -0.002656228607520461 0.004569632466882467 0.06381621956825256 -0.004229111131280661 0.0036390661261975765 0.06889209151268005 -0.005509268958121538 0.0014690748648718 0.06791934370994568 -0.005509268492460251 8.922605775296688e-05 0.06586989760398865 -0.005138501990586519 0.002566839335486293 0.06286244094371796 -0.0026562283746898174 0.005036399234086275 0.06646234542131424 -0.004289335571229458 0.0035973461344838142 0.06416995823383331 -0.004229110665619373 0.004140837118029594 0.09000000357627869 -0.0026562283746898174 -0.004000000189989805 0.08818090707063675 -0.006000000052154064 -0.006909710820764303 0.08975628763437271 -0.004328113980591297 -0.004389831330627203 0.08909045159816742 -0.005552018992602825 -0.00545485969632864 0.09366778284311295 -0.0026562283746898174 -0.010722314938902855 0.09463559836149216 -0.00265622790902853 -0.008635596372187138 0.08818090707063675 -0.006000000052154064 -0.00690971314907074 0.09498906135559082 -0.0026562283746898174 -0.010480615310370922 0.09187568724155426 -0.004290873184800148 -0.01007950957864523 0.0939282476902008 -0.004233872052282095 -0.009978339076042175 0.0929872989654541 -0.00429087458178401 -0.007682753726840019 0.09530454874038696 -0.00265622790902853 -0.009800367057323456 0.09423590451478958 -0.004233872517943382 -0.009314997121691704 0.08987808972597122 -0.005508240312337875 -0.00869145616889 0.09063734859228134 -0.005508240777999163 -0.007054412737488747 0.0924995169043541 -0.005137333180755377 -0.008912679739296436 0.07091116160154343 -0.002656228607520461 -0.006388952024281025 0.0763322189450264 -0.002656228607520461 -0.00927768461406231 0.07471195608377457 -0.006000000052154064 -0.00578730134293437 0.07231368869543076 -0.0026562283746898174 -0.007890668697655201 0.0715046226978302 -0.004325920715928078 -0.006147766951471567 0.07284936308860779 -0.0042552584782242775 -0.007594924885779619 0.07620144635438919 -0.004325920715928078 -0.008650575764477253 0.074303537607193 -0.0026562283746898174 -0.008951006457209587 0.07425028085708618 -0.0042552584782242775 -0.008341433480381966 0.07289973646402359 -0.005553284659981728 -0.005926925223320723 0.07560671120882034 -0.005553284659981728 -0.007369396276772022 0.07383157312870026 -0.005119359120726585 -0.0074394457042217255 0.06308883428573608 0.002656228607520461 0.0033889547921717167 0.06416111439466476 0.0026562283746898174 0.004909961484372616 0.07082092016935349 0.006000000052154064 -0.0009235101751983166 0.06253337860107422 0.002656228607520461 0.004569633863866329 0.06509838998317719 0.00428933696821332 0.001662575057707727 0.06381621956825256 0.004229110665619373 0.0036390675231814384 0.06646234542131424 0.00428933696821332 0.003597344271838665 0.06286244094371796 0.002656228607520461 0.00503640016540885 0.06416995823383331 0.004229111596941948 0.00414083618670702 0.06791934370994568 0.005509268492460251 8.922691631596535e-05 0.06889209151268005 0.005509267095476389 0.0014690787065774202 0.06586990505456924 0.005138501524925232 0.002566842595115304 0.09000000357627869 0.0026562283746898174 -0.004000000189989805 0.08818090707063675 0.006000000052154064 -0.006909710820764303 0.08975628763437271 0.004328113980591297 -0.004389831330627203 0.08909045159816742 0.005552018992602825 -0.00545485969632864 0.09463559836149216 0.0026562283746898174 -0.008635596372187138 0.09366778284311295 0.002656228607520461 -0.010722314938902855 0.08818091452121735 0.006000000052154064 -0.006909714080393314 0.09530454874038696 0.00265622790902853 -0.009800367057323456 0.0929873064160347 0.004290873184800148 -0.007682755123823881 0.09423590451478958 0.004233871586620808 -0.009314998053014278 0.09187568724155426 0.004290874116122723 -0.010079511441290379 0.09498905390501022 0.00265622790902853 -0.010480614379048347 0.09392824023962021 0.004233872052282095 -0.009978339076042175 0.09063734114170074 0.005508240777999163 -0.007054413668811321 0.08987808972597122 0.005508239381015301 -0.008691458962857723 0.09249952435493469 0.005137333646416664 -0.00891268253326416 0.07091116160154343 0.002656228607520461 -0.006388952489942312 0.07471195608377457 0.006000000052154064 -0.00578730134293437 0.0763322189450264 0.0026562283746898174 -0.00927768461406231 0.0715046226978302 0.004325920715928078 -0.006147766951471567 0.07231368869543076 0.0026562283746898174 -0.007890668697655201 0.07284936308860779 0.0042552584782242775 -0.007594924885779619 0.07560671120882034 0.005553284659981728 -0.007369396276772022 0.07289973646402359 0.005553284659981728 -0.005926925223320723 0.07383157312870026 0.005119359120726585 -0.0074394457042217255 0.074303537607193 0.0026562283746898174 -0.008951006457209587 0.07620144635438919 0.004325920715928078 -0.008650575764477253 0.07425028085708618 0.0042552584782242775 -0.008341433480381966</float_array><technique_common><accessor source="#mesh1-array" count="80" stride="3"><param name="X" type="float" /><param name="Y" type="float" /><param name="Z" type="float" /></accessor></technique_common></source><source id="mesh1-normals"><float_array id="mesh1-normals-array" count="468">-0.7634475231170654 -0.42973044514656067 -0.48216164112091064 -0.8137940764427185 -0.4372217059135437 -0.3828528821468353 -0.5172462463378906 -0.7983434796333313 -0.30838924646377563 -0.5156090259552002 -0.7987232208251953 -0.3101426959037781 -0.06722293794155121 -0.9866733551025391 0.14817850291728973 -0.1621522158384323 -0.98667311668396 0.0135223139077425 0.11968208104372025 -0.7962302565574646 0.5930375456809998 0.11495427042245865 -0.8013022541999817 0.5871118307113647 0.0871487408876419 -0.43721675872802734 0.8951238989830017 0.1975998431444168 -0.4297252893447876 0.881073534488678 -0.5757669806480408 -0.7097414135932922 0.4059058725833893 -0.575767457485199 -0.7097412347793579 0.4059053957462311 -0.3009357154369354 -0.9297462701797485 0.2121545970439911 0.16505707800388336 -0.39825236797332764 -0.9023032784461975 0.05630052834749222 -0.41823121905326843 -0.9065941572189331 0.727859377861023 -0.5968823432922363 -0.33756816387176514 0.7278525233268738 -0.596885621547699 -0.33757713437080383 0.7284477949142456 -0.4182305932044983 0.5426297783851624 0.7954269647598267 -0.39825019240379333 0.45682910084724426 0.5028470158576965 -0.7921998500823975 0.3457806706428528 0.494917094707489 -0.79496830701828 0.35083091259002686 0.12602856755256653 -0.9805319309234619 -0.15057873725891113 0.19635659456253052 -0.9805319905281067 0.0010559610091149807 0.05216296389698982 -0.7868096232414246 -0.6149875521659851 0.06320839375257492 -0.8014455437660217 -0.594718337059021 0.4171934425830841 -0.8879806995391846 -0.19349420070648193 -0.6851796507835388 -0.3478899300098419 -0.6399230360984802 -0.6816808581352234 -0.3361611068248749 -0.6498515009880066 -0.44779884815216064 -0.3054381012916565 -0.840347409248352 -0.447797566652298 -0.3054361343383789 -0.8403487801551819 -0.15924498438835144 -0.3361608386039734 -0.9282439947128296 -0.14905096590518951 -0.3478917181491852 -0.9256107211112976 -0.13844868540763855 -0.6822652816772461 -0.717876136302948 -0.13844867050647736 -0.6822654008865356 -0.7178760170936584 -0.19384720921516418 -0.9048577547073364 -0.3790195882320404 -0.20649829506874084 -0.9048576951026917 -0.372278094291687 -0.5186630487442017 -0.6822648048400879 -0.5152702927589417 -0.5186596512794495 -0.6822662949562073 -0.5152716040611267 -0.38646548986434937 -0.5697851777076721 -0.7252512574195862 -0.8137940764427185 0.4372217655181885 -0.38285303115844727 -0.7634474635124207 0.4297304153442383 -0.48216164112091064 -0.5757670402526855 0.7097412943840027 0.40590599179267883 -0.5757673382759094 0.709741473197937 0.405905157327652 0.19760005176067352 0.42972561717033386 0.8810732960700989 0.08714917302131653 0.437217116355896 0.8951236009597778 0.11665528267621994 0.7983444333076477 0.5907942652702332 0.1188586950302124 0.7987244129180908 0.5898406505584717 -0.16215188801288605 0.98667311668396 0.013523241505026817 -0.06722227483987808 0.9866731762886047 0.1481795608997345 -0.5183416604995728 0.7962307929992676 -0.31199124455451965 -0.5143501162528992 0.8013013601303101 -0.3055490255355835 -0.3009357452392578 0.9297466278076172 0.21215300261974335 0.7954267859458923 0.39825066924095154 0.45682889223098755 0.7284491658210754 0.4182307720184326 0.5426278114318848 0.7278538942337036 0.5968854427337646 -0.3375745415687561 0.7278517484664917 0.5968823432922363 -0.33758461475372314 0.05630174279212952 0.4182312786579132 -0.9065940380096436 0.16505876183509827 0.3982526957988739 -0.9023028016090393 0.06084458902478218 0.7922002077102661 -0.6072205901145935 0.05187024176120758 0.794967770576477 -0.6044301986694336 0.19635792076587677 0.9805317521095276 0.001059172092936933 0.12602750957012177 0.9805317521095276 -0.15058058500289917 0.503166139125824 0.7868112921714783 0.3574239909648895 0.49483010172843933 0.8014427423477173 0.33590590953826904 0.4171944856643677 0.8879793286323547 -0.1934984177350998 -0.6816808581352234 0.3361612856388092 -0.6498514413833618 -0.6851795315742493 0.34788990020751953 -0.6399231553077698 -0.5186619758605957 0.682263970375061 -0.5152723789215088 -0.5186611413955688 0.682267427444458 -0.5152686238288879 -0.20649830996990204 0.9048576951026917 -0.3722780644893646 -0.1938471794128418 0.9048576951026917 -0.37901952862739563 -0.13844867050647736 0.6822653412818909 -0.7178760766983032 -0.13844871520996094 0.6822653412818909 -0.7178760766983032 -0.14905092120170593 0.3478917181491852 -0.9256107211112976 -0.15924499928951263 0.336160808801651 -0.9282439947128296 -0.44779911637306213 0.30543655157089233 -0.8403478860855103 -0.4477972388267517 0.30543845891952515 -0.8403481245040894 -0.38646548986434937 0.5697851777076721 -0.7252512574195862 -0.7328746318817139 -0.34517702460289 -0.5862998962402344 -0.7446590662002563 -0.2719855308532715 -0.6095135807991028 -0.5496920347213745 -0.7053526639938354 -0.44756704568862915 -0.554770827293396 -0.6971144676208496 -0.45415952801704407 -0.22264645993709564 -0.9586411118507385 -0.17730122804641724 -0.224717915058136 -0.957696795463562 -0.1797744780778885 -0.0236692912876606 -0.9585227370262146 -0.2840316891670227 -0.02354113571345806 -0.9577153921127319 -0.2867526412010193 -0.06312984228134155 -0.7058685421943665 -0.7055241465568542 -0.06294654309749603 -0.7036718726158142 -0.707731306552887 -0.08446507155895233 -0.3445414900779724 -0.934963583946228 -0.07952482998371124 -0.2880820333957672 -0.9542980194091797 0.19629690051078796 -0.9805445075035095 0.0 0.2030579149723053 -0.9642996191978455 0.1699814796447754 0.5020481944084167 -0.7288268208503723 0.46557387709617615 0.5097547769546509 -0.7056189179420471 0.49219098687171936 0.6826274991035461 -0.2998802959918976 0.6664019227027893 0.6830123066902161 -0.25882187485694885 0.683012068271637 0.08437296003103256 -0.9659255743026733 0.2446816861629486 0.09034840017557144 -0.9587578773498535 0.2694821059703827 0.22805848717689514 -0.706792950630188 0.6696515083312988 0.2273595929145813 -0.709968626499176 0.6665224432945251 0.31292209029197693 -0.25870075821876526 0.9138674139976501 0.3122003972530365 -0.2877776026725769 0.9053811430931091 -0.22255976498126984 0.9585228562355042 -0.17804795503616333 -0.22441016137599945 0.9579576253890991 -0.17876626551151276 -0.548957884311676 0.7048283219337463 -0.44929084181785583 -0.5541744828224182 0.6994605660438538 -0.4512711763381958 -0.7267351746559143 0.3441757559776306 -0.5944737792015076 -0.7478350400924683 0.28778138756752014 -0.5982680916786194 0.3148825764656067 0.2588214874267578 0.9131595492362976 0.30989131331443787 0.2908746004104614 0.905184805393219 0.22838443517684937 0.7068349719047546 0.6694960594177246 0.22687487304210663 0.7104067206382751 0.6662207841873169 0.082268126308918 0.9657840132713318 0.2459539920091629 0.09381306171417236 0.9576970934867859 0.2720579504966736 0.6771297454833984 0.28808125853538513 0.6771295666694641 0.691047191619873 0.25815659761428833 0.6751363277435303 0.5010871291160583 0.7176982760429382 0.4835502505302429 0.5201228857040405 0.7038994431495667 0.4837331175804138 0.20305898785591125 0.9642994999885559 0.169981449842453 0.1022806316614151 0.9668938517570496 0.2337842881679535 -0.07794130593538284 0.3451771140098572 -0.9352956414222717 -0.0865064412355423 0.2810158431529999 -0.9557963609695435 -0.06273330003023148 0.7059805393218994 -0.7054474353790283 -0.06337079405784607 0.7033255696296692 -0.7080376148223877 -0.02326708659529686 0.9585939645767212 -0.28382429480552673 -0.02392391301691532 0.9576057195663452 -0.2870870530605316 0.09690169245004654 -8.724209266119942e-08 0.9952939748764038 0.09690133482217789 -1.7448418532239884e-07 0.9952939748764038 -0.8173140287399292 -1.0101186376232363e-07 0.5761925578117371 -0.8173143863677979 -1.51517667745793e-07 0.5761921405792236 -0.9048653841018677 1.1194313032092396e-07 -0.425697922706604 -0.9048654437065125 1.4925745972504956e-07 -0.42569777369499207 0.17994433641433716 0.0 -0.9836768507957458 0.17994266748428345 4.2481252648940426e-07 -0.983677089214325 0.9071791768074036 1.3460554555422277e-06 -0.42074453830718994 0.9071832299232483 0.0 -0.4207358956336975 0.867161214351654 0.0 0.498027503490448 0.867161214351654 0.0 0.498027503490448 -0.7308306097984314 -5.982942496984833e-08 -0.6825589537620544 -0.730830729007721 0.0 -0.6825587749481201 -0.4702723026275635 0.0 -0.882521390914917 -0.4702723026275635 0.0 -0.882521390914917 -0.15898175537586212 0.0 -0.9872815608978271 -0.15898175537586212 0.0 -0.9872815608978271 -0.7808687090873718 2.1902960156694462e-07 -0.6246951818466187 -0.7808687686920166 0.0 -0.6246951818466187 0.0 -1.0 0.0 0.0 -1.0 0.0 0.3259906470775604 0.0 0.9453729391098022 0.3259906470775604 0.0 0.9453729391098022 0.70710688829422 0.0 0.7071067094802856 0.70710688829422 0.0 0.7071067094802856 -0.08304548263549805 0.0 -0.9965457916259766 -0.08304547518491745 0.0 -0.9965457916259766 0.0 1.0 0.0 0.0 1.0 0.0</float_array><technique_common><accessor source="#mesh1-normals-array" count="156" stride="3"><param name="X" type="float" /><param name="Y" type="float" /><param name="Z" type="float" /></accessor></technique_common></source><vertices id="mesh1-vertices"><input semantic="POSITION" source="#mesh1-positions" /></vertices><triangles count="156" material="graphite"><input semantic="VERTEX" source="#mesh1-vertices" offset="0" /><input semantic="NORMAL" source="#mesh1-normals" offset="1" /><p>0 0 3 0 5 0 0 1 5 1 4 1 3 2 7 2 8 2 3 3 8 3 5 3 1 4 6 4 8 4 1 5 8 5 7 5 6 6 10 6 11 6 6 7 11 7 8 7 2 8 9 8 11 8 2 9 11 9 10 9 9 10 4 10 5 10 9 11 5 11 11 11 5 12 8 12 11 12 16 13 19 13 21 13 16 14 21 14 20 14 19 15 23 15 24 15 19 16 24 16 21 16 17 17 22 17 24 17 17 18 24 18 23 18 22 19 26 19 27 19 22 20 27 20 24 20 18 21 25 21 27 21 18 22 27 22 26 22 25 23 20 23 21 23 25 24 21 24 27 24 21 25 24 25 27 25 28 26 31 26 33 26 28 27 33 27 32 27 31 28 35 28 36 28 31 29 36 29 33 29 29 30 34 30 36 30 29 31 36 31 35 31 34 32 38 32 39 32 34 33 39 33 36 33 30 34 37 34 39 34 30 35 39 35 38 35 37 36 32 36 33 36 37 37 33 37 39 37 33 38 36 38 39 38 40 39 43 39 45 39 40 40 45 40 44 40 43 41 47 41 48 41 43 42 48 42 45 42 41 43 46 43 48 43 41 44 48 44 47 44 46 45 50 45 51 45 46 46 51 46 48 46 42 47 49 47 51 47 42 48 51 48 50 48 49 49 44 49 45 49 49 50 45 50 51 50 45 51 48 51 51 51 56 52 59 52 61 52 56 53 61 53 60 53 59 54 63 54 64 54 59 55 64 55 61 55 57 56 62 56 64 56 57 57 64 57 63 57 62 58 66 58 67 58 62 59 67 59 64 59 58 60 65 60 67 60 58 61 67 61 66 61 65 62 60 62 61 62 65 63 61 63 67 63 61 64 64 64 67 64 68 65 71 65 73 65 68 66 73 66 72 66 71 67 75 67 76 67 71 68 76 68 73 68 69 69 74 69 76 69 69 70 76 70 75 70 74 71 78 71 79 71 74 72 79 72 76 72 70 73 77 73 79 73 70 74 79 74 78 74 77 75 72 75 73 75 77 76 73 76 79 76 73 77 76 77 79 77 0 78 28 78 32 78 0 79 32 79 3 79 3 80 32 80 37 80 3 81 37 81 7 81 7 82 37 82 30 82 7 83 30 83 1 83 18 84 30 84 38 84 18 85 38 85 25 85 25 86 38 86 34 86 25 87 34 87 20 87 20 88 34 88 29 88 20 89 29 89 16 89 13 90 18 90 26 90 13 91 26 91 15 91 15 92 26 92 22 92 15 93 22 93 14 93 14 94 22 94 17 94 14 95 17 95 12 95 1 96 13 96 15 96 1 97 15 97 6 97 6 98 15 98 14 98 6 99 14 99 10 99 10 100 14 100 12 100 10 101 12 101 2 101 42 102 69 102 75 102 42 103 75 103 49 103 49 104 75 104 71 104 49 105 71 105 44 105 44 106 71 106 68 106 44 107 68 107 40 107 41 108 52 108 54 108 41 109 54 109 46 109 46 110 54 110 55 110 46 111 55 111 50 111 50 112 55 112 53 112 50 113 53 113 42 113 52 114 56 114 60 114 52 115 60 115 54 115 54 116 60 116 65 116 54 117 65 117 55 117 55 118 65 118 58 118 55 119 58 119 53 119 57 120 70 120 78 120 57 121 78 121 62 121 62 122 78 122 74 122 62 123 74 123 66 123 66 124 74 124 69 124 66 125 69 125 58 125 2 126 41 126 47 126 2 127 47 127 9 127 9 128 47 128 43 128 9 129 43 129 4 129 4 130 43 130 40 130 4 131 40 131 0 131 16 132 57 132 63 132 16 133 63 133 19 133 19 134 63 134 59 134 19 135 59 135 23 135 23 136 59 136 56 136 23 137 56 137 17 137 28 138 68 138 72 138 28 139 72 139 31 139 31 140 72 140 77 140 31 141 77 141 35 141 35 142 77 142 70 142 35 143 70 143 29 143 28 144 0 144 40 144 28 145 40 145 68 145 30 146 18 146 13 146 30 147 13 147 1 147 2 148 12 148 52 148 2 149 52 149 41 149 12 150 17 150 56 150 12 151 56 151 52 151 16 152 29 152 70 152 16 153 70 153 57 153 42 154 53 154 58 154 42 155 58 155 69 155</p></triangles></mesh></geometry></library_geometries><library_visual_scenes><visual_scene id="Scene"><node id="mesh0-node"><instance_geometry url="#mesh0"><bind_material><technique_common><instance_material symbol="graphite" target="#graphite" /></technique_common></bind_material></instance_geometry></node><node id="mesh1-node"><instance_geometry url="#mesh1"><bind_material><technique_common><instance_material symbol="graphite" target="#graphite" /></technique_common></bind_material></instance_geometry></node></visual_scene></library_visual_scenes><scene><instance_visual_scene url="#Scene" /></scene></COLLADA>