<?xml version='1.0' encoding='utf-8'?>
<COLLADA xmlns="http://www.collada.org/2005/11/COLLADASchema" version="1.4.1"><asset><unit name="meter" meter="1" /><up_axis>Z_UP</up_axis></asset><library_effects><effect id="graphite-fx"><profile_COMMON><technique sid="common"><phong><emission><color>0 0 0 1</color></emission><ambient><color>0.065 0.075 0.085 1</color></ambient><diffuse><color>0.065 0.075 0.085 1</color></diffuse><specular><color>0.12 0.12 0.12 1</color></specular><shininess><float>25</float></shininess></phong></technique></profile_COMMON></effect><effect id="titanium-fx"><profile_COMMON><technique sid="common"><phong><emission><color>0 0 0 1</color></emission><ambient><color>0.36 0.4 0.43 1</color></ambient><diffuse><color>0.36 0.4 0.43 1</color></diffuse><specular><color>0.12 0.12 0.12 1</color></specular><shininess><float>25</float></shininess></phong></technique></profile_COMMON></effect><effect id="ivory-fx"><profile_COMMON><technique sid="common"><phong><emission><color>0 0 0 1</color></emission><ambient><color>0.72 0.72 0.65 1</color></ambient><diffuse><color>0.72 0.72 0.65 1</color></diffuse><specular><color>0.12 0.12 0.12 1</color></specular><shininess><float>25</float></shininess></phong></technique></profile_COMMON></effect><effect id="copper-fx"><profile_COMMON><technique sid="common"><phong><emission><color>0 0 0 1</color></emission><ambient><color>0.66 0.29 0.08 1</color></ambient><diffuse><color>0.66 0.29 0.08 1</color></diffuse><specular><color>0.12 0.12 0.12 1</color></specular><shininess><float>25</float></shininess></phong></technique></profile_COMMON></effect><effect id="rubber-fx"><profile_COMMON><technique sid="common"><phong><emission><color>0 0 0 1</color></emission><ambient><color>0.025 0.028 0.032 1</color></ambient><diffuse><color>0.025 0.028 0.032 1</color></diffuse><specular><color>0.12 0.12 0.12 1</color></specular><shininess><float>25</float></shininess></phong></technique></profile_COMMON></effect><effect id="lens-fx"><profile_COMMON><technique sid="common"><phong><emission><color>0 0 0 1</color></emission><ambient><color>0.05 0.26 0.33 1</color></ambient><diffuse><color>0.05 0.26 0.33 1</color></diffuse><specular><color>0.12 0.12 0.12 1</color></specular><shininess><float>25</float></shininess></phong></technique></profile_COMMON></effect></library_effects><library_materials><material id="graphite"><instance_effect url="#graphite-fx" /></material><material id="titanium"><instance_effect url="#titanium-fx" /></material><material id="ivory"><instance_effect url="#ivory-fx" /></material><material id="copper"><instance_effect url="#copper-fx" /></material><material id="rubber"><instance_effect url="#rubber-fx" /></material><material id="lens"><instance_effect url="#lens-fx" /></material></library_materials><library_geometries><geometry id="mesh0"><mesh><source id="mesh0-positions"><float_array id="mesh0-array" count="360">0.007349157240241766 -0.007000000216066837 -0.0031536524184048176 0.013542305678129196 -0.013000000268220901 -0.0029999995604157448 0.012000000104308128 -0.007000000216066837 -0.008999999612569809 0.008211860433220863 -0.009996063075959682 -0.0031050262041389942 0.0074417185969650745 -0.006999999284744263 -0.006101090461015701 0.008309613913297653 -0.009869268164038658 -0.005929210223257542 0.012807486578822136 -0.012198422104120255 -0.005967964418232441 0.010485116392374039 -0.012198422104120255 -0.0030486262403428555 0.00991005264222622 -0.011419794522225857 -0.005889502353966236 0.0091488566249609 -0.006999999284744263 -0.008247049525380135 0.012241367250680923 -0.009996063075959682 -0.008170323446393013 0.009511489421129227 -0.009869269095361233 -0.0074400282464921474 0.06854597479104996 -0.007000000216066837 -0.003202590625733137 0.061000000685453415 -0.007000000681728125 -0.008999999612569809 0.06239033490419388 -0.013000000268220901 -0.0029999995604157448 0.06700088828802109 -0.007000000216066837 -0.0061345407739281654 0.06769514083862305 -0.009996064007282257 -0.003138476749882102 0.06620597094297409 -0.009869270026683807 -0.00594830047339201 0.061157286167144775 -0.009996064007282257 -0.008161374367773533 0.06423106789588928 -0.007000000216066837 -0.008262536488473415 0.06425593793392181 -0.009869270026683807 -0.0074464729987084866 0.06543565541505814 -0.012198423035442829 -0.003064113901928067 0.06166761741042137 -0.012198423035442829 -0.005959015339612961 0.06461522728204727 -0.011419795453548431 -0.0058959475718438625 0.06628209352493286 -0.007000000216066837 0.009706927463412285 0.06945402920246124 -0.007000000216066837 0.00020259013399481773 0.06418371200561523 -0.013000000268220901 0.0037251587491482496 0.06853244453668594 -0.007000000216066837 0.0071150981821119785 0.06590074300765991 -0.009996064007282257 0.008874071761965752 0.06805835664272308 -0.009869270026683807 0.006383106112480164 0.06864891946315765 -0.009996064007282257 0.0006394779775291681 0.06969673186540604 -0.007000000216066837 0.0036264380905777216 0.06887804716825485 -0.009869270026683807 0.003926985897123814 0.06513050943613052 -0.012198423035442829 0.006678405217826366 0.06671439856290817 -0.012198423035442829 0.0019324712920933962 0.06751608848571777 -0.011419795453548431 0.004837291315197945 0.050999999046325684 -0.007000000216066837 0.017000000923871994 0.06171790882945061 -0.007000000216066837 0.013293071649968624 0.054924823343753815 -0.013000000268220901 0.01100000087171793 0.05461934953927994 -0.007000000681728125 0.016456913203001022 0.05225243419408798 -0.009941387921571732 0.016112107783555984 0.055171892046928406 -0.009850842878222466 0.015803584828972816 0.0601845346391201 -0.009941387921571732 0.01336868666112423 0.058536428958177567 -0.007000000216066837 0.015102138742804527 0.05769830569624901 -0.009850841946899891 0.014929787255823612 0.05367238447070122 -0.012112107127904892 0.013941388577222824 0.05772688612341881 -0.012112107127904892 0.012539085932075977 0.05615449696779251 -0.011445818468928337 0.01455537136644125 0.010650843381881714 -0.007000000216066837 0.011153653264045715 0.017999999225139618 -0.007000000681728125 0.017000000923871994 0.016773076727986336 -0.013000000268220901 0.01100000087171793 0.012103758752346039 -0.007000000216066837 0.014101090840995312 0.011491102166473866 -0.009996064007282257 0.011105027049779892 0.012892324477434158 -0.009869270026683807 0.013929210603237152 0.017858438193798065 -0.009996064007282257 0.01617032289505005 0.01480133831501007 -0.007000000216066837 0.01624704897403717 0.014791500754654408 -0.009869270026683807 0.015440029092133045 0.013738327659666538 -0.012198423035442829 0.011048626154661179 0.017408084124326706 -0.012198423035442829 0.013967964798212051 0.01447443850338459 -0.011419795453548431 0.013889503665268421 0.007349156774580479 0.007000000216066837 -0.003153652884066105 0.012000000104308128 0.007000000681728125 -0.008999999612569809 0.013542305678129196 0.013000000268220901 -0.0029999995604157448 0.007441719062626362 0.007000000216066837 -0.006101090461015701 0.008211860433220863 0.009996064007282257 -0.0031050262041389942 0.008309613913297653 0.009869270026683807 -0.005929209291934967 0.012241368182003498 0.009996064007282257 -0.008170323446393013 0.0091488566249609 0.007000000216066837 -0.008247049525380135 0.009511489421129227 0.009869270026683807 -0.0074400282464921474 0.010485116392374039 0.012198423035442829 -0.0030486262403428555 0.012807486578822136 0.012198423035442829 -0.005967964418232441 0.009910053573548794 0.011419795453548431 -0.005889502819627523 0.061000000685453415 0.007000000216066837 -0.008999999612569809 0.06854597479104996 0.007000000216066837 -0.0032025896944105625 0.06239033117890358 0.013000000268220901 -0.0029999995604157448 0.06423106044530869 0.007000000216066837 -0.00826253555715084 0.06115727871656418 0.009996064007282257 -0.008161373436450958 0.06425593048334122 0.009869270026683807 -0.007446472067385912 0.06769514083862305 0.009996064007282257 -0.0031384758185595274 0.06700088083744049 0.007000000216066837 -0.006134539842605591 0.06620597094297409 0.009869270026683807 -0.005948300007730722 0.061667609959840775 0.012198423035442829 -0.005959014408290386 0.06543564796447754 0.012198423035442829 -0.0030641129706054926 0.06461521983146667 0.011419795453548431 -0.005895946640521288 0.06945402920246124 0.007000000216066837 0.00020259106531739235 0.06628209352493286 0.007000000216066837 0.009706929326057434 0.06418371200561523 0.013000000268220901 0.0037251587491482496 0.06969673186540604 0.007000000216066837 0.003626438556239009 0.06864891946315765 0.009996064007282257 0.0006394772790372372 0.06887804716825485 0.009869270026683807 0.003926985897123814 0.06590074300765991 0.009996064007282257 0.008874071761965752 0.06853244453668594 0.007000000216066837 0.007115099113434553 0.06805835664272308 0.009869270026683807 0.006383106112480164 0.06671439856290817 0.012198423035442829 0.0019324703607708216 0.06513050943613052 0.012198423035442829 0.006678405217826366 0.06751608848571777 0.011419795453548431 0.004837291315197945 0.06171790882945061 0.007000000216066837 0.013293072581291199 0.050999999046325684 0.007000000681728125 0.017000000923871994 0.054924823343753815 0.013000000268220901 0.01100000087171793 0.05853642523288727 0.007000000216066837 0.015102138742804527 0.0601845346391201 0.009941387921571732 0.013368688523769379 0.05769830942153931 0.009850842878222466 0.014929788187146187 0.05225243419408798 0.00994138978421688 0.016112107783555984 0.05461934208869934 0.007000000681728125 0.016456913203001022 0.05517188459634781 0.009850842878222466 0.015803582966327667 0.05772688612341881 0.012112107127904892 0.012539085000753403 0.053672388195991516 0.012112108990550041 0.013941388577222824 0.056154489517211914 0.011445819400250912 0.014555370435118675 0.010650843381881714 0.007000000216066837 0.011153653264045715 0.016773076727986336 0.013000000268220901 0.01100000087171793 0.017999999225139618 0.007000000216066837 0.017000000923871994 0.011491102166473866 0.009996063075959682 0.011105027049779892 0.012103758752346039 0.006999999284744263 0.014101090840995312 0.012892324477434158 0.009869268164038658 0.013929210603237152 0.017408084124326706 0.012198422104120255 0.013967964798212051 0.013738327659666538 0.012198422104120255 0.011048626154661179 0.01447443850338459 0.011419794522225857 0.013889502733945847 0.01480133831501007 0.006999999284744263 0.01624704897403717 0.017858438193798065 0.009996063075959682 0.01617032289505005 0.014791500754654408 0.009869269095361233 0.015440029092133045</float_array><technique_common><accessor source="#mesh0-array" count="120" stride="3"><param name="X" type="float" /><param name="Y" type="float" /><param name="Z" type="float" /></accessor></technique_common></source><source id="mesh0-normals"><float_array id="mesh0-normals-array" count="708">0.9597560167312622 0.2770986258983612 0.04566068574786186 0.9562390446662903 0.29104170203208923 0.03002983331680298 0.6939966678619385 0.7177777886390686 0.05624646693468094 0.6939969062805176 0.7177776098251343 0.05624672397971153 0.2595555782318115 0.9465740919113159 0.1913859248161316 0.24484828114509583 0.9465740323066711 0.2098737508058548 0.2108580321073532 0.7177779078483582 0.6635765433311462 0.21085801720619202 0.7177778482437134 0.6635765433311462 0.24428017437458038 0.291041761636734 0.92499840259552 0.260301798582077 0.27709847688674927 0.9249105453491211 0.7547580599784851 0.26426634192466736 0.6004196405410767 0.7547580003738403 0.26426634192466736 0.6004196405410767 0.6040416955947876 0.6357920169830322 0.4805227220058441 -0.8529307842254639 0.26547542214393616 0.4494796395301819 -0.8504589796066284 0.25140485167503357 0.46207693219184875 -0.594975471496582 0.21510131657123566 0.7744259834289551 -0.5949759483337402 0.21510206162929535 0.7744253277778625 -0.22734344005584717 0.25140443444252014 0.9408032894134521 -0.21453452110290527 0.26547515392303467 0.939945638179779 -0.1926146298646927 0.6711905002593994 0.715823233127594 -0.19261471927165985 0.6711904406547546 0.7158232927322388 -0.23481638729572296 0.9177296161651611 0.32036468386650085 -0.24904412031173706 0.9177296161651611 0.3094339072704315 -0.642024576663971 0.6711896061897278 0.3705522418022156 -0.64202481508255 0.6711894273757935 0.37055206298828125 -0.5103874206542969 0.5460568070411682 0.6643242835998535 -0.724824845790863 0.28031301498413086 -0.6293278932571411 -0.7351516485214233 0.2668091654777527 -0.623189389705658 -0.9228987097740173 0.23106691241264343 -0.3080034554004669 -0.9228991866111755 0.23106606304645538 -0.3080027103424072 -0.9620764255523682 0.26680877804756165 0.0567629411816597 -0.9575059413909912 0.2803134024143219 0.06787370145320892 -0.7434304356575012 0.6683062314987183 0.02603914961218834 -0.7434306740760803 0.6683059930801392 0.026038991287350655 -0.3917543292045593 0.9119548797607422 -0.121930330991745 -0.38646185398101807 0.9119548201560974 -0.13778842985630035 -0.5787818431854248 0.6683068871498108 -0.4673088490962982 -0.5787820219993591 0.6683070659637451 -0.46730831265449524 -0.7962837219238281 0.5434252619743347 -0.2657468318939209 -0.14556752145290375 0.19410905241966248 -0.9701194763183594 -0.10939852148294449 0.24426758289337158 -0.9635171294212341 -0.32309433817863464 0.1514633595943451 -0.9341675043106079 -0.3230956494808197 0.1514618992805481 -0.9341673254966736 -0.509259045124054 0.2442675679922104 -0.8252203464508057 -0.4848984479904175 0.19411060214042664 -0.8527570962905884 -0.4293748736381531 0.7028675079345703 -0.5671107172966003 -0.4209127128124237 0.5725683569908142 -0.7035608887672424 -0.161895290017128 0.9235191345214844 -0.34771013259887695 -0.08752148598432541 0.9235191345214844 -0.37343332171440125 -0.09849057346582413 0.6707178950309753 -0.735144317150116 0.024948880076408386 0.6255947351455688 -0.7797491550445557 -0.28782421350479126 0.47394391894340515 -0.8321865797042847 0.8652814626693726 0.26335757970809937 -0.42653346061706543 0.8630462884902954 0.2491762787103653 -0.4393885135650635 0.6082684993743896 0.21297526359558105 -0.7646247148513794 0.6082684993743896 0.21297527849674225 -0.7646247148513794 0.2340720295906067 0.24917715787887573 -0.9397452473640442 0.22104451060295105 0.26335737109184265 -0.9390326142311096 0.1976054310798645 0.6726652979850769 -0.7130733132362366 0.1976051926612854 0.6726654767990112 -0.7130731344223022 0.2377943992614746 0.9193052053451538 -0.3135789632797241 0.2520783841609955 0.9193052649497986 -0.3022158443927765 0.6503787636756897 0.6726654767990112 -0.3528861403465271 0.6503786444664001 0.6726655960083008 -0.35288628935813904 0.5207154750823975 0.5480864644050598 -0.6545659899711609 0.9562390446662903 -0.2910414934158325 0.030030041933059692 0.9597559571266174 -0.277098685503006 0.04566061496734619 0.7547580599784851 -0.26426634192466736 0.6004195809364319 0.7547581195831299 -0.26426637172698975 0.6004195809364319 0.2603016793727875 -0.27709850668907166 0.9249104857444763 0.2442801147699356 -0.291041761636734 0.92499840259552 0.21085798740386963 -0.7177777886390686 0.663576602935791 0.21085797250270844 -0.7177778482437134 0.6635766625404358 0.24484801292419434 -0.9465740323066711 0.20987381041049957 0.2595556378364563 -0.9465740323066711 0.19138561189174652 0.6939966678619385 -0.7177777886390686 0.05624653026461601 0.6939964890480042 -0.7177779674530029 0.05624675378203392 0.6040416359901428 -0.6357921957969666 0.4805227220058441 -0.2145351767539978 -0.2654750943183899 0.9399455189704895 -0.22734341025352478 -0.25140517950057983 0.940803050994873 -0.5949756503105164 -0.21510037779808044 0.7744262218475342 -0.5949745178222656 -0.21510154008865356 0.7744266390800476 -0.8504590392112732 -0.25140488147735596 0.4620768427848816 -0.85293048620224 -0.2654731571674347 0.4494815468788147 -0.6420235633850098 -0.6711907386779785 0.37055206298828125 -0.6420233845710754 -0.6711911559104919 0.37055158615112305 -0.24904409050941467 -0.9177295565605164 0.30943426489830017 -0.234816774725914 -0.9177296161651611 0.3203648328781128 -0.19261473417282104 -0.6711905002593994 0.715823233127594 -0.1926146149635315 -0.6711905002593994 0.7158232927322388 -0.5103857517242432 -0.5460577011108398 0.6643248200416565 -0.9575058817863464 -0.2803133726119995 0.06787370890378952 -0.9620764255523682 -0.26680877804756165 0.0567629337310791 -0.9228988885879517 -0.2310662716627121 -0.3080034554004669 -0.9228989481925964 -0.23106710612773895 -0.30800265073776245 -0.7351515293121338 -0.26680952310562134 -0.6231892704963684 -0.7248249650001526 -0.2803131639957428 -0.629327654838562 -0.5787821412086487 -0.6683067679405212 -0.4673086702823639 -0.5787815451622009 -0.6683072447776794 -0.4673086106777191 -0.38646188378334045 -0.9119548797607422 -0.13778838515281677 -0.39175426959991455 -0.9119548201560974 -0.1219303086400032 -0.743430495262146 -0.6683061122894287 0.026038967072963715 -0.7434306144714355 -0.6683059334754944 0.026039239019155502 -0.7962837219238281 -0.5434252619743347 -0.2657468318939209 -0.48489800095558167 -0.19410891830921173 -0.8527576923370361 -0.5092594623565674 -0.2442675530910492 -0.8252201080322266 -0.3230941593647003 -0.1514628827571869 -0.9341676831245422 -0.32309338450431824 -0.1514618992805481 -0.9341680407524109 -0.10939954221248627 -0.2442670464515686 -0.9635171294212341 -0.14556781947612762 -0.19410958886146545 -0.970119297504425 -0.012749242596328259 -0.7028671503067017 -0.7112069129943848 -0.10370396822690964 -0.5725694894790649 -0.8132709860801697 -0.08752159029245377 -0.9235191345214844 -0.37343329191207886 -0.16189654171466827 -0.9235190153121948 -0.3477098345756531 -0.37674272060394287 -0.6707181334495544 -0.6389070153236389 -0.5013629794120789 -0.6255954504013062 -0.5977169871330261 -0.2878219485282898 -0.473944753408432 -0.8321868181228638 0.8630462288856506 -0.24917633831501007 -0.43938857316970825 0.8652814030647278 -0.26335766911506653 -0.42653346061706543 0.6503786444664001 -0.6726654171943665 -0.3528863787651062 0.6503786444664001 -0.6726655960083008 -0.35288628935813904 0.25207841396331787 -0.919305145740509 -0.302216112613678 0.2377946376800537 -0.919305145740509 -0.31357911229133606 0.1976052224636078 -0.6726652979850769 -0.7130733132362366 0.19760571420192719 -0.6726655960083008 -0.7130729556083679 0.22104457020759583 -0.26335740089416504 -0.9390325546264648 0.2340720295906067 -0.24917717278003693 -0.9397451877593994 0.6082684993743896 -0.21297535300254822 -0.7646247148513794 0.6082686185836792 -0.21297521889209747 -0.7646247148513794 0.5207155346870422 -0.5480867028236389 -0.6545658111572266 0.9390503764152527 0.26687777042388916 -0.21670396625995636 0.9390503168106079 0.2668783366680145 -0.21670383214950562 0.6889986395835876 0.7071067690849304 -0.15899957716464996 0.6889986395835876 0.7071067690849304 -0.15899960696697235 0.254057377576828 0.9654106497764587 -0.058628544211387634 0.2540578246116638 0.9654104113578796 -0.05862875655293465 0.0 0.9654105305671692 -0.2607346773147583 -0.0024904224555939436 0.9570374488830566 -0.28995364904403687 -0.002201615134254098 0.707330048084259 -0.7068800926208496 -0.0023210030049085617 0.7063453793525696 -0.7078636288642883 -0.0020555586088448763 0.26696842908859253 -0.9637030959129333 -4.077822080006399e-09 0.2889828383922577 -0.9573343396186829 -0.1785399615764618 0.9573342800140381 -0.2272326499223709 -0.15635399520397186 0.9647412300109863 -0.21172600984573364 -0.4345930814743042 0.7058300971984863 -0.5594040155410767 -0.4323386251926422 0.7079617381095886 -0.5584563612937927 -0.5901583433151245 0.28827041387557983 -0.7540645003318787 -0.5922164916992188 0.28490400314331055 -0.753730297088623 -0.256832480430603 0.9640262126922607 0.0684887245297432 -0.2527391314506531 0.9653700590133667 0.06468186527490616 -0.6862218976020813 0.7058733105659485 0.17562024295330048 -0.6845704317092896 0.708162784576416 0.17282596230506897 -0.9296443462371826 0.28404000401496887 0.23469705879688263 -0.9304710626602173 0.26954859495162964 0.24812732636928558 0.0 0.9652117490768433 0.2614692747592926 -4.773904583998956e-05 0.9654074311256409 0.2607458531856537 -0.00012950085510965437 0.707091748714447 0.7071217894554138 -0.00012935347331222147 0.7070901393890381 0.7071233987808228 -0.0001761719904607162 0.2695401608943939 0.9629892110824585 2.536221455073928e-09 0.266878217458725 0.9637302160263062 0.2540576159954071 -0.9654105305671692 -0.05862870812416077 0.25405755639076233 -0.9654105305671692 -0.058628715574741364 0.6889986395835876 -0.7071067690849304 -0.15899969637393951 0.6889986395835876 -0.7071067690849304 -0.15899966657161713 0.9390503764152527 -0.2668778598308563 -0.2167038917541504 0.9390501976013184 -0.2668783366680145 -0.21670392155647278 -2.561602263639884e-09 -0.2695489823818207 0.9629867672920227 -0.00017633175593800843 -0.2668650448322296 0.9637339115142822 -0.00012938014697283506 -0.7070918083190918 0.7071217894554138 -0.000129528169054538 -0.7070901393890381 0.7071234583854675 -4.7896963224047795e-05 -0.965208888053894 0.26148030161857605 0.0 -0.9654105305671692 0.26073458790779114 -0.9261900782585144 -0.2849035859107971 0.24698571860790253 -0.9335282444953918 -0.270150363445282 0.23567771911621094 -0.6871838569641113 -0.7054651379585266 0.17348581552505493 -0.6842480301856995 -0.7079117298126221 0.1751161813735962 -0.2584173381328583 -0.9637669324874878 0.0661354586482048 -0.2526411712169647 -0.9652117490768433 0.0673711746931076 -0.5914615392684937 -0.2889828085899353 -0.7527695894241333 -0.5907784104347229 -0.28502246737480164 -0.7548132538795471 -0.4339081346988678 -0.7054442167282104 -0.5604215264320374 -0.43337756395339966 -0.7077674269676208 -0.5578970313072205 -0.17434445023536682 -0.9563961625099182 -0.234329953789711 -0.16422177851200104 -0.9640260934829712 -0.20900951325893402 3.7659133589329485e-09 -0.26687881350517273 -0.9637300968170166 -0.0020788712427020073 -0.2881707549095154 -0.9575768709182739 -0.0023208437487483025 -0.7073419690132141 -0.7068677544593811 -0.0022000037133693695 -0.7063851356506348 -0.7078242301940918 -0.0024888119660317898 -0.965541422367096 -0.26023784279823303 0.0 -0.9573343992233276 -0.2889822721481323 0.25533339381217957 0.0 0.9668530225753784 0.2553333640098572 0.0 0.9668530225753784 0.7825788855552673 0.0 0.622551441192627 0.7825788855552673 -2.6029765010093797e-08 0.6225515604019165 0.9995072484016418 -3.324513286884212e-08 0.03138885274529457 0.9995073080062866 3.4289161732203866e-08 0.0313885323703289 -0.8846741318702698 -3.101370893432431e-08 0.4662100374698639 -0.8846749663352966 -5.018237061449327e-07 0.46620824933052063 -0.6092367172241211 -3.7697824950555514e-07 0.7929885387420654 -0.6092367172241211 -3.7697824950555514e-07 0.7929885387420654 -0.22251972556114197 -1.8327668271922448e-07 0.9749282002449036 -0.22251896560192108 0.0 0.9749283790588379 -0.7550978660583496 8.722662414584192e-08 -0.6556121110916138 -0.7550977468490601 4.361331917834832e-08 -0.6556122303009033 -0.9485690593719482 2.1059230803643914e-08 -0.3165704607963562 -0.9485689997673035 1.0529615401821957e-08 -0.3165704607963562 -0.997497022151947 -2.3518726965932046e-09 0.07070852071046829 -0.997497022151947 -4.7037445050079896e-09 0.0707085058093071 -0.14839023351669312 0.0 -0.9889289736747742 -0.14838993549346924 -7.897078546648117e-08 -0.9889289736747742 -0.32686516642570496 -1.7395250040408428e-07 -0.9450709223747253 -0.32686546444892883 -8.697633546717043e-08 -0.9450708627700806 -0.49429959058761597 -1.3152924793757848e-07 -0.8692916035652161 -0.4943001866340637 5.782789358477203e-08 -0.8692912459373474 0.8969452381134033 0.0 -0.4421418607234955 0.8969452381134033 0.0 -0.4421418607234955 0.6225513219833374 0.0 -0.7825790047645569 0.6225513219833374 0.0 -0.7825790047645569 0.22913329303264618 0.0 -0.973395049571991 0.22913329303264618 0.0 -0.973395049571991 0.9743911623954773 2.493056250330028e-08 -0.22485952079296112 0.9743911623954773 0.0 -0.22485952079296112 0.0 1.0 0.0 0.0 1.0 0.0 0.0 1.0 0.0 0.0 0.0 1.0 0.0 0.0 1.0 -0.9662345051765442 -1.7140612484922713e-08 0.257664293050766 -0.9662345051765442 -1.843378427679454e-08 0.257664293050766 -0.617821455001831 5.2308291031977205e-08 -0.7863184213638306 -0.6178213357925415 1.1191991688974667e-07 -0.7863184213638306 0.0 0.0 -1.0 0.0 0.0 -1.0 0.0 -1.0 0.0 0.0 -1.0 0.0 0.0 -1.0 0.0</float_array><technique_common><accessor source="#mesh0-normals-array" count="236" stride="3"><param name="X" type="float" /><param name="Y" type="float" /><param name="Z" type="float" /></accessor></technique_common></source><vertices id="mesh0-vertices"><input semantic="POSITION" source="#mesh0-positions" /></vertices><triangles count="236" material="ivory"><input semantic="VERTEX" source="#mesh0-vertices" offset="0" /><input semantic="NORMAL" source="#mesh0-normals" offset="1" /><p>0 0 3 0 5 0 0 1 5 1 4 1 3 2 7 2 8 2 3 3 8 3 5 3 1 4 6 4 8 4 1 5 8 5 7 5 6 6 10 6 11 6 6 7 11 7 8 7 2 8 9 8 11 8 2 9 11 9 10 9 9 10 4 10 5 10 9 11 5 11 11 11 5 12 8 12 11 12 12 13 15 13 17 13 12 14 17 14 16 14 15 15 19 15 20 15 15 16 20 16 17 16 13 17 18 17 20 17 13 18 20 18 19 18 18 19 22 19 23 19 18 20 23 20 20 20 14 21 21 21 23 21 14 22 23 22 22 22 21 23 16 23 17 23 21 24 17 24 23 24 17 25 20 25 23 25 24 26 27 26 29 26 24 27 29 27 28 27 27 28 31 28 32 28 27 29 32 29 29 29 25 30 30 30 32 30 25 31 32 31 31 31 30 32 34 32 35 32 30 33 35 33 32 33 26 34 33 34 35 34 26 35 35 35 34 35 33 36 28 36 29 36 33 37 29 37 35 37 29 38 32 38 35 38 36 39 39 39 41 39 36 40 41 40 40 40 39 41 43 41 44 41 39 42 44 42 41 42 37 43 42 43 44 43 37 44 44 44 43 44 42 45 46 45 47 45 42 46 47 46 44 46 38 47 45 47 47 47 38 48 47 48 46 48 45 49 40 49 41 49 45 50 41 50 47 50 41 51 44 51 47 51 48 52 51 52 53 52 48 53 53 53 52 53 51 54 55 54 56 54 51 55 56 55 53 55 49 56 54 56 56 56 49 57 56 57 55 57 54 58 58 58 59 58 54 59 59 59 56 59 50 60 57 60 59 60 50 61 59 61 58 61 57 62 52 62 53 62 57 63 53 63 59 63 53 64 56 64 59 64 60 65 63 65 65 65 60 66 65 66 64 66 63 67 67 67 68 67 63 68 68 68 65 68 61 69 66 69 68 69 61 70 68 70 67 70 66 71 70 71 71 71 66 72 71 72 68 72 62 73 69 73 71 73 62 74 71 74 70 74 69 75 64 75 65 75 69 76 65 76 71 76 65 77 68 77 71 77 72 78 75 78 77 78 72 79 77 79 76 79 75 80 79 80 80 80 75 81 80 81 77 81 73 82 78 82 80 82 73 83 80 83 79 83 78 84 82 84 83 84 78 85 83 85 80 85 74 86 81 86 83 86 74 87 83 87 82 87 81 88 76 88 77 88 81 89 77 89 83 89 77 90 80 90 83 90 84 91 87 91 89 91 84 92 89 92 88 92 87 93 91 93 92 93 87 94 92 94 89 94 85 95 90 95 92 95 85 96 92 96 91 96 90 97 94 97 95 97 90 98 95 98 92 98 86 99 93 99 95 99 86 100 95 100 94 100 93 101 88 101 89 101 93 102 89 102 95 102 89 103 92 103 95 103 96 104 99 104 101 104 96 105 101 105 100 105 99 106 103 106 104 106 99 107 104 107 101 107 97 108 102 108 104 108 97 109 104 109 103 109 102 110 106 110 107 110 102 111 107 111 104 111 98 112 105 112 107 112 98 113 107 113 106 113 105 114 100 114 101 114 105 115 101 115 107 115 101 116 104 116 107 116 108 117 111 117 113 117 108 118 113 118 112 118 111 119 115 119 116 119 111 120 116 120 113 120 109 121 114 121 116 121 109 122 116 122 115 122 114 123 118 123 119 123 114 124 119 124 116 124 110 125 117 125 119 125 110 126 119 126 118 126 117 127 112 127 113 127 117 128 113 128 119 128 113 129 116 129 119 129 0 130 48 130 52 130 0 131 52 131 3 131 3 132 52 132 57 132 3 133 57 133 7 133 7 134 57 134 50 134 7 135 50 135 1 135 38 136 50 136 58 136 38 137 58 137 45 137 45 138 58 138 54 138 45 139 54 139 40 139 40 140 54 140 49 140 40 141 49 141 36 141 26 142 38 142 46 142 26 143 46 143 33 143 33 144 46 144 42 144 33 145 42 145 28 145 28 146 42 146 37 146 28 147 37 147 24 147 14 148 26 148 34 148 14 149 34 149 21 149 21 150 34 150 30 150 21 151 30 151 16 151 16 152 30 152 25 152 16 153 25 153 12 153 1 154 14 154 22 154 1 155 22 155 6 155 6 156 22 156 18 156 6 157 18 157 10 157 10 158 18 158 13 158 10 159 13 159 2 159 62 160 109 160 115 160 62 161 115 161 69 161 69 162 115 162 111 162 69 163 111 163 64 163 64 164 111 164 108 164 64 165 108 165 60 165 61 166 72 166 76 166 61 167 76 167 66 167 66 168 76 168 81 168 66 169 81 169 70 169 70 170 81 170 74 170 70 171 74 171 62 171 73 172 84 172 88 172 73 173 88 173 78 173 78 174 88 174 93 174 78 175 93 175 82 175 82 176 93 176 86 176 82 177 86 177 74 177 85 178 96 178 100 178 85 179 100 179 90 179 90 180 100 180 105 180 90 181 105 181 94 181 94 182 105 182 98 182 94 183 98 183 86 183 97 184 110 184 118 184 97 185 118 185 102 185 102 186 118 186 114 186 102 187 114 187 106 187 106 188 114 188 109 188 106 189 109 189 98 189 2 190 61 190 67 190 2 191 67 191 9 191 9 192 67 192 63 192 9 193 63 193 4 193 4 194 63 194 60 194 4 195 60 195 0 195 12 196 73 196 79 196 12 197 79 197 15 197 15 198 79 198 75 198 15 199 75 199 19 199 19 200 75 200 72 200 19 201 72 201 13 201 24 202 85 202 91 202 24 203 91 203 27 203 27 204 91 204 87 204 27 205 87 205 31 205 31 206 87 206 84 206 31 207 84 207 25 207 36 208 97 208 103 208 36 209 103 209 39 209 39 210 103 210 99 210 39 211 99 211 43 211 43 212 99 212 96 212 43 213 96 213 37 213 48 214 108 214 112 214 48 215 112 215 51 215 51 216 112 216 117 216 51 217 117 217 55 217 55 218 117 218 110 218 55 219 110 219 49 219 48 220 0 220 60 220 48 221 60 221 108 221 1 222 50 222 38 222 38 223 26 223 14 223 38 224 14 224 1 224 2 225 13 225 72 225 2 226 72 226 61 226 12 227 25 227 84 227 12 228 84 228 73 228 24 229 37 229 96 229 24 230 96 230 85 230 36 231 49 231 110 231 36 232 110 232 97 232 109 233 62 233 74 233 74 234 86 234 98 234 74 235 98 235 109 235</p></triangles></mesh></geometry></library_geometries><library_visual_scenes><visual_scene id="Scene"><node id="mesh0-node"><instance_geometry url="#mesh0"><bind_material><technique_common><instance_material symbol="ivory" target="#ivory" /></technique_common></bind_material></instance_geometry></node></visual_scene></library_visual_scenes><scene><instance_visual_scene url="#Scene" /></scene></COLLADA>