<?xml version='1.0' encoding='utf-8'?>
<COLLADA xmlns="http://www.collada.org/2005/11/COLLADASchema" version="1.4.1"><asset><unit name="meter" meter="1" /><up_axis>Z_UP</up_axis></asset><library_effects><effect id="graphite-fx"><profile_COMMON><technique sid="common"><phong><emission><color>0 0 0 1</color></emission><ambient><color>0.065 0.075 0.085 1</color></ambient><diffuse><color>0.065 0.075 0.085 1</color></diffuse><specular><color>0.12 0.12 0.12 1</color></specular><shininess><float>25</float></shininess></phong></technique></profile_COMMON></effect><effect id="titanium-fx"><profile_COMMON><technique sid="common"><phong><emission><color>0 0 0 1</color></emission><ambient><color>0.36 0.4 0.43 1</color></ambient><diffuse><color>0.36 0.4 0.43 1</color></diffuse><specular><color>0.12 0.12 0.12 1</color></specular><shininess><float>25</float></shininess></phong></technique></profile_COMMON></effect><effect id="ivory-fx"><profile_COMMON><technique sid="common"><phong><emission><color>0 0 0 1</color></emission><ambient><color>0.72 0.72 0.65 1</color></ambient><diffuse><color>0.72 0.72 0.65 1</color></diffuse><specular><color>0.12 0.12 0.12 1</color></specular><shininess><float>25</float></shininess></phong></technique></profile_COMMON></effect><effect id="copper-fx"><profile_COMMON><technique sid="common"><phong><emission><color>0 0 0 1</color></emission><ambient><color>0.66 0.29 0.08 1</color></ambient><diffuse><color>0.66 0.29 0.08 1</color></diffuse><specular><color>0.12 0.12 0.12 1</color></specular><shininess><float>25</float></shininess></phong></technique></profile_COMMON></effect><effect id="rubber-fx"><profile_COMMON><technique sid="common"><phong><emission><color>0 0 0 1</color></emission><ambient><color>0.025 0.028 0.032 1</color></ambient><diffuse><color>0.025 0.028 0.032 1</color></diffuse><specular><color>0.12 0.12 0.12 1</color></specular><shininess><float>25</float></shininess></phong></technique></profile_COMMON></effect><effect id="lens-fx"><profile_COMMON><technique sid="common"><phong><emission><color>0 0 0 1</color></emission><ambient><color>0.05 0.26 0.33 1</color></ambient><diffuse><color>0.05 0.26 0.33 1</color></diffuse><specular><color>0.12 0.12 0.12 1</color></specular><shininess><float>25</float></shininess></phong></technique></profile_COMMON></effect></library_effects><library_materials><material id="graphite"><instance_effect url="#graphite-fx" /></material><material id="titanium"><instance_effect url="#titanium-fx" /></material><material id="ivory"><instance_effect url="#ivory-fx" /></material><material id="copper"><instance_effect url="#copper-fx" /></material><material id="rubber"><instance_effect url="#rubber-fx" /></material><material id="lens"><instance_effect url="#lens-fx" /></material></library_materials><library_geometries><geometry id="mesh0"><mesh><source id="mesh0-positions"><float_array id="mesh0-array" count="360">0.007349157240241766 -0.007000000216066837 -0.0031536524184048176 0.013542305678129196 -0.013000000268220901 -0.0030000004917383194 0.012000000104308128 -0.007000000216066837 -0.008999999612569809 0.008211860433220863 -0.009996063075959682 -0.0031050259713083506 0.0074417185969650745 -0.006999999284744263 -0.006101089529693127 0.008309613913297653 -0.009869268164038658 -0.005929209757596254 0.012807486578822136 -0.012198422104120255 -0.0059679653495550156 0.010485116392374039 -0.012198422104120255 -0.003048626473173499 0.00991005264222622 -0.011419794522225857 -0.005889502353966236 0.0091488566249609 -0.006999999284744263 -0.008247049525380135 0.012241367250680923 -0.009996063075959682 -0.008170323446393013 0.009511489421129227 -0.009869269095361233 -0.0074400282464921474 0.06354597210884094 -0.007000000216066837 -0.003202590625733137 0.0559999980032444 -0.007000000216066837 -0.008999999612569809 0.05739033222198486 -0.013000000268220901 -0.0029999995604157448 0.062000881880521774 -0.007000000216066837 -0.0061345407739281654 0.06269513815641403 -0.009996064007282257 -0.003138476749882102 0.061205968260765076 -0.009869270026683807 -0.00594830047339201 0.056157276034355164 -0.009996064007282257 -0.008161374367773533 0.05923105776309967 -0.007000000216066837 -0.008262536488473415 0.0592559278011322 -0.009869270026683807 -0.0074464729987084866 0.06043564900755882 -0.012198423035442829 -0.003064113901928067 0.05666761100292206 -0.012198423035442829 -0.005959015339612961 0.05961522087454796 -0.011419795453548431 -0.0058959475718438625 0.061282090842723846 -0.007000000216066837 0.009706929326057434 0.06445402652025223 -0.007000000216066837 0.00020259013399481773 0.05918370559811592 -0.013000000268220901 0.0037251629400998354 0.06353243440389633 -0.007000000216066837 0.007115098647773266 0.06090072914958 -0.009996064007282257 0.008874073624610901 0.06305834650993347 -0.009869270026683807 0.006383107043802738 0.06364890933036804 -0.009996064007282257 0.0006394786760210991 0.06469672173261642 -0.007000000216066837 0.003626437857747078 0.06387803703546524 -0.009869270026683807 0.003926986828446388 0.06013049557805061 -0.012198423035442829 0.00667840801179409 0.06171438470482826 -0.012198423035442829 0.001932473503984511 0.06251607835292816 -0.011419795453548431 0.004837293177843094 0.04600000008940697 -0.007000000216066837 0.017000000923871994 0.05671790987253189 -0.007000000681728125 0.013293071649968624 0.0499248243868351 -0.013000000268220901 0.01100000087171793 0.049619339406490326 -0.007000000216066837 0.016456913203001022 0.047252435237169266 -0.009941387921571732 0.016112107783555984 0.05017188936471939 -0.009850842878222466 0.015803582966327667 0.05518454313278198 -0.00994138978421688 0.013368689455091953 0.05353642255067825 -0.007000000216066837 0.015102138742804527 0.05269830673933029 -0.00985084380954504 0.014929788187146187 0.0486723892390728 -0.012112107127904892 0.013941388577222824 0.05272689089179039 -0.012112109921872616 0.012539086863398552 0.051154494285583496 -0.011445819400250912 0.014555372297763824 0.010650843381881714 -0.007000000216066837 0.011153653264045715 0.017999999225139618 -0.007000000216066837 0.017000000923871994 0.016773076727986336 -0.013000000268220901 0.01100000087171793 0.012103758752346039 -0.007000000216066837 0.014101090840995312 0.011491102166473866 -0.009996064007282257 0.011105027049779892 0.012892324477434158 -0.009869270026683807 0.013929210603237152 0.017858438193798065 -0.009996064007282257 0.01617032289505005 0.01480133831501007 -0.007000000216066837 0.01624704897403717 0.014791500754654408 -0.009869270026683807 0.015440029092133045 0.013738327659666538 -0.012198423035442829 0.011048626154661179 0.017408084124326706 -0.012198423035442829 0.013967964798212051 0.01447443850338459 -0.011419795453548431 0.013889503665268421 0.007349156774580479 0.007000000216066837 -0.003153652884066105 0.012000000104308128 0.007000000216066837 -0.008999999612569809 0.013542305678129196 0.013000000268220901 -0.0029999995604157448 0.007441719062626362 0.007000000216066837 -0.006101090461015701 0.008211860433220863 0.009996064007282257 -0.0031050262041389942 0.008309613913297653 0.009869270026683807 -0.005929209291934967 0.012241368182003498 0.009996064007282257 -0.008170323446393013 0.0091488566249609 0.007000000216066837 -0.008247049525380135 0.009511489421129227 0.009869270026683807 -0.0074400282464921474 0.010485116392374039 0.012198423035442829 -0.0030486262403428555 0.012807486578822136 0.012198423035442829 -0.005967964418232441 0.009910053573548794 0.011419795453548431 -0.005889502819627523 0.0559999980032444 0.007000000216066837 -0.008999999612569809 0.06354597210884094 0.007000000216066837 -0.0032025896944105625 0.057390328496694565 0.013000000268220901 -0.0029999995604157448 0.05923106148838997 0.007000000216066837 -0.00826253555715084 0.056157276034355164 0.009996064007282257 -0.008161373436450958 0.0592559315264225 0.009869270026683807 -0.007446472067385912 0.06269513815641403 0.009996064007282257 -0.0031384758185595274 0.06200088560581207 0.007000000216066837 -0.006134539842605591 0.061205968260765076 0.009869270026683807 -0.005948300007730722 0.05666761100292206 0.012198423035442829 -0.005959014408290386 0.06043564900755882 0.012198423035442829 -0.0030641129706054926 0.05961522087454796 0.011419795453548431 -0.005895946640521288 0.06445402652025223 0.007000000216066837 0.00020259106531739235 0.061282090842723846 0.007000000681728125 0.009706929326057434 0.05918370932340622 0.013000000268220901 0.0037251629400998354 0.06469672918319702 0.007000000216066837 0.003626437857747078 0.06364891678094864 0.009996064007282257 0.0006394786760210991 0.06387804448604584 0.009869270026683807 0.003926986362785101 0.0609007366001606 0.009996064007282257 0.008874073624610901 0.06353244185447693 0.007000000216066837 0.007115098647773266 0.06305835396051407 0.009869270026683807 0.006383106578141451 0.06171439215540886 0.012198423035442829 0.001932473387569189 0.06013050675392151 0.012198423035442829 0.00667840801179409 0.06251608580350876 0.011419795453548431 0.004837293177843094 0.05671790987253189 0.007000000216066837 0.013293071649968624 0.04600000008940697 0.007000000216066837 0.017000000923871994 0.0499248243868351 0.013000000268220901 0.01100000087171793 0.05353642255067825 0.00699999975040555 0.015102138742804527 0.055184539407491684 0.009941388852894306 0.013368690386414528 0.05269831046462059 0.009850842878222466 0.014929789118468761 0.047252438962459564 0.009941388852894306 0.016112107783555984 0.049619339406490326 0.007000000216066837 0.016456913203001022 0.05017188936471939 0.009850842878222466 0.015803584828972816 0.05272689089179039 0.012112108990550041 0.012539086863398552 0.0486723855137825 0.012112107127904892 0.013941388577222824 0.051154494285583496 0.011445818468928337 0.01455537136644125 0.010650843381881714 0.007000000216066837 0.011153653264045715 0.016773076727986336 0.013000000268220901 0.01100000087171793 0.017999999225139618 0.007000000216066837 0.017000000923871994 0.011491102166473866 0.009996063075959682 0.011105027049779892 0.012103758752346039 0.006999999284744263 0.014101090840995312 0.012892324477434158 0.009869268164038658 0.013929210603237152 0.017408084124326706 0.012198422104120255 0.013967964798212051 0.013738327659666538 0.012198422104120255 0.011048626154661179 0.01447443850338459 0.011419794522225857 0.013889502733945847 0.01480133831501007 0.006999999284744263 0.01624704897403717 0.017858438193798065 0.009996063075959682 0.01617032289505005 0.014791500754654408 0.009869269095361233 0.015440029092133045</float_array><technique_common><accessor source="#mesh0-array" count="120" stride="3"><param name="X" type="float" /><param name="Y" type="float" /><param name="Z" type="float" /></accessor></technique_common></source><source id="mesh0-normals"><float_array id="mesh0-normals-array" count="708">0.9597559571266174 0.2770985960960388 0.04566068574786186 0.9562389254570007 0.29104167222976685 0.030029838904738426 0.6939967274665833 0.7177777886390686 0.056246474385261536 0.6939969658851624 0.7177775502204895 0.05624673143029213 0.2595556378364563 0.9465740323066711 0.191385880112648 0.2448483556509018 0.9465740323066711 0.2098737508058548 0.2108580768108368 0.7177777290344238 0.6635766625404358 0.21085825562477112 0.7177778482437134 0.6635764837265015 0.24428017437458038 0.291041761636734 0.92499840259552 0.260301798582077 0.27709847688674927 0.9249105453491211 0.7547580599784851 0.2642662525177002 0.6004194617271423 0.7547580599784851 0.26426631212234497 0.6004195213317871 0.6040418148040771 0.6357920169830322 0.48052266240119934 -0.8529305458068848 0.2654743492603302 0.4494805932044983 -0.8504589796066284 0.25140485167503357 0.46207693219184875 -0.594974935054779 0.2151014357805252 0.7744263410568237 -0.5949746966362 0.21510106325149536 0.7744266390800476 -0.22734344005584717 0.25140494108200073 0.9408031702041626 -0.2145349532365799 0.2654751241207123 0.9399455785751343 -0.1926146298646927 0.6711903810501099 0.7158234119415283 -0.19261471927165985 0.6711901426315308 0.7158235311508179 -0.23481665551662445 0.9177295565605164 0.320364773273468 -0.24904409050941467 0.9177295565605164 0.3094342052936554 -0.6420241594314575 0.6711902022361755 0.37055203318595886 -0.642024040222168 0.6711902618408203 0.37055206298828125 -0.5103861689567566 0.5460567474365234 0.6643251776695251 -0.7248260974884033 0.28031277656555176 -0.6293265223503113 -0.7351506948471069 0.2668117880821228 -0.6231893301010132 -0.9228987097740173 0.23106680810451508 -0.30800339579582214 -0.9228991866111755 0.2310660034418106 -0.3080027103424072 -0.9620758295059204 0.2668110132217407 0.05676281079649925 -0.9575061798095703 0.28031328320503235 0.06787164509296417 -0.7434296607971191 0.6683070659637451 0.026039667427539825 -0.7434306740760803 0.6683059930801392 0.026038991287350655 -0.3917544186115265 0.9119547009468079 -0.12193126976490021 -0.386462539434433 0.9119546413421631 -0.13778771460056305 -0.5787814855575562 0.6683068871498108 -0.4673091769218445 -0.5787816047668457 0.6683071255683899 -0.46730872988700867 -0.7962837815284729 0.5434251427650452 -0.2657468616962433 -0.14556796848773956 0.19410918653011322 -0.9701193571090698 -0.10939926654100418 0.2442672997713089 -0.9635171294212341 -0.3230941593647003 0.15146206319332123 -0.9341678023338318 -0.3230942189693451 0.15146201848983765 -0.9341678023338318 -0.5092578530311584 0.24426475167274475 -0.825221836566925 -0.48489779233932495 0.19410879909992218 -0.8527579307556152 -0.429373562335968 0.702867329120636 -0.5671118497848511 -0.42091143131256104 0.5725685358047485 -0.703561544418335 -0.16189534962177277 0.9235191941261292 -0.3477099537849426 -0.08752020448446274 0.9235191941261292 -0.37343353033065796 -0.09849116951227188 0.6707175374031067 -0.7351444959640503 0.024949796497821808 0.6255939602851868 -0.7797496914863586 -0.28782275319099426 0.4739436209201813 -0.8321872353553772 0.8652814626693726 0.26335757970809937 -0.42653346061706543 0.8630462884902954 0.2491762787103653 -0.4393885135650635 0.6082684993743896 0.21297526359558105 -0.7646247148513794 0.6082684993743896 0.21297527849674225 -0.7646247148513794 0.2340720146894455 0.24917709827423096 -0.9397451877593994 0.22104446589946747 0.26335737109184265 -0.9390326142311096 0.1976054310798645 0.6726652979850769 -0.7130733132362366 0.1976051926612854 0.6726654767990112 -0.7130731344223022 0.2377943992614746 0.9193052053451538 -0.3135789632797241 0.2520783841609955 0.9193052649497986 -0.3022158443927765 0.6503787636756897 0.6726654767990112 -0.3528861403465271 0.6503786444664001 0.6726655960083008 -0.35288628935813904 0.5207154750823975 0.5480864644050598 -0.6545659899711609 0.9562390446662903 -0.2910414934158325 0.030030041933059692 0.9597559571266174 -0.277098685503006 0.04566061496734619 0.7547580599784851 -0.26426634192466736 0.6004195809364319 0.7547581195831299 -0.26426637172698975 0.6004195809364319 0.26030170917510986 -0.27709847688674927 0.9249106049537659 0.24428008496761322 -0.291041761636734 0.92499840259552 0.21085798740386963 -0.7177777886390686 0.663576602935791 0.21085797250270844 -0.7177778482437134 0.6635766625404358 0.24484801292419434 -0.9465740323066711 0.20987381041049957 0.2595556378364563 -0.9465740323066711 0.19138561189174652 0.6939966678619385 -0.7177777886390686 0.05624653026461601 0.6939964890480042 -0.7177779674530029 0.05624675378203392 0.6040416359901428 -0.6357921957969666 0.4805227220058441 -0.2145349532365799 -0.2654751241207123 0.9399455785751343 -0.22734320163726807 -0.2514052391052246 0.9408031702041626 -0.594974935054779 -0.21510174870491028 0.7744264006614685 -0.5949752926826477 -0.21510139107704163 0.7744262218475342 -0.8504590392112732 -0.25140488147735596 0.4620768427848816 -0.8529307246208191 -0.265475332736969 0.4494795799255371 -0.6420240998268127 -0.6711902022361755 0.37055206298828125 -0.642024040222168 -0.6711902618408203 0.3705519437789917 -0.24904412031173706 -0.9177296161651611 0.3094339668750763 -0.2348165065050125 -0.9177296161651611 0.32036474347114563 -0.19261451065540314 -0.6711903810501099 0.7158234119415283 -0.1926146149635315 -0.6711905002593994 0.7158232927322388 -0.5103865265846252 -0.5460572838783264 0.6643245816230774 -0.9575058817863464 -0.2803134024143219 0.06787371635437012 -0.9620764255523682 -0.26680877804756165 0.05676294490695 -0.9228988885879517 -0.23106619715690613 -0.3080034554004669 -0.9228989481925964 -0.2310669869184494 -0.30800265073776245 -0.7351510524749756 -0.2668101191520691 -0.6231896281242371 -0.7248250246047974 -0.28031298518180847 -0.629327654838562 -0.5787824392318726 -0.6683061122894287 -0.4673091173171997 -0.5787813067436218 -0.6683071851730347 -0.46730905771255493 -0.38646212220191956 -0.9119548201560974 -0.137787863612175 -0.3917543590068817 -0.9119547605514526 -0.12193035334348679 -0.7434298992156982 -0.668306827545166 0.02603890374302864 -0.7434303760528564 -0.6683062314987183 0.02604004740715027 -0.7962837815284729 -0.5434250831604004 -0.2657468616962433 -0.4848978519439697 -0.19410793483257294 -0.85275799036026 -0.5092588663101196 -0.24426567554473877 -0.8252210021018982 -0.3230942189693451 -0.1514614373445511 -0.9341679215431213 -0.3230941593647003 -0.15146136283874512 -0.9341678619384766 -0.10939888656139374 -0.2442672699689865 -0.9635171890258789 -0.14556799829006195 -0.19410857558250427 -0.9701194763183594 -0.012748826295137405 -0.7028674483299255 -0.7112066149711609 -0.10370327532291412 -0.5725703239440918 -0.8132703900337219 -0.08752035349607468 -0.9235190153121948 -0.3734337389469147 -0.1618954986333847 -0.9235190749168396 -0.34771019220352173 -0.3767422139644623 -0.6707175970077515 -0.6389078497886658 -0.5013629198074341 -0.6255947351455688 -0.597717821598053 -0.28782257437705994 -0.47394493222236633 -0.8321865797042847 0.8630462288856506 -0.24917633831501007 -0.43938857316970825 0.8652814030647278 -0.26335766911506653 -0.42653346061706543 0.6503786444664001 -0.6726654171943665 -0.3528863787651062 0.6503786444664001 -0.6726655960083008 -0.35288628935813904 0.25207841396331787 -0.919305145740509 -0.302216112613678 0.2377946376800537 -0.919305145740509 -0.31357911229133606 0.1976052224636078 -0.6726652979850769 -0.7130733132362366 0.19760571420192719 -0.6726655960083008 -0.7130729556083679 0.22104457020759583 -0.26335740089416504 -0.9390325546264648 0.2340720295906067 -0.24917717278003693 -0.9397451877593994 0.6082684993743896 -0.21297535300254822 -0.7646247148513794 0.6082686185836792 -0.21297521889209747 -0.7646247148513794 0.5207155346870422 -0.5480867028236389 -0.6545658111572266 0.9390503764152527 0.26687777042388916 -0.21670396625995636 0.9390503168106079 0.2668783366680145 -0.21670383214950562 0.6889986395835876 0.7071067690849304 -0.15899957716464996 0.6889986395835876 0.7071067690849304 -0.15899960696697235 0.254057377576828 0.9654106497764587 -0.058628544211387634 0.25405779480934143 0.9654104113578796 -0.05862874910235405 0.0 0.9654104709625244 -0.2607346773147583 -0.0028887062799185514 0.9569893479347229 -0.29010871052742004 -0.0025537784676998854 0.7073653936386108 -0.7068434357643127 -0.0027158239390701056 0.7062153816223145 -0.7079918384552002 -0.00240523274987936 0.2669835090637207 -0.9636980891227722 0.0 0.2889828383922577 -0.9573342800140381 -0.17853929102420807 0.957334578037262 -0.2272317260503769 -0.15635479986667633 0.964741051197052 -0.2117261439561844 -0.4345933198928833 0.7058308720588684 -0.5594027042388916 -0.43234020471572876 0.7079612612724304 -0.558455765247345 -0.5901601910591125 0.2882690131664276 -0.7540635466575623 -0.5922162532806396 0.2849060893058777 -0.7537297010421753 -0.25683316588401794 0.9640260338783264 0.0684887245297432 -0.25273939967155457 0.9653699398040771 0.0646815225481987 -0.686221718788147 0.7058737277984619 0.17561909556388855 -0.6845700740814209 0.7081634998321533 0.17282447218894958 -0.9296442270278931 0.284042090177536 0.234695166349411 -0.9304710626602173 0.26954859495162964 0.24812732636928558 -5.55355139653102e-09 0.965211808681488 0.261469304561615 -5.318705007084645e-05 0.9654071927070618 0.26074713468551636 -0.00014427921269088984 0.7070900797843933 0.7071235179901123 -0.00014408132119569927 0.7070881128311157 0.7071254253387451 -0.00019622997206170112 0.26953914761543274 0.9629895091056824 0.0 0.26687824726104736 0.9637302160263062 0.2540576159954071 -0.9654105305671692 -0.05862870812416077 0.25405755639076233 -0.9654105305671692 -0.058628715574741364 0.6889986395835876 -0.7071067690849304 -0.15899969637393951 0.6889986395835876 -0.7071067690849304 -0.15899966657161713 0.9390503764152527 -0.2668778598308563 -0.2167038917541504 0.9390501976013184 -0.2668783366680145 -0.21670392155647278 0.0 -0.2695489525794983 0.9629867076873779 -0.00019640788377728313 -0.26686346530914307 0.9637342691421509 -0.000144110934343189 -0.7070900797843933 0.7071235179901123 -0.00014429460861720145 -0.7070882320404053 0.7071253657341003 -5.3357409342424944e-05 -0.9652085304260254 0.26148155331611633 0.0 -0.965410590171814 0.26073458790779114 -0.9261899590492249 -0.2849036753177643 0.24698568880558014 -0.9335281848907471 -0.270150363445282 0.2356775999069214 -0.6871832609176636 -0.7054657340049744 0.17348560690879822 -0.6842487454414368 -0.7079111933708191 0.17511522769927979 -0.25841787457466125 -0.9637668132781982 0.06613516807556152 -0.25264084339141846 -0.9652117490768433 0.06737104803323746 -0.5914620161056519 -0.28898143768310547 -0.7527698278427124 -0.5907790660858154 -0.2850227355957031 -0.7548126578330994 -0.4339086413383484 -0.7054442763328552 -0.5604209899902344 -0.43337830901145935 -0.7077668905258179 -0.5578972101211548 -0.1743440330028534 -0.9563964605331421 -0.234328955411911 -0.16422180831432343 -0.9640260934829712 -0.20900960266590118 0.0 -0.26687881350517273 -0.9637300968170166 -0.0024323249235749245 -0.28803253173828125 -0.9576175212860107 -0.0027156402356922626 -0.7073816061019897 -0.7068266272544861 -0.0025516634341329336 -0.7062696218490601 -0.7079383730888367 -0.0028868853114545345 -0.9655616879463196 -0.26015815138816833 0.0 -0.9573342800140381 -0.2889828383922577 0.25533339381217957 0.0 0.9668530225753784 0.2553333640098572 0.0 0.9668530225753784 0.7825788855552673 0.0 0.622551441192627 0.7825789451599121 1.5384243212679394e-08 0.6225513815879822 0.9995072484016418 -3.115705027312288e-08 0.03138885274529457 0.9995072484016418 3.4289161732203866e-08 0.0313885398209095 -0.8846749663352966 -3.1013588142059234e-08 0.46620821952819824 -0.8846744894981384 2.0439128434190934e-07 0.4662091135978699 -0.6092361211776733 1.093609256486161e-07 0.7929888963699341 -0.6092361807823181 1.0936093275404346e-07 0.7929888963699341 -0.22251947224140167 -5.644503531243572e-09 0.9749282002449036 -0.22251945734024048 0.0 0.9749283194541931 -0.7550979256629944 0.0 -0.655612051486969 -0.7550989985466003 4.0185184957408637e-07 -0.6556107997894287 -0.9485690593719482 5.048135562901734e-07 -0.3165704309940338 -0.9485690593719482 5.048135562901734e-07 -0.3165704607963562 -0.9974970817565918 5.308523327585135e-07 0.07070854306221008 -0.9974972009658813 -4.703601508282418e-09 0.07070635259151459 -0.14839038252830505 0.0 -0.9889288544654846 -0.14839038252830505 0.0 -0.9889288544654846 -0.32686516642570496 0.0 -0.9450709819793701 -0.32686516642570496 0.0 -0.9450709819793701 -0.49429938197135925 0.0 -0.8692917227745056 -0.49429938197135925 0.0 -0.8692917227745056 0.8969452381134033 0.0 -0.4421418607234955 0.8969452381134033 0.0 -0.4421418607234955 0.6225513219833374 0.0 -0.7825790047645569 0.6225513219833374 0.0 -0.7825790047645569 0.22913329303264618 0.0 -0.973395049571991 0.22913329303264618 0.0 -0.973395049571991 0.9743911623954773 2.493056250330028e-08 -0.22485952079296112 0.9743911623954773 0.0 -0.22485952079296112 0.0 1.0 0.0 0.0 1.0 0.0 0.0 1.0 0.0 0.0 0.0 1.0 0.0 0.0 1.0 -0.9662345051765442 -1.7140612484922713e-08 0.257664293050766 -0.9662345051765442 -1.843378427679454e-08 0.257664293050766 -0.6178215742111206 0.0 -0.7863183617591858 -0.6178215742111206 0.0 -0.7863183617591858 0.0 0.0 -1.0 0.0 0.0 -1.0 0.0 -1.0 0.0 0.0 -1.0 0.0 0.0 -1.0 0.0</float_array><technique_common><accessor source="#mesh0-normals-array" count="236" stride="3"><param name="X" type="float" /><param name="Y" type="float" /><param name="Z" type="float" /></accessor></technique_common></source><vertices id="mesh0-vertices"><input semantic="POSITION" source="#mesh0-positions" /></vertices><triangles count="236" material="ivory"><input semantic="VERTEX" source="#mesh0-vertices" offset="0" /><input semantic="NORMAL" source="#mesh0-normals" offset="1" /><p>0 0 3 0 5 0 0 1 5 1 4 1 3 2 7 2 8 2 3 3 8 3 5 3 1 4 6 4 8 4 1 5 8 5 7 5 6 6 10 6 11 6 6 7 11 7 8 7 2 8 9 8 11 8 2 9 11 9 10 9 9 10 4 10 5 10 9 11 5 11 11 11 5 12 8 12 11 12 12 13 15 13 17 13 12 14 17 14 16 14 15 15 19 15 20 15 15 16 20 16 17 16 13 17 18 17 20 17 13 18 20 18 19 18 18 19 22 19 23 19 18 20 23 20 20 20 14 21 21 21 23 21 14 22 23 22 22 22 21 23 16 23 17 23 21 24 17 24 23 24 17 25 20 25 23 25 24 26 27 26 29 26 24 27 29 27 28 27 27 28 31 28 32 28 27 29 32 29 29 29 25 30 30 30 32 30 25 31 32 31 31 31 30 32 34 32 35 32 30 33 35 33 32 33 26 34 33 34 35 34 26 35 35 35 34 35 33 36 28 36 29 36 33 37 29 37 35 37 29 38 32 38 35 38 36 39 39 39 41 39 36 40 41 40 40 40 39 41 43 41 44 41 39 42 44 42 41 42 37 43 42 43 44 43 37 44 44 44 43 44 42 45 46 45 47 45 42 46 47 46 44 46 38 47 45 47 47 47 38 48 47 48 46 48 45 49 40 49 41 49 45 50 41 50 47 50 41 51 44 51 47 51 48 52 51 52 53 52 48 53 53 53 52 53 51 54 55 54 56 54 51 55 56 55 53 55 49 56 54 56 56 56 49 57 56 57 55 57 54 58 58 58 59 58 54 59 59 59 56 59 50 60 57 60 59 60 50 61 59 61 58 61 57 62 52 62 53 62 57 63 53 63 59 63 53 64 56 64 59 64 60 65 63 65 65 65 60 66 65 66 64 66 63 67 67 67 68 67 63 68 68 68 65 68 61 69 66 69 68 69 61 70 68 70 67 70 66 71 70 71 71 71 66 72 71 72 68 72 62 73 69 73 71 73 62 74 71 74 70 74 69 75 64 75 65 75 69 76 65 76 71 76 65 77 68 77 71 77 72 78 75 78 77 78 72 79 77 79 76 79 75 80 79 80 80 80 75 81 80 81 77 81 73 82 78 82 80 82 73 83 80 83 79 83 78 84 82 84 83 84 78 85 83 85 80 85 74 86 81 86 83 86 74 87 83 87 82 87 81 88 76 88 77 88 81 89 77 89 83 89 77 90 80 90 83 90 84 91 87 91 89 91 84 92 89 92 88 92 87 93 91 93 92 93 87 94 92 94 89 94 85 95 90 95 92 95 85 96 92 96 91 96 90 97 94 97 95 97 90 98 95 98 92 98 86 99 93 99 95 99 86 100 95 100 94 100 93 101 88 101 89 101 93 102 89 102 95 102 89 103 92 103 95 103 96 104 99 104 101 104 96 105 101 105 100 105 99 106 103 106 104 106 99 107 104 107 101 107 97 108 102 108 104 108 97 109 104 109 103 109 102 110 106 110 107 110 102 111 107 111 104 111 98 112 105 112 107 112 98 113 107 113 106 113 105 114 100 114 101 114 105 115 101 115 107 115 101 116 104 116 107 116 108 117 111 117 113 117 108 118 113 118 112 118 111 119 115 119 116 119 111 120 116 120 113 120 109 121 114 121 116 121 109 122 116 122 115 122 114 123 118 123 119 123 114 124 119 124 116 124 110 125 117 125 119 125 110 126 119 126 118 126 117 127 112 127 113 127 117 128 113 128 119 128 113 129 116 129 119 129 0 130 48 130 52 130 0 131 52 131 3 131 3 132 52 132 57 132 3 133 57 133 7 133 7 134 57 134 50 134 7 135 50 135 1 135 38 136 50 136 58 136 38 137 58 137 45 137 45 138 58 138 54 138 45 139 54 139 40 139 40 140 54 140 49 140 40 141 49 141 36 141 26 142 38 142 46 142 26 143 46 143 33 143 33 144 46 144 42 144 33 145 42 145 28 145 28 146 42 146 37 146 28 147 37 147 24 147 14 148 26 148 34 148 14 149 34 149 21 149 21 150 34 150 30 150 21 151 30 151 16 151 16 152 30 152 25 152 16 153 25 153 12 153 1 154 14 154 22 154 1 155 22 155 6 155 6 156 22 156 18 156 6 157 18 157 10 157 10 158 18 158 13 158 10 159 13 159 2 159 62 160 109 160 115 160 62 161 115 161 69 161 69 162 115 162 111 162 69 163 111 163 64 163 64 164 111 164 108 164 64 165 108 165 60 165 61 166 72 166 76 166 61 167 76 167 66 167 66 168 76 168 81 168 66 169 81 169 70 169 70 170 81 170 74 170 70 171 74 171 62 171 73 172 84 172 88 172 73 173 88 173 78 173 78 174 88 174 93 174 78 175 93 175 82 175 82 176 93 176 86 176 82 177 86 177 74 177 85 178 96 178 100 178 85 179 100 179 90 179 90 180 100 180 105 180 90 181 105 181 94 181 94 182 105 182 98 182 94 183 98 183 86 183 97 184 110 184 118 184 97 185 118 185 102 185 102 186 118 186 114 186 102 187 114 187 106 187 106 188 114 188 109 188 106 189 109 189 98 189 2 190 61 190 67 190 2 191 67 191 9 191 9 192 67 192 63 192 9 193 63 193 4 193 4 194 63 194 60 194 4 195 60 195 0 195 12 196 73 196 79 196 12 197 79 197 15 197 15 198 79 198 75 198 15 199 75 199 19 199 19 200 75 200 72 200 19 201 72 201 13 201 24 202 85 202 91 202 24 203 91 203 27 203 27 204 91 204 87 204 27 205 87 205 31 205 31 206 87 206 84 206 31 207 84 207 25 207 36 208 97 208 103 208 36 209 103 209 39 209 39 210 103 210 99 210 39 211 99 211 43 211 43 212 99 212 96 212 43 213 96 213 37 213 48 214 108 214 112 214 48 215 112 215 51 215 51 216 112 216 117 216 51 217 117 217 55 217 55 218 117 218 110 218 55 219 110 219 49 219 48 220 0 220 60 220 48 221 60 221 108 221 1 222 50 222 38 222 38 223 26 223 14 223 38 224 14 224 1 224 2 225 13 225 72 225 2 226 72 226 61 226 12 227 25 227 84 227 12 228 84 228 73 228 24 229 37 229 96 229 24 230 96 230 85 230 36 231 49 231 110 231 36 232 110 232 97 232 109 233 62 233 74 233 74 234 86 234 98 234 74 235 98 235 109 235</p></triangles></mesh></geometry><geometry id="mesh1"><mesh><source id="mesh1-positions"><float_array id="mesh1-array" count="144">-3.0199165390598637e-09 -0.01650000363588333 0.020000003278255463 -3.0199165390598637e-09 0.016499999910593033 0.019999999552965164 -0.005176384933292866 -0.01650000363588333 0.01931851916015148 -0.005176384933292866 0.016499999910593033 0.019318513572216034 -0.01000000536441803 -0.01650000363588333 0.017320509999990463 -0.01000000536441803 0.016499999910593033 0.017320506274700165 -0.014142140746116638 -0.01650000363588333 0.01414213702082634 -0.014142140746116638 0.016499999910593033 0.014142132364213467 -0.01732051372528076 -0.01650000363588333 0.010000000707805157 -0.01732051372528076 0.016499999910593033 0.009999996051192284 -0.01931851916015148 -0.016500001773238182 0.005176380276679993 -0.01931851916015148 0.016500001773238182 0.005176376085728407 -0.020000005140900612 -0.016500001773238182 -8.029954479127355e-10 -0.020000005140900612 0.016500001773238182 -5.236837630206992e-09 -0.01931851916015148 -0.016500001773238182 -0.005176382139325142 -0.01931851916015148 0.016500001773238182 -0.005176386330276728 -0.017320509999990463 -0.016499999910593033 -0.010000000707805157 -0.017320509999990463 0.01650000363588333 -0.01000000536441803 -0.01414213702082634 -0.016499999910593033 -0.01414213702082634 -0.01414213702082634 0.01650000363588333 -0.014142141677439213 -0.009999999776482582 -0.016499999910593033 -0.017320509999990463 -0.009999999776482582 0.01650000363588333 -0.01732051372528076 -0.005176379345357418 -0.016499999910593033 -0.019318515434861183 -0.005176379345357418 0.01650000363588333 -0.01931852102279663 3.0199165390598637e-09 -0.016499999910593033 -0.019999999552965164 3.0199165390598637e-09 0.01650000363588333 -0.020000003278255463 0.005176384933292866 -0.016499999910593033 -0.019318513572216034 0.005176384933292866 0.01650000363588333 -0.01931851916015148 0.01000000536441803 -0.016499999910593033 -0.017320506274700165 0.01000000536441803 0.01650000363588333 -0.017320509999990463 0.014142140746116638 -0.016499999910593033 -0.014142132364213467 0.014142140746116638 0.01650000363588333 -0.01414213702082634 0.01732051372528076 -0.016499999910593033 -0.009999996051192284 0.01732051372528076 0.01650000363588333 -0.010000000707805157 0.01931851916015148 -0.016500001773238182 -0.005176376085728407 0.01931851916015148 0.016500001773238182 -0.005176380276679993 0.020000005140900612 -0.016500001773238182 5.236837630206992e-09 0.020000005140900612 0.016500001773238182 8.029954479127355e-10 0.01931851916015148 -0.016500001773238182 0.005176386330276728 0.01931851916015148 0.016500001773238182 0.005176382139325142 0.017320509999990463 -0.01650000363588333 0.01000000536441803 0.017320509999990463 0.016499999910593033 0.010000000707805157 0.01414213702082634 -0.01650000363588333 0.014142141677439213 0.01414213702082634 0.016499999910593033 0.01414213702082634 0.009999999776482582 -0.01650000363588333 0.01732051372528076 0.009999999776482582 0.016499999910593033 0.017320509999990463 0.005176379345357418 -0.01650000363588333 0.01931852102279663 0.005176379345357418 0.016499999910593033 0.019318515434861183</float_array><technique_common><accessor source="#mesh1-array" count="48" stride="3"><param name="X" type="float" /><param name="Y" type="float" /><param name="Z" type="float" /></accessor></technique_common></source><source id="mesh1-normals"><float_array id="mesh1-normals-array" count="276">-0.13052643835544586 1.3320936886884738e-07 0.9914448261260986 -0.13052643835544586 1.3320936886884738e-07 0.9914448261260986 -0.3826833963394165 1.2413137540079333e-07 0.9238796234130859 -0.3826833963394165 1.2413137540079333e-07 0.9238796234130859 -0.6087616086006165 1.0659401539214741e-07 0.7933531999588013 -0.6087616086006165 1.0659401539214741e-07 0.7933531999588013 -0.7933533787727356 8.179247856787697e-08 0.6087614297866821 -0.7933533787727356 8.179247856787697e-08 0.6087614297866821 -0.9238797426223755 5.1416865431974657e-08 0.3826831877231598 -0.9238797426223755 5.1416865431974657e-08 0.3826831877231598 -0.9914449453353882 1.7537347574148043e-08 0.13052618503570557 -0.9914449453353882 1.7537347574148043e-08 0.13052618503570557 -0.9914448261260986 -1.753738310128483e-08 -0.13052646815776825 -0.9914448261260986 -1.753738310128483e-08 -0.13052646815776825 -0.9238796234130859 -5.1416900959111445e-08 -0.38268348574638367 -0.9238796234130859 -5.1416900959111445e-08 -0.38268348574638367 -0.7933531403541565 -8.17925069895864e-08 -0.6087616682052612 -0.7933531403541565 -8.17925069895864e-08 -0.6087616682052612 -0.6087613701820374 -1.0659404381385684e-07 -0.7933534383773804 -0.6087613701820374 -1.0659404381385684e-07 -0.7933534383773804 -0.3826830983161926 -1.2413140382250276e-07 -0.9238797426223755 -0.3826830983161926 -1.2413140382250276e-07 -0.9238797426223755 -0.13052615523338318 -1.332093830797021e-07 -0.9914449453353882 -0.13052615523338318 -1.332093830797021e-07 -0.9914449453353882 0.13052643835544586 -1.3320936886884738e-07 -0.9914448261260986 0.13052643835544586 -1.3320936886884738e-07 -0.9914448261260986 0.3826833963394165 -1.2413137540079333e-07 -0.9238796234130859 0.3826833963394165 -1.2413137540079333e-07 -0.9238796234130859 0.6087616086006165 -1.0659401539214741e-07 -0.7933531999588013 0.6087616086006165 -1.0659401539214741e-07 -0.7933531999588013 0.7933533787727356 -8.179247856787697e-08 -0.6087614297866821 0.7933533787727356 -8.179247856787697e-08 -0.6087614297866821 0.9238797426223755 -5.1416865431974657e-08 -0.3826831877231598 0.9238797426223755 -5.1416865431974657e-08 -0.3826831877231598 0.9914449453353882 -1.7537347574148043e-08 -0.13052618503570557 0.9914449453353882 -1.7537347574148043e-08 -0.13052618503570557 0.9914448261260986 1.753738310128483e-08 0.13052646815776825 0.9914448261260986 1.753738310128483e-08 0.13052646815776825 0.9238796234130859 5.1416900959111445e-08 0.38268348574638367 0.9238796234130859 5.1416900959111445e-08 0.38268348574638367 0.7933531403541565 8.17925069895864e-08 0.6087616682052612 0.7933531403541565 8.17925069895864e-08 0.6087616682052612 0.6087613701820374 1.0659404381385684e-07 0.7933534383773804 0.6087613701820374 1.0659404381385684e-07 0.7933534383773804 -2.028761815660307e-14 1.0 1.343588280633412e-07 -2.028761815660307e-14 1.0 1.343588280633412e-07 -2.028761815660307e-14 1.0 1.343588280633412e-07 -2.028761815660307e-14 1.0 1.343588280633412e-07 -2.028761815660307e-14 1.0 1.343588280633412e-07 -2.028761815660307e-14 1.0 1.343588280633412e-07 -2.028761815660307e-14 1.0 1.343588280633412e-07 -2.028761815660307e-14 1.0 1.343588280633412e-07 -2.028761815660307e-14 1.0 1.343588280633412e-07 -2.028761815660307e-14 1.0 1.343588280633412e-07 -2.028761815660307e-14 1.0 1.343588280633412e-07 -2.028761815660307e-14 1.0 1.343588280633412e-07 -2.028761815660307e-14 1.0 1.343588280633412e-07 -2.028761815660307e-14 1.0 1.343588280633412e-07 -2.028761815660307e-14 1.0 1.343588280633412e-07 -2.028761815660307e-14 1.0 1.343588280633412e-07 -2.028761815660307e-14 1.0 1.343588280633412e-07 -2.028761815660307e-14 1.0 1.343588280633412e-07 -2.028761815660307e-14 1.0 1.343588280633412e-07 -2.028761815660307e-14 1.0 1.343588280633412e-07 -2.028761815660307e-14 1.0 1.343588280633412e-07 -2.028761815660307e-14 1.0 1.343588280633412e-07 0.3826830983161926 1.2413140382250276e-07 0.9238797426223755 0.3826830983161926 1.2413140382250276e-07 0.9238797426223755 0.13052615523338318 1.332093830797021e-07 0.9914449453353882 0.13052615523338318 1.332093830797021e-07 0.9914449453353882 2.028761815660307e-14 -1.0 -1.343588280633412e-07 2.0287619850668966e-14 -1.0 -1.343588280633412e-07 2.0287619850668966e-14 -1.0 -1.343588280633412e-07 2.028761815660307e-14 -1.0 -1.343588280633412e-07 2.0287619850668966e-14 -1.0 -1.343588280633412e-07 2.0287619850668966e-14 -1.0 -1.343588280633412e-07 2.028761815660307e-14 -1.0 -1.343588280633412e-07 2.0287619850668966e-14 -1.0 -1.343588280633412e-07 2.0287619850668966e-14 -1.0 -1.343588280633412e-07 2.028761815660307e-14 -1.0 -1.343588280633412e-07 2.0287619850668966e-14 -1.0 -1.343588280633412e-07 2.0287619850668966e-14 -1.0 -1.343588280633412e-07 2.028761815660307e-14 -1.0 -1.343588280633412e-07 2.028761815660307e-14 -1.0 -1.343588280633412e-07 2.028761815660307e-14 -1.0 -1.343588280633412e-07 2.028761815660307e-14 -1.0 -1.343588280633412e-07 2.028761815660307e-14 -1.0 -1.343588280633412e-07 2.028761815660307e-14 -1.0 -1.343588280633412e-07 2.028761815660307e-14 -1.0 -1.343588280633412e-07 2.028761815660307e-14 -1.0 -1.343588280633412e-07 2.028761815660307e-14 -1.0 -1.343588280633412e-07 2.028761815660307e-14 -1.0 -1.343588280633412e-07</float_array><technique_common><accessor source="#mesh1-normals-array" count="92" stride="3"><param name="X" type="float" /><param name="Y" type="float" /><param name="Z" type="float" /></accessor></technique_common></source><vertices id="mesh1-vertices"><input semantic="POSITION" source="#mesh1-positions" /></vertices><triangles count="92" material="graphite"><input semantic="VERTEX" source="#mesh1-vertices" offset="0" /><input semantic="NORMAL" source="#mesh1-normals" offset="1" /><p>0 0 1 0 3 0 0 1 3 1 2 1 2 2 3 2 5 2 2 3 5 3 4 3 4 4 5 4 7 4 4 5 7 5 6 5 6 6 7 6 9 6 6 7 9 7 8 7 8 8 9 8 11 8 8 9 11 9 10 9 10 10 11 10 13 10 10 11 13 11 12 11 12 12 13 12 15 12 12 13 15 13 14 13 14 14 15 14 17 14 14 15 17 15 16 15 16 16 17 16 19 16 16 17 19 17 18 17 18 18 19 18 21 18 18 19 21 19 20 19 20 20 21 20 23 20 20 21 23 21 22 21 22 22 23 22 25 22 22 23 25 23 24 23 24 24 25 24 27 24 24 25 27 25 26 25 26 26 27 26 29 26 26 27 29 27 28 27 28 28 29 28 31 28 28 29 31 29 30 29 30 30 31 30 33 30 30 31 33 31 32 31 32 32 33 32 35 32 32 33 35 33 34 33 34 34 35 34 37 34 34 35 37 35 36 35 36 36 37 36 39 36 36 37 39 37 38 37 38 38 39 38 41 38 38 39 41 39 40 39 40 40 41 40 43 40 40 41 43 41 42 41 42 42 43 42 45 42 42 43 45 43 44 43 5 44 3 44 1 44 1 45 47 45 45 45 45 46 43 46 41 46 41 47 39 47 37 47 37 48 35 48 33 48 33 49 31 49 29 49 29 50 27 50 25 50 25 51 23 51 21 51 21 52 19 52 17 52 17 53 15 53 13 53 13 54 11 54 9 54 9 55 7 55 5 55 5 56 1 56 45 56 45 57 41 57 37 57 37 58 33 58 29 58 29 59 25 59 21 59 21 60 17 60 13 60 13 61 9 61 5 61 5 62 45 62 37 62 37 63 29 63 21 63 21 64 13 64 5 64 37 65 21 65 5 65 44 66 45 66 47 66 44 67 47 67 46 67 46 68 47 68 1 68 46 69 1 69 0 69 46 70 0 70 2 70 2 71 4 71 6 71 6 72 8 72 10 72 10 73 12 73 14 73 14 74 16 74 18 74 18 75 20 75 22 75 22 76 24 76 26 76 26 77 28 77 30 77 30 78 32 78 34 78 34 79 36 79 38 79 38 80 40 80 42 80 42 81 44 81 46 81 46 82 2 82 6 82 6 83 10 83 14 83 14 84 18 84 22 84 22 85 26 85 30 85 30 86 34 86 38 86 38 87 42 87 46 87 46 88 6 88 14 88 14 89 22 89 30 89 30 90 38 90 46 90 14 91 30 91 46 91</p></triangles></mesh></geometry><geometry id="mesh2"><mesh><source id="mesh2-positions"><float_array id="mesh2-array" count="144">0.0 -0.017000000923871994 0.010000000707805157 0.0 -0.01899999938905239 0.010000000707805157 0.00258819037117064 -0.017000000923871994 0.009659258648753166 0.00258819037117064 -0.01899999938905239 0.009659258648753166 0.004999999888241291 -0.017000000923871994 0.008660254999995232 0.004999999888241291 -0.01899999938905239 0.008660254999995232 0.007071067579090595 -0.017000000923871994 0.00707106851041317 0.007071067579090595 -0.01899999938905239 0.00707106851041317 0.008660254068672657 -0.017000000923871994 0.005000000353902578 0.008660254068672657 -0.01899999938905239 0.005000000353902578 0.009659257717430592 -0.017000000923871994 0.0025881908368319273 0.009659257717430592 -0.01899999938905239 0.00258819037117064 0.009999999776482582 -0.016999999061226845 1.343587602287144e-10 0.009999999776482582 -0.01899999938905239 -1.343587602287144e-10 0.009659257717430592 -0.016999999061226845 -0.00258819037117064 0.009659257717430592 -0.018999997526407242 -0.0025881908368319273 0.008660254068672657 -0.016999999061226845 -0.005000000353902578 0.008660254068672657 -0.018999997526407242 -0.005000000353902578 0.007071067579090595 -0.016999999061226845 -0.00707106851041317 0.007071067579090595 -0.018999997526407242 -0.00707106851041317 0.004999999888241291 -0.016999999061226845 -0.008660254999995232 0.004999999888241291 -0.018999997526407242 -0.008660254999995232 0.00258819037117064 -0.016999999061226845 -0.009659258648753166 0.00258819037117064 -0.018999997526407242 -0.009659258648753166 0.0 -0.016999999061226845 -0.010000000707805157 0.0 -0.018999997526407242 -0.010000000707805157 -0.00258819037117064 -0.016999999061226845 -0.009659258648753166 -0.00258819037117064 -0.018999997526407242 -0.009659258648753166 -0.004999999888241291 -0.016999999061226845 -0.008660254999995232 -0.004999999888241291 -0.018999997526407242 -0.008660254999995232 -0.007071067579090595 -0.016999999061226845 -0.00707106851041317 -0.007071067579090595 -0.018999997526407242 -0.00707106851041317 -0.008660254068672657 -0.016999999061226845 -0.005000000353902578 -0.008660254068672657 -0.018999997526407242 -0.005000000353902578 -0.009659257717430592 -0.016999999061226845 -0.00258819037117064 -0.009659257717430592 -0.018999997526407242 -0.0025881908368319273 -0.009999999776482582 -0.016999999061226845 1.343587602287144e-10 -0.009999999776482582 -0.01899999938905239 -1.343587602287144e-10 -0.009659257717430592 -0.017000000923871994 0.0025881908368319273 -0.009659257717430592 -0.01899999938905239 0.00258819037117064 -0.008660254068672657 -0.017000000923871994 0.005000000353902578 -0.008660254068672657 -0.01899999938905239 0.005000000353902578 -0.007071067579090595 -0.017000000923871994 0.00707106851041317 -0.007071067579090595 -0.01899999938905239 0.00707106851041317 -0.004999999888241291 -0.017000000923871994 0.008660254999995232 -0.004999999888241291 -0.01899999938905239 0.008660254999995232 -0.00258819037117064 -0.017000000923871994 0.009659258648753166 -0.00258819037117064 -0.01899999938905239 0.009659258648753166</float_array><technique_common><accessor source="#mesh2-array" count="48" stride="3"><param name="X" type="float" /><param name="Y" type="float" /><param name="Z" type="float" /></accessor></technique_common></source><source id="mesh2-normals"><float_array id="mesh2-normals-array" count="276">0.1305263191461563 -1.332093830797021e-07 0.9914448261260986 0.1305263191461563 -1.332093830797021e-07 0.9914448261260986 0.38268330693244934 -1.2413140382250276e-07 0.9238796234130859 0.38268330693244934 -1.2413140382250276e-07 0.9238796234130859 0.6087615489959717 -1.0659402960300213e-07 0.793353259563446 0.6087615489959717 -1.0659402960300213e-07 0.793353259563446 0.7933533787727356 -8.179248567330433e-08 0.6087614893913269 0.7933533787727356 -8.179248567330433e-08 0.6087614893913269 0.9238796234130859 -5.1416872537402014e-08 0.3826831877231598 0.9238796234130859 -5.1416872537402014e-08 0.3826831877231598 0.9914448261260986 -1.753736178500276e-08 0.13052628934383392 0.9914448261260986 -1.753736178500276e-08 0.13052628934383392 0.9914448261260986 1.753736178500276e-08 -0.13052628934383392 0.9914448261260986 1.753736178500276e-08 -0.13052628934383392 0.9238796234130859 5.1416872537402014e-08 -0.3826831877231598 0.9238796234130859 5.1416872537402014e-08 -0.3826831877231598 0.7933533787727356 8.179248567330433e-08 -0.6087614893913269 0.7933533787727356 8.179248567330433e-08 -0.6087614893913269 0.6087615489959717 1.0659402960300213e-07 -0.793353259563446 0.6087615489959717 1.0659402960300213e-07 -0.793353259563446 0.38268330693244934 1.2413140382250276e-07 -0.9238796234130859 0.38268330693244934 1.2413140382250276e-07 -0.9238796234130859 0.1305263191461563 1.332093830797021e-07 -0.9914448261260986 0.1305263191461563 1.332093830797021e-07 -0.9914448261260986 -0.1305263191461563 1.332093830797021e-07 -0.9914448261260986 -0.1305263191461563 1.332093830797021e-07 -0.9914448261260986 -0.38268330693244934 1.2413140382250276e-07 -0.9238796234130859 -0.38268330693244934 1.2413140382250276e-07 -0.9238796234130859 -0.6087615489959717 1.0659402960300213e-07 -0.793353259563446 -0.6087615489959717 1.0659402960300213e-07 -0.793353259563446 -0.7933533787727356 8.179248567330433e-08 -0.6087614893913269 -0.7933533787727356 8.179248567330433e-08 -0.6087614893913269 -0.9238796234130859 5.1416872537402014e-08 -0.3826831877231598 -0.9238796234130859 5.1416872537402014e-08 -0.3826831877231598 -0.9914448261260986 1.753736178500276e-08 -0.13052628934383392 -0.9914448261260986 1.753736178500276e-08 -0.13052628934383392 -0.9914448261260986 -1.753736178500276e-08 0.13052628934383392 -0.9914448261260986 -1.753736178500276e-08 0.13052628934383392 -0.9238796234130859 -5.1416872537402014e-08 0.3826831877231598 -0.9238796234130859 -5.1416872537402014e-08 0.3826831877231598 -0.7933533787727356 -8.179248567330433e-08 0.6087614893913269 -0.7933533787727356 -8.179248567330433e-08 0.6087614893913269 -0.6087615489959717 -1.0659402960300213e-07 0.793353259563446 -0.6087615489959717 -1.0659402960300213e-07 0.793353259563446 0.0 -1.0 -1.3435884227419592e-07 0.0 -1.0 -1.3435884227419592e-07 0.0 -1.0 -1.3435884227419592e-07 0.0 -1.0 -1.3435884227419592e-07 0.0 -1.0 -1.3435884227419592e-07 0.0 -1.0 -1.3435884227419592e-07 0.0 -1.0 -1.3435884227419592e-07 0.0 -1.0 -1.3435884227419592e-07 0.0 -1.0 -1.3435884227419592e-07 0.0 -1.0 -1.3435884227419592e-07 0.0 -1.0 -1.3435884227419592e-07 0.0 -1.0 -1.3435884227419592e-07 0.0 -1.0 -1.3435884227419592e-07 0.0 -1.0 -1.3435884227419592e-07 0.0 -1.0 -1.3435884227419592e-07 0.0 -1.0 -1.3435884227419592e-07 0.0 -1.0 -1.3435884227419592e-07 0.0 -1.0 -1.3435884227419592e-07 0.0 -1.0 -1.3435884227419592e-07 0.0 -1.0 -1.3435884227419592e-07 0.0 -1.0 -1.3435884227419592e-07 0.0 -1.0 -1.3435884227419592e-07 -0.38268330693244934 -1.2413140382250276e-07 0.9238796234130859 -0.38268330693244934 -1.2413140382250276e-07 0.9238796234130859 -0.1305263191461563 -1.332093830797021e-07 0.9914448261260986 -0.1305263191461563 -1.332093830797021e-07 0.9914448261260986 0.0 1.0 1.3435884227419592e-07 0.0 1.0 1.3435884227419592e-07 0.0 1.0 1.3435884227419592e-07 0.0 1.0 1.3435884227419592e-07 0.0 1.0 1.3435884227419592e-07 0.0 1.0 1.3435884227419592e-07 0.0 1.0 1.3435884227419592e-07 0.0 1.0 1.3435884227419592e-07 0.0 1.0 1.3435884227419592e-07 0.0 1.0 1.3435884227419592e-07 0.0 1.0 1.3435884227419592e-07 0.0 1.0 1.3435884227419592e-07 0.0 1.0 1.3435884227419592e-07 0.0 1.0 1.3435884227419592e-07 0.0 1.0 1.3435884227419592e-07 0.0 1.0 1.3435884227419592e-07 0.0 1.0 1.3435884227419592e-07 0.0 1.0 1.3435884227419592e-07 0.0 1.0 1.3435884227419592e-07 0.0 1.0 1.3435884227419592e-07 0.0 1.0 1.3435884227419592e-07 0.0 1.0 1.3435884227419592e-07</float_array><technique_common><accessor source="#mesh2-normals-array" count="92" stride="3"><param name="X" type="float" /><param name="Y" type="float" /><param name="Z" type="float" /></accessor></technique_common></source><vertices id="mesh2-vertices"><input semantic="POSITION" source="#mesh2-positions" /></vertices><triangles count="92" material="titanium"><input semantic="VERTEX" source="#mesh2-vertices" offset="0" /><input semantic="NORMAL" source="#mesh2-normals" offset="1" /><p>0 0 1 0 3 0 0 1 3 1 2 1 2 2 3 2 5 2 2 3 5 3 4 3 4 4 5 4 7 4 4 5 7 5 6 5 6 6 7 6 9 6 6 7 9 7 8 7 8 8 9 8 11 8 8 9 11 9 10 9 10 10 11 10 13 10 10 11 13 11 12 11 12 12 13 12 15 12 12 13 15 13 14 13 14 14 15 14 17 14 14 15 17 15 16 15 16 16 17 16 19 16 16 17 19 17 18 17 18 18 19 18 21 18 18 19 21 19 20 19 20 20 21 20 23 20 20 21 23 21 22 21 22 22 23 22 25 22 22 23 25 23 24 23 24 24 25 24 27 24 24 25 27 25 26 25 26 26 27 26 29 26 26 27 29 27 28 27 28 28 29 28 31 28 28 29 31 29 30 29 30 30 31 30 33 30 30 31 33 31 32 31 32 32 33 32 35 32 32 33 35 33 34 33 34 34 35 34 37 34 34 35 37 35 36 35 36 36 37 36 39 36 36 37 39 37 38 37 38 38 39 38 41 38 38 39 41 39 40 39 40 40 41 40 43 40 40 41 43 41 42 41 42 42 43 42 45 42 42 43 45 43 44 43 5 44 3 44 1 44 1 45 47 45 45 45 45 46 43 46 41 46 41 47 39 47 37 47 37 48 35 48 33 48 33 49 31 49 29 49 29 50 27 50 25 50 25 51 23 51 21 51 21 52 19 52 17 52 17 53 15 53 13 53 13 54 11 54 9 54 9 55 7 55 5 55 5 56 1 56 45 56 45 57 41 57 37 57 37 58 33 58 29 58 29 59 25 59 21 59 21 60 17 60 13 60 13 61 9 61 5 61 5 62 45 62 37 62 37 63 29 63 21 63 21 64 13 64 5 64 37 65 21 65 5 65 44 66 45 66 47 66 44 67 47 67 46 67 46 68 47 68 1 68 46 69 1 69 0 69 46 70 0 70 2 70 2 71 4 71 6 71 6 72 8 72 10 72 10 73 12 73 14 73 14 74 16 74 18 74 18 75 20 75 22 75 22 76 24 76 26 76 26 77 28 77 30 77 30 78 32 78 34 78 34 79 36 79 38 79 38 80 40 80 42 80 42 81 44 81 46 81 46 82 2 82 6 82 6 83 10 83 14 83 14 84 18 84 22 84 22 85 26 85 30 85 30 86 34 86 38 86 38 87 42 87 46 87 46 88 6 88 14 88 14 89 22 89 30 89 30 90 38 90 46 90 14 91 30 91 46 91</p></triangles></mesh></geometry><geometry id="mesh3"><mesh><source id="mesh3-positions"><float_array id="mesh3-array" count="144">-1.5099582695299318e-09 0.016999999061226845 0.010000000707805157 -1.5099582695299318e-09 0.018999997526407242 0.010000000707805157 -0.002588192466646433 0.016999999061226845 0.009659258648753166 -0.002588192466646433 0.018999997526407242 0.009659257717430592 -0.005000002682209015 0.016999999061226845 0.008660254068672657 -0.005000002682209015 0.018999997526407242 0.008660254068672657 -0.007071070373058319 0.016999999061226845 0.007071067579090595 -0.007071070373058319 0.018999997526407242 0.007071067113429308 -0.00866025686264038 0.016999999061226845 0.004999998956918716 -0.00866025686264038 0.018999997526407242 0.004999998956918716 -0.00965925958007574 0.016999999061226845 0.0025881892070174217 -0.00965925958007574 0.018999997526407242 0.002588188974186778 -0.010000002570450306 0.016999999061226845 -1.3755995231790052e-09 -0.010000002570450306 0.01899999938905239 -1.6443170158808584e-09 -0.00965925958007574 0.017000000923871994 -0.0025881920009851456 -0.00965925958007574 0.01899999938905239 -0.0025881922338157892 -0.008660254999995232 0.017000000923871994 -0.00500000175088644 -0.008660254999995232 0.01899999938905239 -0.00500000175088644 -0.00707106851041317 0.017000000923871994 -0.0070710694417357445 -0.00707106851041317 0.01899999938905239 -0.007071069907397032 -0.004999999888241291 0.017000000923871994 -0.008660255931317806 -0.004999999888241291 0.01899999938905239 -0.008660255931317806 -0.002588189672678709 0.017000000923871994 -0.009659258648753166 -0.002588189672678709 0.01899999938905239 -0.00965925958007574 1.5099582695299318e-09 0.017000000923871994 -0.010000000707805157 1.5099582695299318e-09 0.01899999938905239 -0.010000000707805157 0.002588192466646433 0.017000000923871994 -0.009659257717430592 0.002588192466646433 0.01899999938905239 -0.009659258648753166 0.005000002682209015 0.017000000923871994 -0.008660254068672657 0.005000002682209015 0.01899999938905239 -0.008660254068672657 0.007071070373058319 0.017000000923871994 -0.007071067113429308 0.007071070373058319 0.01899999938905239 -0.007071067579090595 0.00866025686264038 0.017000000923871994 -0.004999998956918716 0.00866025686264038 0.01899999938905239 -0.004999998956918716 0.00965925958007574 0.017000000923871994 -0.002588188974186778 0.00965925958007574 0.01899999938905239 -0.0025881892070174217 0.010000002570450306 0.016999999061226845 1.6443170158808584e-09 0.010000002570450306 0.01899999938905239 1.3755995231790052e-09 0.00965925958007574 0.016999999061226845 0.0025881922338157892 0.00965925958007574 0.018999997526407242 0.0025881920009851456 0.008660254999995232 0.016999999061226845 0.00500000175088644 0.008660254999995232 0.018999997526407242 0.00500000175088644 0.00707106851041317 0.016999999061226845 0.007071069907397032 0.00707106851041317 0.018999997526407242 0.0070710694417357445 0.004999999888241291 0.016999999061226845 0.008660255931317806 0.004999999888241291 0.018999997526407242 0.008660255931317806 0.002588189672678709 0.016999999061226845 0.00965925958007574 0.002588189672678709 0.018999997526407242 0.009659258648753166</float_array><technique_common><accessor source="#mesh3-array" count="48" stride="3"><param name="X" type="float" /><param name="Y" type="float" /><param name="Z" type="float" /></accessor></technique_common></source><source id="mesh3-normals"><float_array id="mesh3-normals-array" count="276">-0.13052643835544586 1.3320936886884738e-07 0.9914448261260986 -0.13052643835544586 1.3320936886884738e-07 0.9914448261260986 -0.3826833665370941 1.2413137540079333e-07 0.9238795638084412 -0.3826833665370941 1.2413137540079333e-07 0.9238795638084412 -0.6087616086006165 1.0659401539214741e-07 0.7933531999588013 -0.6087616086006165 1.0659401539214741e-07 0.7933531999588013 -0.7933533787727356 8.179247856787697e-08 0.6087614297866821 -0.7933533787727356 8.179247856787697e-08 0.6087614297866821 -0.9238796830177307 5.14168583265473e-08 0.382683128118515 -0.9238796830177307 5.14168583265473e-08 0.382683128118515 -0.9914449453353882 1.7537347574148043e-08 0.13052618503570557 -0.9914449453353882 1.7537347574148043e-08 0.13052618503570557 -0.9914448261260986 -1.753738310128483e-08 -0.13052646815776825 -0.9914448261260986 -1.753738310128483e-08 -0.13052646815776825 -0.9238795638084412 -5.141689385368409e-08 -0.3826834261417389 -0.9238795638084412 -5.141689385368409e-08 -0.3826834261417389 -0.7933531403541565 -8.17925069895864e-08 -0.6087616682052612 -0.7933531403541565 -8.17925069895864e-08 -0.6087616682052612 -0.6087613701820374 -1.0659404381385684e-07 -0.7933534383773804 -0.6087613701820374 -1.0659404381385684e-07 -0.7933534383773804 -0.38268306851387024 -1.2413140382250276e-07 -0.9238796830177307 -0.38268306851387024 -1.2413140382250276e-07 -0.9238796830177307 -0.13052615523338318 -1.332093830797021e-07 -0.9914449453353882 -0.13052615523338318 -1.332093830797021e-07 -0.9914449453353882 0.13052643835544586 -1.3320936886884738e-07 -0.9914448261260986 0.13052643835544586 -1.3320936886884738e-07 -0.9914448261260986 0.3826833665370941 -1.2413137540079333e-07 -0.9238795638084412 0.3826833665370941 -1.2413137540079333e-07 -0.9238795638084412 0.6087616086006165 -1.0659401539214741e-07 -0.7933531999588013 0.6087616086006165 -1.0659401539214741e-07 -0.7933531999588013 0.7933533787727356 -8.179247856787697e-08 -0.6087614297866821 0.7933533787727356 -8.179247856787697e-08 -0.6087614297866821 0.9238796830177307 -5.14168583265473e-08 -0.382683128118515 0.9238796830177307 -5.14168583265473e-08 -0.382683128118515 0.9914449453353882 -1.7537347574148043e-08 -0.13052618503570557 0.9914449453353882 -1.7537347574148043e-08 -0.13052618503570557 0.9914448261260986 1.753738310128483e-08 0.13052646815776825 0.9914448261260986 1.753738310128483e-08 0.13052646815776825 0.9238795638084412 5.141689385368409e-08 0.3826834261417389 0.9238795638084412 5.141689385368409e-08 0.3826834261417389 0.7933531403541565 8.17925069895864e-08 0.6087616682052612 0.7933531403541565 8.17925069895864e-08 0.6087616682052612 0.6087613701820374 1.0659404381385684e-07 0.7933534383773804 0.6087613701820374 1.0659404381385684e-07 0.7933534383773804 -2.028761815660307e-14 1.0 1.343588280633412e-07 -2.028761815660307e-14 1.0 1.343588280633412e-07 -2.028761815660307e-14 1.0 1.343588280633412e-07 -2.028761815660307e-14 1.0 1.343588280633412e-07 -2.028761815660307e-14 1.0 1.343588280633412e-07 -2.028761815660307e-14 1.0 1.343588280633412e-07 -2.028761815660307e-14 1.0 1.343588280633412e-07 -2.028761815660307e-14 1.0 1.343588280633412e-07 -2.028761815660307e-14 1.0 1.343588280633412e-07 -2.028761815660307e-14 1.0 1.343588280633412e-07 -2.028761815660307e-14 1.0 1.343588280633412e-07 -2.028761815660307e-14 1.0 1.343588280633412e-07 -2.028761815660307e-14 1.0 1.343588280633412e-07 -2.028761815660307e-14 1.0 1.343588280633412e-07 -2.028761815660307e-14 1.0 1.343588280633412e-07 -2.028761815660307e-14 1.0 1.343588280633412e-07 -2.028761815660307e-14 1.0 1.343588280633412e-07 -2.028761815660307e-14 1.0 1.343588280633412e-07 -2.028761815660307e-14 1.0 1.343588280633412e-07 -2.028761815660307e-14 1.0 1.343588280633412e-07 -2.028761815660307e-14 1.0 1.343588280633412e-07 -2.028761815660307e-14 1.0 1.343588280633412e-07 0.38268306851387024 1.2413140382250276e-07 0.9238796830177307 0.38268306851387024 1.2413140382250276e-07 0.9238796830177307 0.13052615523338318 1.332093830797021e-07 0.9914449453353882 0.13052615523338318 1.332093830797021e-07 0.9914449453353882 2.028761815660307e-14 -1.0 -1.343588280633412e-07 2.0287619850668966e-14 -1.0 -1.343588280633412e-07 2.0287619850668966e-14 -1.0 -1.343588280633412e-07 2.028761815660307e-14 -1.0 -1.343588280633412e-07 2.0287619850668966e-14 -1.0 -1.343588280633412e-07 2.0287619850668966e-14 -1.0 -1.343588280633412e-07 2.028761815660307e-14 -1.0 -1.343588280633412e-07 2.0287619850668966e-14 -1.0 -1.343588280633412e-07 2.0287619850668966e-14 -1.0 -1.343588280633412e-07 2.028761815660307e-14 -1.0 -1.343588280633412e-07 2.0287619850668966e-14 -1.0 -1.343588280633412e-07 2.0287619850668966e-14 -1.0 -1.343588280633412e-07 2.028761815660307e-14 -1.0 -1.343588280633412e-07 2.028761815660307e-14 -1.0 -1.343588280633412e-07 2.028761815660307e-14 -1.0 -1.343588280633412e-07 2.028761815660307e-14 -1.0 -1.343588280633412e-07 2.028761815660307e-14 -1.0 -1.343588280633412e-07 2.028761815660307e-14 -1.0 -1.343588280633412e-07 2.028761815660307e-14 -1.0 -1.343588280633412e-07 2.028761815660307e-14 -1.0 -1.343588280633412e-07 2.028761815660307e-14 -1.0 -1.343588280633412e-07 2.028761815660307e-14 -1.0 -1.343588280633412e-07</float_array><technique_common><accessor source="#mesh3-normals-array" count="92" stride="3"><param name="X" type="float" /><param name="Y" type="float" /><param name="Z" type="float" /></accessor></technique_common></source><vertices id="mesh3-vertices"><input semantic="POSITION" source="#mesh3-positions" /></vertices><triangles count="92" material="titanium"><input semantic="VERTEX" source="#mesh3-vertices" offset="0" /><input semantic="NORMAL" source="#mesh3-normals" offset="1" /><p>0 0 1 0 3 0 0 1 3 1 2 1 2 2 3 2 5 2 2 3 5 3 4 3 4 4 5 4 7 4 4 5 7 5 6 5 6 6 7 6 9 6 6 7 9 7 8 7 8 8 9 8 11 8 8 9 11 9 10 9 10 10 11 10 13 10 10 11 13 11 12 11 12 12 13 12 15 12 12 13 15 13 14 13 14 14 15 14 17 14 14 15 17 15 16 15 16 16 17 16 19 16 16 17 19 17 18 17 18 18 19 18 21 18 18 19 21 19 20 19 20 20 21 20 23 20 20 21 23 21 22 21 22 22 23 22 25 22 22 23 25 23 24 23 24 24 25 24 27 24 24 25 27 25 26 25 26 26 27 26 29 26 26 27 29 27 28 27 28 28 29 28 31 28 28 29 31 29 30 29 30 30 31 30 33 30 30 31 33 31 32 31 32 32 33 32 35 32 32 33 35 33 34 33 34 34 35 34 37 34 34 35 37 35 36 35 36 36 37 36 39 36 36 37 39 37 38 37 38 38 39 38 41 38 38 39 41 39 40 39 40 40 41 40 43 40 40 41 43 41 42 41 42 42 43 42 45 42 42 43 45 43 44 43 5 44 3 44 1 44 1 45 47 45 45 45 45 46 43 46 41 46 41 47 39 47 37 47 37 48 35 48 33 48 33 49 31 49 29 49 29 50 27 50 25 50 25 51 23 51 21 51 21 52 19 52 17 52 17 53 15 53 13 53 13 54 11 54 9 54 9 55 7 55 5 55 5 56 1 56 45 56 45 57 41 57 37 57 37 58 33 58 29 58 29 59 25 59 21 59 21 60 17 60 13 60 13 61 9 61 5 61 5 62 45 62 37 62 37 63 29 63 21 63 21 64 13 64 5 64 37 65 21 65 5 65 44 66 45 66 47 66 44 67 47 67 46 67 46 68 47 68 1 68 46 69 1 69 0 69 46 70 0 70 2 70 2 71 4 71 6 71 6 72 8 72 10 72 10 73 12 73 14 73 14 74 16 74 18 74 18 75 20 75 22 75 22 76 24 76 26 76 26 77 28 77 30 77 30 78 32 78 34 78 34 79 36 79 38 79 38 80 40 80 42 80 42 81 44 81 46 81 46 82 2 82 6 82 6 83 10 83 14 83 14 84 18 84 22 84 22 85 26 85 30 85 30 86 34 86 38 86 38 87 42 87 46 87 46 88 6 88 14 88 14 89 22 89 30 89 30 90 38 90 46 90 14 91 30 91 46 91</p></triangles></mesh></geometry><geometry id="mesh4"><mesh><source id="mesh4-positions"><float_array id="mesh4-array" count="168">0.005499999970197678 -0.011500000022351742 -0.018000001087784767 0.005499999970197678 -0.013500000350177288 -0.01600000075995922 0.0034999996423721313 -0.011500000022351742 -0.01600000075995922 0.005500001832842827 -0.012914213351905346 -0.017414214089512825 0.004345301538705826 -0.012654700316488743 -0.017154701054096222 0.004085788503289223 -0.012914213351905346 -0.01600000075995922 0.004085788503289223 -0.011499999091029167 -0.017414214089512825 0.005499999970197678 -0.013500000350177288 -0.012000000104308128 0.005499999970197678 -0.011500000022351742 -0.009999999776482582 0.0034999996423721313 -0.011500000022351742 -0.012000000104308128 0.005500001832842827 -0.012914213351905346 -0.010585786774754524 0.004345301538705826 -0.012654700316488743 -0.010845299810171127 0.004085788503289223 -0.011499999091029167 -0.010585786774754524 0.004085788503289223 -0.012914213351905346 -0.012000000104308128 0.005499999970197678 0.011500000022351742 -0.018000001087784767 0.0034999996423721313 0.011500000022351742 -0.01600000075995922 0.005499999970197678 0.013500000350177288 -0.01600000075995922 0.004085788503289223 0.011499999091029167 -0.017414214089512825 0.004345301538705826 0.012654700316488743 -0.017154701054096222 0.004085788503289223 0.012914213351905346 -0.01600000075995922 0.005500001832842827 0.012914213351905346 -0.017414214089512825 0.005499999970197678 0.011500000022351742 -0.009999999776482582 0.005499999970197678 0.013500000350177288 -0.012000000104308128 0.0034999996423721313 0.011500000022351742 -0.012000000104308128 0.005500001832842827 0.012914213351905346 -0.010585786774754524 0.004345301538705826 0.012654700316488743 -0.010845299810171127 0.004085788503289223 0.012914213351905346 -0.012000000104308128 0.004085788503289223 0.011499999091029167 -0.010585786774754524 0.06450000405311584 -0.011500000022351742 -0.018000001087784767 0.06650000065565109 -0.011500000022351742 -0.01600000075995922 0.06450000405311584 -0.013500000350177288 -0.01600000075995922 0.06591421365737915 -0.011499999091029167 -0.017414214089512825 0.0656546950340271 -0.012654700316488743 -0.017154701054096222 0.06591421365737915 -0.012914213351905346 -0.01600000075995922 0.06449999660253525 -0.012914213351905346 -0.017414214089512825 0.06450000405311584 -0.011500000022351742 -0.009999999776482582 0.06450000405311584 -0.013500000350177288 -0.012000000104308128 0.06650000065565109 -0.011500000022351742 -0.012000000104308128 0.06449999660253525 -0.012914213351905346 -0.010585786774754524 0.0656546950340271 -0.012654700316488743 -0.010845299810171127 0.06591421365737915 -0.012914213351905346 -0.012000000104308128 0.06591421365737915 -0.011499999091029167 -0.010585786774754524 0.06450000405311584 0.011500000022351742 -0.018000001087784767 0.06450000405311584 0.013500000350177288 -0.01600000075995922 0.06650000065565109 0.011500000022351742 -0.01600000075995922 0.06449999660253525 0.012914213351905346 -0.017414214089512825 0.0656546950340271 0.012654700316488743 -0.017154701054096222 0.06591421365737915 0.012914213351905346 -0.01600000075995922 0.06591421365737915 0.011499999091029167 -0.017414214089512825 0.06450000405311584 0.011500000022351742 -0.009999999776482582 0.06650000065565109 0.011500000022351742 -0.012000000104308128 0.06450000405311584 0.013500000350177288 -0.012000000104308128 0.06591421365737915 0.011499999091029167 -0.010585786774754524 0.0656546950340271 0.012654700316488743 -0.010845299810171127 0.06591421365737915 0.012914213351905346 -0.012000000104308128 0.06449999660253525 0.012914213351905346 -0.010585786774754524</float_array><technique_common><accessor source="#mesh4-array" count="56" stride="3"><param name="X" type="float" /><param name="Y" type="float" /><param name="Z" type="float" /></accessor></technique_common></source><source id="mesh4-normals"><float_array id="mesh4-normals-array" count="324">-0.2817475497722626 -0.36718079447746277 -0.8864516615867615 -0.36718112230300903 -0.28174737095832825 -0.8864516615867615 -0.3671811521053314 -0.8864515423774719 -0.2817475199699402 -0.28174757957458496 -0.8864516019821167 -0.36718103289604187 -0.8864513635635376 -0.2817474603652954 -0.36718183755874634 -0.8864513039588928 -0.3671816885471344 -0.28174760937690735 -0.2817475497722626 -0.8864515423774719 0.3671810030937195 -0.36718112230300903 -0.8864516019821167 0.2817475199699402 -0.36718109250068665 -0.28174737095832825 0.8864516615867615 -0.2817475199699402 -0.36718079447746277 0.8864516615867615 -0.8864513039588928 -0.3671817183494568 0.28174763917922974 -0.886451244354248 -0.281747430562973 0.3671818673610687 -0.36718109250068665 0.28174737095832825 -0.8864516615867615 -0.2817475199699402 0.36718079447746277 -0.8864516615867615 -0.8864513039588928 0.3671817183494568 -0.28174763917922974 -0.886451244354248 0.281747430562973 -0.3671818673610687 -0.2817475497722626 0.8864515423774719 -0.3671810030937195 -0.36718112230300903 0.8864516019821167 -0.2817475199699402 -0.2817475497722626 0.36718079447746277 0.8864516615867615 -0.36718112230300903 0.28174737095832825 0.8864516615867615 -0.3671811521053314 0.8864515423774719 0.2817475199699402 -0.28174757957458496 0.8864516019821167 0.36718103289604187 -0.8864513635635376 0.2817474603652954 0.36718183755874634 -0.8864513039588928 0.3671816885471344 0.28174760937690735 0.36718109250068665 -0.28174737095832825 -0.8864516615867615 0.2817475199699402 -0.36718079447746277 -0.8864516615867615 0.8864513039588928 -0.3671817183494568 -0.28174763917922974 0.886451244354248 -0.281747430562973 -0.3671818673610687 0.2817475497722626 -0.8864515423774719 -0.3671810030937195 0.36718112230300903 -0.8864516019821167 -0.2817475199699402 0.2817475497722626 -0.36718079447746277 0.8864516615867615 0.36718112230300903 -0.28174737095832825 0.8864516615867615 0.3671811521053314 -0.8864515423774719 0.2817475199699402 0.28174757957458496 -0.8864516019821167 0.36718103289604187 0.8864513635635376 -0.2817474603652954 0.36718183755874634 0.8864513039588928 -0.3671816885471344 0.28174760937690735 0.2817475497722626 0.36718079447746277 -0.8864516615867615 0.36718112230300903 0.28174737095832825 -0.8864516615867615 0.3671811521053314 0.8864515423774719 -0.2817475199699402 0.28174757957458496 0.8864516019821167 -0.36718103289604187 0.8864513635635376 0.2817474603652954 -0.36718183755874634 0.8864513039588928 0.3671816885471344 -0.28174760937690735 0.36718109250068665 0.28174737095832825 0.8864516615867615 0.2817475199699402 0.36718079447746277 0.8864516615867615 0.8864513039588928 0.3671817183494568 0.28174763917922974 0.886451244354248 0.281747430562973 0.3671818673610687 0.2817475497722626 0.8864515423774719 0.3671810030937195 0.36718112230300903 0.8864516019821167 0.2817475199699402 -0.38268402218818665 0.0 -0.9238793849945068 -0.38268399238586426 0.0 -0.9238793849945068 -0.9238790273666382 0.0 -0.3826847970485687 -0.9238790273666382 0.0 -0.3826848268508911 -0.38268420100212097 -0.9238791465759277 0.0 -0.38268420100212097 -0.9238791465759277 0.0 -0.9238789677619934 -0.3826848268508911 0.0 -0.9238789677619934 -0.3826848268508911 0.0 -0.38268402218818665 0.0 0.9238793849945068 -0.38268399238586426 0.0 0.9238793849945068 -0.9238790273666382 0.0 0.3826847970485687 -0.9238790273666382 0.0 0.3826848268508911 -0.38268420100212097 0.9238791465759277 0.0 -0.38268420100212097 0.9238791465759277 0.0 -0.9238789677619934 0.3826848268508911 0.0 -0.9238789677619934 0.3826848268508911 0.0 0.0 0.3826836049556732 -0.9238795638084412 0.0 0.38268357515335083 -0.9238795638084412 0.0 0.9238793849945068 -0.38268375396728516 0.0 0.9238793849945068 -0.38268372416496277 0.0 0.3826836049556732 0.9238795638084412 0.0 0.38268357515335083 0.9238795638084412 0.0 0.9238793849945068 0.38268375396728516 0.0 0.9238793849945068 0.38268372416496277 0.9238789677619934 0.3826848268508911 0.0 0.9238789677619934 0.3826848268508911 0.0 0.38268420100212097 0.9238791465759277 0.0 0.38268420100212097 0.9238791465759277 0.0 0.38268402218818665 0.0 -0.9238793849945068 0.38268399238586426 0.0 -0.9238793849945068 0.9238790273666382 0.0 -0.3826847970485687 0.9238790273666382 0.0 -0.3826848268508911 0.38268402218818665 0.0 0.9238793849945068 0.38268399238586426 0.0 0.9238793849945068 0.9238790273666382 0.0 0.3826847970485687 0.9238790273666382 0.0 0.3826848268508911 0.38268420100212097 -0.9238791465759277 0.0 0.38268420100212097 -0.9238791465759277 0.0 0.9238789677619934 -0.3826848268508911 0.0 0.9238789677619934 -0.3826848268508911 0.0 0.0 -0.3826836049556732 -0.9238795638084412 0.0 -0.38268357515335083 -0.9238795638084412 0.0 -0.9238793849945068 -0.38268375396728516 0.0 -0.9238793849945068 -0.38268372416496277 0.0 -0.3826836049556732 0.9238795638084412 0.0 -0.38268357515335083 0.9238795638084412 0.0 -0.9238793849945068 0.38268375396728516 0.0 -0.9238793849945068 0.38268372416496277 0.0 0.0 -1.0 0.0 0.0 -1.0 -1.0 0.0 0.0 -1.0 0.0 0.0 0.0 -1.0 0.0 0.0 -1.0 0.0 0.0 0.0 1.0 0.0 0.0 1.0 0.0 1.0 0.0 0.0 1.0 0.0 1.0 0.0 0.0 1.0 0.0 0.0</float_array><technique_common><accessor source="#mesh4-normals-array" count="108" stride="3"><param name="X" type="float" /><param name="Y" type="float" /><param name="Z" type="float" /></accessor></technique_common></source><vertices id="mesh4-vertices"><input semantic="POSITION" source="#mesh4-positions" /></vertices><triangles count="108" material="rubber"><input semantic="VERTEX" source="#mesh4-vertices" offset="0" /><input semantic="NORMAL" source="#mesh4-normals" offset="1" /><p>0 0 3 0 4 0 0 1 4 1 6 1 1 2 5 2 4 2 1 3 4 3 3 3 2 4 6 4 4 4 2 5 4 5 5 5 7 6 10 6 11 6 7 7 11 7 13 7 8 8 12 8 11 8 8 9 11 9 10 9 9 10 13 10 11 10 9 11 11 11 12 11 14 12 17 12 18 12 14 13 18 13 20 13 15 14 19 14 18 14 15 15 18 15 17 15 16 16 20 16 18 16 16 17 18 17 19 17 21 18 24 18 25 18 21 19 25 19 27 19 22 20 26 20 25 20 22 21 25 21 24 21 23 22 27 22 25 22 23 23 25 23 26 23 28 24 31 24 32 24 28 25 32 25 34 25 29 26 33 26 32 26 29 27 32 27 31 27 30 28 34 28 32 28 30 29 32 29 33 29 35 30 38 30 39 30 35 31 39 31 41 31 36 32 40 32 39 32 36 33 39 33 38 33 37 34 41 34 39 34 37 35 39 35 40 35 42 36 45 36 46 36 42 37 46 37 48 37 43 38 47 38 46 38 43 39 46 39 45 39 44 40 48 40 46 40 44 41 46 41 47 41 49 42 52 42 53 42 49 43 53 43 55 43 50 44 54 44 53 44 50 45 53 45 52 45 51 46 55 46 53 46 51 47 53 47 54 47 14 48 0 48 6 48 14 49 6 49 17 49 17 50 6 50 2 50 17 51 2 51 15 51 1 52 7 52 13 52 1 53 13 53 5 53 5 54 13 54 9 54 5 55 9 55 2 55 8 56 21 56 27 56 8 57 27 57 12 57 12 58 27 58 23 58 12 59 23 59 9 59 22 60 16 60 19 60 22 61 19 61 26 61 26 62 19 62 15 62 26 63 15 63 23 63 42 64 14 64 20 64 42 65 20 65 45 65 45 66 20 66 16 66 45 67 16 67 43 67 21 68 49 68 55 68 21 69 55 69 24 69 24 70 55 70 51 70 24 71 51 71 22 71 50 72 44 72 47 72 50 73 47 73 54 73 54 74 47 74 43 74 54 75 43 75 51 75 28 76 42 76 48 76 28 77 48 77 31 77 31 78 48 78 44 78 31 79 44 79 29 79 49 80 35 80 41 80 49 81 41 81 52 81 52 82 41 82 37 82 52 83 37 83 50 83 36 84 30 84 33 84 36 85 33 85 40 85 40 86 33 86 29 86 40 87 29 87 37 87 0 88 28 88 34 88 0 89 34 89 3 89 3 90 34 90 30 90 3 91 30 91 1 91 35 92 8 92 10 92 35 93 10 93 38 93 38 94 10 94 7 94 38 95 7 95 36 95 14 96 42 96 28 96 14 97 28 97 0 97 2 98 9 98 23 98 2 99 23 99 15 99 30 100 36 100 7 100 30 101 7 101 1 101 49 102 21 102 8 102 49 103 8 103 35 103 16 104 22 104 51 104 16 105 51 105 43 105 44 106 50 106 37 106 44 107 37 107 29 107</p></triangles></mesh></geometry></library_geometries><library_visual_scenes><visual_scene id="Scene"><node id="mesh0-node"><instance_geometry url="#mesh0"><bind_material><technique_common><instance_material symbol="ivory" target="#ivory" /></technique_common></bind_material></instance_geometry></node><node id="mesh1-node"><instance_geometry url="#mesh1"><bind_material><technique_common><instance_material symbol="graphite" target="#graphite" /></technique_common></bind_material></instance_geometry></node><node id="mesh2-node"><instance_geometry url="#mesh2"><bind_material><technique_common><instance_material symbol="titanium" target="#titanium" /></technique_common></bind_material></instance_geometry></node><node id="mesh3-node"><instance_geometry url="#mesh3"><bind_material><technique_common><instance_material symbol="titanium" target="#titanium" /></technique_common></bind_material></instance_geometry></node><node id="mesh4-node"><instance_geometry url="#mesh4"><bind_material><technique_common><instance_material symbol="rubber" target="#rubber" /></technique_common></bind_material></instance_geometry></node></visual_scene></library_visual_scenes><scene><instance_visual_scene url="#Scene" /></scene></COLLADA>